<?xml version="1.0" encoding="utf-8"?>
<!-- Generator: Adobe Illustrator 16.0.0, SVG Export Plug-In . SVG Version: 6.00 Build 0)  -->
<!DOCTYPE svg PUBLIC "-//W3C//DTD SVG 1.1//EN" "http://www.w3.org/Graphics/SVG/1.1/DTD/svg11.dtd">
<svg version="1.1" id="圖層_1" xmlns="http://www.w3.org/2000/svg" xmlns:xlink="http://www.w3.org/1999/xlink" x="0px" y="0px"
	 width="136.531px" height="103.438px" viewBox="0 0 136.531 103.438" enable-background="new 0 0 136.531 103.438"
	 xml:space="preserve">
<g>
	<g>
		<g>
			<path fill="#626262" d="M124.515,103.438H11.938C5.467,103.438,0,97.972,0,91.5V27.172c0-6.231,5.246-11.495,11.455-11.495
				h26.708l1.427-7.492C40.348,3.413,44.405,0,49.437,0H87.5c5.023,0,9.082,3.41,9.87,8.291l1.403,7.386h26.79
				c6.047,0,10.967,5.156,10.967,11.495V91.5C136.531,98.083,131.14,103.438,124.515,103.438z M11.455,23.39
				c-1.958,0-3.742,1.803-3.742,3.782V91.5c0,2.379,2.271,4.225,4.226,4.225h112.577c2.412,0,4.303-1.855,4.303-4.225V27.172
				c0-2.085-1.46-3.782-3.254-3.782H95.582c-1.853,0-3.443-1.317-3.788-3.137L89.775,9.625c-0.233-1.438-1.324-1.913-2.274-1.913
				H49.437c-0.949,0-2.039,0.473-2.25,1.8l-2.042,10.742c-0.347,1.819-1.938,3.135-3.789,3.135H11.455z"/>
		</g>
	</g>
	<g>
		<path fill="#626262" d="M68.332,88.627c-16.066,0-29.136-13.07-29.136-29.137c0-16.065,13.07-29.137,29.136-29.137
			c16.065,0,29.136,13.071,29.136,29.137C97.467,75.557,84.397,88.627,68.332,88.627z M68.332,37.489c-12.131,0-22,9.87-22,22.001
			s9.869,22.001,22,22.001c12.131,0,22.001-9.869,22.001-22.001S80.462,37.489,68.332,37.489z"/>
	</g>
	<g>
		<path fill="#626262" d="M68.332,74.132c-8.073,0-14.641-6.568-14.641-14.642S60.259,44.85,68.332,44.85
			c8.074,0,14.642,6.568,14.642,14.641S76.406,74.132,68.332,74.132z"/>
	</g>
	<circle fill-rule="evenodd" clip-rule="evenodd" fill="#626262" cx="23.555" cy="35.71" r="6.835"/>
</g>
</svg>
