<svg id="evr3iipuywym1" xmlns="http://www.w3.org/2000/svg" xmlns:xlink="http://www.w3.org/1999/xlink" viewBox="0 0 415 440" shape-rendering="geometricPrecision" text-rendering="geometricPrecision"><style><![CDATA[#evr3iipuywym29_to {animation: evr3iipuywym29_to__to 4000ms linear infinite normal forwards}@keyframes evr3iipuywym29_to__to { 0% {transform: translate(126.180891px,316.538643px)} 12.500000% {transform: translate(119.092032px,301.951513px)} 25% {transform: translate(126.180891px,316.538643px)} 37.500000% {transform: translate(119.092032px,301.951513px)} 50% {transform: translate(126.180891px,316.538643px)} 62.500000% {transform: translate(119.092032px,301.951513px)} 75% {transform: translate(126.180891px,316.538643px)} 87.500000% {transform: translate(119.092032px,301.951513px)} 100% {transform: translate(126.180891px,316.538643px)} }#evr3iipuywym29_tr {animation: evr3iipuywym29_tr__tr 4000ms linear infinite normal forwards}@keyframes evr3iipuywym29_tr__tr { 0% {transform: rotate(0deg)} 12.500000% {transform: rotate(10.807902deg)} 25% {transform: rotate(0deg)} 37.500000% {transform: rotate(8.599274deg)} 50% {transform: rotate(0deg)} 62.500000% {transform: rotate(8.599274deg)} 75% {transform: rotate(0deg)} 87.500000% {transform: rotate(8.599274deg)} 100% {transform: rotate(0deg)} }#evr3iipuywym57_ts {animation: evr3iipuywym57_ts__ts 4000ms linear infinite normal forwards}@keyframes evr3iipuywym57_ts__ts { 0% {transform: translate(210.050400px,129.619091px) scale(1,1)} 20% {transform: translate(210.050400px,129.619091px) scale(1,1)} 27.500000% {transform: translate(210.050400px,129.619091px) scale(1,0.137731)} 35% {transform: translate(210.050400px,129.619091px) scale(1,1)} 67.500000% {transform: translate(210.050400px,129.619091px) scale(1,1)} 75% {transform: translate(210.050400px,129.619091px) scale(1,0.137731)} 82.500000% {transform: translate(210.050400px,129.619091px) scale(1,1)} 100% {transform: translate(210.050400px,129.619091px) scale(1,1)} }]]></style><g id="evr3iipuywym2"><path id="evr3iipuywym3" d="M345.818000,426.576000C345.818000,430.975000,349.419000,434.576000,353.818000,434.576000L401.898000,434.576000C406.297000,434.576000,409.898000,430.975000,409.898000,426.576000L409.898000,101.777000C409.898000,97.377000,406.297000,93.777000,401.898000,93.777000L353.818000,93.777000C349.419000,93.777000,345.818000,97.377000,345.818000,101.777000L345.818000,426.576000Z" fill="rgb(243,248,244)" stroke="none" stroke-width="1"/></g><g id="evr3iipuywym4"><g id="evr3iipuywym5"><g id="evr3iipuywym6"><path id="evr3iipuywym7" d="M295.432000,178.879000C295.432000,178.879000,276.117000,192.514000,268.162000,187.401000L218.736000,227.734000C218.736000,227.734000,287.477000,220.349000,295.432000,178.879000Z" fill="rgb(255,172,157)" stroke="none" stroke-width="1"/><path id="evr3iipuywym8" d="M210.984000,189.478000C210.984000,189.478000,226.931000,221.752000,232.373000,232.848000C237.811000,243.944000,284.447000,227.664000,278.389000,199.330000C278.389000,199.330000,257.669000,178.468000,255.868000,146.160000C254.062000,113.852000,210.984000,189.478000,210.984000,189.478000Z" fill="rgb(255,172,157)" stroke="none" stroke-width="1"/><path id="evr3iipuywym9" d="M238.676000,154.589000C237.379000,154.055000,236.071000,153.542000,234.766000,153.027000C223.112000,168.189000,210.985000,189.478000,210.985000,189.478000C210.985000,189.478000,219.087000,204.427000,224.530000,215.469000C236.492000,213.100000,259.701000,189.361000,256.710000,164.997000C255.765000,163.089000,255.127000,163.604000,254.338000,161.626000C249.702000,158.374000,243.816000,156.706000,238.676000,154.589000Z" fill="rgb(248,137,126)" stroke="none" stroke-width="1"/></g><g id="evr3iipuywym10"><path id="evr3iipuywym11" d="M176.017000,84.608000C176.017000,84.608000,172.464000,103.732000,174.103000,126.405000C175.161000,141.052000,189.128000,83.789000,189.128000,83.789000L176.017000,84.608000Z" fill="rgb(169,83,79)" stroke="none" stroke-width="1"/><path id="evr3iipuywym12" d="M227.514000,72.566000C227.514000,72.566000,176.501000,70.563000,174.060000,119.517000C171.618000,168.472000,186.670000,213.682000,223.208000,198.331000C259.747000,182.979000,296.454000,87.951000,227.514000,72.566000Z" fill="rgb(255,172,157)" stroke="none" stroke-width="1"/><path id="evr3iipuywym13" d="M254.227000,152.157000C254.227000,152.157000,260.639000,121.757000,272.662000,127.651000C284.684000,133.546000,274.118000,169.675000,254.227000,152.157000Z" fill="rgb(255,172,157)" stroke="none" stroke-width="1"/><path id="evr3iipuywym14" d="M241.854000,98.813000C242.489000,93.313000,242.001000,90.085000,242.126000,90.072000C255.922000,88.737000,266.900000,95.442000,280.766000,96.042000C281.770000,107.106000,279.992000,119.084000,273.270000,128.318000C273.270000,128.318000,270.692000,126.826000,266.918000,127.633000C266.918000,127.633000,258.768000,130.868000,257.061000,146.961000L249.688000,146.028000L253.639000,122.582000C253.639000,122.582000,243.057000,117.809000,241.854000,98.813000Z" fill="rgb(169,83,79)" stroke="none" stroke-width="1"/><path id="evr3iipuywym15" d="M244.038000,91.439000C244.038000,91.439000,213.988000,106.736000,191.041000,95.808000L206.065000,93.350000C206.065000,93.350000,172.191000,93.622000,167.822000,78.051000L171.918000,80.237000C171.918000,80.237000,165.362000,72.042000,172.191000,58.930000C172.191000,58.930000,174.103000,66.851000,185.850000,65.487000C197.597000,64.120000,219.943000,37.684000,248.409000,54.832000C271.084000,68.492000,263.162000,91.165000,263.162000,91.165000L253.055000,81.876000C253.055000,81.876000,261.796000,61.660000,271.084000,68.491000C278.761000,74.137000,290.630000,99.938000,272.660000,127.650000L244.038000,91.439000Z" fill="rgb(169,83,79)" stroke="none" stroke-width="1"/></g></g><g id="evr3iipuywym16"><g id="evr3iipuywym17"><path id="evr3iipuywym18" d="M205.953000,157.742000C205.953000,157.742000,205.324000,157.669000,204.260000,157.354000C203.732000,157.186000,203.089000,156.973000,202.384000,156.638000C201.677000,156.311000,200.886000,155.887000,200.142000,155.238000C199.395000,154.605000,198.657000,153.759000,198.226000,152.655000C198.139000,152.373000,198.050000,152.087000,197.961000,151.798000C197.922000,151.498000,197.883000,151.194000,197.843000,150.886000C197.830000,150.222000,197.901000,149.716000,197.928000,149.107000C197.963000,147.938000,198.182000,146.706000,198.367000,145.462000C198.545000,144.207000,198.785000,142.971000,199.025000,141.736000C199.991000,136.788000,201.238000,131.914000,202.263000,128.282000C202.766000,126.464000,203.251000,124.966000,203.568000,123.911000C203.894000,122.859000,204.104000,122.265000,204.104000,122.265000C204.104000,122.265000,203.998000,122.886000,203.812000,123.972000C203.612000,125.054000,203.327000,126.599000,202.984000,128.453000C202.622000,130.302000,202.212000,132.460000,201.729000,134.763000C201.498000,135.915000,201.258000,137.106000,201.015000,138.316000C200.750000,139.522000,200.530000,140.754000,200.291000,141.983000C200.037000,143.211000,199.785000,144.438000,199.601000,145.629000C199.416000,146.830000,199.130000,147.985000,199.059000,149.173000C199.008000,149.737000,198.926000,150.385000,198.901000,150.850000C198.918000,151.106000,198.935000,151.360000,198.952000,151.610000C199.012000,151.854000,199.071000,152.094000,199.130000,152.332000C199.440000,153.266000,200.009000,154.059000,200.641000,154.695000C201.928000,155.967000,203.362000,156.677000,204.348000,157.120000C205.347000,157.558000,205.953000,157.742000,205.953000,157.742000Z" fill="rgb(248,137,126)" stroke="none" stroke-width="1"/></g><g id="evr3iipuywym19"><path id="evr3iipuywym20" d="M261.616000,153.163000C262.577000,152.635000,263.490000,152.026000,264.263000,151.290000C265.023000,150.555000,265.667000,149.669000,265.790000,148.715000C265.817000,148.479000,265.811000,148.243000,265.786000,148.010000C265.749000,147.778000,265.694000,147.549000,265.604000,147.326000C265.512000,147.106000,265.413000,146.885000,265.270000,146.680000C265.145000,146.470000,264.989000,146.274000,264.827000,146.080000C264.499000,145.698000,264.127000,145.340000,263.727000,145.007000C263.324000,144.676000,262.893000,144.372000,262.456000,144.076000L262.153000,143.872000L262.199000,143.498000C262.321000,142.510000,262.512000,141.563000,262.725000,140.606000C262.946000,139.654000,263.182000,138.701000,263.509000,137.769000C263.829000,136.836000,264.200000,135.912000,264.692000,135.022000C264.934000,134.576000,265.217000,134.144000,265.559000,133.739000C265.895000,133.335000,266.285000,132.945000,266.785000,132.656000C267.274000,132.365000,267.886000,132.191000,268.477000,132.241000C268.793000,132.260000,269.014000,132.325000,269.362000,132.443000L270.014000,132.751000C270.475000,133.020000,270.952000,133.384000,271.276000,133.795000C271.614000,134.211000,271.860000,134.689000,272.029000,135.179000C272.370000,136.164000,272.383000,137.188000,272.278000,138.161000C272.166000,139.137000,271.932000,140.089000,271.567000,140.984000C271.755000,140.039000,271.866000,139.084000,271.856000,138.140000C271.836000,137.199000,271.686000,136.264000,271.330000,135.451000C271.145000,135.047000,270.908000,134.680000,270.610000,134.376000C270.307000,134.052000,269.995000,133.852000,269.623000,133.649000L268.951000,133.385000C268.838000,133.371000,268.592000,133.299000,268.425000,133.316000C268.058000,133.311000,267.706000,133.418000,267.378000,133.628000C266.720000,134.055000,266.207000,134.823000,265.783000,135.615000C265.354000,136.415000,265.014000,137.285000,264.723000,138.175000C264.135000,139.949000,263.703000,141.817000,263.387000,143.662000L263.131000,143.084000C263.588000,143.420000,264.038000,143.766000,264.467000,144.148000C264.891000,144.535000,265.303000,144.946000,265.654000,145.424000C265.829000,145.663000,265.998000,145.907000,266.135000,146.176000C266.287000,146.433000,266.401000,146.724000,266.496000,147.014000C266.592000,147.307000,266.644000,147.617000,266.672000,147.928000C266.688000,148.242000,266.659000,148.555000,266.596000,148.859000C266.311000,150.088000,265.458000,150.988000,264.563000,151.647000C263.658000,152.313000,262.663000,152.823000,261.616000,153.163000Z" fill="rgb(248,137,126)" stroke="none" stroke-width="1"/></g><path id="evr3iipuywym21" d="M193.774000,167.656000C193.774000,167.656000,209.617000,186.780000,227.102000,164.925000" fill="rgb(255,255,255)" stroke="none" stroke-width="1"/><g id="evr3iipuywym22"><path id="evr3iipuywym23" d="M213.611000,119.010000C213.611000,119.010000,214.363000,117.851000,216.009000,116.626000C216.427000,116.336000,216.872000,115.991000,217.400000,115.727000C217.911000,115.426000,218.474000,115.150000,219.084000,114.913000C219.682000,114.652000,220.350000,114.494000,221.018000,114.312000C221.706000,114.216000,222.399000,114.039000,223.120000,114.062000L224.190000,114.062000C224.545000,114.085000,224.897000,114.159000,225.247000,114.208000C225.953000,114.275000,226.608000,114.522000,227.237000,114.745000C227.884000,114.923000,228.418000,115.314000,228.944000,115.599000C229.489000,115.866000,229.908000,116.259000,230.298000,116.602000C230.683000,116.952000,231.064000,117.228000,231.306000,117.579000C231.570000,117.903000,231.781000,118.199000,231.955000,118.438000C232.303000,118.917000,232.474000,119.203000,232.474000,119.203000C232.474000,119.203000,232.159000,119.053000,231.652000,118.772000C231.400000,118.630000,231.092000,118.464000,230.763000,118.258000C230.445000,118.034000,229.999000,117.914000,229.587000,117.695000C229.158000,117.499000,228.715000,117.264000,228.204000,117.123000C227.698000,116.975000,227.202000,116.741000,226.642000,116.667000C226.092000,116.555000,225.539000,116.408000,224.954000,116.390000C224.665000,116.363000,224.374000,116.337000,224.082000,116.310000L223.193000,116.331000C222.601000,116.290000,222.009000,116.448000,221.422000,116.474000C220.843000,116.600000,220.256000,116.666000,219.702000,116.823000C219.144000,116.968000,218.596000,117.093000,218.088000,117.271000C217.570000,117.425000,217.095000,117.614000,216.638000,117.764000C215.749000,118.111000,214.987000,118.409000,214.458000,118.644000C213.919000,118.876000,213.611000,119.010000,213.611000,119.010000Z" fill="rgb(53,40,54)" stroke="none" stroke-width="1"/></g><g id="evr3iipuywym24"><path id="evr3iipuywym25" d="M180.118000,120.077000C180.118000,120.077000,180.869000,118.918000,182.516000,117.693000C182.934000,117.403000,183.379000,117.058000,183.907000,116.794000C184.416000,116.493000,184.981000,116.217000,185.589000,115.980000C186.187000,115.719000,186.855000,115.561000,187.522000,115.380000C188.211000,115.284000,188.904000,115.107000,189.624000,115.130000L190.694000,115.130000C191.049000,115.153000,191.402000,115.226000,191.750000,115.275000C192.456000,115.343000,193.112000,115.590000,193.741000,115.812000C194.388000,115.990000,194.920000,116.381000,195.448000,116.666000C195.992000,116.933000,196.410000,117.326000,196.801000,117.669000C197.184000,118.019000,197.565000,118.295000,197.807000,118.645000C198.072000,118.969000,198.283000,119.265000,198.458000,119.504000C198.805000,119.983000,198.977000,120.269000,198.977000,120.269000C198.977000,120.269000,198.661000,120.120000,198.154000,119.838000C197.902000,119.696000,197.595000,119.530000,197.265000,119.324000C196.946000,119.100000,196.501000,118.980000,196.090000,118.761000C195.662000,118.565000,195.218000,118.330000,194.707000,118.189000C194.202000,118.041000,193.705000,117.807000,193.144000,117.733000C192.595000,117.621000,192.042000,117.474000,191.456000,117.456000C191.167000,117.430000,190.876000,117.403000,190.584000,117.376000L189.697000,117.397000C189.105000,117.356000,188.513000,117.514000,187.925000,117.540000C187.346000,117.666000,186.759000,117.732000,186.205000,117.890000C185.648000,118.035000,185.099000,118.159000,184.591000,118.338000C184.075000,118.492000,183.598000,118.681000,183.141000,118.831000C182.252000,119.178000,181.489000,119.476000,180.962000,119.711000C180.425000,119.943000,180.118000,120.077000,180.118000,120.077000Z" fill="rgb(53,40,54)" stroke="none" stroke-width="1"/></g></g></g><g id="evr3iipuywym26"><path id="evr3iipuywym27" d="M219.876000,224.328000C220.346000,223.957000,220.760000,223.590000,221.139000,223.226000C246.061000,228.820000,278.413000,208.140000,283.432000,183.397000C289.151000,180.947000,296.741000,176.795000,306.225000,173.198000C322.700000,166.949000,345.422000,181.152000,345.422000,181.152000L345.422000,425.428000C345.422000,425.428000,195.445000,315.220000,187.492000,286.247000C179.540000,257.273000,211.921000,230.576000,219.876000,224.328000Z" fill="rgb(255,166,85)" stroke="none" stroke-width="1"/><path id="evr3iipuywym28" d="M272.829000,305.270000C287.039000,282.628000,303.459000,261.573000,316.305000,238.028000C326.658000,219.061000,335.188000,199.261000,340.169000,178.307000C343.413000,179.902000,345.422000,181.154000,345.422000,181.154000L345.422000,425.430000C345.422000,425.430000,291.234000,385.611000,246.276000,347.547000C256.275000,333.615000,264.688000,318.248000,272.829000,305.270000Z" opacity="0.2" fill="rgb(51,11,4)" stroke="none" stroke-width="1"/></g><g id="evr3iipuywym29_to" transform="translate(126.180891,316.538643)"><g id="evr3iipuywym29_tr" transform="rotate(0)"><g id="evr3iipuywym29" transform="translate(-126.180891,-316.538643)"><path id="evr3iipuywym30" d="M176.258000,304.744000L222.789000,346.292000C222.789000,346.292000,269.717000,304.140000,233.601000,252.526000C197.483000,200.915000,176.258000,304.744000,176.258000,304.744000Z" fill="rgb(255,166,85)" stroke="none" stroke-width="1"/><path id="evr3iipuywym31" d="M179.216000,307.320000L220.450000,344.046000C220.450000,344.046000,162.419000,400.505000,139.567000,394.491000C122.886000,390.101000,-50.734000,224.818000,27.180000,285.318000C27.180000,285.318000,-23.092000,234.677000,28.081000,275.131000C28.081000,275.131000,-22.391000,226.754000,34.906000,268.892000C34.906000,268.892000,-9.176000,225.642000,50.700000,270.859000C50.700000,270.859000,39.756000,233.392000,59.454000,275.056000C59.454000,275.056000,139.880000,332.926000,141.945000,335.388000C144.008000,337.854000,179.216000,307.320000,179.216000,307.320000Z" fill="rgb(255,172,157)" stroke="none" stroke-width="1"/><path id="evr3iipuywym32" d="M200.130000,339.522000C203.957000,343.422000,207.978000,347.615000,212.213000,351.703000C217.300000,347.107000,220.450000,344.046000,220.450000,344.046000L179.216000,307.320000C179.216000,307.320000,178.021000,308.355000,176.073000,310.017000C184.580000,319.265000,191.365000,330.584000,200.130000,339.522000Z" fill="rgb(248,137,126)" stroke="none" stroke-width="1"/></g></g></g><path id="evr3iipuywym33" d="M341.559000,120.887000C341.559000,120.887000,375.830000,119.743000,370.121000,125.075000C364.409000,130.406000,347.270000,129.263000,347.270000,129.263000C347.270000,129.263000,378.117000,131.548000,375.067000,134.975000C372.024000,138.402000,346.129000,138.022000,346.129000,138.022000C346.129000,138.022000,379.639000,141.068000,371.643000,146.018000C363.647000,150.968000,345.370000,148.304000,345.370000,148.304000C345.370000,148.304000,374.294000,149.217000,367.835000,153.253000C361.744000,157.061000,326.329000,161.249000,335.088000,150.968000C335.088000,150.968000,328.234000,142.211000,333.566000,134.595000C333.562000,134.594000,329.375000,125.835000,341.559000,120.887000Z" fill="rgb(255,172,157)" stroke="none" stroke-width="1"/><path id="evr3iipuywym34" d="M344.986000,155.918000L345.747000,168.484000C345.747000,168.484000,330.896000,166.198000,331.658000,143.351000C332.419000,120.505000,344.986000,155.918000,344.986000,155.918000Z" fill="rgb(255,172,157)" stroke="none" stroke-width="1"/><g id="evr3iipuywym35"><ellipse id="evr3iipuywym36" rx="21.520000" ry="74.988000" transform="matrix(0.25710000000000 -0.96640000000000 0.96640000000000 0.25710000000000 229.19757779999989 73.39286719999996)" fill="rgb(73,49,39)" stroke="none" stroke-width="1"/><path id="evr3iipuywym37" d="M279.771000,65.225000L275.542000,81.129000C274.200000,86.172000,252.531000,84.786000,227.147000,78.032000C201.761000,71.279000,182.271000,61.715000,183.612000,56.672000L187.841000,40.767000C187.969000,40.288000,188.108000,39.808000,188.251000,39.329000C195.587000,14.818000,221.131000,0.409000,246.037000,7.033000C270.937000,13.658000,285.943000,38.856000,280.134000,63.775000C280.021000,64.258000,279.902000,64.743000,279.771000,65.225000Z" fill="rgb(232,181,33)" stroke="none" stroke-width="1"/><path id="evr3iipuywym38" d="M279.771000,65.225000L277.888000,72.311000C276.545000,77.354000,254.876000,75.966000,229.493000,69.214000C204.109000,62.460000,184.616000,52.897000,185.958000,47.855000L187.842000,40.767000C187.970000,40.288000,188.109000,39.808000,188.252000,39.329000C195.588000,14.818000,221.132000,0.409000,246.038000,7.033000C270.938000,13.658000,285.944000,38.856000,280.135000,63.775000C280.021000,64.258000,279.902000,64.743000,279.771000,65.225000Z" fill="rgb(249,208,43)" stroke="none" stroke-width="1"/><path id="evr3iipuywym39" d="M280.137000,63.775000C278.067000,68.482000,256.743000,67.020000,231.842000,60.395000C206.941000,53.770000,187.713000,44.443000,188.254000,39.329000C195.590000,14.818000,221.134000,0.409000,246.040000,7.033000C270.941000,13.659000,285.948000,38.857000,280.137000,63.775000Z" fill="rgb(107,78,50)" stroke="none" stroke-width="1"/><circle id="evr3iipuywym40" r="1.634000" transform="matrix(1 0 0 1 223.52000000000001 17.45900000000000)" fill="rgb(73,49,39)" stroke="none" stroke-width="1"/><path id="evr3iipuywym41" d="M242.438000,22.492000C242.208000,23.364000,241.315000,23.885000,240.440000,23.652000C239.571000,23.422000,239.051000,22.526000,239.284000,21.653000C239.518000,20.780000,240.411000,20.262000,241.282000,20.493000C242.152000,20.728000,242.670000,21.620000,242.438000,22.492000Z" fill="rgb(73,49,39)" stroke="none" stroke-width="1"/><path id="evr3iipuywym42" d="M245.032000,12.746000C244.799000,13.620000,243.908000,14.137000,243.033000,13.905000C242.164000,13.674000,241.644000,12.780000,241.877000,11.906000C242.107000,11.034000,243.004000,10.515000,243.874000,10.746000C244.748000,10.978000,245.264000,11.875000,245.032000,12.746000Z" fill="rgb(73,49,39)" stroke="none" stroke-width="1"/><circle id="evr3iipuywym43" r="1.633000" transform="matrix(1 0 0 1 258.20499999999998 26.68500000000000)" fill="rgb(73,49,39)" stroke="none" stroke-width="1"/><path id="evr3iipuywym44" d="M213.264000,26.881000C213.033000,27.754000,212.135000,28.272000,211.262000,28.042000C210.393000,27.810000,209.872000,26.913000,210.104000,26.041000C210.335000,25.173000,211.233000,24.654000,212.104000,24.884000C212.975000,25.116000,213.495000,26.013000,213.264000,26.881000Z" fill="rgb(73,49,39)" stroke="none" stroke-width="1"/><circle id="evr3iipuywym45" r="1.634000" transform="matrix(1 0 0 1 229.02699999999999 31.07700000000000)" fill="rgb(73,49,39)" stroke="none" stroke-width="1"/><circle id="evr3iipuywym46" r="1.635000" transform="matrix(1 0 0 1 246.36900000000000 35.68900000000000)" fill="rgb(73,49,39)" stroke="none" stroke-width="1"/><circle id="evr3iipuywym47" r="1.634000" transform="matrix(1 0 0 1 263.71300000000002 40.30300000000000)" fill="rgb(73,49,39)" stroke="none" stroke-width="1"/><path id="evr3iipuywym48" d="M201.428000,35.887000C201.195000,36.757000,200.299000,37.276000,199.430000,37.047000C198.556000,36.814000,198.037000,35.918000,198.268000,35.047000C198.498000,34.176000,199.398000,33.656000,200.269000,33.889000C201.140000,34.118000,201.659000,35.015000,201.428000,35.887000Z" fill="rgb(73,49,39)" stroke="none" stroke-width="1"/><path id="evr3iipuywym49" d="M218.770000,40.503000C218.540000,41.372000,217.643000,41.891000,216.772000,41.659000C215.899000,41.428000,215.379000,40.531000,215.610000,39.660000C215.843000,38.789000,216.739000,38.269000,217.610000,38.500000C218.482000,38.733000,219,39.629000,218.770000,40.503000Z" fill="rgb(73,49,39)" stroke="none" stroke-width="1"/><path id="evr3iipuywym50" d="M236.113000,45.117000C235.882000,45.986000,234.982000,46.505000,234.114000,46.273000C233.239000,46.041000,232.720000,45.147000,232.951000,44.275000C233.185000,43.402000,234.080000,42.882000,234.955000,43.114000C235.823000,43.347000,236.348000,44.244000,236.113000,45.117000Z" fill="rgb(73,49,39)" stroke="none" stroke-width="1"/><circle id="evr3iipuywym51" r="1.634000" transform="matrix(1 0 0 1 252.16700000000000 49.38600000000000)" fill="rgb(73,49,39)" stroke="none" stroke-width="1"/><path id="evr3iipuywym52" d="M271.087000,54.421000C270.856000,55.289000,269.961000,55.810000,269.088000,55.579000C268.216000,55.346000,267.699000,54.451000,267.930000,53.581000C268.163000,52.710000,269.057000,52.189000,269.928000,52.420000C270.802000,52.651000,271.316000,53.548000,271.087000,54.421000Z" fill="rgb(73,49,39)" stroke="none" stroke-width="1"/></g><text id="evr3iipuywym53" dx="0" dy="0" font-family="NotoSansCJKtc-Light-B5pc-H" font-size="31.797000" transform="matrix(1 0 0 1 360.51700000000000 213.84100000000001)" fill="rgb(98,98,98)" stroke="none" stroke-width="1"><![CDATA[我]]></text><text id="evr3iipuywym54" dx="0" dy="0" font-family="NotoSansCJKtc-Light-B5pc-H" font-size="31.797000" transform="matrix(1 0 0 1 360.51700000000000 271.47600000000000)" fill="rgb(98,98,98)" stroke="none" stroke-width="1"><![CDATA[要]]></text><text id="evr3iipuywym55" dx="0" dy="0" font-family="NotoSansCJKtc-Light-B5pc-H" font-size="31.797000" transform="matrix(1 0 0 1 360.51700000000000 329.11099999999999)" fill="rgb(98,98,98)" stroke="none" stroke-width="1"><![CDATA[開]]></text><text id="evr3iipuywym56" dx="0" dy="0" font-family="NotoSansCJKtc-Light-B5pc-H" font-size="31.797000" transform="matrix(1 0 0 1 360.51700000000000 386.74700000000001)" fill="rgb(98,98,98)" stroke="none" stroke-width="1"><![CDATA[團]]></text><g id="evr3iipuywym57_ts" transform="translate(210.050400,129.619091) scale(1,1)"><g id="evr3iipuywym57" transform="translate(-210.050400,-129.619091)"><ellipse id="evr3iipuywym58" rx="5.613000" ry="2.455000" transform="matrix(0.01030000000000 -0.99990000000000 0.99990000000000 0.01030000000000 227.09451590000108 129.43473530000068)" fill="rgb(53,40,54)" stroke="none" stroke-width="1"/><ellipse id="evr3iipuywym59" rx="5.614000" ry="2.455000" transform="matrix(0.00990000000002 -1 1 0.00990000000002 193.00430000000296 129.80315860000195)" fill="rgb(53,40,54)" stroke="none" stroke-width="1"/></g></g></svg>