<?xml version="1.0" encoding="utf-8"?>
<!-- Generator: Adobe Illustrator 16.0.0, SVG Export Plug-In . SVG Version: 6.00 Build 0)  -->
<!DOCTYPE svg PUBLIC "-//W3C//DTD SVG 1.1//EN" "http://www.w3.org/Graphics/SVG/1.1/DTD/svg11.dtd">
<svg version="1.1" id="圖層_1" xmlns="http://www.w3.org/2000/svg" xmlns:xlink="http://www.w3.org/1999/xlink" x="0px" y="0px"
	 width="60px" height="60px" viewBox="0 0 60 60" enable-background="new 0 0 60 60" xml:space="preserve">
<g>
	<g>
		<path fill="#007E85" d="M32.462,49.837V30.912h6.25v-6.839h-6.25v-2.205c0-1.688,0.227-2.73,0.812-3.327
			c0.439-0.514,1.316-0.89,2.578-0.89c1.17,0,2.567,0.172,3.898,0.544l1.117-5.985c-2.287-0.799-4.643-1.023-7.074-1.023
			c-2.436,0-4.35,0.376-5.892,1.266c-1.561,0.851-2.581,1.818-3.167,3.227c-0.597,1.263-0.892,3.38-0.892,6.041v2.351h-4.708v6.839
			h4.708v18.925H32.462z"/>
	</g>
	<g>
		<path fill="#007E85" d="M30,60C13.459,60,0,46.543,0,30S13.459,0,30,0s30,13.457,30,30S46.541,60,30,60z M30,3.222
			C15.235,3.222,3.223,15.233,3.223,30c0,14.764,12.012,26.775,26.777,26.775S56.777,44.764,56.777,30
			C56.777,15.233,44.765,3.222,30,3.222z"/>
	</g>
</g>
</svg>
