<?xml version="1.0" encoding="utf-8"?>
<!-- Generator: Adobe Illustrator 16.0.0, SVG Export Plug-In . SVG Version: 6.00 Build 0)  -->
<!DOCTYPE svg PUBLIC "-//W3C//DTD SVG 1.1//EN" "http://www.w3.org/Graphics/SVG/1.1/DTD/svg11.dtd">
<svg version="1.1" id="圖層_1" xmlns="http://www.w3.org/2000/svg" xmlns:xlink="http://www.w3.org/1999/xlink" x="0px" y="0px"
	 width="59.896px" height="59.894px" viewBox="0 0 59.896 59.894" enable-background="new 0 0 59.896 59.894" xml:space="preserve">
<g>
	<g>
		<g>
			<g>
				<path fill="#007E85" d="M29.947,59.894C13.434,59.894,0,46.462,0,29.947C0,13.435,13.434,0,29.947,0
					c16.512,0,29.949,13.435,29.949,29.947C59.896,46.462,46.459,59.894,29.947,59.894z M29.947,3.222
					c-14.736,0-26.726,11.99-26.726,26.725c0,14.739,11.99,26.726,26.726,26.726c14.734,0,26.725-11.987,26.725-26.726
					C56.672,15.211,44.681,3.222,29.947,3.222z"/>
			</g>
		</g>
	</g>
	<path fill="#007E85" d="M47.745,27.87c0-7.963-7.984-14.443-17.798-14.443c-9.812,0-17.796,6.479-17.796,14.443
		c0,7.14,6.331,13.12,14.884,14.249c0.58,0.126,1.368,0.383,1.567,0.878c0.18,0.45,0.117,1.154,0.058,1.608
		c0,0-0.209,1.256-0.253,1.524c-0.078,0.45-0.358,1.76,1.541,0.959c1.9-0.801,10.25-6.035,13.984-10.333H43.93
		C46.509,33.927,47.745,31.057,47.745,27.87z M23.668,32.122c0,0.192-0.154,0.347-0.346,0.347h-4.987
		c-0.093,0-0.177-0.037-0.24-0.097c-0.001-0.002-0.003-0.003-0.005-0.004c-0.002-0.002-0.003-0.004-0.005-0.006
		c-0.06-0.062-0.097-0.146-0.097-0.239v-0.001v-7.753c0-0.192,0.156-0.347,0.347-0.347h1.249c0.191,0,0.347,0.155,0.347,0.347v6.158
		h3.392c0.192,0,0.346,0.155,0.346,0.347V32.122z M26.678,32.123c0,0.191-0.155,0.346-0.347,0.346h-1.248
		c-0.191,0-0.347-0.155-0.347-0.346v-7.755c0-0.191,0.156-0.346,0.347-0.346h1.248c0.191,0,0.347,0.155,0.347,0.346V32.123z
		 M35.271,32.123c0,0.191-0.155,0.346-0.346,0.346h-1.249c-0.031,0-0.061-0.004-0.088-0.012c-0.002,0-0.004-0.001-0.005-0.001
		c-0.008-0.002-0.016-0.005-0.024-0.008c-0.003-0.001-0.007-0.003-0.01-0.003c-0.006-0.003-0.012-0.005-0.018-0.007
		s-0.011-0.006-0.017-0.008c-0.003-0.002-0.006-0.003-0.009-0.006c-0.008-0.003-0.015-0.008-0.021-0.013
		c-0.001,0-0.002-0.001-0.003-0.002c-0.033-0.022-0.063-0.051-0.088-0.085l-3.559-4.805v4.605c0,0.191-0.155,0.346-0.347,0.346
		h-1.249c-0.191,0-0.347-0.155-0.347-0.346v-7.755c0-0.191,0.156-0.346,0.347-0.346h1.249c0.004,0,0.007,0,0.012,0
		c0.005,0,0.012,0,0.018,0.001c0.006,0.001,0.012,0.001,0.018,0.003c0.005,0,0.01,0.001,0.015,0.001
		c0.007,0.001,0.013,0.002,0.02,0.004c0.004,0.002,0.008,0.002,0.012,0.003c0.007,0.002,0.014,0.004,0.02,0.007
		c0.004,0.001,0.008,0.002,0.012,0.004c0.007,0.002,0.014,0.005,0.021,0.008c0.003,0.001,0.007,0.003,0.011,0.005
		c0.005,0.003,0.012,0.007,0.019,0.011c0.003,0.002,0.007,0.004,0.01,0.006c0.006,0.003,0.012,0.008,0.018,0.012
		c0.004,0.002,0.007,0.004,0.009,0.007c0.006,0.004,0.012,0.01,0.019,0.015c0.002,0.002,0.004,0.004,0.006,0.006
		c0.007,0.007,0.015,0.014,0.021,0.021c0,0.001,0.001,0.001,0.001,0.003c0.01,0.011,0.019,0.023,0.028,0.035l3.553,4.799v-4.606
		c0-0.191,0.155-0.346,0.346-0.346h1.249c0.191,0,0.346,0.155,0.346,0.346V32.123z M42.164,25.617c0,0.191-0.155,0.346-0.346,0.346
		h-3.392v1.311h3.392c0.191,0,0.346,0.156,0.346,0.347v1.248c0,0.192-0.155,0.347-0.346,0.347h-3.392v1.311h3.392
		c0.191,0,0.346,0.155,0.346,0.347v1.248c0,0.191-0.155,0.347-0.346,0.347h-4.987H36.83c-0.093,0-0.176-0.038-0.239-0.097
		c-0.002-0.001-0.004-0.003-0.005-0.004c-0.001-0.002-0.003-0.004-0.005-0.006c-0.06-0.062-0.097-0.146-0.097-0.239v-0.001v-7.753
		c0-0.093,0.037-0.177,0.096-0.239c0.001-0.002,0.003-0.004,0.005-0.006c0.001-0.001,0.003-0.002,0.004-0.004
		c0.062-0.06,0.147-0.098,0.24-0.098h0.001h4.987c0.191,0,0.346,0.155,0.346,0.347V25.617z"/>
</g>
</svg>
