<?xml version="1.0" encoding="utf-8"?>
<!-- Generator: Adobe Illustrator 16.0.0, SVG Export Plug-In . SVG Version: 6.00 Build 0)  -->
<!DOCTYPE svg PUBLIC "-//W3C//DTD SVG 1.1//EN" "http://www.w3.org/Graphics/SVG/1.1/DTD/svg11.dtd">
<svg version="1.1" id="圖層_1" xmlns="http://www.w3.org/2000/svg" xmlns:xlink="http://www.w3.org/1999/xlink" x="0px" y="0px"
	 width="60px" height="60px" viewBox="0 0 60 60" enable-background="new 0 0 60 60" xml:space="preserve">
<g>
	<g>
		<path fill-rule="evenodd" clip-rule="evenodd" fill="#007E85" d="M41.351,14.598c-7.551,0-15.135,0-22.687,0
			c-2.704,0-4.099,1.434-4.099,4.123c0,3.75,0,7.502,0,11.279c0,3.747,0,7.593,0,11.368c0,2.611,1.44,4.031,3.965,4.031
			c7.632,0,15.214,0,22.821,0c2.636,0,4.087-1.42,4.087-4.053c0-7.599,0-15.123,0-22.719C45.438,16.032,43.987,14.598,41.351,14.598
			z M38.853,18.097c3.06,0,3.06,0,3.06,3.056c0,2.984,0,2.984-3.012,2.984c-3.03,0-3.03,0-3.03-3.034
			C35.872,18.097,35.872,18.097,38.853,18.097z M30.018,24.012c3.225,0,5.987,2.783,5.932,5.988
			c-0.022,3.299-2.762,6.01-6.032,5.958c-3.249-0.05-5.987-2.805-5.908-6.012C24.088,26.701,26.801,24.012,30.018,24.012z
			 M41.913,40.08c-0.03,1.437-0.406,1.838-1.84,1.838c-3.361,0-6.729,0-10.091,0c-3.344,0-6.705,0-10.066,0
			c-1.417,0-1.814-0.401-1.814-1.838c0-3.722,0.011-7.499-0.055-11.254c0-1.063,0.297-1.288,1.282-1.26
			c1.409,0.119,1.433,0.049,1.275,1.437c-0.543,4.744,2.752,9.389,7.451,10.307c4.836,0.917,9.679-1.981,11.01-6.624
			c0.398-1.451,0.521-3.006,0.211-4.427c-0.108-0.547,0.023-0.644,0.507-0.644c2.13-0.166,2.13-0.196,2.13,2.012
			C41.913,33.059,41.913,36.585,41.913,40.08z"/>
	</g>
	<g>
		<path fill="#007E85" d="M30,60C13.459,60,0,46.543,0,30S13.459,0,30,0c16.54,0,30,13.457,30,30S46.54,60,30,60z M30,3.222
			C15.235,3.222,3.223,15.234,3.223,30c0,14.764,12.012,26.775,26.777,26.775c14.765,0,26.776-12.011,26.776-26.775
			C56.776,15.234,44.765,3.222,30,3.222z"/>
	</g>
</g>
</svg>
