<?xml version="1.0" encoding="utf-8"?>
<!-- Generator: Adobe Illustrator 16.0.0, SVG Export Plug-In . SVG Version: 6.00 Build 0)  -->
<!DOCTYPE svg PUBLIC "-//W3C//DTD SVG 1.1//EN" "http://www.w3.org/Graphics/SVG/1.1/DTD/svg11.dtd">
<svg version="1.1" id="圖層_1" xmlns="http://www.w3.org/2000/svg" xmlns:xlink="http://www.w3.org/1999/xlink" x="0px" y="0px"
	 width="59.896px" height="59.895px" viewBox="0 0 59.896 59.895" enable-background="new 0 0 59.896 59.895" xml:space="preserve">
<g>
	<g>
		<path fill="#007E85" d="M29.948,31.421c0.713,0,1.398-0.261,1.93-0.736l12.391-11.074H15.626l12.391,11.074
			C28.549,31.16,29.234,31.421,29.948,31.421z"/>
		<path fill="#007E85" d="M44.269,40.131l-10.168-9.087l-1.058,0.945c-0.853,0.761-1.952,1.181-3.095,1.181
			c-1.144,0-2.243-0.419-3.096-1.18l-1.058-0.945l-10.167,9.086H44.269z"/>
		<polygon fill="#007E85" points="13.335,19.91 13.335,39.833 24.481,29.872 		"/>
		<polygon fill="#007E85" points="46.561,19.91 35.414,29.871 46.561,39.833 		"/>
	</g>
	<g>
		<g>
			<g>
				<path fill="#007E85" d="M29.947,59.895C13.434,59.895,0,46.463,0,29.947C0,13.435,13.434,0,29.947,0
					c16.512,0,29.948,13.435,29.948,29.947C59.896,46.463,46.459,59.895,29.947,59.895z M29.947,3.222
					c-14.736,0-26.727,11.99-26.727,26.726c0,14.739,11.99,26.726,26.727,26.726c14.734,0,26.725-11.987,26.725-26.726
					C56.672,15.211,44.682,3.222,29.947,3.222z"/>
			</g>
		</g>
	</g>
</g>
</svg>
