<?xml version="1.0" encoding="utf-8"?>
<!-- Generator: Adobe Illustrator 16.0.0, SVG Export Plug-In . SVG Version: 6.00 Build 0)  -->
<!DOCTYPE svg PUBLIC "-//W3C//DTD SVG 1.1//EN" "http://www.w3.org/Graphics/SVG/1.1/DTD/svg11.dtd">
<svg version="1.1" id="圖層_1" xmlns="http://www.w3.org/2000/svg" xmlns:xlink="http://www.w3.org/1999/xlink" x="0px" y="0px"
	 width="240px" height="240px" viewBox="0 0 240 240" enable-background="new 0 0 240 240" xml:space="preserve">
<g>
	<polygon fill="#F2B400" points="211.123,101.857 230.866,74.078 197.241,68.389 197.243,68.384 120,120 	"/>
	<polygon fill="#F2B400" points="101.857,28.875 74.079,9.133 68.391,42.76 68.386,42.759 120,120 	"/>
	<polygon fill="#FA830D" points="68.386,42.759 35.148,35.147 42.76,68.385 120,120 	"/>
	<polygon fill="#FA830D" points="28.876,101.857 28.89,101.876 0,120 28.89,138.123 28.875,138.143 120,120 	"/>
	<polygon fill="#F2B400" points="42.76,68.385 42.761,68.389 9.134,74.078 28.876,101.857 120,120 	"/>
	<polygon fill="#FA830D" points="138.144,28.875 138.123,28.889 120,0 101.877,28.889 101.857,28.875 120,120 	"/>
	<polygon fill="#FA830D" points="197.243,68.384 204.852,35.147 171.615,42.759 120,120 	"/>
	<polygon fill="#F2B400" points="171.615,42.759 171.609,42.76 165.922,9.133 138.144,28.875 120,120 	"/>
	<polygon fill="#F2B400" points="28.875,138.143 9.134,165.923 42.761,171.611 42.76,171.614 120,120 	"/>
	<polygon fill="#FA830D" points="171.616,197.242 204.852,204.854 197.242,171.616 120,120 	"/>
	<polygon fill="#FA830D" points="42.76,171.614 35.148,204.854 68.385,197.242 120,120 	"/>
	<polygon fill="#FA830D" points="240,120 211.109,101.876 211.123,101.857 120,120 211.123,138.143 211.109,138.123 	"/>
	<polygon fill="#F2B400" points="197.242,171.616 197.241,171.611 230.866,165.923 211.123,138.143 120,120 	"/>
	<polygon fill="#F2B400" points="68.385,197.242 68.391,197.24 74.079,230.867 101.857,211.127 120,120 	"/>
	<polygon fill="#F2B400" points="138.144,211.127 165.922,230.867 171.609,197.24 171.616,197.242 120,120 	"/>
	<polygon fill="#FA830D" points="101.857,211.127 101.877,211.111 120,240 138.123,211.111 138.144,211.127 120,120 	"/>
</g>
</svg>
