<?xml version="1.0" encoding="utf-8"?>
<!-- Generator: Adobe Illustrator 16.0.0, SVG Export Plug-In . SVG Version: 6.00 Build 0)  -->
<!DOCTYPE svg PUBLIC "-//W3C//DTD SVG 1.1//EN" "http://www.w3.org/Graphics/SVG/1.1/DTD/svg11.dtd">
<svg version="1.1" id="圖層_1" xmlns="http://www.w3.org/2000/svg" xmlns:xlink="http://www.w3.org/1999/xlink" x="0px" y="0px"
	 width="130.5px" height="70px" viewBox="0 0 130.5 70" enable-background="new 0 0 130.5 70" xml:space="preserve">
<rect x="-110.5" y="-0.055" fill="#F1F6F2" width="350" height="70"/>
<g>
	<g>
		<g>
			<path fill="#007481" d="M19.403,32.743c0,0.179,0.148,0.33,0.334,0.33c0.184,0,0.332-0.151,0.332-0.33
				c0-0.186-0.148-0.333-0.332-0.333C19.551,32.41,19.403,32.558,19.403,32.743z"/>
			<circle fill="#007481" cx="23.562" cy="27.273" r="0.333"/>
			<path fill="#007481" d="M20.879,32.955c0.084,0,0.161-0.038,0.21-0.105c0.096-0.116,0.073-0.289-0.041-0.379l-1.197-0.938
				c-0.052-0.036-0.109-0.056-0.167-0.056c-0.084,0-0.164,0.036-0.216,0.104c-0.044,0.06-0.065,0.129-0.059,0.2
				c0.01,0.074,0.049,0.138,0.107,0.183l1.195,0.934C20.759,32.935,20.819,32.955,20.879,32.955z"/>
			<path fill="#007481" d="M23.623,24.856c0.184,0,0.335-0.15,0.335-0.332c0-0.185-0.151-0.333-0.335-0.333
				c-0.179,0-0.331,0.148-0.331,0.333C23.292,24.706,23.443,24.856,23.623,24.856z"/>
			<path fill="#007481" d="M18.605,34.345c0-0.184-0.151-0.335-0.333-0.335c-0.188,0-0.332,0.151-0.332,0.335
				c0,0.182,0.143,0.33,0.332,0.33C18.454,34.675,18.605,34.526,18.605,34.345z"/>
			<circle fill="#007481" cx="20.367" cy="30.847" r="0.334"/>
			<path fill="#007481" d="M23.042,25.26c-0.182,0-0.332,0.152-0.332,0.336c0,0.18,0.15,0.331,0.332,0.331
				c0.181,0,0.333-0.151,0.333-0.331C23.375,25.412,23.223,25.26,23.042,25.26z"/>
			<path fill="#007481" d="M10.326,43.049l0.02-0.007c0.495-0.173,0.911-0.421,1.234-0.729c0.455-0.438,0.754-1.031,0.882-1.766
				l0.004-0.021c0-0.002-0.002-0.008-0.004-0.009c-0.002-0.003-0.009-0.002-0.011,0.001l-0.016,0.014
				c-0.356,0.305-0.749,0.574-1.17,0.8c0,0.001,0,0.002,0,0.003l-0.948,1.7c0,0.004,0,0.009,0,0.013
				c0.002,0,0.004,0.003,0.006,0.003C10.323,43.051,10.326,43.051,10.326,43.049z"/>
			<path fill="#007481" d="M15.624,37.711c-0.004,0.002-0.004,0.003-0.004,0.007c0,0.002,0,0.004,0,0.009l0.004,0.007
				c0.244,0.396,0.546,0.732,0.905,0.994v0.002c0.002,0.001,0.002,0.001,0.008,0.001l0,0l0.006-0.003
				c1.56-0.7,4.042-1.574,7.037-1.767l0.004-0.001c0.005,0,0.011-0.004,0.011-0.01v-0.015c0-0.034,0-0.072,0-0.112
				c0-0.592,0.461-1.073,1.028-1.073c0.015,0,0.026,0,0.046,0.003c0.012-0.003,0.028-0.003,0.042-0.003
				c0.568,0,1.027,0.481,1.027,1.073c0,0.026,0,0.05,0,0.078v0.037c0,0.006,0.007,0.011,0.011,0.011l0.007,0.001
				c2.248,0.121,4.418,0.68,6.443,1.649l0.007,0.002c0.002,0.002,0.004,0.002,0.006-0.002h0.005
				c0.406-0.234,0.771-0.533,1.085-0.892l0.006-0.009c0.002-0.004,0.002-0.004,0.002-0.008c0-0.003-0.002-0.006-0.004-0.007
				l-0.011-0.004c-1.866-0.965-3.85-1.601-5.897-1.886c-0.038-1.164-0.399-2.25-1.008-3.058c-0.612-0.815-1.419-1.266-2.264-1.266
				c-0.882,0-1.707,0.475-2.323,1.335c-0.615,0.854-0.958,1.99-0.962,3.2c-2.261,0.442-4.079,1.169-5.208,1.702L15.624,37.711z"/>
			<circle fill="#007481" cx="17.013" cy="36.104" r="0.333"/>
			<path fill="#007481" d="M17.861,35.387c0.01,0.148,0.129,0.265,0.275,0.265h0.008c0.002,0,0.002,0,0.002,0l1.797-0.055
				c0.074,0,0.139-0.032,0.188-0.085c0.048-0.052,0.079-0.121,0.075-0.195c-0.006-0.145-0.126-0.263-0.28-0.263l-1.798,0.054
				C17.98,35.111,17.86,35.237,17.861,35.387z"/>
			<path fill="#007481" d="M8.143,46.978l0.018-0.009c0.137-0.056,0.282-0.086,0.425-0.086c0.021,0,0.042,0.002,0.056,0.002
				c0.019,0.001,0.038,0.001,0.068,0.001c0.168,0,0.78-0.016,1.46-0.225l0.002-0.001c0.002,0,0.002-0.004,0.004-0.004l0.784-1.41
				c0.004-0.001,0.004-0.006,0-0.008c0-0.003-0.006-0.006-0.009-0.003l-0.02,0.005c-0.858,0.279-1.64,0.341-2.026,0.354H8.899
				c-0.008,0-0.008,0.002-0.008,0.006l-0.763,1.367c0,0.001,0,0.006,0.004,0.009c0,0.002,0.004,0.002,0.004,0.002
				C8.141,46.978,8.141,46.978,8.143,46.978z"/>
			<path fill="#007481" d="M29.275,30.971c0-0.182-0.146-0.33-0.328-0.33c-0.185,0-0.336,0.148-0.336,0.33
				c0,0.186,0.152,0.333,0.336,0.333C29.129,31.304,29.275,31.156,29.275,30.971z"/>
			<path fill="#007481" d="M14.92,34.794c0,0.95,0.153,1.779,0.456,2.461l0.006,0.017c0.003,0.002,0.008,0.005,0.008,0.002
				c0.006,0,0.009,0,0.011-0.002l2.117-3.806l2.668,0.799c0.028,0.007,0.052,0.01,0.081,0.01c0.121,0,0.222-0.077,0.257-0.194
				c0.021-0.07,0.017-0.145-0.017-0.208c-0.036-0.065-0.096-0.109-0.164-0.133l-2.555-0.763l2.419-4.342l1.354,3.222
				c0.043,0.102,0.141,0.165,0.249,0.165c0.034,0,0.075-0.005,0.104-0.021c0.144-0.057,0.208-0.218,0.148-0.355l-1.378-3.278
				c-0.039-0.097-0.129-0.16-0.24-0.167l1.155-2.068l1.187,4.873c0.03,0.124,0.141,0.208,0.264,0.208
				c0.025,0,0.046-0.002,0.067-0.006c0.07-0.018,0.127-0.061,0.169-0.124c0.035-0.063,0.048-0.138,0.029-0.206L22,25.476
				c-0.003-0.012-0.004-0.026-0.01-0.042l2.097-3.772l0.024,9.159c0,0.148,0.123,0.271,0.272,0.271
				c0.152-0.001,0.273-0.123,0.273-0.273L24.631,21.5L27,25.749c0,0.001,0,0.001,0,0.001l-1.462,5.459
				c-0.039,0.146,0.047,0.296,0.196,0.336c0.021,0.005,0.046,0.007,0.067,0.007c0.125,0,0.232-0.083,0.262-0.201l1.315-4.915
				l1.142,2.052c-0.028-0.01-0.058-0.015-0.087-0.015c-0.103,0-0.199,0.058-0.243,0.152l-1.615,3.229
				c-0.033,0.064-0.038,0.139-0.019,0.206c0.024,0.069,0.072,0.124,0.136,0.158c0.042,0.02,0.085,0.027,0.124,0.027
				c0.101,0,0.196-0.056,0.244-0.149l1.617-3.229c0.01-0.021,0.017-0.04,0.019-0.059l2.177,3.906l-3.037,0.921
				c-0.147,0.043-0.226,0.196-0.184,0.341c0.036,0.113,0.141,0.192,0.259,0.192c0.027,0,0.054-0.002,0.079-0.011l3.154-0.956
				l2.352,4.228l0.005,0.008c0.004,0.003,0.005,0.006,0.007,0.006l0,0c0.003,0,0.004-0.001,0.007-0.005l0.009-0.008
				c0.379-0.515,0.661-1.128,0.83-1.82v-0.002c0-0.001,0-0.004,0-0.005L25.34,19.405l1.601-2.871
				c0.105-0.193,0.133-0.415,0.072-0.624c-0.062-0.211-0.2-0.384-0.39-0.493c-0.12-0.067-0.259-0.103-0.396-0.103
				c-0.299,0-0.575,0.162-0.715,0.423L14.92,34.759c0,0.003,0,0.007,0,0.008c0,0.006,0,0.011,0,0.014
				C14.92,34.784,14.92,34.789,14.92,34.794z"/>
			<path fill="#007481" d="M21.311,28.351c0,0.184,0.15,0.333,0.329,0.333c0.186,0,0.333-0.149,0.333-0.333
				s-0.146-0.332-0.333-0.332C21.461,28.019,21.311,28.167,21.311,28.351z"/>
			<path fill="#007481" d="M27.589,28.816c0-0.181-0.147-0.329-0.331-0.329s-0.329,0.148-0.329,0.329
				c0,0.185,0.145,0.333,0.329,0.333S27.589,29.001,27.589,28.816z"/>
			<path fill="#007481" d="M23.11,18.764c0.001,0.002,0.001,0.003,0.008,0.003l0,0c0.002,0,0.006-0.001,0.006-0.003l0.006-0.013
				c0.329-0.608,0.631-1.112,0.96-1.576l0.004-0.006c0.002-0.002,0.002-0.007,0-0.009l-0.798-1.423
				c-0.141-0.261-0.417-0.423-0.716-0.423c-0.136,0-0.275,0.035-0.395,0.103c-0.396,0.224-0.538,0.721-0.318,1.117L23.11,18.764z"/>
			<path fill="#007481" d="M45.682,50.385h-2.468c-0.009,0-0.01,0-0.012,0.002c-0.004,0.004-0.004,0.008,0,0.011l0.898,1.614
				l0.003,0.005c0.002,0.002,0.004,0.004,0.005,0.004h1.573c0.449,0,0.817-0.367,0.817-0.818
				C46.499,50.749,46.13,50.385,45.682,50.385z"/>
			<path fill="#007481" d="M8.081,50.423l0.689-1.24l0.006-0.012c0.002-0.003,0.002-0.007,0-0.009
				c-0.003-0.004-0.006-0.005-0.01-0.005l0,0h-0.01c-0.111,0.003-0.182-0.003-0.21-0.003l-0.004-0.001
				c-0.527-0.025-0.982-0.422-1.073-0.94L7.468,48.19c-0.003-0.001-0.003-0.005-0.009-0.005c-0.006-0.003-0.006,0.001-0.01,0.004
				l-2.936,5.278c-0.219,0.395-0.082,0.894,0.314,1.114c0.126,0.068,0.263,0.104,0.398,0.104c0.299,0,0.571-0.161,0.717-0.419
				l1.225-2.204h34.474l1.225,2.204c0.146,0.258,0.417,0.419,0.717,0.419c0.135,0,0.276-0.035,0.399-0.104
				c0.394-0.221,0.534-0.72,0.313-1.114l-2.563-4.612l-0.005-0.005c-0.002-0.004-0.011-0.007-0.011-0.004l-0.008,0.004
				c-0.14,0.064-0.287,0.101-0.439,0.11c-0.022,0-0.082,0.002-0.179,0.002c-0.211,0-0.653-0.013-1.203-0.103l-0.017-0.002
				c0,0-0.006,0.001-0.007,0.003c-0.003,0.004-0.003,0.007,0,0.01l0.862,1.552H8.081z"/>
			<path fill="#007481" d="M4.705,52.017l0.896-1.61l0.004-0.009c0.005-0.003,0.005-0.007,0-0.011c0-0.002-0.004-0.002-0.008-0.002
				H3.127c-0.45,0-0.819,0.364-0.819,0.817c0,0.451,0.369,0.818,0.819,0.818h1.572C4.7,52.021,4.703,52.019,4.705,52.017z"/>
			<path fill="#007481" d="M27.361,32.639c-0.062,0.045-0.103,0.107-0.115,0.179c-0.008,0.073,0.009,0.145,0.053,0.202
				c0.05,0.07,0.132,0.111,0.219,0.111c0.059,0,0.113-0.017,0.16-0.051l1.227-0.896c0.059-0.043,0.097-0.105,0.107-0.177
				c0.011-0.073-0.003-0.145-0.049-0.202c-0.051-0.071-0.136-0.111-0.218-0.111c-0.059,0-0.116,0.018-0.163,0.051L27.361,32.639z"/>
			<path fill="#007481" d="M25.519,25.407c-0.18,0-0.327,0.149-0.327,0.334c0,0.181,0.147,0.332,0.327,0.332
				c0.188,0,0.335-0.151,0.335-0.332C25.854,25.557,25.707,25.407,25.519,25.407z"/>
			<path fill="#007481" d="M39.614,45.062H39.61c-0.872-0.174-1.66-0.478-2.334-0.903l-0.022-0.017
				c-0.002-0.002-0.012-0.002-0.013,0.001c-0.003,0.003-0.003,0.009,0,0.012l0.726,1.306c0,0.002,0.007,0.004,0.007,0.004
				c0.005,0.006,0.007,0.011,0.013,0.016l0.006,0.01c0.019,0.019,0.037,0.035,0.056,0.056c0.714,0.684,1.69,0.937,2.385,1.026
				l0.014,0.002l0,0c0.005,0,0.006-0.001,0.006-0.004c0.005-0.002,0.005-0.007,0.004-0.009l-0.829-1.493l-0.005-0.003
				C39.622,45.063,39.62,45.062,39.614,45.062z"/>
			<path fill="#007481" d="M28.268,34.631c-0.147,0-0.267,0.116-0.272,0.265s0.111,0.276,0.266,0.281l2.827,0.094
				c0.007,0,0.007,0,0.009,0c0.152,0,0.269-0.114,0.273-0.262c0.007-0.152-0.112-0.279-0.264-0.283l-2.829-0.095H28.268z"/>
			<path fill="#007481" d="M25.239,27.49c0,0.183,0.151,0.333,0.329,0.333c0.187,0,0.334-0.15,0.334-0.333
				c0-0.182-0.148-0.33-0.334-0.33C25.391,27.16,25.239,27.309,25.239,27.49z"/>
			<circle fill="#007481" cx="31.474" cy="35.839" r="0.331"/>
			<path fill="#007481" d="M30.168,34.2c0-0.182-0.15-0.329-0.333-0.329c-0.184,0-0.333,0.147-0.333,0.329
				c0,0.186,0.149,0.333,0.333,0.333C30.018,34.533,30.168,34.386,30.168,34.2z"/>
		</g>
		<path fill="#00ACAF" d="M13.017,50.423v-3.412l-0.391,0.335c-1.455,1.238-3.37,1.335-3.922,1.335
			c-0.066,0-0.111-0.001-0.138-0.004c-0.179-0.007-0.344-0.084-0.463-0.214c-0.118-0.133-0.179-0.3-0.175-0.475
			c0.019-0.346,0.315-0.625,0.658-0.625c0.012,0,0.021,0,0.042,0c0.002,0,0.026,0.001,0.082,0.001c0.33,0,2.057-0.056,3.2-1.147
			c0.557-0.532,0.911-1.259,1.042-2.162l0.087-0.612l-0.475,0.394c-1.448,1.191-3.317,1.284-3.855,1.284
			c-0.072,0-0.117-0.001-0.154-0.003c-0.364-0.02-0.642-0.325-0.627-0.687c0.019-0.342,0.317-0.628,0.656-0.628
			c0.01,0,0.022,0,0.034,0h0.006c0.014,0.002,0.039,0.002,0.077,0.002c0.338,0,2.067-0.058,3.209-1.148
			c0.685-0.655,1.053-1.585,1.1-2.767l0.026-0.642l-0.439,0.469c-1.215,1.303-2.634,1.642-2.696,1.656
			c-0.041,0.01-0.093,0.016-0.141,0.016c-0.31,0-0.572-0.213-0.641-0.517c-0.079-0.353,0.146-0.703,0.499-0.785
			c0.137-0.032,3.4-0.83,3.4-5.293c0-0.364,0.298-0.657,0.66-0.657c0.003,0,0.014,0,0.026,0.001l0.026,0.003l0.029-0.003
			c0.013-0.001,0.021-0.001,0.029-0.001c0.361,0,0.658,0.293,0.658,0.657c0,4.414,3.077,4.924,3.208,4.943
			c0.358,0.051,0.61,0.384,0.558,0.741c-0.042,0.325-0.322,0.57-0.651,0.57c-0.032,0-0.06-0.002-0.091-0.008
			c-0.057-0.006-1.424-0.215-2.615-1.407l-0.421-0.422l0.014,0.597c0.036,1.22,0.405,2.178,1.104,2.848
			c1.141,1.091,2.877,1.148,3.211,1.148c0.046,0,0.071,0,0.075,0l0.026-0.002c0.358,0,0.654,0.274,0.669,0.623
			c0.01,0.177-0.051,0.346-0.17,0.477c-0.116,0.128-0.275,0.206-0.438,0.215h-0.028c-0.008,0-0.052,0.003-0.144,0.003
			c-0.54,0-2.409-0.093-3.852-1.284l-0.479-0.394l0.09,0.613c0.131,0.902,0.482,1.629,1.039,2.161
			c1.144,1.092,2.872,1.147,3.207,1.147c0.038,0,0.065-0.001,0.079-0.001h0.022c0.362,0,0.658,0.273,0.673,0.624
			c0.01,0.176-0.051,0.343-0.17,0.475c-0.116,0.13-0.277,0.206-0.451,0.215h-0.016c-0.037,0.004-0.082,0.005-0.144,0.005
			c-0.548,0-2.46-0.097-3.915-1.336l-0.392-0.335v3.412H13.017z M25.261,50.423v-2.487l0.396,0.353
			c1.209,1.073,2.762,1.156,3.207,1.156c0.03,0,0.091,0,0.126-0.003c0.301-0.018,0.536-0.297,0.524-0.623
			c-0.015-0.31-0.262-0.569-0.549-0.569l-0.021,0.001c-0.026,0.002-0.049,0.002-0.08,0.002c-0.274,0-1.723-0.051-2.679-1.045
			c-0.45-0.469-0.736-1.102-0.856-1.884l-0.099-0.633l0.489,0.414c1.197,1.026,2.714,1.105,3.146,1.105
			c0.064,0,0.104-0.003,0.123-0.006h0.008c0.3-0.017,0.531-0.295,0.52-0.623c-0.015-0.312-0.26-0.568-0.551-0.568l-0.02,0.002
			c-0.01,0-0.033,0.001-0.074,0.001c-0.277,0-1.729-0.051-2.685-1.045c-0.552-0.575-0.861-1.393-0.915-2.424l-0.033-0.673
			l0.448,0.502c0.997,1.109,2.14,1.414,2.188,1.428c0.034,0.007,0.075,0.013,0.114,0.013c0.258,0,0.478-0.192,0.532-0.468
			c0.067-0.318-0.119-0.638-0.417-0.711c-0.114-0.029-2.841-0.75-2.841-4.814c0-0.159-0.057-0.31-0.161-0.421
			c-0.099-0.112-0.239-0.175-0.388-0.175l0,0l-0.031,0.003l-0.043-0.002l-0.005-0.001c-0.004,0-0.005-0.003-0.01-0.003
			c-0.304,0-0.548,0.271-0.548,0.599c0,4.022-2.575,4.479-2.682,4.496c-0.305,0.046-0.509,0.349-0.47,0.673
			c0.04,0.322,0.314,0.556,0.616,0.512c0.047-0.009,1.158-0.217,2.118-1.213l0.437-0.447l-0.025,0.623
			c-0.04,1.068-0.351,1.911-0.917,2.504c-0.958,0.994-2.407,1.045-2.693,1.045c-0.043,0-0.061-0.001-0.07-0.001l-0.016-0.002
			c-0.294,0.002-0.537,0.25-0.552,0.568c-0.015,0.327,0.22,0.606,0.524,0.623h0.009c0.021,0.003,0.06,0.005,0.115,0.005
			c0.435,0,1.95-0.08,3.147-1.104l0.487-0.414l-0.096,0.633c-0.117,0.782-0.407,1.415-0.855,1.884
			c-0.96,0.994-2.403,1.045-2.683,1.045c-0.042,0-0.062-0.002-0.068-0.002h-0.021c-0.298,0-0.545,0.248-0.56,0.567
			c-0.015,0.325,0.218,0.606,0.519,0.624c0.03,0.002,0.068,0.003,0.13,0.003c0.447,0,2.002-0.083,3.206-1.156l0.401-0.353v2.487
			H25.261z M36.542,50.423v-3.698l0.407,0.346c1.531,1.312,3.554,1.413,4.143,1.413c0.058,0,0.114,0,0.154-0.002
			c0.188-0.009,0.354-0.091,0.48-0.228c0.125-0.139,0.189-0.314,0.176-0.5c-0.017-0.371-0.328-0.66-0.71-0.66h-0.02
			c-0.011,0.001-0.036,0.003-0.09,0.003c-0.35,0-2.171-0.059-3.372-1.211c-0.594-0.565-0.963-1.341-1.1-2.3l-0.089-0.618
			l0.488,0.404c1.523,1.264,3.504,1.363,4.073,1.363c0.062,0,0.111-0.001,0.162-0.004c0.189-0.009,0.355-0.091,0.481-0.228
			c0.125-0.138,0.189-0.315,0.176-0.498c-0.017-0.372-0.325-0.662-0.703-0.662l-0.026,0.003c0,0,0,0-0.004,0
			c-0.002,0-0.032,0-0.077,0c-0.354,0-2.18-0.059-3.38-1.208c-0.742-0.711-1.134-1.727-1.165-3.021l-0.013-0.607l0.43,0.433
			c1.27,1.274,2.756,1.495,2.768,1.499c0.031,0.004,0.058,0.004,0.092,0.004c0.347,0,0.642-0.258,0.693-0.602
			c0.05-0.379-0.218-0.727-0.591-0.777c-0.136-0.022-3.384-0.577-3.384-5.209c0-0.384-0.309-0.694-0.691-0.694
			c-0.01,0-0.017,0-0.03,0.002l-0.028,0.004l-0.026-0.004c-0.011,0-0.021-0.002-0.03-0.002c-0.387,0-0.696,0.311-0.696,0.694
			c0,4.688-3.438,5.54-3.578,5.573c-0.372,0.088-0.611,0.458-0.53,0.829c0.07,0.32,0.354,0.544,0.68,0.544
			c0.051,0,0.101-0.005,0.148-0.016c0.063-0.013,1.561-0.364,2.853-1.757l0.445-0.48l-0.024,0.647
			c-0.043,1.256-0.433,2.244-1.161,2.938c-1.199,1.152-3.022,1.211-3.375,1.211c-0.035,0-0.063,0-0.092,0
			c-0.013-0.003-0.021-0.003-0.033-0.003c-0.358,0-0.676,0.304-0.692,0.664c-0.016,0.38,0.28,0.706,0.667,0.724
			c0.017,0.002,0.067,0.004,0.154,0.004c0.567,0,2.551-0.1,4.076-1.363l0.482-0.404l-0.083,0.618
			c-0.137,0.959-0.506,1.734-1.104,2.3c-1.199,1.152-3.015,1.211-3.371,1.211c-0.039,0-0.07-0.002-0.087-0.002l-0.019-0.003h-0.024
			c-0.362,0-0.675,0.297-0.691,0.665c-0.016,0.382,0.275,0.706,0.658,0.725c0.023,0.002,0.074,0.002,0.163,0.002
			c0.582,0,2.602-0.101,4.136-1.413l0.402-0.346v3.698H36.542z"/>
	</g>
	<g>
		<g>
			<path fill="#00ACAF" d="M64.435,26.25c-0.513,0-0.93,0.417-0.93,0.931v7.963c0,0.22-0.18,0.402-0.403,0.402h-4.816
				c-0.213,0-0.38-0.177-0.38-0.402V23.081c0-0.495-0.432-0.931-0.926-0.931c-0.508,0-0.933,0.426-0.933,0.931v12.062
				c0,0.22-0.184,0.402-0.402,0.402h-4.417c-0.218,0-0.397-0.183-0.397-0.402v-7.858c0-0.522-0.411-0.931-0.934-0.931
				c-0.518,0-0.926,0.408-0.926,0.931v8.556c0,0.863,0.697,1.564,1.563,1.564h13.266c0.863,0,1.564-0.701,1.564-1.564v-8.66
				C65.366,26.667,64.948,26.25,64.435,26.25z"/>
			<path fill="#00ACAF" d="M76.545,31.215h-2.371c-0.144,0-0.254-0.103-0.254-0.23v-0.169c0-0.48-0.389-0.868-0.862-0.868
				c-0.482,0-0.87,0.388-0.87,0.868v0.169c0,0.136-0.098,0.23-0.232,0.23h-2.11c-0.492,0-0.892,0.406-0.892,0.907
				c0,0.499,0.392,0.89,0.892,0.89h0.927c0.075,0,0.144,0.042,0.185,0.108c0.037,0.067,0.03,0.146-0.011,0.217l-2.008,3.254
				c-0.114,0.187-0.116,0.414-0.01,0.608c0.111,0.195,0.312,0.312,0.534,0.312c0.651,0,1.24-0.344,1.581-0.919l0.996-1.673
				c0.018-0.042,0.049-0.046,0.067-0.046c0.041,0,0.081,0.03,0.081,0.08v3.108c0,0.479,0.388,0.866,0.87,0.866
				c0.474,0,0.862-0.388,0.862-0.866v-3.257c0-0.054,0.053-0.085,0.097-0.085c0.019,0,0.053,0.005,0.078,0.033l0.797,1.444
				c0.302,0.54,0.875,0.875,1.495,0.875c0.216,0,0.405-0.108,0.517-0.297c0.113-0.188,0.113-0.411,0.011-0.6l-1.56-2.858
				c-0.026-0.048-0.008-0.099,0.009-0.132c0.054-0.093,0.195-0.174,0.297-0.174h0.885c0.498,0,0.889-0.391,0.889-0.89
				C77.434,31.621,77.035,31.215,76.545,31.215z"/>
			<path fill="#00ACAF" d="M84.883,33.317c-0.035-0.064-0.035-0.139,0.002-0.2c0.037-0.067,0.107-0.105,0.19-0.105h0.573
				c0.497,0,0.888-0.391,0.888-0.89c0-0.501-0.4-0.907-0.888-0.907h-1.945c-0.142,0-0.255-0.103-0.255-0.23v-0.169
				c0-0.486-0.372-0.868-0.843-0.868c-0.481,0-0.869,0.388-0.869,0.868v0.169c0,0.128-0.109,0.23-0.253,0.23h-2.54
				c-0.479,0-0.888,0.416-0.888,0.907c0,0.492,0.4,0.89,0.888,0.89h1.096c0.109,0,0.252,0.083,0.312,0.18
				c0.033,0.052,0.036,0.103,0.016,0.147l-1.67,2.915c-0.102,0.187-0.102,0.408,0.01,0.596c0.113,0.189,0.312,0.302,0.538,0.302
				c0.634,0,1.205-0.335,1.496-0.877l0.826-1.436c0.017-0.033,0.047-0.051,0.084-0.051c0.043,0,0.085,0.027,0.085,0.082v3.191
				c0,0.479,0.388,0.866,0.869,0.866c0.471,0,0.843-0.382,0.843-0.866v-3.34c0-0.067,0.049-0.093,0.089-0.093
				c0.034,0,0.063,0.016,0.084,0.039l0.862,1.586c0.327,0.562,0.905,0.897,1.543,0.897c0.224,0,0.424-0.112,0.53-0.299
				c0.111-0.193,0.109-0.425-0.002-0.621L84.883,33.317z"/>
			<path fill="#00ACAF" d="M78.567,28.681v-3.466c0-0.088,0.079-0.138,0.148-0.138c0.042,0,0.083,0.018,0.111,0.046l2.157,2.199
				c0.553,0.553,1.332,0.87,2.127,0.87c0.216,0,0.399-0.123,0.484-0.327c0.082-0.202,0.042-0.421-0.112-0.574l-2.743-2.789
				c-0.042-0.051-0.056-0.116-0.029-0.172c0.025-0.053,0.081-0.087,0.139-0.087h1.874c0.499,0,0.909-0.407,0.909-0.908
				s-0.41-0.91-0.909-0.91h-3.839c-0.175,0-0.317-0.139-0.317-0.316v-0.338c0-0.496-0.391-0.888-0.887-0.888
				c-0.501,0-0.906,0.399-0.906,0.888v0.338c0,0.185-0.127,0.316-0.299,0.316h-3.821c-0.502,0-0.911,0.409-0.911,0.91
				s0.409,0.908,0.911,0.908h1.88c0.057,0,0.105,0.03,0.128,0.08c0.021,0.054,0.005,0.113-0.037,0.157l-2.831,2.789
				c-0.164,0.162-0.214,0.392-0.129,0.596c0.086,0.204,0.275,0.327,0.502,0.327c0.812,0,1.573-0.316,2.149-0.892l2.22-2.155
				c0.027-0.029,0.066-0.047,0.106-0.047c0.061,0,0.132,0.049,0.132,0.137v3.445c0,0.499,0.405,0.909,0.906,0.909
				C78.172,29.59,78.567,29.18,78.567,28.681z"/>
			<path fill="#00ACAF" d="M106.371,22.743h-9.74c-0.091,0-0.173-0.046-0.234-0.125c-0.053-0.083-0.069-0.188-0.039-0.268
				l0.273-0.613c0.096-0.229,0.074-0.474-0.057-0.667c-0.127-0.186-0.326-0.293-0.557-0.293c-0.601,0-1.159,0.353-1.455,0.921
				l-0.271,0.636c-0.112,0.28-0.384,0.409-0.593,0.409H90.42c-0.538,0-0.929,0.39-0.929,0.93c0,0.526,0.391,0.908,0.929,0.908h2.39
				c0.111,0,0.219,0.061,0.281,0.161c0.058,0.087,0.071,0.192,0.035,0.273l-3.045,6.762c-0.091,0.23-0.07,0.476,0.062,0.674
				c0.121,0.178,0.32,0.285,0.534,0.285c0.629,0,1.188-0.36,1.454-0.942l0.97-2.091c0.028-0.053,0.079-0.071,0.121-0.071
				c0.058,0,0.115,0.031,0.115,0.104v8.577c0,0.522,0.363,0.889,0.886,0.889c0.502,0,0.868-0.375,0.868-0.889V35.99
				c0-0.229,0.232-0.425,0.425-0.425h7.308c0.226,0,0.44,0.206,0.44,0.425v2.323c0,0.522,0.375,0.889,0.91,0.889
				c0.522,0,0.889-0.366,0.889-0.889V27.898c0-0.855-0.676-1.501-1.564-1.501h-8.513c-0.1,0-0.184-0.043-0.233-0.122
				c-0.056-0.08-0.062-0.183-0.025-0.27l0.445-0.975c0.1-0.251,0.358-0.45,0.596-0.45h10.603c0.518,0,0.914-0.392,0.914-0.908
				C107.285,23.133,106.901,22.743,106.371,22.743z M102.824,29.99h-7.308c-0.211,0-0.425-0.229-0.425-0.443v-0.91
				c0-0.214,0.214-0.444,0.425-0.444h7.308c0.219,0,0.44,0.225,0.44,0.444v0.91C103.265,29.765,103.043,29.99,102.824,29.99z
				 M95.517,31.828h7.308c0.219,0,0.44,0.224,0.44,0.442v0.973c0,0.217-0.215,0.42-0.44,0.42h-7.308
				c-0.192,0-0.425-0.193-0.425-0.42v-0.973C95.092,32.056,95.306,31.828,95.517,31.828z"/>
			<path fill="#00ACAF" d="M125.851,30.474h-2.515c-0.079,0-0.156-0.043-0.209-0.115c-0.056-0.075-0.076-0.172-0.047-0.256
				l0.362-1.099c0.067-0.204,0.036-0.434-0.095-0.617c-0.132-0.188-0.342-0.3-0.56-0.3c-0.571,0-1.068,0.355-1.266,0.901
				l-0.383,1.099c-0.084,0.236-0.292,0.387-0.525,0.387h-3.301c-0.237,0-0.467-0.157-0.546-0.387l-0.426-1.099
				c-0.193-0.538-0.713-0.901-1.286-0.901c-0.225,0-0.424,0.104-0.559,0.287c-0.132,0.188-0.17,0.43-0.095,0.649l0.402,1.079
				c0.026,0.09,0.015,0.187-0.039,0.264c-0.053,0.068-0.129,0.107-0.217,0.107h-2.557c-0.488,0-0.886,0.409-0.886,0.91
				s0.397,0.909,0.886,0.909h5.62c0.224,0,0.403,0.165,0.403,0.379v1.244c0,0.226-0.185,0.404-0.403,0.404h-3.93
				c-0.515,0-0.932,0.407-0.932,0.907c0,0.523,0.408,0.932,0.932,0.932h3.93c0.224,0,0.403,0.167,0.403,0.379v1.753
				c0,0.515,0.405,0.932,0.904,0.932c0.521,0,0.931-0.409,0.931-0.932v-1.753c0-0.22,0.16-0.379,0.382-0.379h3.949
				c0.499,0,0.908-0.418,0.908-0.932c0-0.5-0.409-0.907-0.908-0.907h-3.949c-0.214,0-0.382-0.176-0.382-0.404v-1.244
				c0-0.22,0.16-0.379,0.382-0.379h5.618c0.499,0,0.911-0.408,0.911-0.909S126.35,30.474,125.851,30.474z"/>
			<path fill="#00ACAF" d="M126.378,25.679h-6.146c-0.208,0-0.382-0.17-0.382-0.381v-0.823c0-0.22,0.16-0.379,0.382-0.379h4.543
				c0.489,0,0.91-0.426,0.91-0.929c0-0.515-0.409-0.93-0.91-0.93h-4.672c-0.153,0-0.253-0.094-0.253-0.233v-0.149
				c0-0.52-0.41-0.929-0.931-0.929c-0.499,0-0.904,0.418-0.904,0.929v0.149c0,0.13-0.114,0.233-0.256,0.233h-4.69
				c-0.5,0-0.908,0.415-0.908,0.93c0,0.503,0.415,0.929,0.908,0.929h4.543c0.229,0,0.403,0.163,0.403,0.379v0.823
				c0,0.209-0.187,0.381-0.403,0.381h-6.147c-0.516,0-0.929,0.409-0.929,0.908c0,0.523,0.406,0.931,0.929,0.931h14.913
				c0.523,0,0.931-0.407,0.931-0.931C127.309,26.088,126.891,25.679,126.378,25.679z"/>
		</g>
		<g>
			<path fill="#00ACAF" d="M53.365,45.655l1.054,0.334c-0.16,0.59-0.427,1.026-0.806,1.313c-0.376,0.284-0.854,0.427-1.431,0.427
				c-0.717,0-1.306-0.244-1.769-0.732c-0.46-0.491-0.692-1.16-0.692-2.009c0-0.896,0.234-1.595,0.699-2.091
				c0.461-0.496,1.07-0.744,1.827-0.744c0.658,0,1.193,0.196,1.606,0.586c0.244,0.229,0.43,0.559,0.551,0.993l-1.075,0.256
				c-0.065-0.278-0.201-0.501-0.403-0.662c-0.202-0.161-0.448-0.241-0.737-0.241c-0.398,0-0.721,0.143-0.972,0.428
				c-0.248,0.287-0.374,0.753-0.374,1.395c0,0.684,0.123,1.168,0.37,1.459c0.242,0.287,0.564,0.432,0.952,0.432
				c0.291,0,0.541-0.089,0.75-0.273C53.124,46.34,53.27,46.051,53.365,45.655z"/>
			<path fill="#00ACAF" d="M57.43,42.246v1.982c0.337-0.391,0.735-0.585,1.196-0.585c0.241,0,0.455,0.042,0.646,0.131
				c0.192,0.089,0.333,0.203,0.434,0.34c0.096,0.136,0.163,0.288,0.197,0.456c0.037,0.167,0.052,0.425,0.052,0.774v2.293h-1.036
				v-2.064c0-0.408-0.017-0.667-0.056-0.779c-0.04-0.109-0.107-0.197-0.207-0.264c-0.1-0.064-0.223-0.096-0.374-0.096
				c-0.172,0-0.328,0.041-0.46,0.123c-0.134,0.087-0.234,0.211-0.296,0.379c-0.063,0.167-0.096,0.416-0.096,0.744v1.957h-1.031
				v-5.392H57.43z"/>
			<path fill="#00ACAF" d="M62.833,44.924l-0.939-0.171c0.105-0.376,0.286-0.656,0.546-0.838c0.253-0.183,0.638-0.271,1.145-0.271
				c0.461,0,0.805,0.054,1.03,0.163c0.226,0.109,0.384,0.248,0.477,0.415c0.091,0.168,0.139,0.478,0.139,0.925l-0.012,1.207
				c0,0.344,0.015,0.598,0.049,0.761c0.032,0.163,0.096,0.336,0.186,0.523h-1.022c-0.027-0.067-0.061-0.172-0.104-0.305
				c-0.017-0.062-0.026-0.103-0.033-0.122c-0.178,0.172-0.365,0.301-0.564,0.386c-0.206,0.088-0.419,0.129-0.647,0.129
				c-0.398,0-0.716-0.108-0.95-0.328c-0.23-0.217-0.346-0.492-0.346-0.827c0-0.22,0.053-0.416,0.158-0.59
				c0.104-0.173,0.254-0.307,0.439-0.396c0.192-0.092,0.467-0.173,0.824-0.241c0.483-0.092,0.819-0.176,1.005-0.254v-0.104
				c0-0.197-0.048-0.338-0.146-0.424s-0.286-0.127-0.558-0.127c-0.182,0-0.325,0.035-0.426,0.108
				C62.981,44.616,62.896,44.743,62.833,44.924z M64.214,45.763c-0.13,0.043-0.341,0.097-0.629,0.157
				c-0.286,0.062-0.476,0.121-0.563,0.18c-0.133,0.097-0.201,0.218-0.201,0.366c0,0.144,0.055,0.268,0.16,0.373
				c0.109,0.105,0.246,0.158,0.413,0.158c0.184,0,0.363-0.061,0.534-0.183c0.125-0.093,0.209-0.207,0.244-0.343
				c0.025-0.089,0.042-0.257,0.042-0.504V45.763z"/>
			<path fill="#00ACAF" d="M70.854,47.638h-1.03v-1.995c0-0.42-0.023-0.692-0.067-0.816s-0.118-0.221-0.217-0.289
				c-0.1-0.07-0.216-0.103-0.354-0.103c-0.179,0-0.342,0.048-0.485,0.146c-0.142,0.098-0.24,0.228-0.293,0.391
				c-0.05,0.16-0.08,0.46-0.08,0.896v1.77h-1.032v-3.905h0.96v0.573c0.343-0.442,0.771-0.662,1.29-0.662
				c0.228,0,0.437,0.04,0.625,0.122c0.189,0.084,0.33,0.187,0.43,0.315c0.093,0.127,0.163,0.271,0.201,0.433
				c0.035,0.163,0.054,0.394,0.054,0.696V47.638z"/>
			<path fill="#00ACAF" d="M72.865,47.896l1.181,0.144c0.02,0.137,0.063,0.232,0.134,0.281c0.1,0.074,0.253,0.111,0.465,0.111
				c0.269,0,0.473-0.039,0.607-0.12c0.093-0.054,0.16-0.142,0.207-0.26c0.032-0.088,0.047-0.246,0.047-0.477v-0.569
				c-0.308,0.42-0.7,0.632-1.171,0.632c-0.526,0-0.94-0.222-1.246-0.666c-0.24-0.35-0.36-0.787-0.36-1.311
				c0-0.654,0.158-1.154,0.471-1.498c0.315-0.348,0.707-0.52,1.178-0.52c0.482,0,0.882,0.213,1.198,0.634v-0.545h0.965v3.504
				c0,0.462-0.037,0.807-0.116,1.035c-0.076,0.228-0.178,0.407-0.317,0.538c-0.138,0.128-0.323,0.229-0.548,0.303
				c-0.23,0.073-0.524,0.111-0.873,0.111c-0.662,0-1.133-0.115-1.409-0.34C73,48.656,72.86,48.367,72.86,48.02
				C72.86,47.985,72.862,47.944,72.865,47.896z M73.787,45.604c0,0.415,0.081,0.717,0.238,0.91c0.163,0.194,0.362,0.287,0.595,0.287
				c0.256,0,0.467-0.096,0.641-0.296c0.175-0.197,0.264-0.488,0.264-0.876c0-0.403-0.086-0.705-0.251-0.901
				c-0.168-0.196-0.377-0.294-0.634-0.294c-0.246,0-0.451,0.096-0.614,0.288C73.868,44.916,73.787,45.209,73.787,45.604z"/>
			<path fill="#00ACAF" d="M80.876,46.396l1.031,0.173c-0.129,0.376-0.342,0.663-0.626,0.861c-0.285,0.198-0.644,0.296-1.07,0.296
				c-0.682,0-1.184-0.223-1.508-0.666c-0.259-0.354-0.389-0.803-0.389-1.345c0-0.649,0.17-1.153,0.508-1.523
				c0.337-0.366,0.765-0.548,1.284-0.548c0.583,0,1.038,0.192,1.373,0.576c0.339,0.383,0.497,0.97,0.483,1.764h-2.588
				c0.006,0.306,0.092,0.545,0.248,0.714c0.163,0.172,0.36,0.256,0.598,0.256c0.162,0,0.299-0.043,0.406-0.132
				C80.736,46.732,80.822,46.591,80.876,46.396z M80.938,45.351c-0.009-0.301-0.083-0.526-0.234-0.685
				c-0.148-0.153-0.324-0.231-0.535-0.231c-0.226,0-0.412,0.081-0.559,0.245c-0.146,0.166-0.22,0.387-0.218,0.671H80.938z"/>
			<path fill="#00ACAF" d="M88.296,47.638v-2.27l-1.977-3.122h1.275l1.27,2.132l1.244-2.132h1.257l-1.983,3.129v2.263H88.296z"/>
			<path fill="#00ACAF" d="M92.152,45.63c0-0.344,0.086-0.676,0.255-0.997c0.17-0.321,0.407-0.566,0.725-0.736
				c0.305-0.17,0.65-0.253,1.037-0.253c0.589,0,1.071,0.192,1.447,0.576c0.379,0.383,0.566,0.868,0.566,1.454
				c0,0.591-0.19,1.08-0.571,1.47c-0.381,0.389-0.858,0.582-1.438,0.582c-0.358,0-0.7-0.081-1.025-0.242
				c-0.325-0.163-0.571-0.398-0.741-0.714C92.238,46.46,92.152,46.077,92.152,45.63z M93.213,45.686c0,0.386,0.091,0.683,0.276,0.89
				c0.184,0.206,0.411,0.308,0.68,0.308c0.27,0,0.498-0.102,0.679-0.308c0.186-0.207,0.273-0.505,0.273-0.898
				c0-0.382-0.088-0.677-0.273-0.883c-0.181-0.204-0.409-0.309-0.679-0.309c-0.269,0-0.496,0.104-0.68,0.309
				C93.304,45,93.213,45.297,93.213,45.686z"/>
			<path fill="#00ACAF" d="M100.619,47.638v-0.584c-0.14,0.208-0.326,0.371-0.559,0.492c-0.232,0.118-0.477,0.18-0.736,0.18
				c-0.261,0-0.497-0.058-0.703-0.174c-0.21-0.115-0.362-0.275-0.453-0.484c-0.094-0.208-0.142-0.497-0.142-0.863v-2.472h1.033
				v1.795c0,0.548,0.021,0.885,0.06,1.009c0.036,0.123,0.104,0.222,0.205,0.295c0.103,0.071,0.229,0.107,0.383,0.107
				c0.177,0,0.337-0.048,0.475-0.144c0.144-0.1,0.235-0.219,0.287-0.361c0.054-0.145,0.076-0.495,0.076-1.055v-1.646h1.036v3.905
				H100.619z"/>
			<path fill="#00ACAF" d="M104.694,47.638h-1.033v-3.905h0.961v0.554c0.165-0.263,0.312-0.435,0.444-0.519
				c0.129-0.083,0.278-0.124,0.442-0.124c0.237,0,0.465,0.066,0.683,0.194l-0.317,0.902c-0.177-0.113-0.339-0.17-0.485-0.17
				c-0.147,0-0.27,0.04-0.367,0.119c-0.104,0.08-0.179,0.224-0.241,0.434c-0.058,0.207-0.086,0.645-0.086,1.308V47.638z"/>
			<path fill="#00ACAF" d="M110.875,47.638v-5.349h1.087v4.439h2.709v0.909H110.875z"/>
			<path fill="#00ACAF" d="M116.495,43.201v-0.955h1.036v0.955H116.495z M116.495,47.638v-3.905h1.036v3.905H116.495z"/>
			<path fill="#00ACAF" d="M119.193,43.732h0.569v-0.295c0-0.329,0.035-0.574,0.109-0.737c0.066-0.16,0.197-0.293,0.386-0.395
				c0.185-0.102,0.424-0.152,0.712-0.152c0.293,0,0.583,0.045,0.862,0.132l-0.14,0.721c-0.167-0.038-0.323-0.059-0.477-0.059
				c-0.148,0-0.253,0.034-0.319,0.107c-0.063,0.068-0.099,0.202-0.099,0.401v0.276h0.771v0.812h-0.771v3.094h-1.035v-3.094h-0.569
				V43.732z"/>
			<path fill="#00ACAF" d="M125.468,46.396l1.032,0.173c-0.134,0.376-0.341,0.663-0.628,0.861c-0.282,0.198-0.646,0.296-1.073,0.296
				c-0.68,0-1.183-0.223-1.507-0.666c-0.258-0.354-0.388-0.803-0.388-1.345c0-0.649,0.171-1.153,0.509-1.523
				c0.338-0.366,0.768-0.548,1.283-0.548c0.582,0,1.04,0.192,1.377,0.576c0.339,0.383,0.497,0.97,0.481,1.764h-2.59
				c0.005,0.306,0.091,0.545,0.251,0.714c0.159,0.172,0.355,0.256,0.595,0.256c0.162,0,0.299-0.043,0.41-0.132
				C125.33,46.732,125.414,46.591,125.468,46.396z M125.529,45.351c-0.007-0.301-0.085-0.526-0.236-0.685
				c-0.145-0.153-0.324-0.231-0.533-0.231c-0.226,0-0.414,0.081-0.56,0.245c-0.145,0.166-0.222,0.387-0.215,0.671H125.529z"/>
		</g>
	</g>
</g>
</svg>
