<?xml version="1.0" encoding="utf-8"?>
<!-- Generator: Adobe Illustrator 16.0.0, SVG Export Plug-In . SVG Version: 6.00 Build 0)  -->
<!DOCTYPE svg PUBLIC "-//W3C//DTD SVG 1.1//EN" "http://www.w3.org/Graphics/SVG/1.1/DTD/svg11.dtd">
<svg version="1.1" id="圖層_1" xmlns="http://www.w3.org/2000/svg" xmlns:xlink="http://www.w3.org/1999/xlink" x="0px" y="0px"
	 width="190px" height="190px" viewBox="0 0 190 190" enable-background="new 0 0 190 190" xml:space="preserve">
<rect y="0" fill="#F2F6F2" width="190" height="190"/>
<g>
	<g>
		<g>
			<path fill="#007481" d="M85.356,69.487c0,0.348,0.287,0.638,0.642,0.638c0.355,0,0.642-0.29,0.642-0.638
				c0-0.355-0.286-0.64-0.642-0.64C85.643,68.848,85.356,69.132,85.356,69.487z"/>
			<path fill="#007481" d="M93.377,59.582c0.351,0,0.64-0.288,0.64-0.639c0-0.353-0.289-0.644-0.64-0.644
				c-0.354,0-0.646,0.291-0.646,0.644C92.731,59.294,93.023,59.582,93.377,59.582z"/>
			<path fill="#007481" d="M88.203,69.899c0.163,0,0.311-0.073,0.406-0.203c0.184-0.228,0.141-0.56-0.079-0.733l-2.31-1.807
				c-0.1-0.069-0.211-0.107-0.322-0.107c-0.162,0-0.314,0.071-0.418,0.201c-0.084,0.114-0.124,0.248-0.111,0.386
				c0.02,0.143,0.094,0.266,0.207,0.353l2.304,1.803C87.97,69.86,88.087,69.899,88.203,69.899z"/>
			<path fill="#007481" d="M93.494,54.28c0.354,0,0.645-0.291,0.645-0.64c0-0.355-0.291-0.643-0.645-0.643
				c-0.347,0-0.637,0.287-0.637,0.643C92.857,53.989,93.147,54.28,93.494,54.28z"/>
			<path fill="#007481" d="M83.816,72.577c0-0.354-0.291-0.644-0.642-0.644c-0.363,0-0.638,0.289-0.638,0.644
				c0,0.351,0.274,0.638,0.638,0.638C83.525,73.215,83.816,72.928,83.816,72.577z"/>
			<path fill="#007481" d="M87.859,65.831c0-0.354-0.291-0.644-0.642-0.644c-0.354,0-0.646,0.289-0.646,0.644
				s0.291,0.637,0.646,0.637C87.568,66.468,87.859,66.186,87.859,65.831z"/>
			<path fill="#007481" d="M92.375,55.058c-0.349,0-0.639,0.293-0.639,0.646c0,0.349,0.29,0.64,0.639,0.64
				c0.35,0,0.64-0.291,0.64-0.64C93.014,55.351,92.724,55.058,92.375,55.058z"/>
			<path fill="#007481" d="M67.853,89.363l0.039-0.015c0.953-0.332,1.755-0.809,2.381-1.406c0.878-0.846,1.452-1.989,1.699-3.404
				l0.008-0.039c0-0.004-0.004-0.017-0.008-0.018c-0.005-0.007-0.016-0.005-0.021,0.001l-0.033,0.026
				c-0.686,0.587-1.443,1.11-2.256,1.543c0,0.003,0,0.005,0,0.006l-1.827,3.277c0,0.009,0,0.019,0,0.026
				c0.005,0,0.009,0.005,0.012,0.005C67.848,89.366,67.853,89.366,67.853,89.363z"/>
			<path fill="#007481" d="M78.068,79.068c-0.008,0.004-0.008,0.008-0.008,0.012c0,0.003,0,0.009,0,0.018l0.008,0.014
				c0.471,0.766,1.053,1.412,1.746,1.919v0.005c0.004,0,0.004,0,0.015,0l0,0l0.014-0.003c3.007-1.352,7.794-3.038,13.568-3.412
				l0.011-0.001c0.009,0,0.021-0.007,0.021-0.016v-0.031c0-0.066,0-0.139,0-0.215c0-1.141,0.888-2.069,1.98-2.069
				c0.028,0,0.051,0,0.09,0.004c0.022-0.004,0.054-0.004,0.08-0.004c1.096,0,1.983,0.929,1.983,2.069c0,0.05,0,0.096,0,0.148v0.073
				c0,0.011,0.012,0.02,0.02,0.02l0.012,0.002c4.338,0.235,8.521,1.312,12.428,3.185l0.012,0.003
				c0.004,0.002,0.008,0.002,0.012-0.003h0.008c0.785-0.455,1.488-1.031,2.094-1.723l0.012-0.017
				c0.004-0.007,0.004-0.008,0.004-0.014c0-0.008-0.004-0.014-0.008-0.016l-0.02-0.007c-3.6-1.859-7.424-3.087-11.371-3.636
				c-0.076-2.245-0.77-4.338-1.945-5.896c-1.18-1.571-2.736-2.439-4.366-2.439c-1.699,0-3.289,0.914-4.481,2.572
				c-1.185,1.647-1.847,3.84-1.854,6.174c-4.362,0.851-7.866,2.252-10.044,3.281L78.068,79.068z"/>
			<path fill="#007481" d="M81.39,75.97c0-0.354-0.289-0.642-0.645-0.642c-0.352,0-0.642,0.288-0.642,0.642
				c0,0.355,0.29,0.643,0.642,0.643C81.101,76.612,81.39,76.325,81.39,75.97z"/>
			<path fill="#007481" d="M82.381,74.589c0.02,0.285,0.247,0.51,0.531,0.51h0.015c0.005,0,0.005,0,0.005,0l3.468-0.105
				c0.14-0.001,0.268-0.062,0.363-0.164c0.092-0.101,0.151-0.234,0.145-0.376c-0.013-0.281-0.244-0.509-0.539-0.509L82.9,74.047
				C82.613,74.056,82.377,74.3,82.381,74.589z"/>
			<path fill="#007481" d="M63.642,96.938l0.035-0.015c0.263-0.109,0.544-0.165,0.818-0.165c0.04,0,0.08,0.002,0.107,0.002
				c0.037,0.002,0.073,0.002,0.132,0.002c0.324,0,1.504-0.03,2.815-0.432l0.005-0.002c0.003,0,0.003-0.008,0.008-0.008l1.511-2.72
				c0.007-0.003,0.007-0.013,0-0.017c0-0.005-0.012-0.012-0.017-0.005l-0.039,0.009c-1.656,0.538-3.163,0.655-3.909,0.681h-0.007
				c-0.017,0-0.017,0.004-0.017,0.012l-1.472,2.638c0,0.004,0,0.012,0.009,0.018c0,0.002,0.007,0.002,0.007,0.002
				C63.638,96.938,63.638,96.938,63.642,96.938z"/>
			<path fill="#007481" d="M104.395,66.072c0-0.353-0.281-0.638-0.633-0.638c-0.355,0-0.648,0.285-0.648,0.638
				c0,0.355,0.293,0.643,0.648,0.643C104.113,66.715,104.395,66.428,104.395,66.072z"/>
			<path fill="#007481" d="M76.71,73.444c0,1.832,0.297,3.431,0.878,4.746l0.013,0.031c0.004,0.003,0.016,0.01,0.016,0.005
				c0.012,0,0.017-0.002,0.02-0.005l4.083-7.341l5.144,1.541c0.055,0.014,0.104,0.02,0.156,0.02c0.234,0,0.43-0.146,0.498-0.374
				c0.039-0.136,0.031-0.277-0.033-0.401c-0.066-0.125-0.184-0.212-0.314-0.255l-4.928-1.472l4.666-8.374l2.61,6.213
				c0.084,0.196,0.271,0.321,0.479,0.321c0.067,0,0.147-0.012,0.203-0.041c0.274-0.111,0.398-0.421,0.287-0.687l-2.66-6.322
				c-0.076-0.187-0.252-0.308-0.463-0.32l2.229-3.991l2.289,9.397c0.056,0.24,0.272,0.405,0.51,0.405
				c0.049,0,0.088-0.006,0.129-0.014c0.135-0.034,0.246-0.118,0.326-0.24c0.068-0.122,0.092-0.264,0.057-0.397l-2.541-10.415
				c-0.004-0.023-0.008-0.052-0.02-0.082l4.043-7.275l0.049,17.664c0,0.287,0.235,0.521,0.525,0.521
				c0.293-0.001,0.525-0.236,0.525-0.525l-0.048-17.972l4.566,8.196c0,0.001,0,0.001,0,0.003l-2.818,10.526
				c-0.078,0.281,0.09,0.57,0.379,0.647c0.039,0.01,0.088,0.014,0.131,0.014c0.238,0,0.443-0.159,0.506-0.387l2.533-9.479
				l2.203,3.956c-0.055-0.02-0.109-0.028-0.168-0.028c-0.199,0-0.383,0.111-0.469,0.293l-3.115,6.225
				c-0.062,0.126-0.072,0.269-0.035,0.399c0.047,0.135,0.141,0.24,0.266,0.306c0.078,0.037,0.162,0.053,0.238,0.053
				c0.193,0,0.377-0.105,0.469-0.288l3.117-6.228c0.02-0.038,0.033-0.078,0.037-0.115l4.199,7.533l-5.857,1.777
				c-0.285,0.084-0.436,0.38-0.354,0.656c0.068,0.219,0.27,0.373,0.5,0.373c0.053,0,0.105-0.007,0.152-0.021l6.084-1.846
				l4.533,8.153l0.008,0.016c0.008,0.004,0.014,0.012,0.016,0.012l0,0c0.004,0,0.008-0.002,0.012-0.01l0.018-0.017
				c0.734-0.991,1.275-2.174,1.602-3.508v-0.004c0-0.003,0-0.007,0-0.01L96.807,43.769l3.086-5.538
				c0.203-0.372,0.256-0.8,0.139-1.204c-0.119-0.404-0.385-0.74-0.754-0.95c-0.23-0.128-0.498-0.196-0.762-0.196
				c-0.576,0-1.107,0.312-1.379,0.814L76.71,73.378c0,0.004,0,0.013,0,0.014c0,0.012,0,0.019,0,0.026
				C76.71,73.427,76.71,73.435,76.71,73.444z"/>
			<path fill="#007481" d="M89.037,61.019c0,0.353,0.287,0.642,0.633,0.642c0.359,0,0.643-0.289,0.643-0.642
				c0-0.352-0.283-0.64-0.643-0.64C89.324,60.379,89.037,60.667,89.037,61.019z"/>
			<path fill="#007481" d="M101.145,61.918c0-0.351-0.287-0.636-0.639-0.636c-0.354,0-0.635,0.285-0.635,0.636
				c0,0.355,0.281,0.642,0.635,0.642C100.857,62.56,101.145,62.273,101.145,61.918z"/>
			<path fill="#007481" d="M92.503,42.53c0.006,0.004,0.006,0.006,0.018,0.006l0,0c0.004,0,0.012-0.002,0.012-0.006l0.012-0.023
				c0.633-1.175,1.216-2.144,1.85-3.042l0.009-0.009c0.003-0.004,0.003-0.014,0-0.018l-1.54-2.744
				c-0.271-0.503-0.801-0.814-1.379-0.814c-0.263,0-0.531,0.068-0.762,0.196c-0.762,0.431-1.037,1.391-0.613,2.154L92.503,42.53z"/>
			<path fill="#007481" d="M136.031,103.509h-4.756c-0.018,0-0.02,0.002-0.025,0.006c-0.006,0.006-0.006,0.015,0,0.02l1.734,3.113
				l0.006,0.01c0.002,0.003,0.006,0.008,0.012,0.008h3.029c0.869,0,1.578-0.71,1.578-1.58
				C137.609,104.212,136.9,103.509,136.031,103.509z"/>
			<path fill="#007481" d="M63.523,103.584l1.331-2.392l0.011-0.021c0.005-0.008,0.005-0.014,0-0.02
				c-0.007-0.004-0.011-0.007-0.019-0.007l0,0h-0.021c-0.215,0.004-0.351-0.007-0.407-0.007l-0.007-0.002
				c-1.017-0.048-1.895-0.813-2.07-1.812l-0.003-0.043c-0.004-0.002-0.004-0.011-0.017-0.012c-0.011-0.005-0.011,0.004-0.02,0.01
				l-5.662,10.178c-0.422,0.76-0.155,1.723,0.607,2.15c0.243,0.131,0.507,0.198,0.769,0.198c0.575,0,1.102-0.312,1.384-0.81
				l2.361-4.248h66.48l2.365,4.248c0.279,0.498,0.807,0.81,1.381,0.81c0.262,0,0.533-0.067,0.768-0.198
				c0.76-0.428,1.033-1.391,0.605-2.15l-4.943-8.896l-0.008-0.011c-0.006-0.005-0.02-0.013-0.02-0.005l-0.018,0.005
				c-0.268,0.126-0.553,0.195-0.846,0.212c-0.043,0.001-0.158,0.005-0.346,0.005c-0.406,0-1.26-0.025-2.318-0.196l-0.033-0.007
				c0,0-0.008,0.002-0.014,0.01c-0.002,0.007-0.002,0.012,0,0.016l1.664,2.995H63.523z"/>
			<path fill="#007481" d="M57.012,106.657l1.73-3.105l0.008-0.018c0.009-0.005,0.009-0.014,0-0.02c0-0.004-0.008-0.006-0.015-0.006
				h-4.765c-0.869,0-1.579,0.703-1.579,1.576c0,0.87,0.709,1.58,1.579,1.58H57C57.003,106.665,57.008,106.66,57.012,106.657z"/>
			<path fill="#007481" d="M100.701,69.287c-0.119,0.087-0.195,0.208-0.219,0.348c-0.016,0.138,0.016,0.276,0.1,0.389
				c0.096,0.135,0.256,0.215,0.422,0.215c0.117,0,0.221-0.034,0.311-0.099l2.365-1.729c0.113-0.082,0.189-0.204,0.209-0.343
				c0.018-0.14-0.008-0.277-0.096-0.389c-0.098-0.137-0.26-0.216-0.418-0.216c-0.115,0-0.225,0.034-0.314,0.1L100.701,69.287z"/>
			<path fill="#007481" d="M97.148,55.341c-0.346,0-0.631,0.289-0.631,0.645c0,0.35,0.285,0.64,0.631,0.64
				c0.363,0,0.646-0.29,0.646-0.64C97.795,55.63,97.512,55.341,97.148,55.341z"/>
			<path fill="#007481" d="M124.33,93.246h-0.006c-1.682-0.337-3.201-0.922-4.5-1.742l-0.045-0.032
				c-0.002-0.003-0.023-0.003-0.025,0.002c-0.006,0.004-0.006,0.017,0,0.022l1.4,2.519c0,0.004,0.014,0.006,0.014,0.006
				c0.01,0.012,0.012,0.022,0.025,0.032l0.01,0.018c0.035,0.036,0.072,0.069,0.107,0.107c1.379,1.319,3.258,1.806,4.6,1.979
				l0.027,0.003l0,0c0.006,0,0.012-0.001,0.012-0.006c0.008-0.005,0.008-0.015,0.004-0.019l-1.598-2.878l-0.01-0.005
				C124.346,93.249,124.342,93.246,124.33,93.246z"/>
			<path fill="#007481" d="M102.453,73.13c-0.283,0-0.516,0.225-0.527,0.51c-0.008,0.285,0.217,0.532,0.516,0.542l5.449,0.181
				c0.012,0,0.016,0,0.02,0c0.293,0,0.518-0.223,0.527-0.506c0.012-0.292-0.221-0.535-0.512-0.544l-5.455-0.183H102.453z"/>
			<path fill="#007481" d="M96.611,59.359c0,0.352,0.291,0.643,0.635,0.643c0.357,0,0.645-0.291,0.645-0.643
				c0-0.351-0.287-0.639-0.645-0.639C96.902,58.721,96.611,59.009,96.611,59.359z"/>
			<path fill="#007481" d="M107.994,75.459c0,0.357,0.283,0.645,0.639,0.645c0.35,0,0.641-0.287,0.641-0.645
				c0-0.353-0.291-0.639-0.641-0.639C108.277,74.82,107.994,75.106,107.994,75.459z"/>
			<path fill="#007481" d="M106.115,72.3c0-0.351-0.289-0.635-0.641-0.635c-0.354,0-0.639,0.284-0.639,0.635
				c0,0.355,0.285,0.643,0.639,0.643C105.826,72.942,106.115,72.655,106.115,72.3z"/>
		</g>
		<path fill="#00ACAF" d="M73.04,103.584v-6.58l-0.754,0.646c-2.807,2.389-6.499,2.574-7.562,2.574
			c-0.128,0-0.216-0.003-0.268-0.007c-0.344-0.015-0.662-0.163-0.893-0.413c-0.228-0.255-0.343-0.578-0.336-0.916
			c0.037-0.665,0.607-1.206,1.268-1.206c0.024,0,0.04,0,0.08,0c0.005,0.001,0.052,0.003,0.159,0.003
			c0.638,0,3.969-0.107,6.172-2.212c1.074-1.028,1.755-2.43,2.009-4.169l0.168-1.183l-0.916,0.761
			c-2.791,2.298-6.397,2.476-7.433,2.476c-0.139,0-0.227-0.002-0.298-0.004c-0.702-0.039-1.236-0.63-1.209-1.325
			c0.037-0.66,0.611-1.212,1.265-1.212c0.02,0,0.043,0,0.063,0h0.012c0.027,0.003,0.075,0.003,0.15,0.003
			c0.651,0,3.988-0.108,6.188-2.214c1.321-1.262,2.029-3.054,2.118-5.334l0.052-1.238l-0.846,0.904
			c-2.344,2.512-5.08,3.166-5.199,3.192c-0.079,0.021-0.18,0.032-0.271,0.032c-0.598,0-1.104-0.411-1.236-0.998
			c-0.152-0.68,0.28-1.355,0.961-1.515c0.264-0.062,6.555-1.601,6.555-10.205c0-0.702,0.575-1.27,1.272-1.27
			c0.007,0,0.027,0.002,0.051,0.004l0.051,0.006l0.056-0.006c0.024-0.002,0.04-0.004,0.055-0.004c0.698,0,1.269,0.567,1.269,1.27
			c0,8.511,5.933,9.495,6.189,9.533c0.689,0.098,1.176,0.738,1.074,1.428c-0.079,0.628-0.621,1.102-1.255,1.102
			c-0.06,0-0.116-0.005-0.175-0.014c-0.113-0.013-2.747-0.418-5.044-2.715l-0.813-0.814l0.029,1.15
			c0.068,2.354,0.78,4.199,2.128,5.491c2.201,2.105,5.547,2.214,6.193,2.214c0.087,0,0.135,0,0.143,0l0.052-0.003
			c0.69,0,1.261,0.528,1.291,1.202c0.017,0.341-0.101,0.667-0.329,0.918c-0.223,0.247-0.531,0.398-0.846,0.415l-0.056,0.002
			c-0.013,0-0.1,0.004-0.276,0.004c-1.041,0-4.645-0.178-7.427-2.476l-0.921-0.758l0.171,1.181c0.255,1.738,0.933,3.14,2.005,4.168
			c2.205,2.104,5.537,2.212,6.185,2.212c0.075,0,0.127-0.002,0.151-0.003h0.043c0.699,0,1.27,0.528,1.3,1.206
			c0.017,0.336-0.101,0.66-0.329,0.915c-0.223,0.25-0.535,0.396-0.87,0.414h-0.031c-0.069,0.007-0.155,0.008-0.276,0.008
			c-1.056,0-4.743-0.185-7.547-2.575l-0.757-0.646v6.58H73.04z M96.654,103.584v-4.798l0.762,0.682
			c2.334,2.068,5.328,2.23,6.184,2.23c0.061,0,0.176,0,0.244-0.008c0.582-0.033,1.037-0.572,1.012-1.202
			c-0.027-0.597-0.508-1.097-1.059-1.097l-0.041,0.004c-0.053,0.002-0.092,0.002-0.156,0.002c-0.527,0-3.32-0.098-5.164-2.016
			c-0.867-0.904-1.422-2.125-1.654-3.633l-0.189-1.222l0.943,0.802c2.307,1.978,5.234,2.129,6.064,2.129
			c0.125,0,0.205-0.005,0.24-0.01h0.016c0.578-0.032,1.025-0.568,1-1.2c-0.027-0.604-0.5-1.098-1.062-1.098l-0.037,0.003
			c-0.018,0-0.064,0.003-0.145,0.003c-0.533,0-3.332-0.099-5.176-2.016c-1.066-1.11-1.662-2.686-1.766-4.674l-0.062-1.299
			l0.863,0.968c1.924,2.139,4.127,2.729,4.221,2.755c0.066,0.014,0.146,0.025,0.219,0.025c0.498,0,0.924-0.373,1.027-0.902
			c0.129-0.614-0.23-1.231-0.805-1.373c-0.219-0.057-5.479-1.446-5.479-9.283c0-0.307-0.111-0.598-0.311-0.812
			c-0.191-0.217-0.462-0.337-0.75-0.337l0,0l-0.058,0.007l-0.084-0.005l-0.009-0.002c-0.01,0-0.011-0.004-0.02-0.004
			c-0.586,0-1.057,0.521-1.057,1.152c0,7.758-4.965,8.637-5.172,8.67c-0.586,0.09-0.98,0.671-0.904,1.298
			c0.075,0.62,0.605,1.071,1.188,0.985c0.092-0.016,2.233-0.416,4.082-2.337l0.843-0.864l-0.048,1.201
			c-0.076,2.062-0.678,3.686-1.771,4.83c-1.847,1.917-4.642,2.016-5.192,2.016c-0.082,0-0.119-0.003-0.135-0.003l-0.033-0.003
			c-0.565,0.003-1.035,0.481-1.062,1.094c-0.028,0.634,0.425,1.172,1.013,1.204h0.016c0.04,0.005,0.115,0.008,0.224,0.008
			c0.837,0,3.759-0.154,6.068-2.127l0.938-0.802l-0.185,1.222c-0.226,1.508-0.785,2.729-1.65,3.633
			c-1.851,1.918-4.634,2.016-5.171,2.016c-0.084,0-0.121-0.002-0.131-0.002h-0.041c-0.574,0-1.053,0.478-1.08,1.092
			c-0.028,0.629,0.422,1.17,1,1.203c0.056,0.003,0.131,0.008,0.252,0.008c0.859,0,3.859-0.162,6.18-2.23l0.773-0.682v4.798H96.654z
			 M118.408,103.584v-7.132l0.781,0.667c2.955,2.53,6.857,2.725,7.99,2.725c0.113,0,0.223-0.001,0.299-0.003
			c0.361-0.019,0.682-0.176,0.924-0.44c0.242-0.267,0.365-0.606,0.342-0.964c-0.033-0.715-0.635-1.273-1.369-1.273h-0.035
			c-0.023,0.004-0.072,0.006-0.176,0.006c-0.676,0-4.188-0.113-6.502-2.333c-1.145-1.093-1.855-2.587-2.123-4.438l-0.172-1.192
			l0.939,0.78c2.941,2.438,6.762,2.628,7.857,2.628c0.119,0,0.215-0.002,0.311-0.006c0.365-0.019,0.686-0.176,0.928-0.438
			c0.242-0.268,0.365-0.608,0.342-0.962c-0.033-0.716-0.627-1.276-1.357-1.276l-0.051,0.005c0,0,0,0-0.002,0
			c-0.008,0-0.066,0.001-0.154,0.001c-0.682,0-4.203-0.113-6.518-2.331c-1.434-1.369-2.186-3.328-2.246-5.827l-0.027-1.17
			l0.832,0.835c2.449,2.459,5.316,2.884,5.34,2.892c0.059,0.006,0.109,0.007,0.174,0.007c0.67,0,1.242-0.498,1.338-1.159
			c0.096-0.73-0.418-1.401-1.141-1.501c-0.262-0.045-6.523-1.115-6.523-10.044c0-0.74-0.596-1.339-1.336-1.339
			c-0.02,0-0.031,0-0.059,0.002l-0.053,0.009l-0.053-0.009c-0.02,0-0.039-0.002-0.059-0.002c-0.746,0-1.344,0.599-1.344,1.339
			c0,9.038-6.627,10.684-6.898,10.749c-0.717,0.169-1.18,0.879-1.021,1.598c0.135,0.615,0.68,1.048,1.311,1.048
			c0.098,0,0.193-0.01,0.285-0.031c0.123-0.024,3.012-0.7,5.504-3.388l0.855-0.927l-0.043,1.249
			c-0.086,2.423-0.838,4.33-2.242,5.666c-2.311,2.222-5.828,2.335-6.506,2.335c-0.068,0-0.123-0.001-0.176-0.001
			c-0.025-0.005-0.039-0.007-0.062-0.007c-0.693,0-1.305,0.589-1.338,1.281c-0.031,0.734,0.539,1.363,1.285,1.397
			c0.031,0.003,0.131,0.006,0.299,0.006c1.094,0,4.92-0.19,7.859-2.628l0.932-0.78l-0.162,1.192
			c-0.262,1.851-0.977,3.345-2.131,4.438c-2.311,2.22-5.811,2.333-6.498,2.333c-0.076,0-0.135-0.002-0.168-0.002l-0.035-0.008
			h-0.047c-0.697,0-1.301,0.576-1.334,1.284c-0.031,0.735,0.531,1.36,1.27,1.397c0.045,0.002,0.145,0.003,0.314,0.003
			c1.125,0,5.02-0.192,7.975-2.725l0.773-0.667v7.132H118.408z"/>
	</g>
	<g>
		<g>
			<path fill="#00ACAF" d="M64.741,124.542c-0.655,0-1.187,0.535-1.187,1.189v10.166c0,0.281-0.23,0.514-0.513,0.514h-6.149
				c-0.272,0-0.484-0.226-0.484-0.514v-15.4c0-0.629-0.552-1.186-1.185-1.186c-0.649,0-1.19,0.543-1.19,1.186v15.4
				c0,0.281-0.231,0.514-0.512,0.514h-5.638c-0.28,0-0.507-0.232-0.507-0.514v-10.031c0-0.666-0.523-1.189-1.19-1.189
				c-0.663,0-1.185,0.523-1.185,1.189v10.922c0,1.1,0.893,1.995,1.996,1.995H63.93c1.103,0,1.998-0.896,1.998-1.995v-11.057
				C65.928,125.077,65.396,124.542,64.741,124.542z"/>
			<path fill="#00ACAF" d="M80.199,130.883h-3.025c-0.183,0-0.326-0.132-0.326-0.296v-0.215c0-0.613-0.494-1.107-1.1-1.107
				c-0.615,0-1.11,0.494-1.11,1.107v0.215c0,0.174-0.124,0.296-0.298,0.296h-2.693c-0.626,0-1.137,0.518-1.137,1.158
				c0,0.636,0.499,1.135,1.137,1.135h1.184c0.095,0,0.184,0.054,0.235,0.138c0.047,0.086,0.04,0.188-0.014,0.277l-2.562,4.153
				c-0.147,0.237-0.15,0.528-0.014,0.776c0.142,0.25,0.398,0.397,0.684,0.397c0.828,0,1.581-0.438,2.019-1.173l1.27-2.134
				c0.02-0.055,0.061-0.06,0.084-0.06c0.053,0,0.104,0.038,0.104,0.102v3.968c0,0.61,0.496,1.106,1.11,1.106
				c0.605,0,1.1-0.496,1.1-1.106v-4.157c0-0.067,0.068-0.107,0.125-0.107c0.025,0,0.068,0.006,0.098,0.043l1.02,1.842
				c0.385,0.689,1.115,1.119,1.908,1.119c0.274,0,0.518-0.141,0.66-0.381c0.143-0.238,0.143-0.524,0.014-0.766l-1.992-3.648
				c-0.033-0.062-0.012-0.126,0.012-0.168c0.069-0.117,0.248-0.222,0.381-0.222h1.127c0.638,0,1.136-0.499,1.136-1.135
				C81.334,131.4,80.826,130.883,80.199,130.883z"/>
			<path fill="#00ACAF" d="M90.843,133.565c-0.045-0.082-0.045-0.176,0.002-0.256c0.047-0.084,0.139-0.134,0.242-0.134h0.732
				c0.636,0,1.134-0.499,1.134-1.135c0-0.641-0.512-1.158-1.134-1.158h-2.48c-0.184,0-0.328-0.132-0.328-0.296v-0.215
				c0-0.622-0.475-1.107-1.075-1.107c-0.614,0-1.11,0.494-1.11,1.107v0.215c0,0.164-0.14,0.296-0.322,0.296H83.26
				c-0.61,0-1.134,0.53-1.134,1.158c0,0.626,0.512,1.135,1.134,1.135h1.399c0.139,0,0.322,0.106,0.398,0.229
				c0.043,0.064,0.047,0.13,0.021,0.188l-2.133,3.721c-0.13,0.24-0.13,0.521,0.013,0.762c0.146,0.241,0.399,0.385,0.687,0.385
				c0.81,0,1.541-0.429,1.911-1.119l1.054-1.833c0.021-0.042,0.061-0.064,0.107-0.064c0.055,0,0.107,0.035,0.107,0.104v4.073
				c0,0.61,0.496,1.106,1.11,1.106c0.601,0,1.075-0.486,1.075-1.106v-4.263c0-0.086,0.062-0.117,0.114-0.117
				c0.044,0,0.081,0.02,0.106,0.049l1.103,2.023c0.415,0.718,1.154,1.146,1.968,1.146c0.285,0,0.541-0.143,0.678-0.382
				c0.142-0.246,0.141-0.542-0.004-0.792L90.843,133.565z"/>
			<path fill="#00ACAF" d="M82.781,127.646v-4.422c0-0.113,0.101-0.176,0.189-0.176c0.053,0,0.107,0.021,0.144,0.059l2.754,2.807
				c0.706,0.706,1.698,1.112,2.714,1.112c0.275,0,0.509-0.159,0.619-0.419c0.104-0.258,0.053-0.538-0.144-0.732l-3.501-3.561
				c-0.056-0.066-0.072-0.148-0.038-0.22c0.033-0.068,0.103-0.11,0.175-0.11h2.393c0.639,0,1.162-0.521,1.162-1.16
				c0-0.641-0.523-1.16-1.162-1.16h-4.897c-0.226,0-0.407-0.179-0.407-0.406v-0.43c0-0.635-0.5-1.135-1.131-1.135
				c-0.64,0-1.158,0.51-1.158,1.135v0.43c0,0.236-0.16,0.406-0.379,0.406h-4.879c-0.642,0-1.164,0.52-1.164,1.16
				c0,0.639,0.522,1.16,1.164,1.16h2.399c0.073,0,0.134,0.037,0.162,0.102c0.027,0.068,0.008,0.144-0.047,0.201l-3.613,3.561
				c-0.209,0.207-0.272,0.498-0.164,0.76c0.111,0.26,0.35,0.419,0.64,0.419c1.036,0,2.008-0.405,2.746-1.139l2.832-2.751
				c0.035-0.039,0.083-0.061,0.135-0.061c0.078,0,0.168,0.062,0.168,0.174v4.396c0,0.639,0.519,1.161,1.158,1.161
				C82.275,128.807,82.781,128.284,82.781,127.646z"/>
			<path fill="#00ACAF" d="M118.273,120.067H105.84c-0.115,0-0.223-0.058-0.297-0.16c-0.07-0.104-0.092-0.239-0.053-0.34l0.35-0.783
				c0.123-0.295,0.094-0.605-0.074-0.852c-0.158-0.237-0.414-0.375-0.709-0.375c-0.768,0-1.479,0.451-1.857,1.177l-0.346,0.812
				c-0.145,0.357-0.492,0.521-0.76,0.521H97.91c-0.686,0-1.186,0.498-1.186,1.187c0,0.673,0.5,1.159,1.186,1.159h3.051
				c0.143,0,0.279,0.078,0.359,0.205c0.074,0.113,0.094,0.248,0.047,0.352l-3.887,8.63c-0.117,0.296-0.092,0.608,0.078,0.859
				c0.154,0.229,0.408,0.364,0.68,0.364c0.805,0,1.518-0.459,1.859-1.201l1.236-2.669c0.035-0.067,0.104-0.091,0.154-0.091
				c0.072,0,0.146,0.039,0.146,0.133v10.948c0,0.667,0.463,1.134,1.133,1.134c0.641,0,1.107-0.479,1.107-1.134v-2.966
				c0-0.291,0.297-0.541,0.541-0.541h9.33c0.287,0,0.562,0.262,0.562,0.541v2.966c0,0.667,0.479,1.134,1.162,1.134
				c0.668,0,1.133-0.467,1.133-1.134v-13.294c0-1.093-0.859-1.918-1.996-1.918h-10.869c-0.125,0-0.232-0.055-0.297-0.156
				c-0.07-0.102-0.078-0.23-0.033-0.342l0.57-1.244c0.127-0.322,0.457-0.576,0.76-0.576h13.535c0.662,0,1.166-0.498,1.166-1.159
				C119.439,120.565,118.949,120.067,118.273,120.067z M113.746,129.317h-9.33c-0.268,0-0.541-0.291-0.541-0.565v-1.161
				c0-0.274,0.273-0.565,0.541-0.565h9.33c0.279,0,0.562,0.285,0.562,0.565v1.161C114.309,129.03,114.025,129.317,113.746,129.317z
				 M104.416,131.664h9.33c0.279,0,0.562,0.286,0.562,0.565v1.24c0,0.277-0.275,0.539-0.562,0.539h-9.33
				c-0.244,0-0.541-0.248-0.541-0.539v-1.24C103.875,131.956,104.148,131.664,104.416,131.664z"/>
			<path fill="#00ACAF" d="M143.141,129.937h-3.211c-0.102,0-0.201-0.055-0.266-0.148c-0.072-0.096-0.096-0.219-0.059-0.328
				l0.457-1.4c0.092-0.262,0.049-0.554-0.119-0.789c-0.168-0.238-0.436-0.381-0.713-0.381c-0.729,0-1.363,0.453-1.617,1.15
				l-0.486,1.402c-0.109,0.301-0.373,0.494-0.672,0.494h-4.211c-0.307,0-0.598-0.201-0.699-0.494l-0.543-1.402
				c-0.248-0.688-0.91-1.15-1.641-1.15c-0.287,0-0.545,0.133-0.713,0.366c-0.17,0.239-0.219,0.548-0.123,0.829l0.516,1.375
				c0.033,0.116,0.018,0.24-0.053,0.338c-0.068,0.089-0.162,0.139-0.273,0.139h-3.266c-0.623,0-1.131,0.523-1.131,1.162
				s0.508,1.159,1.131,1.159h7.172c0.287,0,0.516,0.212,0.516,0.483v1.59c0,0.286-0.234,0.514-0.516,0.514h-5.014
				c-0.658,0-1.189,0.521-1.189,1.161c0,0.667,0.521,1.187,1.189,1.187h5.014c0.287,0,0.516,0.215,0.516,0.484v2.238
				c0,0.656,0.518,1.189,1.156,1.189c0.664,0,1.188-0.521,1.188-1.189v-2.238c0-0.28,0.203-0.484,0.488-0.484h5.041
				c0.639,0,1.158-0.533,1.158-1.187c0-0.64-0.52-1.161-1.158-1.161h-5.041c-0.273,0-0.488-0.223-0.488-0.514v-1.59
				c0-0.279,0.203-0.483,0.488-0.483h7.172c0.637,0,1.16-0.521,1.16-1.159S143.777,129.937,143.141,129.937z"/>
			<path fill="#00ACAF" d="M143.814,123.815h-7.846c-0.266,0-0.488-0.217-0.488-0.486v-1.051c0-0.28,0.203-0.482,0.488-0.482h5.799
				c0.625,0,1.162-0.545,1.162-1.188c0-0.656-0.523-1.187-1.162-1.187h-5.965c-0.193,0-0.322-0.12-0.322-0.298v-0.19
				c0-0.663-0.523-1.187-1.188-1.187c-0.639,0-1.156,0.533-1.156,1.187v0.19c0,0.166-0.145,0.298-0.326,0.298h-5.986
				c-0.639,0-1.162,0.53-1.162,1.187c0,0.643,0.531,1.188,1.162,1.188h5.797c0.293,0,0.516,0.206,0.516,0.482v1.051
				c0,0.266-0.236,0.486-0.516,0.486h-7.846c-0.658,0-1.186,0.521-1.186,1.16c0,0.666,0.52,1.188,1.186,1.188h19.039
				c0.666,0,1.186-0.521,1.186-1.188C145,124.337,144.469,123.815,143.814,123.815z"/>
		</g>
		<g>
			<path fill="#00ACAF" d="M50.609,149.564l1.347,0.426c-0.206,0.753-0.545,1.312-1.029,1.677c-0.481,0.363-1.092,0.545-1.828,0.545
				c-0.916,0-1.666-0.311-2.256-0.936c-0.589-0.625-0.885-1.479-0.885-2.562c0-1.144,0.298-2.037,0.894-2.67
				c0.589-0.633,1.365-0.949,2.331-0.949c0.839,0,1.523,0.25,2.052,0.748c0.311,0.291,0.551,0.713,0.704,1.268l-1.373,0.326
				c-0.082-0.355-0.256-0.639-0.514-0.846c-0.257-0.205-0.57-0.309-0.94-0.309c-0.511,0-0.922,0.184-1.242,0.548
				c-0.315,0.366-0.477,0.961-0.477,1.78c0,0.871,0.156,1.491,0.474,1.861c0.309,0.367,0.719,0.553,1.215,0.553
				c0.37,0,0.689-0.115,0.956-0.352C50.303,150.438,50.489,150.068,50.609,149.564z"/>
			<path fill="#00ACAF" d="M55.799,145.212v2.532c0.429-0.499,0.938-0.747,1.527-0.747c0.306,0,0.579,0.055,0.825,0.166
				c0.243,0.113,0.425,0.26,0.552,0.434c0.123,0.176,0.21,0.369,0.252,0.583c0.047,0.212,0.065,0.544,0.065,0.989v2.926h-1.321
				v-2.635c0-0.521-0.022-0.852-0.071-0.996c-0.051-0.139-0.138-0.252-0.264-0.334c-0.129-0.083-0.286-0.123-0.478-0.123
				c-0.221,0-0.417,0.053-0.588,0.156c-0.17,0.111-0.298,0.269-0.377,0.484c-0.082,0.213-0.123,0.531-0.123,0.949v2.498h-1.316
				v-6.883H55.799z"/>
			<path fill="#00ACAF" d="M62.696,148.63l-1.199-0.217c0.136-0.48,0.366-0.84,0.698-1.07c0.325-0.232,0.812-0.346,1.461-0.346
				c0.59,0,1.027,0.069,1.314,0.207c0.289,0.141,0.489,0.317,0.61,0.531c0.117,0.214,0.177,0.609,0.177,1.18l-0.017,1.541
				c0,0.439,0.02,0.764,0.063,0.971c0.042,0.207,0.123,0.43,0.239,0.668h-1.306c-0.033-0.086-0.077-0.217-0.13-0.389
				c-0.021-0.078-0.036-0.131-0.043-0.154c-0.227,0.219-0.466,0.383-0.722,0.492c-0.261,0.111-0.532,0.164-0.824,0.164
				c-0.508,0-0.915-0.139-1.212-0.418c-0.294-0.277-0.442-0.629-0.442-1.057c0-0.281,0.067-0.531,0.202-0.753
				c0.133-0.221,0.323-0.392,0.561-0.507c0.245-0.118,0.596-0.221,1.05-0.307c0.617-0.119,1.046-0.227,1.285-0.325v-0.132
				c0-0.254-0.062-0.433-0.187-0.543c-0.124-0.107-0.364-0.16-0.713-0.16c-0.231,0-0.415,0.045-0.543,0.138
				C62.883,148.237,62.777,148.399,62.696,148.63z M64.46,149.7c-0.167,0.057-0.437,0.125-0.804,0.201
				c-0.365,0.079-0.606,0.156-0.719,0.23c-0.169,0.123-0.255,0.277-0.255,0.466c0,0.185,0.069,0.344,0.204,0.479
				c0.139,0.134,0.312,0.2,0.526,0.2c0.236,0,0.463-0.076,0.682-0.232c0.158-0.117,0.267-0.264,0.312-0.438
				c0.033-0.113,0.053-0.328,0.053-0.643V149.7z"/>
			<path fill="#00ACAF" d="M72.936,152.095H71.62v-2.545c0-0.536-0.03-0.886-0.086-1.044c-0.054-0.157-0.149-0.28-0.275-0.368
				c-0.127-0.09-0.277-0.131-0.454-0.131c-0.228,0-0.434,0.061-0.618,0.187c-0.181,0.124-0.308,0.29-0.375,0.498
				c-0.065,0.205-0.103,0.589-0.103,1.146v2.258H68.39v-4.984h1.228v0.731c0.438-0.565,0.983-0.845,1.646-0.845
				c0.291,0,0.557,0.051,0.8,0.155c0.241,0.106,0.421,0.239,0.548,0.403c0.119,0.162,0.209,0.346,0.256,0.553
				c0.047,0.206,0.069,0.502,0.069,0.889V152.095z"/>
			<path fill="#00ACAF" d="M75.502,152.425l1.507,0.182c0.027,0.176,0.082,0.297,0.173,0.361c0.126,0.094,0.321,0.141,0.591,0.141
				c0.346,0,0.604-0.049,0.775-0.152c0.117-0.068,0.205-0.182,0.266-0.334c0.039-0.109,0.059-0.312,0.059-0.605v-0.729
				c-0.393,0.537-0.892,0.807-1.494,0.807c-0.672,0-1.201-0.283-1.59-0.85c-0.308-0.445-0.459-1.004-0.459-1.672
				c0-0.835,0.201-1.475,0.602-1.916c0.402-0.441,0.901-0.66,1.503-0.66c0.616,0,1.125,0.271,1.527,0.809v-0.695h1.234v4.473
				c0,0.59-0.049,1.029-0.148,1.32c-0.098,0.293-0.23,0.521-0.408,0.688c-0.174,0.162-0.41,0.293-0.699,0.387
				c-0.295,0.094-0.668,0.143-1.114,0.143c-0.843,0-1.444-0.146-1.797-0.436c-0.355-0.289-0.533-0.656-0.533-1.102
				C75.495,152.54,75.498,152.485,75.502,152.425z M76.679,149.499c0,0.531,0.102,0.916,0.306,1.16c0.206,0.25,0.46,0.37,0.757,0.37
				c0.327,0,0.597-0.122,0.818-0.378c0.223-0.252,0.336-0.625,0.336-1.12c0-0.513-0.109-0.899-0.318-1.149
				c-0.215-0.25-0.481-0.375-0.812-0.375c-0.312,0-0.575,0.123-0.781,0.367C76.781,148.62,76.679,148.994,76.679,149.499z"/>
			<path fill="#00ACAF" d="M85.73,150.509l1.314,0.221c-0.164,0.48-0.435,0.848-0.799,1.1c-0.364,0.254-0.821,0.379-1.367,0.379
				c-0.869,0-1.511-0.283-1.926-0.85c-0.329-0.451-0.494-1.027-0.494-1.719c0-0.827,0.217-1.473,0.648-1.942
				c0.43-0.47,0.979-0.7,1.638-0.7c0.745,0,1.327,0.244,1.755,0.734c0.432,0.489,0.635,1.24,0.616,2.252h-3.305
				c0.008,0.389,0.118,0.695,0.319,0.912c0.207,0.219,0.459,0.326,0.762,0.326c0.207,0,0.381-0.056,0.519-0.168
				C85.551,150.94,85.66,150.759,85.73,150.509z M85.806,149.175c-0.01-0.383-0.105-0.672-0.299-0.873
				c-0.189-0.195-0.413-0.295-0.682-0.295c-0.288,0-0.527,0.104-0.714,0.312c-0.186,0.211-0.28,0.494-0.278,0.855H85.806z"/>
			<path fill="#00ACAF" d="M95.201,152.095v-2.896l-2.523-3.986h1.63l1.619,2.723l1.587-2.723h1.604l-2.533,3.996v2.887H95.201z"/>
			<path fill="#00ACAF" d="M100.123,149.531c0-0.438,0.107-0.862,0.324-1.272c0.219-0.41,0.523-0.724,0.924-0.938
				c0.391-0.218,0.832-0.323,1.324-0.323c0.752,0,1.369,0.244,1.85,0.734c0.484,0.489,0.723,1.109,0.723,1.857
				c0,0.754-0.242,1.379-0.729,1.875c-0.486,0.498-1.098,0.744-1.836,0.744c-0.459,0-0.893-0.104-1.309-0.311
				s-0.729-0.508-0.947-0.91C100.23,150.591,100.123,150.103,100.123,149.531z M101.479,149.604c0,0.493,0.115,0.872,0.352,1.134
				c0.232,0.266,0.523,0.395,0.865,0.395c0.344,0,0.637-0.129,0.867-0.395c0.236-0.262,0.35-0.643,0.35-1.146
				c0-0.487-0.113-0.862-0.35-1.128c-0.23-0.26-0.523-0.393-0.867-0.393c-0.342,0-0.633,0.133-0.865,0.393
				C101.594,148.729,101.479,149.107,101.479,149.604z"/>
			<path fill="#00ACAF" d="M110.932,152.095v-0.744c-0.18,0.266-0.418,0.475-0.713,0.627c-0.297,0.152-0.609,0.23-0.941,0.23
				s-0.631-0.074-0.898-0.223c-0.268-0.146-0.461-0.354-0.578-0.619c-0.117-0.265-0.18-0.633-0.18-1.102v-3.154h1.32v2.291
				c0,0.7,0.025,1.13,0.074,1.287c0.047,0.158,0.133,0.285,0.262,0.377c0.131,0.092,0.293,0.138,0.49,0.138
				c0.227,0,0.428-0.062,0.605-0.183c0.182-0.127,0.299-0.281,0.367-0.463c0.066-0.184,0.096-0.631,0.096-1.346v-2.102h1.322v4.984
				H110.932z"/>
			<path fill="#00ACAF" d="M116.133,152.095h-1.316v-4.984h1.225v0.707c0.209-0.336,0.396-0.557,0.566-0.664
				c0.166-0.104,0.355-0.156,0.566-0.156c0.301,0,0.594,0.084,0.869,0.248l-0.406,1.152c-0.225-0.146-0.43-0.218-0.617-0.218
				s-0.344,0.052-0.471,0.151c-0.129,0.104-0.227,0.285-0.307,0.553c-0.072,0.266-0.109,0.822-0.109,1.671V152.095z"/>
			<path fill="#00ACAF" d="M124.021,152.095v-6.826h1.391v5.666h3.455v1.16H124.021z"/>
			<path fill="#00ACAF" d="M131.197,146.433v-1.221h1.322v1.221H131.197z M131.197,152.095v-4.984h1.322v4.984H131.197z"/>
			<path fill="#00ACAF" d="M134.643,147.11h0.727v-0.377c0-0.42,0.047-0.732,0.141-0.94c0.082-0.206,0.25-0.374,0.49-0.504
				c0.236-0.131,0.543-0.194,0.908-0.194c0.377,0,0.746,0.057,1.102,0.168l-0.178,0.92c-0.213-0.05-0.412-0.074-0.607-0.074
				c-0.189,0-0.324,0.044-0.406,0.137c-0.086,0.086-0.127,0.258-0.127,0.512v0.354h0.984v1.036h-0.984v3.948h-1.322v-3.948h-0.727
				V147.11z"/>
			<path fill="#00ACAF" d="M142.652,150.509l1.314,0.221c-0.168,0.48-0.432,0.848-0.801,1.1c-0.361,0.254-0.824,0.379-1.369,0.379
				c-0.867,0-1.508-0.283-1.924-0.85c-0.326-0.451-0.494-1.027-0.494-1.719c0-0.827,0.217-1.473,0.648-1.942s0.98-0.7,1.639-0.7
				c0.744,0,1.326,0.244,1.76,0.734c0.432,0.489,0.631,1.24,0.613,2.252h-3.307c0.006,0.389,0.117,0.695,0.318,0.912
				c0.207,0.219,0.457,0.326,0.762,0.326c0.205,0,0.381-0.056,0.523-0.168C142.477,150.94,142.582,150.759,142.652,150.509z
				 M142.73,149.175c-0.01-0.383-0.107-0.672-0.301-0.873c-0.186-0.195-0.416-0.295-0.68-0.295c-0.289,0-0.529,0.104-0.717,0.312
				c-0.184,0.211-0.283,0.494-0.275,0.855H142.73z"/>
		</g>
	</g>
</g>
</svg>
