<?xml version="1.0" encoding="utf-8"?>
<!-- Generator: Adobe Illustrator 16.0.0, SVG Export Plug-In . SVG Version: 6.00 Build 0)  -->
<!DOCTYPE svg PUBLIC "-//W3C//DTD SVG 1.1//EN" "http://www.w3.org/Graphics/SVG/1.1/DTD/svg11.dtd">
<svg version="1.1" id="圖層_1" xmlns="http://www.w3.org/2000/svg" xmlns:xlink="http://www.w3.org/1999/xlink" x="0px" y="0px"
	 width="230px" height="240.88px" viewBox="0 0 230 240.88" enable-background="new 0 0 230 240.88" xml:space="preserve">
<g>
	<g>
		<circle fill="#24A4A3" cx="115" cy="116.89" r="110"/>
		<g>
			<g>
				<g>
					<path fill="#5F3908" d="M108.055,29.584c0,0,7.631-12.496,25.286-2.792c17.653,9.705,28.688,60.088,14.994,73.249
						c0,0-15.154-7.312-38.153-1.861c-22.997,5.451-34.563,3.457-34.563,3.457S77.488,28.104,108.055,29.584z"/>
					<path fill="#3E230B" d="M108.109,48.294C92.68,60.638,88.504,82.458,87.055,101.82c5.636-0.351,13.343-1.32,23.127-3.639
						c8.477-2.009,15.882-2.282,21.861-1.829c-0.406-11.303,0.463-22.605-1.422-33.907
						C128.692,52.797,114.542,43.149,108.109,48.294z"/>
					<path fill="#FCCAA0" d="M97.942,63.764c2.641,4.178,3.014,10.911-0.41,13.075c-3.423,2.164-9.346-1.062-11.986-5.239
						c-2.64-4.177-2.006-9.318,1.416-11.482C90.386,57.954,95.301,59.585,97.942,63.764z"/>
					<path fill="#FCCAA0" d="M131.316,64.784c-2.93,3.98-3.779,10.67-0.518,13.071c3.26,2.401,9.396-0.396,12.327-4.376
						c2.93-3.979,2.663-9.152-0.599-11.554C139.267,59.524,134.247,60.804,131.316,64.784z"/>
					<g>
						<defs>
							<path id="SVGID_11_" d="M87.832,111.874c20.472-6.381,14.89-27.518,14.89-27.518l9.438-1.151v-0.178l0.731,0.089l0.731-0.089
								v0.178l9.438,1.151c0,0-5.583,21.137,14.89,27.518s25.124,12.762,26.72,38.02h-51.047h-1.463H61.11
								C62.706,124.635,67.359,118.254,87.832,111.874z"/>
						</defs>
						<clipPath id="SVGID_2_">
							<use xlink:href="#SVGID_11_"  overflow="visible"/>
						</clipPath>
						<path clip-path="url(#SVGID_2_)" fill="#FCCAA0" d="M87.832,111.874c20.472-6.381,14.89-27.518,14.89-27.518l9.438-1.151
							v-0.178l0.731,0.089l0.731-0.089v0.178l9.438,1.151c0,0-5.583,21.137,14.89,27.518s25.124,12.762,26.72,38.02h-51.047h-1.463
							H61.11C62.706,124.635,67.359,118.254,87.832,111.874z"/>
						<g clip-path="url(#SVGID_2_)">
							<path fill="#E6A165" d="M103.388,89.367c-0.133-2.985-0.666-5.011-0.666-5.011l9.438-1.151v-0.178l0.731,0.089l0.731-0.089
								v0.178l9.438,1.151c0,0-0.911,3.453-0.646,7.988C120.342,96.571,112.891,102.435,103.388,89.367z"/>
							<g>
								<g>
									<g>
										<g>
											<path fill="#E9AD79" d="M103.977,88.938c-0.094,0.031-0.257,0.171-0.174,0.212l0.327-0.167L103.977,88.938z"/>
											<path fill="#E9AD79" d="M103.769,89.784c0.199-0.026,0.512-0.122,0.739-0.373c-0.334,0.132-0.232,0.027-0.625,0.191
												c-0.084-0.042,0.006-0.186,0.122-0.253c-0.093,0.032-0.013-0.15-0.223-0.051c-0.161,0.252-0.087,0.371,0.183,0.347
												C103.92,89.717,103.826,89.75,103.769,89.784z"/>
											<path fill="#E9AD79" d="M109.204,95.988l-0.021-0.065C109.182,95.951,109.19,95.972,109.204,95.988z"/>
											<path fill="#E9AD79" d="M114.104,98.053c-0.042,0.005-0.063,0.04-0.068,0.072
												C114.077,98.105,114.111,98.085,114.104,98.053z"/>
											<path fill="#E9AD79" d="M115.057,98.487c-0.022-0.009-0.04-0.016-0.059-0.024
												C115.021,98.497,115.043,98.515,115.057,98.487z"/>
											<path fill="#E9AD79" d="M109.204,95.988l0.056,0.173C109.332,96.067,109.247,96.048,109.204,95.988z"/>
											<path fill="#E9AD79" d="M105.14,90.131c-0.031-0.011-0.072-0.008-0.12,0.003c0.027,0.008,0.051,0.017,0.072,0.028
												L105.14,90.131z"/>
											<path fill="#E9AD79" d="M107.186,94.815l-0.033-0.027c-0.035,0.025-0.076,0.054-0.123,0.087L107.186,94.815z"/>
											<path fill="#E9AD79" d="M105.854,93.638c0.019,0.038,0.247-0.168,0.353-0.252c-0.105,0.073-0.169,0.095-0.211,0.087
												C105.953,93.513,105.907,93.566,105.854,93.638z"/>
											<path fill="#E9AD79" d="M104.408,91.21l-0.063-0.011C104.363,91.202,104.387,91.206,104.408,91.21z"/>
											<path fill="#E9AD79" d="M108.14,95.675c-0.025,0.038-0.044,0.074-0.053,0.098
												C108.109,95.741,108.127,95.708,108.14,95.675z"/>
											<path fill="#E9AD79" d="M104.669,87.228c-0.022,0.002-0.036,0.004-0.055,0.006
												C104.646,87.241,104.668,87.242,104.669,87.228z"/>
											<polygon fill="#E9AD79" points="103.309,89.37 103.29,89.344 103.118,89.345 											"/>
											<path fill="#E9AD79" d="M116.948,98.641l-0.009-0.004C116.898,98.682,116.925,98.67,116.948,98.641z"/>
											<path fill="#E9AD79" d="M124.119,85.473c-0.335,0.283-0.289-0.352-0.68,0.059
												C123.574,85.462,123.869,85.825,124.119,85.473z"/>
											<path fill="#E9AD79" d="M105.135,90.189c0.018,0.016,0.033,0.032,0.046,0.052
												C105.169,90.21,105.154,90.195,105.135,90.189z"/>
											<path fill="#E9AD79" d="M123.439,85.531h-0.003l-0.037,0.038C123.416,85.554,123.426,85.544,123.439,85.531z"/>
											<path fill="#E9AD79" d="M120.658,96.578c-0.041-0.037-0.079-0.059-0.117-0.079
												C120.562,96.523,120.594,96.547,120.658,96.578z"/>
											<path fill="#E9AD79" d="M117.797,97.732l0.084,0.011C117.843,97.728,117.817,97.728,117.797,97.732z"/>
											<path fill="#E9AD79" d="M121.507,95.188c0.044-0.013,0.085,0.005,0.091-0.063c-0.016-0.007-0.027-0.011-0.039-0.013
												C121.576,95.155,121.574,95.188,121.507,95.188z"/>
											<path fill="#E9AD79" d="M122.497,93.936c-0.024-0.004-0.045-0.007-0.067-0.011l-0.016,0.051L122.497,93.936z"/>
											<path fill="#E9AD79" d="M104.624,85.412c-0.046-0.085-0.094-0.173-0.141-0.26
												C104.583,85.359,104.564,85.44,104.624,85.412z"/>
											<path fill="#E9AD79" d="M105.005,90.239c0.065-0.042,0.104-0.056,0.13-0.049c-0.013-0.011-0.027-0.019-0.043-0.027
												C105.054,90.188,105.02,90.214,105.005,90.239z"/>
											<path fill="#E9AD79" d="M119.757,93.508l0.165-0.118C119.863,93.412,119.804,93.455,119.757,93.508z"/>
											<path fill="#E9AD79" d="M114.391,84.478l-0.058,0.03C114.353,84.517,114.373,84.511,114.391,84.478z"/>
											<path fill="#E9AD79" d="M120.256,92.905c0.107,0.037,0.182,0.045,0.237,0.037c-0.015-0.021-0.024-0.041-0.05-0.066
												L120.256,92.905z"/>
											<path fill="#E9AD79" d="M104.481,85.148l0.002,0.003L104.481,85.148z"/>
											<path fill="#E9AD79" d="M104.79,85.847c-0.252-0.175-0.492-0.343-0.737-0.514c-0.007-0.007-0.013-0.015-0.016-0.019
												c-0.035-0.097,0.392,0.26,0.618,0.423c-0.114-0.093-0.433-0.425-0.367-0.417c0.062,0.059,0.088,0.08,0.152,0.155
												c-0.122-0.154-0.063-0.158-0.028-0.179c0.036-0.02,0.055-0.055,0.012-0.242c0.023,0.033,0.043,0.064,0.058,0.093
												c-0.104-0.19-0.208-0.384-0.27-0.523c0.062-0.016,0.045-0.264,0.166-0.013c-0.048-0.001-0.013,0.102,0.002,0.183
												l0.026-0.119c0.184,0.359-0.044,0.138,0.072,0.406c0.04-0.13,0.094-0.454,0.28-0.37c0.052,0.181-0.07,0.228-0.086,0.256
												c-0.033,0.031-0.044,0.053,0.028,0.21c0.006,0-0.131-0.126-0.137-0.125c0.234,0.561-0.054-0.034,0.18,0.568
												c0.056,0.047-0.012,0.008,0.088-0.053c0.082-0.059,0.164-0.117,0.328-0.083c0.044-0.214-0.062-0.3-0.02-0.514
												c0.398-0.427,0.474,0.879,0.737,0.346c0.053-0.256,0.024-0.727,0.291-0.511l-0.025,0.427
												c0.311,0.001,0.096-0.622,0.452-0.383c-0.035,0.171-0.222,0.169-0.169,0.213c0.25,0.301,0.115-0.255,0.274-0.276
												l0.081,0.364c0.317-0.101,0.64-0.414,0.991-0.528c-0.006,0.112-0.053,0.236,0.047,0.337
												c0.429-0.244,0.974-0.082,1.439,0.079l0.126-0.34c0.039-0.001,0.091,0.134,0.057,0.202
												c0.187,0.098-0.018-0.203,0.048-0.339c0.094-0.035,0.152,0.166,0.104,0.27c0.266-0.309,0.78-0.694,1.143-0.395
												l-0.05,0.103c0.264,0.097,0.193-0.689,0.461-0.422l-0.036,0.062c0.201,0.025,0.403-0.009,0.602-0.041
												c0.099-0.016,0.196-0.031,0.293-0.039c0.102-0.008,0.198-0.008,0.219,0.017c0.025,0.041,0.212,0.115,0.307,0.247
												c0.078-0.462,0.535,0.206,0.569-0.438c0.133,0.138,0.192,0.237,0.254,0.324c0.044,0.086,0.178,0.159,0.178,0.242
												c0.01,0.028-0.003,0.054,0.032,0.089c0.111,0.044,0.224-0.377,0.375-0.425l-0.04,0.334l0.239-0.325l0.05,0.414
												l0.145-0.068c-0.051-0.027-0.093-0.165-0.072-0.26c0.229-0.124,0.478,0.3,0.46,0.472l0.53-0.218
												c-0.028,0.133-0.117,0.168-0.194,0.245c0.309-0.306,0.002,0.358,0.284,0.078c-0.022-0.08,0.044-0.197,0.059-0.264
												c0.093,0.218,0.366,0.256,0.58,0.197l-0.068,0.226c0.357,0.107,0.785-0.009,1.195,0.049
												c-0.134-0.126-0.047-0.521,0.078-0.544l0.002,0.359c0.106-0.208-0.108-0.149,0.087-0.396
												c0.147,0.061,0.05,0.415-0.054,0.519l0.203-0.098c-0.003,0.107-0.054,0.157-0.083,0.29
												c0.105-0.209,0.275,0.396,0.436,0.03l-0.004,0.106c0.41,0.057,0.612-0.041,0.949-0.014
												c0.047-0.304,0.168-0.219,0.301-0.453c0.232,0.129,0.474,0.405,0.773,0.418c0.228-0.125,0.094-0.25,0.211-0.419
												c-0.021,0.28,0.278,0.292,0.099,0.472c0.361,0.002,0.461,0.004,0.94-0.162c-0.034-0.12-0.082-0.177-0.042-0.268
												c0.107-0.033,0.123,0.135,0.092,0.266l-0.014,0.027c0.16-0.203,0.271,0.055,0.21,0.239
												c-0.029,0.167-0.162,0.279,0.172,0.046l-0.036,0.024c0.093-0.055,0.233-0.132,0.235-0.103l0.175-0.083
												c-0.073,0.106-0.236,0.124-0.448,0.3c0.382-0.162,0.12,0.082,0.114,0.125c-0.004,0.024,0.018,0.04,0.094,0.06
												c-0.168,0.042-0.267,0.068-0.368,0.093c-0.048,0.036-0.021-0.027-0.025,0.172c0.009,0.289,0.059,0.591-0.228,0.763h0.195
												c0.177,0.128-0.126,0.113-0.18,0.186c0.151,0.007,0.188-0.093,0.285-0.016c0.128,0.906-0.461,1.801-0.665,2.729
												c-0.062,0.339,1.001,0.215,0.528,0.625l-0.359-0.125c0.212,0.343,0.208,0.686,0.203,1.031
												c-0.008,0.316-0.009,0.795,0.177,0.782c-0.085-0.022-0.193-0.033-0.193-0.045c-0.256-0.008-0.017,0.062,0.175,0.16
												c-0.037,0.017-0.187-0.062-0.294-0.093c-0.075-0.022-0.002,0.016,0.05,0.068c0.033,0.083,0.051,0.169-0.077,0.126
												c-0.041-0.013-0.056-0.07-0.063-0.098c0.073,0.128-0.205,0.272,0.087,0.375c-0.229,0.092-0.107,0.404-0.351,0.434
												c0.208,0.292-0.341,0.18,0.011,0.504c-0.377-0.318-0.533,0.022-0.453,0.276c-0.082-0.132-0.189-0.02-0.309-0.197
												c-0.094,0.109-0.119,0.27,0.08,0.429c-0.6-0.228-0.078,0.737-0.702,0.276c-0.15,0.481-0.381,0.88-0.667,1.192
												c-0.249-0.42,0.347-0.286,0.036-0.704c-0.176,0.369-0.154,0.853-0.551,0.929c-0.117-0.015-0.05-0.215-0.062-0.303
												c-0.236,0.357-0.649,0.267-0.864,0.627c-0.014-0.043,0.003-0.103,0.021-0.148c-0.056,0.036-0.164-0.02-0.086,0.19
												l0.041-0.079c0.215,0.271-0.037,0.732-0.008,0.899c-0.074-0.646-0.385-0.056-0.426-0.888
												c-0.029,0.051-0.054,0.167-0.006,0.31c-0.075-0.026-0.114-0.106-0.096-0.287c-0.191,0.176-0.061,0.386-0.273,0.429
												c-0.021-0.106,0.014-0.157,0.008-0.287c-0.058,0.231-0.135,0.458-0.333,0.398c0.001-0.067-0.032-0.146,0.021-0.154
												c-0.293,0.076-0.485,0.628-0.863,0.435c0.095-0.472-0.124-0.155-0.142-0.563l-0.183,0.12l0.069,0.201
												c-0.161-0.014-0.328,0.28-0.465,0.131l0.137-0.157l-0.316,0.05l0.162,0.17c-0.192,0.194-0.027,0.519-0.253,0.38
												c0.054-0.035-0.181-0.028-0.235-0.278l0.001,0c-0.104,0.114-0.22,0.233-0.331,0.111c-0.009-0.134,0.11-0.439,0.104-0.528
												c-0.146,0.318-0.404,0.013-0.596,0.335c0.057-0.074,0.109-0.281,0.109-0.327l-0.138,0.251
												c-0.057-0.106-0.056-0.15,0.002-0.312c-0.216-0.113-0.065,0.523-0.282,0.226c0.028-0.015,0.03-0.058,0.087-0.084
												c-0.239-0.192-0.592-0.001-0.796-0.23c0.077-0.411,0.251-0.011,0.29-0.367c-0.365-0.053-0.913,0.154-1.211-0.103
												l0.042,0.073c-0.311,0.491-0.119-0.383-0.41-0.232c0.062-0.014,0.208-0.252,0.166-0.202
												c-0.175-0.204-0.52-0.129-0.952-0.19l0.121-0.099c-0.054-0.197-0.293-0.281-0.387-0.434
												c-0.125,0.094-0.189,0.02-0.267,0.229c0.09-0.973-1.069-0.228-0.979-1.077c0.043,0.034,0.182-0.016,0.149-0.044
												l-0.383-0.145c-0.142,0.21-0.062,0.148-0.127,0.351c-0.136,0.082-0.298,0.097-0.371,0.03
												c0.244-0.006,0.266-0.306,0.304-0.461c-0.041,0.066-0.117,0.113-0.165,0.176c0.147-0.472-0.365,0.355-0.374-0.059
												l0.102-0.088c-0.125-0.02-0.314,0.04-0.372-0.067c0.166-0.245,0.175-0.021,0.345-0.193
												c-0.125-0.095-0.611,0.186-0.515-0.125c0.105-0.01,0.179,0.055,0.283,0.043c0.123-0.356,0.05-0.303,0.006-0.424
												l0.003,0.013l-0.079-0.298l-0.019,0.114c-0.681,0.4-0.383-0.186-0.928-0.035c0.523-0.137,0.228-0.158,0.481-0.372
												c0.02-0.113,0.023-0.257,0.111-0.301c-0.282,0.094,0.012-0.293-0.394-0.158c0.072-0.078-0.083-0.105,0.134-0.265
												c-0.171-0.063-0.111,0.153-0.22,0.233c-0.444,0.059-0.062-0.732-0.677-0.676c-0.357-0.107-0.672,0.079-1.001-0.037
												c0.069-0.186,0.353-0.184,0.353-0.184c0.019-0.223-0.076-0.299-0.267-0.34c0.092-0.035,0.133-0.108,0.197-0.219
												c-0.097-0.076-0.354,0.179-0.33-0.043c0.11-0.052,0.281-0.143,0.41-0.172c-0.165-0.048-0.406-0.037-0.573-0.095
												c0.123-0.145,0.277-0.103,0.404-0.137c-0.166-0.079-0.394-0.234-0.659-0.097l-0.018,0.148
												c-0.049-0.04,0.182-0.178,0.251-0.175c0.27-0.029,0.044,0.224-0.035,0.296l-0.119-0.042
												c-0.428,0.469,0.338,0.277,0.442,0.461l-0.411,0.214l0.432-0.065c-0.063,0.11-0.24,0.295-0.36,0.255
												c-0.078,0.262,0.211,0.004,0.1,0.266c-0.021,0.036-0.042,0.045-0.064,0.046l0.201,0.031
												c-0.094,0.038-0.232,0.224-0.241,0.11c-0.026,0.378,0.544,0.118,0.346,0.418l-0.036,0c0.36,0.189,0.277-0.187,0.758-0.23
												l-0.496,0.684l0.275-0.192c0.017,0.037,0.049,0.112-0.061,0.189c0.266-0.042,0.092-0.115,0.309-0.195
												c-0.104,0.344,0.45,0.283,0.086,0.675c0.231-0.123,0.023-0.265,0.288-0.238c-0.382,0.432,0.227,0.104,0.154,0.405
												c-0.251,0.166-0.251-0.061-0.322,0.246c0.434-0.27,0.153,0.319,0.326,0.358c0.288-0.274,0.343,0.107,0.608,0.185
												c-0.104,0.085,0.182,0.475,0.256,0.736l-0.05,0.045c0.304-0.267,0.428-0.054,0.61-0.002
												c-0.164,0.176-0.249,0.227-0.391,0.245l0.123,0.108c0.114-0.072,0.197-0.09,0.308-0.057l-0.227,0.201
												c0.179,0.131,0.56,0.013,0.653,0.342c0.185-0.211,0.319-0.743,0.656-0.713c-0.086,0.125-0.237,0.335-0.335,0.337
												c0.032,0,0.146-0.044,0.146,0.038l-0.248,0.127c0.029,0.167,0.184-0.126,0.246-0.045
												c-0.135,0.169-0.035,0.167-0.152,0.293c-0.033,0.001-0.015-0.125-0.097-0.082c0.063,0.103,0.099,0.285,0.037,0.445
												c0.066-0.104,0.176-0.232,0.26-0.204c0.183,0.118-0.096,0.253-0.06,0.42c0.132-0.089,0.156,0.118,0.347-0.143
												c0.052,0.038-0.026,0.168-0.056,0.254c0.173-0.048,0.463,0.267,0.548-0.09l-0.012-0.035c0.009,0,0.014-0.001,0.023-0.002
												l-0.001,0l0.001,0c0.475-0.067,0.543,0.566,0.938,0.628l-0.054,0.094c0.25,0.001,0.468,0.168,0.709,0.029
												c0.057,0.028,0.051,0.243-0.029,0.347c0.188-0.001,0.251-0.101,0.403,0.158c-0.232,0.104-0.013,0.177-0.217,0.056
												c0.165,0.172,0.148,0.358,0.483,0.174c-0.182,0.226,0.031,0.386,0.162,0.348l-0.077-0.243
												c0.126,0.006,0.214,0.067,0.309,0.123l-0.179,0.324c0.329,0.589,1.022-0.464,1.184,0.337
												c0.178-0.218-0.21-0.235-0.029-0.498c0.187,0.099,0.307,0.653,0.379,0.67c0.273,0.25,0.368-0.471,0.653-0.297
												c-0.025-0.134-0.012-0.481,0.217-0.576c0.193,0.065,0.209,0.564,0.062,0.656c-0.053,0.006-0.074-0.037-0.067-0.08
												c-0.074,0.042-0.174,0.083-0.103,0.234l0.043-0.125c0.094,0.141,0.402,0.153,0.316,0.359
												c0.18-0.115,0.084-0.206-0.033-0.284c0.274,0.206,0.443,0.03,0.738,0.153c-0.049-0.071-0.092-0.224-0.046-0.222
												c0.43,0.152,0.181-0.251,0.455-0.319c0.173,0.184-0.024,0.477,0.251,0.286c0.191,0.118,0.074,0.339,0.008,0.451
												c0.248-0.272,0.536,0.104,0.711,0.12l-0.133,0.129c0.08-0.077,0.153-0.087,0.229-0.1l-0.129-0.242
												c0.093,0.03,0.165,0.019,0.184,0.125c0.055-0.183-0.143-0.411-0.023-0.672c0.136,0.106,0.29-0.207,0.408,0.116
												c-0.369-0.033,0.121,0.33-0.166,0.45c0.05-0.054,0.121-0.065,0.217-0.042c0.021,0.034,0.005,0.072-0.015,0.098
												c0.419,0.207,0.064-0.413,0.4-0.504c0.012,0.199,0.187,0.328,0.231,0.271c-0.143,0.039-0.159-0.289-0.086-0.469
												c0.259,0.07,0.191-0.183,0.303-0.207l-0.146-0.022c-0.023-0.196,0.084-0.21,0.198-0.32
												c0.067,0.136-0.088,0.146-0.015,0.188c0.024-0.374,0.486,0.186,0.61-0.126c0.154,0.072,0.165,0.325,0.293,0.363
												c0.131-0.346,0.391,0.104,0.548-0.221c-0.2-0.187-0.177-0.126-0.133-0.443c0,0-0.316,0.38-0.316,0.381l0.08-0.472
												c-0.118,0.062-0.176,0.278-0.269,0.277c0.026-0.253,0.04-0.188-0.113-0.352c0.345,0.264,0.204-0.366,0.51-0.239
												l0.324,0.56c0.442,0.069,0.323-0.59,0.751-0.703l-0.176-0.011c-0.104-0.239,0.186-0.182,0.229-0.347
												c0.123,0.178,0.237,0.187,0.368,0.254c-0.105-0.118,0.254-0.188,0-0.542l0.328,0.091
												c0.335-0.146-0.136-0.709,0.132-0.874c0.1,0.233,0.312,0.236,0.277,0.51c0.078-0.076,0.176-0.119,0.07-0.224
												c0.144,0.047-0.006-0.416,0.21-0.349c-0.04-0.097-0.199-0.259-0.108-0.334c0.042,0.02,0.08,0.071,0.08,0.071
												c-0.078-0.071,0.01-0.234-0.237-0.312c0.731,0.19,0.512-0.713,1.137-0.61c0.073-0.233,0.162-0.506,0.254-0.695
												c0.049,0.044,0.093,0.055,0.053,0.078c0.331-0.173-0.442-0.471-0.078-0.68c0.429-0.07,0.083,0.251,0.267,0.183
												c0.348,0.103,0.395-0.045,0.411-0.213c-0.02-0.182-0.162-0.382,0.05-0.527l0.046,0.081
												c0.116-0.096,0.039-0.332-0.055-0.398c-0.094-0.101-0.215-0.216-0.191-0.342c0,0,0.062,0.01,0.107-0.001
												c-0.367-0.161-0.492-0.49-0.594-0.735c0.278,0.076,0.148,0.11,0.431,0.064c-0.041-0.109-0.454,0.033-0.532-0.187
												c0.152-0.071,0.286-0.228,0.588-0.244l0.015,0.204c0.391-0.101-0.011-0.263,0.06-0.37l0.17,0.017
												c-0.05-0.31-0.478-0.328-0.436-0.666l-0.13,0.03c-0.417-0.205,0.245-0.145-0.062-0.345l0.434-0.033
												c-0.098-0.125-0.393-0.45-0.456-0.677c0.311,0.149,0.455,0.414,0.638,0.58c0.009-0.119-0.006-0.406-0.215-0.484
												c0.038,0.051,0.14,0.119,0.07,0.162c-0.329-0.169-0.48-0.379-0.453-0.621c0.829,0.116,0.269-0.608,0.938-0.708
												c-0.131-0.225-0.071-0.429,0.022-0.633c0.1-0.233,0.208-0.317,0.269-0.832c-0.705,0.267,0.023-0.243-0.667-0.17
												c-0.017-0.153,0.007-0.21,0.055-0.231c0.132-0.14,0.271-0.296,0.304-0.439l0.168-0.155
												c0.117-0.125,0.172-0.018,0.27,0.034c0.015,0.022,0.038,0.034,0.082,0.018c0.007-0.018,0.014-0.036,0.018-0.046
												c-0.093-0.321,0.23-0.217,0.248-0.502c-0.196,0.134-0.38,0.006-0.39-0.187c0,0-0.032,0.088-0.064,0.176
												c-0.038,0.09-0.077,0.181-0.077,0.181c-0.246-0.145-0.14-0.271-0.081-0.41c0.071-0.135,0.102-0.272-0.074-0.355
												l0.175,0.015c-0.029-0.019-0.059-0.049-0.087-0.085c-0.182-0.185-0.48-0.62-0.882-0.38
												c0.02-0.083,0.101-0.276,0.197-0.238c-0.053-0.082-0.122-0.151-0.201-0.208c-0.757,0.001-1.645,0.289-1.856-0.016
												l0.055-0.158c-0.089,0.036-0.184,0.286-0.266,0.109c0.014-0.066,0.054-0.157,0.018-0.172
												c-0.052,0.05-0.257,0.255-0.354,0.146l0.118-0.17c-0.404-0.269-0.722,0.357-1.098,0.421
												c0.063-0.477-0.256-0.677-0.415-0.777l0.015-0.066c-0.495-0.125-0.906,0.283-1.396,0.409
												c-0.221-0.556-0.95-0.346-1.377-0.697c0.06,0.096-0.061,0.371-0.149,0.408c-0.096-0.111-0.345,0.292-0.27-0.144
												l0.037,0.014c-0.025-0.44-0.265-0.355-0.438-0.39l-0.104,0.569c-0.348-0.893-1.239,0.148-1.391-0.63
												c-0.143,0.127-0.227,0.114-0.456,0.229l0.032-0.308c-0.012-0.004-0.024-0.007-0.031-0.01
												c-0.313-0.038-0.323-0.065-0.477-0.075c-0.122-0.009-0.255,0-0.441,0.036l0.078-0.221
												c-0.216-0.021-0.271,0.893-0.471,0.911l-0.06-0.462c-0.044,0.001-0.159-0.009-0.266-0.024l-0.201-0.009l-0.122-0.024
												c-0.082-0.017-0.163-0.031-0.243-0.032c-0.158-0.002-0.31,0.049-0.44,0.243c-0.003-0.068-0.009-0.202,0.049-0.229
												c-0.177,0.011-0.719-0.221-0.572,0.399c-0.058-0.409-0.389,0.011-0.566,0.218l-0.009-0.306
												c-0.118,0.408-0.109,0.515-0.333,0.652c-0.062-0.032-0.081-0.235,0.004-0.168c-0.208-0.134-0.108,0.306-0.356,0.174
												l0.06-0.204c-0.195,0.002-0.167,0.104-0.243,0.342c-0.104,0.137-0.375-0.028-0.439-0.297
												c-0.004,0.17-0.08,0.406-0.203,0.342c-0.029-0.101,0.004-0.17,0.021-0.205c-0.349-0.163-0.433,0.414-0.692,0.146
												c-0.019-0.099-0.039-0.147-0.062-0.175c0.257-0.026,0.465-0.037,0.448-0.012c-0.037-0.279-0.25-0.3-0.136-0.707
												c-0.139,0.231-0.361,0.725-0.58,0.621c-0.014-0.026-0.026-0.051-0.039-0.093l0.017-0.034
												c-0.051-0.021-0.089,0.01-0.121,0.062c-0.07-0.038-0.116-0.066-0.178-0.062c-0.055-0.227-0.254-0.093-0.357-0.091
												c0.048,0.304-0.094,0.272,0.066,0.507c-0.02-0.02,0.015-0.039,0.081-0.061c0.015-0.011,0.032-0.018,0.04-0.037
												l-0.004,0.027c0.067-0.014,0.154-0.033,0.254-0.054c-0.062,0.166-0.129,0.307-0.266,0.153
												c-0.031,0.202-0.063,0.411-0.079,0.511c-0.196-0.407-0.498-0.601-0.57-0.858c-0.292,0.212-0.726,0.21-0.849,0.809
												c-0.08,0.085-0.124-0.15-0.17-0.236c0.045-0.064,0.107-0.063,0.124-0.149c-0.159,0.17-0.521,0.127-0.512,0.532
												c-0.249-0.151,0.078-0.385-0.223-0.279l0.025-0.127c-0.195-0.21-0.561-0.09-0.792,0.087
												c-0.239,0.179-0.372,0.42-0.581,0.514c-0.107,0.112-0.292,0.119-0.595,0.071c0.072,0.007,0.107,0.012,0.157,0.054
												c-0.205,0.032-0.437,0.101-0.536,0.229c-0.021,0.292,0.003,0.659-0.042,1.039c0.095,0.375,0.113,0.73-0.035,1.125
												c-0.084,0.226,0.174,0.21,0.386,0.313l-0.32,0.091l0.407,0.17c0.318,0.285-0.737,0.636-0.174,0.974l0.217-0.073
												c-0.027,0.147,0.172,0.443-0.085,0.441c0.041,0.011,0.234,0.028,0.123,0.093l-0.172,0.019l0.322,0.331
												c-0.107,0.282-0.686,0.004-0.696,0.399c0.075,0.14,0.523,0.392,0.637,0.333c0.006-0.061,0.101-0.159,0.272-0.172
												l0.097,0.134c0.511,0,1.037,0.091,1.375-0.28l-0.325-0.228l0.242-0.094l0.027,0.206c0.225-0.131,0.016-0.194-0.131-0.268
												c0.13-0.028,0.22-0.069,0.265-0.121l-0.502-0.206c0.196-0.044,0.402,0.079,0.499-0.092
												c-0.233-0.095-0.437,0.142-0.599-0.032c0.221-0.134,0.411-0.117,0.203-0.237c0.129-0.031,0.215-0.009,0.276,0.041
												c-0.166-0.109-0.096-0.319-0.371-0.356c0.273-0.15-0.115-0.402,0.364-0.443c-0.118-0.026-0.4-0.173-0.434-0.282
												c0.599,0.135-0.019-0.423,0.601-0.45c-0.268-0.043-0.343-0.172-0.395-0.32c-0.024-0.074-0.044-0.152-0.077-0.227
												c-0.027-0.037-0.064-0.041-0.142-0.065c0.043,0.004,0.128,0.008,0.103,0.016c0.036-0.049,0.192-0.057,0.291-0.062
												c-0.439-0.03-0.556-0.129-0.85-0.277c0.021,0,0.041,0.002,0.062,0.007c0.178,0.018,0.303,0.074,0.425,0.118
												c0.134,0.052,0.264,0.09,0.471,0.136c-0.118-0.028-0.199-0.051-0.266-0.079c-0.14-0.055-0.218-0.128-0.427-0.192
												c0.268,0.054,0.125,0.002,0.513,0.159c-0.595-0.282-0.105-0.071-0.483-0.306c0.284,0.102,0.571,0.329,0.371,0.159
												C104.583,85.708,104.79,85.847,104.79,85.847z M107.76,84.52l0.001,0.006c-0.043,0.013-0.08,0.024-0.104,0.031
												C107.679,84.549,107.708,84.539,107.76,84.52z M108.192,84.458c-0.055-0.005-0.12,0.001-0.189,0.013
												c-0.029-0.104-0.026-0.214,0.018-0.214C108.006,84.33,108.116,84.377,108.192,84.458z M106.999,82.466
												c0.063-0.052,0.094,0.005,0.111,0.066c-0.031,0.01-0.067,0.025-0.114,0.052l-0.004,0.039
												C106.991,82.563,106.992,82.508,106.999,82.466z"/>
											<path fill="#E9AD79" d="M106.929,82.882c-0.009,0.008-0.013,0.021-0.025,0.026c0.019,0.024,0.035,0.045,0.05,0.063
												l0.012-0.099L106.929,82.882z"/>
											<path fill="#E9AD79" d="M109.179,95.912l0.004,0.011c0-0.015,0.001-0.029,0.008-0.048
												C109.186,95.891,109.183,95.899,109.179,95.912z"/>
											<polygon fill="#E9AD79" points="113.89,84.565 113.899,84.488 113.853,84.55 											"/>
											<path fill="#E9AD79" d="M107.934,93.61c0.015-0.023,0.027-0.05,0.029-0.079C107.951,93.546,107.942,93.576,107.934,93.61
												z"/>
											<path fill="#E9AD79" d="M107.243,92.873l-0.024-0.179C107.219,92.781,107.23,92.834,107.243,92.873z"/>
											<path fill="#E9AD79" d="M106.808,92.214c-0.046,0.03-0.077,0.057-0.105,0.081l-0.001,0.002L106.808,92.214z"/>
											<path fill="#E9AD79" d="M117.033,95.822c0.008-0.004,0.015-0.012,0.02-0.022
												C117.089,95.721,117.059,95.759,117.033,95.822z"/>
											<path fill="#E9AD79" d="M113.788,96.84c0.046-0.05,0.09-0.1,0.133-0.129C113.862,96.68,113.815,96.668,113.788,96.84z"/>
											<polygon fill="#E9AD79" points="119.738,93.521 119.742,93.524 119.757,93.508 											"/>
											<path fill="#E9AD79" d="M114.081,96.737c-0.055-0.069-0.106-0.062-0.16-0.026
												C113.969,96.738,114.025,96.776,114.081,96.737z"/>
											<path fill="#E9AD79" d="M104.735,89.567l-0.013-0.037c-0.016,0.013-0.03,0.021-0.042,0.026L104.735,89.567z"/>
											<path fill="#E9AD79" d="M104.681,89.556l-0.055-0.011C104.638,89.56,104.649,89.572,104.681,89.556z"/>
											<path fill="#E9AD79" d="M104.511,89.522l0.115,0.022C104.608,89.521,104.593,89.485,104.511,89.522z"/>
											<path fill="#E9AD79" d="M105.262,90.464l0.094-0.062C105.333,90.413,105.303,90.432,105.262,90.464z"/>
											<path fill="#E9AD79" d="M105.485,90.685c-0.028-0.074,0.063-0.293-0.056-0.331l-0.074,0.048
												C105.514,90.336,105.295,90.75,105.485,90.685z"/>
											<path fill="#E9AD79" d="M105.318,92.596l-0.117-0.263c-0.057,0.115-0.134,0.269-0.238,0.194
												C104.932,93.022,105.112,92.298,105.318,92.596z"/>
											<path fill="#E9AD79" d="M105.776,93.336c-0.143-0.069-0.123,0.121-0.177,0.163
												C105.743,93.492,105.778,93.489,105.776,93.336z"/>
											<path fill="#E9AD79" d="M110.765,97.098l-0.134,0.246C110.757,97.36,110.678,97.247,110.765,97.098z"/>
											<polygon fill="#E9AD79" points="112.374,96.198 112.338,96.002 112.206,96.228 											"/>
											<polygon fill="#E9AD79" points="112.46,98.308 112.396,98.333 112.626,98.287 											"/>
											<path fill="#E9AD79" d="M122.555,94.328l-0.301-0.171C122.256,94.258,122.558,94.503,122.555,94.328z"/>
											<path fill="#E9AD79" d="M123.187,89.54c0.174-0.04,0.29-0.153,0.124-0.234C123.283,89.399,123.145,89.489,123.187,89.54z
												"/>
											<polygon fill="#E9AD79" points="115.399,81.977 115.501,81.874 115.324,81.947 											"/>
										</g>
									</g>
								</g>
							</g>
						</g>
					</g>
					<path fill="#FCCAA0" d="M136.121,45.305c0.144,0.422,4.687,29.213-5.882,39.881c-10.568,10.668-28.848,4.354-33.301-6.581
						c-3.844-9.437-4.587-27.219,2.891-38.086C107.307,29.651,128.743,23.669,136.121,45.305z"/>
					<g>
						<g>
							<path fill="#D28541" d="M122.244,53.14c-0.315,3.485-0.631,6.971-0.946,10.456c-0.161,1.782-0.323,3.563-0.484,5.345
								c-0.072,0.798,0.31,0.125-0.233,0.231c-0.876,0.171-1.752,0.342-2.628,0.514c-0.519,0.102-0.298,0.892,0.219,0.791
								c1.038-0.203,2.076-0.406,3.114-0.609c0.188-0.037,0.285-0.223,0.301-0.396c0.493-5.444,0.985-10.888,1.479-16.332
								C123.112,52.613,122.291,52.618,122.244,53.14L122.244,53.14z"/>
						</g>
					</g>
					
						<ellipse transform="matrix(0.999 -0.0438 0.0438 0.999 -2.6206 4.8482)" fill="#524740" cx="109.411" cy="62.273" rx="1.255" ry="1.794"/>
					
						<ellipse transform="matrix(0.999 -0.0438 0.0438 0.999 -2.6295 5.6161)" fill="#524740" cx="126.942" cy="62.86" rx="1.255" ry="1.794"/>
					<g>
						<g>
							<path fill="#D28541" d="M89.668,65.933c2.034,0.135,3.444,1.844,2.94,3.882c-0.313,1.267-1.748,1.109-2.384,0.213
								c-0.417-0.587-0.279-1.188,0.419-1.396c0.646-0.193,1.333,0.108,1.751,0.595c0.346,0.401,0.923-0.181,0.58-0.58
								c-0.898-1.043-3.7-1.399-3.813,0.531c-0.09,1.521,1.622,2.809,3.053,2.272c1.8-0.675,1.548-3.489,0.623-4.747
								c-0.712-0.967-1.989-1.512-3.169-1.59C89.14,65.077,89.143,65.898,89.668,65.933L89.668,65.933z"/>
						</g>
					</g>
					<g>
						<g>
							<path fill="#D28541" d="M140.943,66.495c-1.164,0.077-2.357,0.603-3.104,1.508c-1.032,1.25-1.219,3.972,0.461,4.789
								c1.43,0.695,3.05-0.646,3.16-2.08c0.063-0.827-0.714-1.37-1.428-1.52c-0.879-0.185-1.817,0.167-2.395,0.837
								c-0.343,0.398,0.234,0.981,0.58,0.58c0.725-0.842,3.049-0.881,2.245,0.677c-0.504,0.978-1.942,1.208-2.404,0.084
								c-0.84-2.045,0.906-3.925,2.885-4.056C141.469,67.281,141.472,66.46,140.943,66.495L140.943,66.495z"/>
						</g>
					</g>
					<g>
						<defs>
							<path id="SVGID_13_" d="M119.925,73.156c-1.159,0.091-2.311-0.207-3.277-0.854c-1.41-0.946-3.644-2-5.749-1.116
								c-3.43,1.439-3.542,9.365,5.511,9.981c8.562,0.583,7.881-5.862,6.77-7.359C122.428,72.797,120.944,73.074,119.925,73.156z"/>
						</defs>
						<clipPath id="SVGID_4_">
							<use xlink:href="#SVGID_13_"  overflow="visible"/>
						</clipPath>
						<path clip-path="url(#SVGID_4_)" fill="#9A3B28" d="M119.925,73.156c-1.159,0.091-2.311-0.207-3.277-0.854
							c-1.41-0.946-3.644-2-5.749-1.116c-3.43,1.439-3.542,9.365,5.511,9.981c8.562,0.583,7.881-5.862,6.77-7.359
							C122.428,72.797,120.944,73.074,119.925,73.156z"/>
						<path clip-path="url(#SVGID_4_)" fill="#FFFFFF" d="M124.124,71.833c0,0,1.737,3.865-3.684,3.41
							c-10.519-0.883-11.046-2.578-10.128-5.935L124.124,71.833z"/>
						<path clip-path="url(#SVGID_4_)" fill="#EF8267" d="M122.926,80.633c0,0-1.715-3.257-6.64-3.789
							c-4.926-0.532-6.875,1.901-6.875,1.901S113.421,84.421,122.926,80.633z"/>
					</g>
					<g>
						<ellipse fill="#EF8267" cx="129.452" cy="72.719" rx="3.889" ry="3.141"/>
					</g>
					<g>
						<ellipse fill="#EF8267" cx="103.396" cy="70.853" rx="3.888" ry="3.141"/>
					</g>
					<path fill="#524740" d="M105.671,53.863c0.17,0.893,1.858,0.448,3.968,0.044c2.108-0.403,3.842-0.612,3.671-1.504
						c-0.17-0.893-2.019-1.289-4.128-0.886C107.072,51.92,105.501,52.97,105.671,53.863z"/>
					<path fill="#524740" d="M125.304,53.283c-0.174,0.892,1.557,1.108,3.664,1.521c2.108,0.412,3.793,0.865,3.968-0.027
						c0.175-0.891-1.392-1.949-3.5-2.362C127.328,52.003,125.479,52.392,125.304,53.283z"/>
					<path fill="#B6D6D8" d="M137.949,111.874c-4.954-1.544-8.379-3.954-10.729-6.717c-1.082,0.775-2.239,1.464-3.475,2.053
						c-7.742,3.871-17.85,2.415-24.627-2.738c-2.355,3.049-5.927,5.731-11.286,7.402c-20.473,6.381-25.126,12.762-26.722,38.02
						h51.049h1.463h51.047C163.073,124.635,158.422,118.254,137.949,111.874z"/>
					<path fill="#8AC3C3" d="M112.612,116.475c2.572,5.789,9.111,8.331,14.9,5.758c7.719-3.216,3.108-10.903-0.107-16.692
						c-0.046-0.094-0.074-0.198-0.107-0.298c-0.024-0.029-0.054-0.057-0.078-0.086c-1.082,0.775-2.239,1.464-3.475,2.053
						c-7.742,3.871-17.85,2.415-24.627-2.738c-0.877,1.135-1.923,2.219-3.167,3.22c-0.452,0.999-0.866,1.985-1.207,2.967
						c-2.602,7.483,4.402,14.99,11.899,12.428C109.191,122.216,111.462,120.222,112.612,116.475z"/>
					<path fill="#8AC3C3" d="M63.411,132.865c-1.18,4.498-1.858,10.038-2.301,17.028h51.049h1.463h51.047
						c-0.559-8.864-1.5-15.396-3.364-20.426c-9.213,7.191-20.637,12.17-30.684,15.309
						C108.771,151.644,81.465,150.024,63.411,132.865z"/>
					<path fill="#FFFFFF" d="M127.22,105.156c0,0-12.743,9.127-28.102-0.685c0,0-9.025,9.662-1,14.515
						c8.574,5.184,14.772-8.176,14.772-8.176s2.97,12.769,12.673,8.774C135.009,115.695,127.22,105.156,127.22,105.156z"/>
					<path fill="#5F3908" d="M104.865,33.707c0,0,4.539,9.172,22.077,11.964c17.538,2.791,16.873,9.621,16.873,9.621
						S134.644,14.563,104.865,33.707z"/>
					<path fill="#4F3315" d="M106.614,32.636c0,0,3.407,17.854-12.515,25.43C94.1,58.066,87.693,42.4,106.614,32.636z"/>
				</g>
				<g>
					<g>
						<g>
							<path fill="#FFFFFF" d="M93.578,62.103c0.321,5.961,4.563,10.204,10.524,10.525c5.949,0.32,10.23-5.047,10.525-10.525
								c0.32-5.949-5.048-10.23-10.525-10.525C98.153,51.258,93.873,56.625,93.578,62.103c-0.057,1.058,1.584,1.052,1.641,0
								c0.616-11.449,17.152-11.449,17.769,0c0.271,5.025-4.254,8.635-8.885,8.884c-5.024,0.271-8.635-4.254-8.884-8.884
								C95.162,61.051,93.521,61.045,93.578,62.103z"/>
						</g>
					</g>
					<g>
						<g>
							<path fill="#FFFFFF" d="M119.67,62.103c0.321,5.961,4.564,10.204,10.525,10.525c5.949,0.32,10.229-5.047,10.524-10.525
								c0.32-5.949-5.047-10.23-10.524-10.525C124.246,51.258,119.965,56.625,119.67,62.103c-0.057,1.058,1.584,1.052,1.641,0
								c0.616-11.449,17.152-11.449,17.769,0c0.271,5.024-4.254,8.635-8.884,8.884c-5.024,0.271-8.636-4.254-8.885-8.884
								C121.254,61.051,119.613,61.045,119.67,62.103z"/>
						</g>
					</g>
					<g>
						<g>
							<path fill="#FFFFFF" d="M114.388,62.683c1.61-1.594,3.858-1.393,5.525,0c0.806,0.673,1.973-0.481,1.16-1.16
								c-2.347-1.961-5.559-2.264-7.846,0C112.475,62.268,113.636,63.428,114.388,62.683L114.388,62.683z"/>
						</g>
					</g>
				</g>
			</g>
			<g>
				
					<rect x="52.576" y="141.843" transform="matrix(0.9997 -0.0244 0.0244 0.9997 -4.5358 2.9425)" fill="#197E85" width="131.184" height="90.558"/>
				
					<rect x="49.358" y="138.626" transform="matrix(0.9997 -0.0244 0.0244 0.9997 -4.4575 2.8625)" fill="#FFFFFF" width="131.183" height="90.556"/>
				<path fill="#FCCAA0" d="M179.682,154.833c0,0-22.699,7.168-0.598-4.182c0,0,5.674-1.792,4.778,2.688
					c0,0,2.986,0.797,1.395,3.187c0,0,2.786,1.593,0.397,3.783c0,0,3.981,1.195-0.995,3.982c-4.978,2.787-14.934,4.778-3.385-1.791
					c0,0-18.319,7.963-1.593-3.386C179.682,159.115,157.181,168.074,179.682,154.833z"/>
				<path fill="#FCCAA0" d="M48.296,160.338c0,0,23.612,3.009-1.212,4.046c0,0-5.903-0.754-3.211-4.445c0,0-2.378-1.975,0.07-3.477
					c0,0-1.863-2.615,1.225-3.603c0,0-3.114-2.754,2.574-3.196c5.688-0.444,15.561,1.923,2.321,3.045c0,0,19.971,0.452,0.025,3.741
					C50.089,156.451,74.274,157.751,48.296,160.338z"/>
			</g>
		</g>
	</g>
	<g>
		<text transform="matrix(1 0 0 1 80.2656 169.248)" font-family="'DFEr-W3-WINP-BF'" font-size="23.1556">王思璇</text>
	</g>
	<g>
		<text transform="matrix(1 0 0 1 93.9355 191.7593)" font-family="'DFEr-W3-WINP-BF'" font-size="23.1556">Emma</text>
	</g>
	<text transform="matrix(1 0 0 1 64.6797 212.4829)" font-family="'NotoSansCJKtc-Regular-B5pc-H'" font-size="9.0049">windsign02@gmail.com</text>
</g>
</svg>
