<?xml version="1.0" encoding="utf-8"?>
<!-- Generator: Adobe Illustrator 16.0.0, SVG Export Plug-In . SVG Version: 6.00 Build 0)  -->
<!DOCTYPE svg PUBLIC "-//W3C//DTD SVG 1.1//EN" "http://www.w3.org/Graphics/SVG/1.1/DTD/svg11.dtd">
<svg version="1.1" id="圖層_1" xmlns="http://www.w3.org/2000/svg" xmlns:xlink="http://www.w3.org/1999/xlink" x="0px" y="0px"
	 width="60px" height="60px" viewBox="0 0 60 60" enable-background="new 0 0 60 60" xml:space="preserve">
<g>
	<g>
		<path fill="#626262" d="M48.975,25.135v23.107c0,0.525-0.428,0.953-0.953,0.953H5.271c-0.525,0-0.953-0.427-0.953-0.953V20.55
			c0-0.525,0.427-0.953,0.953-0.953h34.752c0.032-1.122,0.381-2.229,1.044-3.115H5.271c-2.243,0-4.068,1.825-4.068,4.068v27.692
			c0,2.243,1.825,4.068,4.068,4.068h42.75c2.243,0,4.068-1.825,4.068-4.068V22.776C51.48,23.916,50.443,24.815,48.975,25.135z"/>
	</g>
	<g>
		<g>
			<path fill="#626262" d="M40.905,33.142c-0.938,0-1.818-0.365-2.48-1.027l-4.052-4.052c-0.662-0.663-1.027-1.543-1.027-2.48
				s0.365-1.818,1.027-2.48L48.759,8.716c0.662-0.662,1.543-1.027,2.479-1.027c0,0,0,0,0,0c0.938,0,1.818,0.365,2.48,1.027
				l4.052,4.052c1.367,1.367,1.368,3.592,0,4.96L43.385,32.114C42.723,32.776,41.842,33.142,40.905,33.142z M51.238,10.548
				c-0.1,0-0.293,0.025-0.458,0.19L36.395,25.124c-0.165,0.166-0.189,0.358-0.189,0.458c0,0.101,0.024,0.293,0.189,0.458
				l4.052,4.052c0.165,0.165,0.358,0.189,0.458,0.189c0.1,0,0.293-0.024,0.458-0.189l14.385-14.386c0.253-0.253,0.253-0.664,0-0.917
				l-4.052-4.052C51.532,10.573,51.339,10.548,51.238,10.548z"/>
		</g>
		<g>
			<path fill="#626262" d="M31.288,36.542c-0.375,0-0.744-0.148-1.017-0.424c-0.385-0.39-0.514-0.965-0.331-1.482l3.285-9.276
				c0.264-0.745,1.081-1.133,1.825-0.871c0.744,0.264,1.134,1.081,0.871,1.825l-2.299,6.492l6.568-2.243
				c0.749-0.256,1.56,0.144,1.815,0.891c0.256,0.747-0.144,1.56-0.891,1.815l-9.364,3.197
				C31.599,36.517,31.442,36.542,31.288,36.542z"/>
		</g>
	</g>
	<g>
		<path id="XMLID_12_" fill="#626262" d="M25.963,26.964c0-0.484-0.392-0.875-0.875-0.875H10.226c-0.483,0-0.875,0.392-0.875,0.875
			c0,0.483,0.392,0.875,0.875,0.875h14.863C25.572,27.839,25.963,27.448,25.963,26.964z"/>
		<path id="XMLID_13_" fill="#626262" d="M25.963,34.396c0-0.484-0.392-0.875-0.875-0.875H10.226c-0.483,0-0.875,0.391-0.875,0.875
			c0,0.483,0.392,0.875,0.875,0.875h14.863C25.572,35.271,25.963,34.88,25.963,34.396z"/>
		<path id="XMLID_14_" fill="#626262" d="M25.963,41.829c0-0.483-0.392-0.875-0.875-0.875H10.226c-0.483,0-0.875,0.392-0.875,0.875
			s0.392,0.875,0.875,0.875h14.863C25.572,42.704,25.963,42.312,25.963,41.829z"/>
	</g>
</g>
</svg>
