<?xml version="1.0" encoding="utf-8"?>
<!-- Generator: Adobe Illustrator 16.0.0, SVG Export Plug-In . SVG Version: 6.00 Build 0)  -->
<!DOCTYPE svg PUBLIC "-//W3C//DTD SVG 1.1//EN" "http://www.w3.org/Graphics/SVG/1.1/DTD/svg11.dtd">
<svg version="1.1" id="圖層_1" xmlns="http://www.w3.org/2000/svg" xmlns:xlink="http://www.w3.org/1999/xlink" x="0px" y="0px"
	 width="280px" height="280px" viewBox="0 0 280 280" enable-background="new 0 0 280 280" xml:space="preserve">
<g>
	<g>
		<g>
			<path fill="#197E85" d="M118.585,85.649c0,0.772,0.639,1.417,1.425,1.417c0.79,0,1.427-0.645,1.427-1.417
				c0-0.787-0.637-1.42-1.427-1.42C119.224,84.229,118.585,84.862,118.585,85.649z"/>
			<path fill="#197E85" d="M136.398,63.656c0.777,0,1.418-0.638,1.418-1.417c0-0.783-0.641-1.428-1.418-1.428
				c-0.788,0-1.435,0.645-1.435,1.428C134.964,63.018,135.61,63.656,136.398,63.656z"/>
			<path fill="#197E85" d="M124.905,86.564c0.363,0,0.692-0.163,0.904-0.45c0.407-0.505,0.312-1.243-0.177-1.627l-5.125-4.011
				c-0.222-0.155-0.47-0.239-0.717-0.239c-0.362,0-0.701,0.16-0.929,0.447c-0.187,0.253-0.276,0.551-0.249,0.853
				c0.043,0.319,0.212,0.591,0.46,0.786l5.115,4.001C124.391,86.477,124.649,86.564,124.905,86.564z"/>
			<path fill="#197E85" d="M136.653,51.884c0.787,0,1.432-0.646,1.432-1.418c0-0.79-0.645-1.428-1.432-1.428
				c-0.77,0-1.416,0.638-1.416,1.428C135.237,51.238,135.884,51.884,136.653,51.884z"/>
			<path fill="#197E85" d="M115.168,92.513c0-0.79-0.645-1.432-1.426-1.432c-0.805,0-1.416,0.642-1.416,1.432
				c0,0.776,0.611,1.411,1.416,1.411C114.524,93.924,115.168,93.289,115.168,92.513z"/>
			<path fill="#197E85" d="M124.146,77.532c0-0.788-0.648-1.432-1.426-1.432c-0.786,0-1.435,0.644-1.435,1.432
				c0,0.786,0.649,1.415,1.435,1.415C123.497,78.946,124.146,78.318,124.146,77.532z"/>
			<path fill="#197E85" d="M134.168,53.612c-0.773,0-1.418,0.65-1.418,1.433c0,0.776,0.645,1.421,1.418,1.421
				c0.777,0,1.425-0.645,1.425-1.421C135.593,54.262,134.945,53.612,134.168,53.612z"/>
			<path fill="#197E85" d="M79.72,129.781l0.089-0.033c2.116-0.738,3.897-1.794,5.286-3.121c1.947-1.878,3.222-4.417,3.77-7.56
				l0.02-0.089c0-0.004-0.01-0.033-0.02-0.035c-0.009-0.017-0.034-0.01-0.044,0.001L88.751,119c-1.522,1.307-3.206,2.468-5.01,3.431
				c0,0.003,0,0.01,0,0.013l-4.057,7.274c0,0.02,0,0.043,0,0.059c0.012,0,0.019,0.01,0.027,0.01
				C79.712,129.787,79.72,129.787,79.72,129.781z"/>
			<path fill="#197E85" d="M102.403,106.922c-0.018,0.01-0.018,0.018-0.018,0.026c0,0.007,0,0.021,0,0.041l0.018,0.027
				c1.043,1.704,2.336,3.138,3.875,4.264v0.01c0.01,0,0.01,0,0.035,0l0,0l0.029-0.006c6.675-3.003,17.306-6.743,30.126-7.574
				l0.025-0.004c0.019,0,0.045-0.015,0.045-0.035v-0.069c0-0.148,0-0.307,0-0.477c0-2.532,1.975-4.594,4.4-4.594
				c0.062,0,0.113,0,0.201,0.008c0.049-0.008,0.116-0.008,0.178-0.008c2.435,0,4.401,2.062,4.401,4.594c0,0.113,0,0.213,0,0.329
				v0.163c0,0.023,0.025,0.044,0.042,0.044l0.027,0.005c9.636,0.522,18.92,2.913,27.595,7.07l0.026,0.007
				c0.007,0.006,0.017,0.006,0.027-0.007h0.021c1.741-1.011,3.299-2.292,4.646-3.825l0.023-0.037c0.01-0.015,0.01-0.019,0.01-0.03
				c0-0.019-0.01-0.032-0.017-0.035l-0.044-0.016c-7.996-4.127-16.485-6.855-25.252-8.071c-0.166-4.986-1.708-9.632-4.318-13.093
				c-2.619-3.489-6.071-5.419-9.692-5.419c-3.77,0-7.305,2.033-9.952,5.715c-2.629,3.657-4.099,8.527-4.116,13.707
				c-9.685,1.889-17.467,5.001-22.302,7.284L102.403,106.922z"/>
			<path fill="#197E85" d="M109.778,100.045c0-0.785-0.637-1.424-1.428-1.424c-0.778,0-1.423,0.64-1.423,1.424
				c0,0.786,0.646,1.424,1.423,1.424C109.141,101.469,109.778,100.831,109.778,100.045z"/>
			<path fill="#197E85" d="M111.98,96.978c0.044,0.633,0.548,1.132,1.18,1.132h0.035c0.008,0,0.008,0,0.008,0l7.7-0.235
				c0.312-0.003,0.595-0.138,0.807-0.363c0.205-0.226,0.336-0.522,0.319-0.837c-0.027-0.625-0.54-1.128-1.196-1.128l-7.701,0.227
				C112.496,95.793,111.974,96.334,111.98,96.978z"/>
			<path fill="#197E85" d="M70.374,146.604l0.077-0.035c0.584-0.242,1.208-0.368,1.817-0.368c0.087,0,0.175,0.007,0.237,0.007
				c0.082,0.004,0.161,0.004,0.292,0.004c0.719,0,3.338-0.068,6.25-0.958l0.01-0.006c0.008,0,0.008-0.015,0.017-0.017l3.356-6.038
				c0.017-0.006,0.017-0.027,0-0.037c0-0.01-0.027-0.025-0.037-0.01l-0.087,0.02c-3.674,1.193-7.022,1.452-8.677,1.51h-0.017
				c-0.035,0-0.035,0.01-0.035,0.025l-3.269,5.856c0,0.008,0,0.023,0.018,0.04c0,0.007,0.019,0.007,0.019,0.007
				C70.363,146.604,70.363,146.604,70.374,146.604z"/>
			<path fill="#197E85" d="M160.857,78.065c0-0.781-0.624-1.414-1.406-1.414c-0.788,0-1.437,0.633-1.437,1.414
				c0,0.79,0.648,1.428,1.437,1.428C160.233,79.494,160.857,78.855,160.857,78.065z"/>
			<path fill="#197E85" d="M99.392,94.438c0,4.067,0.655,7.616,1.948,10.536l0.027,0.069c0.01,0.007,0.035,0.021,0.035,0.012
				c0.025,0,0.035-0.005,0.045-0.012l9.064-16.3l11.422,3.42c0.123,0.034,0.23,0.047,0.344,0.047c0.521,0,0.954-0.328,1.106-0.832
				c0.089-0.301,0.069-0.616-0.072-0.89c-0.151-0.277-0.409-0.47-0.699-0.566l-10.943-3.269l10.358-18.595l5.799,13.797
				c0.186,0.433,0.601,0.712,1.062,0.712c0.151,0,0.329-0.027,0.452-0.091c0.613-0.246,0.885-0.936,0.637-1.523l-5.904-14.037
				c-0.167-0.415-0.559-0.684-1.027-0.712l4.948-8.861l5.082,20.866c0.124,0.532,0.602,0.898,1.135,0.898
				c0.105,0,0.193-0.01,0.282-0.03c0.3-0.074,0.551-0.262,0.725-0.531c0.151-0.271,0.205-0.587,0.124-0.885l-5.641-23.126
				c-0.008-0.05-0.017-0.112-0.043-0.178l8.979-16.155l0.106,39.22c0,0.636,0.521,1.159,1.168,1.159
				c0.649-0.002,1.166-0.526,1.166-1.166l-0.106-39.905l10.14,18.198c0,0.003,0,0.003,0,0.006l-6.259,23.374
				c-0.169,0.622,0.202,1.265,0.841,1.438c0.085,0.02,0.194,0.03,0.292,0.03c0.533,0,0.984-0.354,1.12-0.86l5.623-21.047
				l4.899,8.782c-0.127-0.042-0.248-0.062-0.374-0.062c-0.443,0-0.852,0.249-1.043,0.65l-6.913,13.82
				c-0.145,0.279-0.163,0.598-0.084,0.889c0.106,0.299,0.311,0.534,0.587,0.677c0.177,0.084,0.364,0.121,0.532,0.121
				c0.431,0,0.838-0.237,1.042-0.642l6.924-13.829c0.044-0.084,0.073-0.173,0.079-0.257l9.325,16.726l-13.01,3.947
				c-0.626,0.188-0.964,0.844-0.778,1.458c0.152,0.488,0.597,0.827,1.108,0.827c0.115,0,0.229-0.013,0.337-0.047l13.506-4.099
				l10.07,18.104l0.015,0.035c0.02,0.008,0.026,0.025,0.037,0.025l0,0c0.009,0,0.017-0.003,0.025-0.02l0.037-0.036
				c1.629-2.202,2.833-4.83,3.557-7.791V97.92c0-0.005,0-0.015,0-0.023l-38.596-69.351l6.85-12.298
				c0.454-0.827,0.57-1.774,0.31-2.673c-0.266-0.898-0.854-1.643-1.672-2.108c-0.514-0.286-1.108-0.437-1.694-0.437
				c-1.28,0-2.455,0.69-3.059,1.808L99.392,94.29c0,0.006,0,0.026,0,0.03c0,0.023,0,0.04,0,0.057
				C99.392,94.394,99.392,94.414,99.392,94.438z"/>
			<path fill="#197E85" d="M126.756,66.846c0,0.783,0.638,1.424,1.408,1.424c0.796,0,1.426-0.642,1.426-1.424
				c0-0.781-0.63-1.419-1.426-1.419C127.395,65.427,126.756,66.065,126.756,66.846z"/>
			<path fill="#197E85" d="M153.643,68.843c0-0.779-0.635-1.413-1.417-1.413c-0.788,0-1.41,0.633-1.41,1.413
				c0,0.788,0.622,1.424,1.41,1.424C153.008,70.268,153.643,69.631,153.643,68.843z"/>
			<path fill="#197E85" d="M134.458,25.797c0.01,0.008,0.01,0.012,0.036,0.012l0,0c0.009,0,0.026-0.003,0.026-0.012l0.026-0.055
				c1.406-2.607,2.7-4.758,4.107-6.753l0.019-0.017c0.007-0.01,0.007-0.034,0-0.042l-3.419-6.093
				c-0.602-1.117-1.776-1.808-3.062-1.808c-0.584,0-1.175,0.151-1.689,0.437c-1.691,0.954-2.301,3.086-1.364,4.781L134.458,25.797z"
				/>
			<path fill="#197E85" d="M231.105,161.188h-10.562c-0.037,0-0.048,0.004-0.054,0.011c-0.019,0.014-0.019,0.035,0,0.046l3.85,6.914
				l0.009,0.021c0.007,0.006,0.017,0.017,0.026,0.017h6.73c1.928,0,3.503-1.575,3.503-3.508
				C234.608,162.75,233.033,161.188,231.105,161.188z"/>
			<path fill="#197E85" d="M70.108,161.356l2.957-5.312l0.027-0.047c0.009-0.017,0.009-0.027,0-0.044
				c-0.019-0.009-0.027-0.013-0.044-0.013l0,0h-0.047c-0.477,0.007-0.778-0.017-0.9-0.017l-0.017-0.003
				c-2.259-0.106-4.206-1.806-4.596-4.023l-0.008-0.097c-0.008-0.004-0.008-0.024-0.037-0.026c-0.027-0.011-0.027,0.007-0.044,0.022
				l-12.57,22.598c-0.939,1.688-0.346,3.825,1.344,4.775c0.54,0.289,1.126,0.439,1.709,0.439c1.278,0,2.444-0.691,3.072-1.8
				l5.241-9.43h147.611l5.247,9.43c0.624,1.108,1.791,1.8,3.066,1.8c0.584,0,1.188-0.15,1.707-0.439
				c1.688-0.95,2.291-3.088,1.344-4.775l-10.975-19.751l-0.019-0.024c-0.006-0.01-0.043-0.027-0.043-0.01l-0.034,0.01
				c-0.597,0.28-1.23,0.435-1.88,0.47c-0.096,0.004-0.354,0.013-0.77,0.013c-0.901,0-2.798-0.057-5.146-0.436l-0.075-0.013
				c0,0-0.021,0.004-0.03,0.017c-0.007,0.017-0.007,0.027,0,0.039l3.693,6.649H70.108z"/>
			<path fill="#197E85" d="M55.652,168.18l3.84-6.894l0.019-0.041c0.019-0.011,0.019-0.032,0-0.046c0-0.007-0.019-0.011-0.034-0.011
				h-10.58c-1.93,0-3.505,1.562-3.505,3.5c0,1.933,1.575,3.508,3.505,3.508h6.728C55.633,168.196,55.644,168.186,55.652,168.18z"/>
			<path fill="#197E85" d="M152.659,85.205c-0.264,0.193-0.434,0.463-0.49,0.771c-0.03,0.307,0.036,0.615,0.227,0.865
				c0.212,0.299,0.566,0.477,0.936,0.477c0.257,0,0.485-0.077,0.692-0.222l5.249-3.835c0.248-0.183,0.415-0.454,0.459-0.764
				c0.044-0.309-0.017-0.613-0.211-0.863c-0.216-0.301-0.576-0.478-0.928-0.478c-0.25,0-0.499,0.078-0.694,0.222L152.659,85.205z"/>
			<path fill="#197E85" d="M144.772,54.239c-0.771,0-1.401,0.644-1.401,1.431c0,0.78,0.631,1.421,1.401,1.421
				c0.805,0,1.437-0.642,1.437-1.421C146.209,54.882,145.577,54.239,144.772,54.239z"/>
			<path fill="#197E85" d="M205.125,138.402h-0.014c-3.732-0.748-7.105-2.044-9.995-3.867l-0.098-0.072
				c-0.007-0.007-0.05-0.007-0.058,0.003c-0.013,0.012-0.013,0.039,0,0.052l3.115,5.591c0,0.008,0.024,0.013,0.024,0.013
				c0.02,0.027,0.025,0.05,0.053,0.071l0.022,0.04c0.084,0.079,0.162,0.155,0.242,0.239c3.062,2.93,7.231,4.008,10.209,4.395
				l0.061,0.006l0,0c0.02,0,0.027-0.003,0.027-0.013c0.016-0.013,0.016-0.033,0.009-0.042l-3.544-6.388l-0.023-0.01
				C205.156,138.409,205.149,138.402,205.125,138.402z"/>
			<path fill="#197E85" d="M156.548,93.739c-0.628,0-1.144,0.497-1.171,1.132c-0.017,0.631,0.479,1.179,1.143,1.203l12.102,0.401
				c0.027,0,0.034,0,0.044,0c0.648,0,1.152-0.495,1.172-1.125c0.025-0.646-0.49-1.188-1.136-1.206l-12.111-0.405H156.548z"/>
			<path fill="#197E85" d="M143.575,63.162c0,0.781,0.647,1.428,1.412,1.428c0.791,0,1.43-0.647,1.43-1.428
				c0-0.777-0.639-1.418-1.43-1.418C144.223,61.744,143.575,62.385,143.575,63.162z"/>
			<path fill="#197E85" d="M168.854,98.91c0,0.792,0.624,1.433,1.416,1.433c0.777,0,1.423-0.64,1.423-1.433
				c0-0.783-0.646-1.42-1.423-1.42C169.478,97.49,168.854,98.126,168.854,98.91z"/>
			<path fill="#197E85" d="M164.679,91.894c0-0.779-0.644-1.409-1.423-1.409c-0.788,0-1.414,0.63-1.414,1.409
				c0,0.788,0.626,1.425,1.414,1.425C164.035,93.319,164.679,92.682,164.679,91.894z"/>
		</g>
		<path fill="#24A4A3" d="M91.239,161.356v-14.608l-1.674,1.431c-6.229,5.303-14.428,5.714-16.792,5.714
			c-0.282,0-0.477-0.004-0.593-0.015c-0.763-0.032-1.47-0.359-1.984-0.916c-0.504-0.568-0.761-1.283-0.744-2.032
			c0.082-1.479,1.346-2.682,2.817-2.682c0.052,0,0.087,0,0.175,0c0.01,0.003,0.116,0.007,0.354,0.007
			c1.416,0,8.811-0.237,13.704-4.912c2.384-2.281,3.896-5.393,4.463-9.256l0.373-2.624l-2.036,1.69
			c-6.197,5.1-14.202,5.495-16.504,5.495c-0.308,0-0.502-0.005-0.662-0.008c-1.557-0.086-2.747-1.398-2.684-2.943
			c0.082-1.464,1.355-2.689,2.807-2.689c0.044,0,0.098,0,0.143,0h0.025c0.063,0.007,0.167,0.007,0.336,0.007
			c1.444,0,8.853-0.242,13.739-4.917c2.931-2.803,4.507-6.78,4.702-11.843l0.116-2.749l-1.878,2.006
			c-5.204,5.579-11.279,7.032-11.544,7.089c-0.177,0.043-0.398,0.072-0.603,0.072c-1.327,0-2.449-0.914-2.745-2.216
			c-0.336-1.508,0.624-3.008,2.135-3.362c0.586-0.138,14.554-3.555,14.554-22.658c0-1.559,1.275-2.822,2.824-2.822
			c0.018,0,0.062,0.007,0.116,0.01l0.114,0.014l0.123-0.014c0.057-0.003,0.09-0.01,0.124-0.01c1.549,0,2.817,1.264,2.817,2.822
			c0,18.895,13.173,21.082,13.74,21.166c1.532,0.215,2.61,1.638,2.389,3.17c-0.176,1.393-1.381,2.444-2.789,2.444
			c-0.131,0-0.255-0.01-0.39-0.03c-0.247-0.029-6.097-0.927-11.196-6.027l-1.807-1.809l0.062,2.555
			c0.151,5.226,1.736,9.327,4.728,12.193c4.885,4.675,12.315,4.917,13.748,4.917c0.197,0,0.303,0,0.319,0l0.114-0.007
			c1.532,0,2.799,1.171,2.869,2.669c0.037,0.756-0.222,1.478-0.733,2.036c-0.497,0.551-1.179,0.889-1.877,0.922l-0.125,0.005
			c-0.027,0-0.222,0.008-0.611,0.008c-2.312,0-10.312-0.395-16.493-5.495l-2.044-1.685l0.38,2.622
			c0.566,3.86,2.071,6.972,4.453,9.253c4.895,4.674,12.296,4.912,13.731,4.912c0.167,0,0.282-0.003,0.336-0.007h0.098
			c1.549,0,2.815,1.176,2.886,2.678c0.037,0.748-0.222,1.468-0.733,2.033c-0.497,0.556-1.188,0.88-1.931,0.919h-0.071
			c-0.151,0.015-0.346,0.018-0.611,0.018c-2.345,0-10.534-0.409-16.76-5.718l-1.68-1.431v14.608H91.239z M143.671,161.356v-10.651
			l1.695,1.511c5.179,4.593,11.824,4.951,13.728,4.951c0.136,0,0.39,0,0.543-0.013c1.291-0.074,2.299-1.274,2.248-2.671
			c-0.063-1.324-1.125-2.436-2.354-2.436l-0.089,0.01c-0.116,0.003-0.206,0.003-0.348,0.003c-1.175,0-7.371-0.215-11.464-4.477
			c-1.927-2.007-3.162-4.715-3.672-8.065l-0.424-2.711l2.097,1.781c5.122,4.391,11.623,4.727,13.463,4.727
			c0.276,0,0.449-0.01,0.537-0.023h0.028c1.285-0.073,2.276-1.26,2.226-2.665c-0.063-1.34-1.113-2.437-2.364-2.437l-0.079,0.008
			c-0.044,0-0.144,0.005-0.318,0.005c-1.188,0-7.4-0.217-11.493-4.474c-2.372-2.469-3.688-5.965-3.924-10.38l-0.139-2.884
			l1.922,2.15c4.268,4.747,9.162,6.06,9.369,6.115c0.148,0.032,0.323,0.057,0.485,0.057c1.105,0,2.057-0.827,2.284-2.002
			c0.281-1.364-0.517-2.735-1.792-3.051c-0.482-0.124-12.165-3.208-12.165-20.61c0-0.681-0.243-1.325-0.688-1.801
			c-0.427-0.482-1.028-0.75-1.665-0.75l0,0l-0.129,0.016l-0.188-0.01l-0.02-0.005c-0.019,0-0.024-0.008-0.042-0.008
			c-1.302,0-2.346,1.156-2.346,2.559c0,17.225-11.023,19.176-11.483,19.25c-1.302,0.202-2.178,1.49-2.011,2.883
			c0.168,1.377,1.348,2.378,2.639,2.187c0.204-0.034,4.957-0.924,9.064-5.188l1.87-1.918l-0.107,2.664
			c-0.168,4.581-1.504,8.185-3.929,10.728c-4.101,4.257-10.306,4.474-11.529,4.474c-0.185,0-0.266-0.005-0.3-0.005l-0.072-0.008
			c-1.257,0.008-2.301,1.07-2.362,2.427c-0.062,1.409,0.946,2.602,2.248,2.674h0.035c0.087,0.013,0.257,0.021,0.497,0.021
			c1.858,0,8.347-0.344,13.473-4.724l2.083-1.781l-0.41,2.711c-0.502,3.35-1.743,6.058-3.663,8.065
			c-4.107,4.262-10.29,4.477-11.482,4.477c-0.188,0-0.269-0.003-0.292-0.003h-0.089c-1.275,0-2.338,1.06-2.398,2.422
			c-0.062,1.396,0.937,2.601,2.219,2.675c0.126,0.003,0.292,0.013,0.561,0.013c1.91,0,8.569-0.358,13.722-4.951l1.718-1.511v10.651
			H143.671z M191.975,161.356v-15.835l1.733,1.48c6.562,5.616,15.228,6.049,17.742,6.049c0.251,0,0.499-0.002,0.664-0.006
			c0.803-0.041,1.517-0.39,2.057-0.978c0.528-0.592,0.806-1.347,0.757-2.14c-0.077-1.585-1.414-2.828-3.042-2.828h-0.084
			c-0.052,0.007-0.158,0.016-0.389,0.016c-1.496,0-9.294-0.254-14.438-5.183c-2.539-2.427-4.117-5.743-4.711-9.852l-0.379-2.647
			l2.081,1.73c6.535,5.416,15.017,5.836,17.446,5.836c0.268,0,0.479-0.003,0.694-0.013c0.81-0.041,1.523-0.388,2.063-0.973
			c0.528-0.593,0.806-1.35,0.757-2.133c-0.077-1.591-1.397-2.834-3.019-2.834l-0.114,0.008c0,0,0,0-0.008,0
			c-0.018,0-0.144,0.005-0.337,0.005c-1.515,0-9.331-0.251-14.475-5.177c-3.177-3.041-4.848-7.39-4.984-12.937l-0.059-2.6
			l1.847,1.856c5.435,5.456,11.801,6.4,11.854,6.417c0.133,0.014,0.244,0.017,0.393,0.017c1.489,0,2.75-1.105,2.965-2.573
			c0.211-1.623-0.926-3.111-2.534-3.333c-0.582-0.101-14.481-2.476-14.481-22.301c0-1.645-1.327-2.972-2.965-2.972
			c-0.044,0-0.074,0-0.135,0.005l-0.114,0.019l-0.115-0.019c-0.046,0-0.087-0.005-0.133-0.005c-1.655,0-2.982,1.327-2.982,2.972
			c0,20.067-14.716,23.723-15.316,23.867c-1.593,0.373-2.617,1.952-2.266,3.548c0.3,1.364,1.504,2.325,2.907,2.325
			c0.219,0,0.432-0.022,0.633-0.069c0.274-0.052,6.685-1.554,12.218-7.521l1.903-2.06l-0.098,2.775
			c-0.193,5.378-1.857,9.613-4.979,12.582c-5.131,4.933-12.937,5.184-14.443,5.184c-0.148,0-0.275-0.005-0.39-0.005
			c-0.055-0.008-0.091-0.014-0.144-0.014c-1.538,0-2.896,1.307-2.964,2.846c-0.071,1.628,1.193,3.025,2.852,3.1
			c0.069,0.006,0.293,0.013,0.659,0.013c2.431,0,10.929-0.42,17.451-5.836l2.071-1.73l-0.36,2.647
			c-0.582,4.109-2.171,7.425-4.732,9.852c-5.131,4.929-12.901,5.183-14.43,5.183c-0.162,0-0.3-0.009-0.366-0.009l-0.081-0.012
			h-0.105c-1.549,0-2.89,1.273-2.958,2.849c-0.071,1.629,1.177,3.021,2.815,3.102c0.099,0.003,0.318,0.006,0.695,0.006
			c2.5,0,11.148-0.429,17.71-6.049l1.717-1.48v15.835H191.975z"/>
	</g>
	<g>
		<g>
			<path fill="#24A4A3" d="M74.977,207.148c-1.409,0-2.553,1.149-2.553,2.557v21.846c0,0.604-0.491,1.101-1.102,1.101H58.109
				c-0.586,0-1.04-0.483-1.04-1.101v-33.094c0-1.354-1.188-2.547-2.547-2.547c-1.394,0-2.556,1.166-2.556,2.547v33.094
				c0,0.604-0.5,1.101-1.102,1.101H38.749c-0.602,0-1.09-0.497-1.09-1.101v-21.557c0-1.431-1.124-2.557-2.555-2.557
				c-1.428,0-2.546,1.126-2.546,2.557v23.468c0,2.365,1.918,4.29,4.287,4.29h36.392c2.367,0,4.29-1.925,4.29-4.29v-23.757
				C77.526,208.298,76.384,207.148,74.977,207.148z"/>
			<path fill="#24A4A3" d="M108.193,220.772h-6.5c-0.393,0-0.699-0.282-0.699-0.632v-0.464c0-1.316-1.063-2.382-2.365-2.382
				c-1.322,0-2.386,1.065-2.386,2.382v0.464c0,0.37-0.269,0.632-0.642,0.632h-5.789c-1.346,0-2.443,1.115-2.443,2.489
				c0,1.367,1.074,2.438,2.443,2.438h2.547c0.202,0,0.393,0.118,0.503,0.3c0.101,0.185,0.086,0.399-0.028,0.591l-5.505,8.927
				c-0.319,0.511-0.323,1.14-0.03,1.67c0.306,0.534,0.857,0.854,1.468,0.854c1.782,0,3.4-0.94,4.339-2.52l2.729-4.586
				c0.043-0.118,0.129-0.132,0.182-0.132c0.11,0,0.225,0.084,0.225,0.223v8.522c0,1.314,1.063,2.379,2.386,2.379
				c1.302,0,2.365-1.064,2.365-2.379v-8.93c0-0.144,0.145-0.231,0.268-0.231c0.052,0,0.145,0.013,0.21,0.094l2.189,3.958
				c0.828,1.481,2.398,2.402,4.104,2.402c0.587,0,1.108-0.303,1.416-0.816c0.308-0.515,0.308-1.13,0.029-1.646l-4.28-7.842
				c-0.071-0.131-0.023-0.269,0.023-0.359c0.151-0.252,0.533-0.478,0.82-0.478h2.422c1.371,0,2.439-1.071,2.439-2.438
				C110.633,221.888,109.538,220.772,108.193,220.772z"/>
			<path fill="#24A4A3" d="M131.066,226.537c-0.098-0.174-0.098-0.38,0.005-0.548c0.1-0.181,0.298-0.289,0.523-0.289h1.568
				c1.367,0,2.438-1.071,2.438-2.438c0-1.374-1.098-2.489-2.438-2.489h-5.329c-0.393,0-0.704-0.282-0.704-0.632v-0.464
				c0-1.337-1.021-2.382-2.313-2.382c-1.315,0-2.385,1.065-2.385,2.382v0.464c0,0.35-0.299,0.632-0.688,0.632h-6.971
				c-1.311,0-2.436,1.142-2.436,2.489c0,1.347,1.102,2.438,2.436,2.438h3.006c0.299,0,0.696,0.229,0.857,0.495
				c0.093,0.141,0.101,0.278,0.045,0.402l-4.584,7.996c-0.275,0.514-0.275,1.119,0.029,1.633c0.314,0.521,0.858,0.83,1.477,0.83
				c1.739,0,3.307-0.921,4.107-2.402l2.265-3.941c0.043-0.09,0.129-0.141,0.23-0.141c0.114,0,0.228,0.078,0.228,0.226v8.751
				c0,1.314,1.07,2.379,2.385,2.379c1.292,0,2.313-1.044,2.313-2.379v-9.158c0-0.185,0.133-0.252,0.246-0.252
				c0.094,0,0.176,0.041,0.229,0.107l2.37,4.348c0.891,1.542,2.479,2.463,4.227,2.463c0.615,0,1.165-0.306,1.458-0.823
				c0.302-0.527,0.299-1.163-0.011-1.7L131.066,226.537z"/>
			<path fill="#24A4A3" d="M113.744,213.817v-9.501c0-0.245,0.215-0.379,0.407-0.379c0.114,0,0.23,0.046,0.306,0.127l5.917,6.03
				c1.521,1.516,3.652,2.39,5.833,2.39c0.595,0,1.096-0.344,1.332-0.901c0.224-0.555,0.116-1.155-0.307-1.572l-7.526-7.649
				c-0.118-0.145-0.154-0.319-0.081-0.475c0.071-0.144,0.222-0.234,0.38-0.234h5.14c1.371,0,2.495-1.122,2.495-2.496
				c0-1.375-1.124-2.494-2.495-2.494h-10.527c-0.484,0-0.873-0.383-0.873-0.869v-0.928c0-1.36-1.073-2.432-2.432-2.432
				c-1.374,0-2.489,1.092-2.489,2.432v0.928c0,0.503-0.346,0.869-0.813,0.869H97.523c-1.381,0-2.501,1.119-2.501,2.494
				c0,1.374,1.121,2.496,2.501,2.496h5.154c0.158,0,0.289,0.077,0.351,0.218c0.059,0.146,0.016,0.306-0.101,0.431l-7.766,7.653
				c-0.447,0.439-0.584,1.068-0.35,1.629c0.235,0.558,0.753,0.901,1.374,0.901c2.228,0,4.314-0.871,5.898-2.446l6.086-5.909
				c0.077-0.085,0.181-0.135,0.292-0.135c0.167,0,0.359,0.135,0.359,0.376v9.447c0,1.374,1.115,2.493,2.489,2.493
				C112.657,216.311,113.744,215.191,113.744,213.817z"/>
			<path fill="#24A4A3" d="M190.017,197.533h-26.724c-0.249,0-0.478-0.125-0.639-0.343c-0.151-0.225-0.195-0.514-0.114-0.732
				l0.753-1.683c0.262-0.632,0.202-1.301-0.158-1.828c-0.343-0.512-0.894-0.807-1.522-0.807c-1.652,0-3.178,0.968-3.993,2.53
				l-0.747,1.739c-0.306,0.77-1.052,1.123-1.629,1.123h-8.991c-1.475,0-2.543,1.068-2.543,2.55c0,1.444,1.068,2.49,2.543,2.49h6.559
				c0.306,0,0.602,0.167,0.77,0.439c0.161,0.245,0.201,0.534,0.101,0.756l-8.353,18.546c-0.251,0.635-0.194,1.307,0.169,1.848
				c0.332,0.49,0.876,0.783,1.461,0.783c1.728,0,3.263-0.988,3.995-2.584l2.656-5.735c0.075-0.145,0.223-0.194,0.333-0.194
				c0.158,0,0.316,0.084,0.316,0.289v23.524c0,1.431,0.994,2.436,2.433,2.436c1.373,0,2.378-1.027,2.378-2.436v-6.373
				c0-0.626,0.639-1.163,1.162-1.163h20.051c0.618,0,1.21,0.562,1.21,1.163v6.373c0,1.431,1.024,2.436,2.493,2.436
				c1.438,0,2.436-1.005,2.436-2.436v-28.567c0-2.349-1.845-4.123-4.287-4.123h-23.356c-0.269,0-0.501-0.117-0.638-0.335
				c-0.152-0.219-0.169-0.495-0.067-0.732l1.22-2.675c0.274-0.692,0.983-1.239,1.632-1.239h29.093c1.417,0,2.498-1.073,2.498-2.49
				C192.515,198.602,191.464,197.533,190.017,197.533z M180.282,217.412h-20.051c-0.57,0-1.162-0.628-1.162-1.216V213.7
				c0-0.592,0.592-1.216,1.162-1.216h20.051c0.602,0,1.21,0.611,1.21,1.216v2.496C181.492,216.794,180.884,217.412,180.282,217.412z
				 M160.231,222.451h20.051c0.602,0,1.21,0.615,1.21,1.217v2.668c0,0.591-0.592,1.155-1.21,1.155h-20.051
				c-0.523,0-1.162-0.534-1.162-1.155v-2.668C159.069,223.084,159.661,222.451,160.231,222.451z"/>
			<path fill="#24A4A3" d="M243.448,218.739h-6.901c-0.218,0-0.43-0.117-0.567-0.315c-0.158-0.209-0.208-0.474-0.131-0.706
				l0.987-3.01c0.195-0.562,0.102-1.189-0.258-1.697c-0.359-0.51-0.938-0.816-1.532-0.816c-1.569,0-2.934,0.972-3.478,2.474
				l-1.041,3.014c-0.235,0.645-0.807,1.058-1.449,1.058h-9.047c-0.658,0-1.283-0.43-1.505-1.058l-1.163-3.014
				c-0.53-1.479-1.955-2.474-3.527-2.474c-0.615,0-1.169,0.283-1.532,0.787c-0.366,0.514-0.467,1.179-0.259,1.78l1.099,2.956
				c0.077,0.249,0.044,0.515-0.106,0.726c-0.146,0.191-0.354,0.296-0.589,0.296h-7.015c-1.341,0-2.433,1.126-2.433,2.5
				c0,1.37,1.092,2.489,2.433,2.489h15.41c0.615,0,1.106,0.457,1.106,1.042v3.413c0,0.615-0.505,1.105-1.106,1.105h-10.777
				c-1.414,0-2.554,1.118-2.554,2.493c0,1.435,1.122,2.554,2.554,2.554h10.777c0.615,0,1.106,0.456,1.106,1.04v4.805
				c0,1.412,1.114,2.557,2.485,2.557c1.425,0,2.55-1.122,2.55-2.557v-4.805c0-0.604,0.44-1.04,1.053-1.04h10.831
				c1.371,0,2.493-1.15,2.493-2.554c0-1.375-1.122-2.493-2.493-2.493h-10.831c-0.593,0-1.053-0.48-1.053-1.105v-3.413
				c0-0.602,0.44-1.042,1.053-1.042h15.41c1.368,0,2.493-1.119,2.493-2.489C245.941,219.865,244.816,218.739,243.448,218.739z"/>
			<path fill="#24A4A3" d="M244.893,205.589h-16.854c-0.575,0-1.053-0.47-1.053-1.044v-2.261c0-0.602,0.44-1.038,1.053-1.038h12.457
				c1.344,0,2.496-1.169,2.496-2.554c0-1.408-1.122-2.547-2.496-2.547h-12.817c-0.416,0-0.692-0.255-0.692-0.638v-0.41
				c0-1.429-1.125-2.55-2.55-2.55c-1.371,0-2.485,1.146-2.485,2.55v0.41c0,0.355-0.31,0.638-0.699,0.638h-12.864
				c-1.375,0-2.496,1.139-2.496,2.547c0,1.385,1.142,2.554,2.496,2.554h12.457c0.629,0,1.106,0.443,1.106,1.038v2.261
				c0,0.567-0.508,1.044-1.106,1.044h-16.862c-1.41,0-2.546,1.116-2.546,2.49c0,1.431,1.115,2.55,2.546,2.55h40.911
				c1.432,0,2.551-1.119,2.551-2.55C247.443,206.705,246.301,205.589,244.893,205.589z"/>
		</g>
		<g>
			<path fill="#24A4A3" d="M44.606,259.181l2.896,0.913c-0.442,1.619-1.174,2.818-2.212,3.602c-1.035,0.783-2.345,1.173-3.928,1.173
				c-1.967,0-3.58-0.669-4.848-2.01c-1.263-1.344-1.901-3.178-1.901-5.506c0-2.46,0.642-4.374,1.922-5.738
				c1.267-1.36,2.933-2.04,5.005-2.04c1.804,0,3.276,0.534,4.412,1.606c0.666,0.625,1.181,1.532,1.512,2.725l-2.95,0.699
				c-0.178-0.759-0.551-1.368-1.105-1.814c-0.551-0.439-1.225-0.665-2.021-0.665c-1.097,0-1.98,0.393-2.666,1.179
				c-0.682,0.786-1.025,2.062-1.025,3.824c0,1.874,0.336,3.205,1.015,4.001c0.666,0.789,1.545,1.187,2.614,1.187
				c0.796,0,1.48-0.246,2.054-0.753C43.95,261.059,44.352,260.263,44.606,259.181z"/>
			<path fill="#24A4A3" d="M55.761,249.827v5.439c0.922-1.072,2.016-1.604,3.28-1.604c0.657,0,1.245,0.114,1.772,0.356
				c0.526,0.242,0.912,0.559,1.188,0.931c0.262,0.376,0.45,0.793,0.541,1.253c0.101,0.457,0.141,1.17,0.141,2.127v6.286h-2.839
				v-5.661c0-1.119-0.047-1.831-0.153-2.141c-0.11-0.298-0.295-0.541-0.569-0.719c-0.275-0.178-0.611-0.262-1.024-0.262
				c-0.474,0-0.894,0.11-1.263,0.336c-0.365,0.238-0.642,0.574-0.81,1.037c-0.176,0.458-0.263,1.144-0.263,2.04v5.369h-2.83v-14.789
				H55.761z"/>
			<path fill="#24A4A3" d="M70.582,257.171l-2.577-0.467c0.292-1.032,0.786-1.802,1.499-2.299c0.699-0.5,1.747-0.742,3.142-0.742
				c1.267,0,2.207,0.146,2.826,0.444c0.621,0.302,1.051,0.681,1.31,1.142c0.249,0.461,0.38,1.307,0.38,2.536l-0.036,3.31
				c0,0.944,0.042,1.64,0.134,2.086c0.093,0.444,0.264,0.925,0.514,1.436h-2.807c-0.071-0.186-0.167-0.467-0.279-0.833
				c-0.047-0.172-0.076-0.282-0.094-0.336c-0.487,0.474-1.001,0.826-1.552,1.061c-0.56,0.236-1.146,0.35-1.771,0.35
				c-1.092,0-1.965-0.295-2.605-0.896c-0.633-0.598-0.953-1.351-0.953-2.271c0-0.602,0.147-1.142,0.437-1.616
				c0.286-0.474,0.694-0.843,1.207-1.088c0.526-0.256,1.278-0.474,2.257-0.662c1.324-0.251,2.248-0.483,2.76-0.695v-0.285
				c0-0.545-0.134-0.928-0.403-1.166c-0.267-0.232-0.781-0.343-1.53-0.343c-0.499,0-0.89,0.094-1.169,0.296
				C70.982,256.327,70.757,256.677,70.582,257.171z M74.374,259.473c-0.36,0.12-0.939,0.266-1.729,0.434
				c-0.785,0.167-1.304,0.332-1.545,0.493c-0.363,0.266-0.548,0.595-0.548,1.001c0,0.397,0.148,0.736,0.44,1.025
				c0.299,0.289,0.669,0.437,1.129,0.437c0.507,0,0.998-0.168,1.464-0.504c0.341-0.252,0.573-0.564,0.672-0.941
				c0.07-0.241,0.116-0.701,0.116-1.38V259.473z"/>
			<path fill="#24A4A3" d="M92.584,264.616h-2.827v-5.47c0-1.152-0.064-1.901-0.184-2.241c-0.117-0.339-0.322-0.604-0.593-0.79
				c-0.274-0.193-0.593-0.281-0.976-0.281c-0.491,0-0.934,0.131-1.329,0.399c-0.388,0.266-0.66,0.625-0.803,1.069
				c-0.139,0.439-0.22,1.263-0.22,2.462v4.852h-2.835v-10.711h2.637v1.573c0.941-1.217,2.11-1.815,3.534-1.815
				c0.627,0,1.198,0.108,1.72,0.333c0.518,0.229,0.904,0.514,1.176,0.867c0.254,0.346,0.45,0.738,0.551,1.186
				c0.101,0.443,0.147,1.079,0.147,1.911V264.616z"/>
			<path fill="#24A4A3" d="M98.102,265.325l3.236,0.39c0.058,0.38,0.179,0.642,0.374,0.775c0.269,0.205,0.688,0.306,1.268,0.306
				c0.742,0,1.298-0.106,1.667-0.329c0.254-0.147,0.44-0.389,0.571-0.715c0.085-0.239,0.125-0.672,0.125-1.307v-1.56
				c-0.843,1.152-1.916,1.73-3.209,1.73c-1.441,0-2.581-0.608-3.42-1.824c-0.66-0.957-0.985-2.161-0.985-3.595
				c0-1.791,0.431-3.169,1.292-4.112c0.862-0.951,1.937-1.422,3.227-1.422c1.327,0,2.419,0.582,3.286,1.737v-1.495h2.651v9.612
				c0,1.267-0.105,2.211-0.319,2.839c-0.212,0.625-0.494,1.119-0.877,1.472c-0.373,0.353-0.882,0.635-1.503,0.836
				c-0.632,0.199-1.431,0.307-2.394,0.307c-1.808,0-3.103-0.319-3.86-0.935c-0.764-0.629-1.142-1.415-1.142-2.372
				C98.088,265.573,98.091,265.456,98.102,265.325z M100.629,259.039c0,1.139,0.22,1.969,0.657,2.496
				c0.445,0.534,0.99,0.789,1.626,0.789c0.705,0,1.283-0.262,1.76-0.81c0.48-0.541,0.721-1.34,0.721-2.404
				c0-1.106-0.235-1.933-0.684-2.474c-0.462-0.538-1.035-0.803-1.744-0.803c-0.672,0-1.235,0.262-1.68,0.786
				C100.85,257.151,100.629,257.954,100.629,259.039z"/>
			<path fill="#24A4A3" d="M120.079,261.209l2.824,0.475c-0.353,1.031-0.934,1.82-1.714,2.364c-0.786,0.541-1.767,0.81-2.94,0.81
				c-1.868,0-3.245-0.607-4.137-1.824c-0.707-0.971-1.063-2.203-1.063-3.688c0-1.78,0.465-3.168,1.394-4.176
				c0.924-1.009,2.102-1.506,3.519-1.506c1.601,0,2.849,0.524,3.771,1.576c0.926,1.052,1.361,2.667,1.322,4.841h-7.101
				c0.019,0.837,0.255,1.492,0.686,1.959c0.447,0.47,0.988,0.699,1.639,0.699c0.444,0,0.816-0.117,1.114-0.356
				C119.694,262.133,119.929,261.747,120.079,261.209z M120.242,258.343c-0.02-0.822-0.225-1.443-0.642-1.874
				c-0.403-0.424-0.887-0.635-1.465-0.635c-0.618,0-1.132,0.219-1.533,0.668c-0.398,0.454-0.603,1.062-0.598,1.841H120.242z"/>
			<path fill="#24A4A3" d="M140.432,264.616v-6.222l-5.424-8.567h3.504l3.477,5.853l3.414-5.853h3.447l-5.442,8.584v6.205H140.432z"
				/>
			<path fill="#24A4A3" d="M151.013,259.11c0-0.942,0.229-1.855,0.695-2.735c0.468-0.88,1.119-1.556,1.979-2.02
				c0.843-0.467,1.791-0.692,2.849-0.692c1.616,0,2.94,0.524,3.975,1.576c1.038,1.052,1.553,2.386,1.553,3.991
				c0,1.623-0.521,2.963-1.565,4.028c-1.046,1.072-2.355,1.599-3.945,1.599c-0.986,0-1.921-0.221-2.812-0.664
				c-0.894-0.444-1.565-1.092-2.033-1.956C151.242,261.384,151.013,260.339,151.013,259.11z M153.919,259.261
				c0,1.062,0.249,1.875,0.757,2.439c0.504,0.567,1.125,0.85,1.86,0.85c0.739,0,1.368-0.282,1.865-0.85
				c0.507-0.564,0.749-1.382,0.749-2.463c0-1.045-0.242-1.852-0.749-2.423c-0.497-0.558-1.126-0.843-1.865-0.843
				c-0.735,0-1.356,0.285-1.86,0.843C154.168,257.386,153.919,258.195,153.919,259.261z"/>
			<path fill="#24A4A3" d="M174.235,264.616v-1.603c-0.39,0.574-0.897,1.021-1.536,1.351c-0.635,0.326-1.307,0.493-2.019,0.493
				s-1.36-0.158-1.929-0.477c-0.577-0.312-0.991-0.756-1.242-1.327c-0.256-0.571-0.387-1.364-0.387-2.369v-6.779h2.835v4.926
				c0,1.502,0.054,2.426,0.158,2.765c0.101,0.339,0.286,0.611,0.564,0.807c0.282,0.201,0.629,0.298,1.055,0.298
				c0.484,0,0.918-0.134,1.297-0.393c0.393-0.275,0.646-0.604,0.794-0.994c0.141-0.394,0.204-1.357,0.204-2.893v-4.516h2.839v10.711
				H174.235z"/>
			<path fill="#24A4A3" d="M185.413,264.616h-2.832v-10.711h2.631v1.519c0.453-0.719,0.853-1.192,1.219-1.424
				c0.356-0.226,0.763-0.337,1.217-0.337c0.648,0,1.276,0.183,1.871,0.531l-0.873,2.476c-0.484-0.312-0.928-0.467-1.327-0.467
				c-0.403,0-0.74,0.111-1.012,0.326c-0.279,0.222-0.487,0.615-0.658,1.189c-0.158,0.571-0.235,1.768-0.235,3.588V264.616z"/>
			<path fill="#24A4A3" d="M202.365,264.616v-14.668h2.987v12.175h7.425v2.493H202.365z"/>
			<path fill="#24A4A3" d="M217.787,252.45v-2.623h2.839v2.623H217.787z M217.787,264.616v-10.711h2.839v10.711H217.787z"/>
			<path fill="#24A4A3" d="M225.182,253.905h1.566v-0.81c0-0.9,0.101-1.573,0.298-2.02c0.183-0.443,0.541-0.806,1.059-1.085
				c0.511-0.278,1.163-0.417,1.952-0.417c0.806,0,1.603,0.122,2.365,0.359l-0.383,1.976c-0.453-0.104-0.884-0.157-1.304-0.157
				c-0.41,0-0.702,0.094-0.877,0.292c-0.182,0.188-0.272,0.555-0.272,1.103v0.759h2.117v2.228h-2.117v8.483h-2.838v-8.483h-1.566
				V253.905z"/>
			<path fill="#24A4A3" d="M242.4,261.209l2.822,0.475c-0.36,1.031-0.932,1.82-1.717,2.364c-0.779,0.541-1.771,0.81-2.946,0.81
				c-1.862,0-3.239-0.607-4.133-1.824c-0.705-0.971-1.062-2.203-1.062-3.688c0-1.78,0.463-3.168,1.394-4.176
				c0.928-1.009,2.104-1.506,3.521-1.506c1.6,0,2.846,0.524,3.776,1.576c0.927,1.052,1.36,2.667,1.323,4.841h-7.106
				c0.015,0.837,0.25,1.492,0.683,1.959c0.444,0.47,0.981,0.699,1.641,0.699c0.439,0,0.815-0.117,1.121-0.356
				C242.02,262.133,242.246,261.747,242.4,261.209z M242.564,258.343c-0.02-0.822-0.231-1.443-0.645-1.874
				c-0.403-0.424-0.895-0.635-1.465-0.635c-0.622,0-1.133,0.219-1.535,0.668c-0.396,0.454-0.611,1.062-0.595,1.841H242.564z"/>
		</g>
	</g>
</g>
</svg>
