<?xml version="1.0" encoding="utf-8"?>
<!-- Generator: Adobe Illustrator 16.0.0, SVG Export Plug-In . SVG Version: 6.00 Build 0)  -->
<!DOCTYPE svg PUBLIC "-//W3C//DTD SVG 1.1//EN" "http://www.w3.org/Graphics/SVG/1.1/DTD/svg11.dtd">
<svg version="1.1" id="圖層_1" xmlns="http://www.w3.org/2000/svg" xmlns:xlink="http://www.w3.org/1999/xlink" x="0px" y="0px"
	 width="230px" height="240.88px" viewBox="0 0 230 240.88" enable-background="new 0 0 230 240.88" xml:space="preserve">
<g>
	<g>
		<circle fill="#76C9CE" cx="115" cy="116.89" r="110"/>
		<g>
			<g>
				<g>
					<path fill="#FCCAA0" d="M100.052,65.232c2.641,4.177,3.013,10.911-0.41,13.075s-9.346-1.062-11.986-5.239
						s-2.006-9.318,1.417-11.482C92.496,59.422,97.411,61.054,100.052,65.232z"/>
					<path fill="#FCCAA0" d="M133.427,66.253c-2.931,3.979-3.78,10.669-0.519,13.071c3.261,2.401,9.397-0.396,12.328-4.376
						c2.93-3.98,2.662-9.153-0.599-11.554C141.375,60.993,136.357,62.272,133.427,66.253z"/>
					<g>
						<defs>
							<path id="SVGID_21_" d="M89.942,113.342c20.472-6.381,14.889-27.519,14.889-27.519l9.438-1.151v-0.178L115,84.583l0.73-0.089
								v0.178l9.438,1.151c0,0-5.583,21.138,14.889,27.519c20.473,6.381,25.126,12.762,26.721,38.02h-51.048h-1.462H63.221
								C64.816,126.104,69.469,119.723,89.942,113.342z"/>
						</defs>
						<clipPath id="SVGID_2_">
							<use xlink:href="#SVGID_21_"  overflow="visible"/>
						</clipPath>
						<path clip-path="url(#SVGID_2_)" fill="#FCCAA0" d="M89.942,113.342c20.472-6.381,14.889-27.519,14.889-27.519l9.438-1.151
							v-0.178L115,84.583l0.73-0.089v0.178l9.438,1.151c0,0-5.583,21.138,14.889,27.519c20.473,6.381,25.126,12.762,26.721,38.02
							h-51.048h-1.462H63.221C64.816,126.104,69.469,119.723,89.942,113.342z"/>
						<g clip-path="url(#SVGID_2_)">
							<path fill="#E6A165" d="M105.496,90.835c-0.131-2.986-0.666-5.012-0.666-5.012l9.438-1.151v-0.178L115,84.583l0.73-0.089
								v0.178l9.438,1.151c0,0-0.911,3.453-0.646,7.988C122.451,98.04,115,103.903,105.496,90.835z"/>
							<g>
								<g>
									<g>
										<g>
											<path fill="#E9AD79" d="M106.084,90.407c-0.094,0.031-0.256,0.171-0.173,0.212l0.327-0.167L106.084,90.407z"/>
											<path fill="#E9AD79" d="M105.877,91.253c0.199-0.026,0.512-0.122,0.74-0.373c-0.335,0.133-0.232,0.027-0.626,0.191
												c-0.083-0.042,0.007-0.186,0.122-0.253c-0.092,0.032-0.012-0.15-0.222-0.051c-0.162,0.252-0.087,0.371,0.183,0.347
												C106.028,91.186,105.935,91.219,105.877,91.253z"/>
											<path fill="#E9AD79" d="M111.313,97.457l-0.021-0.066C111.291,97.419,111.299,97.44,111.313,97.457z"/>
											<path fill="#E9AD79" d="M116.214,99.522c-0.043,0.005-0.064,0.039-0.069,0.072
												C116.187,99.573,116.221,99.554,116.214,99.522z"/>
											<path fill="#E9AD79" d="M117.166,99.956c-0.022-0.009-0.039-0.017-0.059-0.024
												C117.129,99.965,117.152,99.983,117.166,99.956z"/>
											<path fill="#E9AD79" d="M111.313,97.457l0.055,0.172C111.441,97.536,111.356,97.517,111.313,97.457z"/>
											<path fill="#E9AD79" d="M107.248,91.599c-0.031-0.01-0.072-0.007-0.12,0.004c0.027,0.008,0.051,0.017,0.072,0.028
												L107.248,91.599z"/>
											<path fill="#E9AD79" d="M109.294,96.284l-0.033-0.027c-0.035,0.024-0.077,0.054-0.124,0.087L109.294,96.284z"/>
											<path fill="#E9AD79" d="M107.962,95.106c0.019,0.038,0.247-0.168,0.353-0.252c-0.105,0.073-0.169,0.095-0.211,0.087
												C108.062,94.981,108.016,95.035,107.962,95.106z"/>
											<path fill="#E9AD79" d="M106.517,92.679l-0.063-0.011C106.472,92.67,106.495,92.675,106.517,92.679z"/>
											<path fill="#E9AD79" d="M110.249,97.143c-0.025,0.039-0.044,0.075-0.053,0.098
												C110.219,97.21,110.236,97.177,110.249,97.143z"/>
											<path fill="#E9AD79" d="M106.778,88.697c-0.022,0.002-0.036,0.004-0.054,0.006
												C106.755,88.71,106.777,88.71,106.778,88.697z"/>
											<polygon fill="#E9AD79" points="105.417,90.839 105.399,90.812 105.227,90.814 											"/>
											<path fill="#E9AD79" d="M119.058,100.109l-0.01-0.003C119.008,100.15,119.034,100.139,119.058,100.109z"/>
											<path fill="#E9AD79" d="M126.229,86.94c-0.335,0.283-0.289-0.352-0.68,0.059C125.685,86.93,125.979,87.293,126.229,86.94
												z"/>
											<path fill="#E9AD79" d="M107.244,91.658c0.017,0.015,0.033,0.032,0.045,0.051
												C107.277,91.679,107.263,91.664,107.244,91.658z"/>
											<path fill="#E9AD79" d="M125.549,86.999l-0.003,0l-0.037,0.038C125.526,87.021,125.536,87.012,125.549,86.999z"/>
											<path fill="#E9AD79" d="M122.768,98.046c-0.041-0.037-0.08-0.059-0.118-0.078
												C122.671,97.992,122.703,98.016,122.768,98.046z"/>
											<path fill="#E9AD79" d="M119.906,99.201l0.085,0.011C119.953,99.196,119.927,99.196,119.906,99.201z"/>
											<path fill="#E9AD79" d="M123.616,96.656c0.044-0.013,0.085,0.005,0.091-0.063c-0.015-0.007-0.026-0.01-0.039-0.013
												C123.686,96.624,123.684,96.657,123.616,96.656z"/>
											<path fill="#E9AD79" d="M124.607,95.404c-0.025-0.004-0.045-0.007-0.068-0.011l-0.015,0.051L124.607,95.404z"/>
											<path fill="#E9AD79" d="M106.733,86.88c-0.046-0.085-0.094-0.173-0.141-0.26
												C106.692,86.827,106.673,86.908,106.733,86.88z"/>
											<path fill="#E9AD79" d="M107.113,91.708c0.066-0.042,0.104-0.056,0.13-0.049c-0.013-0.011-0.028-0.019-0.043-0.027
												C107.163,91.657,107.128,91.683,107.113,91.708z"/>
											<path fill="#E9AD79" d="M121.866,94.977l0.166-0.118C121.973,94.881,121.913,94.924,121.866,94.977z"/>
											<path fill="#E9AD79" d="M116.5,85.947l-0.058,0.03C116.462,85.986,116.482,85.98,116.5,85.947z"/>
											<path fill="#E9AD79" d="M122.365,94.374c0.108,0.037,0.182,0.045,0.238,0.037c-0.014-0.021-0.025-0.04-0.05-0.065
												L122.365,94.374z"/>
											<path fill="#E9AD79" d="M106.59,86.617l0.002,0.003L106.59,86.617z"/>
											<path fill="#E9AD79" d="M106.899,87.316c-0.252-0.176-0.492-0.343-0.738-0.514c-0.007-0.008-0.013-0.015-0.016-0.019
												c-0.035-0.097,0.392,0.26,0.619,0.423c-0.115-0.093-0.433-0.425-0.367-0.417c0.061,0.059,0.088,0.08,0.152,0.155
												c-0.123-0.155-0.063-0.157-0.028-0.179c0.036-0.02,0.054-0.055,0.012-0.242c0.023,0.033,0.042,0.064,0.057,0.093
												c-0.104-0.19-0.208-0.384-0.27-0.523c0.063-0.015,0.045-0.264,0.166-0.013c-0.047-0.001-0.012,0.102,0.002,0.183
												l0.027-0.119c0.183,0.359-0.044,0.138,0.072,0.406c0.04-0.129,0.094-0.454,0.28-0.37
												c0.052,0.181-0.071,0.229-0.086,0.257c-0.033,0.031-0.043,0.053,0.029,0.21c0.006,0-0.131-0.126-0.137-0.125
												c0.234,0.56-0.055-0.034,0.18,0.567c0.055,0.047-0.012,0.008,0.087-0.053c0.082-0.058,0.164-0.117,0.328-0.083
												c0.044-0.214-0.063-0.299-0.02-0.514c0.398-0.426,0.474,0.88,0.737,0.346c0.053-0.257,0.024-0.727,0.291-0.511
												l-0.025,0.427c0.311,0.001,0.096-0.621,0.452-0.383c-0.035,0.171-0.222,0.169-0.169,0.213
												c0.25,0.302,0.115-0.255,0.274-0.276l0.082,0.364c0.317-0.101,0.64-0.414,0.991-0.528
												c-0.005,0.112-0.052,0.235,0.047,0.337c0.429-0.244,0.974-0.083,1.44,0.079l0.125-0.34
												c0.039-0.001,0.091,0.134,0.057,0.202c0.187,0.098-0.018-0.203,0.048-0.339c0.094-0.035,0.152,0.166,0.104,0.27
												c0.265-0.309,0.781-0.694,1.143-0.395l-0.049,0.103c0.264,0.097,0.193-0.689,0.46-0.422l-0.036,0.062
												c0.202,0.024,0.404-0.009,0.602-0.041c0.099-0.016,0.197-0.031,0.293-0.039c0.103-0.008,0.198-0.008,0.219,0.017
												c0.025,0.041,0.211,0.115,0.306,0.246c0.078-0.462,0.535,0.206,0.569-0.438c0.133,0.138,0.192,0.237,0.253,0.324
												c0.044,0.086,0.178,0.159,0.178,0.242c0.01,0.028-0.003,0.055,0.033,0.089c0.111,0.044,0.224-0.377,0.375-0.425
												l-0.041,0.334l0.239-0.325l0.05,0.414l0.145-0.068c-0.05-0.027-0.093-0.165-0.073-0.26c0.229-0.124,0.478,0.3,0.46,0.472
												l0.53-0.218c-0.029,0.133-0.117,0.168-0.194,0.246c0.308-0.306,0.001,0.358,0.284,0.078
												c-0.022-0.081,0.044-0.197,0.058-0.264c0.094,0.218,0.367,0.255,0.581,0.197l-0.069,0.225
												c0.358,0.107,0.786-0.009,1.195,0.049c-0.133-0.127-0.046-0.521,0.079-0.544l0.002,0.359
												c0.106-0.208-0.108-0.149,0.086-0.396c0.148,0.061,0.05,0.415-0.053,0.518l0.203-0.098
												c-0.003,0.107-0.054,0.157-0.083,0.29c0.105-0.209,0.275,0.397,0.436,0.03l-0.003,0.106
												c0.41,0.057,0.612-0.04,0.949-0.014c0.046-0.304,0.168-0.219,0.3-0.453c0.233,0.129,0.474,0.405,0.773,0.418
												c0.228-0.125,0.095-0.25,0.212-0.419c-0.021,0.28,0.278,0.293,0.099,0.472c0.361,0.001,0.461,0.004,0.94-0.163
												c-0.034-0.12-0.083-0.176-0.042-0.268c0.107-0.033,0.123,0.135,0.092,0.266l-0.014,0.027
												c0.161-0.203,0.271,0.056,0.21,0.239c-0.029,0.167-0.162,0.279,0.171,0.046l-0.036,0.024
												c0.092-0.055,0.233-0.132,0.235-0.103l0.174-0.083c-0.072,0.106-0.236,0.124-0.448,0.3
												c0.382-0.162,0.12,0.082,0.114,0.125c-0.004,0.024,0.018,0.04,0.094,0.06c-0.167,0.042-0.267,0.068-0.368,0.093
												c-0.047,0.037-0.021-0.027-0.025,0.172c0.009,0.289,0.059,0.591-0.228,0.762l0.196,0c0.177,0.128-0.126,0.113-0.18,0.186
												c0.151,0.007,0.188-0.093,0.285-0.016c0.128,0.906-0.461,1.801-0.665,2.729c-0.062,0.339,1.001,0.215,0.529,0.626
												l-0.359-0.125c0.212,0.343,0.208,0.686,0.203,1.031c-0.007,0.316-0.008,0.795,0.176,0.782
												c-0.084-0.022-0.193-0.033-0.192-0.044c-0.256-0.008-0.017,0.062,0.174,0.16c-0.037,0.017-0.187-0.062-0.294-0.093
												c-0.075-0.023-0.002,0.016,0.05,0.068c0.033,0.083,0.051,0.169-0.077,0.126c-0.042-0.013-0.056-0.071-0.064-0.099
												c0.073,0.128-0.206,0.272,0.087,0.375c-0.229,0.092-0.108,0.404-0.351,0.434c0.208,0.292-0.341,0.18,0.011,0.504
												c-0.376-0.317-0.534,0.022-0.453,0.276c-0.082-0.132-0.19-0.02-0.309-0.197c-0.093,0.11-0.119,0.271,0.081,0.429
												c-0.601-0.228-0.079,0.737-0.702,0.276c-0.151,0.481-0.381,0.879-0.668,1.192c-0.249-0.421,0.348-0.287,0.037-0.705
												c-0.176,0.369-0.154,0.854-0.55,0.93c-0.117-0.015-0.05-0.215-0.062-0.304c-0.237,0.357-0.65,0.267-0.864,0.627
												c-0.014-0.044,0.003-0.103,0.021-0.149c-0.056,0.036-0.164-0.02-0.085,0.19l0.041-0.078
												c0.215,0.271-0.037,0.732-0.008,0.899c-0.075-0.647-0.384-0.057-0.426-0.888c-0.029,0.051-0.054,0.167-0.006,0.31
												c-0.075-0.026-0.114-0.106-0.096-0.288c-0.191,0.177-0.06,0.386-0.273,0.429c-0.021-0.107,0.013-0.157,0.008-0.287
												c-0.058,0.231-0.134,0.458-0.333,0.398c0.001-0.066-0.032-0.146,0.021-0.154c-0.292,0.076-0.486,0.628-0.863,0.435
												c0.095-0.472-0.125-0.155-0.142-0.563l-0.183,0.12l0.07,0.201c-0.161-0.013-0.328,0.28-0.465,0.132l0.136-0.157
												l-0.316,0.049l0.163,0.17c-0.193,0.194-0.028,0.52-0.253,0.38c0.054-0.035-0.181-0.028-0.235-0.278l0.001-0.001
												c-0.104,0.114-0.219,0.233-0.332,0.112c-0.008-0.134,0.11-0.439,0.105-0.528c-0.146,0.318-0.405,0.014-0.596,0.335
												c0.056-0.074,0.11-0.281,0.109-0.326l-0.138,0.251c-0.056-0.106-0.056-0.15,0.001-0.312
												c-0.216-0.113-0.065,0.522-0.282,0.226c0.028-0.015,0.03-0.058,0.086-0.085c-0.239-0.191-0.591-0.001-0.796-0.23
												c0.078-0.411,0.251-0.01,0.291-0.367c-0.365-0.054-0.914,0.154-1.21-0.104l0.042,0.073
												c-0.311,0.491-0.119-0.383-0.411-0.232c0.062-0.015,0.208-0.252,0.166-0.202c-0.175-0.205-0.519-0.129-0.952-0.19
												l0.122-0.099c-0.054-0.197-0.293-0.281-0.387-0.434c-0.125,0.094-0.189,0.019-0.267,0.229
												c0.09-0.973-1.069-0.228-0.979-1.077c0.043,0.034,0.182-0.017,0.149-0.044l-0.382-0.145
												c-0.143,0.211-0.062,0.148-0.127,0.351c-0.135,0.082-0.298,0.097-0.371,0.03c0.244-0.006,0.266-0.307,0.304-0.462
												c-0.042,0.066-0.118,0.113-0.166,0.176c0.147-0.472-0.365,0.355-0.374-0.059l0.101-0.088
												c-0.124-0.02-0.313,0.04-0.372-0.067c0.167-0.245,0.176-0.022,0.345-0.193c-0.125-0.096-0.612,0.186-0.514-0.126
												c0.104-0.01,0.178,0.055,0.282,0.043c0.124-0.355,0.05-0.303,0.006-0.424l0.003,0.014l-0.08-0.298l-0.018,0.114
												c-0.681,0.4-0.383-0.186-0.928-0.035c0.523-0.137,0.227-0.158,0.48-0.372c0.02-0.113,0.023-0.258,0.111-0.301
												c-0.282,0.094,0.012-0.293-0.394-0.158c0.073-0.078-0.083-0.105,0.134-0.266c-0.171-0.062-0.111,0.153-0.219,0.234
												c-0.445,0.058-0.062-0.732-0.677-0.676c-0.358-0.107-0.672,0.079-1.001-0.036c0.069-0.186,0.352-0.184,0.352-0.184
												c0.019-0.223-0.077-0.299-0.267-0.34c0.092-0.035,0.134-0.108,0.198-0.219c-0.097-0.076-0.354,0.179-0.331-0.043
												c0.111-0.052,0.282-0.143,0.411-0.172c-0.166-0.048-0.407-0.037-0.573-0.095c0.123-0.145,0.277-0.102,0.404-0.136
												c-0.166-0.079-0.394-0.234-0.659-0.097l-0.018,0.148c-0.048-0.04,0.182-0.178,0.251-0.175
												c0.27-0.029,0.044,0.224-0.036,0.296l-0.118-0.042c-0.428,0.469,0.338,0.277,0.442,0.461l-0.412,0.214l0.432-0.065
												c-0.063,0.11-0.241,0.295-0.36,0.255c-0.078,0.262,0.211,0.004,0.1,0.266c-0.021,0.036-0.042,0.045-0.064,0.046
												l0.2,0.031c-0.093,0.038-0.231,0.224-0.241,0.11c-0.026,0.378,0.544,0.118,0.346,0.418l-0.036,0
												c0.36,0.189,0.278-0.187,0.758-0.23l-0.497,0.684l0.276-0.192c0.016,0.037,0.048,0.112-0.061,0.189
												c0.267-0.042,0.092-0.115,0.309-0.195c-0.104,0.344,0.45,0.283,0.086,0.675c0.232-0.123,0.023-0.265,0.288-0.238
												c-0.381,0.432,0.227,0.103,0.154,0.405c-0.25,0.166-0.25-0.061-0.322,0.246c0.433-0.27,0.154,0.319,0.326,0.358
												c0.288-0.274,0.343,0.107,0.609,0.185c-0.104,0.084,0.181,0.475,0.256,0.736l-0.05,0.045
												c0.304-0.267,0.428-0.055,0.61-0.003c-0.163,0.177-0.249,0.228-0.39,0.245l0.124,0.108
												c0.114-0.072,0.197-0.091,0.307-0.058l-0.227,0.202c0.179,0.131,0.56,0.013,0.653,0.341
												c0.184-0.211,0.319-0.743,0.657-0.713c-0.086,0.125-0.238,0.336-0.335,0.337c0.032,0,0.147-0.043,0.146,0.038
												l-0.248,0.128c0.029,0.167,0.183-0.126,0.246-0.045c-0.135,0.17-0.035,0.167-0.152,0.294
												c-0.034,0.001-0.015-0.125-0.097-0.082c0.064,0.103,0.099,0.285,0.038,0.444c0.066-0.104,0.175-0.231,0.259-0.204
												c0.183,0.118-0.096,0.253-0.059,0.42c0.132-0.089,0.157,0.118,0.347-0.143c0.051,0.038-0.026,0.168-0.056,0.254
												c0.173-0.048,0.464,0.267,0.548-0.09l-0.011-0.035c0.008-0.001,0.014-0.001,0.023-0.002l0,0l0,0
												c0.475-0.067,0.543,0.566,0.938,0.628l-0.053,0.094c0.25,0,0.468,0.167,0.709,0.029c0.057,0.027,0.051,0.243-0.03,0.347
												c0.189,0,0.251-0.1,0.404,0.159c-0.233,0.104-0.013,0.176-0.218,0.056c0.166,0.172,0.148,0.358,0.483,0.174
												c-0.182,0.226,0.032,0.386,0.163,0.348l-0.078-0.242c0.126,0.006,0.214,0.067,0.309,0.123l-0.178,0.323
												c0.328,0.589,1.021-0.464,1.183,0.337c0.179-0.219-0.209-0.235-0.029-0.499c0.188,0.099,0.307,0.653,0.379,0.67
												c0.274,0.25,0.369-0.471,0.653-0.297c-0.024-0.133-0.011-0.481,0.217-0.576c0.194,0.065,0.209,0.564,0.062,0.656
												c-0.053,0.007-0.074-0.037-0.068-0.08c-0.074,0.042-0.173,0.083-0.102,0.234l0.042-0.125
												c0.095,0.142,0.403,0.153,0.317,0.359c0.18-0.115,0.084-0.206-0.034-0.284c0.274,0.206,0.443,0.03,0.738,0.153
												c-0.048-0.071-0.091-0.224-0.046-0.223c0.431,0.152,0.181-0.251,0.456-0.318c0.173,0.184-0.024,0.476,0.251,0.286
												c0.191,0.118,0.074,0.339,0.007,0.452c0.249-0.273,0.537,0.104,0.711,0.12l-0.133,0.129
												c0.081-0.077,0.153-0.087,0.228-0.1l-0.129-0.241c0.093,0.03,0.166,0.018,0.185,0.125
												c0.054-0.183-0.144-0.411-0.023-0.672c0.135,0.106,0.29-0.207,0.408,0.116c-0.369-0.033,0.121,0.33-0.166,0.45
												c0.049-0.053,0.121-0.065,0.216-0.042c0.021,0.034,0.005,0.072-0.014,0.097c0.419,0.208,0.064-0.412,0.4-0.504
												c0.012,0.199,0.187,0.329,0.232,0.271c-0.143,0.039-0.16-0.289-0.086-0.469c0.258,0.07,0.191-0.183,0.302-0.207
												l-0.146-0.023c-0.023-0.196,0.083-0.209,0.198-0.32c0.067,0.136-0.087,0.146-0.014,0.188
												c0.024-0.374,0.486,0.186,0.61-0.126c0.155,0.072,0.165,0.326,0.293,0.363c0.131-0.345,0.391,0.104,0.548-0.221
												c-0.201-0.186-0.177-0.126-0.133-0.443L120.946,99l0.08-0.472c-0.118,0.062-0.176,0.278-0.269,0.277
												c0.026-0.253,0.041-0.188-0.113-0.352c0.345,0.264,0.204-0.366,0.51-0.239l0.324,0.559
												c0.443,0.069,0.323-0.59,0.751-0.703l-0.176-0.011c-0.104-0.239,0.186-0.182,0.229-0.346
												c0.123,0.178,0.238,0.187,0.368,0.254c-0.105-0.118,0.254-0.189,0-0.542l0.328,0.091
												c0.335-0.146-0.135-0.709,0.132-0.874c0.1,0.232,0.312,0.236,0.277,0.509c0.079-0.076,0.176-0.119,0.07-0.224
												c0.144,0.048-0.006-0.416,0.21-0.349c-0.04-0.098-0.199-0.259-0.108-0.334c0.042,0.019,0.08,0.07,0.08,0.07
												c-0.079-0.07,0.01-0.233-0.237-0.312c0.731,0.19,0.512-0.713,1.136-0.61c0.074-0.233,0.162-0.506,0.254-0.695
												c0.049,0.044,0.093,0.055,0.053,0.078c0.331-0.173-0.442-0.47-0.078-0.679c0.428-0.071,0.083,0.251,0.266,0.183
												c0.348,0.103,0.395-0.045,0.412-0.213c-0.02-0.182-0.163-0.382,0.049-0.527l0.045,0.081
												c0.117-0.096,0.039-0.332-0.054-0.398c-0.095-0.102-0.215-0.216-0.192-0.342c0,0,0.063,0.011,0.107-0.001
												c-0.367-0.161-0.492-0.489-0.593-0.735c0.278,0.076,0.148,0.11,0.43,0.064c-0.041-0.109-0.455,0.034-0.532-0.187
												c0.152-0.071,0.286-0.228,0.588-0.244l0.015,0.204c0.39-0.101-0.012-0.263,0.059-0.37l0.17,0.017
												c-0.05-0.31-0.478-0.328-0.435-0.666l-0.13,0.03c-0.417-0.205,0.246-0.145-0.062-0.345l0.434-0.033
												c-0.098-0.125-0.392-0.45-0.457-0.677c0.311,0.149,0.456,0.414,0.638,0.581c0.009-0.119-0.006-0.406-0.214-0.484
												c0.038,0.051,0.14,0.119,0.07,0.162c-0.329-0.169-0.48-0.379-0.453-0.621c0.829,0.116,0.268-0.608,0.937-0.708
												c-0.13-0.225-0.071-0.429,0.022-0.633c0.1-0.233,0.208-0.318,0.269-0.832c-0.706,0.267,0.023-0.244-0.667-0.17
												c-0.017-0.153,0.006-0.21,0.054-0.231c0.132-0.139,0.271-0.296,0.303-0.438l0.168-0.156
												c0.117-0.125,0.172-0.017,0.27,0.034c0.015,0.022,0.039,0.034,0.082,0.019c0.007-0.019,0.014-0.036,0.018-0.046
												c-0.093-0.321,0.231-0.218,0.249-0.502c-0.196,0.135-0.38,0.006-0.39-0.187c0,0-0.032,0.088-0.065,0.176
												c-0.038,0.091-0.076,0.181-0.076,0.181c-0.246-0.145-0.14-0.271-0.082-0.41c0.071-0.135,0.102-0.271-0.075-0.355
												l0.175,0.015c-0.029-0.019-0.058-0.049-0.086-0.085c-0.182-0.185-0.48-0.621-0.883-0.38
												c0.02-0.084,0.101-0.277,0.198-0.239c-0.053-0.082-0.122-0.151-0.202-0.207c-0.756,0-1.645,0.289-1.857-0.016
												l0.055-0.158c-0.089,0.036-0.184,0.286-0.266,0.109c0.014-0.066,0.055-0.157,0.018-0.172
												c-0.051,0.05-0.256,0.255-0.354,0.146l0.117-0.17c-0.404-0.269-0.721,0.357-1.098,0.421
												c0.064-0.477-0.255-0.677-0.415-0.776l0.015-0.067c-0.495-0.125-0.906,0.283-1.396,0.41
												c-0.221-0.556-0.951-0.346-1.377-0.697c0.06,0.096-0.061,0.371-0.149,0.408c-0.096-0.111-0.345,0.292-0.27-0.144
												l0.038,0.014c-0.025-0.44-0.265-0.355-0.438-0.39l-0.104,0.569c-0.348-0.893-1.239,0.148-1.391-0.63
												c-0.143,0.127-0.227,0.114-0.457,0.229l0.033-0.308c-0.012-0.004-0.024-0.007-0.032-0.01
												c-0.313-0.038-0.323-0.065-0.476-0.075c-0.123-0.009-0.255,0-0.441,0.036l0.078-0.221
												c-0.215-0.021-0.271,0.893-0.47,0.911l-0.06-0.462c-0.044,0.001-0.16-0.009-0.265-0.024l-0.201-0.009l-0.123-0.025
												c-0.082-0.017-0.163-0.031-0.243-0.032c-0.159-0.002-0.31,0.049-0.441,0.243c-0.003-0.068-0.009-0.202,0.048-0.229
												c-0.177,0.011-0.718-0.221-0.572,0.399c-0.058-0.409-0.389,0.011-0.566,0.218l-0.009-0.306
												c-0.119,0.408-0.11,0.514-0.333,0.652c-0.062-0.032-0.081-0.235,0.004-0.168c-0.208-0.134-0.108,0.305-0.356,0.174
												l0.06-0.204c-0.196,0.002-0.167,0.104-0.243,0.342c-0.105,0.137-0.375-0.028-0.439-0.298
												c-0.004,0.17-0.08,0.407-0.204,0.343c-0.029-0.101,0.004-0.17,0.021-0.205c-0.349-0.164-0.433,0.414-0.693,0.146
												c-0.018-0.1-0.039-0.147-0.061-0.175c0.256-0.026,0.465-0.037,0.448-0.012c-0.037-0.279-0.25-0.301-0.136-0.707
												c-0.138,0.232-0.362,0.726-0.58,0.621c-0.013-0.026-0.026-0.051-0.04-0.093l0.017-0.034
												c-0.05-0.021-0.088,0.01-0.122,0.062c-0.07-0.037-0.115-0.066-0.178-0.062c-0.054-0.227-0.253-0.093-0.357-0.09
												c0.048,0.303-0.093,0.272,0.066,0.507c-0.019-0.02,0.015-0.039,0.082-0.061c0.015-0.011,0.032-0.018,0.04-0.038
												l-0.003,0.028c0.067-0.014,0.154-0.033,0.253-0.054c-0.061,0.166-0.129,0.307-0.265,0.153
												c-0.031,0.202-0.063,0.411-0.079,0.511c-0.196-0.407-0.499-0.601-0.57-0.858c-0.292,0.212-0.726,0.21-0.849,0.809
												c-0.08,0.085-0.124-0.15-0.169-0.236c0.044-0.064,0.106-0.064,0.124-0.15c-0.159,0.17-0.522,0.127-0.512,0.533
												c-0.249-0.151,0.079-0.385-0.223-0.279l0.026-0.128c-0.195-0.21-0.562-0.09-0.792,0.087
												c-0.239,0.179-0.373,0.42-0.581,0.514c-0.108,0.112-0.292,0.119-0.596,0.072c0.072,0.007,0.108,0.012,0.158,0.053
												c-0.205,0.033-0.437,0.101-0.536,0.229c-0.022,0.292,0.002,0.659-0.042,1.039c0.095,0.375,0.113,0.73-0.036,1.125
												c-0.083,0.226,0.174,0.21,0.387,0.312l-0.321,0.091l0.407,0.169c0.318,0.286-0.738,0.636-0.174,0.974l0.216-0.073
												c-0.027,0.147,0.173,0.444-0.084,0.441c0.042,0.011,0.234,0.028,0.124,0.094l-0.172,0.018l0.321,0.331
												c-0.107,0.282-0.686,0.004-0.696,0.399c0.075,0.14,0.523,0.393,0.636,0.333c0.006-0.06,0.1-0.158,0.273-0.172
												l0.097,0.133c0.51,0,1.036,0.092,1.375-0.279l-0.325-0.228l0.242-0.094l0.028,0.206c0.225-0.131,0.016-0.194-0.131-0.268
												c0.13-0.028,0.219-0.068,0.265-0.121l-0.502-0.206c0.197-0.044,0.402,0.079,0.5-0.092
												c-0.234-0.095-0.438,0.142-0.599-0.032c0.221-0.135,0.412-0.117,0.203-0.238c0.129-0.03,0.215-0.009,0.277,0.042
												c-0.167-0.109-0.096-0.32-0.371-0.356c0.273-0.15-0.116-0.403,0.364-0.443c-0.119-0.026-0.401-0.173-0.434-0.282
												c0.599,0.135-0.019-0.423,0.6-0.45c-0.267-0.043-0.343-0.172-0.394-0.32c-0.025-0.074-0.044-0.153-0.078-0.227
												c-0.027-0.037-0.064-0.04-0.142-0.065c0.042,0.004,0.128,0.008,0.102,0.016c0.036-0.049,0.193-0.057,0.291-0.062
												c-0.439-0.03-0.555-0.129-0.85-0.277c0.021,0.001,0.041,0.002,0.061,0.007c0.179,0.018,0.304,0.074,0.426,0.119
												c0.133,0.052,0.263,0.09,0.47,0.136c-0.118-0.028-0.199-0.051-0.266-0.079c-0.14-0.055-0.217-0.128-0.427-0.192
												c0.268,0.054,0.125,0.002,0.513,0.159c-0.595-0.282-0.105-0.071-0.484-0.306c0.285,0.102,0.571,0.329,0.371,0.159
												C106.692,87.176,106.899,87.316,106.899,87.316z M109.869,85.988l0,0.006c-0.043,0.013-0.08,0.024-0.104,0.031
												C109.787,86.018,109.817,86.007,109.869,85.988z M110.301,85.927c-0.054-0.005-0.12,0.001-0.189,0.013
												c-0.029-0.104-0.027-0.214,0.018-0.214C110.115,85.799,110.225,85.846,110.301,85.927z M109.108,83.935
												c0.062-0.052,0.094,0.004,0.111,0.066c-0.032,0.009-0.068,0.025-0.115,0.052l-0.003,0.038
												C109.1,84.032,109.101,83.977,109.108,83.935z"/>
											<path fill="#E9AD79" d="M109.038,84.351c-0.009,0.008-0.013,0.021-0.025,0.026c0.019,0.023,0.036,0.044,0.05,0.063
												l0.012-0.099L109.038,84.351z"/>
											<path fill="#E9AD79" d="M111.288,97.38l0.004,0.011c0-0.014,0-0.028,0.007-0.047
												C111.294,97.359,111.292,97.368,111.288,97.38z"/>
											<polygon fill="#E9AD79" points="115.999,86.034 116.008,85.957 115.961,86.019 											"/>
											<path fill="#E9AD79" d="M110.043,95.078c0.015-0.023,0.027-0.05,0.029-0.079
												C110.06,95.015,110.051,95.045,110.043,95.078z"/>
											<path fill="#E9AD79" d="M109.352,94.341l-0.024-0.178C109.328,94.25,109.339,94.303,109.352,94.341z"/>
											<path fill="#E9AD79" d="M108.917,93.683c-0.046,0.03-0.077,0.056-0.106,0.081l0,0.002L108.917,93.683z"/>
											<path fill="#E9AD79" d="M119.143,97.29c0.008-0.004,0.015-0.011,0.02-0.022C119.198,97.19,119.168,97.228,119.143,97.29z
												"/>
											<path fill="#E9AD79" d="M115.897,98.309c0.045-0.049,0.09-0.1,0.133-0.129C115.972,98.148,115.925,98.137,115.897,98.309
												z"/>
											<polygon fill="#E9AD79" points="121.848,94.989 121.852,94.993 121.866,94.977 											"/>
											<path fill="#E9AD79" d="M116.19,98.205c-0.055-0.068-0.106-0.062-0.16-0.026
												C116.078,98.206,116.134,98.245,116.19,98.205z"/>
											<path fill="#E9AD79" d="M106.843,91.036l-0.012-0.037c-0.016,0.013-0.03,0.021-0.042,0.026L106.843,91.036z"/>
											<path fill="#E9AD79" d="M106.789,91.025l-0.055-0.011C106.746,91.029,106.758,91.041,106.789,91.025z"/>
											<path fill="#E9AD79" d="M106.619,90.991l0.115,0.022C106.717,90.989,106.701,90.954,106.619,90.991z"/>
											<path fill="#E9AD79" d="M107.37,91.933l0.094-0.061C107.442,91.881,107.412,91.901,107.37,91.933z"/>
											<path fill="#E9AD79" d="M107.594,92.154c-0.029-0.074,0.063-0.293-0.056-0.331l-0.075,0.048
												C107.622,91.805,107.403,92.219,107.594,92.154z"/>
											<path fill="#E9AD79" d="M107.428,94.064l-0.118-0.262c-0.057,0.115-0.134,0.269-0.238,0.194
												C107.04,94.491,107.221,93.767,107.428,94.064z"/>
											<path fill="#E9AD79" d="M107.885,94.805c-0.143-0.069-0.123,0.121-0.177,0.163
												C107.853,94.96,107.887,94.958,107.885,94.805z"/>
											<path fill="#E9AD79" d="M112.874,98.567l-0.134,0.246C112.866,98.828,112.787,98.715,112.874,98.567z"/>
											<polygon fill="#E9AD79" points="114.483,97.667 114.447,97.47 114.315,97.696 											"/>
											<polygon fill="#E9AD79" points="114.569,99.776 114.505,99.801 114.736,99.755 											"/>
											<path fill="#E9AD79" d="M124.665,95.796l-0.301-0.172C124.366,95.727,124.667,95.971,124.665,95.796z"/>
											<path fill="#E9AD79" d="M125.296,91.008c0.174-0.04,0.29-0.153,0.125-0.234
												C125.393,90.868,125.254,90.958,125.296,91.008z"/>
											<polygon fill="#E9AD79" points="117.508,83.445 117.61,83.342 117.434,83.416 											"/>
										</g>
									</g>
								</g>
							</g>
						</g>
					</g>
					<path fill="#FCCAA0" d="M139.565,47.351c0.144,0.422,3.352,28.635-7.217,39.304c-10.568,10.668-28.847,4.354-33.301-6.581
						c-3.843-9.437-6.115-26.773,2.891-38.086C110.155,31.667,132.188,25.715,139.565,47.351z"/>
					<g>
						<g>
							<path fill="#AA6930" d="M124.354,54.609c-0.315,3.485-0.631,6.971-0.947,10.456c-0.162,1.782-0.323,3.563-0.484,5.345
								c-0.072,0.798,0.309,0.125-0.234,0.231c-0.876,0.171-1.751,0.342-2.627,0.513c-0.519,0.102-0.299,0.892,0.218,0.791
								c1.038-0.203,2.076-0.406,3.114-0.608c0.189-0.037,0.286-0.223,0.301-0.396c0.493-5.444,0.986-10.888,1.479-16.332
								C125.222,54.082,124.401,54.086,124.354,54.609L124.354,54.609z"/>
						</g>
					</g>
					
						<ellipse transform="matrix(0.999 -0.0438 0.0438 0.999 -2.6839 4.9439)" fill="#412206" cx="111.52" cy="63.742" rx="1.255" ry="1.795"/>
					
						<ellipse transform="matrix(0.999 -0.0438 0.0438 0.999 -2.6927 5.712)" fill="#412206" cx="129.052" cy="64.328" rx="1.255" ry="1.795"/>
					<g>
						<g>
							<path fill="#AA6930" d="M91.778,67.401c2.034,0.135,3.443,1.845,2.939,3.883c-0.313,1.267-1.748,1.11-2.383,0.213
								c-0.417-0.587-0.279-1.188,0.419-1.396c0.646-0.193,1.332,0.108,1.75,0.595c0.346,0.401,0.923-0.181,0.58-0.58
								c-0.897-1.043-3.7-1.4-3.813,0.53c-0.089,1.521,1.622,2.809,3.052,2.272c1.8-0.676,1.549-3.489,0.624-4.747
								c-0.712-0.967-1.989-1.513-3.168-1.591C91.25,66.545,91.253,67.366,91.778,67.401L91.778,67.401z"/>
						</g>
					</g>
					<g>
						<g>
							<path fill="#AA6930" d="M143.053,67.963c-1.165,0.078-2.357,0.603-3.104,1.508c-1.033,1.25-1.218,3.972,0.461,4.789
								c1.429,0.695,3.05-0.646,3.159-2.079c0.063-0.827-0.713-1.371-1.427-1.521c-0.879-0.185-1.817,0.167-2.395,0.838
								c-0.343,0.398,0.234,0.981,0.58,0.58c0.725-0.842,3.049-0.881,2.245,0.677c-0.504,0.979-1.942,1.208-2.403,0.084
								c-0.84-2.045,0.906-3.924,2.884-4.056C143.578,68.749,143.581,67.928,143.053,67.963L143.053,67.963z"/>
						</g>
					</g>
					<g>
						<ellipse fill="#EF8267" cx="131.561" cy="74.188" rx="3.888" ry="3.141"/>
					</g>
					<g>
						<ellipse fill="#EF8267" cx="105.505" cy="72.321" rx="3.888" ry="3.141"/>
					</g>
					<path fill="#412206" d="M107.78,55.332c0.171,0.893,1.858,0.448,3.968,0.044c2.109-0.403,3.842-0.612,3.671-1.504
						c-0.171-0.892-2.019-1.289-4.128-0.886C109.182,53.389,107.61,54.439,107.78,55.332z"/>
					<path fill="#412206" d="M127.414,54.751c-0.175,0.892,1.557,1.108,3.664,1.521c2.108,0.413,3.793,0.865,3.968-0.027
						s-1.393-1.949-3.5-2.361S127.588,53.86,127.414,54.751z"/>
					<g>
						<defs>
							<path id="SVGID_23_" d="M140.058,113.342c-2.755-0.859-5.035-1.987-6.924-3.293c-5.461,7.115-24.731,12.998-36.941,0.446
								c-1.752,1.117-3.815,2.087-6.251,2.847c-20.473,6.381-25.126,12.762-26.721,38.02h51.048h1.462h51.048
								C165.184,126.104,160.531,119.723,140.058,113.342z"/>
						</defs>
						<clipPath id="SVGID_4_">
							<use xlink:href="#SVGID_23_"  overflow="visible"/>
						</clipPath>
						<path clip-path="url(#SVGID_4_)" fill="#C7514D" d="M140.058,113.342c-2.755-0.859-5.035-1.987-6.924-3.293
							c-5.461,7.115-24.731,12.998-36.941,0.446c-1.752,1.117-3.815,2.087-6.251,2.847c-20.473,6.381-25.126,12.762-26.721,38.02
							h51.048h1.462h51.048C165.184,126.104,160.531,119.723,140.058,113.342z"/>
						<path clip-path="url(#SVGID_4_)" fill="#A4312C" d="M151.944,134.667c-5.789,4.502-12.864,7.718-20.583,9.005
							c-23.3,5.519-45.43,1.095-65.835-9.36c-1.183,4.502-1.863,10.049-2.305,17.05h51.048h1.462h51.048
							c-0.755-11.948-2.197-19.668-5.67-25.167C158.288,129.205,155.117,131.982,151.944,134.667z"/>
						<path clip-path="url(#SVGID_4_)" fill="#FFFFFF" d="M61.455,115.062c0,0,36.414,19.09,106.032,0l1.949,2.26
							c0,0-65.902,21.004-108.872,0L61.455,115.062z"/>
						<path clip-path="url(#SVGID_4_)" fill="#FFFFFF" d="M61.455,129.593c0,0,36.414,19.091,106.032,0l1.949,2.26
							c0,0-65.902,21.004-108.872,0L61.455,129.593z"/>
						<path clip-path="url(#SVGID_4_)" fill="#FFFFFF" d="M61.455,144.125c0,0,36.414,19.09,106.032,0l1.949,2.26
							c0,0-65.902,21.003-108.872,0L61.455,144.125z"/>
					</g>
					<g>
						<g>
							<path fill="#AA6930" d="M112.684,74.229c2.859,5.258,11.925,5.944,14.309-0.098c0.194-0.493-0.599-0.704-0.791-0.218
								c-2.128,5.395-10.314,4.49-12.81-0.098C113.139,73.35,112.431,73.764,112.684,74.229L112.684,74.229z"/>
						</g>
					</g>
					<path fill="#5F3908" d="M101.938,41.988c0,0,5.904,2.031,0.321,7.615c0,0-6.754,3.055-6.014,12.03c0,0-3.671-1.985-7.172-0.047
						c0,0-1.929-7.642,1.949-11.257c0,0-1.728-5.45,3.589-7.71C99.929,40.359,101.938,41.988,101.938,41.988z"/>
					<path fill="#5F3908" d="M139.724,41.577c0,0-3.381-0.419-0.983,6.832c0,0,1.693,4.78,0.142,13.621c0,0,2.49-0.438,4.647,1.817
						c0,0,5.169-4.864,2.937-18.813C145.575,39.455,139.724,41.577,139.724,41.577z"/>
					<path fill="#5F3908" d="M103.701,49.118c-8.799,2.577-14.306,6.434-14.306,6.434s-5.116-30.592,25.21-32.352
						c33.501-1.944,31.792,25.185,31.792,25.185l-18.23-2.459l-3.182-4.953l-1.442,4.953l-4.306-8.647l-1.351,9.591
						c-3.455,0.084-6.703,0.506-9.679,1.123l-2.088-3.375L103.701,49.118z"/>
				</g>
				<g>
					<g>
						<g>
							<path fill="#E5E5E5" d="M96.256,63.572c0.321,5.961,4.563,10.204,10.524,10.525c5.949,0.32,10.23-5.047,10.525-10.525
								c0.32-5.949-5.047-10.23-10.525-10.525C100.832,52.727,96.551,58.094,96.256,63.572c-0.057,1.058,1.584,1.052,1.641,0
								c0.616-11.449,17.151-11.449,17.768,0c0.271,5.024-4.254,8.635-8.884,8.884c-5.024,0.271-8.634-4.254-8.884-8.884
								C97.84,62.52,96.199,62.514,96.256,63.572z"/>
						</g>
					</g>
					<g>
						<g>
							<path fill="#E5E5E5" d="M122.348,63.572c0.321,5.961,4.564,10.204,10.525,10.525c5.949,0.32,10.229-5.047,10.524-10.525
								c0.32-5.949-5.046-10.23-10.524-10.525C126.924,52.727,122.643,58.094,122.348,63.572c-0.057,1.058,1.584,1.052,1.641,0
								c0.617-11.449,17.152-11.449,17.768,0c0.271,5.024-4.253,8.635-8.884,8.884c-5.024,0.271-8.635-4.254-8.884-8.884
								C123.932,62.52,122.291,62.514,122.348,63.572z"/>
						</g>
					</g>
					<g>
						<g>
							<path fill="#E5E5E5" d="M117.065,64.152c1.61-1.594,3.858-1.393,5.525,0c0.806,0.673,1.973-0.481,1.16-1.16
								c-2.347-1.96-5.558-2.265-7.845,0C115.153,63.737,116.313,64.896,117.065,64.152L117.065,64.152z"/>
						</g>
					</g>
				</g>
			</g>
			<g>
				
					<rect x="52.576" y="141.841" transform="matrix(0.9997 -0.0244 0.0244 0.9997 -4.5372 2.9434)" fill="#197E85" width="131.183" height="90.56"/>
				
					<rect x="49.358" y="138.624" transform="matrix(0.9997 -0.0244 0.0244 0.9997 -4.4602 2.8643)" fill="#FFFFFF" width="131.183" height="90.558"/>
				<path fill="#FCCAA0" d="M179.682,154.832c0,0-22.7,7.167-0.598-4.181c0,0,5.676-1.792,4.779,2.688c0,0,2.987,0.797,1.395,3.187
					c0,0,2.787,1.594,0.397,3.783c0,0,3.983,1.195-0.995,3.983c-4.978,2.787-14.934,4.778-3.386-1.792c0,0-18.318,7.965-1.592-3.386
					C179.682,159.112,157.181,168.073,179.682,154.832z"/>
				<path fill="#FCCAA0" d="M48.296,160.337c0,0,23.612,3.01-1.212,4.045c0,0-5.903-0.752-3.211-4.443c0,0-2.378-1.976,0.07-3.478
					c0,0-1.862-2.614,1.225-3.601c0,0-3.115-2.754,2.574-3.197c5.688-0.444,15.562,1.923,2.322,3.045c0,0,19.971,0.452,0.026,3.742
					C50.09,156.45,74.274,157.749,48.296,160.337z"/>
			</g>
		</g>
	</g>
	<text transform="matrix(1 0 0 1 80.2661 169.2476)" font-family="'DFEr-W3-WINP-BF'" font-size="23.1556">邵慧根</text>
	<text transform="matrix(1 0 0 1 60.0161 212.4824)" font-family="'NotoSansCJKtc-Regular-B5pc-H'" font-size="9.0049">wayne020131@gmail.com</text>
	<g>
		<text transform="matrix(1 0 0 1 91.0303 191.7588)" font-family="'DFEr-W3-WINP-BF'" font-size="23.1556">Wayne</text>
	</g>
</g>
</svg>
