<?xml version="1.0" encoding="utf-8"?>
<!-- Generator: Adobe Illustrator 16.0.0, SVG Export Plug-In . SVG Version: 6.00 Build 0)  -->
<!DOCTYPE svg PUBLIC "-//W3C//DTD SVG 1.1//EN" "http://www.w3.org/Graphics/SVG/1.1/DTD/svg11.dtd">
<svg version="1.1" id="圖層_1" xmlns="http://www.w3.org/2000/svg" xmlns:xlink="http://www.w3.org/1999/xlink" x="0px" y="0px"
	 width="60px" height="60px" viewBox="0 0 60 60" enable-background="new 0 0 60 60" xml:space="preserve">
<g>
	<g>
		<path fill="#626262" d="M17.148,24.617l-0.21-0.003c-5.096-0.113-9.166-4.343-9.071-9.428c0.095-5.088,4.387-9.216,9.477-9.089
			c5.112,0.122,9.175,4.369,9.055,9.467C26.282,20.556,22.132,24.617,17.148,24.617z M17.121,9.042
			c-3.415,0-6.244,2.781-6.308,6.199c-0.064,3.467,2.713,6.35,6.191,6.427l0.144,0.002c3.397,0,6.225-2.77,6.304-6.175
			c0.082-3.474-2.69-6.368-6.179-6.452L17.121,9.042z"/>
	</g>
	<path fill="#626262" d="M33.706,35.744c-0.192-5.035-3.972-10.159-8.427-11.423c-0.616-0.174-1.273-0.3-1.628,0.233
		C22.652,26.053,19.679,27,17.286,27h-0.152c-2.392,0-5.366-0.947-6.364-2.446c-0.354-0.533-1.012-0.592-1.629-0.417
		C4.687,25.4,0.907,30.616,0.714,35.651c-0.056,1.475,0.033,15.475,0,16.833c-0.011,0.396,0.14,0.784,0.418,1.068
		C1.409,53.836,1.79,54,2.187,54h30.047c0.397,0,0.777-0.14,1.055-0.425c0.277-0.283,0.428-0.658,0.418-1.054
		C33.673,51.163,33.762,37.218,33.706,35.744z M30.743,50H3.678c0.002-1-0.072-13.288-0.019-14.69
		c0.131-3.448,2.525-7.125,5.413-8.445C11.054,28.888,14.526,30,17.134,30h0.152c2.609,0,6.081-0.839,8.062-2.862
		c2.887,1.32,5.281,4.552,5.413,8C30.815,36.54,30.74,49,30.743,50z"/>
	<g>
		<path fill="#626262" d="M42.729,24.617l-0.21-0.003c-5.096-0.113-9.165-4.343-9.071-9.428c0.095-5.088,4.387-9.216,9.477-9.089
			c5.113,0.122,9.175,4.369,9.055,9.467C51.863,20.556,47.712,24.617,42.729,24.617z M42.7,9.042c-3.414,0-6.243,2.781-6.307,6.199
			c-0.064,3.467,2.712,6.35,6.19,6.427l0.145,0.002c3.397,0,6.225-2.77,6.304-6.175c0.082-3.474-2.69-6.368-6.179-6.452L42.7,9.042z
			"/>
	</g>
	<path fill="#626262" d="M35.542,53.906h22.272c0.397,0,0.777-0.093,1.055-0.377c0.277-0.284,0.428-0.635,0.417-1.032
		c-0.033-1.358,0.056-15.278,0-16.753c-0.192-5.035-3.972-10.159-8.426-11.423c-0.617-0.174-1.274,0.108-1.629,0.641
		c-0.999,1.5-3.972,2.854-6.364,2.854h-0.153c-2.392,0-5.366-1.354-6.365-2.854c-0.354-0.533-1.012-0.795-1.628-0.621
		c-1.23,0.35-2.405,1-3.472,1.854c0.692,0.674,1.32,1.414,1.872,2.209c0.486-0.382,1-0.704,1.531-0.946
		c1.982,2.024,5.454,3.194,8.062,3.194h0.153c2.608,0,6.08-1.164,8.062-3.188c2.888,1.32,5.281,4.925,5.413,8.372
		c0.053,1.403-0.022,14.1-0.019,15.234H35.542V53.906z"/>
</g>
</svg>
