<?xml version="1.0" encoding="utf-8"?>
<!-- Generator: Adobe Illustrator 16.0.0, SVG Export Plug-In . SVG Version: 6.00 Build 0)  -->
<!DOCTYPE svg PUBLIC "-//W3C//DTD SVG 1.1//EN" "http://www.w3.org/Graphics/SVG/1.1/DTD/svg11.dtd">
<svg version="1.1" id="圖層_1" xmlns="http://www.w3.org/2000/svg" xmlns:xlink="http://www.w3.org/1999/xlink" x="0px" y="0px"
	 width="230px" height="240.88px" viewBox="0 0 230 240.88" enable-background="new 0 0 230 240.88" xml:space="preserve">
<g>
	<g>
		<circle fill="#24A4A3" cx="115" cy="115.237" r="110"/>
		<g>
			<g>
				<path fill="#5F3908" d="M109.572,22.013c0,0,24.924-6.593,28.755,25.258c0.647,4.742,0.48,5.881,1.315,10.601
					c1.45,8.19,16.991,18.438,1.125,26.854c-6.425,3.408-15.486,6.011-22.484,7.406c-9.879,1.968-24.741-0.122-33.796-5.637
					c-14.258-8.683-4.561-12.246-2.917-18.446c1.024-3.869,2.42-7.66,3.11-11.613c0.801-4.584-0.227-9.187-0.159-13.789
					C84.581,38.599,88.192,22.129,109.572,22.013z"/>
				<path fill="#3E230B" d="M101.207,38.897c-7.662,16.42-8.831,32.269-17.859,46.751c0.348,0.297,0.726,0.58,1.139,0.847
					c8.914,5.742,23.917,7.604,33.796,5.637c6.405-1.276,14.706-3.264,20.835-6.483c-2.404-14.111-7.198-27.608-15.399-40.319
					C119.217,37.611,106.353,28.606,101.207,38.897z"/>
				<path fill="#FCCAA0" d="M129.947,57.26c-2.64,4.178-3.013,10.912,0.41,13.075c3.423,2.164,9.346-1.062,11.986-5.239
					c2.641-4.177,2.006-9.318-1.417-11.482C137.504,51.451,132.588,53.083,129.947,57.26z"/>
				<path fill="#FCCAA0" d="M96.573,58.281c2.931,3.98,3.78,10.67,0.519,13.071c-3.261,2.401-9.397-0.396-12.328-4.376
					c-2.931-3.98-2.662-9.153,0.599-11.554S93.643,54.301,96.573,58.281z"/>
				<g>
					<defs>
						<path id="SVGID_17_" d="M140.058,105.37c-20.472-6.381-14.888-27.518-14.888-27.518l-9.439-1.151v-0.178l-0.731,0.089
							l-0.731-0.089v0.178l-9.438,1.151c0,0,5.583,21.137-14.89,27.518c-20.472,6.381-25.125,12.762-26.72,38.021h51.048h1.462
							h51.048C165.184,118.132,160.531,111.751,140.058,105.37z"/>
					</defs>
					<clipPath id="SVGID_2_">
						<use xlink:href="#SVGID_17_"  overflow="visible"/>
					</clipPath>
					<path clip-path="url(#SVGID_2_)" fill="#FCCAA0" d="M140.058,105.37c-20.472-6.381-14.888-27.518-14.888-27.518l-9.439-1.151
						v-0.178l-0.731,0.089l-0.731-0.089v0.178l-9.438,1.151c0,0,5.583,21.137-14.89,27.518
						c-20.472,6.381-25.125,12.762-26.72,38.021h51.048h1.462h51.048C165.184,118.132,160.531,111.751,140.058,105.37z"/>
					<g clip-path="url(#SVGID_2_)">
						<path fill="#E6A165" d="M124.503,82.864c0.131-2.985,0.666-5.012,0.666-5.012l-9.439-1.151v-0.178l-0.731,0.089l-0.731-0.089
							v0.178l-9.438,1.151c0,0,0.911,3.454,0.647,7.989C107.548,90.068,114.999,95.932,124.503,82.864z"/>
						<g>
							<g>
								<g>
									<g>
										<path fill="#E9AD79" d="M125.092,83.292c-0.058-0.08-0.24-0.192-0.257-0.099l0.256,0.262L125.092,83.292z"/>
										<path fill="#E9AD79" d="M124.214,83.35c0.082,0.184,0.26,0.462,0.563,0.611c-0.219-0.289-0.088-0.221-0.357-0.554
											c0.016-0.093,0.181-0.049,0.279,0.042c-0.057-0.08,0.143-0.059-0.014-0.23c-0.291-0.078-0.381,0.025-0.283,0.281
											C124.321,83.477,124.263,83.396,124.214,83.35z"/>
										<path fill="#E9AD79" d="M118.127,88.639l0.066,0.008C118.168,88.635,118.146,88.633,118.127,88.639z"/>
										<path fill="#E9AD79" d="M113.655,90.145c0.034-0.012,0.045-0.048,0.044-0.081
											C113.669,90.089,113.645,90.114,113.655,90.145z"/>
										<path fill="#E9AD79" d="M112.879,89.775c0.017,0.009,0.029,0.016,0.043,0.024
											C112.906,89.767,112.89,89.748,112.879,89.775z"/>
										<path fill="#E9AD79" d="M118.127,88.639l-0.171-0.024C118.013,88.72,118.059,88.652,118.127,88.639z"/>
										<path fill="#E9AD79" d="M124.206,84.788c0.004-0.034-0.007-0.073-0.027-0.118c-0.002,0.028-0.007,0.055-0.014,0.079
											L124.206,84.788z"/>
										<path fill="#E9AD79" d="M119.655,87.103l0.03-0.026c-0.021-0.038-0.045-0.083-0.072-0.133L119.655,87.103z"/>
										<path fill="#E9AD79" d="M120.819,85.932c-0.036,0.017,0.173,0.242,0.258,0.347c-0.075-0.104-0.098-0.167-0.091-0.206
											C120.944,86.032,120.891,85.986,120.819,85.932z"/>
										<path fill="#E9AD79" d="M122.994,84.308l-0.003-0.064C122.992,84.262,122.993,84.286,122.994,84.308z"/>
										<path fill="#E9AD79" d="M118.704,87.789c-0.03-0.035-0.059-0.063-0.078-0.079
											C118.649,87.741,118.676,87.767,118.704,87.789z"/>
										<path fill="#E9AD79" d="M126.09,81.042c-0.022-0.002-0.036-0.004-0.054-0.006
											C126.065,81.048,126.087,81.054,126.09,81.042z"/>
										<polygon fill="#E9AD79" points="124.424,82.86 124.409,82.832 124.237,82.818 										"/>
										<path fill="#E9AD79" d="M111.637,89.222l0.004,0.007C111.681,89.202,111.662,89.205,111.637,89.222z"/>
										<path fill="#E9AD79" d="M106.412,79.297c-0.271,0.042-0.388-0.178-0.683-0.098
											C105.854,79.223,106.24,79.351,106.412,79.297z"/>
										<path fill="#E9AD79" d="M124.146,84.798c-0.012,0.021-0.025,0.042-0.043,0.058
											C124.132,84.837,124.145,84.819,124.146,84.798z"/>
										<path fill="#E9AD79" d="M105.729,79.2l-0.003,0l-0.027,0.013C105.711,79.207,105.718,79.204,105.729,79.2z"/>
										<path fill="#E9AD79" d="M108.884,88.032c-0.029,0.046-0.045,0.086-0.059,0.125
											C108.844,88.132,108.862,88.098,108.884,88.032z"/>
										<path fill="#E9AD79" d="M110.707,89.587l-0.041-0.06C110.678,89.562,110.692,89.578,110.707,89.587z"/>
										<path fill="#E9AD79" d="M107.678,87.493c-0.006-0.04,0.019-0.077-0.042-0.083c-0.009,0.014-0.015,0.024-0.019,0.036
											C107.659,87.429,107.688,87.432,107.678,87.493z"/>
										<path fill="#E9AD79" d="M106.845,86.446c-0.014,0.02-0.025,0.037-0.037,0.055l0.038,0.026L106.845,86.446z"/>
										<path fill="#E9AD79" d="M124.323,76.435c0.02,0.09,0.011,0.185-0.007,0.278C124.371,76.499,124.78,76.474,124.323,76.435z
											"/>
										<path fill="#E9AD79" d="M124.07,84.681c0.055,0.055,0.077,0.089,0.076,0.117c0.008-0.016,0.014-0.032,0.019-0.049
											C124.131,84.717,124.098,84.689,124.07,84.681z"/>
										<path fill="#E9AD79" d="M105.847,89.084l-0.145-0.231C105.729,88.929,105.783,89.013,105.847,89.084z"/>
										<path fill="#E9AD79" d="M113.174,75.494l0.048-0.043C113.201,75.446,113.183,75.457,113.174,75.494z"/>
										<path fill="#E9AD79" d="M105.166,88.262c0.058-0.104,0.078-0.181,0.081-0.248c-0.026,0.005-0.049,0.007-0.083,0.022
											L105.166,88.262z"/>
										<path fill="#E9AD79" d="M124.315,76.715l0-0.003L124.315,76.715z"/>
										<path fill="#E9AD79" d="M126.227,77.361c-0.122-0.197-0.287,0.067-0.441,0.116c-0.005-0.007-0.01-0.014-0.013-0.018
											c-0.182-0.152,0.101-0.211,0.152-0.388c-0.187-0.135-0.51-0.013-0.607-0.112c0.033-0.054,0.028-0.093,0.102-0.128
											c-0.179,0.04-0.295-0.067-0.425-0.165c-0.216-0.013-0.45-0.012-0.684,0.15c-0.006-0.037-0.003-0.071,0.004-0.101
											c-0.039,0.199-0.132,0.395-0.208,0.532c-0.135-0.01-0.321,0.215-0.275-0.045c0.074,0.018,0.119-0.084,0.19-0.158
											l-0.18,0.092c-0.003-0.384,0.239-0.102,0.355-0.369c-0.364,0.076-0.781,0.338-0.904,0.214
											c0.019-0.185,0.077-0.209,0.2-0.219c0.104-0.013,0.188-0.022,0.054-0.207l0.342,0.188
											c-0.131-0.608,0.237,0.072,0.135-0.573c-0.26-0.088-0.503-0.073-0.58-0.035c-0.094,0.035-0.188,0.07-0.338-0.004
											c-0.098,0.195-0.017,0.306-0.114,0.501c-0.495,0.309-0.23-0.972-0.623-0.525c-0.117,0.234-0.211,0.696-0.413,0.419
											l0.135-0.406c-0.3-0.081-0.253,0.576-0.536,0.254c0.078-0.156,0.258-0.106,0.218-0.162
											c-0.164-0.356-0.177,0.217-0.336,0.196l0.016-0.374c-0.333,0.016-0.725,0.235-1.094,0.255
											c0.034-0.107,0.111-0.214,0.042-0.338c-0.478,0.125-0.962-0.172-1.371-0.448L118.82,75.8
											c-0.039-0.009-0.053-0.153-0.003-0.209c-0.154-0.143-0.035,0.201-0.133,0.315c-0.1,0.01-0.104-0.2-0.03-0.287
											c-0.336,0.23-0.934,0.469-1.206,0.086l0.074-0.086c-0.23-0.162-0.364,0.616-0.554,0.289l0.051-0.051
											c-0.189-0.076-0.393-0.096-0.592-0.116c-0.1-0.01-0.198-0.021-0.293-0.038c-0.089-0.017-0.18-0.042-0.337-0.09
											c-0.244-0.041-0.309-0.115-0.437-0.246c-0.078,0.462-0.535-0.206-0.569,0.438c-0.133-0.138-0.192-0.238-0.254-0.324
											c-0.079-0.086-0.073-0.159-0.358-0.242c-0.037-0.022-0.147-0.035-0.232-0.054c-0.119-0.014-0.119,0.422-0.252,0.507
											l-0.047-0.333l-0.147,0.376l-0.155-0.386l-0.123,0.103c0.056,0.013,0.133,0.135,0.138,0.233
											c-0.188,0.178-0.539-0.167-0.566-0.337l-0.456,0.348c-0.007-0.136,0.07-0.193,0.124-0.288
											c-0.219,0.376-0.094-0.346-0.294-0.001c0.042,0.072,0.009,0.202,0.012,0.27c-0.147-0.187-0.421-0.152-0.612-0.041
											l0.009-0.235c-0.374-0.011-0.757,0.212-1.168,0.261c0.162,0.088,0.18,0.492,0.065,0.546l-0.095-0.347
											c-0.049,0.228,0.144,0.117,0.019,0.405c-0.159-0.021-0.156-0.388-0.083-0.515l-0.17,0.147
											c-0.025-0.104,0.012-0.166,0.005-0.301c-0.048,0.229-0.368-0.312-0.429,0.083l-0.024-0.104
											c-0.411,0.051-0.581,0.197-0.913,0.258c0.033,0.306-0.106,0.255-0.173,0.515c-0.258-0.065-0.562-0.269-0.855-0.204
											c-0.188,0.179-0.026,0.266-0.096,0.459c-0.052-0.275-0.344-0.211-0.217-0.43c-0.35,0.092-0.447,0.115-0.866,0.399
											c0.063,0.107,0.125,0.149,0.109,0.248c-0.056,0.054-0.248-0.086-0.256-0.221l0.029-0.033
											c-0.373,0.273-0.883,0.096-1.53-0.011c-0.331,0.06-0.594,0.272-0.593,0.588l0.002-0.035c-0.03,0.13-0.11,0.24-0.147,0.323
											l0.062,0.166c-0.086,0.158-0.091-0.19-0.245-0.129c0.098,0.453-0.139,0.634-0.335,0.987
											c0.034,0.146,0.095,0.304,0.207,0.47c-0.191,0.087-0.261,0.263-0.264,0.476c-0.009,0.192,0.061,0.515,0.096,0.582
											c0.089,0.243,0.213,0.499-0.026,0.714l0.191-0.045c0.201,0.072-0.097,0.129-0.132,0.204
											c0.148-0.028,0.161-0.124,0.273-0.077c0.331,0.789-0.12,1.707-0.271,2.528c-0.042,0.301,1.011,0.148,0.554,0.544
											l-0.363-0.104c0.222,0.303,0.218,0.62,0.2,0.932c-0.018,0.341-0.046,0.515,0.111,1.158
											c-0.081-0.053-0.19-0.044-0.184-0.156c-0.124,0.126-0.177,0.376-0.072,0.548c0.146,0.165,0.33,0.269,0.431,0.232
											c0.055,0.157-0.165,0.102-0.215,0.24c-0.013,0.141,0.137,0.251,0.266,0.331c0.11,0.049,0.194,0.083,0.104,0.186
											c-0.029,0.034-0.096,0.006-0.127-0.008c0.159,0.023,0.22,0.421,0.425,0.176c0.024,0.309,0.396,0.351,0.375,0.627
											c0.351-0.091,0.15,0.467,0.554,0.203c-0.402,0.294-0.006,0.621,0.281,0.586c-0.149,0.058-0.017,0.214-0.214,0.304
											c0.14,0.141,0.331,0.208,0.49,0.005c-0.164,0.684,0.834,0.144,0.477,0.839c0.619,0.183,1.146,0.349,1.639,0.517
											c-0.283,0.412-0.499-0.268-0.773,0.167c0.538,0.125,0.988-0.098,1.351,0.231c0.08,0.118-0.162,0.157-0.242,0.21
											c0.527,0.053,0.859,0.467,1.372,0.364c-0.016,0.043-0.078,0.075-0.134,0.095c0.088,0.014,0.17,0.135,0.232-0.08l-0.1,0.03
											c-0.015-0.349,0.534-0.535,0.591-0.702c-0.323,0.577,0.348,0.27-0.088,0.99c0.068-0.025,0.165-0.11,0.191-0.259
											c0.069,0.063,0.075,0.155-0.052,0.299c0.336-0.039,0.281-0.302,0.549-0.237c-0.022,0.106-0.085,0.136-0.141,0.254
											c0.186-0.175,0.357-0.361,0.57-0.233c-0.023,0.062-0.009,0.152-0.078,0.139c0.416,0.027,0.727-0.478,1.134-0.262
											c-0.137,0.471,0.143,0.156,0.167,0.564l0.24-0.125l-0.1-0.195c0.209-0.001,0.369-0.303,0.549-0.187l-0.138,0.18
											l0.375-0.111l-0.228-0.134c0.18-0.228-0.067-0.51,0.197-0.424c-0.046,0.047,0.187-0.018,0.323,0.206l0,0.001
											c0.077-0.145,0.147-0.296,0.305-0.22c0.062,0.122,0.054,0.449,0.094,0.53c0.031-0.354,0.445-0.188,0.473-0.576
											c-0.018,0.093,0.032,0.301,0.056,0.34l0.009-0.289c0.109,0.063,0.135,0.101,0.165,0.27
											c0.281-0.026-0.221-0.473,0.149-0.35c-0.018,0.029,0.006,0.065-0.033,0.121c0.351,0.018,0.542-0.354,0.862-0.336
											c0.232,0.351-0.209,0.189,0.008,0.477c0.4-0.227,0.645-0.801,1.051-0.896l-0.088-0.005
											c-0.215-0.543,0.404,0.115,0.46-0.229c-0.023,0.063,0.097,0.315,0.078,0.252c0.297-0.059,0.442-0.414,0.697-0.795
											l0.037,0.154c0.209,0.019,0.411-0.174,0.593-0.225c-0.041-0.153,0.056-0.191-0.12-0.333
											c0.957,0.364,0.554-0.977,1.361-0.735c-0.043,0.039-0.022,0.19,0.013,0.16l0.228-0.373
											c-0.19-0.17-0.142-0.081-0.335-0.174c-0.058-0.147-0.047-0.307,0.026-0.375c-0.024,0.247,0.269,0.305,0.422,0.356
											c-0.061-0.049-0.098-0.131-0.155-0.186c0.459,0.193-0.312-0.402,0.104-0.369l0.079,0.108
											c0.035-0.123-0.014-0.32,0.096-0.372c0.235,0.18,0.01,0.178,0.168,0.359c0.11-0.127-0.146-0.623,0.162-0.516
											c0.008,0.107-0.065,0.176-0.06,0.283c0.355,0.136,0.311,0.06,0.434,0.014l-0.014,0.002l0.31-0.088l-0.117-0.015
											c-0.391-0.683,0.201-0.397,0.032-0.944c0.156,0.52,0.167,0.222,0.392,0.465c0.116,0.012,0.267,0.004,0.313,0.091
											c-0.102-0.279,0.308-0.019,0.148-0.423c0.083,0.066,0.104-0.098,0.281,0.105c0.056-0.185-0.165-0.095-0.253-0.196
											c-0.091-0.436,0.748-0.173,0.622-0.79c0.054-0.385-0.183-0.661-0.131-1.002c0.195,0.029,0.248,0.31,0.248,0.31
											c0.226-0.026,0.28-0.143,0.282-0.339c0.053,0.083,0.134,0.107,0.257,0.145c0.057-0.115-0.251-0.307-0.026-0.336
											c0.076,0.095,0.203,0.242,0.258,0.363c0.017-0.176-0.052-0.414-0.036-0.592c0.171,0.082,0.167,0.245,0.229,0.362
											c0.039-0.188,0.138-0.455-0.064-0.674l-0.15,0.023c0.026-0.058,0.22,0.128,0.235,0.197
											c0.093,0.256-0.21,0.105-0.299,0.045l0.012-0.127c-0.562-0.296-0.182,0.403-0.349,0.55l-0.3-0.354l0.157,0.408
											c-0.122-0.038-0.339-0.173-0.326-0.297c-0.271-0.022,0.041,0.208-0.236,0.152c-0.04-0.014-0.052-0.033-0.058-0.054
											l0.011,0.201c-0.055-0.083-0.264-0.185-0.155-0.213c-0.372,0.035-0.014,0.548-0.342,0.403l-0.007-0.035
											c-0.121,0.383,0.233,0.244,0.347,0.712l-0.745-0.4l0.227,0.248c-0.034,0.021-0.103,0.061-0.194-0.038
											c0.078,0.258,0.125,0.078,0.232,0.283c-0.347-0.063-0.239,0.474-0.658,0.145c0.142,0.221,0.263,0.003,0.26,0.268
											c-0.457-0.348-0.082,0.235-0.391,0.176c-0.178-0.241,0.044-0.247-0.263-0.308c0.292,0.417-0.302,0.158-0.33,0.323
											c0.278,0.283-0.099,0.331-0.173,0.592c-0.083-0.106-0.472,0.148-0.728,0.187l-0.041-0.054
											c0.24,0.325,0.021,0.419-0.047,0.591c-0.153-0.186-0.194-0.276-0.2-0.415l-0.112,0.103c0.057,0.12,0.065,0.202,0.02,0.301
											l-0.166-0.253c-0.14,0.141-0.083,0.536-0.414,0.541c0.161,0.23,0.655,0.475,0.546,0.802
											c-0.103-0.112-0.271-0.31-0.251-0.404c-0.007,0.031,0.01,0.153-0.068,0.133l-0.07-0.271
											c-0.163-0.013,0.083,0.207-0.008,0.249c-0.131-0.171-0.151-0.079-0.245-0.222c0.007-0.031,0.121,0.02,0.097-0.07
											c-0.107,0.038-0.291,0.011-0.422-0.093c0.082,0.092,0.176,0.232,0.13,0.302c-0.153,0.134-0.21-0.167-0.369-0.187
											c0.05,0.15-0.145,0.096,0.04,0.361c-0.049,0.033-0.145-0.083-0.214-0.143c0,0.179-0.374,0.305-0.086,0.525l0.035,0.004
											c-0.002,0.008-0.004,0.013-0.007,0.021l0.001,0l-0.001,0c-0.115,0.464-0.702,0.233-0.924,0.515l-0.052-0.095
											c-0.116,0.208-0.36,0.275-0.387,0.549c-0.056,0.026-0.215-0.116-0.247-0.243c-0.103,0.138-0.069,0.261-0.345,0.185
											c0.064-0.233-0.115-0.132,0.087-0.188c-0.22-0.008-0.32-0.148-0.403,0.203c-0.039-0.282-0.262-0.272-0.316-0.162
											l0.196,0.136c-0.083,0.075-0.176,0.086-0.271,0.092l-0.076-0.358c-0.477-0.295-0.451,0.933-0.923,0.286
											c-0.042,0.272,0.243,0.126,0.226,0.436c-0.194-0.001-0.479-0.479-0.527-0.469c-0.259-0.163-0.126,0.566-0.402,0.46
											c0.046,0.125,0.128,0.463-0.063,0.611c-0.199-0.031-0.274-0.523-0.173-0.636c0.041-0.015,0.065,0.025,0.068,0.069
											c0.053-0.051,0.119-0.118,0.036-0.249l-0.008,0.132c-0.101-0.125-0.333-0.091-0.292-0.308
											c-0.118,0.129-0.043,0.218,0.059,0.276c-0.23-0.174-0.346,0.013-0.572-0.115c0.034,0.072,0.067,0.224,0.031,0.223
											c-0.333-0.167-0.155,0.242-0.397,0.29c-0.12-0.209,0.08-0.467-0.163-0.322c-0.126-0.145,0.007-0.345,0.066-0.446
											c-0.224,0.231-0.345-0.205-0.437-0.269l0.113-0.086c-0.067,0.051-0.115,0.041-0.163,0.032l0.012,0.266
											c-0.052-0.055-0.102-0.064-0.081-0.17c-0.094,0.156-0.03,0.435-0.204,0.637c-0.056-0.147-0.293,0.083-0.24-0.262
											c0.23,0.175,0.054-0.34,0.276-0.348c-0.048,0.031-0.098,0.021-0.145-0.039c0-0.04,0.025-0.067,0.045-0.082
											c-0.15-0.36-0.201,0.356-0.45,0.272c0.086-0.177,0.051-0.369,0.001-0.341c0.093,0.032-0.048,0.325-0.188,0.436
											c-0.112-0.2-0.213,0.047-0.293-0.002l0.074,0.102c-0.1,0.172-0.175,0.116-0.314,0.127
											c0.046-0.144,0.144-0.056,0.126-0.134c-0.259,0.267-0.15-0.44-0.408-0.308c-0.021-0.156,0.148-0.333,0.121-0.445
											c-0.293,0.136-0.069-0.33-0.347-0.247c-0.076,0.257-0.031,0.209-0.292,0.354c0,0,0.402,0.01,0.402,0.01l-0.384,0.226
											c0.097,0.06,0.285-0.036,0.323,0.036c-0.196,0.138-0.159,0.084-0.208,0.302c0.043-0.417-0.388,0.053-0.419-0.271
											l0.334-0.553c-0.06-0.372-0.564,0.041-0.751-0.297l0.022,0.156c-0.189,0.182-0.192-0.099-0.345-0.084
											c0.141-0.164,0.135-0.269,0.184-0.402c-0.098,0.129-0.178-0.164-0.482,0.141l0.071-0.315
											c-0.121-0.266-0.655,0.236-0.804-0.019c0.225-0.106,0.249-0.3,0.493-0.292c-0.061-0.064-0.088-0.148-0.196-0.044
											c0.062-0.128-0.384,0.019-0.29-0.183c-0.095,0.035-0.272,0.176-0.329,0.086c0.025-0.038,0.081-0.07,0.081-0.07
											c-0.081,0.072-0.217-0.029-0.338,0.197c0.327-0.646-0.554-0.613-0.222-1.157c-0.173-0.121-0.359-0.289-0.464-0.438
											c0.062-0.022,0.093-0.054,0.091-0.013c0.062-0.295-0.611,0.185-0.535-0.148c0.286-0.209,0.233,0.038,0.328-0.068
											c0.328-0.14,0.292-0.158,0.207-0.191c-0.075-0.03-0.158-0.106,0.049-0.165l0.041,0.019
											c0.124-0.061,0.055-0.019-0.031-0.169c-0.087-0.117-0.196-0.245-0.168-0.376c0,0,0.062,0.015,0.107,0.004
											c-0.357-0.192-0.472-0.532-0.572-0.783c0.278,0.079,0.146,0.115,0.429,0.067c-0.04-0.114-0.453,0.032-0.533-0.192
											c0.152-0.073,0.284-0.237,0.585-0.263l0.018,0.215c0.39-0.114-0.015-0.28,0.05-0.394l0.17,0.012
											c-0.061-0.333-0.492-0.324-0.474-0.676l-0.127,0.042c-0.434-0.173,0.232-0.171-0.093-0.348l0.428-0.08
											c-0.11-0.124-0.442-0.421-0.54-0.639c0.328,0.104,0.511,0.36,0.709,0.516c-0.003-0.127-0.059-0.431-0.276-0.481
											c0.045,0.048,0.155,0.105,0.092,0.16c-0.349-0.132-0.53-0.32-0.544-0.568c0.839-0.03,0.15-0.668,0.772-0.923
											c-0.18-0.207-0.175-0.431-0.142-0.672c0.037-0.213,0.079-0.589,0.055-0.576c-0.645,0.087-0.026-0.049-0.706-0.061
											c-0.057-0.08-0.051-0.112-0.008-0.112c0.098-0.045,0.198-0.075,0.19-0.119l0.196,0.024
											c0.15,0.025,0.169,0.065,0.233,0.095c0.022,0.011,0.05,0.021,0.091,0.031l0.006-0.004c0.057-0.03,0.3,0.071,0.484,0.135
											c-0.26-0.096-0.377-0.168-0.281-0.143c-0.002-0.01-0.334-0.121-0.332-0.111c-0.208-0.146-0.062-0.114,0.095-0.039
											c0.154,0.065,0.319,0.174,0.104,0.002l0.25,0.183c-0.025-0.019-0.042-0.033-0.057-0.047
											c-0.041-0.058-0.013-0.042-0.31-0.455c0.075,0.068,0.221,0.233,0.241,0.279c0.027,0.011,0.035,0.002,0.039-0.02
											c0.019-0.103-0.026-0.501,0.333-0.272l-0.012,0.167c0.077-0.058,0.104-0.323,0.229-0.174
											c0.003,0.067-0.012,0.166,0.027,0.17c0.037-0.062,0.182-0.313,0.304-0.232l-0.07,0.194c0.46,0.156,0.604-0.531,0.952-0.69
											c0.062,0.478,0.422,0.588,0.602,0.643l0.003,0.068c0.511-0.007,0.802-0.508,1.243-0.756
											c0.357,0.48,1.007,0.088,1.51,0.318c-0.083-0.078-0.038-0.374,0.039-0.433c0.122,0.083,0.258-0.371,0.298,0.069
											l-0.04-0.003c0.139,0.418,0.348,0.275,0.524,0.264l-0.046-0.577c0.567,0.773,1.159-0.463,1.506,0.25
											c0.079-0.156,0.267-0.179,0.256-0.323l0.021,0.31l0.004,0.004c-0.016,0.038,0.201,0.066,0.293,0.075
											c0.123,0.009,0.255,0,0.442-0.036l-0.078,0.221c0.215,0.021,0.271-0.893,0.47-0.911l0.06,0.462
											c0.079-0.001,0.085,0.009,0.103,0.024l0.033,0.04l0.112,0.056c0.075,0.037,0.15,0.072,0.226,0.093
											c0.153,0.043,0.312,0.033,0.489-0.121c-0.015,0.066-0.043,0.197-0.105,0.208c0.173,0.035,0.637,0.399,0.656-0.238
											c-0.05,0.41,0.378,0.09,0.603-0.063l-0.071,0.298c0.22-0.364,0.24-0.469,0.491-0.544c0.051,0.047,0.017,0.248-0.047,0.161
											c0.167,0.183,0.184-0.267,0.389-0.076l-0.11,0.182c0.189,0.049,0.188-0.057,0.323-0.268
											c0.137-0.105,0.355,0.125,0.348,0.401c0.048-0.163,0.183-0.372,0.286-0.278c0.001,0.105-0.048,0.164-0.073,0.192
											c0.295,0.248,0.525-0.289,0.707,0.038c-0.008,0.101,0,0.152,0.014,0.185c-0.254-0.041-0.458-0.084-0.436-0.104
											c-0.037,0.278,0.164,0.354-0.051,0.718c0.193-0.188,0.537-0.607,0.721-0.45c0.006,0.028,0.012,0.056,0.014,0.1
											l-0.025,0.028c0.042,0.034,0.087,0.014,0.133-0.028c0.058,0.054,0.095,0.093,0.156,0.105
											c-0.006,0.233,0.221,0.155,0.322,0.18c0.032-0.306,0.16-0.239,0.067-0.507c0.014,0.024-0.024,0.034-0.094,0.038
											c-0.017,0.007-0.036,0.009-0.048,0.025l0.011-0.026c-0.069-0.003-0.158-0.008-0.259-0.013
											c0.102-0.144,0.204-0.263,0.295-0.079c0.083-0.187,0.168-0.38,0.208-0.473c0.085,0.444,0.327,0.709,0.33,0.977
											c0.337-0.13,0.755-0.016,1.028-0.562c0.099-0.062,0.081,0.178,0.103,0.272c-0.059,0.05-0.119,0.034-0.158,0.112
											c0.198-0.124,0.537,0.012,0.632-0.382c0.202,0.21-0.175,0.352,0.144,0.327l-0.058,0.117
											c0.246,0.269,0.262,0.199,0.403,0.07c0.132-0.13,0.361-0.323,0.554-0.365c0.139-0.033,0.257,0.022,0.157,0.238
											c0.02-0.049,0.025-0.072,0.08-0.133c0.032,0.103,0.154,0.109,0.21,0.164c-0.041,0.182,0.017,0.334-0.008,0.549
											c-0.021,0.189-0.097,0.389-0.33,0.537c-0.149,0.204,0.102,0.267,0.277,0.428l-0.333,0.002l0.347,0.281
											c0.236,0.354-0.875,0.472-0.392,0.946l0.227-0.032c-0.058,0.145,0.087,0.48-0.165,0.434
											c0.039,0.019,0.227,0.068,0.106,0.116l-0.172-0.009l0.268,0.387c-0.143,0.275-0.683-0.092-0.741,0.327
											c0.057,0.162,0.48,0.468,0.598,0.414c0.012-0.062,0.115-0.153,0.289-0.149l0.083,0.143
											c0.507,0.049,1.024,0.17,1.395-0.137l-0.298-0.245l0.25-0.059l0.005,0.192c0.238-0.095,0.036-0.174-0.099-0.261
											c0.132-0.01,0.226-0.036,0.278-0.077l-0.469-0.258c0.201-0.012,0.387,0.129,0.508-0.011
											c-0.217-0.122-0.453,0.066-0.588-0.119c0.24-0.091,0.425-0.042,0.239-0.188c0.132-0.006,0.213,0.028,0.267,0.083
											c-0.148-0.126-0.04-0.304-0.304-0.389c0.295-0.085-0.034-0.392,0.444-0.328c-0.111-0.047-0.354-0.241-0.361-0.348
											c0.549,0.259,0.082-0.385,0.69-0.253c-0.248-0.103-0.288-0.237-0.296-0.38c-0.004-0.071,0-0.145-0.011-0.219
											c-0.005-0.111-0.017-0.251-0.073-0.355c0.038,0.025,0.113,0.078,0.081,0.115c0.083-0.241,0.257-0.316,0.39-0.497
											c-0.434-0.007-0.465-0.359-0.711-0.455c0.024-0.018,0.048-0.035,0.069-0.043c0.163-0.137,0.287-0.142,0.437-0.121
											c0.117,0.032,0.223,0.106,0.445,0.004c-0.121,0.034-0.188-0.005-0.237-0.062c-0.21-0.087-0.339-0.23-0.507-0.11
											c0.177-0.255,0.064-0.187,0.333-0.403c-0.463,0.18-0.154-0.112-0.445-0.094c0.12-0.301,0.317-0.258,0.125-0.391
											C126.011,77.268,126.219,77.36,126.227,77.361z M120.345,76.392l0-0.006c0.045-0.001,0.084-0.002,0.108-0.003
											C120.431,76.384,120.4,76.387,120.345,76.392z M119.911,76.34c0.051,0.019,0.117,0.029,0.186,0.037
											c0.001,0.107-0.029,0.213-0.072,0.202C120.058,76.512,119.964,76.437,119.911,76.34z M120.549,78.572
											c-0.074,0.034-0.089-0.029-0.09-0.092c0.033-0.001,0.072-0.006,0.125-0.021l0.013-0.036
											C120.582,78.48,120.567,78.534,120.549,78.572z"/>
										<path fill="#E9AD79" d="M120.725,78.189c0.011-0.005,0.018-0.018,0.031-0.019c-0.012-0.028-0.023-0.053-0.032-0.074
											l-0.037,0.092L120.725,78.189z"/>
										<path fill="#E9AD79" d="M118.205,88.647l-0.011,0c0.013,0.006,0.025,0.012,0.04,0.026
											C118.221,88.662,118.214,88.656,118.205,88.647z"/>
										<polygon fill="#E9AD79" points="113.636,75.28 113.646,75.357 113.675,75.285 										"/>
										<path fill="#E9AD79" d="M120.75,88.001c0.021,0.017,0.047,0.032,0.077,0.037C120.812,88.024,120.783,88.012,120.75,88.001
											z"/>
										<path fill="#E9AD79" d="M121.579,87.324l0.184-0.029C121.673,87.297,121.618,87.309,121.579,87.324z"/>
										<path fill="#E9AD79" d="M122.265,86.846c-0.032-0.045-0.059-0.075-0.084-0.103h-0.002L122.265,86.846z"/>
										<path fill="#E9AD79" d="M110.046,91.536c-0.013-0.002-0.025-0.003-0.038,0.001
											C109.909,91.562,109.971,91.562,110.046,91.536z"/>
										<path fill="#E9AD79" d="M114.239,91.251c-0.033,0.062-0.068,0.12-0.108,0.161
											C114.206,91.426,114.263,91.425,114.239,91.251z"/>
										<polygon fill="#E9AD79" points="105.863,89.11 105.867,89.107 105.847,89.084 										"/>
										<path fill="#E9AD79" d="M113.943,91.431c0.079,0.052,0.138,0.031,0.188-0.019
											C114.069,91.399,113.997,91.376,113.943,91.431z"/>
										<path fill="#E9AD79" d="M124.678,84.23l0.035-0.023c-0.017-0.012-0.028-0.024-0.037-0.034L124.678,84.23z"/>
										<path fill="#E9AD79" d="M124.676,84.173l-0.002-0.057C124.662,84.132,124.653,84.147,124.676,84.173z"/>
										<path fill="#E9AD79" d="M124.668,83.997l0.005,0.12C124.694,84.092,124.726,84.066,124.668,83.997z"/>
										<path fill="#E9AD79" d="M123.896,84.993l0.079,0.08C123.961,85.053,123.936,85.026,123.896,84.993z"/>
										<path fill="#E9AD79" d="M123.711,85.267c0.07-0.044,0.312,0,0.326-0.13l-0.062-0.064
											C124.071,85.219,123.615,85.091,123.711,85.267z"/>
										<path fill="#E9AD79" d="M121.789,85.381l0.244-0.136c-0.119-0.044-0.278-0.105-0.22-0.214
											C121.328,85.04,122.057,85.158,121.789,85.381z"/>
										<path fill="#E9AD79" d="M121.106,85.858c0.057-0.14-0.125-0.119-0.168-0.171
											C120.954,85.827,120.958,85.862,121.106,85.858z"/>
										<path fill="#E9AD79" d="M116.524,89.326l-0.108-0.259C116.341,89.147,116.461,89.166,116.524,89.326z"/>
										<polygon fill="#E9AD79" points="116.002,91.1 116.171,91.226 116.137,90.966 										"/>
										<polygon fill="#E9AD79" points="114.787,89.39 114.817,89.341 114.688,89.479 										"/>
										<path fill="#E9AD79" d="M107.202,86.482l-0.262,0.226C107.031,86.729,107.351,86.509,107.202,86.482z"/>
										<path fill="#E9AD79" d="M106.3,82.973c0.17-0.055,0.275-0.188,0.103-0.258C106.383,82.818,106.253,82.924,106.3,82.973z"
											/>
										<polygon fill="#E9AD79" points="112.846,78.171 112.774,78.297 112.926,78.18 										"/>
									</g>
								</g>
							</g>
						</g>
					</g>
				</g>
				<path fill="#FCCAA0" d="M91.768,38.802c-0.144,0.422-4.686,29.213,5.883,39.881s28.848,4.354,33.301-6.58
					c3.844-9.437,4.586-27.219-2.891-38.086C120.583,23.148,99.146,17.167,91.768,38.802z"/>
				<g>
					<g>
						<path fill="#E6A165" d="M104.826,46.638c0.493,5.444,0.986,10.888,1.479,16.332c0.016,0.173,0.112,0.358,0.301,0.396
							c1.038,0.203,2.076,0.406,3.114,0.608c0.517,0.101,0.737-0.689,0.218-0.791c-0.709-0.139-1.419-0.277-2.128-0.416
							c-1.05-0.205-0.665,0.42-0.732-0.328c-0.161-1.782-0.322-3.563-0.484-5.345c-0.315-3.485-0.631-6.97-0.946-10.456
							C105.599,46.115,104.778,46.111,104.826,46.638L104.826,46.638z"/>
					</g>
				</g>
				
					<ellipse transform="matrix(-0.999 -0.0438 0.0438 -0.999 234.5576 115.5246)" fill="#3E230B" cx="118.544" cy="55.193" rx="1.254" ry="1.794"/>
				
					<ellipse transform="matrix(-0.9635 0.2678 -0.2678 -0.9635 213.2995 83.6246)" fill="#3E230B" cx="100.948" cy="56.357" rx="1.255" ry="1.794"/>
				<g>
					<g>
						<path fill="#E6A165" d="M138.221,58.609c-1.164,0.077-2.357,0.603-3.104,1.508c-1.032,1.25-1.217,3.972,0.462,4.788
							c1.429,0.695,3.049-0.646,3.159-2.079c0.063-0.827-0.714-1.371-1.428-1.52c-0.879-0.185-1.817,0.167-2.394,0.837
							c-0.343,0.399,0.234,0.981,0.58,0.58c0.725-0.843,3.048-0.88,2.245,0.677c-0.504,0.979-1.942,1.208-2.403,0.084
							c-0.84-2.045,0.905-3.924,2.884-4.056C138.746,59.395,138.75,58.574,138.221,58.609L138.221,58.609z"/>
					</g>
				</g>
				<g>
					<g>
						<path fill="#E6A165" d="M86.946,60.812c2.034,0.135,3.444,1.845,2.94,3.883c-0.313,1.267-1.748,1.11-2.384,0.213
							c-0.417-0.587-0.28-1.188,0.419-1.396c0.646-0.193,1.333,0.108,1.751,0.595c0.346,0.401,0.923-0.181,0.58-0.58
							c-0.898-1.043-3.701-1.4-3.814,0.53c-0.089,1.521,1.623,2.809,3.053,2.272c1.8-0.676,1.549-3.489,0.624-4.747
							c-0.712-0.967-1.989-1.513-3.169-1.591C86.418,59.957,86.421,60.778,86.946,60.812L86.946,60.812z"/>
					</g>
				</g>
				<g>
					<defs>
						<path id="SVGID_19_" d="M107.966,66.652c1.159,0.092,2.31-0.206,3.276-0.854c1.411-0.946,3.645-2,5.75-1.116
							c3.43,1.44,3.542,9.366-5.511,9.981c-8.562,0.583-7.881-5.862-6.769-7.358C105.462,66.294,106.946,66.572,107.966,66.652z"/>
					</defs>
					<clipPath id="SVGID_4_">
						<use xlink:href="#SVGID_19_"  overflow="visible"/>
					</clipPath>
					<path clip-path="url(#SVGID_4_)" fill="#9A3B28" d="M107.966,66.652c1.159,0.092,2.31-0.206,3.276-0.854
						c1.411-0.946,3.645-2,5.75-1.116c3.43,1.44,3.542,9.366-5.511,9.981c-8.562,0.583-7.881-5.862-6.769-7.358
						C105.462,66.294,106.946,66.572,107.966,66.652z"/>
					<path clip-path="url(#SVGID_4_)" fill="#FFFFFF" d="M103.766,65.33c0,0-1.738,3.864,3.683,3.409
						c10.519-0.882,11.045-2.579,10.129-5.935L103.766,65.33z"/>
					<path clip-path="url(#SVGID_4_)" fill="#EF8267" d="M104.964,74.13c0,0,1.715-3.257,6.64-3.789
						c4.925-0.532,6.875,1.9,6.875,1.9S114.469,77.919,104.964,74.13z"/>
				</g>
				<g>
					<ellipse fill="#EF8267" cx="98.438" cy="66.215" rx="3.888" ry="3.141"/>
				</g>
				<g>
					<ellipse fill="#EF8267" cx="124.494" cy="64.35" rx="3.888" ry="3.141"/>
				</g>
				<path fill="#4F3315" d="M124.563,47.943c-0.311,0.853-1.906,0.145-3.924-0.59c-2.017-0.734-3.695-1.217-3.383-2.071
					c0.31-0.854,2.199-0.95,4.216-0.215C123.489,45.801,124.873,47.088,124.563,47.943z"/>
				<path fill="#4F3315" d="M101.186,46.766c0.324,0.85-1.346,1.357-3.353,2.122c-2.007,0.765-3.59,1.497-3.914,0.648
					c-0.324-0.849,1.041-2.158,3.048-2.922C98.973,45.849,100.862,45.917,101.186,46.766z"/>
				<path fill="#F5A700" d="M144.571,106.876c-1.27-0.457-2.611-0.906-4.032-1.354c-7.41,22.813-39.913,37.37-50.037-0.337
					c-0.187,0.062-0.371,0.125-0.562,0.185c-1.8,0.561-3.474,1.123-5.038,1.697c0.589,12.576-2.822,24.591-7.169,36.324h36.535
					h1.462h34.847C147.885,133.221,143.974,121.854,144.571,106.876z"/>
				<path fill="#D28600" d="M106.835,141.489c-9.724-0.973-17.977-5.257-24.761-11.457c-1.207,4.502-2.708,8.951-4.341,13.358
					h36.535h1.462h34.847c-0.83-3.135-1.775-6.385-2.669-9.818C135.781,140.495,120.863,143.006,106.835,141.489z"/>
				<path fill="#5F3908" d="M88.829,45.008c0,0-1.235-20.728,21-21.959c24.507-1.357,25.633,24.21,25.632,24.21
					c-8.201-1.608-17.471-5.729-18.284-14.787c0.535,5.951-5,8.507-10.178,9.802C99.281,44.204,89.831,45.913,88.829,45.008z"/>
			</g>
			<g>
				
					<rect x="56.836" y="143.496" transform="matrix(-0.9997 0.0244 -0.0244 -0.9997 249.4274 374.5042)" fill="#197E85" width="131.183" height="90.557"/>
				
					<rect x="53.617" y="140.279" transform="matrix(-0.9997 0.0244 -0.0244 -0.9997 242.9143 368.1473)" fill="#FFFFFF" width="131.185" height="90.556"/>
				<path fill="#FCCAA0" d="M50.482,160.49c0,0,18.835,12.006-2.838,3.519c0,0-6.129-3.272-2.24-6.018c0,0-1.924-3.438,1.676-4.103
					c0,0-1.018-3.963,3.107-3.722c0,0-2.443-4.704,4.526-2.625c6.969,2.078,16.653,9.707,0.392,4.977c0,0,21.471,10.069-1.937,4.114
					c0,0,4.686,2.393,7.811,4.006c3.299,1.703,3.272,4.662-1.053,3.232C57.691,163.131,53.812,161.865,50.482,160.49z"/>
				<path fill="#FCCAA0" d="M160.856,138.596c0,0-7.352,21.092-4.077-1.952c0,0,1.775-6.718,5.341-3.564
					c0,0,2.904-2.664,4.379,0.688c0,0,3.623-1.903,4.337,2.167c0,0,4.015-3.459,3.596,3.801c-0.421,7.26-5.617,18.441-4.753,1.525
					c0,0-4.863,23.212-4.451-0.939c0,0-1.251,5.112-2.102,8.524c-0.899,3.602-3.785,4.255-3.388-0.282
					C159.944,146.22,160.284,142.154,160.856,138.596z"/>
			</g>
		</g>
	</g>
	<text transform="matrix(1 0 0 1 80.2656 167.5942)" font-family="'DFEr-W3-WINP-BF'" font-size="23.1555">陳可瑾</text>
	<g>
		<text transform="matrix(1 0 0 1 64.9775 210.8286)" font-family="'NotoSansCJKtc-Regular-B5pc-H'" font-size="9.0049">cclaire0820@gmail.com</text>
	</g>
	<g>
		<text transform="matrix(1 0 0 1 91.6738 190.105)" font-family="'DFEr-W3-WINP-BF'" font-size="23.1555">Claire</text>
	</g>
</g>
</svg>
