<?xml version="1.0" encoding="utf-8"?>
<!-- Generator: Adobe Illustrator 16.0.0, SVG Export Plug-In . SVG Version: 6.00 Build 0)  -->
<!DOCTYPE svg PUBLIC "-//W3C//DTD SVG 1.1//EN" "http://www.w3.org/Graphics/SVG/1.1/DTD/svg11.dtd">
<svg version="1.1" id="圖層_1" xmlns="http://www.w3.org/2000/svg" xmlns:xlink="http://www.w3.org/1999/xlink" x="0px" y="0px"
	 width="60px" height="60px" viewBox="0 0 60 60" enable-background="new 0 0 60 60" xml:space="preserve">
<g id="XMLID_926_">
	<path id="XMLID_927_" fill="#626262" d="M57.534,57.937c0.267-0.468,0.262-1.043-0.012-1.506L33.65,16.04l-1.91-3.354l5.203-9.138
		c0.409-0.719,0.158-1.635-0.562-2.043c-0.719-0.41-1.634-0.16-2.043,0.562l-4.321,7.59l-3.629-6.373
		c-0.41-0.721-1.326-0.972-2.044-0.562c-0.719,0.409-0.97,1.324-0.561,2.043l4.509,7.92l-1.081,1.895L2.477,56.431
		c-0.273,0.463-0.278,1.038-0.011,1.506c0.267,0.467,0.764,0.755,1.302,0.755h52.465C56.771,58.692,57.268,58.404,57.534,57.937z
		 M19.933,55.675L30,38.644l10.067,17.032H19.933z M18.213,35.697l3.303-5.589l6.986-11.818v11.818v5.179l-0.243,0.41L16.44,55.694
		H6.394L18.213,35.697z M43.559,55.694L31.74,35.697l-0.241-0.41v-5.179V18.29l6.985,11.818l3.303,5.589l11.82,19.997H43.559z"/>
</g>
</svg>
