<?xml version="1.0" encoding="utf-8"?>
<!-- Generator: Adobe Illustrator 16.0.0, SVG Export Plug-In . SVG Version: 6.00 Build 0)  -->
<!DOCTYPE svg PUBLIC "-//W3C//DTD SVG 1.1//EN" "http://www.w3.org/Graphics/SVG/1.1/DTD/svg11.dtd">
<svg version="1.1" id="圖層_1" xmlns="http://www.w3.org/2000/svg" xmlns:xlink="http://www.w3.org/1999/xlink" x="0px" y="0px"
	 width="220px" height="230.407px" viewBox="0 0 220 230.407" enable-background="new 0 0 220 230.407" xml:space="preserve">
<g>
	<g>
		<circle fill="#76C9CE" cx="110" cy="111.653" r="110"/>
		<g>
			<g>
				<g>
					<path fill="#5F3908" d="M83.148,51.427c2.251-38.915,25.448-33.731,28.302-32.697c2.853-1.035,26.05-6.432,28.622,30.875
						c2.573,35.698,23.155,40.201-0.259,69.145c-16.832,18.283-21.681,10.898-29.266,10.292
						c-7.585,0.606-14.363,7.026-31.195-11.256C59.943,96.704,76.9,87.861,83.148,51.427z"/>
					<path fill="#3E230B" d="M113.285,40.278c1.929-1.287,5.145,2.573,7.074,5.789c12.291,23.411,18.724,47.886,26.567,72.458
						c-14.844,5.721-30.701,5.082-35.955,4.662c-6.357,0.508-14.427,0.925-31.254-9.583C81.862,87.447,88.378,58.958,113.285,40.278
						z"/>
					<path fill="#FCCAA0" d="M92.353,57.677c2.641,4.178,3.014,10.911-0.41,13.075c-3.422,2.164-9.346-1.062-11.986-5.239
						c-2.641-4.178-2.006-9.319,1.417-11.482C84.797,51.867,89.712,53.5,92.353,57.677z"/>
					<path fill="#FCCAA0" d="M125.728,58.698c-2.931,3.979-3.78,10.67-0.519,13.07c3.261,2.401,9.397-0.396,12.327-4.375
						c2.931-3.98,2.662-9.152-0.599-11.554C133.677,53.438,128.657,54.718,125.728,58.698z"/>
					<g>
						<defs>
							<path id="SVGID_15_" d="M82.242,105.787c20.473-6.381,14.889-27.518,14.889-27.518l9.438-1.151v-0.178l0.73,0.089
								l0.731-0.089v0.178l9.438,1.151c0,0-5.583,21.137,14.889,27.518c20.474,6.381,25.126,12.762,26.722,38.02h-51.049h-1.462
								H55.522C57.116,118.548,61.77,112.167,82.242,105.787z"/>
						</defs>
						<clipPath id="SVGID_2_">
							<use xlink:href="#SVGID_15_"  overflow="visible"/>
						</clipPath>
						<path clip-path="url(#SVGID_2_)" fill="#FCCAA0" d="M82.242,105.787c20.473-6.381,14.889-27.518,14.889-27.518l9.438-1.151
							v-0.178l0.73,0.089l0.731-0.089v0.178l9.438,1.151c0,0-5.583,21.137,14.889,27.518c20.474,6.381,25.126,12.762,26.722,38.02
							h-51.049h-1.462H55.522C57.116,118.548,61.77,112.167,82.242,105.787z"/>
						<g clip-path="url(#SVGID_2_)">
							<path fill="#E6A165" d="M97.797,83.28c-0.131-2.985-0.666-5.011-0.666-5.011l9.438-1.151v-0.178l0.73,0.089l0.731-0.089
								v0.178l9.438,1.151c0,0-0.91,3.453-0.646,7.988C114.752,90.485,107.3,96.348,97.797,83.28z"/>
							<g>
								<g>
									<g>
										<g>
											<path fill="#E9AD79" d="M98.386,82.852c-0.094,0.031-0.257,0.171-0.174,0.212l0.327-0.167L98.386,82.852z"/>
											<path fill="#E9AD79" d="M98.178,83.697c0.199-0.026,0.512-0.122,0.739-0.373c-0.334,0.132-0.231,0.027-0.626,0.191
												c-0.083-0.042,0.008-0.186,0.123-0.253c-0.093,0.032-0.013-0.15-0.223-0.051c-0.161,0.252-0.088,0.371,0.183,0.347
												C98.329,83.63,98.235,83.663,98.178,83.697z"/>
											<path fill="#E9AD79" d="M103.614,89.901l-0.022-0.065C103.592,89.864,103.6,89.885,103.614,89.901z"/>
											<path fill="#E9AD79" d="M108.515,91.966c-0.043,0.005-0.063,0.04-0.069,0.072
												C108.487,92.018,108.521,91.999,108.515,91.966z"/>
											<path fill="#E9AD79" d="M109.466,92.4c-0.022-0.009-0.039-0.016-0.059-0.024C109.43,92.41,109.453,92.428,109.466,92.4z"
												/>
											<path fill="#E9AD79" d="M103.614,89.901l0.055,0.173C103.741,89.98,103.656,89.961,103.614,89.901z"/>
											<path fill="#E9AD79" d="M99.549,84.044c-0.031-0.011-0.072-0.008-0.119,0.003c0.026,0.008,0.05,0.017,0.072,0.028
												L99.549,84.044z"/>
											<path fill="#E9AD79" d="M101.595,88.729l-0.032-0.027c-0.035,0.025-0.077,0.054-0.124,0.087L101.595,88.729z"/>
											<path fill="#E9AD79" d="M100.263,87.551c0.019,0.038,0.247-0.169,0.353-0.253c-0.105,0.073-0.169,0.095-0.211,0.087
												C100.362,87.426,100.316,87.479,100.263,87.551z"/>
											<path fill="#E9AD79" d="M98.817,85.123l-0.063-0.011C98.772,85.115,98.796,85.119,98.817,85.123z"/>
											<path fill="#E9AD79" d="M102.549,89.588c-0.024,0.038-0.044,0.074-0.053,0.098
												C102.52,89.655,102.536,89.622,102.549,89.588z"/>
											<path fill="#E9AD79" d="M99.079,81.141c-0.022,0.002-0.036,0.004-0.055,0.006C99.057,81.154,99.078,81.155,99.079,81.141
												z"/>
											<polygon fill="#E9AD79" points="97.718,83.283 97.699,83.256 97.527,83.258 											"/>
											<path fill="#E9AD79" d="M111.358,92.554l-0.01-0.004C111.308,92.595,111.335,92.583,111.358,92.554z"/>
											<path fill="#E9AD79" d="M118.53,79.386c-0.336,0.283-0.29-0.352-0.681,0.059C117.985,79.375,118.28,79.739,118.53,79.386
												z"/>
											<path fill="#E9AD79" d="M99.544,84.103c0.018,0.016,0.033,0.032,0.046,0.052C99.578,84.124,99.563,84.108,99.544,84.103z
												"/>
											<path fill="#E9AD79" d="M117.85,79.444l-0.003,0l-0.036,0.038C117.826,79.467,117.836,79.458,117.85,79.444z"/>
											<path fill="#E9AD79" d="M115.068,90.491c-0.041-0.037-0.079-0.058-0.117-0.078
												C114.972,90.437,115.003,90.461,115.068,90.491z"/>
											<path fill="#E9AD79" d="M112.206,91.645l0.085,0.012C112.253,91.641,112.228,91.641,112.206,91.645z"/>
											<path fill="#E9AD79" d="M115.917,89.102c0.045-0.013,0.085,0.005,0.091-0.063c-0.016-0.007-0.026-0.011-0.039-0.013
												C115.987,89.068,115.984,89.102,115.917,89.102z"/>
											<path fill="#E9AD79" d="M116.908,87.85c-0.025-0.004-0.046-0.007-0.068-0.011l-0.015,0.051L116.908,87.85z"/>
											<path fill="#E9AD79" d="M99.034,79.325c-0.046-0.085-0.094-0.173-0.142-0.26C98.992,79.272,98.975,79.353,99.034,79.325z
												"/>
											<path fill="#E9AD79" d="M99.414,84.152c0.065-0.042,0.104-0.056,0.13-0.049c-0.013-0.011-0.027-0.019-0.042-0.027
												C99.463,84.101,99.429,84.127,99.414,84.152z"/>
											<path fill="#E9AD79" d="M114.167,87.421l0.166-0.118C114.273,87.326,114.214,87.369,114.167,87.421z"/>
											<path fill="#E9AD79" d="M108.801,78.392l-0.058,0.03C108.763,78.431,108.782,78.425,108.801,78.392z"/>
											<path fill="#E9AD79" d="M114.666,86.818c0.108,0.037,0.183,0.045,0.238,0.037c-0.015-0.021-0.025-0.041-0.051-0.066
												L114.666,86.818z"/>
											<path fill="#E9AD79" d="M98.892,79.062l0.001,0.003L98.892,79.062z"/>
											<path fill="#E9AD79" d="M99.2,79.76c-0.252-0.175-0.492-0.343-0.738-0.514c-0.006-0.007-0.012-0.014-0.016-0.019
												c-0.035-0.098,0.392,0.26,0.619,0.423c-0.115-0.093-0.433-0.425-0.367-0.417c0.062,0.059,0.088,0.08,0.152,0.155
												c-0.123-0.155-0.063-0.158-0.028-0.179c0.035-0.02,0.055-0.055,0.012-0.241c0.023,0.033,0.042,0.064,0.058,0.093
												c-0.104-0.19-0.208-0.384-0.271-0.523c0.062-0.015,0.045-0.264,0.166-0.013c-0.048-0.001-0.013,0.102,0.002,0.183
												l0.027-0.119c0.183,0.359-0.044,0.138,0.072,0.406c0.039-0.129,0.093-0.454,0.28-0.37
												c0.051,0.181-0.071,0.229-0.087,0.257c-0.033,0.03-0.043,0.053,0.029,0.21c0.006,0-0.132-0.126-0.137-0.125
												c0.234,0.56-0.055-0.034,0.18,0.567c0.056,0.047-0.012,0.008,0.088-0.053c0.081-0.059,0.163-0.117,0.327-0.083
												c0.044-0.214-0.062-0.3-0.019-0.514c0.397-0.426,0.473,0.88,0.736,0.346c0.053-0.257,0.025-0.727,0.291-0.511
												l-0.025,0.427c0.311,0.001,0.096-0.621,0.452-0.383c-0.035,0.171-0.222,0.169-0.169,0.213
												c0.25,0.302,0.115-0.255,0.274-0.276l0.081,0.365c0.317-0.101,0.641-0.414,0.991-0.528
												c-0.006,0.112-0.052,0.235,0.047,0.337c0.43-0.244,0.974-0.083,1.44,0.079l0.125-0.34
												c0.039-0.002,0.091,0.134,0.058,0.201c0.186,0.099-0.019-0.203,0.048-0.339c0.094-0.035,0.151,0.167,0.103,0.27
												c0.266-0.31,0.781-0.694,1.143-0.395l-0.049,0.103c0.264,0.097,0.192-0.689,0.461-0.422l-0.037,0.062
												c0.202,0.025,0.404-0.009,0.602-0.041c0.1-0.016,0.197-0.031,0.294-0.039c0.103-0.008,0.197-0.008,0.219,0.017
												c0.025,0.041,0.21,0.115,0.306,0.247c0.079-0.462,0.535,0.206,0.57-0.439c0.133,0.138,0.192,0.237,0.254,0.324
												c0.044,0.086,0.177,0.158,0.177,0.242c0.011,0.028-0.003,0.055,0.033,0.089c0.111,0.044,0.224-0.377,0.375-0.425
												l-0.041,0.334l0.239-0.325l0.051,0.414l0.145-0.068c-0.051-0.027-0.094-0.165-0.072-0.26
												c0.228-0.124,0.478,0.3,0.46,0.472l0.53-0.218c-0.028,0.133-0.117,0.168-0.194,0.245
												c0.309-0.306,0.002,0.358,0.284,0.078c-0.022-0.081,0.044-0.197,0.058-0.264c0.094,0.218,0.367,0.255,0.581,0.197
												l-0.069,0.226c0.358,0.106,0.786-0.009,1.196,0.049c-0.134-0.127-0.047-0.521,0.078-0.544l0.002,0.359
												c0.106-0.208-0.108-0.149,0.086-0.396c0.148,0.061,0.051,0.415-0.053,0.518l0.203-0.098
												c-0.003,0.107-0.055,0.157-0.083,0.29c0.105-0.209,0.275,0.397,0.436,0.03l-0.004,0.106
												c0.41,0.057,0.612-0.04,0.949-0.014c0.047-0.304,0.168-0.219,0.3-0.453c0.233,0.129,0.475,0.405,0.774,0.418
												c0.228-0.125,0.094-0.25,0.212-0.419c-0.021,0.28,0.277,0.293,0.098,0.472c0.361,0.001,0.461,0.004,0.94-0.163
												c-0.034-0.12-0.082-0.176-0.042-0.268c0.107-0.032,0.123,0.135,0.092,0.266l-0.014,0.027
												c0.161-0.203,0.272,0.056,0.21,0.239c-0.029,0.167-0.161,0.279,0.172,0.046l-0.036,0.024
												c0.093-0.055,0.233-0.132,0.235-0.103l0.175-0.083c-0.073,0.106-0.236,0.124-0.448,0.3
												c0.382-0.162,0.121,0.082,0.114,0.125c-0.004,0.024,0.018,0.04,0.094,0.06c-0.167,0.042-0.267,0.068-0.368,0.094
												c-0.047,0.036-0.021-0.026-0.025,0.172c0.01,0.289,0.06,0.591-0.228,0.762l0.196,0c0.177,0.128-0.126,0.113-0.18,0.186
												c0.151,0.006,0.188-0.093,0.284-0.016c0.128,0.906-0.46,1.801-0.664,2.729c-0.062,0.339,1.001,0.215,0.528,0.625
												l-0.359-0.125c0.212,0.343,0.208,0.686,0.203,1.031c-0.008,0.316-0.008,0.794,0.177,0.782
												c-0.085-0.022-0.194-0.033-0.193-0.045c-0.256-0.008-0.017,0.062,0.175,0.16c-0.037,0.017-0.188-0.062-0.294-0.093
												c-0.075-0.023-0.003,0.016,0.05,0.068c0.033,0.084,0.051,0.169-0.077,0.126c-0.042-0.013-0.056-0.071-0.063-0.099
												c0.072,0.128-0.205,0.272,0.087,0.375c-0.229,0.092-0.107,0.405-0.351,0.435c0.207,0.291-0.342,0.18,0.011,0.503
												c-0.377-0.317-0.534,0.022-0.453,0.276c-0.082-0.132-0.19-0.02-0.31-0.197c-0.093,0.11-0.118,0.271,0.08,0.429
												c-0.6-0.228-0.078,0.737-0.701,0.276c-0.151,0.481-0.382,0.879-0.668,1.192c-0.249-0.421,0.347-0.287,0.036-0.705
												c-0.176,0.369-0.154,0.854-0.551,0.929c-0.117-0.015-0.049-0.215-0.062-0.303c-0.236,0.357-0.649,0.267-0.864,0.627
												c-0.014-0.043,0.003-0.103,0.021-0.148c-0.056,0.036-0.164-0.02-0.086,0.19l0.041-0.078
												c0.215,0.27-0.037,0.732-0.008,0.898c-0.075-0.646-0.385-0.056-0.426-0.888c-0.029,0.051-0.054,0.167-0.006,0.31
												c-0.075-0.026-0.114-0.106-0.096-0.287c-0.191,0.176-0.061,0.386-0.273,0.429c-0.021-0.107,0.013-0.157,0.008-0.287
												c-0.058,0.231-0.135,0.458-0.333,0.398c0.001-0.067-0.032-0.146,0.021-0.154c-0.293,0.076-0.486,0.628-0.863,0.435
												c0.095-0.472-0.125-0.155-0.142-0.563l-0.183,0.119l0.069,0.201c-0.161-0.014-0.328,0.28-0.465,0.131l0.136-0.157
												l-0.316,0.05l0.163,0.17c-0.193,0.194-0.027,0.519-0.253,0.38c0.054-0.035-0.181-0.027-0.235-0.278v-0.001
												c-0.104,0.114-0.219,0.234-0.331,0.112c-0.008-0.134,0.11-0.439,0.105-0.528c-0.146,0.318-0.404,0.013-0.596,0.335
												c0.056-0.074,0.109-0.281,0.109-0.327l-0.138,0.251c-0.057-0.106-0.056-0.15,0.001-0.312
												c-0.216-0.113-0.064,0.523-0.281,0.226c0.028-0.015,0.029-0.058,0.086-0.084c-0.239-0.192-0.591-0.001-0.796-0.23
												c0.077-0.411,0.251-0.011,0.291-0.367c-0.365-0.053-0.914,0.154-1.211-0.103l0.042,0.073
												c-0.311,0.491-0.119-0.383-0.411-0.232c0.062-0.014,0.208-0.252,0.166-0.201c-0.175-0.205-0.519-0.129-0.952-0.19
												l0.122-0.099c-0.055-0.197-0.294-0.28-0.388-0.434c-0.125,0.094-0.188,0.02-0.267,0.229
												c0.091-0.973-1.069-0.228-0.979-1.077c0.042,0.034,0.182-0.017,0.148-0.044l-0.382-0.145
												c-0.143,0.21-0.062,0.148-0.128,0.351c-0.135,0.082-0.298,0.097-0.371,0.03c0.244-0.006,0.267-0.306,0.305-0.461
												c-0.042,0.066-0.118,0.113-0.166,0.176c0.147-0.472-0.365,0.355-0.373-0.059l0.101-0.088
												c-0.124-0.02-0.313,0.04-0.372-0.067c0.166-0.245,0.176-0.021,0.345-0.193c-0.125-0.095-0.611,0.186-0.514-0.125
												c0.104-0.01,0.178,0.055,0.282,0.043c0.123-0.356,0.05-0.303,0.006-0.424l0.003,0.013l-0.079-0.298l-0.018,0.114
												c-0.681,0.4-0.383-0.186-0.928-0.035c0.523-0.137,0.227-0.158,0.48-0.372c0.02-0.113,0.023-0.257,0.111-0.301
												c-0.282,0.094,0.012-0.293-0.394-0.158c0.072-0.078-0.083-0.106,0.134-0.266c-0.171-0.063-0.111,0.153-0.219,0.233
												c-0.445,0.059-0.062-0.732-0.678-0.676c-0.357-0.107-0.672,0.079-1.001-0.037c0.069-0.186,0.353-0.184,0.353-0.184
												c0.02-0.223-0.076-0.299-0.267-0.34c0.092-0.035,0.133-0.108,0.198-0.219c-0.098-0.076-0.354,0.179-0.331-0.043
												c0.11-0.052,0.281-0.143,0.411-0.172c-0.166-0.048-0.407-0.037-0.574-0.095c0.123-0.145,0.277-0.103,0.404-0.137
												c-0.166-0.079-0.394-0.234-0.659-0.097l-0.018,0.148c-0.049-0.04,0.182-0.178,0.251-0.175
												c0.27-0.029,0.044,0.224-0.035,0.296l-0.119-0.042c-0.428,0.469,0.338,0.277,0.442,0.461l-0.411,0.214l0.432-0.065
												c-0.063,0.11-0.24,0.295-0.36,0.255c-0.078,0.262,0.212,0.005,0.101,0.266c-0.021,0.036-0.043,0.045-0.065,0.046
												l0.201,0.031c-0.093,0.038-0.232,0.224-0.241,0.11c-0.026,0.378,0.544,0.118,0.346,0.418l-0.036,0
												c0.36,0.189,0.278-0.187,0.758-0.23l-0.496,0.684l0.275-0.192c0.017,0.037,0.049,0.112-0.061,0.189
												c0.267-0.042,0.093-0.115,0.309-0.195c-0.104,0.344,0.45,0.283,0.086,0.675c0.232-0.123,0.023-0.265,0.288-0.237
												c-0.382,0.432,0.227,0.103,0.154,0.404c-0.25,0.166-0.251-0.061-0.322,0.246c0.434-0.27,0.154,0.319,0.326,0.359
												c0.288-0.274,0.343,0.107,0.609,0.185c-0.104,0.084,0.181,0.475,0.256,0.736l-0.051,0.045
												c0.305-0.267,0.428-0.054,0.61-0.002c-0.163,0.177-0.249,0.227-0.391,0.245l0.124,0.108
												c0.113-0.072,0.196-0.09,0.307-0.057l-0.227,0.201c0.18,0.131,0.56,0.013,0.653,0.342
												c0.185-0.211,0.319-0.743,0.657-0.713c-0.086,0.125-0.238,0.335-0.336,0.337c0.032,0,0.147-0.044,0.146,0.038
												l-0.248,0.128c0.028,0.167,0.183-0.126,0.245-0.045c-0.135,0.169-0.035,0.167-0.151,0.293
												c-0.034,0.001-0.016-0.124-0.098-0.082c0.064,0.103,0.1,0.286,0.037,0.445c0.066-0.104,0.176-0.232,0.26-0.204
												c0.183,0.118-0.096,0.253-0.059,0.42c0.131-0.09,0.156,0.117,0.347-0.144c0.051,0.038-0.026,0.168-0.057,0.254
												c0.173-0.048,0.464,0.267,0.548-0.09l-0.011-0.035c0.008,0,0.013-0.001,0.022-0.001v0v0
												c0.476-0.067,0.543,0.565,0.938,0.627l-0.053,0.094c0.25,0.001,0.468,0.168,0.709,0.029
												c0.057,0.028,0.051,0.243-0.03,0.347c0.189-0.001,0.252-0.101,0.404,0.158c-0.233,0.104-0.013,0.177-0.218,0.056
												c0.166,0.172,0.148,0.358,0.483,0.174c-0.182,0.226,0.032,0.386,0.163,0.348l-0.078-0.243
												c0.127,0.006,0.215,0.067,0.309,0.123l-0.178,0.324c0.328,0.589,1.021-0.464,1.183,0.337
												c0.179-0.218-0.209-0.235-0.029-0.498c0.188,0.099,0.307,0.653,0.379,0.67c0.274,0.25,0.368-0.471,0.653-0.297
												c-0.024-0.134-0.011-0.481,0.217-0.576c0.194,0.065,0.21,0.564,0.062,0.656c-0.054,0.006-0.074-0.037-0.068-0.081
												c-0.074,0.042-0.173,0.083-0.102,0.235l0.042-0.125c0.095,0.141,0.403,0.153,0.317,0.359
												c0.18-0.115,0.084-0.206-0.033-0.284c0.273,0.206,0.442,0.03,0.737,0.153c-0.048-0.071-0.091-0.224-0.046-0.222
												c0.431,0.152,0.182-0.251,0.456-0.319c0.173,0.184-0.025,0.477,0.251,0.286c0.191,0.118,0.074,0.339,0.008,0.451
												c0.248-0.272,0.536,0.104,0.711,0.12l-0.133,0.129c0.08-0.077,0.153-0.087,0.228-0.1l-0.129-0.242
												c0.093,0.03,0.166,0.019,0.185,0.125c0.055-0.184-0.144-0.411-0.023-0.673c0.136,0.106,0.29-0.207,0.407,0.116
												c-0.368-0.033,0.122,0.33-0.165,0.45c0.05-0.054,0.121-0.065,0.216-0.042c0.022,0.034,0.005,0.072-0.014,0.098
												c0.419,0.207,0.064-0.413,0.4-0.504c0.012,0.199,0.187,0.328,0.231,0.271c-0.143,0.039-0.16-0.289-0.086-0.469
												c0.258,0.07,0.19-0.183,0.302-0.207l-0.146-0.022c-0.023-0.196,0.083-0.209,0.198-0.32
												c0.067,0.136-0.088,0.146-0.015,0.188c0.024-0.374,0.486,0.186,0.609-0.126c0.155,0.072,0.165,0.326,0.293,0.363
												c0.132-0.346,0.392,0.104,0.549-0.221c-0.2-0.186-0.177-0.126-0.133-0.443c-0.001,0-0.316,0.381-0.316,0.381l0.079-0.472
												c-0.117,0.062-0.175,0.278-0.268,0.277c0.026-0.253,0.04-0.188-0.113-0.352c0.345,0.264,0.204-0.366,0.51-0.239
												l0.324,0.56c0.442,0.069,0.323-0.59,0.751-0.703l-0.176-0.011c-0.104-0.239,0.186-0.182,0.229-0.346
												c0.123,0.178,0.237,0.187,0.368,0.254c-0.105-0.118,0.254-0.188,0-0.542l0.328,0.091
												c0.335-0.146-0.136-0.709,0.132-0.874c0.1,0.233,0.312,0.236,0.277,0.51c0.078-0.076,0.176-0.119,0.07-0.224
												c0.144,0.047-0.006-0.416,0.21-0.349c-0.04-0.097-0.199-0.259-0.107-0.334c0.041,0.02,0.079,0.071,0.079,0.071
												c-0.078-0.071,0.01-0.234-0.236-0.312c0.73,0.19,0.512-0.713,1.136-0.61c0.074-0.233,0.162-0.506,0.254-0.695
												c0.05,0.044,0.093,0.055,0.054,0.078c0.33-0.172-0.442-0.471-0.078-0.679c0.429-0.071,0.082,0.251,0.266,0.183
												c0.349,0.103,0.396-0.045,0.412-0.213c-0.02-0.182-0.162-0.383,0.05-0.527l0.046,0.081
												c0.116-0.095,0.039-0.333-0.055-0.399c-0.094-0.101-0.215-0.216-0.191-0.342c0,0,0.062,0.01,0.106-0.001
												c-0.367-0.161-0.491-0.49-0.593-0.735c0.278,0.076,0.148,0.11,0.431,0.064c-0.041-0.109-0.454,0.033-0.532-0.187
												c0.152-0.071,0.286-0.228,0.588-0.245l0.015,0.204c0.391-0.101-0.012-0.263,0.06-0.37l0.17,0.017
												c-0.05-0.31-0.478-0.328-0.436-0.666l-0.13,0.03c-0.417-0.204,0.245-0.145-0.062-0.344l0.435-0.033
												c-0.098-0.125-0.393-0.45-0.456-0.677c0.31,0.149,0.455,0.414,0.638,0.58c0.008-0.119-0.007-0.406-0.215-0.484
												c0.038,0.052,0.14,0.12,0.07,0.163c-0.329-0.169-0.481-0.379-0.453-0.622c0.829,0.117,0.268-0.608,0.937-0.708
												c-0.13-0.225-0.071-0.429,0.023-0.634c0.099-0.233,0.208-0.317,0.268-0.831c-0.705,0.267,0.024-0.243-0.666-0.17
												c-0.018-0.153,0.006-0.21,0.054-0.231c0.133-0.14,0.271-0.296,0.304-0.439l0.168-0.155
												c0.117-0.125,0.172-0.018,0.269,0.033c0.016,0.023,0.039,0.035,0.083,0.019c0.007-0.019,0.014-0.036,0.018-0.047
												c-0.092-0.32,0.23-0.217,0.248-0.501c-0.196,0.134-0.38,0.006-0.39-0.187c0,0-0.032,0.088-0.064,0.176
												c-0.038,0.09-0.076,0.181-0.076,0.181c-0.246-0.145-0.141-0.271-0.082-0.41c0.071-0.135,0.102-0.272-0.074-0.355
												l0.175,0.015c-0.029-0.019-0.059-0.049-0.087-0.085c-0.182-0.186-0.48-0.62-0.883-0.38
												c0.021-0.083,0.102-0.276,0.198-0.239c-0.053-0.082-0.122-0.151-0.201-0.207c-0.757,0.001-1.645,0.289-1.856-0.016
												l0.055-0.158c-0.089,0.036-0.185,0.286-0.266,0.109c0.014-0.066,0.054-0.157,0.017-0.172
												c-0.051,0.05-0.256,0.255-0.354,0.146l0.118-0.17c-0.404-0.269-0.722,0.357-1.098,0.42
												c0.063-0.477-0.256-0.677-0.416-0.776l0.016-0.067c-0.495-0.125-0.906,0.283-1.396,0.41
												c-0.222-0.556-0.951-0.346-1.377-0.697c0.06,0.096-0.061,0.371-0.149,0.408c-0.097-0.111-0.345,0.292-0.271-0.144
												l0.038,0.014c-0.025-0.44-0.265-0.355-0.438-0.39l-0.104,0.569c-0.349-0.893-1.239,0.148-1.391-0.63
												c-0.144,0.127-0.227,0.114-0.457,0.229l0.033-0.308c-0.013-0.004-0.025-0.008-0.033-0.01
												c-0.312-0.038-0.323-0.065-0.476-0.075c-0.122-0.009-0.255,0-0.44,0.036l0.078-0.221
												c-0.216-0.021-0.272,0.893-0.471,0.911l-0.06-0.462c-0.043,0.001-0.16-0.009-0.265-0.024l-0.202-0.009l-0.122-0.025
												c-0.082-0.017-0.163-0.031-0.243-0.032c-0.158-0.002-0.31,0.049-0.44,0.243c-0.003-0.068-0.01-0.202,0.049-0.229
												c-0.177,0.011-0.719-0.221-0.572,0.399c-0.059-0.409-0.39,0.011-0.566,0.217l-0.009-0.306
												c-0.119,0.409-0.11,0.515-0.333,0.653c-0.062-0.032-0.081-0.235,0.004-0.168c-0.208-0.134-0.108,0.305-0.356,0.174
												l0.06-0.204c-0.196,0.002-0.167,0.104-0.243,0.342c-0.105,0.137-0.375-0.028-0.439-0.298
												c-0.004,0.17-0.08,0.407-0.204,0.343c-0.029-0.101,0.004-0.171,0.021-0.205c-0.349-0.164-0.433,0.414-0.692,0.146
												c-0.018-0.1-0.039-0.147-0.062-0.175c0.257-0.026,0.465-0.037,0.448-0.013c-0.036-0.278-0.249-0.3-0.136-0.707
												c-0.138,0.232-0.361,0.726-0.58,0.621c-0.013-0.026-0.026-0.051-0.039-0.093l0.017-0.034
												c-0.05-0.022-0.088,0.01-0.121,0.062c-0.07-0.037-0.115-0.066-0.178-0.062c-0.054-0.227-0.253-0.093-0.357-0.09
												c0.049,0.303-0.093,0.272,0.066,0.507c-0.02-0.02,0.015-0.039,0.081-0.061c0.015-0.011,0.032-0.018,0.04-0.037
												l-0.003,0.028c0.066-0.014,0.154-0.033,0.253-0.054c-0.062,0.166-0.129,0.307-0.265,0.153
												c-0.031,0.202-0.064,0.411-0.079,0.511c-0.197-0.407-0.499-0.601-0.571-0.858c-0.292,0.212-0.726,0.21-0.849,0.809
												c-0.079,0.085-0.124-0.15-0.169-0.236c0.044-0.064,0.106-0.063,0.123-0.149c-0.159,0.17-0.521,0.127-0.512,0.532
												c-0.249-0.151,0.078-0.385-0.223-0.279l0.025-0.127c-0.195-0.21-0.562-0.09-0.792,0.087
												c-0.239,0.179-0.372,0.42-0.58,0.514c-0.108,0.112-0.292,0.119-0.596,0.072c0.072,0.007,0.108,0.012,0.157,0.053
												c-0.205,0.033-0.437,0.101-0.535,0.229c-0.022,0.292,0.003,0.66-0.042,1.04c0.095,0.375,0.112,0.729-0.035,1.124
												c-0.084,0.226,0.174,0.21,0.386,0.312l-0.32,0.091l0.407,0.17c0.318,0.285-0.737,0.635-0.174,0.973l0.216-0.073
												c-0.026,0.147,0.173,0.444-0.085,0.441c0.042,0.011,0.234,0.028,0.124,0.094l-0.172,0.018l0.321,0.331
												c-0.106,0.282-0.686,0.004-0.696,0.399c0.075,0.141,0.523,0.393,0.637,0.333c0.006-0.061,0.101-0.159,0.273-0.172
												l0.096,0.133c0.51,0.001,1.037,0.092,1.375-0.279L98.75,82.75l0.241-0.094l0.027,0.206
												c0.226-0.131,0.017-0.194-0.13-0.268c0.13-0.028,0.219-0.068,0.265-0.121l-0.503-0.206
												c0.197-0.044,0.402,0.079,0.5-0.092c-0.233-0.095-0.438,0.142-0.6-0.032c0.222-0.135,0.412-0.117,0.204-0.238
												c0.129-0.03,0.214-0.009,0.276,0.042c-0.166-0.109-0.096-0.32-0.371-0.356c0.273-0.15-0.116-0.403,0.364-0.443
												c-0.119-0.026-0.4-0.173-0.434-0.282c0.599,0.135-0.019-0.423,0.601-0.45c-0.268-0.042-0.344-0.172-0.395-0.32
												c-0.024-0.074-0.044-0.152-0.077-0.227c-0.027-0.036-0.064-0.04-0.142-0.064c0.043,0.004,0.128,0.007,0.103,0.016
												c0.035-0.049,0.192-0.057,0.291-0.062c-0.439-0.03-0.556-0.129-0.851-0.277c0.021,0,0.039,0.002,0.059,0.006
												c0.182,0.018,0.309,0.075,0.432,0.12c0.133,0.051,0.262,0.09,0.468,0.135c-0.117-0.028-0.198-0.051-0.265-0.079
												c-0.141-0.055-0.218-0.128-0.429-0.192c0.269,0.054,0.126,0.002,0.514,0.158c-0.595-0.282-0.105-0.07-0.484-0.306
												c0.285,0.102,0.571,0.329,0.371,0.159C98.993,79.621,99.2,79.76,99.2,79.76z M102.17,78.433v0.006
												c-0.043,0.013-0.08,0.024-0.104,0.031C102.088,78.462,102.117,78.452,102.17,78.433z M102.602,78.371
												c-0.055-0.005-0.12,0.002-0.189,0.013c-0.028-0.104-0.026-0.214,0.018-0.214
												C102.415,78.243,102.525,78.291,102.602,78.371z M101.409,76.379c0.062-0.052,0.094,0.004,0.111,0.066
												c-0.032,0.009-0.068,0.025-0.115,0.052l-0.003,0.038C101.401,76.477,101.401,76.421,101.409,76.379z"/>
											<path fill="#E9AD79" d="M101.338,76.795c-0.009,0.008-0.013,0.022-0.024,0.026c0.019,0.023,0.035,0.044,0.05,0.063
												l0.012-0.099L101.338,76.795z"/>
											<path fill="#E9AD79" d="M103.588,89.825l0.004,0.011c0.001-0.015,0.001-0.029,0.008-0.047
												C103.595,89.804,103.592,89.812,103.588,89.825z"/>
											<polygon fill="#E9AD79" points="108.3,78.479 108.309,78.401 108.263,78.464 											"/>
											<path fill="#E9AD79" d="M102.344,87.523c0.015-0.023,0.026-0.05,0.029-0.079C102.36,87.46,102.352,87.489,102.344,87.523
												z"/>
											<path fill="#E9AD79" d="M101.652,86.786l-0.023-0.179C101.629,86.695,101.64,86.748,101.652,86.786z"/>
											<path fill="#E9AD79" d="M101.217,86.127c-0.046,0.03-0.077,0.057-0.105,0.081l-0.001,0.002L101.217,86.127z"/>
											<path fill="#E9AD79" d="M111.443,89.735c0.008-0.004,0.015-0.012,0.02-0.022
												C111.499,89.634,111.469,89.672,111.443,89.735z"/>
											<path fill="#E9AD79" d="M108.197,90.753c0.046-0.049,0.091-0.1,0.133-0.129
												C108.272,90.593,108.226,90.582,108.197,90.753z"/>
											<polygon fill="#E9AD79" points="114.148,87.434 114.152,87.438 114.167,87.421 											"/>
											<path fill="#E9AD79" d="M108.491,90.65c-0.055-0.069-0.106-0.062-0.161-0.026
												C108.378,90.651,108.435,90.689,108.491,90.65z"/>
											<path fill="#E9AD79" d="M99.145,83.48l-0.013-0.037c-0.016,0.013-0.03,0.021-0.042,0.026L99.145,83.48z"/>
											<path fill="#E9AD79" d="M99.09,83.469l-0.055-0.011C99.047,83.473,99.059,83.485,99.09,83.469z"/>
											<path fill="#E9AD79" d="M98.92,83.436l0.115,0.022C99.018,83.434,99.002,83.398,98.92,83.436z"/>
											<path fill="#E9AD79" d="M99.671,84.377l0.094-0.062C99.742,84.326,99.712,84.345,99.671,84.377z"/>
											<path fill="#E9AD79" d="M99.895,84.598c-0.028-0.074,0.063-0.293-0.055-0.331l-0.075,0.048
												C99.923,84.25,99.704,84.664,99.895,84.598z"/>
											<path fill="#E9AD79" d="M99.729,86.509l-0.117-0.263c-0.058,0.115-0.135,0.269-0.239,0.194
												C99.341,86.936,99.521,86.211,99.729,86.509z"/>
											<path fill="#E9AD79" d="M100.186,87.25c-0.143-0.069-0.123,0.121-0.177,0.162
												C100.153,87.405,100.188,87.402,100.186,87.25z"/>
											<path fill="#E9AD79" d="M105.175,91.011l-0.135,0.246C105.167,91.273,105.088,91.16,105.175,91.011z"/>
											<polygon fill="#E9AD79" points="106.784,90.111 106.748,89.915 106.615,90.141 											"/>
											<polygon fill="#E9AD79" points="106.87,92.221 106.806,92.246 107.036,92.2 											"/>
											<path fill="#E9AD79" d="M116.965,88.241l-0.301-0.171C116.667,88.172,116.968,88.417,116.965,88.241z"/>
											<path fill="#E9AD79" d="M117.598,83.453c0.174-0.04,0.29-0.153,0.124-0.234
												C117.693,83.313,117.556,83.403,117.598,83.453z"/>
											<polygon fill="#E9AD79" points="109.809,75.89 109.911,75.787 109.734,75.861 											"/>
										</g>
									</g>
								</g>
							</g>
						</g>
					</g>
					<path fill="#FCCAA0" d="M130.531,39.219c0.145,0.421,4.687,29.212-5.882,39.881c-10.569,10.668-28.849,4.353-33.301-6.581
						c-3.845-9.438-4.588-27.219,2.891-38.087C101.718,23.565,123.153,17.582,130.531,39.219z"/>
					<g>
						<g>
							<path fill="#E6A165" d="M116.653,47.054c-0.315,3.485-0.631,6.971-0.946,10.456c-0.161,1.782-0.323,3.563-0.484,5.345
								c-0.072,0.798,0.31,0.125-0.233,0.231c-0.876,0.171-1.752,0.342-2.628,0.513c-0.519,0.102-0.298,0.892,0.219,0.791
								c1.038-0.203,2.076-0.406,3.114-0.608c0.188-0.037,0.285-0.223,0.301-0.396c0.493-5.444,0.985-10.888,1.479-16.332
								C117.521,46.527,116.7,46.532,116.653,47.054L116.653,47.054z"/>
						</g>
					</g>
					
						<ellipse transform="matrix(0.999 -0.0438 0.0438 0.999 -2.3614 4.6013)" fill="#4F3315" cx="103.82" cy="56.186" rx="1.254" ry="1.795"/>
					
						<ellipse transform="matrix(0.999 -0.0438 0.0438 0.999 -2.3693 5.3677)" fill="#4F3315" cx="121.353" cy="56.773" rx="1.255" ry="1.795"/>
					<g>
						<g>
							<path fill="#E6A165" d="M84.079,59.846c2.034,0.135,3.444,1.845,2.94,3.883c-0.313,1.266-1.748,1.109-2.384,0.213
								c-0.417-0.587-0.28-1.188,0.418-1.396c0.646-0.193,1.333,0.108,1.751,0.595c0.346,0.401,0.923-0.181,0.58-0.58
								c-0.897-1.042-3.7-1.4-3.813,0.53c-0.089,1.521,1.622,2.809,3.053,2.272c1.801-0.676,1.549-3.489,0.624-4.747
								c-0.712-0.967-1.989-1.513-3.169-1.591C83.551,58.99,83.555,59.811,84.079,59.846L84.079,59.846z"/>
						</g>
					</g>
					<g>
						<g>
							<path fill="#E6A165" d="M135.354,60.408c-1.164,0.078-2.357,0.603-3.104,1.508c-1.032,1.25-1.218,3.972,0.461,4.789
								c1.43,0.695,3.05-0.646,3.16-2.079c0.062-0.828-0.715-1.371-1.429-1.521c-0.879-0.185-1.817,0.167-2.395,0.838
								c-0.343,0.399,0.234,0.981,0.58,0.58c0.726-0.843,3.05-0.881,2.246,0.677c-0.504,0.979-1.942,1.208-2.404,0.084
								c-0.84-2.045,0.907-3.924,2.885-4.056C135.879,61.193,135.882,60.373,135.354,60.408L135.354,60.408z"/>
						</g>
					</g>
					<g>
						<ellipse fill="#EF8267" cx="123.862" cy="66.632" rx="3.888" ry="3.141"/>
					</g>
					<g>
						<ellipse fill="#EF8267" cx="97.807" cy="64.766" rx="3.889" ry="3.141"/>
					</g>
					<path fill="#4F3315" d="M100.428,48.719c0.391,0.821,1.91-0.037,3.85-0.959s3.562-1.563,3.171-2.384
						c-0.391-0.82-2.279-0.737-4.218,0.187C101.292,46.486,100.037,47.899,100.428,48.719z"/>
					<path fill="#4F3315" d="M119.921,46.426c-0.354,0.836,1.295,1.406,3.272,2.245c1.977,0.839,3.532,1.629,3.887,0.793
						c0.354-0.836-0.96-2.195-2.937-3.033C122.167,45.591,120.276,45.589,119.921,46.426z"/>
					<path fill="#263247" d="M78.9,106.88c0.111,0.073,0.218,0.15,0.33,0.223c13.366,9.144,43.888,10.25,56.576-0.187
						c17.56,6.067,21.771,13.118,23.273,36.891h-51.049h-1.462H55.522C57.025,119.986,61.252,112.955,78.9,106.88z"/>
					<path fill="#141F2E" d="M75.979,132.257c24.63,13.262,56.075,6.681,81.561-2.085c0.729,3.825,1.204,8.307,1.541,13.635h-51.049
						h-1.462H55.522c0.657-10.429,1.839-17.64,4.438-22.962C64.787,125.31,70.182,129.152,75.979,132.257z"/>
					<path fill="#F5A700" d="M83.155,143.807v-38.32c0,0-5.583-0.699-9.837,3.556v34.764H83.155z"/>
					<path fill="#F5A700" d="M131.551,143.807v-38.32c0,0,5.583-0.699,9.838,3.556v34.764H131.551z"/>
					<g>
						<g>
							<path fill="#E6A165" d="M104.466,67.618c2.859,5.258,11.927,5.945,14.31-0.098c0.194-0.493-0.6-0.704-0.791-0.218
								c-2.128,5.396-10.315,4.491-12.81-0.098C104.922,66.739,104.214,67.153,104.466,67.618L104.466,67.618z"/>
						</g>
					</g>
					<path fill="#5F3908" d="M99.041,26.257c0,0,8.076,13.26,11.565,13.26c3.49,0,0.994-7.079,0.994-7.079
						s5.388,12.396,21.34,13.725c0,0-0.35-25.468-21.92-23.896L99.041,26.257z"/>
					<path fill="#4F3315" d="M102.564,26.224c0,0-5.908,23.381-14.914,25.311c-2.07,0.443-0.257-9.985-0.181-12.283
						c0.255-7.608,6.846-13.577,14.443-13.082C102.127,26.184,102.345,26.201,102.564,26.224z"/>
				</g>
				<polygon fill="#4F3315" points="103.193,55.069 100.85,55.119 103.209,56.728 				"/>
				<polygon fill="#4F3315" points="121.717,55.575 124.019,56.02 121.421,57.206 				"/>
			</g>
			
				<rect x="47.576" y="136.606" transform="matrix(0.9997 -0.0244 0.0244 0.9997 -4.4107 2.8196)" fill="#197E85" width="131.184" height="90.558"/>
			
				<rect x="44.358" y="133.389" transform="matrix(0.9997 -0.0244 0.0244 0.9997 -4.3324 2.7396)" fill="#FFFFFF" width="131.183" height="90.556"/>
			<path fill="#FCCAA0" d="M43.295,172.121c0,0,23.612,3.01-1.212,4.046c0,0-5.902-0.752-3.211-4.443c0,0-2.377-1.976,0.07-3.476
				c0,0-1.862-2.616,1.226-3.602c0,0-3.114-2.755,2.574-3.199c5.688-0.443,15.561,1.924,2.321,3.047c0,0,19.971,0.45,0.025,3.74
				C45.089,168.234,69.274,169.535,43.295,172.121z"/>
			<path fill="#FCCAA0" d="M174.681,166.617c0,0-22.698,7.169-0.597-4.181c0,0,5.674-1.792,4.778,2.688c0,0,2.987,0.795,1.394,3.186
				c0,0,2.787,1.593,0.398,3.783c0,0,3.982,1.195-0.995,3.981c-4.979,2.787-14.934,4.777-3.387-1.791c0,0-18.317,7.962-1.592-3.385
				C174.681,170.898,152.181,179.855,174.681,166.617z"/>
		</g>
	</g>
	<g>
		<text transform="matrix(1 0 0 1 87.8848 186.5229)" font-family="'DFEr-W3-WINP-BF'" font-size="23.1556">Sandy</text>
	</g>
	<text transform="matrix(1 0 0 1 75.2656 164.0117)" font-family="'DFEr-W3-WINP-BF'" font-size="23.1556">王嘉敏</text>
	<g>
		<text transform="matrix(1 0 0 1 58.6172 207.2466)" font-family="'NotoSansCJKtc-Regular-B5pc-H'" font-size="9.0049">sun4023401@gmail.com</text>
	</g>
</g>
</svg>
