<?xml version="1.0" encoding="utf-8"?>
<!-- Generator: Adobe Illustrator 16.0.0, SVG Export Plug-In . SVG Version: 6.00 Build 0)  -->
<!DOCTYPE svg PUBLIC "-//W3C//DTD SVG 1.1//EN" "http://www.w3.org/Graphics/SVG/1.1/DTD/svg11.dtd">
<svg version="1.1" id="圖層_1" xmlns="http://www.w3.org/2000/svg" xmlns:xlink="http://www.w3.org/1999/xlink" x="0px" y="0px"
	 width="230px" height="240.88px" viewBox="0 0 230 240.88" enable-background="new 0 0 230 240.88" xml:space="preserve">
<g>
	<g>
		<circle fill="#76C9CE" cx="115" cy="116.2" r="110"/>
		<g>
			<g>
				<g>
					<defs>
						<path id="SVGID_29_" d="M89.941,109.941c20.472-6.381,14.889-27.518,14.889-27.518l9.438-1.151v-0.178L115,81.183l0.73-0.089
							v0.178l9.439,1.151c0,0-5.583,21.137,14.889,27.518c20.473,6.381,25.125,12.762,26.721,38.021h-51.048h-1.462H63.221
							C64.816,122.703,69.469,116.322,89.941,109.941z"/>
					</defs>
					<clipPath id="SVGID_2_">
						<use xlink:href="#SVGID_29_"  overflow="visible"/>
					</clipPath>
					<path clip-path="url(#SVGID_2_)" fill="#FCCAA0" d="M89.941,109.941c20.472-6.381,14.889-27.518,14.889-27.518l9.438-1.151
						v-0.178L115,81.183l0.73-0.089v0.178l9.439,1.151c0,0-5.583,21.137,14.889,27.518c20.473,6.381,25.125,12.762,26.721,38.021
						h-51.048h-1.462H63.221C64.816,122.703,69.469,116.322,89.941,109.941z"/>
					<g clip-path="url(#SVGID_2_)">
						<path fill="#E6A165" d="M105.496,87.435c-0.131-2.986-0.666-5.011-0.666-5.011l9.438-1.151v-0.178L115,81.183l0.73-0.089
							v0.178l9.439,1.151c0,0-0.912,3.453-0.647,7.988C122.451,94.639,115,100.502,105.496,87.435z"/>
						<g>
							<g>
								<g>
									<g>
										<path fill="#E9AD79" d="M106.084,87.006c-0.094,0.031-0.256,0.171-0.173,0.212l0.327-0.167L106.084,87.006z"/>
										<path fill="#E9AD79" d="M105.877,87.852c0.199-0.026,0.512-0.122,0.74-0.373c-0.335,0.133-0.232,0.027-0.626,0.191
											c-0.083-0.042,0.007-0.186,0.122-0.253c-0.092,0.031-0.012-0.15-0.222-0.051c-0.162,0.252-0.087,0.371,0.183,0.347
											C106.028,87.785,105.935,87.818,105.877,87.852z"/>
										<path fill="#E9AD79" d="M111.313,94.056l-0.021-0.066C111.291,94.018,111.299,94.04,111.313,94.056z"/>
										<path fill="#E9AD79" d="M116.214,96.121c-0.043,0.005-0.064,0.039-0.069,0.072
											C116.187,96.172,116.221,96.153,116.214,96.121z"/>
										<path fill="#E9AD79" d="M117.166,96.555c-0.022-0.009-0.039-0.017-0.059-0.024
											C117.129,96.564,117.152,96.583,117.166,96.555z"/>
										<path fill="#E9AD79" d="M111.313,94.056l0.055,0.172C111.441,94.135,111.356,94.116,111.313,94.056z"/>
										<path fill="#E9AD79" d="M107.248,88.198c-0.031-0.01-0.072-0.007-0.12,0.004c0.027,0.008,0.051,0.017,0.072,0.028
											L107.248,88.198z"/>
										<path fill="#E9AD79" d="M109.294,92.883l-0.033-0.027c-0.035,0.024-0.077,0.054-0.123,0.087L109.294,92.883z"/>
										<path fill="#E9AD79" d="M107.962,91.706c0.019,0.038,0.247-0.168,0.353-0.252c-0.105,0.073-0.169,0.095-0.211,0.087
											C108.062,91.581,108.016,91.633,107.962,91.706z"/>
										<path fill="#E9AD79" d="M106.517,89.278l-0.063-0.011C106.472,89.27,106.495,89.274,106.517,89.278z"/>
										<path fill="#E9AD79" d="M110.249,93.742c-0.025,0.039-0.044,0.074-0.053,0.098
											C110.219,93.809,110.236,93.776,110.249,93.742z"/>
										<path fill="#E9AD79" d="M106.778,85.296c-0.022,0.002-0.036,0.004-0.055,0.006
											C106.755,85.309,106.777,85.31,106.778,85.296z"/>
										<polygon fill="#E9AD79" points="105.417,87.438 105.399,87.411 105.227,87.413 										"/>
										<path fill="#E9AD79" d="M119.058,96.708l-0.01-0.003C119.007,96.749,119.034,96.738,119.058,96.708z"/>
										<path fill="#E9AD79" d="M126.23,83.54c-0.335,0.283-0.289-0.352-0.681,0.059C125.685,83.529,125.98,83.893,126.23,83.54z"
											/>
										<path fill="#E9AD79" d="M107.244,88.257c0.017,0.015,0.033,0.032,0.045,0.051
											C107.277,88.278,107.263,88.263,107.244,88.257z"/>
										<path fill="#E9AD79" d="M125.549,83.598l-0.003,0l-0.036,0.038C125.526,83.621,125.536,83.611,125.549,83.598z"/>
										<path fill="#E9AD79" d="M122.768,94.646c-0.041-0.037-0.08-0.058-0.118-0.078
											C122.671,94.591,122.703,94.615,122.768,94.646z"/>
										<path fill="#E9AD79" d="M119.906,95.8l0.084,0.011C119.953,95.795,119.927,95.795,119.906,95.8z"/>
										<path fill="#E9AD79" d="M123.616,93.255c0.044-0.013,0.085,0.005,0.091-0.063c-0.015-0.007-0.027-0.01-0.039-0.013
											C123.686,93.223,123.683,93.256,123.616,93.255z"/>
										<path fill="#E9AD79" d="M124.607,92.003c-0.025-0.004-0.045-0.007-0.068-0.01l-0.015,0.051L124.607,92.003z"/>
										<path fill="#E9AD79" d="M106.733,83.479c-0.046-0.085-0.094-0.173-0.141-0.26
											C106.692,83.427,106.673,83.508,106.733,83.479z"/>
										<path fill="#E9AD79" d="M107.113,88.307c0.066-0.042,0.104-0.056,0.13-0.049c-0.013-0.011-0.028-0.019-0.043-0.027
											C107.163,88.256,107.128,88.282,107.113,88.307z"/>
										<path fill="#E9AD79" d="M121.866,91.576l0.166-0.118C121.972,91.48,121.913,91.523,121.866,91.576z"/>
										<path fill="#E9AD79" d="M116.5,82.546l-0.058,0.03C116.462,82.585,116.482,82.579,116.5,82.546z"/>
										<path fill="#E9AD79" d="M122.365,90.973c0.108,0.037,0.182,0.045,0.238,0.037c-0.015-0.021-0.025-0.041-0.05-0.066
											L122.365,90.973z"/>
										<path fill="#E9AD79" d="M106.591,83.216l0.001,0.003L106.591,83.216z"/>
										<path fill="#E9AD79" d="M106.899,83.915c-0.252-0.175-0.492-0.343-0.738-0.514c-0.006-0.007-0.012-0.014-0.016-0.019
											c-0.036-0.098,0.392,0.26,0.619,0.423c-0.115-0.093-0.433-0.425-0.367-0.417c0.061,0.059,0.088,0.08,0.152,0.155
											c-0.123-0.154-0.063-0.158-0.028-0.179c0.036-0.02,0.054-0.054,0.012-0.241c0.024,0.033,0.042,0.064,0.058,0.093
											c-0.104-0.19-0.208-0.384-0.27-0.523c0.063-0.016,0.045-0.264,0.166-0.013c-0.048-0.001-0.012,0.102,0.002,0.183
											l0.027-0.119c0.183,0.359-0.044,0.138,0.071,0.406c0.041-0.13,0.094-0.454,0.281-0.37
											c0.052,0.181-0.071,0.228-0.086,0.256c-0.033,0.031-0.043,0.053,0.029,0.21c0.005-0.001-0.132-0.126-0.137-0.125
											c0.234,0.561-0.054-0.034,0.18,0.568c0.055,0.047-0.013,0.008,0.088-0.053c0.082-0.059,0.164-0.117,0.328-0.083
											c0.044-0.214-0.063-0.3-0.02-0.514c0.398-0.427,0.474,0.879,0.737,0.346c0.053-0.256,0.024-0.727,0.291-0.511
											l-0.025,0.427c0.311,0.001,0.096-0.622,0.452-0.383c-0.035,0.171-0.222,0.169-0.169,0.213
											c0.25,0.302,0.115-0.255,0.274-0.276l0.082,0.364c0.317-0.101,0.64-0.414,0.991-0.528
											c-0.006,0.112-0.052,0.236,0.047,0.337c0.429-0.244,0.974-0.082,1.44,0.079l0.125-0.34
											c0.04-0.001,0.091,0.134,0.057,0.202c0.187,0.098-0.018-0.203,0.048-0.339c0.094-0.035,0.152,0.166,0.104,0.27
											c0.265-0.309,0.781-0.694,1.143-0.395l-0.049,0.103c0.264,0.097,0.192-0.689,0.46-0.422l-0.037,0.062
											c0.202,0.024,0.404-0.009,0.602-0.041c0.099-0.016,0.197-0.031,0.293-0.039c0.103-0.008,0.198-0.008,0.219,0.017
											c0.025,0.041,0.211,0.115,0.307,0.246c0.078-0.462,0.534,0.206,0.569-0.438c0.133,0.138,0.192,0.237,0.253,0.323
											c0.044,0.086,0.177,0.159,0.177,0.242c0.01,0.028-0.004,0.055,0.033,0.089c0.111,0.044,0.224-0.377,0.375-0.425
											l-0.041,0.334l0.239-0.325l0.05,0.414l0.145-0.068c-0.051-0.027-0.093-0.165-0.073-0.26c0.229-0.124,0.478,0.3,0.46,0.472
											l0.53-0.218c-0.028,0.133-0.117,0.168-0.194,0.245c0.308-0.306,0.002,0.358,0.284,0.078
											c-0.022-0.08,0.043-0.197,0.058-0.264c0.094,0.218,0.367,0.256,0.581,0.197l-0.069,0.225
											c0.358,0.107,0.786-0.009,1.195,0.049c-0.133-0.126-0.047-0.521,0.079-0.544l0.002,0.359
											c0.106-0.208-0.108-0.149,0.086-0.396c0.148,0.061,0.05,0.415-0.053,0.519l0.203-0.098
											c-0.003,0.107-0.054,0.157-0.083,0.29c0.105-0.209,0.275,0.396,0.436,0.03l-0.003,0.106
											c0.41,0.057,0.612-0.041,0.949-0.014c0.046-0.304,0.168-0.219,0.3-0.453c0.233,0.129,0.474,0.405,0.773,0.418
											c0.228-0.125,0.094-0.25,0.212-0.419c-0.021,0.28,0.278,0.292,0.098,0.472c0.361,0.002,0.461,0.004,0.94-0.162
											c-0.034-0.12-0.082-0.177-0.042-0.268c0.107-0.033,0.124,0.135,0.092,0.266l-0.014,0.027
											c0.161-0.203,0.272,0.056,0.21,0.239c-0.029,0.167-0.162,0.279,0.172,0.046l-0.036,0.024
											c0.093-0.055,0.234-0.132,0.235-0.103l0.175-0.083c-0.073,0.106-0.236,0.124-0.448,0.299
											c0.383-0.162,0.12,0.082,0.114,0.126c-0.004,0.024,0.018,0.04,0.094,0.059c-0.168,0.043-0.267,0.068-0.368,0.094
											c-0.048,0.037-0.022-0.027-0.025,0.171c0.009,0.289,0.059,0.591-0.228,0.762l0.196,0c0.177,0.128-0.126,0.113-0.18,0.186
											c0.152,0.007,0.188-0.093,0.285-0.016c0.128,0.906-0.461,1.801-0.665,2.729c-0.062,0.339,1.001,0.215,0.529,0.625
											l-0.359-0.125c0.211,0.343,0.208,0.686,0.203,1.031c-0.007,0.316-0.008,0.795,0.176,0.782
											c-0.084-0.022-0.193-0.033-0.193-0.045c-0.255-0.008-0.017,0.062,0.175,0.16c-0.037,0.017-0.187-0.062-0.294-0.093
											c-0.075-0.022-0.002,0.016,0.05,0.068c0.033,0.084,0.051,0.169-0.077,0.126c-0.042-0.013-0.056-0.071-0.064-0.099
											c0.073,0.128-0.206,0.272,0.087,0.375c-0.229,0.092-0.108,0.404-0.351,0.435c0.207,0.291-0.341,0.18,0.011,0.503
											c-0.376-0.317-0.534,0.022-0.453,0.276c-0.082-0.132-0.19-0.02-0.309-0.197c-0.093,0.11-0.119,0.271,0.08,0.429
											c-0.6-0.228-0.078,0.737-0.702,0.276c-0.151,0.481-0.381,0.879-0.668,1.192c-0.249-0.421,0.348-0.287,0.037-0.705
											c-0.176,0.369-0.154,0.854-0.55,0.93c-0.117-0.015-0.05-0.215-0.062-0.304c-0.237,0.357-0.65,0.267-0.864,0.627
											c-0.014-0.044,0.003-0.103,0.021-0.149c-0.056,0.036-0.164-0.02-0.085,0.19l0.041-0.078
											c0.215,0.271-0.037,0.732-0.008,0.899c-0.075-0.647-0.384-0.057-0.426-0.888c-0.029,0.051-0.054,0.167-0.006,0.31
											c-0.075-0.026-0.114-0.106-0.096-0.287c-0.191,0.176-0.06,0.386-0.273,0.429c-0.021-0.107,0.013-0.157,0.008-0.287
											c-0.058,0.231-0.134,0.458-0.333,0.398c0.001-0.066-0.032-0.146,0.021-0.154c-0.292,0.076-0.486,0.628-0.863,0.435
											c0.095-0.472-0.125-0.155-0.142-0.563l-0.183,0.12l0.07,0.201c-0.161-0.013-0.328,0.28-0.465,0.132l0.136-0.157
											l-0.316,0.049l0.163,0.17c-0.193,0.194-0.028,0.52-0.253,0.38c0.054-0.035-0.181-0.028-0.235-0.278l0-0.001
											c-0.104,0.114-0.219,0.233-0.331,0.112c-0.008-0.134,0.11-0.439,0.105-0.528c-0.146,0.318-0.405,0.014-0.596,0.335
											c0.056-0.074,0.11-0.281,0.109-0.326l-0.138,0.251c-0.056-0.106-0.056-0.15,0.001-0.312
											c-0.216-0.113-0.065,0.522-0.282,0.226c0.028-0.015,0.03-0.058,0.086-0.085c-0.239-0.191-0.592-0.001-0.796-0.23
											c0.077-0.411,0.251-0.01,0.291-0.367c-0.365-0.054-0.914,0.154-1.21-0.104l0.042,0.073
											c-0.311,0.491-0.119-0.383-0.411-0.232c0.062-0.015,0.208-0.252,0.166-0.202c-0.175-0.205-0.519-0.129-0.952-0.19
											l0.122-0.099c-0.054-0.197-0.293-0.281-0.387-0.434c-0.125,0.094-0.189,0.019-0.267,0.229
											c0.09-0.973-1.069-0.228-0.979-1.077c0.043,0.034,0.182-0.017,0.149-0.044l-0.382-0.145
											c-0.143,0.211-0.062,0.148-0.127,0.351c-0.135,0.082-0.298,0.097-0.371,0.03c0.244-0.006,0.266-0.307,0.304-0.462
											c-0.042,0.066-0.118,0.113-0.166,0.176c0.147-0.472-0.365,0.355-0.374-0.059l0.101-0.088
											c-0.124-0.02-0.313,0.04-0.372-0.067c0.167-0.245,0.176-0.022,0.345-0.193c-0.125-0.096-0.612,0.186-0.514-0.126
											c0.104-0.01,0.178,0.055,0.282,0.043c0.124-0.355,0.05-0.303,0.006-0.424l0.003,0.014l-0.08-0.298l-0.018,0.114
											c-0.681,0.4-0.383-0.186-0.928-0.035c0.523-0.137,0.227-0.158,0.48-0.372c0.02-0.113,0.023-0.258,0.111-0.301
											c-0.282,0.094,0.012-0.293-0.394-0.158c0.073-0.078-0.083-0.106,0.134-0.266c-0.171-0.062-0.111,0.153-0.219,0.234
											c-0.445,0.058-0.063-0.732-0.677-0.676c-0.358-0.107-0.672,0.079-1.001-0.036c0.069-0.186,0.352-0.184,0.352-0.184
											c0.019-0.223-0.077-0.299-0.267-0.34c0.092-0.035,0.134-0.108,0.198-0.219c-0.097-0.076-0.354,0.179-0.331-0.043
											c0.111-0.052,0.282-0.143,0.411-0.172c-0.166-0.048-0.407-0.037-0.573-0.095c0.123-0.145,0.277-0.102,0.404-0.136
											c-0.166-0.079-0.394-0.234-0.659-0.097l-0.019,0.148c-0.048-0.04,0.182-0.178,0.251-0.175
											c0.27-0.029,0.044,0.224-0.036,0.296l-0.118-0.042c-0.428,0.469,0.338,0.277,0.442,0.461l-0.412,0.214l0.432-0.065
											c-0.063,0.11-0.241,0.295-0.36,0.255c-0.078,0.262,0.211,0.004,0.1,0.266c-0.021,0.036-0.042,0.045-0.064,0.046l0.2,0.031
											c-0.093,0.038-0.231,0.224-0.241,0.11c-0.026,0.378,0.544,0.118,0.346,0.418l-0.036,0c0.36,0.189,0.278-0.187,0.758-0.23
											l-0.497,0.684l0.276-0.192c0.017,0.037,0.048,0.112-0.061,0.189c0.267-0.042,0.092-0.115,0.309-0.195
											c-0.104,0.344,0.45,0.283,0.086,0.675c0.231-0.123,0.023-0.265,0.288-0.238c-0.381,0.432,0.227,0.103,0.154,0.405
											c-0.25,0.166-0.25-0.061-0.322,0.246c0.433-0.27,0.154,0.319,0.326,0.358c0.288-0.274,0.343,0.107,0.609,0.185
											c-0.104,0.084,0.181,0.475,0.256,0.736l-0.05,0.045c0.304-0.267,0.428-0.055,0.61-0.003
											c-0.163,0.177-0.249,0.228-0.39,0.245l0.123,0.108c0.114-0.072,0.197-0.091,0.308-0.058L109.342,93
											c0.179,0.131,0.56,0.013,0.653,0.341c0.184-0.211,0.319-0.743,0.657-0.713c-0.086,0.125-0.238,0.336-0.335,0.337
											c0.032,0,0.147-0.043,0.146,0.038l-0.248,0.128c0.029,0.167,0.183-0.126,0.246-0.045c-0.135,0.17-0.035,0.167-0.152,0.294
											c-0.034,0.001-0.015-0.125-0.097-0.082c0.064,0.103,0.099,0.285,0.038,0.444c0.066-0.104,0.175-0.231,0.259-0.204
											c0.183,0.118-0.096,0.253-0.059,0.42c0.131-0.089,0.157,0.118,0.347-0.143c0.051,0.038-0.026,0.168-0.056,0.254
											c0.173-0.048,0.464,0.267,0.548-0.09l-0.011-0.035c0.008,0,0.013-0.001,0.023-0.001l0,0l0,0
											c0.475-0.067,0.543,0.566,0.938,0.627l-0.053,0.094c0.25,0,0.468,0.167,0.709,0.029c0.057,0.027,0.051,0.243-0.03,0.347
											c0.189-0.001,0.251-0.1,0.404,0.159c-0.233,0.104-0.013,0.176-0.218,0.056c0.166,0.171,0.148,0.358,0.483,0.174
											c-0.182,0.226,0.032,0.386,0.163,0.348l-0.078-0.243c0.126,0.006,0.214,0.068,0.309,0.124l-0.178,0.323
											c0.328,0.589,1.021-0.464,1.183,0.337c0.178-0.219-0.209-0.235-0.029-0.499c0.188,0.099,0.307,0.653,0.379,0.67
											c0.274,0.25,0.368-0.471,0.653-0.297c-0.025-0.133-0.011-0.481,0.217-0.576c0.194,0.065,0.209,0.564,0.062,0.656
											c-0.053,0.007-0.075-0.037-0.068-0.08c-0.074,0.042-0.173,0.083-0.102,0.234l0.042-0.125
											c0.094,0.142,0.403,0.153,0.317,0.359c0.18-0.115,0.084-0.206-0.034-0.284c0.274,0.206,0.443,0.03,0.738,0.153
											c-0.049-0.071-0.092-0.224-0.046-0.223c0.431,0.152,0.181-0.251,0.456-0.318c0.173,0.184-0.025,0.476,0.251,0.286
											c0.191,0.118,0.074,0.339,0.007,0.452c0.249-0.273,0.537,0.104,0.711,0.12l-0.133,0.129
											c0.081-0.077,0.153-0.087,0.228-0.1l-0.129-0.241c0.093,0.03,0.166,0.018,0.184,0.125
											c0.055-0.183-0.143-0.411-0.023-0.672c0.135,0.106,0.29-0.207,0.407,0.116c-0.368-0.033,0.122,0.33-0.165,0.451
											c0.049-0.054,0.121-0.065,0.216-0.042c0.022,0.034,0.005,0.072-0.014,0.097c0.419,0.208,0.064-0.412,0.4-0.504
											c0.012,0.199,0.187,0.329,0.232,0.271c-0.143,0.039-0.16-0.289-0.086-0.469c0.258,0.07,0.19-0.183,0.302-0.207
											l-0.146-0.022c-0.023-0.196,0.084-0.21,0.199-0.321c0.067,0.136-0.087,0.146-0.014,0.188
											c0.024-0.374,0.485,0.186,0.609-0.126c0.155,0.072,0.165,0.326,0.293,0.363c0.131-0.345,0.391,0.104,0.548-0.221
											c-0.201-0.186-0.177-0.126-0.133-0.443c0,0-0.316,0.381-0.316,0.381l0.079-0.472c-0.117,0.062-0.175,0.278-0.268,0.277
											c0.026-0.253,0.041-0.188-0.113-0.352c0.345,0.264,0.204-0.366,0.51-0.239l0.324,0.559
											c0.443,0.069,0.323-0.59,0.751-0.703l-0.175-0.011c-0.104-0.239,0.186-0.182,0.229-0.346
											c0.123,0.178,0.238,0.187,0.368,0.254c-0.105-0.118,0.254-0.189,0-0.542l0.327,0.091c0.335-0.146-0.135-0.709,0.132-0.874
											c0.1,0.233,0.312,0.236,0.277,0.509c0.079-0.076,0.176-0.118,0.07-0.224c0.144,0.047-0.006-0.416,0.21-0.349
											c-0.04-0.098-0.199-0.259-0.108-0.334c0.042,0.019,0.08,0.071,0.08,0.071c-0.079-0.071,0.01-0.234-0.237-0.312
											c0.731,0.19,0.512-0.713,1.136-0.61c0.074-0.233,0.162-0.506,0.254-0.695c0.049,0.044,0.093,0.055,0.053,0.079
											c0.331-0.173-0.442-0.471-0.078-0.68c0.429-0.07,0.083,0.251,0.266,0.183c0.348,0.103,0.395-0.045,0.412-0.213
											c-0.02-0.182-0.162-0.383,0.05-0.527l0.045,0.081c0.117-0.096,0.039-0.332-0.054-0.398
											c-0.094-0.102-0.215-0.216-0.192-0.342c0,0,0.063,0.011,0.107-0.001c-0.367-0.162-0.492-0.49-0.593-0.735
											c0.278,0.076,0.148,0.111,0.43,0.064c-0.041-0.109-0.454,0.034-0.532-0.187c0.152-0.071,0.286-0.228,0.588-0.244
											l0.015,0.204c0.39-0.101-0.012-0.263,0.059-0.37l0.17,0.017c-0.05-0.31-0.478-0.328-0.435-0.665l-0.13,0.03
											c-0.417-0.204,0.246-0.145-0.062-0.345l0.435-0.033c-0.098-0.125-0.393-0.45-0.457-0.677
											c0.311,0.148,0.456,0.413,0.638,0.58c0.009-0.119-0.006-0.406-0.215-0.484c0.039,0.051,0.14,0.119,0.07,0.163
											c-0.329-0.169-0.48-0.38-0.453-0.622c0.829,0.117,0.268-0.608,0.937-0.708c-0.13-0.225-0.071-0.429,0.023-0.634
											c0.099-0.232,0.208-0.318,0.269-0.832c-0.706,0.267,0.023-0.244-0.667-0.17c-0.017-0.153,0.006-0.21,0.054-0.231
											c0.132-0.139,0.271-0.295,0.303-0.438l0.168-0.156c0.117-0.125,0.173-0.017,0.27,0.034
											c0.016,0.022,0.039,0.033,0.082,0.018c0.007-0.018,0.014-0.035,0.017-0.045c-0.093-0.322,0.231-0.218,0.249-0.503
											c-0.196,0.134-0.38,0.006-0.39-0.187c0,0-0.032,0.088-0.064,0.176c-0.039,0.09-0.077,0.181-0.077,0.181
											c-0.246-0.145-0.14-0.271-0.082-0.41c0.071-0.135,0.102-0.272-0.074-0.355l0.174,0.015
											c-0.029-0.019-0.057-0.049-0.086-0.085c-0.182-0.185-0.48-0.621-0.883-0.38c0.02-0.084,0.101-0.277,0.198-0.239
											c-0.053-0.082-0.122-0.151-0.202-0.207c-0.756,0-1.645,0.289-1.857-0.016l0.055-0.158
											c-0.088,0.036-0.184,0.286-0.266,0.109c0.014-0.066,0.055-0.157,0.018-0.172c-0.051,0.05-0.257,0.255-0.354,0.146
											l0.118-0.17c-0.404-0.269-0.721,0.357-1.098,0.421c0.063-0.477-0.256-0.677-0.415-0.777l0.015-0.066
											c-0.495-0.125-0.906,0.283-1.396,0.409c-0.221-0.556-0.951-0.346-1.377-0.697c0.06,0.096-0.061,0.37-0.149,0.407
											c-0.096-0.111-0.345,0.292-0.27-0.144l0.038,0.014c-0.025-0.44-0.265-0.355-0.438-0.39l-0.104,0.569
											c-0.348-0.893-1.239,0.148-1.391-0.63c-0.143,0.127-0.226,0.114-0.456,0.229l0.033-0.308
											c-0.013-0.004-0.025-0.007-0.033-0.01c-0.313-0.038-0.323-0.065-0.476-0.075c-0.123-0.009-0.255,0-0.441,0.036
											l0.078-0.221c-0.215-0.021-0.272,0.893-0.47,0.911l-0.06-0.462c-0.044,0.001-0.159-0.009-0.265-0.024l-0.201-0.009
											l-0.123-0.025c-0.082-0.017-0.163-0.031-0.242-0.032c-0.159-0.002-0.31,0.049-0.441,0.243
											c-0.002-0.068-0.009-0.202,0.049-0.229c-0.177,0.011-0.718-0.221-0.572,0.399c-0.058-0.409-0.389,0.011-0.566,0.218
											l-0.008-0.306c-0.119,0.408-0.11,0.515-0.333,0.652c-0.062-0.032-0.081-0.235,0.003-0.168
											c-0.208-0.134-0.108,0.306-0.356,0.174l0.059-0.204c-0.195,0.002-0.167,0.104-0.243,0.342
											c-0.105,0.137-0.375-0.028-0.439-0.297c-0.004,0.17-0.08,0.406-0.204,0.342c-0.029-0.101,0.004-0.17,0.021-0.205
											c-0.349-0.163-0.432,0.414-0.692,0.146c-0.018-0.099-0.039-0.147-0.061-0.175c0.256-0.026,0.464-0.037,0.448-0.012
											c-0.037-0.278-0.25-0.3-0.136-0.707c-0.138,0.231-0.362,0.725-0.581,0.621c-0.013-0.025-0.026-0.051-0.039-0.093
											l0.017-0.034c-0.05-0.021-0.088,0.01-0.121,0.062c-0.07-0.038-0.116-0.066-0.178-0.062
											c-0.054-0.227-0.253-0.093-0.357-0.091c0.048,0.304-0.093,0.272,0.066,0.507c-0.019-0.02,0.015-0.039,0.082-0.061
											c0.014-0.011,0.032-0.018,0.04-0.037l-0.003,0.027c0.067-0.014,0.154-0.033,0.253-0.054
											c-0.061,0.166-0.129,0.307-0.265,0.153c-0.031,0.202-0.063,0.411-0.079,0.511c-0.197-0.407-0.499-0.601-0.571-0.858
											c-0.292,0.212-0.726,0.21-0.848,0.809c-0.08,0.085-0.125-0.15-0.169-0.236c0.044-0.064,0.106-0.063,0.124-0.149
											c-0.16,0.17-0.522,0.127-0.512,0.532c-0.249-0.151,0.078-0.385-0.223-0.279l0.026-0.127
											c-0.196-0.21-0.561-0.09-0.792,0.087c-0.24,0.179-0.373,0.42-0.581,0.514c-0.108,0.112-0.292,0.119-0.595,0.071
											c0.072,0.007,0.108,0.012,0.158,0.054c-0.205,0.032-0.437,0.101-0.536,0.229c-0.022,0.292,0.003,0.659-0.042,1.04
											c0.095,0.375,0.113,0.729-0.036,1.124c-0.083,0.226,0.174,0.21,0.387,0.312l-0.321,0.091l0.407,0.169
											c0.318,0.286-0.738,0.636-0.174,0.974l0.216-0.073c-0.027,0.147,0.173,0.444-0.084,0.441
											c0.042,0.011,0.234,0.028,0.124,0.094l-0.172,0.018l0.321,0.331c-0.107,0.282-0.686,0.004-0.696,0.399
											c0.075,0.14,0.523,0.393,0.636,0.333c0.006-0.06,0.1-0.158,0.273-0.172l0.097,0.133c0.51,0,1.036,0.092,1.375-0.279
											l-0.325-0.228l0.242-0.094l0.028,0.206c0.225-0.131,0.016-0.194-0.131-0.268c0.13-0.028,0.219-0.068,0.265-0.121
											l-0.502-0.206c0.197-0.044,0.402,0.079,0.5-0.092c-0.234-0.095-0.438,0.142-0.599-0.032
											c0.221-0.135,0.412-0.117,0.203-0.238c0.129-0.03,0.215-0.009,0.277,0.042c-0.167-0.109-0.096-0.32-0.371-0.356
											c0.273-0.15-0.116-0.403,0.364-0.443c-0.118-0.026-0.4-0.173-0.433-0.282c0.599,0.135-0.019-0.423,0.6-0.45
											c-0.267-0.043-0.343-0.172-0.394-0.32c-0.025-0.074-0.044-0.153-0.078-0.227c-0.027-0.036-0.065-0.04-0.141-0.064
											c0.042,0.004,0.127,0.007,0.102,0.016c0.036-0.049,0.193-0.057,0.291-0.062c-0.439-0.03-0.555-0.129-0.85-0.277
											c0.02,0,0.04,0.002,0.06,0.006c0.181,0.018,0.307,0.075,0.429,0.119c0.133,0.052,0.262,0.09,0.469,0.136
											c-0.118-0.028-0.199-0.051-0.265-0.079c-0.141-0.055-0.218-0.129-0.428-0.193c0.268,0.054,0.125,0.003,0.513,0.159
											c-0.595-0.282-0.105-0.071-0.484-0.306c0.284,0.102,0.571,0.329,0.371,0.159
											C106.692,83.776,106.899,83.915,106.899,83.915z M109.87,82.587l0,0.006c-0.043,0.013-0.08,0.024-0.104,0.031
											C109.788,82.617,109.817,82.606,109.87,82.587z M110.301,82.526c-0.054-0.005-0.12,0.001-0.189,0.013
											c-0.029-0.104-0.027-0.214,0.017-0.214C110.115,82.398,110.225,82.445,110.301,82.526z M109.109,80.534
											c0.062-0.052,0.093,0.005,0.111,0.066c-0.032,0.01-0.068,0.025-0.115,0.052l-0.003,0.039
											C109.101,80.631,109.101,80.576,109.109,80.534z"/>
										<path fill="#E9AD79" d="M109.038,80.95c-0.009,0.008-0.013,0.021-0.025,0.026c0.019,0.024,0.035,0.045,0.05,0.063
											l0.012-0.099L109.038,80.95z"/>
										<path fill="#E9AD79" d="M111.288,93.979l0.004,0.011c0-0.014,0-0.028,0.007-0.047
											C111.294,93.958,111.292,93.967,111.288,93.979z"/>
										<polygon fill="#E9AD79" points="115.999,82.633 116.008,82.556 115.962,82.618 										"/>
										<path fill="#E9AD79" d="M110.043,91.677c0.015-0.023,0.027-0.05,0.029-0.079C110.06,91.614,110.051,91.644,110.043,91.677
											z"/>
										<path fill="#E9AD79" d="M109.352,90.94l-0.024-0.178C109.328,90.849,109.339,90.902,109.352,90.94z"/>
										<path fill="#E9AD79" d="M108.917,90.282c-0.046,0.03-0.077,0.056-0.106,0.081l0,0.002L108.917,90.282z"/>
										<path fill="#E9AD79" d="M119.143,93.889c0.008-0.004,0.015-0.011,0.02-0.022
											C119.198,93.789,119.168,93.827,119.143,93.889z"/>
										<path fill="#E9AD79" d="M115.897,94.908c0.046-0.049,0.09-0.1,0.133-0.129C115.972,94.747,115.925,94.736,115.897,94.908z
											"/>
										<polygon fill="#E9AD79" points="121.848,91.588 121.852,91.592 121.866,91.576 										"/>
										<path fill="#E9AD79" d="M116.19,94.804c-0.055-0.068-0.107-0.062-0.161-0.026
											C116.078,94.805,116.134,94.844,116.19,94.804z"/>
										<path fill="#E9AD79" d="M106.843,87.635l-0.013-0.037c-0.016,0.013-0.03,0.021-0.042,0.026L106.843,87.635z"/>
										<path fill="#E9AD79" d="M106.789,87.624l-0.054-0.011C106.746,87.628,106.758,87.64,106.789,87.624z"/>
										<path fill="#E9AD79" d="M106.619,87.59l0.115,0.022C106.717,87.588,106.701,87.553,106.619,87.59z"/>
										<path fill="#E9AD79" d="M107.37,88.532l0.094-0.061C107.442,88.48,107.412,88.5,107.37,88.532z"/>
										<path fill="#E9AD79" d="M107.594,88.753c-0.029-0.074,0.062-0.293-0.056-0.331l-0.075,0.048
											C107.622,88.404,107.403,88.818,107.594,88.753z"/>
										<path fill="#E9AD79" d="M107.428,90.663l-0.118-0.262c-0.057,0.115-0.134,0.269-0.238,0.194
											C107.04,91.09,107.221,90.366,107.428,90.663z"/>
										<path fill="#E9AD79" d="M107.885,91.404c-0.143-0.069-0.123,0.121-0.177,0.163
											C107.853,91.56,107.887,91.557,107.885,91.404z"/>
										<path fill="#E9AD79" d="M112.874,95.166l-0.134,0.246C112.866,95.427,112.787,95.314,112.874,95.166z"/>
										<polygon fill="#E9AD79" points="114.483,94.266 114.447,94.069 114.315,94.295 										"/>
										<polygon fill="#E9AD79" points="114.569,96.375 114.505,96.4 114.736,96.354 										"/>
										<path fill="#E9AD79" d="M124.665,92.396l-0.301-0.172C124.366,92.326,124.667,92.57,124.665,92.396z"/>
										<path fill="#E9AD79" d="M125.296,87.607c0.174-0.04,0.29-0.153,0.124-0.234C125.393,87.467,125.254,87.557,125.296,87.607
											z"/>
										<polygon fill="#E9AD79" points="117.508,80.044 117.611,79.941 117.434,80.015 										"/>
									</g>
								</g>
							</g>
						</g>
					</g>
				</g>
				<path fill="#E44D5E" d="M144.565,111.445c-3.369,8.616-58.615,10.687-61.363,0.839c-2.526,1-4.732,2.049-6.66,3.214
					c-0.149,9.6-0.359,19.201,0.44,28.801c0.048,1.245,0.197,2.463,0.418,3.663h36.868h1.462h33.65
					c1.974-11.221,1.453-22.557,1.415-33.917C148.944,113.128,146.874,112.275,144.565,111.445z"/>
				<path fill="#C12E45" d="M88.91,134.462c-4.749-1.583-8.766-4.629-12.503-8.235c-0.029,6.024,0.075,12.049,0.576,18.073
					c0.048,1.245,0.197,2.463,0.418,3.663h36.868h1.462h33.65c0.94-5.348,1.312-10.721,1.441-16.11
					C132.712,141.607,109.21,141.505,88.91,134.462z"/>
				<g>
					<path fill="#3E230B" d="M126.914,83.151c0,0-30.053-32.496-14.06-58.801c7.413-12.192,19.107-4.281,24.565,0.983
						c8.898,8.582,11.013,21.028,13.427,33.619c2.13,11.114-3.649,43.9,6.728,50.651
						C157.573,109.603,137.848,107.028,126.914,83.151z"/>
					<path fill="#5F3908" d="M102.042,26.394c5.381-4.156,12.221-4.183,19.136,1.102c11.31-1.568,20.386,11.543,19.804,31.006
						C140.071,88.97,70.097,51.071,102.042,26.394z"/>
					<path fill="#FCCAA0" d="M132.602,61.267c-2.641,4.114-3.014,10.746,0.409,12.877c3.424,2.131,9.346-1.045,11.987-5.16
						s2.006-9.177-1.417-11.308C140.158,55.545,135.243,57.153,132.602,61.267z"/>
					<path fill="#FCCAA0" d="M99.227,62.272c2.931,3.919,3.779,10.508,0.519,12.872c-3.261,2.365-9.397-0.39-12.328-4.309
						c-2.93-3.92-2.662-9.013,0.599-11.378C91.278,57.093,96.297,58.353,99.227,62.272z"/>
					<path fill="#FCCAA0" d="M94.423,43.089c-0.144,0.416-4.686,28.769,5.882,39.275c10.569,10.506,28.848,4.288,33.301-6.481
						c3.844-9.293,4.586-26.805-2.892-37.508C123.237,27.673,101.801,21.782,94.423,43.089z"/>
					<g>
						<g>
							<path fill="#D28541" d="M107.48,50.805c0.493,5.361,0.986,10.723,1.479,16.084c0.016,0.172,0.112,0.359,0.301,0.396
								c1.038,0.2,2.076,0.399,3.114,0.599c0.517,0.099,0.737-0.691,0.218-0.791c-0.709-0.136-1.419-0.273-2.128-0.409
								c-1.049-0.202-0.665,0.42-0.732-0.317c-0.161-1.754-0.322-3.509-0.484-5.264c-0.315-3.433-0.631-6.865-0.947-10.297
								C108.252,50.283,107.432,50.278,107.48,50.805L107.48,50.805z"/>
						</g>
					</g>
					
						<ellipse transform="matrix(-0.9991 -0.0432 0.0432 -0.9991 239.5711 124.7769)" fill="#412206" cx="121.134" cy="59.8" rx="1.255" ry="1.767"/>
					
						<ellipse transform="matrix(-0.9991 -0.0432 0.0432 -0.9991 204.4991 125.1732)" fill="#412206" cx="103.602" cy="60.377" rx="1.255" ry="1.768"/>
					<g>
						<g>
							<path fill="#D28541" d="M140.876,62.589c-1.16,0.076-2.353,0.59-3.105,1.487c-1.022,1.219-1.234,4.025,0.513,4.746
								c1.421,0.586,2.996-0.625,3.108-2.074c0.064-0.823-0.721-1.357-1.428-1.503c-0.876-0.181-1.812,0.161-2.394,0.826
								c-0.346,0.396,0.231,0.979,0.58,0.58c0.79-0.904,3.129-0.784,2.175,0.772c-0.558,0.911-1.92,0.999-2.343-0.055
								c-0.817-2.035,0.951-3.833,2.894-3.96C141.401,63.375,141.404,62.554,140.876,62.589L140.876,62.589z"/>
						</g>
					</g>
					<g>
						<g>
							<path fill="#D28541" d="M89.6,64.771c2.005,0.131,3.452,1.785,2.941,3.816c-0.314,1.249-1.753,1.084-2.384,0.209
								c-0.42-0.583-0.271-1.163,0.419-1.366c0.642-0.189,1.331,0.103,1.751,0.584c0.349,0.399,0.926-0.184,0.58-0.58
								c-0.895-1.024-3.699-1.391-3.813,0.527c-0.091,1.521,1.639,2.766,3.053,2.243c1.791-0.662,1.553-3.439,0.624-4.684
								c-0.717-0.959-1.993-1.493-3.169-1.57C89.072,63.916,89.075,64.737,89.6,64.771L89.6,64.771z"/>
						</g>
					</g>
					<g>
						<ellipse fill="#EF8267" cx="101.092" cy="70.086" rx="3.889" ry="3.093"/>
					</g>
					<g>
						<ellipse fill="#EF8267" cx="127.148" cy="68.249" rx="3.888" ry="3.092"/>
					</g>
					<path fill="#412206" d="M126.16,52.16c-0.17,0.879-1.858,0.441-3.967,0.044c-2.109-0.397-3.843-0.604-3.671-1.481
						c0.17-0.879,2.019-1.27,4.127-0.873C124.759,50.248,126.331,51.282,126.16,52.16z"/>
					<path fill="#412206" d="M105.241,50.946c0.174,0.877-1.558,1.091-3.665,1.498s-3.792,0.852-3.967-0.026
						c-0.175-0.879,1.393-1.919,3.5-2.326C103.216,49.685,105.066,50.067,105.241,50.946z"/>
					<path fill="#5F3908" d="M135.061,37.243c-6.93-10.98-20.369-9.388-20.369-9.388s-0.014,0.033-0.035,0.089
						c-25.807-2.005-23.79,23.015-24.46,27.148c-2.206,13.574,9.058,40.541,9.058,40.541s-7.41-39.354-1.715-47.93
						c7.29-10.98,19.238-12.104,21.012-14.569c0.366,1.66,4.973,5.557,6.861,8.023c9.862,12.88,9.272,38.156,6.914,58.637
						C132.327,99.794,148.792,58.999,135.061,37.243z"/>
					<g>
						<g>
							<path fill="#D28541" d="M107.143,73.978c3.142,4.989,12.235,5.261,14.288-0.858c0.168-0.503-0.624-0.717-0.791-0.218
								c-1.822,5.432-10.031,5.041-12.789,0.662C107.57,73.117,106.86,73.528,107.143,73.978L107.143,73.978z"/>
						</g>
					</g>
					<polygon fill="#412206" points="121.633,58.365 123.322,57.573 121.794,59.949 					"/>
					<polygon fill="#412206" points="103.221,59.078 101.051,58.207 102.579,60.582 					"/>
				</g>
			</g>
			<g>
				
					<rect x="54.383" y="141.153" transform="matrix(-0.9989 0.046 -0.046 -0.9989 248.3984 367.1469)" fill="#197E85" width="131.183" height="90.558"/>
				
					<rect x="51.165" y="137.935" transform="matrix(-0.9989 0.046 -0.046 -0.9989 241.818 360.8622)" fill="#FFFFFF" width="131.184" height="90.557"/>
				<path fill="#FCCAA0" d="M50.08,152.075c0,0,20.459-5.3-1.696-4.185c0,0-6.493,1.13-3.627,4.924c0,0-2.665,2.612,0.476,4.368
					c0,0-1.968,3.387,1.892,4.46c0,0-3.473,3.632,3.483,3.882c6.955,0.25,17.854-3.836,1.655-4.533c0,0,22.382-2.66-0.713-4.461
					c0,0,4.937-0.762,8.233-1.288c3.479-0.554,4.222-3.332-0.128-3.355C57.402,151.875,53.503,151.837,50.08,152.075z"/>
				<path fill="#FCCAA0" d="M179.869,155.006c0,0-20.188,2.652,1.23,4.343c0,0,6.354-0.299,3.961-4.401c0,0,2.813-2.242-0.04-4.369
					c0,0,2.219-3.094-1.391-4.639c0,0,3.688-3.145-2.979-4.269s-17.543,1.536-2.026,4.264c0,0-21.785-0.196,0.258,4.489
					c0,0-4.822,0.13-8.043,0.234c-3.398,0.11-4.381,2.754-0.197,3.327C172.806,154.282,176.553,154.809,179.869,155.006z"/>
			</g>
		</g>
	</g>
	<text transform="matrix(1 0 0 1 80.2671 168.5576)" font-family="'DFEr-W3-WINP-BF'" font-size="23.1556">王燕茹</text>
	<text transform="matrix(1 0 0 1 59.4214 211.792)" font-family="'NotoSansCJKtc-Regular-B5pc-H'" font-size="9.0049">vanessa31001@gmail.com</text>
	<g>
		<text transform="matrix(1 0 0 1 84.5854 191.0684)" font-family="'DFEr-W3-WINP-BF'" font-size="23.1556">Vanessa</text>
	</g>
</g>
</svg>
