<?xml version="1.0" encoding="utf-8"?>
<!-- Generator: Adobe Illustrator 16.0.0, SVG Export Plug-In . SVG Version: 6.00 Build 0)  -->
<!DOCTYPE svg PUBLIC "-//W3C//DTD SVG 1.1//EN" "http://www.w3.org/Graphics/SVG/1.1/DTD/svg11.dtd">
<svg version="1.1" id="圖層_1" xmlns="http://www.w3.org/2000/svg" xmlns:xlink="http://www.w3.org/1999/xlink" x="0px" y="0px"
	 width="230px" height="240.88px" viewBox="0 0 230 240.88" enable-background="new 0 0 230 240.88" xml:space="preserve">
<g>
	<g>
		<circle fill="#24A4A3" cx="115" cy="115.236" r="110"/>
		
			<rect x="51.031" y="143.497" transform="matrix(0.9997 0.0244 -0.0244 0.9997 4.647 -2.793)" fill="#197E85" width="131.185" height="90.558"/>
		<g>
			<g>
				<path fill="#5F3908" d="M113.511,84.916c0,0-9.188-1.834-14.771-20.754c-10.291-25.3,2.571-40.973,20.797-42.451
					c15.865-1.287,13.936,2.358,18.527,6.375c0,0,10.885,4.228,8.917,21.926c-1.37,12.312-5.969,22.94-12.221,29.588
					C130.112,84.54,127.016,86.733,113.511,84.916z"/>
				<path fill="#FCCAA0" d="M102.667,60.569c2.641,4.178,3.014,10.911-0.41,13.075c-3.423,2.164-9.346-1.061-11.986-5.239
					c-2.64-4.178-2.006-9.318,1.417-11.482C95.111,54.76,100.027,56.392,102.667,60.569z"/>
				<path fill="#FCCAA0" d="M136.042,61.59c-2.93,3.98-3.779,10.67-0.518,13.071c3.261,2.401,9.397-0.397,12.328-4.376
					c2.931-3.979,2.662-9.152-0.599-11.553S138.972,57.61,136.042,61.59z"/>
				<g>
					<defs>
						<path id="SVGID_31_" d="M92.557,108.679c20.472-6.381,14.889-27.518,14.889-27.518l9.438-1.151v-0.178l0.731,0.089l0.73-0.089
							v0.178l9.439,1.151c0,0-5.583,21.137,14.889,27.518c20.472,6.381,25.125,12.762,26.72,38.021h-51.048h-1.462H65.836
							C67.431,121.441,72.085,115.06,92.557,108.679z"/>
					</defs>
					<clipPath id="SVGID_2_">
						<use xlink:href="#SVGID_31_"  overflow="visible"/>
					</clipPath>
					<path clip-path="url(#SVGID_2_)" fill="#FCCAA0" d="M92.557,108.679c20.472-6.381,14.889-27.518,14.889-27.518l9.438-1.151
						v-0.178l0.731,0.089l0.73-0.089v0.178l9.439,1.151c0,0-5.583,21.137,14.889,27.518c20.472,6.381,25.125,12.762,26.72,38.021
						h-51.048h-1.462H65.836C67.431,121.441,72.085,115.06,92.557,108.679z"/>
					<g clip-path="url(#SVGID_2_)">
						<path fill="#E6A165" d="M108.112,86.173c-0.132-2.985-0.666-5.012-0.666-5.012l9.438-1.151v-0.178l0.731,0.089l0.73-0.089
							v0.178l9.439,1.151c0,0-0.912,3.454-0.646,7.988C125.067,93.378,117.616,99.24,108.112,86.173z"/>
						<g>
							<g>
								<g>
									<g>
										<path fill="#E9AD79" d="M108.701,85.745c-0.094,0.031-0.256,0.171-0.173,0.212l0.327-0.167L108.701,85.745z"/>
										<path fill="#E9AD79" d="M108.493,86.59c0.199-0.026,0.512-0.122,0.74-0.373c-0.335,0.133-0.232,0.027-0.626,0.191
											c-0.083-0.042,0.007-0.186,0.122-0.253c-0.092,0.032-0.012-0.15-0.222-0.051c-0.161,0.252-0.087,0.371,0.183,0.347
											C108.645,86.523,108.551,86.556,108.493,86.59z"/>
										<path fill="#E9AD79" d="M113.93,92.794l-0.022-0.066C113.907,92.757,113.916,92.778,113.93,92.794z"/>
										<path fill="#E9AD79" d="M118.831,94.859c-0.043,0.005-0.064,0.039-0.069,0.072
											C118.803,94.911,118.837,94.892,118.831,94.859z"/>
										<path fill="#E9AD79" d="M119.782,95.293c-0.022-0.009-0.04-0.017-0.059-0.024
											C119.746,95.302,119.769,95.321,119.782,95.293z"/>
										<path fill="#E9AD79" d="M113.93,92.794l0.055,0.173C114.057,92.874,113.972,92.854,113.93,92.794z"/>
										<path fill="#E9AD79" d="M109.864,86.937c-0.031-0.01-0.072-0.007-0.12,0.004c0.027,0.008,0.051,0.017,0.072,0.028
											L109.864,86.937z"/>
										<path fill="#E9AD79" d="M111.911,91.622l-0.033-0.027c-0.035,0.024-0.077,0.054-0.123,0.087L111.911,91.622z"/>
										<path fill="#E9AD79" d="M110.578,90.444c0.019,0.038,0.247-0.168,0.353-0.252c-0.105,0.073-0.169,0.095-0.211,0.087
											C110.678,90.319,110.632,90.372,110.578,90.444z"/>
										<path fill="#E9AD79" d="M109.133,88.016l-0.063-0.011C109.088,88.008,109.111,88.012,109.133,88.016z"/>
										<path fill="#E9AD79" d="M112.865,92.481c-0.025,0.038-0.044,0.074-0.053,0.098
											C112.835,92.547,112.852,92.515,112.865,92.481z"/>
										<path fill="#E9AD79" d="M109.394,84.034c-0.022,0.002-0.036,0.004-0.055,0.006
											C109.371,84.047,109.393,84.048,109.394,84.034z"/>
										<polygon fill="#E9AD79" points="108.033,86.176 108.015,86.149 107.843,86.151 										"/>
										<path fill="#E9AD79" d="M121.674,95.446l-0.01-0.003C121.624,95.487,121.65,95.476,121.674,95.446z"/>
										<path fill="#E9AD79" d="M128.845,82.277c-0.335,0.283-0.289-0.352-0.681,0.059C128.3,82.267,128.595,82.63,128.845,82.277
											z"/>
										<path fill="#E9AD79" d="M109.86,86.996c0.017,0.016,0.033,0.032,0.045,0.052C109.894,87.017,109.879,87.001,109.86,86.996
											z"/>
										<path fill="#E9AD79" d="M128.165,82.336l-0.003,0l-0.037,0.038C128.141,82.359,128.151,82.349,128.165,82.336z"/>
										<path fill="#E9AD79" d="M125.384,93.384c-0.041-0.037-0.079-0.059-0.117-0.079
											C125.288,93.329,125.319,93.353,125.384,93.384z"/>
										<path fill="#E9AD79" d="M122.522,94.538l0.084,0.012C122.569,94.534,122.543,94.533,122.522,94.538z"/>
										<path fill="#E9AD79" d="M126.232,91.994c0.045-0.013,0.085,0.005,0.091-0.063c-0.015-0.007-0.026-0.011-0.039-0.013
											C126.302,91.96,126.299,91.994,126.232,91.994z"/>
										<path fill="#E9AD79" d="M127.223,90.741c-0.024-0.003-0.045-0.007-0.067-0.01l-0.015,0.051L127.223,90.741z"/>
										<path fill="#E9AD79" d="M109.349,82.217c-0.046-0.085-0.094-0.173-0.141-0.26
											C109.308,82.165,109.289,82.246,109.349,82.217z"/>
										<path fill="#E9AD79" d="M109.729,87.045c0.066-0.042,0.104-0.056,0.13-0.049c-0.013-0.011-0.028-0.019-0.043-0.027
											C109.779,86.994,109.744,87.021,109.729,87.045z"/>
										<path fill="#E9AD79" d="M124.482,90.313l0.166-0.118C124.588,90.218,124.529,90.261,124.482,90.313z"/>
										<path fill="#E9AD79" d="M119.116,81.284l-0.058,0.03C119.078,81.323,119.098,81.317,119.116,81.284z"/>
										<path fill="#E9AD79" d="M124.981,89.711c0.107,0.037,0.182,0.045,0.238,0.037c-0.015-0.021-0.025-0.041-0.051-0.066
											L124.981,89.711z"/>
										<path fill="#E9AD79" d="M109.206,81.954l0.001,0.003L109.206,81.954z"/>
										<path fill="#E9AD79" d="M109.515,82.653c-0.251-0.176-0.492-0.343-0.738-0.514c-0.006-0.008-0.012-0.015-0.016-0.019
											c-0.035-0.097,0.392,0.26,0.619,0.423c-0.114-0.093-0.432-0.425-0.367-0.417c0.062,0.059,0.088,0.08,0.153,0.155
											c-0.123-0.155-0.064-0.157-0.028-0.179c0.035-0.02,0.054-0.055,0.011-0.242c0.024,0.033,0.042,0.064,0.058,0.093
											c-0.104-0.19-0.208-0.384-0.27-0.523c0.063-0.015,0.045-0.264,0.166-0.013c-0.048-0.001-0.012,0.102,0.002,0.183
											l0.027-0.119c0.183,0.359-0.044,0.138,0.072,0.406c0.04-0.129,0.094-0.454,0.28-0.37c0.052,0.181-0.071,0.229-0.086,0.257
											c-0.033,0.031-0.043,0.053,0.029,0.21c0.005,0-0.131-0.126-0.137-0.125c0.234,0.56-0.055-0.034,0.18,0.567
											c0.056,0.047-0.012,0.008,0.087-0.053c0.082-0.058,0.164-0.117,0.328-0.083c0.044-0.214-0.063-0.299-0.02-0.514
											c0.398-0.426,0.474,0.88,0.737,0.346c0.053-0.257,0.024-0.727,0.291-0.511l-0.025,0.427
											c0.311,0.001,0.096-0.621,0.452-0.383c-0.035,0.171-0.222,0.169-0.169,0.213c0.25,0.302,0.115-0.255,0.274-0.276
											l0.082,0.364c0.317-0.101,0.64-0.414,0.991-0.528c-0.006,0.112-0.052,0.235,0.047,0.337
											c0.429-0.244,0.974-0.083,1.44,0.079l0.125-0.34c0.039-0.002,0.091,0.134,0.057,0.201
											c0.187,0.099-0.018-0.203,0.048-0.339c0.094-0.035,0.152,0.167,0.104,0.27c0.265-0.31,0.781-0.694,1.143-0.395
											l-0.05,0.103c0.264,0.097,0.193-0.689,0.461-0.422l-0.036,0.062c0.202,0.025,0.403-0.009,0.602-0.041
											c0.099-0.016,0.197-0.031,0.293-0.039c0.103-0.008,0.198-0.008,0.219,0.017c0.026,0.041,0.211,0.115,0.307,0.246
											c0.078-0.462,0.535,0.206,0.569-0.438c0.133,0.138,0.192,0.237,0.253,0.323c0.044,0.086,0.177,0.159,0.177,0.242
											c0.011,0.028-0.003,0.054,0.033,0.089c0.111,0.044,0.224-0.377,0.375-0.425l-0.04,0.334l0.239-0.325l0.05,0.414
											l0.145-0.068c-0.051-0.027-0.093-0.165-0.073-0.26c0.229-0.124,0.478,0.3,0.46,0.472l0.53-0.218
											c-0.029,0.133-0.118,0.168-0.194,0.245c0.308-0.306,0.001,0.358,0.284,0.078c-0.022-0.081,0.043-0.197,0.058-0.264
											c0.094,0.218,0.367,0.255,0.581,0.197l-0.069,0.226c0.358,0.106,0.786-0.009,1.195,0.049
											c-0.133-0.127-0.047-0.521,0.079-0.544l0.002,0.359c0.106-0.208-0.108-0.149,0.086-0.396
											c0.148,0.061,0.05,0.415-0.053,0.518l0.202-0.098c-0.003,0.107-0.054,0.157-0.083,0.29
											c0.105-0.209,0.275,0.397,0.436,0.03l-0.003,0.106c0.41,0.057,0.612-0.04,0.949-0.014c0.046-0.304,0.168-0.219,0.3-0.453
											c0.233,0.129,0.474,0.405,0.773,0.418c0.228-0.125,0.095-0.25,0.212-0.419c-0.021,0.28,0.278,0.293,0.099,0.472
											c0.361,0.001,0.461,0.004,0.939-0.163c-0.034-0.12-0.082-0.176-0.041-0.268c0.107-0.033,0.123,0.135,0.091,0.266
											l-0.014,0.027c0.161-0.203,0.272,0.056,0.21,0.239c-0.029,0.167-0.162,0.279,0.172,0.046l-0.036,0.024
											c0.093-0.055,0.234-0.132,0.235-0.103l0.175-0.083c-0.073,0.106-0.236,0.124-0.448,0.3
											c0.382-0.163,0.12,0.082,0.114,0.125c-0.004,0.024,0.018,0.04,0.094,0.06c-0.168,0.042-0.268,0.068-0.369,0.093
											c-0.047,0.037-0.021-0.027-0.025,0.171c0.009,0.289,0.059,0.591-0.228,0.763l0.196,0c0.177,0.128-0.126,0.113-0.18,0.186
											c0.151,0.006,0.188-0.093,0.285-0.016c0.127,0.906-0.461,1.801-0.665,2.729c-0.062,0.339,1.001,0.215,0.529,0.626
											l-0.359-0.125c0.212,0.343,0.208,0.687,0.203,1.031c-0.008,0.316-0.008,0.795,0.176,0.782
											c-0.084-0.022-0.193-0.033-0.193-0.045c-0.255-0.008-0.017,0.062,0.175,0.16c-0.037,0.017-0.187-0.062-0.294-0.093
											c-0.076-0.022-0.002,0.016,0.05,0.068c0.033,0.083,0.051,0.169-0.077,0.125c-0.042-0.013-0.056-0.07-0.064-0.098
											c0.073,0.128-0.205,0.272,0.087,0.375c-0.229,0.092-0.108,0.404-0.351,0.434c0.207,0.292-0.341,0.18,0.011,0.504
											c-0.377-0.318-0.534,0.022-0.453,0.276c-0.082-0.132-0.19-0.02-0.309-0.197c-0.093,0.109-0.119,0.27,0.08,0.429
											c-0.6-0.228-0.078,0.737-0.702,0.277c-0.151,0.481-0.381,0.879-0.667,1.192c-0.249-0.421,0.347-0.287,0.037-0.705
											c-0.176,0.369-0.154,0.854-0.55,0.93c-0.118-0.015-0.05-0.215-0.062-0.304c-0.237,0.357-0.65,0.267-0.864,0.627
											c-0.014-0.043,0.002-0.103,0.021-0.148c-0.056,0.036-0.165-0.02-0.085,0.19l0.041-0.078
											c0.215,0.271-0.037,0.732-0.008,0.899c-0.074-0.647-0.384-0.057-0.426-0.889c-0.029,0.051-0.053,0.167-0.005,0.31
											c-0.075-0.026-0.114-0.106-0.096-0.288c-0.191,0.177-0.06,0.386-0.273,0.429c-0.021-0.106,0.013-0.157,0.008-0.286
											c-0.058,0.231-0.135,0.458-0.333,0.398c0.001-0.066-0.032-0.146,0.021-0.154c-0.292,0.076-0.486,0.628-0.863,0.435
											c0.095-0.472-0.125-0.155-0.142-0.563l-0.182,0.12l0.069,0.201c-0.161-0.013-0.328,0.28-0.465,0.132l0.136-0.157
											l-0.316,0.049l0.163,0.17c-0.193,0.194-0.028,0.52-0.253,0.38c0.054-0.035-0.181-0.028-0.235-0.278l0-0.001
											c-0.104,0.114-0.219,0.233-0.331,0.112c-0.008-0.134,0.11-0.439,0.105-0.528c-0.146,0.318-0.404,0.014-0.596,0.335
											c0.057-0.073,0.11-0.281,0.11-0.326l-0.138,0.251c-0.057-0.106-0.056-0.15,0.001-0.312
											c-0.216-0.113-0.065,0.522-0.282,0.226c0.028-0.015,0.029-0.058,0.086-0.085c-0.239-0.191-0.592-0.001-0.796-0.23
											c0.077-0.411,0.251-0.01,0.291-0.367c-0.365-0.054-0.914,0.154-1.211-0.104l0.042,0.073
											c-0.311,0.491-0.119-0.383-0.411-0.232c0.062-0.014,0.208-0.252,0.166-0.202c-0.175-0.205-0.519-0.129-0.952-0.19
											l0.122-0.099c-0.054-0.197-0.294-0.281-0.388-0.434c-0.125,0.094-0.188,0.02-0.266,0.229
											c0.09-0.973-1.07-0.228-0.979-1.077c0.042,0.034,0.182-0.017,0.149-0.044l-0.382-0.145
											c-0.143,0.21-0.062,0.148-0.127,0.351c-0.135,0.082-0.298,0.097-0.371,0.03c0.244-0.006,0.266-0.307,0.304-0.461
											c-0.042,0.066-0.118,0.113-0.166,0.176c0.147-0.472-0.365,0.355-0.374-0.059l0.101-0.088
											c-0.124-0.02-0.314,0.04-0.372-0.067c0.166-0.245,0.176-0.022,0.345-0.193c-0.125-0.095-0.611,0.186-0.514-0.126
											c0.105-0.01,0.178,0.055,0.283,0.043c0.124-0.356,0.05-0.304,0.006-0.425l0.003,0.014l-0.08-0.298l-0.018,0.114
											c-0.681,0.4-0.383-0.186-0.928-0.035c0.523-0.137,0.227-0.158,0.48-0.372c0.02-0.113,0.023-0.258,0.111-0.301
											c-0.282,0.094,0.012-0.293-0.394-0.158c0.073-0.078-0.083-0.105,0.134-0.266c-0.171-0.062-0.111,0.153-0.219,0.234
											c-0.445,0.059-0.063-0.732-0.677-0.676c-0.358-0.107-0.672,0.079-1.001-0.037c0.069-0.186,0.353-0.184,0.353-0.184
											c0.019-0.223-0.077-0.299-0.267-0.34c0.092-0.035,0.134-0.108,0.198-0.219c-0.097-0.076-0.354,0.179-0.331-0.043
											c0.111-0.052,0.282-0.143,0.411-0.172c-0.166-0.048-0.407-0.037-0.574-0.095c0.124-0.145,0.277-0.102,0.404-0.136
											c-0.166-0.079-0.394-0.234-0.659-0.097l-0.018,0.148c-0.048-0.04,0.182-0.178,0.251-0.175
											c0.27-0.029,0.044,0.224-0.036,0.296l-0.118-0.042c-0.428,0.469,0.338,0.277,0.442,0.461l-0.412,0.214l0.432-0.065
											c-0.063,0.11-0.241,0.295-0.36,0.255c-0.078,0.262,0.211,0.004,0.1,0.266c-0.021,0.036-0.042,0.045-0.064,0.046l0.2,0.031
											c-0.093,0.038-0.232,0.224-0.241,0.11c-0.026,0.378,0.544,0.118,0.346,0.418l-0.036,0c0.36,0.189,0.278-0.187,0.758-0.23
											l-0.497,0.684l0.275-0.192c0.017,0.037,0.049,0.112-0.061,0.189c0.267-0.042,0.092-0.115,0.309-0.195
											c-0.104,0.344,0.45,0.283,0.086,0.675c0.231-0.123,0.023-0.265,0.288-0.238c-0.381,0.432,0.227,0.103,0.154,0.405
											c-0.25,0.166-0.25-0.061-0.322,0.246c0.434-0.27,0.154,0.319,0.327,0.358c0.288-0.274,0.343,0.107,0.609,0.185
											c-0.104,0.084,0.181,0.475,0.256,0.736l-0.05,0.045c0.304-0.267,0.428-0.054,0.61-0.003
											c-0.164,0.177-0.249,0.228-0.39,0.245l0.123,0.108c0.114-0.072,0.197-0.09,0.308-0.057l-0.227,0.201
											c0.179,0.131,0.559,0.013,0.653,0.342c0.184-0.211,0.319-0.743,0.656-0.713c-0.085,0.125-0.237,0.335-0.335,0.336
											c0.032,0,0.147-0.043,0.146,0.039l-0.248,0.127c0.029,0.167,0.183-0.126,0.246-0.045c-0.135,0.17-0.036,0.167-0.152,0.294
											c-0.034,0.001-0.015-0.125-0.097-0.082c0.064,0.103,0.099,0.285,0.037,0.445c0.066-0.104,0.176-0.232,0.259-0.204
											c0.183,0.118-0.095,0.253-0.059,0.42c0.131-0.089,0.156,0.118,0.347-0.143c0.051,0.038-0.026,0.168-0.056,0.254
											c0.173-0.048,0.463,0.267,0.548-0.09l-0.011-0.035c0.008-0.001,0.013-0.001,0.023-0.002l0,0l0,0
											c0.475-0.067,0.543,0.566,0.938,0.628l-0.053,0.094c0.25,0,0.468,0.167,0.709,0.029c0.057,0.027,0.051,0.243-0.03,0.347
											c0.189,0,0.251-0.1,0.404,0.159c-0.233,0.104-0.012,0.176-0.217,0.056c0.166,0.172,0.148,0.358,0.483,0.174
											c-0.182,0.227,0.032,0.386,0.163,0.349l-0.078-0.243c0.126,0.006,0.214,0.067,0.309,0.123l-0.178,0.323
											c0.328,0.589,1.021-0.464,1.183,0.337c0.178-0.219-0.209-0.235-0.029-0.499c0.188,0.099,0.307,0.653,0.379,0.67
											c0.274,0.25,0.368-0.471,0.653-0.297c-0.025-0.133-0.011-0.481,0.217-0.576c0.194,0.065,0.209,0.564,0.062,0.656
											c-0.053,0.007-0.074-0.037-0.068-0.08c-0.074,0.042-0.173,0.083-0.102,0.234l0.042-0.125
											c0.094,0.142,0.403,0.153,0.317,0.359c0.179-0.115,0.083-0.206-0.034-0.284c0.274,0.206,0.443,0.03,0.738,0.153
											c-0.048-0.071-0.092-0.224-0.046-0.223c0.43,0.152,0.181-0.251,0.456-0.318c0.173,0.184-0.025,0.476,0.251,0.286
											c0.191,0.118,0.074,0.339,0.008,0.451c0.249-0.272,0.537,0.104,0.711,0.12l-0.133,0.129
											c0.081-0.077,0.153-0.087,0.228-0.1l-0.129-0.241c0.093,0.03,0.166,0.018,0.184,0.125
											c0.055-0.183-0.143-0.411-0.023-0.672c0.135,0.106,0.29-0.207,0.407,0.116c-0.368-0.033,0.122,0.33-0.165,0.45
											c0.049-0.053,0.121-0.065,0.216-0.042c0.022,0.034,0.005,0.073-0.014,0.098c0.418,0.208,0.064-0.413,0.4-0.504
											c0.012,0.199,0.187,0.329,0.231,0.271c-0.142,0.039-0.16-0.289-0.085-0.469c0.258,0.07,0.19-0.183,0.302-0.207
											l-0.146-0.022c-0.023-0.196,0.084-0.209,0.199-0.32c0.067,0.136-0.088,0.146-0.014,0.188
											c0.024-0.374,0.485,0.186,0.609-0.126c0.155,0.072,0.165,0.326,0.293,0.363c0.131-0.346,0.391,0.104,0.548-0.221
											c-0.2-0.187-0.177-0.126-0.133-0.443c0,0-0.316,0.381-0.316,0.381l0.079-0.472c-0.117,0.062-0.175,0.278-0.268,0.277
											c0.026-0.253,0.04-0.188-0.114-0.352c0.345,0.264,0.205-0.366,0.511-0.239l0.324,0.56c0.442,0.069,0.323-0.59,0.751-0.703
											l-0.175-0.011c-0.104-0.239,0.186-0.182,0.229-0.347c0.123,0.178,0.238,0.187,0.368,0.254
											c-0.105-0.118,0.254-0.188,0-0.542l0.328,0.092c0.335-0.146-0.135-0.709,0.132-0.875c0.1,0.233,0.312,0.236,0.277,0.51
											c0.078-0.076,0.176-0.119,0.07-0.224c0.144,0.047-0.006-0.416,0.21-0.349c-0.04-0.097-0.199-0.259-0.108-0.334
											c0.042,0.02,0.08,0.071,0.08,0.071c-0.078-0.071,0.01-0.234-0.237-0.312c0.731,0.19,0.512-0.713,1.136-0.61
											c0.074-0.233,0.162-0.506,0.254-0.695c0.049,0.044,0.092,0.055,0.053,0.079c0.331-0.173-0.442-0.471-0.078-0.68
											c0.428-0.071,0.083,0.251,0.266,0.183c0.348,0.102,0.395-0.045,0.412-0.214c-0.021-0.182-0.163-0.382,0.049-0.527
											l0.045,0.081c0.117-0.096,0.039-0.332-0.054-0.398c-0.094-0.102-0.215-0.216-0.192-0.342c0,0,0.063,0.011,0.107-0.001
											c-0.367-0.161-0.492-0.489-0.593-0.735c0.278,0.076,0.148,0.111,0.43,0.064c-0.041-0.109-0.454,0.034-0.532-0.187
											c0.153-0.071,0.286-0.228,0.588-0.245l0.015,0.204c0.39-0.101-0.012-0.263,0.059-0.37l0.17,0.017
											c-0.05-0.31-0.478-0.328-0.435-0.665l-0.13,0.03c-0.417-0.204,0.246-0.145-0.062-0.344l0.435-0.034
											c-0.098-0.125-0.393-0.45-0.457-0.677c0.31,0.149,0.456,0.413,0.638,0.58c0.008-0.119-0.006-0.406-0.215-0.484
											c0.039,0.052,0.14,0.12,0.07,0.163c-0.329-0.169-0.481-0.38-0.453-0.622c0.829,0.117,0.268-0.608,0.937-0.708
											c-0.13-0.225-0.071-0.429,0.023-0.633c0.099-0.232,0.208-0.318,0.269-0.832c-0.706,0.267,0.024-0.244-0.667-0.17
											c-0.017-0.153,0.006-0.21,0.054-0.231c0.132-0.139,0.271-0.296,0.303-0.438l0.168-0.156
											c0.117-0.125,0.173-0.017,0.27,0.034c0.016,0.022,0.039,0.033,0.082,0.018c0.007-0.018,0.013-0.035,0.017-0.045
											c-0.093-0.322,0.23-0.218,0.249-0.503c-0.196,0.134-0.38,0.006-0.39-0.187c0,0-0.032,0.088-0.065,0.176
											c-0.038,0.091-0.076,0.181-0.076,0.181c-0.246-0.145-0.14-0.271-0.082-0.41c0.071-0.135,0.102-0.271-0.074-0.354
											l0.174,0.015c-0.029-0.019-0.058-0.049-0.086-0.085c-0.182-0.185-0.48-0.621-0.883-0.38
											c0.02-0.084,0.101-0.277,0.198-0.239c-0.053-0.082-0.122-0.151-0.202-0.207c-0.756,0.001-1.645,0.289-1.857-0.016
											l0.055-0.158c-0.088,0.036-0.184,0.286-0.266,0.109c0.014-0.066,0.055-0.157,0.018-0.172
											c-0.051,0.05-0.257,0.255-0.354,0.146l0.117-0.17c-0.404-0.269-0.721,0.357-1.098,0.421
											c0.063-0.477-0.256-0.677-0.415-0.776l0.015-0.067c-0.495-0.125-0.906,0.283-1.396,0.41
											c-0.221-0.556-0.95-0.346-1.376-0.697c0.06,0.096-0.061,0.371-0.149,0.408c-0.096-0.111-0.345,0.292-0.27-0.144
											l0.038,0.014c-0.026-0.44-0.265-0.355-0.438-0.39l-0.104,0.569c-0.348-0.893-1.239,0.148-1.391-0.63
											c-0.143,0.127-0.226,0.114-0.456,0.229l0.033-0.308c-0.013-0.004-0.025-0.007-0.033-0.01
											c-0.313-0.038-0.323-0.065-0.476-0.075c-0.123-0.009-0.255,0-0.441,0.036l0.078-0.221
											c-0.215-0.021-0.271,0.893-0.47,0.911l-0.06-0.462c-0.044,0.001-0.159-0.009-0.265-0.024l-0.202-0.009l-0.123-0.025
											c-0.082-0.017-0.163-0.031-0.242-0.032c-0.159-0.002-0.31,0.049-0.441,0.243c-0.003-0.068-0.009-0.202,0.048-0.229
											c-0.177,0.011-0.718-0.221-0.572,0.399c-0.059-0.409-0.389,0.011-0.567,0.218l-0.008-0.307
											c-0.119,0.409-0.11,0.515-0.333,0.653c-0.062-0.032-0.081-0.235,0.003-0.168c-0.208-0.134-0.108,0.305-0.356,0.174
											l0.059-0.204c-0.195,0.002-0.167,0.104-0.243,0.342c-0.105,0.137-0.375-0.028-0.439-0.298
											c-0.004,0.17-0.08,0.407-0.204,0.343c-0.029-0.101,0.004-0.171,0.021-0.205c-0.349-0.164-0.433,0.414-0.693,0.146
											c-0.018-0.1-0.039-0.147-0.061-0.175c0.256-0.026,0.464-0.037,0.448-0.012c-0.037-0.279-0.25-0.301-0.136-0.707
											c-0.138,0.232-0.362,0.726-0.58,0.621c-0.014-0.026-0.026-0.051-0.04-0.093l0.017-0.034
											c-0.05-0.021-0.088,0.01-0.121,0.062c-0.07-0.037-0.116-0.066-0.178-0.062c-0.054-0.227-0.253-0.093-0.357-0.09
											c0.048,0.303-0.093,0.272,0.066,0.507c-0.019-0.02,0.015-0.039,0.082-0.061c0.014-0.011,0.032-0.018,0.04-0.038
											l-0.004,0.028c0.067-0.014,0.154-0.033,0.253-0.054c-0.061,0.166-0.129,0.307-0.265,0.153
											c-0.031,0.202-0.063,0.411-0.079,0.511c-0.197-0.407-0.499-0.601-0.571-0.858c-0.292,0.212-0.726,0.21-0.848,0.809
											c-0.08,0.085-0.125-0.15-0.169-0.236c0.044-0.064,0.106-0.064,0.124-0.15c-0.159,0.17-0.522,0.127-0.512,0.533
											c-0.249-0.151,0.079-0.385-0.223-0.279l0.026-0.128c-0.196-0.21-0.562-0.09-0.792,0.087
											c-0.239,0.179-0.373,0.42-0.581,0.514c-0.108,0.112-0.292,0.119-0.596,0.072c0.072,0.007,0.108,0.012,0.158,0.053
											c-0.205,0.033-0.437,0.101-0.536,0.229c-0.022,0.292,0.002,0.659-0.042,1.039c0.095,0.375,0.113,0.73-0.035,1.125
											c-0.083,0.226,0.174,0.21,0.387,0.312l-0.321,0.091l0.407,0.17c0.318,0.285-0.738,0.635-0.174,0.973l0.216-0.073
											c-0.027,0.146,0.172,0.443-0.085,0.441c0.042,0.011,0.234,0.028,0.124,0.094l-0.172,0.018l0.322,0.331
											c-0.107,0.282-0.686,0.004-0.696,0.399c0.075,0.141,0.523,0.393,0.636,0.333c0.006-0.061,0.1-0.159,0.273-0.172
											l0.097,0.133c0.51,0,1.036,0.092,1.374-0.279l-0.325-0.228l0.242-0.094l0.027,0.206c0.225-0.131,0.016-0.194-0.13-0.268
											c0.129-0.028,0.219-0.069,0.265-0.122l-0.502-0.206c0.196-0.044,0.402,0.079,0.5-0.092
											c-0.233-0.095-0.437,0.142-0.599-0.032c0.221-0.134,0.412-0.117,0.203-0.237c0.129-0.031,0.215-0.009,0.277,0.041
											c-0.167-0.109-0.096-0.319-0.371-0.356c0.273-0.15-0.116-0.403,0.364-0.443c-0.118-0.026-0.4-0.173-0.434-0.282
											c0.599,0.135-0.019-0.423,0.601-0.45c-0.268-0.043-0.343-0.172-0.394-0.32c-0.025-0.074-0.044-0.153-0.078-0.227
											c-0.027-0.037-0.065-0.04-0.142-0.065c0.042,0.004,0.127,0.008,0.102,0.016c0.036-0.049,0.192-0.057,0.291-0.062
											c-0.439-0.03-0.555-0.129-0.85-0.277c0.021,0.001,0.042,0.002,0.062,0.007c0.178,0.018,0.303,0.074,0.424,0.118
											c0.134,0.052,0.264,0.09,0.471,0.136c-0.118-0.028-0.199-0.051-0.266-0.079c-0.14-0.055-0.217-0.128-0.427-0.192
											c0.268,0.054,0.125,0.003,0.513,0.159c-0.595-0.282-0.105-0.071-0.484-0.306c0.284,0.102,0.571,0.329,0.371,0.159
											C109.308,82.514,109.515,82.653,109.515,82.653z M112.484,81.326l0.001,0.006c-0.043,0.013-0.08,0.024-0.104,0.031
											C112.403,81.355,112.433,81.344,112.484,81.326z M112.917,81.264c-0.054-0.005-0.12,0.001-0.189,0.013
											c-0.029-0.104-0.027-0.214,0.018-0.214C112.73,81.136,112.84,81.184,112.917,81.264z M111.724,79.272
											c0.062-0.052,0.093,0.004,0.111,0.066c-0.031,0.009-0.068,0.025-0.115,0.052l-0.003,0.038
											C111.716,79.369,111.716,79.314,111.724,79.272z"/>
										<path fill="#E9AD79" d="M111.653,79.688c-0.009,0.008-0.013,0.021-0.025,0.026c0.019,0.023,0.035,0.044,0.05,0.063
											l0.012-0.099L111.653,79.688z"/>
										<path fill="#E9AD79" d="M113.904,92.718l0.004,0.011c0-0.014,0.001-0.028,0.008-0.047
											C113.911,92.697,113.908,92.706,113.904,92.718z"/>
										<polygon fill="#E9AD79" points="118.614,81.371 118.624,81.294 118.577,81.356 										"/>
										<path fill="#E9AD79" d="M112.659,90.416c0.015-0.023,0.026-0.05,0.029-0.079
											C112.676,90.353,112.667,90.382,112.659,90.416z"/>
										<path fill="#E9AD79" d="M111.968,89.678l-0.024-0.178C111.944,89.587,111.955,89.641,111.968,89.678z"/>
										<path fill="#E9AD79" d="M111.532,89.021c-0.045,0.03-0.077,0.057-0.105,0.081l0,0.002L111.532,89.021z"/>
										<path fill="#E9AD79" d="M121.759,92.627c0.008-0.004,0.015-0.012,0.02-0.022
											C121.814,92.527,121.784,92.564,121.759,92.627z"/>
										<path fill="#E9AD79" d="M118.513,93.646c0.046-0.05,0.09-0.1,0.133-0.129C118.588,93.485,118.541,93.474,118.513,93.646z"
											/>
										<polygon fill="#E9AD79" points="124.464,90.326 124.468,90.33 124.482,90.313 										"/>
										<path fill="#E9AD79" d="M118.807,93.542c-0.055-0.068-0.107-0.062-0.161-0.026
											C118.694,93.543,118.75,93.583,118.807,93.542z"/>
										<path fill="#E9AD79" d="M109.46,86.373l-0.013-0.037c-0.016,0.013-0.03,0.021-0.042,0.026L109.46,86.373z"/>
										<path fill="#E9AD79" d="M109.405,86.362l-0.055-0.011C109.362,86.366,109.375,86.378,109.405,86.362z"/>
										<path fill="#E9AD79" d="M109.235,86.329l0.115,0.022C109.333,86.327,109.317,86.291,109.235,86.329z"/>
										<path fill="#E9AD79" d="M109.986,87.27l0.094-0.061C110.058,87.219,110.027,87.238,109.986,87.27z"/>
										<path fill="#E9AD79" d="M110.21,87.491c-0.028-0.074,0.063-0.293-0.055-0.331l-0.075,0.048
											C110.238,87.143,110.019,87.557,110.21,87.491z"/>
										<path fill="#E9AD79" d="M110.043,89.402l-0.117-0.263c-0.057,0.115-0.134,0.269-0.238,0.194
											C109.656,89.829,109.837,89.104,110.043,89.402z"/>
										<path fill="#E9AD79" d="M110.501,90.142c-0.143-0.069-0.123,0.121-0.177,0.163
											C110.468,90.298,110.503,90.295,110.501,90.142z"/>
										<path fill="#E9AD79" d="M115.49,93.904l-0.134,0.246C115.482,94.166,115.403,94.053,115.49,93.904z"/>
										<polygon fill="#E9AD79" points="117.1,93.004 117.063,92.808 116.931,93.034 										"/>
										<polygon fill="#E9AD79" points="117.186,95.114 117.121,95.138 117.352,95.093 										"/>
										<path fill="#E9AD79" d="M127.28,91.133l-0.301-0.171C126.982,91.064,127.283,91.309,127.28,91.133z"/>
										<path fill="#E9AD79" d="M127.912,86.345c0.174-0.04,0.29-0.153,0.125-0.234C128.008,86.205,127.87,86.294,127.912,86.345z
											"/>
										<polygon fill="#E9AD79" points="120.124,78.783 120.226,78.68 120.049,78.753 										"/>
									</g>
								</g>
							</g>
						</g>
					</g>
				</g>
				<path fill="#FCCAA0" d="M140.847,42.111c0.144,0.422,4.686,29.213-5.882,39.881c-10.568,10.668-28.848,4.354-33.301-6.581
					c-3.843-9.437-4.586-27.218,2.891-38.086C112.032,26.457,133.468,20.476,140.847,42.111z"/>
				<g>
					<g>
						<path fill="#AA6930" d="M126.969,49.946c-0.315,3.485-0.631,6.971-0.946,10.457c-0.161,1.782-0.322,3.563-0.483,5.345
							c-0.072,0.798,0.309,0.125-0.234,0.231c-0.876,0.171-1.751,0.342-2.627,0.513c-0.519,0.102-0.299,0.892,0.218,0.791
							c1.038-0.203,2.076-0.406,3.114-0.608c0.189-0.037,0.286-0.223,0.301-0.396c0.493-5.444,0.985-10.889,1.478-16.333
							C127.837,49.419,127.016,49.424,126.969,49.946L126.969,49.946z"/>
					</g>
				</g>
				
					<ellipse transform="matrix(0.999 -0.0438 0.0438 0.999 -2.4768 5.0529)" fill="#3E230B" cx="114.135" cy="59.079" rx="1.255" ry="1.794"/>
				
					<ellipse transform="matrix(0.999 -0.0438 0.0438 0.999 -2.4856 5.8209)" fill="#3E230B" cx="131.668" cy="59.665" rx="1.255" ry="1.795"/>
				<g>
					<g>
						<path fill="#AA6930" d="M94.394,62.738c2.034,0.135,3.445,1.845,2.94,3.883c-0.313,1.266-1.749,1.109-2.384,0.213
							c-0.417-0.587-0.279-1.188,0.419-1.396c0.646-0.192,1.333,0.108,1.751,0.595c0.346,0.401,0.923-0.181,0.58-0.58
							c-0.898-1.043-3.701-1.399-3.813,0.531c-0.089,1.521,1.622,2.809,3.052,2.272c1.801-0.675,1.549-3.489,0.624-4.747
							c-0.712-0.967-1.989-1.513-3.169-1.591C93.865,61.883,93.869,62.704,94.394,62.738L94.394,62.738z"/>
					</g>
				</g>
				<g>
					<g>
						<path fill="#AA6930" d="M145.669,63.301c-1.165,0.077-2.357,0.603-3.105,1.508c-1.032,1.25-1.218,3.972,0.462,4.788
							c1.429,0.695,3.05-0.646,3.16-2.079c0.063-0.827-0.714-1.371-1.428-1.52c-0.879-0.185-1.817,0.167-2.395,0.838
							c-0.343,0.399,0.234,0.981,0.58,0.58c0.725-0.842,3.05-0.881,2.246,0.677c-0.504,0.978-1.943,1.208-2.404,0.084
							c-0.841-2.045,0.907-3.924,2.885-4.056C146.194,64.086,146.197,63.266,145.669,63.301L145.669,63.301z"/>
					</g>
				</g>
				<g>
					<ellipse fill="#EF8267" cx="134.177" cy="69.524" rx="3.888" ry="3.141"/>
				</g>
				<g>
					<ellipse fill="#EF8267" cx="108.625" cy="69.004" rx="3.888" ry="3.141"/>
				</g>
				<path fill="#3E230B" d="M110.396,50.669c0.17,0.892,1.858,0.448,3.968,0.044c2.109-0.403,3.842-0.611,3.671-1.504
					c-0.17-0.892-2.018-1.29-4.128-0.886C111.797,48.727,110.225,49.776,110.396,50.669z"/>
				<path fill="#3E230B" d="M130.029,50.089c-0.174,0.891,1.557,1.108,3.665,1.52c2.107,0.413,3.792,0.865,3.967-0.026
					c0.175-0.893-1.392-1.949-3.5-2.362C132.053,48.809,130.203,49.197,130.029,50.089z"/>
				<g>
					<g>
						<path fill="#AA6930" d="M116.083,72.144c2.859,5.256,11.926,5.944,14.31-0.098c0.194-0.493-0.599-0.704-0.791-0.218
							c-2.128,5.394-10.315,4.488-12.811-0.098C116.538,71.265,115.83,71.679,116.083,72.144L116.083,72.144z"/>
					</g>
				</g>
				<path fill="#6A73D5" d="M142.674,108.679c-4.663-1.454-7.971-3.674-10.304-6.234c-12.031,8.327-22.847,6.798-27.841-2.117
					c-2.328,3.438-6.063,6.509-11.972,8.351c-20.472,6.381-25.126,12.762-26.721,38.021h51.048h1.462h51.048
					C167.799,121.441,163.146,115.06,142.674,108.679z"/>
				<path fill="#4A57C0" d="M132.131,140.918c-22.269,2.408-41.722-8.701-60.467-19.625c-3.586,5.513-5.062,13.281-5.829,25.406
					h51.048h1.462h51.048c-0.704-11.151-2.007-18.62-5.001-24.036C162.759,123.932,142.423,138.989,132.131,140.918z"/>
				<path fill="#5F3908" d="M112.355,44.33c10.137-1.06,24.13-2.802,27.766-8.254c0,0-11.135-17.428-32-5.065
					c0,0-8.256,3.829-11.042,20.181c0,0-0.139,6.424,2.52,5.683c1.797-0.502,2.305-7.773,6.646-12.114
					c0.991-0.205,1.976-1.238,3.109-1.394c0,0,2.465-0.965,4.287-2.037C115.464,40.256,112.355,44.33,112.355,44.33z"/>
				<g>
					<g>
						<g>
							<path fill="#524740" d="M100.493,61.802c0.321,5.961,4.563,10.205,10.524,10.526c5.95,0.32,10.231-5.047,10.526-10.526
								c0.32-5.949-5.048-10.23-10.526-10.525C105.069,50.957,100.788,56.324,100.493,61.802c-0.057,1.058,1.584,1.052,1.641,0
								c0.617-11.449,17.152-11.449,17.769,0c0.271,5.025-4.254,8.636-8.885,8.885c-5.025,0.271-8.635-4.255-8.884-8.885
								C102.077,60.75,100.437,60.744,100.493,61.802z"/>
						</g>
					</g>
					<g>
						<g>
							<path fill="#524740" d="M126.585,61.802c0.321,5.962,4.563,10.205,10.525,10.526c5.949,0.32,10.229-5.048,10.524-10.526
								c0.32-5.949-5.047-10.23-10.524-10.525C131.161,50.957,126.88,56.324,126.585,61.802c-0.057,1.058,1.584,1.052,1.641,0
								c0.617-11.449,17.151-11.449,17.768,0c0.271,5.024-4.253,8.636-8.884,8.885c-5.025,0.271-8.635-4.254-8.884-8.885
								C128.169,60.75,126.528,60.744,126.585,61.802z"/>
						</g>
					</g>
					<g>
						<g>
							<path fill="#524740" d="M121.303,62.382c1.609-1.594,3.858-1.392,5.524,0c0.806,0.673,1.973-0.481,1.16-1.16
								c-2.347-1.96-5.558-2.264-7.845,0C119.391,61.967,120.551,63.126,121.303,62.382L121.303,62.382z"/>
						</g>
					</g>
				</g>
				<path fill="#4A57C0" d="M124.065,144.544l-1.126-34.885l3.16-0.912l9.725,8.691c0,0,1.275-1.885-1.459-5.531
					c-2.735-3.646-6.321-4.74-6.503-4.861c-0.183-0.122-8.57,1.762-8.57,1.762l1.048,36.556L124.065,144.544z"/>
				<path fill="#A9B2F6" d="M132.37,102.445c0,0-16.484,12.797-27.841-2.117c0,0-6.665,7.619-7.17,15.297l11.832-8.109
					c0,0,7.561,4.361,17.01,0l9.844,8.109C136.044,115.625,136.854,106.1,132.37,102.445z"/>
				<rect x="116.502" y="107.773" fill="#A9B2F6" width="4.784" height="38.859"/>
			</g>
			<g>
				
					<rect x="47.814" y="140.279" transform="matrix(0.9997 0.0244 -0.0244 0.9997 4.5667 -2.7149)" fill="#FFFFFF" width="131.185" height="90.557"/>
				<path fill="#FCCAA0" d="M182.134,160.491c0,0-18.836,12.005,2.837,3.518c0,0,6.129-3.272,2.24-6.017
					c0,0,1.923-3.439-1.676-4.103c0,0,1.018-3.963-3.107-3.724c0,0,2.443-4.703-4.526-2.624c-6.969,2.078-16.655,9.706-0.393,4.976
					c0,0-21.47,10.069,1.938,4.114c0,0-4.687,2.394-7.811,4.008c-3.299,1.703-3.271,4.662,1.053,3.232
					C174.925,163.133,178.803,161.865,182.134,160.491z"/>
				<path fill="#FCCAA0" d="M71.76,138.597c0,0,7.351,21.09,4.076-1.952c0,0-1.774-6.718-5.34-3.565c0,0-2.904-2.662-4.379,0.689
					c0,0-3.624-1.903-4.338,2.167c0,0-4.015-3.459-3.596,3.8c0.42,7.261,5.618,18.441,4.753,1.526c0,0,4.864,23.211,4.45-0.939
					c0,0,1.252,5.112,2.104,8.524c0.9,3.601,3.784,4.254,3.388-0.282C72.671,146.22,72.331,142.154,71.76,138.597z"/>
			</g>
		</g>
	</g>
	<text transform="matrix(1 0 0 1 80.2676 167.5952)" font-family="'DFEr-W3-WINP-BF'" font-size="23.1556">胡立歐</text>
	<text transform="matrix(1 0 0 1 65.1631 210.8291)" font-family="'NotoSansCJKtc-Regular-B5pc-H'" font-size="9.0049">leo10175@hotmail.com</text>
	<g>
		<text transform="matrix(1 0 0 1 101.479 190.106)" font-family="'DFEr-W3-WINP-BF'" font-size="23.1556">Leo</text>
	</g>
</g>
</svg>
