<?xml version="1.0" encoding="utf-8"?>
<!-- Generator: Adobe Illustrator 16.0.0, SVG Export Plug-In . SVG Version: 6.00 Build 0)  -->
<!DOCTYPE svg PUBLIC "-//W3C//DTD SVG 1.1//EN" "http://www.w3.org/Graphics/SVG/1.1/DTD/svg11.dtd">
<svg version="1.1" id="圖層_1" xmlns="http://www.w3.org/2000/svg" xmlns:xlink="http://www.w3.org/1999/xlink" x="0px" y="0px"
	 width="60px" height="60px" viewBox="0 0 60 60" enable-background="new 0 0 60 60" xml:space="preserve">
<g>
	<path fill="#626262" d="M58.833,25.511c-0.088-0.631-0.146-1.503-0.278-2.153c-1.202-5.907-4.289-10.897-9.252-14.831
		c-4.877-3.865-10.615-6.04-17.095-6.465C24.552,1.56,17.662,3.5,11.747,7.823c-5.673,4.146-9.134,9.545-10.295,16.048
		c-1.147,6.426,0.205,12.423,4.015,17.825c4.214,5.975,10.271,9.849,18.002,11.517c4.183,0.902,8.446,0.927,12.518,0.09
		c0.025,0,0.122,0.014,0.267,0.075c4.121,1.762,7.572,2.958,10.859,3.766c1.755,0.431,3.834,0.872,5.946,0.872
		c0.491,0,0.978-0.023,1.447-0.07c0.852-0.085,1.773-0.32,2.817-0.718c0.714-0.273,1.234-0.773,1.463-1.406
		c0.233-0.642,0.15-1.372-0.233-2.055c-0.332-0.594-0.81-1.172-1.418-1.717c-0.542-0.485-1.104-0.95-1.649-1.398
		c-0.584-0.482-1.188-0.98-1.748-1.492c-1.132-1.032-2.011-2.252-2.612-3.625c3.78-3.572,6.252-7.775,7.348-12.493
		c0.188-0.807,0.31-1.623,0.428-2.411C58.955,30.276,58.874,25.798,58.833,25.511z M47.128,43.593
		c-0.565,0.479-0.751,1.034-0.584,1.748c0.635,2.732,2.157,5.071,4.789,7.359c0.415,0.36,0.836,0.713,1.265,1.066
		c-0.809,0.015-1.634-0.142-2.487-0.306c-4.787-0.92-9.214-2.651-12.914-4.224c-0.216-0.092-0.552-0.201-0.924-0.201
		c-0.127,0-0.251,0.013-0.367,0.039c-3.871,0.838-7.815,0.832-11.713-0.02c-6.547-1.429-11.671-4.698-15.228-9.717
		c-3.197-4.51-4.322-9.485-3.343-14.786c1.084-5.868,4.373-10.623,9.775-14.134c5.262-3.419,11.288-4.775,17.907-4.025
		c5.876,0.665,10.914,2.943,14.972,6.773c4.133,3.901,6.336,8.545,6.549,13.804C55.086,33.456,52.498,39.048,47.128,43.593z"/>
	<g>
		<path fill="#626262" d="M27.07,16.207c0-1.754,1.381-3.06,3.135-3.06c1.792,0,3.061,1.269,3.061,3.06
			c0,1.716-1.307,2.985-3.061,2.985C28.489,19.192,27.07,17.886,27.07,16.207z M27.668,39.94V24.752c0-1.605,0.896-2.5,2.537-2.5
			c1.68,0,2.575,0.896,2.575,2.5V39.94c0,1.604-0.896,2.5-2.575,2.5C28.563,42.44,27.668,41.544,27.668,39.94z"/>
	</g>
</g>
</svg>
