<?xml version="1.0" encoding="utf-8"?>
<!-- Generator: Adobe Illustrator 16.0.0, SVG Export Plug-In . SVG Version: 6.00 Build 0)  -->
<!DOCTYPE svg PUBLIC "-//W3C//DTD SVG 1.1//EN" "http://www.w3.org/Graphics/SVG/1.1/DTD/svg11.dtd">
<svg version="1.1" id="圖層_1" xmlns="http://www.w3.org/2000/svg" xmlns:xlink="http://www.w3.org/1999/xlink" x="0px" y="0px"
	 width="60px" height="60px" viewBox="0 0 60 60" enable-background="new 0 0 60 60" xml:space="preserve">
<g id="XMLID_8573_">
	<path id="XMLID_8577_" fill="#626262" d="M47.13,22.465c0.331-1.366,0.499-2.768,0.499-4.169c0-9.721-7.908-17.629-17.629-17.629
		c-9.72,0-17.629,7.908-17.629,17.629c0,1.401,0.168,2.803,0.499,4.169c0.472,2.858,1.119,5.166,1.925,6.857
		c1.732,3.639,9.022,15.651,12.369,21.123c-4.524,0.576-6.625,2.522-6.625,4.356c0,2.182,2.961,4.531,9.461,4.531
		c6.501,0,9.461-2.35,9.461-4.531c0-1.834-2.101-3.78-6.626-4.356c3.347-5.472,10.638-17.484,12.37-21.123
		C46.011,27.631,46.658,25.323,47.13,22.465z M36.734,54.802c-0.184,0.516-2.46,1.809-6.734,1.809c-4.324,0-6.603-1.324-6.74-1.791
		c0.123-0.453,1.981-1.563,5.493-1.785c0.041,0.066,0.072,0.117,0.089,0.145c0.247,0.4,0.686,0.646,1.158,0.646
		c0.472,0,0.911-0.246,1.159-0.646c0.016-0.027,0.047-0.078,0.087-0.145C34.713,53.253,36.569,54.339,36.734,54.802z M17.252,28.152
		c-0.689-1.449-1.278-3.587-1.703-6.18c-0.006-0.035-0.013-0.07-0.022-0.105c-0.288-1.17-0.433-2.372-0.433-3.571
		C15.094,10.076,21.78,3.39,30,3.39s14.907,6.687,14.907,14.906c0,1.199-0.146,2.401-0.434,3.571
		c-0.009,0.034-0.016,0.07-0.021,0.105c-0.425,2.593-1.015,4.73-1.704,6.18c-1.75,3.673-9.73,16.783-12.748,21.71
		C26.983,44.936,19.002,31.826,17.252,28.152z"/>
	<path id="XMLID_8574_" fill="#626262" d="M30,8.327c-5.217,0-9.461,4.244-9.461,9.462c0,5.216,4.244,9.46,9.461,9.46
		s9.461-4.244,9.461-9.46C39.461,12.571,35.217,8.327,30,8.327z M23.262,17.789c0-3.717,3.022-6.739,6.738-6.739
		s6.738,3.022,6.738,6.739c0,3.715-3.022,6.737-6.738,6.737S23.262,21.504,23.262,17.789z"/>
</g>
</svg>
