<?xml version="1.0" encoding="utf-8"?>
<!-- Generator: Adobe Illustrator 16.0.0, SVG Export Plug-In . SVG Version: 6.00 Build 0)  -->
<!DOCTYPE svg PUBLIC "-//W3C//DTD SVG 1.1//EN" "http://www.w3.org/Graphics/SVG/1.1/DTD/svg11.dtd">
<svg version="1.1" id="圖層_1" xmlns="http://www.w3.org/2000/svg" xmlns:xlink="http://www.w3.org/1999/xlink" x="0px" y="0px"
	 width="120px" height="145.463px" viewBox="0 0 120 145.463" enable-background="new 0 0 120 145.463" xml:space="preserve">
<g>
	<g>
		<g>
			<g>
				<path fill="#FFFFFF" d="M47.86,42.299c0,0.438,0.361,0.802,0.809,0.802s0.809-0.364,0.809-0.802
					c0-0.446-0.361-0.805-0.809-0.805S47.86,41.854,47.86,42.299z"/>
				<path fill="#FFFFFF" d="M57.958,29.832c0.442,0,0.804-0.362,0.804-0.804c0-0.443-0.362-0.809-0.804-0.809
					c-0.447,0-0.813,0.366-0.813,0.809C57.145,29.47,57.511,29.832,57.958,29.832z"/>
				<path fill="#FFFFFF" d="M51.443,42.818c0.206,0,0.392-0.092,0.512-0.256c0.231-0.286,0.177-0.705-0.1-0.922l-2.906-2.273
					c-0.125-0.087-0.265-0.136-0.406-0.136c-0.205,0-0.396,0.09-0.526,0.253c-0.106,0.145-0.156,0.312-0.141,0.484
					c0.025,0.18,0.12,0.334,0.261,0.445l2.899,2.268C51.152,42.769,51.299,42.818,51.443,42.818z"/>
				<path fill="#FFFFFF" d="M58.103,23.16c0.446,0,0.811-0.367,0.811-0.806c0-0.447-0.364-0.808-0.811-0.808
					c-0.436,0-0.801,0.361-0.801,0.808C57.302,22.792,57.667,23.16,58.103,23.16z"/>
				<path fill="#FFFFFF" d="M45.924,46.189c0-0.447-0.366-0.811-0.809-0.811c-0.456,0-0.803,0.363-0.803,0.811
					c0,0.44,0.347,0.801,0.803,0.801C45.558,46.991,45.924,46.63,45.924,46.189z"/>
				<path fill="#FFFFFF" d="M51.012,37.698c0-0.447-0.367-0.811-0.808-0.811c-0.447,0-0.814,0.364-0.814,0.811
					c0,0.446,0.367,0.801,0.814,0.801C50.646,38.499,51.012,38.144,51.012,37.698z"/>
				<path fill="#FFFFFF" d="M56.693,24.138c-0.438,0-0.803,0.369-0.803,0.813c0,0.439,0.366,0.805,0.803,0.805
					c0.441,0,0.807-0.366,0.807-0.805C57.5,24.506,57.135,24.138,56.693,24.138z"/>
				<path fill="#FFFFFF" d="M25.83,67.316l0.05-0.018c1.2-0.419,2.209-1.019,2.996-1.771c1.104-1.064,1.828-2.504,2.137-4.284
					l0.011-0.05c0-0.004-0.006-0.02-0.011-0.022c-0.004-0.009-0.02-0.005-0.025,0.002l-0.04,0.033
					c-0.863,0.739-1.817,1.397-2.84,1.942c0,0.003,0,0.006,0,0.008l-2.298,4.125c0,0.01,0,0.023,0,0.033
					c0.005,0,0.01,0.005,0.015,0.005C25.824,67.32,25.83,67.32,25.83,67.316z"/>
				<path fill="#FFFFFF" d="M38.688,54.359c-0.011,0.005-0.011,0.009-0.011,0.015c0,0.004,0,0.012,0,0.023l0.011,0.016
					c0.591,0.965,1.324,1.778,2.197,2.417v0.005c0.005,0.001,0.005,0.001,0.019,0.001l0,0l0.017-0.005
					c3.784-1.701,9.811-3.824,17.078-4.294l0.014-0.002c0.01,0,0.025-0.008,0.025-0.02v-0.038c0-0.083,0-0.174,0-0.271
					c0-1.435,1.119-2.604,2.495-2.604c0.035,0,0.063,0,0.114,0.005c0.027-0.005,0.066-0.005,0.101-0.005
					c1.38,0,2.494,1.169,2.494,2.604c0,0.062,0,0.12,0,0.187v0.092c0,0.013,0.017,0.025,0.025,0.025l0.016,0.002
					c5.459,0.295,10.725,1.652,15.644,4.007l0.014,0.005c0.005,0.003,0.009,0.003,0.015-0.005h0.01
					c0.988-0.573,1.872-1.297,2.636-2.167l0.014-0.02c0.006-0.009,0.006-0.011,0.006-0.018c0-0.01-0.006-0.017-0.011-0.021
					l-0.023-0.008c-4.532-2.34-9.345-3.885-14.313-4.576c-0.096-2.826-0.969-5.459-2.449-7.422c-1.484-1.978-3.442-3.07-5.494-3.07
					c-2.139,0-4.14,1.15-5.642,3.238c-1.49,2.073-2.323,4.833-2.333,7.771c-5.49,1.07-9.901,2.833-12.642,4.129L38.688,54.359z"/>
				<path fill="#FFFFFF" d="M42.868,50.459c0-0.444-0.362-0.808-0.809-0.808c-0.442,0-0.808,0.363-0.808,0.808
					c0,0.445,0.366,0.808,0.808,0.808C42.506,51.268,42.868,50.905,42.868,50.459z"/>
				<path fill="#FFFFFF" d="M44.117,48.722c0.024,0.358,0.31,0.641,0.668,0.641h0.02c0.005,0,0.005,0,0.005,0l4.366-0.134
					c0.175,0,0.336-0.077,0.456-0.206c0.115-0.128,0.191-0.295,0.181-0.474c-0.015-0.353-0.306-0.639-0.677-0.639l-4.367,0.127
					C44.408,48.05,44.112,48.357,44.117,48.722z"/>
				<path fill="#FFFFFF" d="M20.531,76.852l0.044-0.019c0.332-0.138,0.684-0.209,1.03-0.209c0.049,0,0.1,0.004,0.135,0.004
					c0.045,0.002,0.09,0.002,0.166,0.002c0.407,0,1.893-0.038,3.542-0.543l0.006-0.004c0.005,0,0.005-0.009,0.01-0.01l1.902-3.421
					c0.01-0.004,0.01-0.016,0-0.021c0-0.006-0.016-0.015-0.021-0.006l-0.05,0.012c-2.082,0.676-3.979,0.823-4.917,0.856h-0.01
					c-0.021,0-0.021,0.005-0.021,0.015l-1.853,3.319c0,0.004,0,0.014,0.011,0.022c0,0.003,0.01,0.003,0.01,0.003
					C20.525,76.852,20.525,76.852,20.531,76.852z"/>
				<path fill="#FFFFFF" d="M71.822,38.002c0-0.445-0.351-0.803-0.796-0.803c-0.447,0-0.813,0.358-0.813,0.803
					c0,0.446,0.366,0.809,0.813,0.809C71.472,38.811,71.822,38.448,71.822,38.002z"/>
				<path fill="#FFFFFF" d="M36.979,47.281c0,2.306,0.371,4.319,1.105,5.973l0.015,0.039c0.005,0.003,0.02,0.012,0.02,0.007
					c0.015,0,0.02-0.004,0.025-0.007l5.139-9.24l6.474,1.94c0.069,0.018,0.13,0.025,0.197,0.025c0.294,0,0.54-0.185,0.627-0.471
					c0.048-0.171,0.039-0.35-0.042-0.505c-0.085-0.156-0.231-0.266-0.396-0.321l-6.202-1.852l5.871-10.541l3.286,7.82
					c0.105,0.246,0.341,0.405,0.603,0.405c0.086,0,0.186-0.016,0.256-0.053c0.347-0.138,0.502-0.529,0.362-0.862l-3.348-7.957
					c-0.094-0.236-0.316-0.388-0.583-0.404l2.807-5.023l2.88,11.829c0.07,0.301,0.342,0.509,0.643,0.509
					c0.061,0,0.111-0.006,0.161-0.017c0.17-0.043,0.311-0.148,0.411-0.301c0.085-0.154,0.115-0.333,0.07-0.501l-3.196-13.109
					c-0.005-0.029-0.011-0.065-0.026-0.103l5.089-9.158l0.06,22.233c0,0.361,0.297,0.657,0.663,0.657
					c0.368-0.001,0.662-0.298,0.662-0.663l-0.06-22.62l5.746,10.316c0,0.002,0,0.002,0,0.004L62.75,38.579
					c-0.096,0.353,0.115,0.717,0.476,0.815c0.05,0.011,0.112,0.018,0.167,0.018c0.301,0,0.558-0.201,0.637-0.488l3.188-11.93
					l2.773,4.977c-0.068-0.024-0.139-0.034-0.211-0.034c-0.25,0-0.48,0.141-0.592,0.369L65.27,40.14
					c-0.08,0.158-0.091,0.338-0.046,0.503c0.06,0.169,0.175,0.302,0.332,0.384c0.102,0.048,0.206,0.067,0.302,0.067
					c0.243,0,0.475-0.134,0.59-0.363l3.926-7.838c0.024-0.048,0.04-0.098,0.046-0.146l5.283,9.483l-7.372,2.237
					c-0.355,0.106-0.549,0.479-0.442,0.826c0.087,0.275,0.338,0.469,0.627,0.469c0.066,0,0.132-0.008,0.191-0.026l7.657-2.324
					l5.709,10.263l0.008,0.02c0.011,0.005,0.016,0.015,0.021,0.015l0,0c0.005,0,0.008-0.002,0.016-0.012l0.018-0.021
					c0.925-1.248,1.607-2.737,2.018-4.416v-0.004c0-0.004,0-0.009,0-0.014L62.274,9.929l3.884-6.972
					c0.256-0.468,0.32-1.005,0.174-1.515c-0.15-0.509-0.485-0.931-0.947-1.195C65.094,0.085,64.756,0,64.424,0
					c-0.727,0-1.392,0.392-1.734,1.023l-25.71,46.174c0,0.004,0,0.016,0,0.017c0,0.014,0,0.023,0,0.033
					C36.979,47.258,36.979,47.268,36.979,47.281z"/>
				<path fill="#FFFFFF" d="M52.493,31.641c0,0.444,0.361,0.807,0.797,0.807c0.451,0,0.809-0.363,0.809-0.807
					c0-0.443-0.357-0.806-0.809-0.806C52.854,30.834,52.493,31.198,52.493,31.641z"/>
				<path fill="#FFFFFF" d="M67.733,32.772c0-0.44-0.36-0.801-0.802-0.801c-0.448,0-0.8,0.36-0.8,0.801
					c0,0.448,0.352,0.809,0.8,0.809C67.373,33.581,67.733,33.22,67.733,32.772z"/>
				<path fill="#FFFFFF" d="M56.859,8.371c0.005,0.004,0.005,0.006,0.02,0.006l0,0c0.004,0,0.015-0.002,0.015-0.006l0.016-0.031
					c0.797-1.478,1.53-2.697,2.328-3.828l0.01-0.01c0.005-0.006,0.005-0.017,0-0.022L57.31,1.023C56.968,0.392,56.302,0,55.575,0
					c-0.332,0-0.667,0.085-0.959,0.247c-0.959,0.542-1.305,1.749-0.773,2.71L56.859,8.371z"/>
				<path fill="#FFFFFF" d="M111.644,85.12h-5.985c-0.021,0-0.025,0.003-0.03,0.007c-0.011,0.008-0.011,0.02,0,0.024l2.182,3.921
					l0.007,0.011c0.004,0.004,0.009,0.011,0.014,0.011h3.813c1.094,0,1.987-0.894,1.987-1.989
					C113.631,86.007,112.737,85.12,111.644,85.12z"/>
				<path fill="#FFFFFF" d="M20.38,85.215l1.676-3.01l0.016-0.027c0.004-0.009,0.004-0.016,0-0.024
					c-0.01-0.006-0.016-0.009-0.025-0.009l0,0h-0.025c-0.271,0.005-0.441-0.008-0.512-0.008l-0.01-0.002
					c-1.279-0.062-2.384-1.023-2.605-2.281l-0.004-0.056c-0.005-0.002-0.005-0.013-0.021-0.014
					c-0.015-0.007-0.015,0.004-0.025,0.012l-7.126,12.81c-0.533,0.957-0.196,2.168,0.763,2.707c0.306,0.164,0.638,0.249,0.968,0.249
					c0.725,0,1.386-0.391,1.742-1.02l2.971-5.345h83.677l2.977,5.345c0.352,0.629,1.015,1.02,1.737,1.02
					c0.331,0,0.672-0.085,0.967-0.249c0.959-0.539,1.3-1.75,0.763-2.707l-6.223-11.195l-0.01-0.013
					c-0.005-0.008-0.024-0.017-0.024-0.008l-0.021,0.008c-0.338,0.157-0.697,0.245-1.065,0.266
					c-0.056,0.002-0.199,0.006-0.436,0.006c-0.511,0-1.586-0.032-2.916-0.247l-0.045-0.007c0,0-0.01,0.002-0.014,0.01
					c-0.006,0.009-0.006,0.016,0,0.021l2.092,3.77H20.38z"/>
				<path fill="#FFFFFF" d="M12.185,89.083l2.177-3.908l0.011-0.023c0.01-0.005,0.01-0.017,0-0.024c0-0.004-0.011-0.007-0.021-0.007
					H8.356c-1.095,0-1.987,0.887-1.987,1.984c0,1.096,0.893,1.989,1.987,1.989h3.813C12.175,89.094,12.18,89.087,12.185,89.083z"/>
				<path fill="#FFFFFF" d="M67.176,42.048c-0.149,0.109-0.244,0.262-0.278,0.437c-0.017,0.174,0.022,0.349,0.129,0.49
					c0.12,0.169,0.319,0.27,0.531,0.27c0.146,0,0.275-0.043,0.39-0.125l2.977-2.174c0.142-0.104,0.236-0.257,0.262-0.433
					c0.023-0.175-0.009-0.348-0.12-0.489c-0.122-0.171-0.325-0.27-0.527-0.27c-0.141,0-0.281,0.043-0.393,0.125L67.176,42.048z"/>
				<path fill="#FFFFFF" d="M62.705,24.495c-0.438,0-0.794,0.363-0.794,0.811c0,0.44,0.356,0.805,0.794,0.805
					c0.456,0,0.812-0.364,0.812-0.805C63.518,24.858,63.161,24.495,62.705,24.495z"/>
				<path fill="#FFFFFF" d="M96.916,72.203h-0.008c-2.116-0.422-4.027-1.158-5.664-2.192l-0.055-0.04
					c-0.005-0.004-0.031-0.004-0.033,0.001c-0.009,0.006-0.009,0.021,0,0.029l1.764,3.169c0,0.004,0.016,0.008,0.016,0.008
					c0.012,0.014,0.015,0.028,0.03,0.041l0.013,0.022c0.047,0.044,0.093,0.086,0.137,0.136c1.735,1.661,4.102,2.272,5.786,2.49
					l0.037,0.005l0,0c0.009,0,0.013-0.002,0.013-0.008c0.009-0.007,0.009-0.02,0.008-0.024l-2.011-3.621l-0.014-0.007
					C96.935,72.208,96.932,72.203,96.916,72.203z"/>
				<path fill="#FFFFFF" d="M69.381,46.885c-0.357,0-0.65,0.281-0.664,0.641c-0.011,0.359,0.271,0.67,0.647,0.683l6.861,0.227
					c0.014,0,0.019,0,0.024,0c0.366,0,0.65-0.28,0.662-0.637c0.016-0.367-0.277-0.674-0.643-0.685l-6.864-0.229H69.381z"/>
				<path fill="#FFFFFF" d="M62.028,29.552c0,0.443,0.365,0.81,0.799,0.81c0.448,0,0.812-0.367,0.812-0.81
					c0-0.44-0.363-0.803-0.812-0.803C62.394,28.749,62.028,29.111,62.028,29.552z"/>
				<path fill="#FFFFFF" d="M76.356,49.816c0,0.45,0.354,0.812,0.802,0.812c0.441,0,0.807-0.363,0.807-0.812
					c0-0.444-0.365-0.805-0.807-0.805C76.71,49.011,76.356,49.372,76.356,49.816z"/>
				<path fill="#FFFFFF" d="M73.99,45.839c0-0.441-0.365-0.799-0.807-0.799c-0.446,0-0.803,0.358-0.803,0.799
					c0,0.447,0.356,0.809,0.803,0.809C73.625,46.648,73.99,46.286,73.99,45.839z"/>
			</g>
			<path fill="#FFFFFF" d="M32.359,85.215v-8.282l-0.949,0.812c-3.532,3.007-8.18,3.24-9.52,3.24c-0.16,0-0.271-0.003-0.336-0.008
				c-0.433-0.019-0.834-0.205-1.125-0.52c-0.287-0.321-0.433-0.729-0.422-1.152c0.046-0.838,0.763-1.52,1.597-1.52
				c0.03,0,0.049,0,0.1,0c0.005,0.002,0.065,0.004,0.201,0.004c0.803,0,4.993-0.135,7.768-2.783
				c1.351-1.296,2.208-3.058,2.529-5.248l0.211-1.487l-1.153,0.957c-3.514,2.891-8.051,3.115-9.355,3.115
				c-0.175,0-0.285-0.002-0.376-0.004c-0.883-0.048-1.556-0.792-1.521-1.669c0.046-0.831,0.769-1.525,1.591-1.525
				c0.025,0,0.055,0,0.082,0h0.014c0.036,0.004,0.095,0.004,0.19,0.004c0.82,0,5.019-0.138,7.789-2.787
				c1.662-1.588,2.555-3.844,2.666-6.714l0.065-1.558l-1.064,1.138c-2.951,3.162-6.394,3.985-6.544,4.018
				c-0.1,0.025-0.226,0.041-0.341,0.041c-0.753,0-1.39-0.517-1.556-1.256c-0.191-0.855,0.352-1.705,1.209-1.906
				c0.332-0.077,8.25-2.016,8.25-12.844c0-0.884,0.723-1.599,1.601-1.599c0.01,0,0.035,0.003,0.065,0.005l0.066,0.008l0.07-0.008
				c0.03-0.002,0.05-0.005,0.069-0.005c0.877,0,1.596,0.715,1.596,1.599c0,10.711,7.467,11.951,7.788,11.999
				c0.869,0.123,1.481,0.929,1.354,1.796c-0.099,0.791-0.782,1.386-1.58,1.386c-0.075,0-0.145-0.005-0.222-0.017
				c-0.14-0.016-3.457-0.526-6.347-3.416l-1.025-1.027l0.035,1.449c0.085,2.963,0.983,5.286,2.679,6.912
				c2.771,2.649,6.982,2.787,7.794,2.787c0.112,0,0.172,0,0.181,0l0.066-0.004c0.867,0,1.585,0.666,1.625,1.514
				c0.02,0.428-0.125,0.839-0.416,1.154c-0.281,0.313-0.668,0.503-1.064,0.523l-0.07,0.002c-0.016,0-0.125,0.004-0.346,0.004
				c-1.311,0-5.845-0.224-9.349-3.115l-1.159-0.955l0.215,1.488c0.321,2.188,1.174,3.95,2.523,5.246
				c2.776,2.648,6.971,2.783,7.784,2.783c0.095,0,0.16-0.002,0.191-0.004h0.055c0.878,0,1.597,0.666,1.636,1.519
				c0.02,0.423-0.125,0.831-0.416,1.151c-0.281,0.316-0.673,0.498-1.094,0.521h-0.041c-0.086,0.008-0.196,0.01-0.346,0.01
				c-1.331,0-5.971-0.233-9.501-3.242l-0.952-0.812v8.282H32.359z M62.08,85.215v-6.036l0.961,0.855
				c2.935,2.604,6.704,2.808,7.782,2.808c0.077,0,0.222,0,0.309-0.008c0.731-0.044,1.304-0.723,1.273-1.515
				c-0.036-0.752-0.638-1.381-1.334-1.381l-0.051,0.005c-0.065,0.003-0.116,0.003-0.197,0.003c-0.665,0-4.179-0.123-6.499-2.538
				c-1.093-1.138-1.791-2.674-2.082-4.571l-0.239-1.538l1.188,1.009c2.904,2.49,6.588,2.68,7.632,2.68
				c0.158,0,0.257-0.006,0.303-0.013h0.019c0.729-0.041,1.291-0.715,1.261-1.511c-0.036-0.759-0.63-1.381-1.34-1.381l-0.045,0.005
				c-0.023,0-0.08,0.002-0.182,0.002c-0.672,0-4.194-0.124-6.515-2.537c-1.343-1.398-2.092-3.381-2.224-5.884l-0.077-1.634
				l1.088,1.218c2.418,2.692,5.194,3.436,5.311,3.468c0.084,0.017,0.184,0.031,0.276,0.031c0.625,0,1.163-0.469,1.292-1.136
				c0.162-0.772-0.289-1.549-1.012-1.728c-0.277-0.07-6.898-1.819-6.898-11.684c0-0.386-0.139-0.751-0.39-1.021
				c-0.24-0.274-0.582-0.425-0.943-0.425l0,0l-0.073,0.008l-0.106-0.005l-0.011-0.003c-0.01,0-0.013-0.005-0.023-0.005
				c-0.739,0-1.329,0.655-1.329,1.451c0,9.764-6.25,10.871-6.51,10.914c-0.738,0.112-1.235,0.844-1.139,1.633
				c0.095,0.78,0.762,1.348,1.495,1.239c0.115-0.021,2.81-0.524,5.139-2.941l1.059-1.087l-0.06,1.511
				c-0.096,2.596-0.854,4.64-2.228,6.081c-2.324,2.413-5.843,2.537-6.535,2.537c-0.105,0-0.151-0.002-0.17-0.002l-0.041-0.005
				c-0.712,0.005-1.304,0.606-1.339,1.376c-0.035,0.797,0.535,1.475,1.274,1.516h0.021c0.049,0.007,0.145,0.01,0.281,0.01
				c1.053,0,4.732-0.193,7.637-2.677l1.182-1.009l-0.232,1.538c-0.286,1.897-0.988,3.434-2.077,4.571
				c-2.328,2.415-5.833,2.538-6.509,2.538c-0.106,0-0.151-0.003-0.166-0.003h-0.051c-0.723,0-1.325,0.602-1.36,1.373
				c-0.035,0.792,0.531,1.474,1.258,1.518c0.072,0.002,0.167,0.008,0.318,0.008c1.083,0,4.857-0.204,7.777-2.808l0.976-0.855v6.036
				H62.08z M89.463,85.215v-8.976l0.983,0.839c3.72,3.185,8.633,3.43,10.057,3.43c0.141,0,0.28-0.003,0.377-0.004
				c0.456-0.022,0.859-0.222,1.164-0.554c0.299-0.336,0.458-0.764,0.431-1.214c-0.045-0.899-0.802-1.604-1.726-1.604h-0.046
				c-0.029,0.004-0.091,0.01-0.222,0.01c-0.849,0-5.268-0.144-8.183-2.938c-1.439-1.376-2.335-3.256-2.671-5.585l-0.216-1.5
				l1.181,0.98c3.703,3.07,8.511,3.309,9.889,3.309c0.15,0,0.272-0.002,0.394-0.008c0.461-0.023,0.864-0.221,1.169-0.553
				c0.299-0.335,0.458-0.764,0.431-1.208c-0.045-0.901-0.793-1.607-1.711-1.607l-0.065,0.005c0,0,0,0-0.004,0
				c-0.01,0-0.082,0.002-0.191,0.002c-0.858,0-5.289-0.142-8.204-2.935c-1.803-1.724-2.75-4.189-2.827-7.334l-0.034-1.473
				l1.049,1.051c3.082,3.093,6.69,3.628,6.721,3.638c0.072,0.008,0.139,0.01,0.221,0.01c0.844,0,1.559-0.627,1.68-1.459
				c0.121-0.919-0.525-1.764-1.435-1.889c-0.331-0.056-8.21-1.403-8.21-12.643c0-0.931-0.75-1.684-1.684-1.684
				c-0.022,0-0.038,0-0.073,0.002l-0.063,0.011l-0.066-0.011c-0.026,0-0.051-0.002-0.076-0.002c-0.938,0-1.689,0.752-1.689,1.684
				c0,11.378-8.343,13.448-8.684,13.53c-0.901,0.212-1.483,1.107-1.285,2.012c0.171,0.774,0.854,1.319,1.648,1.319
				c0.125,0,0.244-0.013,0.359-0.04c0.155-0.03,3.79-0.88,6.925-4.263l1.081-1.167L85.8,57.969c-0.109,3.049-1.055,5.45-2.822,7.132
				c-2.909,2.797-7.334,2.939-8.188,2.939c-0.084,0-0.155-0.002-0.222-0.002c-0.03-0.005-0.049-0.008-0.079-0.008
				c-0.874,0-1.642,0.741-1.682,1.613c-0.04,0.923,0.677,1.714,1.617,1.758c0.039,0.003,0.165,0.008,0.375,0.008
				c1.376,0,6.193-0.239,9.891-3.309l1.174-0.98l-0.204,1.5c-0.329,2.33-1.23,4.209-2.682,5.585
				c-2.909,2.794-7.313,2.938-8.179,2.938c-0.094,0-0.171-0.006-0.21-0.006l-0.046-0.008h-0.061c-0.877,0-1.636,0.724-1.676,1.616
				c-0.04,0.926,0.668,1.713,1.596,1.759c0.056,0.001,0.181,0.004,0.396,0.004c1.416,0,6.318-0.243,10.037-3.43l0.975-0.839v8.976
				H89.463z"/>
		</g>
		<g>
			<g>
				<path fill="#FFFFFF" d="M23.688,110.941c-0.787,0-1.425,0.643-1.425,1.427v12.198c0,0.338-0.275,0.617-0.615,0.617h-7.379
					c-0.326,0-0.581-0.271-0.581-0.617v-18.478c0-0.758-0.662-1.424-1.422-1.424c-0.778,0-1.428,0.652-1.428,1.424v18.478
					c0,0.338-0.277,0.617-0.614,0.617H3.458c-0.336,0-0.608-0.279-0.608-0.617V112.53c0-0.8-0.628-1.426-1.427-1.426
					C0.626,111.104,0,111.73,0,112.53v13.105c0,1.321,1.071,2.395,2.395,2.395h20.322c1.322,0,2.396-1.073,2.396-2.395v-13.268
					C25.113,111.584,24.475,110.941,23.688,110.941z"/>
				<path fill="#FFFFFF" d="M42.239,118.55h-3.632c-0.218,0-0.389-0.158-0.389-0.354v-0.26c0-0.734-0.594-1.328-1.321-1.328
					c-0.739,0-1.332,0.594-1.332,1.328v0.26c0,0.207-0.15,0.354-0.358,0.354h-3.232c-0.753,0-1.365,0.621-1.365,1.391
					c0,0.762,0.6,1.361,1.365,1.361h1.42c0.113,0,0.221,0.064,0.283,0.166c0.055,0.104,0.047,0.225-0.017,0.332l-3.074,4.984
					c-0.177,0.285-0.179,0.635-0.017,0.933c0.17,0.298,0.477,0.476,0.82,0.476c0.995,0,1.899-0.525,2.423-1.407l1.524-2.561
					c0.024-0.064,0.072-0.073,0.102-0.073c0.062,0,0.125,0.048,0.125,0.124v4.761c0,0.732,0.593,1.328,1.332,1.328
					c0.728,0,1.321-0.596,1.321-1.328v-4.988c0-0.081,0.081-0.129,0.149-0.129c0.029,0,0.081,0.006,0.118,0.052l1.221,2.21
					c0.463,0.826,1.34,1.342,2.292,1.342c0.328,0,0.62-0.168,0.791-0.457c0.17-0.285,0.17-0.629,0.016-0.918l-2.39-4.379
					c-0.04-0.072-0.014-0.15,0.013-0.2c0.083-0.142,0.297-0.267,0.457-0.267h1.353c0.765,0,1.361-0.6,1.361-1.361
					C43.6,119.171,42.99,118.55,42.239,118.55z"/>
				<path fill="#FFFFFF" d="M55.011,121.769c-0.054-0.097-0.054-0.211,0.004-0.306c0.055-0.102,0.165-0.161,0.29-0.161h0.877
					c0.764,0,1.361-0.6,1.361-1.361c0-0.77-0.613-1.391-1.361-1.391h-2.976c-0.221,0-0.394-0.158-0.394-0.354v-0.26
					c0-0.746-0.57-1.328-1.292-1.328c-0.734,0-1.331,0.594-1.331,1.328v0.26c0,0.195-0.168,0.354-0.385,0.354h-3.893
					c-0.732,0-1.361,0.637-1.361,1.391c0,0.753,0.615,1.361,1.361,1.361h1.679c0.166,0,0.388,0.127,0.479,0.276
					c0.052,0.077,0.057,0.154,0.025,0.224l-2.559,4.467c-0.156,0.287-0.156,0.625,0.014,0.911c0.176,0.29,0.48,0.464,0.825,0.464
					c0.971,0,1.847-0.516,2.294-1.344l1.263-2.2c0.025-0.05,0.074-0.077,0.13-0.077c0.064,0,0.128,0.043,0.128,0.126v4.888
					c0,0.732,0.596,1.328,1.331,1.328c0.722,0,1.292-0.584,1.292-1.328v-5.115c0-0.103,0.075-0.142,0.137-0.142
					c0.052,0,0.099,0.024,0.128,0.06l1.323,2.43c0.497,0.859,1.385,1.375,2.36,1.375c0.343,0,0.649-0.173,0.813-0.461
					c0.171-0.293,0.168-0.648-0.005-0.948L55.011,121.769z"/>
				<path fill="#FFFFFF" d="M45.338,114.666v-5.308c0-0.135,0.12-0.211,0.227-0.211c0.064,0,0.128,0.027,0.171,0.07l3.304,3.368
					c0.848,0.848,2.038,1.335,3.257,1.335c0.331,0,0.611-0.191,0.743-0.504c0.126-0.309,0.064-0.645-0.171-0.877l-4.202-4.272
					c-0.066-0.08-0.086-0.179-0.046-0.265c0.041-0.081,0.124-0.131,0.212-0.131h2.871c0.765,0,1.393-0.626,1.393-1.393
					c0-0.769-0.628-1.394-1.393-1.394h-5.879c-0.27,0-0.487-0.214-0.487-0.486v-0.516c0-0.762-0.6-1.361-1.359-1.361
					c-0.768,0-1.39,0.61-1.39,1.361v0.516c0,0.282-0.192,0.486-0.455,0.486h-5.855c-0.77,0-1.396,0.625-1.396,1.394
					c0,0.767,0.626,1.393,1.396,1.393h2.879c0.089,0,0.161,0.044,0.196,0.121c0.032,0.083,0.009,0.172-0.056,0.241l-4.338,4.273
					c-0.248,0.247-0.325,0.597-0.195,0.909c0.132,0.312,0.421,0.504,0.768,0.504c1.244,0,2.409-0.486,3.294-1.366l3.399-3.301
					c0.042-0.048,0.1-0.074,0.162-0.074c0.094,0,0.201,0.075,0.201,0.21v5.276c0,0.767,0.623,1.393,1.39,1.393
					C44.731,116.059,45.338,115.433,45.338,114.666z"/>
				<path fill="#FFFFFF" d="M87.929,105.571H73.007c-0.139,0-0.267-0.068-0.357-0.191c-0.082-0.125-0.108-0.286-0.062-0.408
					l0.419-0.94c0.146-0.353,0.113-0.726-0.088-1.021c-0.191-0.285-0.499-0.45-0.85-0.45c-0.923,0-1.775,0.541-2.231,1.412
					l-0.415,0.972c-0.172,0.43-0.589,0.627-0.91,0.627h-5.021c-0.824,0-1.421,0.598-1.421,1.425c0,0.807,0.597,1.39,1.421,1.39
					h3.661c0.172,0,0.335,0.094,0.431,0.247c0.089,0.136,0.111,0.297,0.056,0.421l-4.665,10.355
					c-0.14,0.355-0.109,0.731,0.096,1.033c0.185,0.273,0.49,0.438,0.814,0.438c0.965,0,1.823-0.553,2.231-1.443l1.484-3.203
					c0.04-0.08,0.124-0.108,0.186-0.108c0.088,0,0.177,0.047,0.177,0.161v13.136c0,0.801,0.555,1.362,1.356,1.362
					c0.77,0,1.331-0.574,1.331-1.362v-3.558c0-0.35,0.355-0.648,0.646-0.648h11.198c0.345,0,0.676,0.313,0.676,0.648v3.558
					c0,0.801,0.573,1.362,1.393,1.362c0.802,0,1.358-0.562,1.358-1.362V113.47c0-1.311-1.03-2.301-2.395-2.301H70.486
					c-0.15,0-0.281-0.066-0.358-0.188c-0.082-0.122-0.092-0.275-0.037-0.408l0.682-1.494c0.153-0.387,0.55-0.692,0.913-0.692h16.243
					c0.793,0,1.397-0.598,1.397-1.39C89.326,106.169,88.737,105.571,87.929,105.571z M82.495,116.672H71.297
					c-0.319,0-0.646-0.35-0.646-0.68v-1.392c0-0.33,0.327-0.68,0.646-0.68h11.198c0.335,0,0.676,0.342,0.676,0.68v1.392
					C83.171,116.329,82.83,116.672,82.495,116.672z M71.297,119.487h11.198c0.335,0,0.676,0.344,0.676,0.68v1.488
					c0,0.332-0.331,0.645-0.676,0.645H71.297c-0.291,0-0.646-0.297-0.646-0.645v-1.488C70.65,119.839,70.978,119.487,71.297,119.487
					z"/>
				<path fill="#FFFFFF" d="M117.768,117.415h-3.852c-0.124,0-0.242-0.065-0.32-0.178c-0.088-0.115-0.114-0.263-0.071-0.393
					l0.551-1.682c0.11-0.313,0.058-0.664-0.144-0.947c-0.201-0.285-0.523-0.458-0.855-0.458c-0.876,0-1.639,0.544-1.941,1.382
					l-0.582,1.683c-0.133,0.36-0.45,0.593-0.809,0.593h-5.052c-0.369,0-0.718-0.241-0.842-0.593l-0.649-1.683
					c-0.296-0.825-1.091-1.382-1.97-1.382c-0.343,0-0.653,0.159-0.854,0.439c-0.203,0.287-0.263,0.659-0.146,0.996l0.615,1.651
					c0.043,0.139,0.023,0.287-0.061,0.404c-0.08,0.105-0.196,0.166-0.33,0.166h-3.917c-0.748,0-1.357,0.627-1.357,1.394
					s0.609,1.392,1.357,1.392h8.607c0.343,0,0.617,0.255,0.617,0.582v1.906c0,0.343-0.283,0.616-0.617,0.616h-6.019
					c-0.79,0-1.427,0.626-1.427,1.393c0,0.801,0.626,1.427,1.427,1.427h6.019c0.343,0,0.617,0.255,0.617,0.579v2.685
					c0,0.789,0.623,1.428,1.388,1.428c0.797,0,1.425-0.626,1.425-1.428v-2.685c0-0.336,0.245-0.579,0.587-0.579h6.049
					c0.766,0,1.393-0.644,1.393-1.427c0-0.767-0.627-1.393-1.393-1.393h-6.049c-0.33,0-0.587-0.268-0.587-0.616v-1.906
					c0-0.338,0.245-0.582,0.587-0.582h8.605c0.766,0,1.394-0.625,1.394-1.392S118.533,117.415,117.768,117.415z"/>
				<path fill="#FFFFFF" d="M118.576,110.069h-9.414c-0.321,0-0.587-0.262-0.587-0.582v-1.264c0-0.335,0.245-0.578,0.587-0.578
					h6.957c0.748,0,1.394-0.653,1.394-1.425c0-0.787-0.626-1.425-1.394-1.425h-7.157c-0.233,0-0.387-0.141-0.387-0.355v-0.229
					c0-0.797-0.628-1.423-1.425-1.423c-0.765,0-1.388,0.639-1.388,1.423v0.229c0,0.199-0.172,0.355-0.391,0.355h-7.183
					c-0.768,0-1.395,0.638-1.395,1.425c0,0.771,0.637,1.425,1.395,1.425h6.956c0.35,0,0.617,0.248,0.617,0.578v1.264
					c0,0.317-0.283,0.582-0.617,0.582h-9.417c-0.789,0-1.422,0.625-1.422,1.391c0,0.801,0.623,1.426,1.422,1.426h22.848
					c0.799,0,1.424-0.625,1.424-1.426C120,110.694,119.361,110.069,118.576,110.069z"/>
			</g>
			<g>
				<path fill="#FFFFFF" d="M6.729,139.996l1.617,0.512c-0.246,0.904-0.655,1.573-1.234,2.012c-0.578,0.437-1.311,0.654-2.193,0.654
					c-1.099,0-2-0.374-2.708-1.122c-0.706-0.751-1.062-1.775-1.062-3.076c0-1.372,0.358-2.442,1.073-3.203
					c0.708-0.76,1.639-1.139,2.797-1.139c1.007,0,1.829,0.299,2.461,0.896c0.373,0.35,0.66,0.855,0.846,1.521l-1.648,0.392
					c-0.099-0.427-0.308-0.765-0.617-1.015c-0.308-0.246-0.685-0.371-1.129-0.371c-0.611,0-1.106,0.219-1.489,0.659
					c-0.379,0.438-0.571,1.151-0.571,2.135c0,1.046,0.187,1.789,0.567,2.233c0.371,0.441,0.863,0.663,1.459,0.663
					c0.443,0,0.827-0.137,1.147-0.421C6.363,141.046,6.587,140.602,6.729,139.996z"/>
				<path fill="#FFFFFF" d="M12.958,134.772v3.039c0.515-0.599,1.125-0.896,1.832-0.896c0.366,0,0.696,0.064,0.991,0.2
					c0.292,0.135,0.51,0.31,0.663,0.52c0.147,0.211,0.251,0.443,0.302,0.699c0.057,0.255,0.079,0.652,0.079,1.188v3.51h-1.585
					v-3.161c0-0.625-0.027-1.022-0.086-1.193c-0.062-0.169-0.165-0.304-0.317-0.402c-0.154-0.101-0.343-0.147-0.572-0.147
					c-0.265,0-0.5,0.062-0.707,0.188c-0.203,0.133-0.358,0.322-0.452,0.58c-0.099,0.256-0.147,0.639-0.147,1.14v2.997h-1.58v-8.26
					H12.958z"/>
				<path fill="#FFFFFF" d="M21.235,138.876l-1.439-0.261c0.163-0.577,0.438-1.008,0.837-1.284c0.391-0.279,0.976-0.415,1.754-0.415
					c0.709,0,1.233,0.082,1.579,0.25c0.347,0.169,0.587,0.38,0.732,0.636c0.139,0.257,0.211,0.73,0.211,1.416l-0.02,1.849
					c0,0.526,0.024,0.916,0.075,1.165c0.052,0.248,0.147,0.516,0.288,0.801h-1.568c-0.04-0.102-0.093-0.26-0.155-0.466
					c-0.027-0.095-0.043-0.155-0.053-0.187c-0.272,0.264-0.56,0.461-0.867,0.592c-0.312,0.133-0.639,0.196-0.989,0.196
					c-0.609,0-1.097-0.165-1.454-0.501c-0.352-0.334-0.531-0.755-0.531-1.268c0-0.338,0.082-0.639,0.243-0.904
					c0.159-0.264,0.388-0.469,0.673-0.607c0.294-0.142,0.715-0.264,1.262-0.369c0.739-0.141,1.254-0.27,1.541-0.389v-0.158
					c0-0.305-0.075-0.519-0.225-0.652c-0.149-0.129-0.437-0.191-0.855-0.191c-0.278,0-0.498,0.054-0.653,0.165
					C21.458,138.404,21.333,138.598,21.235,138.876z M23.352,140.161c-0.201,0.066-0.525,0.148-0.966,0.24
					c-0.437,0.095-0.727,0.188-0.862,0.277c-0.203,0.147-0.307,0.332-0.307,0.558c0,0.223,0.084,0.411,0.246,0.574
					c0.167,0.161,0.374,0.243,0.631,0.243c0.283,0,0.557-0.093,0.818-0.281c0.19-0.141,0.319-0.316,0.375-0.525
					c0.039-0.135,0.064-0.393,0.064-0.771V140.161z"/>
				<path fill="#FFFFFF" d="M33.522,143.032h-1.579v-3.054c0-0.644-0.036-1.062-0.103-1.252c-0.065-0.188-0.179-0.337-0.331-0.442
					c-0.153-0.106-0.331-0.156-0.545-0.156c-0.273,0-0.521,0.074-0.741,0.223c-0.217,0.149-0.369,0.35-0.448,0.599
					c-0.078,0.245-0.124,0.705-0.124,1.374v2.709h-1.583v-5.98h1.473v0.878c0.525-0.679,1.179-1.014,1.974-1.014
					c0.349,0,0.668,0.062,0.96,0.188c0.288,0.126,0.505,0.286,0.657,0.482c0.143,0.194,0.251,0.414,0.308,0.663
					c0.056,0.248,0.083,0.603,0.083,1.066V143.032z"/>
				<path fill="#FFFFFF" d="M36.601,143.43l1.81,0.218c0.032,0.21,0.098,0.357,0.208,0.433c0.15,0.114,0.385,0.169,0.708,0.169
					c0.415,0,0.725-0.059,0.931-0.182c0.142-0.084,0.246-0.219,0.319-0.401c0.047-0.133,0.068-0.374,0.068-0.728v-0.873
					c-0.47,0.645-1.069,0.967-1.791,0.967c-0.805,0-1.441-0.338-1.91-1.02c-0.369-0.533-0.55-1.205-0.55-2.006
					c0-1,0.24-1.769,0.722-2.297c0.48-0.531,1.081-0.794,1.801-0.794c0.741,0,1.351,0.325,1.835,0.971v-0.835h1.481v5.367
					c0,0.707-0.059,1.236-0.179,1.586c-0.118,0.35-0.275,0.623-0.489,0.822c-0.209,0.197-0.493,0.354-0.84,0.465
					c-0.354,0.113-0.8,0.171-1.336,0.171c-1.011,0-1.733-0.175-2.156-0.521c-0.428-0.349-0.639-0.789-0.639-1.322
					C36.595,143.567,36.597,143.503,36.601,143.43z M38.015,139.918c0,0.637,0.122,1.101,0.366,1.395
					c0.249,0.299,0.553,0.44,0.909,0.44c0.393,0,0.716-0.146,0.982-0.452c0.268-0.302,0.402-0.749,0.402-1.345
					c0-0.615-0.13-1.078-0.382-1.379c-0.258-0.301-0.578-0.449-0.974-0.449c-0.374,0-0.688,0.146-0.938,0.44
					C38.137,138.863,38.015,139.312,38.015,139.918z"/>
				<path fill="#FFFFFF" d="M48.875,141.132l1.577,0.264c-0.197,0.576-0.521,1.017-0.958,1.318
					c-0.438,0.304-0.986,0.454-1.641,0.454c-1.043,0-1.813-0.34-2.311-1.021c-0.396-0.541-0.594-1.23-0.594-2.059
					c0-0.995,0.26-1.77,0.778-2.332c0.516-0.562,1.174-0.841,1.965-0.841c0.894,0,1.591,0.294,2.107,0.881
					c0.516,0.588,0.76,1.488,0.737,2.702h-3.964c0.009,0.468,0.141,0.834,0.382,1.094c0.249,0.265,0.551,0.394,0.915,0.394
					c0.248,0,0.456-0.066,0.622-0.202C48.661,141.647,48.793,141.432,48.875,141.132z M48.965,139.53
					c-0.01-0.459-0.125-0.807-0.358-1.048c-0.225-0.236-0.495-0.354-0.817-0.354c-0.346,0-0.633,0.124-0.855,0.374
					c-0.225,0.254-0.338,0.593-0.334,1.028H48.965z"/>
				<path fill="#FFFFFF" d="M60.241,143.032v-3.474l-3.029-4.786h1.957l1.943,3.269l1.906-3.269h1.923l-3.04,4.796v3.464H60.241z"/>
				<path fill="#FFFFFF" d="M66.148,139.956c0-0.523,0.129-1.034,0.39-1.527c0.26-0.49,0.625-0.867,1.105-1.125
					c0.472-0.261,0.999-0.388,1.592-0.388c0.899,0,1.642,0.294,2.22,0.881c0.58,0.588,0.867,1.331,0.867,2.229
					c0,0.905-0.292,1.654-0.877,2.25c-0.582,0.596-1.314,0.892-2.203,0.892c-0.55,0-1.071-0.123-1.569-0.37
					c-0.499-0.249-0.875-0.611-1.135-1.093C66.277,141.229,66.148,140.644,66.148,139.956z M67.773,140.042
					c0,0.593,0.139,1.047,0.42,1.362c0.281,0.317,0.63,0.474,1.042,0.474c0.411,0,0.762-0.156,1.041-0.474
					c0.282-0.315,0.417-0.771,0.417-1.374c0-0.586-0.135-1.035-0.417-1.353c-0.279-0.312-0.63-0.473-1.041-0.473
					c-0.412,0-0.761,0.16-1.042,0.473C67.912,138.995,67.773,139.448,67.773,140.042z"/>
				<path fill="#FFFFFF" d="M79.118,143.032v-0.895c-0.217,0.321-0.503,0.571-0.858,0.755c-0.354,0.183-0.729,0.275-1.128,0.275
					c-0.396,0-0.759-0.088-1.075-0.267c-0.322-0.175-0.555-0.423-0.694-0.742c-0.144-0.316-0.216-0.76-0.216-1.32v-3.787h1.583
					v2.751c0,0.838,0.03,1.353,0.088,1.543s0.161,0.342,0.314,0.451c0.159,0.111,0.351,0.166,0.59,0.166
					c0.269,0,0.512-0.074,0.726-0.219c0.218-0.153,0.358-0.338,0.442-0.556c0.077-0.221,0.113-0.759,0.113-1.615v-2.521h1.586v5.98
					H79.118z"/>
				<path fill="#FFFFFF" d="M85.361,143.032h-1.583v-5.98h1.47v0.849c0.251-0.402,0.474-0.667,0.68-0.796
					c0.199-0.125,0.428-0.188,0.679-0.188c0.363,0,0.715,0.101,1.045,0.297l-0.487,1.383c-0.271-0.175-0.518-0.261-0.742-0.261
					c-0.223,0-0.412,0.062-0.564,0.183c-0.155,0.123-0.271,0.341-0.367,0.662c-0.087,0.32-0.129,0.987-0.129,2.005V143.032z"/>
				<path fill="#FFFFFF" d="M94.826,143.032v-8.19h1.668v6.798h4.147v1.393H94.826z"/>
				<path fill="#FFFFFF" d="M103.438,136.237v-1.465h1.584v1.465H103.438z M103.438,143.032v-5.98h1.584v5.98H103.438z"/>
				<path fill="#FFFFFF" d="M107.568,137.052h0.875V136.6c0-0.504,0.055-0.878,0.166-1.128c0.101-0.247,0.301-0.449,0.59-0.605
					c0.286-0.156,0.65-0.232,1.091-0.232c0.45,0,0.895,0.068,1.319,0.201l-0.213,1.104c-0.254-0.061-0.492-0.089-0.727-0.089
					c-0.23,0-0.394,0.053-0.489,0.164c-0.103,0.104-0.153,0.308-0.153,0.614v0.424h1.183v1.243h-1.183v4.737h-1.584v-4.737h-0.875
					V137.052z"/>
				<path fill="#FFFFFF" d="M117.182,141.132l1.578,0.264c-0.203,0.576-0.521,1.017-0.96,1.318
					c-0.435,0.304-0.989,0.454-1.646,0.454c-1.039,0-1.809-0.34-2.308-1.021c-0.394-0.541-0.592-1.23-0.592-2.059
					c0-0.995,0.259-1.77,0.777-2.332c0.518-0.562,1.176-0.841,1.967-0.841c0.894,0,1.589,0.294,2.108,0.881
					c0.519,0.588,0.759,1.488,0.739,2.702h-3.969c0.009,0.468,0.14,0.834,0.383,1.094c0.245,0.265,0.548,0.394,0.914,0.394
					c0.245,0,0.457-0.066,0.628-0.202C116.972,141.647,117.097,141.432,117.182,141.132z M117.274,139.53
					c-0.012-0.459-0.13-0.807-0.358-1.048c-0.226-0.236-0.501-0.354-0.819-0.354c-0.347,0-0.634,0.124-0.857,0.374
					c-0.222,0.254-0.341,0.593-0.333,1.028H117.274z"/>
			</g>
		</g>
	</g>
</g>
</svg>
