<?xml version="1.0" encoding="utf-8"?>
<!-- Generator: Adobe Illustrator 16.0.0, SVG Export Plug-In . SVG Version: 6.00 Build 0)  -->
<!DOCTYPE svg PUBLIC "-//W3C//DTD SVG 1.1//EN" "http://www.w3.org/Graphics/SVG/1.1/DTD/svg11.dtd">
<svg version="1.1" id="圖層_1" xmlns="http://www.w3.org/2000/svg" xmlns:xlink="http://www.w3.org/1999/xlink" x="0px" y="0px"
	 width="77.66px" height="54.081px" viewBox="0 0 77.66 54.081" enable-background="new 0 0 77.66 54.081" xml:space="preserve">
<g>
	<circle fill="#6B4E32" cx="64.275" cy="45.05" r="9.032"/>
	<circle fill="#493127" cx="64.275" cy="45.05" r="3.68"/>
	<path fill="#76770B" d="M77.66,33.098v5.554c0,2.357-1.911,4.27-4.27,4.27H42.619V12.677h18.742l8.978,14.49l0.92,0.389l3.798,1.61
		c0.816,0.346,1.485,0.927,1.939,1.646C77.422,31.48,77.66,32.27,77.66,33.098z"/>
	<circle fill="#6B4E32" cx="13.544" cy="45.05" r="9.031"/>
	<circle fill="#493127" cx="13.544" cy="45.05" r="3.681"/>
	<path fill="#A4AB18" d="M72.169,4.348v3.981c0,2.401-1.946,4.348-4.346,4.348H47.332c-1.302,0-2.356,1.055-2.356,2.355v25.532
		c0,1.301-1.055,2.356-2.356,2.356H4.348C1.946,42.921,0,40.975,0,38.574V4.348c0-0.053,0.001-0.104,0.004-0.156
		C0.085,1.863,1.999,0,4.348,0h63.476c2.348,0,4.262,1.863,4.343,4.191C72.168,4.243,72.169,4.295,72.169,4.348z"/>
	<path fill="#6CDFF1" d="M71.259,27.556h-15.28c-0.911,0-1.734-0.377-2.322-0.984c-0.32-0.33-0.571-0.729-0.728-1.173
		c-0.118-0.337-0.184-0.698-0.184-1.075V12.677h8.616l0.144,0.232l4.508,7.274l4.326,6.983L71.259,27.556z"/>
	<path fill="#493127" d="M75.663,40.923H1.998C0.896,40.923,0,41.817,0,42.921l0,0c0,1.104,0.896,1.998,1.998,1.998h73.665
		c1.103,0,1.997-0.895,1.997-1.998l0,0C77.66,41.817,76.766,40.923,75.663,40.923z"/>
	<path fill="#6CDFF1" d="M38.831,16.383v7.709c0,2.047-1.66,3.707-3.708,3.707H8.22c-2.047,0-3.707-1.66-3.707-3.707v-7.709
		c0-2.047,1.66-3.706,3.707-3.706h26.903C37.171,12.677,38.831,14.336,38.831,16.383z"/>
	<path fill="#FBD22A" d="M77.66,33.098v0.772h-2.04c-0.423,0-0.805-0.172-1.081-0.448c-0.277-0.276-0.448-0.659-0.448-1.081
		c0-0.846,0.685-1.529,1.529-1.529h1.376C77.422,31.48,77.66,32.27,77.66,33.098z"/>
	<path fill="#B8B824" d="M72.166,4.191H0.004C0.085,1.863,1.999,0,4.348,0h63.476C70.171,0,72.085,1.863,72.166,4.191z"/>
	<polygon fill="#74F8FD" points="34.63,12.677 13.332,27.799 10.556,27.799 20.168,12.677 	"/>
	<path fill="#74F8FD" d="M66.013,20.184l-12.356,6.388c-0.32-0.33-0.571-0.729-0.728-1.173l8.576-12.489L66.013,20.184z"/>
</g>
</svg>
