<?xml version="1.0" encoding="utf-8"?>
<!-- Generator: Adobe Illustrator 16.0.0, SVG Export Plug-In . SVG Version: 6.00 Build 0)  -->
<!DOCTYPE svg PUBLIC "-//W3C//DTD SVG 1.1//EN" "http://www.w3.org/Graphics/SVG/1.1/DTD/svg11.dtd">
<svg version="1.1" id="圖層_1" xmlns="http://www.w3.org/2000/svg" xmlns:xlink="http://www.w3.org/1999/xlink" x="0px" y="0px"
	 width="44.124px" height="64.877px" viewBox="0 0 44.124 64.877" enable-background="new 0 0 44.124 64.877" xml:space="preserve">
<g>
	<path fill="#F07B20" d="M40.14,35.716c-0.038,2.445-0.491,5.013-1.74,7.216c-1.846,3.251-5.43,5.708-11.987,5.802
		c-1.241,0.017-2.591-0.05-4.054-0.212c0,0-0.79,0.06-2.038,0.054c-4.933-0.02-17.023-1.055-15.851-10.832
		C5.94,25.491,6.761,26.962,4.39,24.755c-2.37-2.205,5.47-0.979,5.961,2.941c0.489,3.92,1.435,10.038,2.801,7.593
		c1.365-2.447-3.047-14.454-1.086-22.296c1.96-7.842,5.392-4.9,4.044-2.939c-1.349,1.959-0.613,11.752,1.592,12.003
		c1.966,0.222,3.348-17.648,3.971-21.38c0.077-0.457,0.143-0.702,0.195-0.675c0.465,0.232,3.779,5.723,4.136,19.596
		c0.021,0.792,0.03,1.612,0.03,2.459c0,0.521,0.008,1.005,0.022,1.455c0.428,13.095,6.896-3.2,8.555-4.147
		c0.807-0.461,0.583,1.355,0.249,3.511c0,0.001,0,0.001-0.001,0.001c-0.256,1.645-0.576,3.485-0.556,4.663
		c0.011,0.56,0.099,0.97,0.308,1.137c0.91,0.728,2.225-1.522,3.144-2.225V26.45c0.318-0.243,0.588-0.3,0.777,0.017
		c0.013,0.021,0.026,0.048,0.043,0.082c0.147,0.308,0.442,1.143,0.736,2.315C39.747,30.604,40.183,33.089,40.14,35.716z"/>
	<path fill="#A4AB18" d="M43.82,53.104H22.062H0.304c-0.488,2.503-0.506,5.244,0.843,7.206c1.42,2.062,3.166,1.185,4.927,1.501
		c3.11,0.56,5.815,3.118,9.053,2.332c3.229-0.783,4.98,1.041,6.936,0.688c1.956,0.354,3.707-1.471,6.937-0.688
		c3.237,0.786,5.942-1.772,9.053-2.332c1.761-0.316,3.507,0.562,4.926-1.501C44.326,58.349,44.309,55.607,43.82,53.104z"/>
	<path fill="#76770B" d="M43.814,53.103c-0.001-0.005-0.003-0.01-0.004-0.015c-0.483,0.004-0.967,0.008-1.45,0.012
		c0.087,0.916,0.147,1.963-0.304,2.65c-0.539,0.822-1.481,0.677-2.286,0.609c-2.089-0.177-4.146,0.627-6.182,1.305
		c-2.134,0.71-4.294,1.289-6.477,1.62c-3.578,0.541-7.199,0.412-10.776-0.145c-2.161-0.336-4.312-0.828-6.416-1.583
		c-1.63-0.585-3.268-1.333-4.95-1.236c-0.589,0.033-1.179,0.171-1.765,0.081c-0.86-0.132-1.429-0.691-1.474-1.871
		c-0.019-0.457,0-0.916,0.022-1.373c0-0.02,0.001-0.038,0.001-0.058H0.304c-0.488,1.801-0.506,3.772,0.843,5.183
		c1.42,1.483,3.166,0.852,4.927,1.08c3.11,0.402,5.815,2.242,9.053,1.677c3.229-0.563,4.98,1.406,6.936,1.151
		c1.956,0.255,3.707-1.715,6.937-1.151c3.237,0.565,5.942-1.274,9.053-1.677c1.761-0.229,3.507,0.403,4.926-1.08
		C44.241,56.961,44.279,55.012,43.814,53.103z"/>
	<path fill="#EF651F" d="M31.541,44.129c-1.032,2.214-2.997,3.575-5.128,4.604c-1.243,0.017-2.592-0.05-4.055-0.213
		c0,0-0.79,0.062-2.038,0.055c-1.063-0.365-2.088-0.848-3.039-1.439c-1.391-0.865-2.979-2.017-3.367-3.71
		c-0.338-1.48,0.221-2.864,0.909-4.151c0.303-0.568,0.641-1.124,0.897-1.715c0.219-0.503,0.33-0.982,0.284-1.552
		c-0.115-1.409,1.816-1.69,2.485-0.673c0.264,0.4,0.504,0.813,0.726,1.238c0.101-0.777,0.12-1.576,0.13-2.363
		c0.033-2.449-0.047-4.898-0.228-7.341c-0.088-1.187,1.505-1.717,2.278-0.944c2.571,2.572,4.497,5.762,5.563,9.232
		c0.57-0.623,1.044-1.33,1.428-2.1c0.531-1.066,2.132-0.719,2.439,0.319c0.515,1.734,0.916,3.502,1.18,5.294
		C32.283,40.549,32.362,42.369,31.541,44.129z"/>
	<path fill="#6B4E32" d="M24.933,41.225c-0.492,0.531-1.061,1.106-1.679,1.705c-0.003,0.001-0.004,0.002-0.004,0.003
		c-4.135,4.003-10.522,9.092-11.936,9.707c-0.774,0.336-1.442,0.47-1.981,0.446c-0.547-0.024-0.962-0.21-1.219-0.508
		c-0.408-0.471-0.425-1.225,0.044-2.067c0.153-0.276,0.359-0.563,0.621-0.852c0.135-0.149,0.283-0.3,0.447-0.449
		c1.911-1.739,11.062-10.824,15.697-11.467c0.736-0.103,1.359,0.008,1.82,0.395C27.172,38.495,26.369,39.678,24.933,41.225z"/>
	<path fill="#493127" d="M24.933,41.225c-0.271,0.248-0.535,0.501-0.794,0.764c-0.303,0.307-0.598,0.621-0.885,0.941
		c-0.003,0.001-0.004,0.002-0.004,0.003c-4.135,4.003-10.522,9.092-11.936,9.707c-0.774,0.336-1.442,0.47-1.981,0.446
		c-0.426-0.096-0.834-0.26-1.219-0.508c-0.408-0.471-0.425-1.225,0.044-2.067c0.153-0.276,0.359-0.563,0.621-0.852
		c0.18,0.111,0.341,0.263,0.471,0.443c0.098,0.137,0.317,0.26,0.495,0.313c0.257,0.076,0.21,0.067,0.391,0.082
		c0.207,0.017,0.422,0.013,0.629-0.006c0.677-0.061,1.416-0.371,2.061-0.733c2.905-1.639,4.937-4.43,7.024-6.952
		c1.151-1.392,2.348-2.74,3.708-3.932c0.445-0.39,0.901-0.766,1.366-1.132c0.736-0.103,1.359,0.008,1.82,0.395
		C27.172,38.495,26.369,39.678,24.933,41.225z"/>
	<path fill="#6B4E32" d="M19.26,41.225c0.492,0.531,1.06,1.106,1.679,1.705c0.002,0.001,0.004,0.002,0.004,0.003
		c4.135,4.003,10.521,9.092,11.935,9.707c0.774,0.336,1.443,0.47,1.981,0.446c0.547-0.024,0.962-0.21,1.22-0.508
		c0.407-0.471,0.425-1.225-0.044-2.067c-0.154-0.276-0.36-0.563-0.621-0.852c-0.135-0.149-0.284-0.3-0.447-0.449
		c-1.911-1.739-11.062-10.824-15.698-11.467c-0.736-0.103-1.358,0.008-1.819,0.395C17.02,38.495,17.823,39.678,19.26,41.225z"/>
	<path fill="#493127" d="M19.26,41.225c0.271,0.248,0.535,0.501,0.793,0.764c0.304,0.307,0.599,0.621,0.886,0.941
		c0.002,0.001,0.004,0.002,0.004,0.003c4.135,4.003,10.521,9.092,11.935,9.707c0.774,0.336,1.443,0.47,1.981,0.446
		c0.426-0.096,0.835-0.26,1.22-0.508c0.407-0.471,0.425-1.225-0.044-2.067c-0.154-0.276-0.36-0.563-0.621-0.852
		c-0.18,0.111-0.341,0.263-0.471,0.443c-0.099,0.137-0.318,0.26-0.495,0.313c-0.257,0.076-0.21,0.067-0.391,0.082
		c-0.207,0.017-0.422,0.013-0.63-0.006c-0.677-0.061-1.416-0.371-2.06-0.733c-2.905-1.639-4.937-4.43-7.024-6.952
		c-1.151-1.392-2.348-2.74-3.709-3.932c-0.445-0.39-0.901-0.766-1.366-1.132c-0.736-0.103-1.358,0.008-1.819,0.395
		C17.02,38.495,17.823,39.678,19.26,41.225z"/>
	<path fill="#EF651F" d="M40.14,35.716c-0.038,2.445-0.491,5.013-1.74,7.216c-0.074-4.531-0.451-9.055-1.141-13.536
		c-0.617,0.363-1.295,0.604-2.031,0.617c-1.184,0.02-2.422-0.6-2.92-1.706c-0.273-0.605-0.293-1.246-0.24-1.891
		c-0.71,1.021-1.566,2.013-2.672,2.563c-1.177,0.584-2.593,0.63-3.723-0.102c-1.034-0.668-1.644-1.778-1.987-2.933
		c-0.368-1.236-0.42-2.537-0.453-3.817c-0.04-1.561-0.028-3.123-0.008-4.684c0.073-5.619,0.28-11.396-1.553-16.768
		c0.077-0.457,0.143-0.702,0.195-0.675c0.465,0.232,3.779,5.723,4.136,19.596c-0.027,1.24-0.109,2.506,0.028,3.736
		c0.005,0.049,0.014,0.109,0.024,0.178c0.428,13.095,6.896-3.2,8.555-4.147c0.807-0.461,0.583,1.355,0.249,3.511
		c0,0.001,0,0.001-0.001,0.001c-0.413,1.326-0.686,2.718-0.704,4.059c-0.004,0.261,0.042,0.457,0.148,0.604
		c0.011,0.56,0.099,0.97,0.308,1.137c0.91,0.728,2.225-1.522,3.144-2.225V26.45c0.275-0.063,0.577-0.031,0.82,0.099
		c0.232,0.123,0.41,0.334,0.462,0.63c0.096,0.561,0.188,1.123,0.274,1.686C39.662,31.139,39.939,33.424,40.14,35.716z"/>
</g>
</svg>
