<?xml version="1.0" encoding="utf-8"?>
<!-- Generator: Adobe Illustrator 16.0.0, SVG Export Plug-In . SVG Version: 6.00 Build 0)  -->
<!DOCTYPE svg PUBLIC "-//W3C//DTD SVG 1.1//EN" "http://www.w3.org/Graphics/SVG/1.1/DTD/svg11.dtd">
<svg version="1.1" id="圖層_1" xmlns="http://www.w3.org/2000/svg" xmlns:xlink="http://www.w3.org/1999/xlink" x="0px" y="0px"
	 width="60.496px" height="60.862px" viewBox="0 0 60.496 60.862" enable-background="new 0 0 60.496 60.862" xml:space="preserve">
<g>
	<g>
		<path fill="#FBD22A" d="M35.745,24.861c0,0-9.504-9.072-14.659-0.595c-2.493,4.101-2.23,5.89-7.893,6.308
			c-5.661,0.417-8.922,4.269-10.607,6.081c-4.679,5.03-2.579,13.048,2.869,18.496C14.254,46.352,35.745,24.861,35.745,24.861z"/>
		<path fill="#EAB721" d="M35.745,24.861c0,0,9.072,9.504,0.594,14.659c-4.101,2.493-5.89,2.23-6.308,7.892
			c-0.417,5.662-4.005,8.658-6.081,10.608c-5.008,4.702-13.048,2.579-18.495-2.869C14.254,46.352,35.745,24.861,35.745,24.861z"/>
		<circle fill="#6B4E32" cx="23.562" cy="37.043" r="5.043"/>
		
			<rect x="38.115" y="-1" transform="matrix(0.7072 0.7071 -0.7071 0.7072 26.0772 -22.7442)" fill="#6B4E32" width="4.763" height="42.218"/>
		<circle fill="#493127" cx="23.562" cy="37.043" r="4.011"/>
		<path fill="#493127" d="M48.984,8.253l0.222-1.755c0.072-0.573,0.333-1.105,0.741-1.513l3.614-3.614
			c0.756-0.756,1.981-0.756,2.738,0l1.467,1.467l-7.099,7.099C50.668,9.938,48.588,7.857,48.984,8.253z"/>
		<path fill="#493127" d="M52.352,11.621l1.756-0.222c0.572-0.072,1.104-0.333,1.513-0.741l3.614-3.614
			c0.756-0.756,0.756-1.982,0-2.739l-1.468-1.467l-7.099,7.099C50.668,9.938,52.749,12.018,52.352,11.621z"/>
		<path fill="#493127" d="M14.604,50.925l-4.924-4.924c-0.207-0.207-0.543-0.207-0.749,0l0,0c-0.207,0.207-0.207,0.542,0,0.749
			l4.924,4.924c0.206,0.207,0.542,0.207,0.749,0l0,0C14.811,51.467,14.811,51.132,14.604,50.925z"/>
		<circle fill="#FBD22A" cx="52.791" cy="0.749" r="0.607"/>
		<circle fill="#FBD22A" cx="51.041" cy="2.499" r="0.607"/>
		<circle fill="#FBD22A" cx="49.159" cy="4.381" r="0.607"/>
		<path fill="#FACB44" d="M54.21,2.355c-0.048,0-0.096-0.018-0.132-0.055l-1.42-1.419c-0.073-0.073-0.073-0.191,0-0.264
			c0.073-0.073,0.191-0.073,0.264,0l1.42,1.42c0.073,0.073,0.073,0.191,0,0.264C54.306,2.337,54.258,2.355,54.21,2.355z"/>
		<path fill="#FACB44" d="M52.46,4.105c-0.048,0-0.096-0.018-0.132-0.055l-1.42-1.419c-0.073-0.073-0.073-0.191,0-0.264
			c0.073-0.073,0.191-0.073,0.264,0l1.42,1.42c0.073,0.073,0.073,0.191,0,0.264C52.556,4.087,52.508,4.105,52.46,4.105z"/>
		<path fill="#FACB44" d="M50.578,5.988c-0.048,0-0.096-0.018-0.132-0.055l-1.42-1.42c-0.073-0.073-0.073-0.191,0-0.264
			c0.073-0.073,0.191-0.073,0.264,0l1.42,1.42c0.073,0.073,0.073,0.191,0,0.264C50.674,5.97,50.626,5.988,50.578,5.988z"/>
		<circle fill="#FBD22A" cx="59.889" cy="7.848" r="0.607"/>
		<circle fill="#FBD22A" cx="58.139" cy="9.598" r="0.607"/>
		<circle fill="#FBD22A" cx="56.257" cy="11.48" r="0.607"/>
		<path fill="#FACB44" d="M59.89,8.035c-0.048,0-0.096-0.019-0.133-0.055l-1.419-1.419c-0.073-0.073-0.073-0.191,0-0.264
			c0.072-0.073,0.19-0.073,0.264,0l1.42,1.419c0.073,0.073,0.073,0.191,0,0.264C59.985,8.017,59.938,8.035,59.89,8.035z"/>
		<path fill="#FACB44" d="M58.14,9.785c-0.048,0-0.096-0.019-0.132-0.055l-1.42-1.419c-0.073-0.073-0.073-0.191,0-0.264
			c0.072-0.073,0.19-0.073,0.264,0l1.42,1.419c0.073,0.073,0.073,0.191,0,0.264C58.235,9.767,58.188,9.785,58.14,9.785z"/>
		<path fill="#FACB44" d="M56.257,11.667c-0.048,0-0.095-0.018-0.132-0.055l-1.42-1.42c-0.072-0.073-0.072-0.191,0-0.264
			c0.073-0.073,0.191-0.073,0.265,0l1.42,1.42c0.072,0.073,0.072,0.191,0,0.264C56.353,11.649,56.305,11.667,56.257,11.667z"/>
		
			<rect x="33.887" y="-7.381" transform="matrix(0.7065 0.7078 -0.7078 0.7065 27.7987 -16.7349)" fill="#FF7315" width="0.373" height="65.052"/>
		
			<rect x="34.614" y="-6.655" transform="matrix(0.7065 0.7078 -0.7078 0.7065 28.5263 -17.0358)" fill="#FF7315" width="0.373" height="65.052"/>
		
			<rect x="35.34" y="-5.929" transform="matrix(0.7071 0.7071 -0.7071 0.7071 29.2128 -17.3311)" fill="#FF7315" width="0.373" height="65.053"/>
	</g>
	<g>
		<g>
			<path fill="#F07B20" d="M25.836,15.173c-3.434,3.434-8.979,3.471-12.458,0.109c-0.038-0.035-0.074-0.072-0.111-0.109
				c-3.471-3.471-3.471-9.098,0-12.569c3.471-3.471,9.099-3.471,12.569,0c0.863,0.864,1.513,1.862,1.947,2.927
				C29.092,8.743,28.443,12.566,25.836,15.173z"/>
			<g>
				<path fill="#EF651F" d="M27.783,5.53c-0.073,0.458-0.139,0.911-0.251,1.308c-0.89,3.131-2.271,5.629-5.416,6.902
					c-1.482,0.601-3.071,0.888-4.648,1.15c-1.347,0.224-2.732,0.43-4.09,0.391c3.479,3.362,9.024,3.325,12.458-0.109
					C28.443,12.566,29.092,8.743,27.783,5.53z"/>
				<path fill="#EF651F" d="M11.895,15.173c-0.025-0.011-0.115-0.03-0.184-0.025c0.004,0.001,0.008,0.001,0.012,0.002
					C11.771,15.152,11.836,15.163,11.895,15.173z"/>
			</g>
			<polygon fill="#493127" points="20.548,13.583 15.887,11.209 16.705,6.042 21.872,5.224 24.246,9.885 			"/>
			<path fill="#493127" d="M27.775,12.261c0.63-1.537,0.809-3.214,0.541-4.833l-2.026,2.787L27.775,12.261z"/>
			<path fill="#493127" d="M22.538,3.205l3.471-0.419c-0.058-0.061-0.113-0.123-0.173-0.182c-1.336-1.335-2.991-2.155-4.72-2.462
				L22.538,3.205z"/>
			<path fill="#493127" d="M23.704,16.748l-2.922-1.554l-2.855,2.432C19.873,17.985,21.915,17.694,23.704,16.748z"/>
			<path fill="#493127" d="M11.67,4.776l3.254-0.515l0.515-3.253c-0.781,0.408-1.516,0.94-2.172,1.596
				C12.61,3.26,12.078,3.994,11.67,4.776z"/>
			<path fill="#493127" d="M13.317,15.221l0.384-3.18l-2.846-1.32c0.342,1.631,1.145,3.186,2.411,4.452
				C13.283,15.189,13.301,15.205,13.317,15.221z"/>
		</g>
		<path fill="#5E4F47" d="M13.701,12.228c-0.075,0-0.146-0.046-0.174-0.12c-0.037-0.097,0.011-0.205,0.107-0.241l2.186-0.832
			c0.096-0.037,0.204,0.012,0.241,0.108c0.036,0.096-0.012,0.204-0.108,0.241l-2.186,0.832
			C13.746,12.224,13.724,12.228,13.701,12.228z"/>
		<path fill="#5E4F47" d="M16.705,6.229c-0.048,0-0.096-0.018-0.132-0.055l-1.782-1.782c-0.072-0.073-0.072-0.191,0-0.264
			c0.073-0.073,0.191-0.073,0.265,0l1.781,1.782c0.073,0.073,0.073,0.191,0,0.264C16.801,6.211,16.753,6.229,16.705,6.229z"/>
		<path fill="#5E4F47" d="M21.872,5.411c-0.02,0-0.039-0.003-0.059-0.009c-0.099-0.032-0.151-0.138-0.119-0.236l0.666-2.02
			c0.032-0.098,0.138-0.151,0.235-0.119c0.099,0.032,0.151,0.138,0.119,0.236l-0.666,2.019C22.023,5.361,21.95,5.411,21.872,5.411z"
			/>
		<path fill="#5E4F47" d="M26.291,10.402c-0.011,0-0.021-0.001-0.03-0.002l-2.044-0.33c-0.102-0.017-0.171-0.112-0.154-0.214
			s0.112-0.171,0.214-0.155l2.044,0.33c0.102,0.017,0.171,0.112,0.154,0.214C26.46,10.336,26.381,10.402,26.291,10.402z"/>
		<path fill="#5E4F47" d="M20.782,15.381c-0.092,0-0.171-0.067-0.185-0.16l-0.234-1.61c-0.016-0.102,0.056-0.197,0.157-0.211
			c0.102-0.015,0.197,0.056,0.212,0.158l0.234,1.61c0.016,0.102-0.056,0.197-0.157,0.212C20.8,15.38,20.791,15.381,20.782,15.381z"
			/>
	</g>
	<g>
		<path fill="#5E4F47" d="M45.466,35.129c-0.019,0-0.037-0.004-0.056-0.012c-0.07-0.031-0.104-0.113-0.072-0.185l4.026-9.296
			c0.03-0.071,0.113-0.104,0.184-0.073c0.071,0.031,0.104,0.113,0.073,0.184l-4.026,9.297
			C45.571,35.097,45.521,35.129,45.466,35.129z"/>
		<path fill="#5E4F47" d="M46.117,37.724c-0.019,0-0.037-0.004-0.056-0.012c-0.07-0.031-0.104-0.113-0.072-0.184l5.713-13.191
			c0.031-0.071,0.114-0.104,0.185-0.073c0.071,0.031,0.104,0.113,0.073,0.184L46.246,37.64
			C46.223,37.692,46.172,37.724,46.117,37.724z"/>
		<path fill="#5E4F47" d="M47.166,39.403c-0.02,0-0.038-0.003-0.056-0.011c-0.071-0.031-0.104-0.113-0.073-0.185l6.607-15.255
			c0.03-0.071,0.113-0.104,0.185-0.073c0.07,0.031,0.104,0.113,0.072,0.184l-6.607,15.255C47.271,39.372,47.22,39.403,47.166,39.403
			z"/>
		<path fill="#5E4F47" d="M48.457,40.521c-0.019,0-0.037-0.004-0.056-0.012c-0.07-0.031-0.104-0.113-0.072-0.184l7.014-16.194
			c0.03-0.071,0.113-0.104,0.185-0.073c0.07,0.031,0.104,0.113,0.072,0.184l-7.014,16.194
			C48.563,40.489,48.512,40.521,48.457,40.521z"/>
		<path fill="#5E4F47" d="M49.95,41.176c-0.019,0-0.038-0.004-0.056-0.012c-0.071-0.031-0.104-0.113-0.073-0.184l7.021-16.208
			c0.03-0.071,0.113-0.104,0.184-0.073c0.071,0.031,0.104,0.113,0.073,0.185l-7.021,16.208
			C50.056,41.144,50.004,41.176,49.95,41.176z"/>
		<path fill="#5E4F47" d="M51.64,41.374c-0.019,0-0.038-0.004-0.056-0.012c-0.071-0.031-0.104-0.113-0.073-0.184l6.631-15.309
			c0.031-0.071,0.114-0.104,0.185-0.073c0.071,0.031,0.104,0.113,0.073,0.185l-6.631,15.309
			C51.745,41.342,51.693,41.374,51.64,41.374z"/>
		<path fill="#5E4F47" d="M53.571,41.013c-0.019,0-0.038-0.003-0.056-0.011c-0.071-0.031-0.104-0.113-0.073-0.185L59.2,27.524
			c0.031-0.071,0.114-0.104,0.185-0.073c0.071,0.031,0.104,0.113,0.073,0.185l-5.759,13.293
			C53.677,40.982,53.625,41.013,53.571,41.013z"/>
		<path fill="#5E4F47" d="M55.932,39.662c-0.019,0-0.037-0.003-0.056-0.011c-0.07-0.031-0.104-0.113-0.072-0.185l4.026-9.296
			c0.031-0.071,0.113-0.104,0.185-0.073c0.07,0.031,0.104,0.113,0.072,0.184l-4.026,9.296C56.038,39.63,55.986,39.662,55.932,39.662
			z"/>
		<path fill="#5E4F47" d="M58.978,27.04c-0.019,0-0.038-0.003-0.056-0.011l-6.332-2.743c-0.071-0.031-0.104-0.113-0.073-0.185
			c0.03-0.071,0.113-0.104,0.184-0.073l6.333,2.743c0.071,0.031,0.104,0.113,0.072,0.185C59.083,27.009,59.031,27.04,58.978,27.04z"
			/>
		<path fill="#5E4F47" d="M59.761,28.94c-0.019,0-0.037-0.004-0.056-0.012l-9.037-3.915c-0.071-0.031-0.104-0.113-0.073-0.184
			c0.03-0.071,0.113-0.104,0.185-0.073l9.037,3.914c0.071,0.031,0.104,0.113,0.073,0.185C59.867,28.908,59.815,28.94,59.761,28.94z"
			/>
		<path fill="#5E4F47" d="M60.031,30.617c-0.019,0-0.037-0.004-0.056-0.012L49.26,25.964c-0.071-0.031-0.104-0.113-0.073-0.185
			c0.031-0.071,0.113-0.104,0.185-0.073l10.716,4.642c0.071,0.031,0.104,0.113,0.073,0.184
			C60.137,30.585,60.085,30.617,60.031,30.617z"/>
		<path fill="#5E4F47" d="M60.012,32.168c-0.02,0-0.038-0.004-0.056-0.012L48.142,27.04c-0.07-0.031-0.104-0.113-0.072-0.185
			c0.03-0.071,0.113-0.104,0.184-0.073l11.814,5.117c0.07,0.031,0.104,0.113,0.072,0.184C60.117,32.136,60.065,32.168,60.012,32.168
			z"/>
		<path fill="#5E4F47" d="M59.773,33.625c-0.019,0-0.037-0.004-0.056-0.012l-12.477-5.404c-0.07-0.031-0.104-0.113-0.072-0.184
			c0.03-0.071,0.113-0.104,0.184-0.073l12.477,5.404c0.071,0.031,0.104,0.113,0.073,0.184C59.88,33.593,59.828,33.625,59.773,33.625
			z"/>
		<path fill="#5E4F47" d="M59.354,35.004c-0.019,0-0.038-0.003-0.056-0.011l-12.776-5.534c-0.071-0.03-0.104-0.113-0.073-0.184
			c0.031-0.071,0.113-0.104,0.185-0.073l12.776,5.534c0.071,0.031,0.104,0.113,0.073,0.185
			C59.46,34.973,59.408,35.004,59.354,35.004z"/>
		<path fill="#5E4F47" d="M58.769,36.311c-0.019,0-0.037-0.004-0.056-0.012l-12.743-5.52c-0.07-0.031-0.104-0.113-0.072-0.184
			c0.03-0.071,0.113-0.104,0.184-0.073l12.743,5.52c0.071,0.03,0.104,0.113,0.073,0.184C58.875,36.279,58.823,36.311,58.769,36.311z
			"/>
		<path fill="#5E4F47" d="M58.014,37.543c-0.019,0-0.037-0.004-0.056-0.012l-12.371-5.358c-0.07-0.031-0.104-0.113-0.072-0.184
			c0.03-0.071,0.113-0.104,0.184-0.073l12.371,5.358c0.071,0.031,0.104,0.113,0.073,0.184C58.12,37.512,58.068,37.543,58.014,37.543
			z"/>
		<path fill="#5E4F47" d="M57.073,38.696c-0.019,0-0.038-0.004-0.056-0.012l-11.627-5.036c-0.071-0.031-0.104-0.113-0.073-0.184
			c0.031-0.071,0.113-0.104,0.185-0.073l11.627,5.036c0.071,0.03,0.104,0.113,0.072,0.184
			C57.179,38.664,57.127,38.696,57.073,38.696z"/>
		<path fill="#5E4F47" d="M55.904,39.75c-0.019,0-0.037-0.004-0.056-0.012l-10.428-4.517c-0.071-0.031-0.104-0.113-0.073-0.184
			c0.031-0.071,0.114-0.104,0.185-0.073l10.428,4.517c0.071,0.031,0.104,0.113,0.073,0.184C56.01,39.718,55.959,39.75,55.904,39.75z
			"/>
		<path fill="#5E4F47" d="M54.419,40.666c-0.019,0-0.037-0.004-0.056-0.012l-8.595-3.723c-0.071-0.031-0.104-0.113-0.073-0.184
			c0.031-0.071,0.114-0.104,0.185-0.073l8.595,3.723c0.071,0.031,0.104,0.113,0.073,0.184
			C54.524,40.634,54.474,40.666,54.419,40.666z"/>
		<path fill="#5E4F47" d="M52.784,41.339c-0.019,0-0.038-0.004-0.056-0.012l-6.332-2.743c-0.071-0.031-0.104-0.113-0.073-0.184
			s0.113-0.104,0.185-0.073l6.332,2.743c0.07,0.031,0.104,0.113,0.072,0.184C52.89,41.308,52.838,41.339,52.784,41.339z"/>
		<path fill="#5E4F47" d="M51.445,41.561c-0.809,0-1.608-0.156-2.368-0.485c-1.804-0.781-3.11-2.403-3.678-4.567
			c-0.561-2.134-0.334-4.547,0.639-6.792c0.973-2.245,2.577-4.061,4.518-5.113c1.967-1.065,4.043-1.222,5.847-0.441
			c1.805,0.782,3.11,2.403,3.679,4.567c0.561,2.135,0.333,4.547-0.64,6.792C57.837,39.227,54.572,41.561,51.445,41.561z
			 M54.02,24.327c-1.035,0-2.108,0.286-3.152,0.852c-1.812,0.982-3.314,2.686-4.229,4.798c-0.915,2.112-1.131,4.373-0.607,6.366
			c0.516,1.965,1.69,3.433,3.306,4.133c0.679,0.294,1.394,0.433,2.118,0.434c2.869,0,5.889-2.188,7.387-5.647l0,0
			c0.915-2.112,1.13-4.373,0.607-6.367c-0.517-1.965-1.69-3.433-3.307-4.133C55.472,24.472,54.755,24.327,54.02,24.327z"/>
		<path fill="#5E4F47" d="M45.814,48.936c-0.043,0-0.087-0.009-0.13-0.027c-0.165-0.072-0.241-0.264-0.17-0.43
			c2.158-4.981,0.557-10.231,0.541-10.284c-0.055-0.172,0.042-0.355,0.214-0.41c0.172-0.054,0.355,0.042,0.409,0.214
			c0.07,0.223,1.693,5.528-0.563,10.739C46.062,48.862,45.941,48.936,45.814,48.936z"/>
		<path fill="#5E4F47" d="M45.814,48.936c-0.043,0-0.087-0.009-0.13-0.027c-0.165-0.072-0.241-0.264-0.17-0.43
			c2.356-5.439,7.249-7.67,7.456-7.762c0.165-0.073,0.358,0,0.432,0.166s0,0.358-0.165,0.432l0,0
			c-0.049,0.021-4.871,2.227-7.122,7.425C46.062,48.862,45.941,48.936,45.814,48.936z"/>
		<path fill="#A4AB18" d="M41.301,60.84l-1.32-0.572c-0.135-0.058-0.196-0.214-0.139-0.349l4.964-11.459
			c0.058-0.135,0.215-0.196,0.349-0.138l1.32,0.572c0.135,0.058,0.196,0.214,0.139,0.349l-4.964,11.459
			C41.592,60.837,41.436,60.899,41.301,60.84z"/>
	</g>
</g>
</svg>
