<?xml version="1.0" encoding="utf-8"?>
<!-- Generator: Adobe Illustrator 16.0.0, SVG Export Plug-In . SVG Version: 6.00 Build 0)  -->
<!DOCTYPE svg PUBLIC "-//W3C//DTD SVG 1.1//EN" "http://www.w3.org/Graphics/SVG/1.1/DTD/svg11.dtd">
<svg version="1.1" id="圖層_1" xmlns="http://www.w3.org/2000/svg" xmlns:xlink="http://www.w3.org/1999/xlink" x="0px" y="0px"
	 width="47.837px" height="65.378px" viewBox="0 0 47.837 65.378" enable-background="new 0 0 47.837 65.378" xml:space="preserve">
<g>
	<path fill="#614D44" d="M43.375,59.594H4.462C2.001,59.594,0,57.592,0,55.132v-44.21C0,8.461,2.001,6.46,4.462,6.46h38.913
		c2.46,0,4.462,2.001,4.462,4.462v44.21C47.837,57.592,45.835,59.594,43.375,59.594z M4.462,7.954c-1.637,0-2.968,1.331-2.968,2.968
		v44.21c0,1.636,1.331,2.968,2.968,2.968h38.913c1.636,0,2.968-1.332,2.968-2.968v-44.21c0-1.637-1.332-2.968-2.968-2.968H4.462z"/>
	<polygon fill="#93932F" points="19.838,11.478 14.878,4.777 23.763,0 23.763,14.413 	"/>
	<polygon fill="#626208" points="27.688,11.478 32.647,4.777 23.763,0 23.763,14.413 	"/>
	<path fill="#A4AB18" d="M34.113,64.099H13.412c-4.098,0-7.419-3.321-7.419-7.419V17.384c0-4.098,3.321-7.42,7.419-7.42h20.701
		c4.097,0,7.419,3.322,7.419,7.42V56.68C41.532,60.777,38.21,64.099,34.113,64.099z"/>
	<path fill="#76770B" d="M34.113,9.964H23.763v54.135h10.351c4.097,0,7.419-3.321,7.419-7.419V17.384
		C41.532,13.286,38.21,9.964,34.113,9.964z"/>
	<rect x="5.993" y="17.384" fill="#74F8FD" width="17.77" height="36.1"/>
	<rect x="23.763" y="17.384" fill="#6CDFF1" width="17.77" height="36.1"/>
	<circle fill="#FBD22A" cx="23.762" cy="58.847" r="2.074"/>
	<polygon fill="#A4AB18" points="14.878,4.777 23.763,4.777 23.763,0 	"/>
	<polygon fill="#76770B" points="23.763,0 32.647,4.777 23.763,4.777 	"/>
	<path fill="#F07B20" d="M22.8,53.233c0,0-7.74,0.27-9.816-6.14c-2.075-6.41,0-8.72,0-8.72s2.015,5.904,4.447,5.6
		s-2.66-7.063,1.544-14.298c4.205-7.233,4.205-7.233,4.205-7.233s1.437,6.358,5.03,8.651c3.593,2.293,5.141,9.205,3.206,12.88
		s4.366-2.43,4.366-2.43S35.686,55.502,22.8,53.233z"/>
	<path fill="#EF651F" d="M22.8,53.233c0,0,3.308-0.269,4.254-4.843s-2.51-11.831-3.148-13.724
		c-0.638-1.894,1.423,11.673-1.105,12.462c-2.529,0.788-2.529,0.157-2.529,0.157S19.334,51.767,22.8,53.233z"/>
	<path fill="#6B4E32" d="M23.763,65.378H9.705c-0.353,0-0.64-0.286-0.64-0.64l0,0c0-0.354,0.287-0.64,0.64-0.64h14.058V65.378z"/>
	<path fill="#493127" d="M23.763,64.099H37.82c0.353,0,0.64,0.286,0.64,0.64l0,0c0,0.354-0.287,0.64-0.64,0.64H23.763V64.099z"/>
	
		<rect x="-1.566" y="35.246" transform="matrix(0.7016 0.7126 -0.7126 0.7016 32.3422 -6.3588)" fill="#6DAA3E" width="50.658" height="0.374"/>
	
		<rect x="23.576" y="10.104" transform="matrix(0.7032 0.711 -0.711 0.7032 32.2472 -6.3781)" fill="#6DAA3E" width="0.374" height="50.658"/>
</g>
</svg>
