<?xml version="1.0" encoding="utf-8"?>
<!-- Generator: Adobe Illustrator 16.0.0, SVG Export Plug-In . SVG Version: 6.00 Build 0)  -->
<!DOCTYPE svg PUBLIC "-//W3C//DTD SVG 1.1//EN" "http://www.w3.org/Graphics/SVG/1.1/DTD/svg11.dtd">
<svg version="1.1" id="圖層_1" xmlns="http://www.w3.org/2000/svg" xmlns:xlink="http://www.w3.org/1999/xlink" x="0px" y="0px"
	 width="72.181px" height="55.651px" viewBox="0 0 72.181 55.651" enable-background="new 0 0 72.181 55.651" xml:space="preserve">
<g>
	<g>
		<g>
			<path fill="#FBD22A" d="M16.912,0v46.018l-0.601,0.328l-0.569,0.31l-3.975,2.171l-1.276,0.696l-0.81,0.441l-7.877,4.302
				C0.992,54.709,0,54.121,0,53.194V9.958c0-0.447,0.244-0.857,0.636-1.071l13.239-7.228L16.912,0z"/>
			<polygon fill="#EAB721" points="33.823,9.233 33.823,55.251 30.546,53.462 29.409,52.841 27.124,51.594 18.42,46.841 
				17.138,46.141 16.912,46.018 16.912,0 19.467,1.396 			"/>
			<path fill="#FBD22A" d="M50.735,2.057v43.237c0,0.446-0.244,0.857-0.635,1.07l-9.383,5.122l-0.741,0.405l-6.153,3.359V9.233
				l15.108-8.248C49.744,0.542,50.735,1.13,50.735,2.057z"/>
		</g>
		<path fill="#EF651F" d="M50.735,30.95v2.021c-1.325,2.197-3.607,3.493-5.817,4.747c-1.278,0.725-2.598,1.475-3.709,2.387
			c-0.971,0.797-2.187,2.093-2.466,3.736c-0.221,1.3,0.168,2.661,0.549,3.835c0.418,1.289,0.895,2.562,1.426,3.811l-0.741,0.405
			c-0.555-1.296-1.05-2.617-1.485-3.956c-0.412-1.269-0.83-2.747-0.578-4.235c0.255-1.503,1.21-2.972,2.762-4.245
			c1.167-0.958,2.52-1.726,3.828-2.469c2.318-1.315,4.507-2.558,5.683-4.747C50.408,31.827,50.584,31.396,50.735,30.95z"/>
		<path fill="#93932F" d="M0,31.297c0.788,0.605,1.828,0.918,2.913,1.244c0.79,0.237,1.605,0.483,2.349,0.854
			c0.392,0.196,0.875,0.488,1.125,1.001c0.187,0.384,0.198,0.796,0.182,1.186c-0.039,0.941-0.205,1.908-0.364,2.843
			c-0.359,2.097-0.698,4.077,0.309,5.711c0.403,0.654,0.992,1.18,1.615,1.735c0.746,0.665,1.518,1.352,1.97,2.297
			c0.212,0.442,0.337,0.895,0.394,1.354l-0.81,0.441C9.664,49.47,9.56,48.988,9.34,48.531c-0.38-0.793-1.056-1.395-1.771-2.033
			c-0.641-0.571-1.303-1.162-1.771-1.922c-1.174-1.903-0.792-4.135-0.422-6.293c0.156-0.909,0.316-1.849,0.353-2.735
			c0.012-0.279,0.008-0.567-0.097-0.782c-0.109-0.224-0.339-0.414-0.746-0.618c-0.678-0.339-1.46-0.574-2.215-0.801
			C1.751,33.07,0.812,32.788,0,32.308V31.297z"/>
		<path fill="#93932F" d="M17.138,46.141c-0.054-0.491-0.127-0.989-0.226-1.485c-0.298-1.498-0.836-2.98-1.835-4.199
			c-0.458-0.559-0.997-1.042-1.518-1.511c-0.77-0.691-1.496-1.344-1.95-2.191c-0.522-0.976-0.566-2.107-0.115-2.953
			c0.474-0.888,1.568-1.391,2.438-1.12c1.006,0.312,1.524,1.423,1.742,2.058c0.14,0.405,0.243,0.818,0.352,1.257
			c0.15,0.606,0.305,1.234,0.568,1.832c0.095,0.214,0.2,0.42,0.318,0.619c0.884,1.515,2.366,2.624,3.585,3.537
			c0.467,0.35,1.049,0.786,1.759,0.885c1.035,0.145,2.093-0.434,3.06-1.674c0.111-0.144,0.221-0.291,0.332-0.438
			c0.428-0.57,0.835-1.115,1.353-1.466c0.503,1.581,0.505,3.27,0.508,5.048c0.002,1.83,0.004,3.723,0.607,5.496
			c0.222,0.658,0.527,1.318,0.822,1.957c0.164,0.354,0.325,0.704,0.472,1.05l1.137,0.621c-0.226-0.682-0.538-1.357-0.846-2.023
			c-0.285-0.619-0.581-1.259-0.79-1.874c-0.558-1.643-0.56-3.466-0.562-5.229c-0.003-1.939-0.005-3.946-0.724-5.803l-0.157-0.405
			l-0.4,0.171c-0.927,0.395-1.52,1.188-2.093,1.954c-0.107,0.143-0.214,0.285-0.322,0.424c-0.538,0.689-1.371,1.485-2.28,1.358
			c-0.496-0.069-0.961-0.417-1.372-0.725c-1.367-1.024-2.917-2.185-3.636-3.821c-0.197-0.447-0.327-0.917-0.452-1.411
			c-0.023-0.095-0.048-0.189-0.071-0.286c-0.107-0.436-0.219-0.888-0.372-1.329c-0.271-0.784-0.928-2.162-2.288-2.586
			c-1.257-0.389-2.763,0.281-3.429,1.528c-0.582,1.09-0.538,2.525,0.116,3.745c0.523,0.978,1.339,1.711,2.128,2.42
			c0.499,0.448,1.013,0.91,1.431,1.419c1.199,1.462,1.67,3.288,1.885,5.356L17.138,46.141z"/>
		<path fill="#EF651F" d="M0,28.409c1.871-0.191,3.725-0.511,5.502-1.113c3.56-1.206,6.272-3.491,7.44-6.27
			c0.387-0.917,0.624-1.927,0.854-2.903c0.275-1.171,0.56-2.381,1.105-3.5c0.486-0.995,1.179-1.888,2.011-2.623
			c0.946-0.835,2.072-1.465,3.284-1.811c0.5-0.143,1.01-0.238,1.504-0.33c0.789-0.147,1.534-0.287,2.215-0.6
			c1.353-0.621,2.465-1.992,3.057-3.767l0.832,0.454c-0.687,1.942-1.953,3.452-3.5,4.161c-0.785,0.361-1.623,0.517-2.433,0.668
			c-0.495,0.094-0.962,0.181-1.42,0.312c-1.356,0.387-2.594,1.175-3.54,2.222c-0.469,0.518-0.866,1.097-1.171,1.724
			c-0.5,1.024-0.76,2.131-1.036,3.304c-0.238,1.014-0.484,2.062-0.901,3.052c-1.272,3.024-4.19,5.5-8.002,6.791
			C3.912,28.82,1.959,29.153,0,29.349V28.409z"/>
		<path fill="#93932F" d="M50.735,11.996l-0.216-0.147c-0.508,0.741-1.254,1.207-2.218,1.381c-1.688,0.305-3.952-0.323-5.771-1.601
			l-0.102-0.071c-0.882-0.621-1.881-1.324-3.038-1.121c-1.531,0.269-2.311,2.041-2.08,3.528c0.172,1.104,0.732,2.057,1.275,2.979
			c0.13,0.221,0.265,0.451,0.39,0.675c1.031,1.854,1.682,3.948,1.882,6.059c0.199,2.102-0.14,3.77-1.007,4.959
			c-0.923,1.266-2.348,1.983-4.355,2.192c-0.549,0.058-1.113,0.072-1.672,0.06c-1.463-0.038-2.898-0.275-3.959-0.477
			c-0.503-0.096-1.014-0.217-1.236-0.551c-0.205-0.309-0.153-0.771-0.078-1.26l1.2-7.725c0.1-0.644,0.365-2.353-0.763-3.149
			c-0.486-0.343-1.034-0.42-1.584-0.225c-1.033,0.368-1.919,1.688-2.327,2.897c-1.424,0.064-2.911-0.301-4.221-1.039
			c-1.395-0.788-2.532-1.97-3.2-3.327l-0.608-1.235l-0.135,0.995l-0.051,0.369c-0.142,1.042-0.301,2.222-0.978,3.062
			c-0.349,0.435-0.928,0.742-1.475,0.786c-0.273,0.021-0.663-0.012-0.978-0.296c-0.46-0.415-0.565-1.152-0.665-1.866
			c-0.013-0.094-0.026-0.188-0.041-0.28c-0.188-1.257-0.586-2.463-1.183-3.585c-0.269-0.506-0.665-1.11-1.345-1.294
			c-0.576-0.156-1.123,0.058-1.479,0.264c-1.644,0.954-1.914,2.842-2.174,4.667c-0.128,0.895-0.26,1.821-0.554,2.608
			c-0.488,1.306-1.67,2.381-3.164,2.876C1.88,23.418,0.894,23.471,0,23.272v0.865c0.985,0.187,2.048,0.11,3.091-0.235
			c1.758-0.582,3.102-1.814,3.687-3.38c0.326-0.873,0.464-1.844,0.599-2.783c0.243-1.702,0.473-3.311,1.764-4.059
			c0.178-0.104,0.526-0.265,0.838-0.18c0.369,0.099,0.633,0.521,0.822,0.877c0.551,1.037,0.919,2.152,1.094,3.314
			c0.013,0.091,0.026,0.182,0.04,0.274c0.116,0.821,0.246,1.752,0.934,2.372c0.419,0.378,0.99,0.56,1.608,0.51
			c0.777-0.062,1.567-0.482,2.062-1.098c0.143-0.177,0.266-0.364,0.374-0.559c0.304-0.552,0.48-1.158,0.599-1.75
			c1.741,2.522,4.84,4.041,7.917,3.777l0.292-0.024l0.078-0.281c0.295-1.062,1.082-2.332,1.889-2.619
			c0.293-0.105,0.552-0.066,0.816,0.12c0.485,0.343,0.614,1.062,0.417,2.332l-1.2,7.726c-0.098,0.632-0.164,1.295,0.207,1.854
			c0.437,0.657,1.278,0.817,1.78,0.912c1.25,0.237,2.682,0.454,4.116,0.484c0.119,0.004,0.238,0.005,0.357,0.005
			c2.462,0,4.885-0.586,6.35-2.596c0.992-1.36,1.383-3.222,1.165-5.533c-0.211-2.226-0.897-4.435-1.984-6.388
			c-0.13-0.233-0.267-0.467-0.4-0.692c-0.525-0.894-1.021-1.738-1.167-2.683c-0.167-1.072,0.364-2.392,1.393-2.572
			c0.814-0.142,1.625,0.429,2.41,0.981l0.103,0.071c1.992,1.4,4.505,2.083,6.403,1.74c0.924-0.167,1.689-0.554,2.285-1.154V11.996z"
			/>
	</g>
	<g>
		<path fill="#614D44" d="M57.039,26.03c-0.206,0-0.374-0.167-0.374-0.374v-3.968c0-0.207,0.167-0.374,0.374-0.374
			c0.207,0,0.374,0.167,0.374,0.374v3.968C57.413,25.863,57.246,26.03,57.039,26.03z"/>
		<circle fill="#A4AB18" cx="57.039" cy="40.511" r="15.141"/>
		<path fill="#93932F" d="M57.039,25.369v30.282c8.362,0,15.142-6.778,15.142-15.141S65.401,25.369,57.039,25.369z"/>
		<g>
			<circle fill="#FFFFFF" cx="57.039" cy="40.511" r="11.405"/>
			<path fill="#5E4F47" d="M57.039,52.382c-6.546,0-11.872-5.325-11.872-11.871c0-6.547,5.326-11.872,11.872-11.872
				c6.546,0,11.872,5.325,11.872,11.872C68.911,47.057,63.585,52.382,57.039,52.382z M57.039,29.572
				c-6.031,0-10.938,4.907-10.938,10.938s4.907,10.938,10.938,10.938c6.031,0,10.938-4.906,10.938-10.938
				S63.07,29.572,57.039,29.572z"/>
		</g>
		<g>
			<path fill="#FFFFFF" d="M57.039,32.153v-3.048V32.153z"/>
			<path fill="#5E4F47" d="M57.039,32.62c-0.258,0-0.467-0.209-0.467-0.467v-3.048c0-0.258,0.209-0.467,0.467-0.467
				s0.467,0.209,0.467,0.467v3.048C57.506,32.411,57.297,32.62,57.039,32.62z"/>
		</g>
		<g>
			<path fill="#FFFFFF" d="M57.039,51.915v-3.047V51.915z"/>
			<path fill="#5E4F47" d="M57.039,52.382c-0.258,0-0.467-0.209-0.467-0.467v-3.047c0-0.258,0.209-0.467,0.467-0.467
				s0.467,0.209,0.467,0.467v3.047C57.506,52.173,57.297,52.382,57.039,52.382z"/>
		</g>
		<g>
			<path fill="#FFFFFF" d="M65.397,40.511h3.047H65.397z"/>
			<path fill="#5E4F47" d="M68.444,40.978h-3.047c-0.258,0-0.467-0.209-0.467-0.467s0.209-0.468,0.467-0.468h3.047
				c0.258,0,0.467,0.21,0.467,0.468S68.702,40.978,68.444,40.978z"/>
		</g>
		<g>
			<path fill="#FFFFFF" d="M45.634,40.511h3.047H45.634z"/>
			<path fill="#5E4F47" d="M48.682,40.978h-3.047c-0.258,0-0.467-0.209-0.467-0.467s0.209-0.468,0.467-0.468h3.047
				c0.258,0,0.467,0.21,0.467,0.468S48.939,40.978,48.682,40.978z"/>
		</g>
		<polygon fill="#6CDFF1" points="55.297,38.769 50.918,46.632 58.781,42.252 		"/>
		<path fill="#614D44" d="M57.039,23.478c-1.611,0-2.922-1.311-2.922-2.922s1.311-2.922,2.922-2.922
			c1.611,0,2.922,1.311,2.922,2.922S58.65,23.478,57.039,23.478z M57.039,18.381c-1.199,0-2.175,0.976-2.175,2.175
			s0.976,2.175,2.175,2.175s2.175-0.976,2.175-2.175S58.238,18.381,57.039,18.381z"/>
		<polygon fill="#EF651F" points="55.297,38.769 63.161,34.389 58.781,42.252 		"/>
	</g>
</g>
</svg>
