<?xml version="1.0" encoding="utf-8"?>
<!-- Generator: Adobe Illustrator 16.0.0, SVG Export Plug-In . SVG Version: 6.00 Build 0)  -->
<!DOCTYPE svg PUBLIC "-//W3C//DTD SVG 1.1//EN" "http://www.w3.org/Graphics/SVG/1.1/DTD/svg11.dtd">
<svg version="1.1" id="圖層_1" xmlns="http://www.w3.org/2000/svg" xmlns:xlink="http://www.w3.org/1999/xlink" x="0px" y="0px"
	 width="57.238px" height="60.186px" viewBox="0 0 57.238 60.186" enable-background="new 0 0 57.238 60.186" xml:space="preserve">
<g>
	<path fill="#493127" d="M9.834,46.69l-2.957,3.945C6.756,50.796,6.96,51,7.122,50.879l3.944-2.957
		c0.494-0.37,0.96-0.775,1.397-1.211l29.728-29.728l-1.418-1.417L11.045,45.293C10.609,45.729,10.205,46.196,9.834,46.69z"/>
	<path fill="#FBD22A" d="M16.112,41.645c0,0-3.104,3.104-10.235,10.235l-4.923,4.923c-4.268-10.282,7.161-23.155,7.161-23.155
		L16.112,41.645z"/>
	<path fill="#EAB721" d="M16.761,42.294l7.347,7.347c0,0-12.873,11.429-23.155,7.162c10.645-10.646,15.158-15.158,15.158-15.158
		L16.761,42.294z"/>
	<path fill="#EAB721" d="M16.112,41.645c0,0-3.104,3.104-10.235,10.235c-0.227-0.089-0.368-0.295-0.386-0.573
		c-0.038-0.553,0.142-1.153,0.433-1.757c0.12-0.437,0.313-0.904,0.539-1.372c0.61-1.26,1.308-2.517,2.076-3.753
		c1.292-2.08,2.833-3.987,4.517-5.835L16.112,41.645z"/>
	<path fill="#D7AC33" d="M16.112,41.645c0,0-3.104,3.104-10.235,10.235c0.089,0.227,0.295,0.368,0.574,0.386
		c0.553,0.038,1.153-0.142,1.757-0.433c0.437-0.12,0.903-0.313,1.372-0.539c1.259-0.61,2.516-1.308,3.753-2.076
		c2.08-1.292,3.987-2.833,5.835-4.517L16.112,41.645z"/>
	<g>
		<path fill="#D0951C" d="M15.403,40.936l-4.358,4.357c-0.436,0.436-0.841,0.903-1.211,1.396l-2.957,3.945
			C6.756,50.796,6.96,51,7.122,50.879l3.944-2.957c0.494-0.37,0.96-0.775,1.397-1.211l4.357-4.357L15.403,40.936z"/>
	</g>
	<g>
		<path fill="#493127" d="M30.384,44.646l-1.017-1.016c-0.294-0.294-0.294-0.771,0-1.065l19.549-19.549
			c0.294-0.294,0.771-0.294,1.065,0l1.017,1.017c0.294,0.294,0.294,0.771,0,1.065L31.449,44.646
			C31.155,44.94,30.678,44.94,30.384,44.646z"/>
		<path fill="#A4AB18" d="M54.736,36.135l-10.88-10.88c0,0,0.653-0.727,2.705-2.034c0,0,3.252,4.181,8.354,6.252
			c0.717,0.292,1.472,0.543,2.258,0.733C57.71,33.296,54.736,36.135,54.736,36.135z"/>
		<path fill="#76770B" d="M48.809,38.571c-0.167-0.688-0.378-1.349-0.624-1.984c-2.03-5.26-6.362-8.628-6.362-8.628
			c1.259-2.004,2.033-2.704,2.033-2.704l10.88,10.88C54.736,36.135,51.898,39.108,48.809,38.571z"/>
		<path fill="#B8B824" d="M54.736,36.135l-1.834-1.834c1.072-1.102,2.604-2.958,2.078-4.487c-0.039-0.113-0.06-0.227-0.064-0.34
			c0.717,0.292,1.472,0.543,2.258,0.733C57.71,33.296,54.736,36.135,54.736,36.135z"/>
		<path fill="#93932F" d="M48.809,38.571c-0.167-0.688-0.378-1.349-0.624-1.984c1.813-0.068,3.416-0.951,4.691-2.259
			c0.009-0.009,0.018-0.018,0.026-0.028l1.834,1.834C54.736,36.135,51.898,39.108,48.809,38.571z"/>
	</g>
	<g>
		<polygon fill="#A4AB18" points="32.314,50.223 31.964,49.161 31.128,50.161 30.718,49.157 29.81,49.942 29.438,48.804 
			28.63,49.607 28.337,48.291 28.186,47.609 34.81,48.306 34.494,48.97 34.199,49.59 		"/>
		<path fill="#76770B" d="M35.738,58.744l-1.213-0.095l-6.19-0.484l-1.046-1.082l-0.117-1.138c0,0,0.16,0.003,0.537,0.035
			c0.631,0.054,1.872,0.191,3.997,0.54C35.097,57.075,35.738,58.744,35.738,58.744z"/>
		<path fill="#A4AB18" d="M35.738,58.744l-1.213-0.095c-1.786-1.025-3.872-1.515-5.862-1.999c-0.457-0.111-0.77-0.36-0.955-0.67
			c0.631,0.054,1.872,0.191,3.997,0.54C35.097,57.075,35.738,58.744,35.738,58.744z"/>
		<polygon fill="#76770B" points="34.494,48.97 28.337,48.291 28.186,47.609 34.81,48.306 		"/>
		<path fill="#B5793A" d="M26.05,58.555c-0.06,0-0.119-0.023-0.165-0.068c-0.091-0.091-0.091-0.239,0-0.33l1.239-1.239
			c0.091-0.091,0.239-0.091,0.33,0c0.091,0.091,0.091,0.239,0,0.331l-1.239,1.238C26.169,58.532,26.11,58.555,26.05,58.555z"/>
		<path fill="#F07B20" d="M35.65,48.789c-0.731-0.731-1.916-0.731-2.646,0l-6.156,6.156c-0.731,0.73-0.731,1.916,0,2.646
			L35.65,48.789z"/>
		<path fill="#EF651F" d="M26.847,57.592c0.731,0.731,1.916,0.731,2.647,0l6.156-6.156c0.731-0.73,0.731-1.916,0-2.646
			L26.847,57.592z"/>
		<path fill="#B5793A" d="M25.422,60.186c-0.299,0-0.599-0.114-0.827-0.342c-0.221-0.221-0.343-0.515-0.343-0.827
			c0-0.312,0.122-0.605,0.343-0.827c0.456-0.456,1.197-0.456,1.653,0c0.456,0.456,0.456,1.198,0,1.654
			C26.021,60.071,25.722,60.186,25.422,60.186z M25.422,58.315c-0.18,0-0.36,0.068-0.497,0.206
			c-0.133,0.132-0.206,0.309-0.206,0.496c0,0.188,0.073,0.364,0.206,0.497c0.274,0.274,0.719,0.274,0.993,0
			c0.274-0.273,0.274-0.719,0-0.993C25.782,58.383,25.602,58.315,25.422,58.315z"/>
		<circle fill="#493127" cx="28.133" cy="56.227" r="0.855"/>
	</g>
	<g>
		<path fill="#76770B" d="M26.027,10.635l2.975,2.975L15.554,27.059C15.856,20.41,26.027,10.635,26.027,10.635z"/>
		<path fill="#A4AB18" d="M26.027,10.635l1.092,1.092c-2.537,2.25-4.754,4.829-6.544,7.713c-0.921,1.483-2.039,3.266-2.51,5.106
			l-2.511,2.512C15.856,20.41,26.027,10.635,26.027,10.635z"/>
		<path fill="#F8AB24" d="M40.347,0.388L40.347,0.388c0.518,0.518,0.518,1.358,0,1.877L29.002,13.61l-1.877-1.877L38.47,0.388
			C38.988-0.13,39.829-0.13,40.347,0.388z"/>
		<path fill="#F07B20" d="M27.125,11.734L38.471,0.388c0.518-0.518,1.358-0.518,1.875,0c0.341,0.34,0.458,0.818,0.353,1.253
			l-0.001,0.001c-0.055,0.229-0.172,0.444-0.351,0.623L29.002,13.611L27.125,11.734z"/>
		<path fill="#EF651F" d="M28.063,12.672L38.682,2.054c0.545-0.545,1.344-0.683,2.017-0.411c-0.055,0.229-0.172,0.444-0.351,0.623
			L29.002,13.611L28.063,12.672z"/>
	</g>
	<path fill="#7C654C" d="M41.904,18.063c-0.209,0-0.411-0.083-0.561-0.232l-1.418-1.417c-0.179-0.18-0.262-0.434-0.223-0.685
		l0.759-4.836c0.026-0.166,0.104-0.319,0.223-0.438l1.228-1.228c0.31-0.31,0.812-0.31,1.123,0l2.748,2.748l0,0l2.748,2.748
		c0.31,0.31,0.31,0.812,0,1.123l-1.228,1.228c-0.119,0.119-0.272,0.197-0.438,0.223l-4.836,0.759
		C41.986,18.061,41.945,18.063,41.904,18.063z M41.333,15.576l0.847,0.847l4.182-0.656l0.483-0.483l-4.373-4.373l-0.483,0.484
		L41.333,15.576z"/>
</g>
</svg>
