<?xml version="1.0" encoding="utf-8"?>
<!-- Generator: Adobe Illustrator 16.0.0, SVG Export Plug-In . SVG Version: 6.00 Build 0)  -->
<!DOCTYPE svg PUBLIC "-//W3C//DTD SVG 1.1//EN" "http://www.w3.org/Graphics/SVG/1.1/DTD/svg11.dtd">
<svg version="1.1" id="圖層_1" xmlns="http://www.w3.org/2000/svg" xmlns:xlink="http://www.w3.org/1999/xlink" x="0px" y="0px"
	 width="60.997px" height="56.859px" viewBox="0 0 60.997 56.859" enable-background="new 0 0 60.997 56.859" xml:space="preserve">
<g>
	<g>
		<polygon fill="#93932F" points="1.124,46.756 10.919,36.888 11.426,39.773 8.636,45.434 		"/>
		<polygon fill="#93932F" points="35.411,40.722 22.836,34.791 23.344,37.676 27.899,42.044 		"/>
		<path fill="#A4AB18" d="M34.992,40.796l-14.21,2.5l-1.02,0.18l-2.875,0.506l-0.47,0.083l-14.76,2.598
			c-0.702,0.123-1.171,0.793-1.047,1.495l1.067,6.062c0.306,1.736,1.96,2.896,3.696,2.591l10.215-1.798
			c1.736-0.306,2.896-1.961,2.59-3.696l-0.673-3.829l2.874-0.506l0.674,3.829c0.306,1.735,1.96,2.896,3.696,2.59l10.215-1.798
			c1.736-0.306,2.896-1.96,2.59-3.696l-1.067-6.063C36.363,41.141,35.694,40.672,34.992,40.796z"/>
		<path fill="#74F8FD" d="M4.998,54.681c-0.559,0.099-1.094-0.276-1.192-0.835l-0.916-5.205l12.243-2.155l0.916,5.205
			c0.098,0.56-0.276,1.095-0.835,1.192L4.998,54.681z"/>
		<path fill="#6CDFF1" d="M24.374,51.271c-0.559,0.098-1.094-0.277-1.192-0.836l-0.916-5.205l12.243-2.154l0.916,5.205
			c0.098,0.559-0.276,1.094-0.835,1.192L24.374,51.271z"/>
	</g>
	<g>
		<path fill="#614D44" d="M31.257,46.741H29.11c-10.28,0-18.644-8.363-18.644-18.644c0-0.207,0.167-0.374,0.374-0.374h38.689
			c0.099,0,0.194,0.039,0.264,0.109c0.07,0.07,0.109,0.165,0.109,0.265C49.901,38.378,41.538,46.741,31.257,46.741z M11.217,28.471
			c0.199,9.697,8.149,17.523,17.893,17.523h2.147c9.744,0,17.694-7.826,17.894-17.523H11.217z"/>
		<ellipse fill="#493127" cx="30.498" cy="27.843" rx="30.498" ry="8.753"/>
		<path fill="#EAB721" d="M49.527,19.345v6.692c0,2.123-8.661,3.844-19.344,3.844c-10.684,0-19.345-1.721-19.345-3.844v-6.692
			c0-0.203,0.003-0.406,0.01-0.608C11.169,8.335,19.702,0,30.184,0c10.48,0,19.013,8.335,19.334,18.736
			C49.524,18.938,49.527,19.142,49.527,19.345z"/>
		<circle fill="#EF651F" cx="30.386" cy="46.361" r="1.446"/>
		<path fill="#FBD22A" d="M49.527,19.345v2.981c0,2.122-8.661,3.843-19.344,3.843c-10.684,0-19.345-1.721-19.345-3.843v-2.981
			c0-0.203,0.003-0.406,0.01-0.608C11.169,8.335,19.702,0,30.184,0c10.48,0,19.013,8.335,19.334,18.736
			C49.524,18.938,49.527,19.142,49.527,19.345z"/>
		<path fill="#6B4E32" d="M49.518,18.736c-0.322,2.066-8.855,3.722-19.334,3.722c-10.48,0-19.013-1.655-19.335-3.722
			C11.17,8.335,19.703,0,30.184,0C40.664,0,49.197,8.335,49.518,18.736z"/>
		<circle fill="#493127" cx="22.423" cy="6.452" r="0.664"/>
		<circle fill="#493127" cx="29.722" cy="6.452" r="0.664"/>
		<circle fill="#493127" cx="29.722" cy="2.351" r="0.664"/>
		<circle fill="#493127" cx="37.021" cy="6.452" r="0.665"/>
		<circle fill="#493127" cx="18.712" cy="11.229" r="0.665"/>
		<circle fill="#493127" cx="26.011" cy="11.229" r="0.665"/>
		<circle fill="#493127" cx="33.31" cy="11.229" r="0.665"/>
		<circle fill="#493127" cx="40.609" cy="11.229" r="0.665"/>
		<circle fill="#493127" cx="15.002" cy="16.006" r="0.665"/>
		<circle fill="#493127" cx="22.301" cy="16.006" r="0.665"/>
		<circle fill="#493127" cx="29.6" cy="16.006" r="0.665"/>
		<circle fill="#493127" cx="37.021" cy="16.006" r="0.665"/>
		<circle fill="#493127" cx="44.319" cy="16.006" r="0.665"/>
	</g>
</g>
</svg>
