<?xml version="1.0" encoding="utf-8"?>
<!-- Generator: Adobe Illustrator 16.0.0, SVG Export Plug-In . SVG Version: 6.00 Build 0)  -->
<!DOCTYPE svg PUBLIC "-//W3C//DTD SVG 1.1//EN" "http://www.w3.org/Graphics/SVG/1.1/DTD/svg11.dtd">
<svg version="1.1" id="圖層_1" xmlns="http://www.w3.org/2000/svg" xmlns:xlink="http://www.w3.org/1999/xlink" x="0px" y="0px"
	 width="52.565px" height="54.309px" viewBox="0 0 52.565 54.309" enable-background="new 0 0 52.565 54.309" xml:space="preserve">
<g>
	<path fill="#F07B20" d="M20.475,53.136h-6.686c-1.35,0-2.443-1.094-2.443-2.444V12.054h9.129V53.136z"/>
	<path fill="#EF651F" d="M20.475,53.136h6.685c1.351,0,2.444-1.094,2.444-2.444V12.054h-9.129V53.136z"/>
	<path fill="#6B4E32" d="M13.819,54.092h6.655v-0.956h-6.923v0.688C13.552,53.972,13.671,54.092,13.819,54.092z"/>
	<path fill="#493127" d="M20.475,54.092h6.655c0.148,0,0.268-0.12,0.268-0.268v-0.688h-6.923V54.092z"/>
	<path fill="#B8B824" d="M20.475,0h-6.589c-1.403,0-2.54,1.137-2.54,2.541v9.514h9.129V0z"/>
	<path fill="#93932F" d="M20.475,0h6.589c1.403,0,2.54,1.137,2.54,2.541v9.514h-9.129V0z"/>
	<path fill="#6B4E32" d="M20.475,13.59h-9.573c-0.353,0-0.638-0.285-0.638-0.637v-0.794c0-0.352,0.285-0.637,0.638-0.637h9.573
		V13.59z"/>
	<path fill="#493127" d="M20.475,11.522h9.573c0.352,0,0.637,0.285,0.637,0.637v0.794c0,0.352-0.285,0.637-0.637,0.637h-9.573
		V11.522z"/>
	<path fill="#B9B941" d="M28.127,7.919c-0.259,0-0.468-0.209-0.468-0.467V3.606c0-0.763-0.62-1.383-1.383-1.383h-1.165
		c-0.258,0-0.467-0.209-0.467-0.467c0-0.258,0.209-0.467,0.467-0.467h1.165c1.278,0,2.317,1.04,2.317,2.317v3.845
		C28.594,7.709,28.385,7.919,28.127,7.919z"/>
	<path fill="#614D44" d="M38.436,51.562h-1.994c-1.198,0-2.174-0.975-2.174-2.174v-3.341c0-1.198,0.976-2.174,2.174-2.174h1.994
		c1.198,0,2.174,0.976,2.174,2.174v3.341C40.609,50.586,39.634,51.562,38.436,51.562z M36.441,44.994
		c-0.58,0-1.053,0.472-1.053,1.053v3.341c0,0.581,0.473,1.053,1.053,1.053h1.994c0.58,0,1.053-0.472,1.053-1.053v-3.341
		c0-0.581-0.473-1.053-1.053-1.053H36.441z"/>
	<path fill="#FF9C31" d="M27.891,31.869c-0.258,0-0.467-0.209-0.467-0.467V15.954c0-0.258,0.209-0.467,0.467-0.467
		s0.467,0.209,0.467,0.467v15.448C28.357,31.66,28.148,31.869,27.891,31.869z"/>
	<path fill="#6B4E32" d="M44.221,54.092h-5.385c-1.146,0-2.076-0.929-2.076-2.076v-9.707h7.461V54.092z"/>
	<path fill="#493127" d="M44.221,54.092h5.385c1.147,0,2.076-0.929,2.076-2.076v-9.707h-7.461V54.092z"/>
	<path fill="#F07B20" d="M44.221,41.053h-7.824c-0.287,0-0.521,0.233-0.521,0.521v0.649c0,0.288,0.233,0.521,0.521,0.521h7.824
		V41.053z"/>
	<path fill="#EF651F" d="M44.221,42.743h7.824c0.288,0,0.521-0.233,0.521-0.521v-0.649c0-0.288-0.232-0.521-0.521-0.521h-7.824
		V42.743z"/>
	<path fill="#7C654C" d="M48.963,53.123H48.01c-0.258,0-0.467-0.209-0.467-0.467s0.209-0.467,0.467-0.467h0.953
		c0.576,0,1.045-0.469,1.045-1.045v-3.143c0-0.258,0.209-0.467,0.467-0.467s0.467,0.209,0.467,0.467v3.143
		C50.941,52.235,50.054,53.123,48.963,53.123z"/>
	<path fill="#79D9E7" d="M44.442,38.915c-0.101,0-0.2-0.04-0.273-0.119l-0.542-0.58c-0.348-0.373-0.518-0.877-0.467-1.384
		c0.052-0.507,0.319-0.968,0.734-1.263c0.241-0.171,0.396-0.438,0.425-0.732c0.028-0.294-0.071-0.586-0.273-0.8l-0.404-0.428
		c-0.352-0.372-0.524-0.877-0.475-1.386c0.05-0.509,0.317-0.971,0.734-1.268l0.213-0.152c0.26-0.185,0.416-0.473,0.428-0.791
		c0.013-0.318-0.12-0.618-0.364-0.823c-0.158-0.132-0.179-0.368-0.047-0.526c0.133-0.158,0.368-0.179,0.526-0.047
		c0.423,0.354,0.653,0.874,0.632,1.425c-0.021,0.551-0.292,1.051-0.741,1.371l-0.213,0.152c-0.241,0.171-0.396,0.438-0.424,0.732
		c-0.029,0.294,0.07,0.585,0.273,0.8l0.404,0.428c0.351,0.372,0.523,0.877,0.474,1.387s-0.317,0.971-0.734,1.268
		c-0.24,0.171-0.395,0.437-0.424,0.729c-0.03,0.292,0.068,0.584,0.27,0.799l0.541,0.58c0.141,0.151,0.133,0.387-0.018,0.528
		C44.625,38.881,44.533,38.915,44.442,38.915z"/>
	<path fill="#7FE9F4" d="M41.407,35.487c-0.1,0-0.199-0.04-0.273-0.119l-0.541-0.58c-0.348-0.373-0.519-0.877-0.467-1.384
		c0.051-0.507,0.319-0.967,0.734-1.263c0.24-0.171,0.396-0.438,0.424-0.732c0.029-0.294-0.07-0.585-0.273-0.8l-0.404-0.428
		c-0.352-0.372-0.524-0.877-0.474-1.386c0.05-0.509,0.317-0.971,0.733-1.268l0.214-0.152c0.259-0.185,0.415-0.473,0.428-0.792
		c0.012-0.318-0.121-0.618-0.364-0.823c-0.158-0.132-0.18-0.368-0.047-0.526c0.133-0.158,0.368-0.179,0.526-0.046
		c0.423,0.354,0.652,0.874,0.631,1.425s-0.292,1.051-0.741,1.371L41.3,28.136c-0.24,0.171-0.396,0.438-0.424,0.732
		c-0.029,0.294,0.071,0.586,0.273,0.8l0.404,0.428c0.352,0.372,0.524,0.877,0.475,1.387s-0.318,0.971-0.735,1.268
		c-0.239,0.17-0.395,0.436-0.424,0.729c-0.029,0.292,0.068,0.584,0.27,0.799l0.542,0.58c0.141,0.15,0.132,0.387-0.019,0.528
		C41.59,35.454,41.498,35.487,41.407,35.487z"/>
	<g>
		<path fill="#614D44" d="M6.529,42.967c0,0-0.001,0-0.002,0c-0.31-0.001-0.559-0.252-0.558-0.561
			c0.002-1.356,0.718-4.112,3.405-4.835c0.299-0.08,0.606,0.097,0.687,0.396c0.081,0.299-0.097,0.606-0.396,0.687
			c-1.045,0.282-1.793,0.981-2.225,2.079C7.1,41.6,7.09,42.401,7.09,42.41C7.088,42.718,6.838,42.967,6.529,42.967z"/>
		<path fill="#6B4E32" d="M6.563,41.188c0,0,0.547-3.841-3.011-4.128C2.749,39.494,5.214,41.242,6.563,41.188z"/>
		<path fill="#B8B824" d="M9.149,42.21c-0.498-0.092-1.016-0.03-1.471,0.194c-0.274,0.135-0.687,0.222-1.149,0.222
			c-0.462,0-0.875-0.086-1.149-0.222c-0.454-0.224-0.972-0.287-1.47-0.194C1.608,42.638,0,43.883,0,47.12
			c0,2.656,1.083,5.006,2.743,6.439c0.846,0.729,2.013,0.929,3.075,0.585c0.224-0.073,0.463-0.112,0.711-0.112
			c0.249,0,0.488,0.039,0.712,0.112c1.062,0.344,2.229,0.144,3.074-0.585c1.661-1.433,2.743-3.783,2.743-6.439
			C13.059,43.883,11.451,42.638,9.149,42.21z"/>
		<path fill="#93932F" d="M9.149,42.21c-0.498-0.092-1.016-0.03-1.471,0.194c-0.274,0.135-0.687,0.222-1.149,0.222v11.407
			c0.249,0,0.488,0.039,0.712,0.112c1.062,0.344,2.229,0.144,3.074-0.585c1.661-1.433,2.743-3.783,2.743-6.439
			C13.059,43.883,11.451,42.638,9.149,42.21z"/>
	</g>
</g>
</svg>
