<?xml version="1.0" encoding="utf-8"?>
<!-- Generator: Adobe Illustrator 16.0.0, SVG Export Plug-In . SVG Version: 6.00 Build 0)  -->
<!DOCTYPE svg PUBLIC "-//W3C//DTD SVG 1.1//EN" "http://www.w3.org/Graphics/SVG/1.1/DTD/svg11.dtd">
<svg version="1.1" id="圖層_1" xmlns="http://www.w3.org/2000/svg" xmlns:xlink="http://www.w3.org/1999/xlink" x="0px" y="0px"
	 width="67.453px" height="58.967px" viewBox="0 0 67.453 58.967" enable-background="new 0 0 67.453 58.967" xml:space="preserve">
<g>
	<g>
		<path fill="#614D44" d="M46.399,12.822c-0.207,0-0.374-0.167-0.374-0.374v-9.38c0-1.28-1.042-2.321-2.321-2.321H25.504
			c-1.28,0-2.321,1.042-2.321,2.321v9.38c0,0.207-0.167,0.374-0.374,0.374c-0.207,0-0.374-0.167-0.374-0.374v-9.38
			C22.436,1.376,23.812,0,25.504,0h18.201c1.692,0,3.068,1.376,3.068,3.068v9.38C46.773,12.655,46.605,12.822,46.399,12.822z"/>
		<path fill="#614D44" d="M22.809,14.97c-0.798,0-1.448-0.649-1.448-1.448s0.649-1.448,1.448-1.448c0.798,0,1.448,0.649,1.448,1.448
			S23.607,14.97,22.809,14.97z M22.809,12.822c-0.386,0-0.701,0.314-0.701,0.701s0.314,0.701,0.701,0.701s0.7-0.314,0.7-0.701
			S23.195,12.822,22.809,12.822z"/>
		<path fill="#614D44" d="M46.399,14.97c-0.798,0-1.448-0.649-1.448-1.448s0.649-1.448,1.448-1.448s1.448,0.649,1.448,1.448
			S47.198,14.97,46.399,14.97z M46.399,12.822c-0.386,0-0.701,0.314-0.701,0.701s0.314,0.701,0.701,0.701s0.701-0.314,0.701-0.701
			S46.786,12.822,46.399,12.822z"/>
		<path fill="#626208" d="M66.383,17.245c0,2.333,0,2.333,0,2.333s-0.427-0.045-1.035,0.349c-1.065,0.686-2.686,2.71-3.543,8.651
			c-1.347,9.334-6.463,14.001-12.119,13.556c-5.656-0.444-7.811-11.889,0-13c0,0,0.334,0.193,0.868,0.435
			c1.786,0.806,5.801,2.133,6.942-1.546C58.978,23.245,60.458,17.689,66.383,17.245z"/>
		<g>
			<path fill="#76770B" d="M66.098,18.11c0.094-0.048,0.19-0.094,0.285-0.141v-0.724c-5.925,0.444-7.406,6-8.887,10.778
				c-1.141,3.679-5.157,2.352-6.942,1.546c-0.17,0.015-0.341,0.028-0.511,0.041c-1.33,0.1-2.621,1.104-2.556,2.556
				c0.058,1.298,1.128,2.664,2.556,2.556c1.971-0.149,3.88-0.389,5.705-1.183c1.814-0.792,3.145-2.287,3.906-4.089
				c0.589-1.395,0.791-2.865,1.091-4.331C61.106,22.038,63.368,19.497,66.098,18.11z"/>
			<path fill="#76770B" d="M54.986,27.438c-0.012,0.03-0.025,0.062-0.038,0.094c-0.001,0.001-0.001,0.003-0.002,0.004
				c-0.006,0.012-0.012,0.024-0.019,0.037C55.017,27.181,55.039,27.281,54.986,27.438z"/>
			<path fill="#76770B" d="M51.56,29.463c0.175-0.038,0.336-0.104-0.156,0.022c0.011-0.001,0.021-0.002,0.031-0.003
				C51.476,29.476,51.518,29.469,51.56,29.463z"/>
		</g>
		<path fill="#76770B" d="M34.604,11.505c-5.234,0-13.889,2.748-13.889,2.748s4.599,1.701,13.889,1.701V11.505z"/>
		<path fill="#626208" d="M34.604,11.505c5.234,0,13.89,2.748,13.89,2.748s-4.6,1.701-13.89,1.701V11.505z"/>
		<circle fill="#493127" cx="34.604" cy="9.542" r="2.255"/>
		<path fill="#A4AB18" d="M34.604,13.856v35.818H22.809c-1.259,0-2.429-0.375-3.407-1.018c-1.584-1.043-2.662-2.792-2.787-4.799
			c-0.008-0.128-0.012-0.257-0.012-0.389V20.062c0-1.411,0.47-2.711,1.263-3.752c1.132-1.491,2.925-2.454,4.942-2.454H34.604z"/>
		<path fill="#93932F" d="M34.604,49.674h11.795c3.427,0,6.206-2.778,6.206-6.206V20.062c0-3.427-2.778-6.206-6.206-6.206H34.604
			V49.674z"/>
		<path fill="#B9B941" d="M49.716,37.991c-0.258,0-0.467-0.209-0.467-0.467V20.858c0-1.735-1.411-3.146-3.146-3.146h-4.165
			c-0.258,0-0.467-0.209-0.467-0.467s0.209-0.467,0.467-0.467h4.165c2.25,0,4.08,1.831,4.08,4.08v16.666
			C50.183,37.781,49.974,37.991,49.716,37.991z"/>
		<path fill="#76770B" d="M34.604,43.857v5.817H22.809c-1.259,0-2.429-0.375-3.407-1.018c-1.584-1.043-2.662-2.792-2.787-4.799
			H34.604z"/>
		<path fill="#626208" d="M34.61,43.857v5.817h11.795c1.259,0,2.429-0.375,3.407-1.018c1.584-1.043,2.663-2.792,2.787-4.799H34.61z"
			/>
	</g>
	<path fill="#614D44" d="M54.927,51.354H11.423c-0.464,0-0.84-0.376-0.84-0.84c0-0.464,0.376-0.841,0.84-0.841h43.504
		c0.464,0,0.84,0.376,0.84,0.841C55.768,50.977,55.392,51.354,54.927,51.354z"/>
	<g>
		<path fill="#F07B20" d="M16.455,57.287h-3.013c-6.27,0-11.353-5.083-11.353-11.353v-4.809h14.366V57.287z"/>
		<path fill="#614D44" d="M30.821,42.848H2.089c-0.206,0-0.374-0.167-0.374-0.374c0-7.688,6.254-13.942,13.942-13.942h1.595
			c7.688,0,13.942,6.254,13.942,13.942C31.194,42.681,31.027,42.848,30.821,42.848z M2.468,42.101h27.975
			c-0.199-7.104-6.039-12.821-13.19-12.821h-1.595C8.506,29.279,2.666,34.997,2.468,42.101z"/>
		<path fill="#EF651F" d="M16.455,57.287h3.013c6.27,0,11.353-5.083,11.353-11.353v-4.809H16.455V57.287z"/>
		<path fill="#FBD22A" d="M16.455,43.211H1.043C0.467,43.211,0,42.744,0,42.168l0,0c0-0.576,0.467-1.043,1.043-1.043h15.412V43.211z
			"/>
		<path fill="#EAB721" d="M16.455,41.125h15.412c0.576,0,1.043,0.467,1.043,1.043l0,0c0,0.576-0.467,1.043-1.043,1.043H16.455
			V41.125z"/>
		<path fill="#FF7315" d="M20.759,55.251c-0.258,0-0.467-0.209-0.467-0.467s0.209-0.467,0.467-0.467
			c4.064,0,7.372-3.307,7.372-7.372c0-0.258,0.209-0.467,0.467-0.467s0.467,0.209,0.467,0.467
			C29.064,51.526,25.338,55.251,20.759,55.251z"/>
	</g>
	<path fill="#79D9E7" d="M66.604,15.588c-0.1,0-0.2-0.04-0.273-0.119l-0.542-0.58c-0.348-0.373-0.518-0.877-0.467-1.384
		s0.319-0.967,0.734-1.263c0.241-0.171,0.396-0.438,0.424-0.732c0.029-0.294-0.071-0.586-0.273-0.801l-0.404-0.428
		C65.453,9.91,65.28,9.405,65.33,8.896c0.05-0.509,0.317-0.971,0.734-1.268l0.213-0.152c0.259-0.185,0.416-0.473,0.428-0.792
		c0.013-0.318-0.12-0.618-0.364-0.822c-0.158-0.133-0.179-0.368-0.047-0.526c0.133-0.158,0.368-0.179,0.526-0.046
		c0.423,0.354,0.653,0.873,0.631,1.424s-0.292,1.051-0.741,1.371l-0.213,0.152c-0.241,0.171-0.396,0.438-0.424,0.732
		c-0.028,0.294,0.071,0.585,0.274,0.8l0.404,0.427c0.351,0.372,0.524,0.877,0.474,1.387s-0.318,0.972-0.735,1.268
		c-0.24,0.17-0.395,0.437-0.424,0.729c-0.03,0.293,0.068,0.584,0.27,0.799l0.542,0.58c0.141,0.151,0.133,0.387-0.018,0.528
		C66.787,15.555,66.696,15.588,66.604,15.588z"/>
	<path fill="#7FE9F4" d="M64.155,11.888c-0.1,0-0.2-0.04-0.273-0.119l-0.542-0.58c-0.348-0.373-0.518-0.877-0.467-1.384
		s0.319-0.967,0.734-1.263c0.241-0.171,0.396-0.438,0.424-0.732c0.029-0.294-0.071-0.585-0.274-0.8l-0.404-0.428
		C63.002,6.21,62.83,5.705,62.88,5.196c0.05-0.509,0.317-0.971,0.734-1.268l0.213-0.152c0.259-0.185,0.415-0.473,0.428-0.792
		s-0.121-0.618-0.365-0.823c-0.158-0.132-0.179-0.368-0.046-0.526c0.132-0.158,0.368-0.179,0.526-0.047
		c0.423,0.354,0.653,0.874,0.631,1.425s-0.292,1.051-0.741,1.371l-0.213,0.152c-0.24,0.171-0.395,0.438-0.424,0.732
		s0.071,0.586,0.274,0.8l0.404,0.428c0.352,0.372,0.524,0.877,0.475,1.387s-0.318,0.971-0.735,1.268
		c-0.24,0.17-0.395,0.436-0.424,0.729c-0.03,0.292,0.068,0.584,0.269,0.799l0.542,0.58c0.141,0.15,0.133,0.387-0.018,0.528
		C64.337,11.855,64.246,11.888,64.155,11.888z"/>
	<path fill="#614D44" d="M26.846,58.967H6.064c-0.464,0-0.841-0.376-0.841-0.84s0.376-0.84,0.841-0.84h20.782
		c0.464,0,0.84,0.376,0.84,0.84S27.31,58.967,26.846,58.967z"/>
</g>
</svg>
