<?xml version="1.0" encoding="utf-8"?>
<!-- Generator: Adobe Illustrator 16.0.0, SVG Export Plug-In . SVG Version: 6.00 Build 0)  -->
<!DOCTYPE svg PUBLIC "-//W3C//DTD SVG 1.1//EN" "http://www.w3.org/Graphics/SVG/1.1/DTD/svg11.dtd">
<svg version="1.1" id="圖層_1" xmlns="http://www.w3.org/2000/svg" xmlns:xlink="http://www.w3.org/1999/xlink" x="0px" y="0px"
	 width="71.332px" height="46.624px" viewBox="0 0 71.332 46.624" enable-background="new 0 0 71.332 46.624" xml:space="preserve">
<g>
	<g>
		<path fill="#614D44" d="M43.21,16.856H27.626c-1.448,0-2.625-1.178-2.625-2.625V3.954c0-1.447,1.178-2.625,2.625-2.625H43.21
			c1.448,0,2.625,1.178,2.625,2.625V14.23C45.836,15.678,44.658,16.856,43.21,16.856z M27.626,2.076
			c-1.036,0-1.878,0.843-1.878,1.878V14.23c0,1.036,0.842,1.878,1.878,1.878H43.21c1.036,0,1.878-0.842,1.878-1.878V3.954
			c0-1.035-0.842-1.878-1.878-1.878H27.626z"/>
		<path fill="#6B4E32" d="M42.11,3.673H28.974c-0.85,0-1.539-0.689-1.539-1.539V1.539c0-0.85,0.689-1.539,1.539-1.539H42.11
			c0.85,0,1.539,0.689,1.539,1.539v0.596C43.648,2.984,42.959,3.673,42.11,3.673z"/>
		<path fill="#F07B20" d="M63.954,3.781v39.775c0,1.23-0.998,2.227-2.228,2.227H50.718c-0.615,0-1.172-0.249-1.575-0.653
			c-0.403-0.402-0.653-0.959-0.653-1.574c0-1.23-0.998-2.228-2.228-2.228H24.574c-0.616,0-1.172,0.25-1.575,0.653
			c-0.403,0.402-0.653,0.959-0.653,1.575c0,1.23-0.998,2.227-2.228,2.227H9.111c-1.231,0-2.228-0.997-2.228-2.227V3.781
			c0-1.23,0.997-2.228,2.228-2.228h11.008c0.616,0,1.172,0.25,1.575,0.653c0.403,0.402,0.653,0.959,0.653,1.575
			c0,1.23,0.998,2.227,2.228,2.227h21.689c1.23,0,2.228-0.997,2.228-2.227s0.998-2.228,2.228-2.228h11.008
			C62.956,1.554,63.954,2.551,63.954,3.781z"/>
		<circle fill="#FBD22A" cx="35.418" cy="23.669" r="8.134"/>
		<path fill="#D34C1B" d="M63.954,37.219v6.337c0,1.23-0.998,2.227-2.228,2.227H50.718c-0.615,0-1.172-0.249-1.575-0.653
			c-0.403-0.402-0.653-0.959-0.653-1.574c0-1.23-0.998-2.228-2.228-2.228H24.574c-0.616,0-1.172,0.25-1.575,0.653
			c-0.403,0.402-0.653,0.959-0.653,1.575c0,1.23-0.998,2.227-2.228,2.227H9.111c-1.231,0-2.228-0.997-2.228-2.227v-6.337H63.954z"/>
		<rect x="10.908" y="1.554" fill="#EF651F" width="7.098" height="35.666"/>
		<rect x="52.934" y="1.554" fill="#EF651F" width="7.098" height="35.666"/>
		<g>
			<rect x="34.141" y="18.812" fill="#493127" width="2.802" height="9.713"/>
			<rect x="30.686" y="22.268" fill="#493127" width="9.712" height="2.802"/>
		</g>
	</g>
	<path fill="#614D44" d="M70.491,46.624H0.841C0.376,46.624,0,46.248,0,45.783c0-0.464,0.376-0.84,0.841-0.84h69.65
		c0.464,0,0.841,0.376,0.841,0.84C71.332,46.248,70.955,46.624,70.491,46.624z"/>
</g>
</svg>
