<?xml version="1.0" encoding="utf-8"?>
<!-- Generator: Adobe Illustrator 16.0.0, SVG Export Plug-In . SVG Version: 6.00 Build 0)  -->
<!DOCTYPE svg PUBLIC "-//W3C//DTD SVG 1.1//EN" "http://www.w3.org/Graphics/SVG/1.1/DTD/svg11.dtd">
<svg version="1.1" id="圖層_1" xmlns="http://www.w3.org/2000/svg" xmlns:xlink="http://www.w3.org/1999/xlink" x="0px" y="0px"
	 width="82.659px" height="55.128px" viewBox="0 0 82.659 55.128" enable-background="new 0 0 82.659 55.128" xml:space="preserve">
<g>
	<g>
		<polygon fill="#B8B824" points="70.353,47.642 74.134,41.864 74.134,47.642 		"/>
		<polygon fill="#93932F" points="77.915,47.642 74.134,41.864 74.134,47.642 		"/>
		<polygon fill="#A4AB18" points="71.365,44.857 74.134,40.626 74.134,44.857 		"/>
		<polygon fill="#76770B" points="76.902,44.857 74.134,40.626 74.134,44.857 		"/>
		<polygon fill="#B8B824" points="72.107,42.742 74.134,39.646 74.134,42.742 		"/>
		<polygon fill="#93932F" points="76.159,42.742 74.134,39.646 74.134,42.742 		"/>
	</g>
	<polygon fill="#50C8E7" points="19.802,48.368 45.206,0.028 75.654,48.368 	"/>
	<polygon fill="#45B4D0" points="66.335,48.099 39.064,48.099 46.629,25.597 53.073,21.521 	"/>
	<g>
		<polygon fill="#B8B824" points="46.629,45.796 50.986,39.138 50.986,45.796 		"/>
		<polygon fill="#93932F" points="55.343,45.796 50.986,39.138 50.986,45.796 		"/>
		<polygon fill="#A4AB18" points="47.796,42.587 50.986,37.712 50.986,42.587 		"/>
		<polygon fill="#76770B" points="54.176,42.587 50.986,37.712 50.986,42.587 		"/>
		<polygon fill="#B8B824" points="48.652,40.149 50.986,36.583 50.986,40.149 		"/>
		<polygon fill="#93932F" points="53.32,40.149 50.986,36.583 50.986,40.149 		"/>
	</g>
	<polygon fill="#6CDFF1" points="5.324,48.368 28.394,8.603 52.958,48.368 	"/>
	<polygon fill="#4EBFDA" points="29.141,35.897 19.802,48.368 47.728,48.368 37.337,32.941 	"/>
	<g>
		<polygon fill="#B8B824" points="3.482,47.642 8.713,39.65 8.713,47.642 		"/>
		<polygon fill="#93932F" points="13.942,47.642 8.713,39.65 8.713,47.642 		"/>
		<polygon fill="#A4AB18" points="4.884,43.79 8.713,37.939 8.713,43.79 		"/>
		<polygon fill="#76770B" points="12.542,43.79 8.713,37.939 8.713,43.79 		"/>
		<polygon fill="#B8B824" points="5.911,40.864 8.713,36.583 8.713,40.864 		"/>
		<polygon fill="#93932F" points="11.515,40.864 8.713,36.583 8.713,40.864 		"/>
	</g>
	<g>
		<polygon fill="#B8B824" points="10.627,47.642 17.515,37.117 17.515,47.642 		"/>
		<polygon fill="#93932F" points="24.402,47.642 17.515,37.117 17.515,47.642 		"/>
		<polygon fill="#A4AB18" points="12.472,42.569 17.515,34.863 17.515,42.569 		"/>
		<polygon fill="#76770B" points="22.558,42.569 17.515,34.863 17.515,42.569 		"/>
		<polygon fill="#B8B824" points="13.825,38.716 17.515,33.078 17.515,38.716 		"/>
		<polygon fill="#93932F" points="21.204,38.716 17.515,33.078 17.515,38.716 		"/>
	</g>
	<g>
		<polygon fill="#B8B824" points="20.958,47.642 24.542,42.166 24.542,47.642 		"/>
		<polygon fill="#93932F" points="28.126,47.642 24.542,42.166 24.542,47.642 		"/>
		<polygon fill="#A4AB18" points="21.918,45.002 24.542,40.993 24.542,45.002 		"/>
		<polygon fill="#76770B" points="27.166,45.002 24.542,40.993 24.542,45.002 		"/>
		<polygon fill="#B8B824" points="22.622,42.998 24.542,40.064 24.542,42.998 		"/>
		<polygon fill="#93932F" points="26.462,42.998 24.542,40.064 24.542,42.998 		"/>
	</g>
	<g>
		<polygon fill="#B8B824" points="50.458,47.642 55.688,39.65 55.688,47.642 		"/>
		<polygon fill="#93932F" points="60.918,47.642 55.688,39.65 55.688,47.642 		"/>
		<polygon fill="#A4AB18" points="51.859,43.79 55.688,37.939 55.688,43.79 		"/>
		<polygon fill="#76770B" points="59.517,43.79 55.688,37.939 55.688,43.79 		"/>
		<polygon fill="#B8B824" points="52.887,40.864 55.688,36.583 55.688,40.864 		"/>
		<polygon fill="#93932F" points="58.489,40.864 55.688,36.583 55.688,40.864 		"/>
	</g>
	<polygon fill="#74F8FD" points="13.159,34.863 23.23,25.597 29.141,35.897 37.337,32.941 45.419,36.163 28.394,8.603 	"/>
	<polygon fill="#9AF8FD" points="28.394,8.603 23.23,25.597 29.141,35.897 	"/>
	<polygon fill="#9AF8FD" points="37.337,32.941 40.024,27.431 45.419,36.163 	"/>
	<polygon fill="#6CDFF1" points="36.052,17.446 46.629,25.597 53.073,21.521 60.43,24.198 45.206,0.028 	"/>
	<polygon fill="#74F8FD" points="45.206,0.028 46.629,25.597 53.073,21.521 54.709,15.116 	"/>
	<circle fill="#FBD22A" cx="17.828" cy="3.362" r="3.362"/>
	<path fill="#EAB721" d="M17.828,0v6.724c1.857,0,3.362-1.505,3.362-3.362S19.686,0,17.828,0z"/>
	<path fill="#6B4E32" d="M71.154,55.128H11.505c-3.733,0-6.761-3.027-6.761-6.76l0,0h73.171l0,0
		C77.915,52.101,74.888,55.128,71.154,55.128z"/>
	<path fill="#614D44" d="M81.818,49.208H0.841C0.377,49.208,0,48.832,0,48.368c0-0.464,0.377-0.841,0.841-0.841h80.978
		c0.464,0,0.841,0.376,0.841,0.841C82.659,48.832,82.282,49.208,81.818,49.208z"/>
</g>
</svg>
