<?xml version="1.0" encoding="utf-8"?>
<!-- Generator: Adobe Illustrator 16.0.0, SVG Export Plug-In . SVG Version: 6.00 Build 0)  -->
<!DOCTYPE svg PUBLIC "-//W3C//DTD SVG 1.1//EN" "http://www.w3.org/Graphics/SVG/1.1/DTD/svg11.dtd">
<svg version="1.1" id="圖層_1" xmlns="http://www.w3.org/2000/svg" xmlns:xlink="http://www.w3.org/1999/xlink" x="0px" y="0px"
	 width="68.692px" height="61.973px" viewBox="0 0 68.692 61.973" enable-background="new 0 0 68.692 61.973" xml:space="preserve">
<g>
	<g>
		<path fill="#93932F" d="M32.077,24.243h10.378c2.747,0,4.973,2.226,4.973,4.973v18.514c0,2.331-1.889,4.22-4.219,4.22H32.077
			V24.243z"/>
		<path fill="#76770B" d="M35.099,54.347H12.588c-4.212,0-7.626-3.414-7.626-7.625V18.072c0-7.296,5.915-13.21,13.21-13.21h11.342
			c7.296,0,13.211,5.915,13.211,13.21v28.649C42.725,50.933,39.311,54.347,35.099,54.347z"/>
		<path fill="#93932F" d="M15.352,51.949H4.973C2.227,51.949,0,49.723,0,46.977V28.462c0-2.331,1.89-4.219,4.22-4.219h11.132V51.949
			z"/>
		<path fill="#614D44" d="M29.412,12.628H17.825c-1.129,0-2.048-0.918-2.048-2.047V2.939c0-1.129,0.919-2.047,2.048-2.047h11.587
			c1.129,0,2.048,0.918,2.048,2.047v7.641C31.46,11.709,30.541,12.628,29.412,12.628z M17.825,1.639c-0.718,0-1.301,0.583-1.301,1.3
			v7.641c0,0.717,0.583,1.3,1.301,1.3h11.587c0.717,0,1.301-0.583,1.301-1.3V2.939c0-0.717-0.584-1.3-1.301-1.3H17.825z"/>
		<path fill="#A4AB18" d="M23.843,4.862v49.485H12.588c-3.764,0-6.891-2.727-7.513-6.313v-0.001
			c-0.074-0.426-0.113-0.864-0.113-1.312V18.072c0-3.909,1.697-7.421,4.396-9.839c2.339-2.096,5.428-3.371,8.814-3.371H23.843z"/>
		<path fill="#76770B" d="M23.843,42.424v11.923H12.588c-3.764,0-6.891-2.727-7.513-6.313v-0.001
			C5.075,48.033,9.757,42.424,23.843,42.424z"/>
		<path fill="#626208" d="M23.843,42.424v11.923h11.256c3.764,0,6.891-2.727,7.513-6.313v-0.001
			C42.611,48.033,37.929,42.424,23.843,42.424z"/>
		<path fill="#76770B" d="M23.843,4.862v19.381h-6.897c-4.191,0-7.588-3.397-7.588-7.587V8.232c2.339-2.096,5.428-3.371,8.814-3.371
			H23.843z"/>
		<path fill="#626208" d="M23.843,4.862v19.381h6.898c4.19,0,7.587-3.397,7.587-7.587V8.232c-2.338-2.096-5.427-3.371-8.813-3.371
			H23.843z"/>
		<path fill="#493127" d="M14.053,33.089L14.053,33.089c-0.772,0-1.398-0.626-1.398-1.399V19.836h2.797V31.69
			C15.451,32.463,14.825,33.089,14.053,33.089z"/>
		<path fill="#493127" d="M33.327,33.089L33.327,33.089c-0.772,0-1.398-0.626-1.398-1.399V19.836h2.797V31.69
			C34.726,32.463,34.1,33.089,33.327,33.089z"/>
		<rect x="12.654" y="19.836" fill="#F07B20" width="2.797" height="0.876"/>
		<rect x="31.929" y="19.836" fill="#F07B20" width="2.797" height="0.876"/>
		<path fill="#FF7315" d="M16.15,31.209h-4.195c-0.206,0-0.374-0.167-0.374-0.374V26.64c0-0.207,0.168-0.374,0.374-0.374h4.195
			c0.207,0,0.374,0.167,0.374,0.374v4.196C16.524,31.042,16.357,31.209,16.15,31.209z M12.329,30.462h3.448v-3.449h-3.448V30.462z"
			/>
		<path fill="#FF7315" d="M35.425,31.209h-4.195c-0.206,0-0.374-0.167-0.374-0.374V26.64c0-0.207,0.168-0.374,0.374-0.374h4.195
			c0.206,0,0.374,0.167,0.374,0.374v4.196C35.799,31.042,35.631,31.209,35.425,31.209z M31.603,30.462h3.449v-3.449h-3.449V30.462z"
			/>
		<path fill="#6B4E32" d="M28.594,2.73h-9.768c-0.632,0-1.144-0.512-1.144-1.144V1.144C17.683,0.512,18.194,0,18.826,0h9.768
			c0.632,0,1.144,0.512,1.144,1.144v0.443C29.737,2.219,29.226,2.73,28.594,2.73z"/>
	</g>
	<g>
		<path fill="#FBD22A" d="M67.232,31.032v29.661h-8.483v-2.119h-5.031v2.119H33.866V53.77c0-0.302,0.021-0.6,0.062-0.891
			c0.433-3.15,3.137-5.578,6.407-5.578h4.781c3.342,0,6.051-2.709,6.051-6.051V31.032H67.232z"/>
		<ellipse fill="#493127" cx="35.124" cy="60.693" rx="1.257" ry="1.28"/>
		<ellipse fill="#493127" cx="36.857" cy="60.693" rx="1.257" ry="1.28"/>
		<ellipse fill="#493127" cx="38.591" cy="60.693" rx="1.257" ry="1.28"/>
		<ellipse fill="#493127" cx="40.325" cy="60.693" rx="1.257" ry="1.28"/>
		<ellipse fill="#493127" cx="42.059" cy="60.693" rx="1.257" ry="1.28"/>
		<ellipse fill="#493127" cx="43.792" cy="60.693" rx="1.257" ry="1.28"/>
		<ellipse fill="#493127" cx="45.526" cy="60.693" rx="1.257" ry="1.28"/>
		<ellipse fill="#493127" cx="47.26" cy="60.693" rx="1.257" ry="1.28"/>
		<ellipse fill="#493127" cx="48.994" cy="60.693" rx="1.257" ry="1.28"/>
		<ellipse fill="#493127" cx="50.728" cy="60.693" rx="1.257" ry="1.28"/>
		<ellipse fill="#493127" cx="52.461" cy="60.693" rx="1.257" ry="1.28"/>
		<ellipse fill="#493127" cx="59.04" cy="60.693" rx="1.257" ry="1.28"/>
		<ellipse fill="#493127" cx="60.774" cy="60.693" rx="1.257" ry="1.28"/>
		<ellipse fill="#493127" cx="62.508" cy="60.693" rx="1.257" ry="1.28"/>
		<ellipse fill="#493127" cx="64.241" cy="60.693" rx="1.257" ry="1.28"/>
		<ellipse fill="#493127" cx="65.975" cy="60.693" rx="1.257" ry="1.28"/>
		<path fill="#EAB721" d="M55.452,31.032v12.041c0,5.416-4.39,9.806-9.805,9.806h-11.72c0.433-3.15,3.137-5.578,6.407-5.578h4.781
			c3.342,0,6.051-2.709,6.051-6.051V31.032H55.452z"/>
		<path fill="#493127" d="M67.798,35.697H50.521c-0.494,0-0.895-0.4-0.895-0.894v-2.876c0-0.494,0.4-0.894,0.895-0.894h17.276
			c0.494,0,0.895,0.4,0.895,0.894v2.876C68.692,35.296,68.292,35.697,67.798,35.697z"/>
		<rect x="33.866" y="58.575" fill="#6B4E32" width="19.852" height="2.119"/>
		<rect x="57.783" y="58.575" fill="#6B4E32" width="9.449" height="2.119"/>
		<path fill="#614D44" d="M53.718,38.134h-2.639c-0.206,0-0.374-0.167-0.374-0.374c0-0.206,0.168-0.374,0.374-0.374h2.639
			c0.207,0,0.374,0.167,0.374,0.374C54.092,37.967,53.925,38.134,53.718,38.134z"/>
		<path fill="#614D44" d="M53.365,40.106c-0.008,0-0.016,0-0.023-0.001l-2.346-0.147c-0.205-0.013-0.361-0.19-0.349-0.396
			c0.013-0.206,0.188-0.363,0.396-0.349l2.345,0.147c0.206,0.013,0.362,0.19,0.35,0.396C53.726,39.954,53.562,40.106,53.365,40.106z
			"/>
		<path fill="#614D44" d="M52.874,42.329c-0.037,0-0.074-0.005-0.111-0.017l-1.942-0.605c-0.196-0.061-0.307-0.271-0.245-0.468
			c0.062-0.197,0.271-0.307,0.468-0.246l1.941,0.605c0.197,0.062,0.308,0.271,0.246,0.468
			C53.181,42.227,53.033,42.329,52.874,42.329z"/>
		<path fill="#614D44" d="M52.079,44.313c-0.058,0-0.115-0.013-0.169-0.041l-1.619-0.824c-0.184-0.094-0.257-0.318-0.163-0.502
			s0.319-0.257,0.503-0.163l1.618,0.824c0.184,0.093,0.257,0.318,0.163,0.502C52.346,44.239,52.215,44.313,52.079,44.313z"/>
		<path fill="#614D44" d="M50.932,46.236c-0.09,0-0.18-0.032-0.251-0.097l-1.305-1.188c-0.153-0.139-0.164-0.375-0.025-0.528
			c0.139-0.152,0.375-0.164,0.528-0.025l1.305,1.188c0.152,0.139,0.163,0.375,0.024,0.528
			C51.135,46.195,51.033,46.236,50.932,46.236z"/>
		<path fill="#614D44" d="M49.226,47.667c-0.116,0-0.23-0.054-0.304-0.156l-0.971-1.354c-0.121-0.167-0.082-0.401,0.085-0.521
			c0.168-0.121,0.401-0.082,0.521,0.085l0.971,1.354c0.121,0.167,0.082,0.401-0.085,0.521
			C49.377,47.645,49.301,47.667,49.226,47.667z"/>
		<path fill="#614D44" d="M47.166,48.669c-0.155,0-0.301-0.097-0.354-0.252l-0.53-1.546c-0.066-0.195,0.037-0.408,0.232-0.475
			c0.195-0.066,0.408,0.037,0.475,0.232l0.53,1.546c0.066,0.195-0.037,0.408-0.232,0.475C47.247,48.663,47.206,48.669,47.166,48.669
			z"/>
		<path fill="#614D44" d="M44.69,48.962c-0.207,0-0.374-0.167-0.374-0.374v-1.574c0-0.206,0.167-0.373,0.374-0.373
			c0.206,0,0.373,0.167,0.373,0.373v1.574C45.063,48.795,44.896,48.962,44.69,48.962z"/>
	</g>
</g>
</svg>
