<?xml version="1.0" encoding="utf-8"?>
<!-- Generator: Adobe Illustrator 16.0.0, SVG Export Plug-In . SVG Version: 6.00 Build 0)  -->
<!DOCTYPE svg PUBLIC "-//W3C//DTD SVG 1.1//EN" "http://www.w3.org/Graphics/SVG/1.1/DTD/svg11.dtd">
<svg version="1.1" id="圖層_1" xmlns="http://www.w3.org/2000/svg" xmlns:xlink="http://www.w3.org/1999/xlink" x="0px" y="0px"
	 width="52.125px" height="62.426px" viewBox="0 0 52.125 62.426" enable-background="new 0 0 52.125 62.426" xml:space="preserve">
<g>
	<g>
		<g>
			<rect y="6.319" fill="#A4AB18" width="31.912" height="48.886"/>
			<rect y="6.351" fill="#76770B" width="31.912" height="2.619"/>
			<rect y="19.396" fill="#FBD22A" width="31.912" height="35.81"/>
			<rect y="27.353" fill="#6B4E32" width="31.912" height="19.896"/>
			<ellipse fill="#EF651F" cx="15.956" cy="37.301" rx="10.881" ry="5.604"/>
			<rect x="3.008" y="12.597" fill="#B5793A" width="1.214" height="6.799"/>
			<g>
				<path fill="#6B4E32" d="M3.615,14.056c0,0-1.93-3.262,0-3.262C5.545,10.794,3.615,14.056,3.615,14.056z"/>
				<path fill="#7C654C" d="M3.615,14.663L3.615,14.663c-0.214,0-0.413-0.113-0.522-0.298c-0.013-0.022-0.334-0.566-0.595-1.228
					c-0.404-1.021-0.455-1.772-0.156-2.296c0.17-0.299,0.53-0.655,1.274-0.655c0.745,0,1.104,0.356,1.274,0.655
					c0.299,0.523,0.248,1.275-0.157,2.296c-0.261,0.661-0.582,1.205-0.595,1.228C4.028,14.55,3.83,14.663,3.615,14.663z M3.615,11.4
					c-0.146,0-0.211,0.029-0.219,0.043c-0.096,0.168,0.003,0.656,0.219,1.22c0.216-0.563,0.315-1.052,0.22-1.22
					C3.827,11.43,3.761,11.4,3.615,11.4z"/>
			</g>
			<rect x="7.084" y="12.597" fill="#B5793A" width="1.214" height="6.799"/>
			<g>
				<path fill="#6B4E32" d="M7.692,14.056c0,0-1.931-3.262,0-3.262C9.622,10.794,7.692,14.056,7.692,14.056z"/>
				<path fill="#7C654C" d="M7.692,14.663c-0.215,0-0.413-0.113-0.522-0.298c-0.014-0.022-0.334-0.566-0.595-1.228
					c-0.404-1.021-0.456-1.772-0.157-2.296c0.17-0.299,0.53-0.655,1.274-0.655c0.744,0,1.104,0.356,1.274,0.655
					c0.299,0.523,0.248,1.275-0.156,2.296c-0.261,0.661-0.582,1.205-0.595,1.228C8.105,14.55,7.906,14.663,7.692,14.663z
					 M7.692,11.4c-0.146,0-0.212,0.029-0.22,0.043c-0.096,0.169,0.003,0.657,0.219,1.221c0.216-0.563,0.316-1.053,0.22-1.221
					C7.903,11.43,7.838,11.4,7.692,11.4z"/>
			</g>
			<rect x="11.162" y="12.597" fill="#B5793A" width="1.214" height="6.799"/>
			<g>
				<path fill="#6B4E32" d="M11.769,14.056c0,0-1.931-3.262,0-3.262S11.769,14.056,11.769,14.056z"/>
				<path fill="#7C654C" d="M11.769,14.663c-0.214,0-0.413-0.113-0.522-0.298c-0.014-0.022-0.334-0.566-0.595-1.228
					c-0.404-1.021-0.455-1.772-0.156-2.296c0.17-0.299,0.53-0.655,1.274-0.655s1.104,0.356,1.274,0.655
					c0.299,0.523,0.248,1.275-0.156,2.296c-0.261,0.661-0.582,1.205-0.595,1.228C12.182,14.55,11.983,14.663,11.769,14.663z
					 M11.769,11.4c-0.146,0-0.212,0.029-0.219,0.043c-0.097,0.169,0.003,0.657,0.219,1.221c0.216-0.563,0.316-1.053,0.22-1.221
					C11.98,11.43,11.915,11.4,11.769,11.4z"/>
			</g>
			<rect x="15.238" y="12.597" fill="#B5793A" width="1.214" height="6.799"/>
			<g>
				<path fill="#6B4E32" d="M15.845,14.056c0,0-1.93-3.262,0-3.262C17.776,10.794,15.845,14.056,15.845,14.056z"/>
				<path fill="#7C654C" d="M15.845,14.663c-0.214,0-0.413-0.113-0.522-0.298c-0.013-0.022-0.334-0.566-0.595-1.228
					c-0.404-1.021-0.455-1.772-0.156-2.296c0.17-0.299,0.53-0.655,1.274-0.655c0.745,0,1.104,0.356,1.274,0.655
					c0.299,0.523,0.248,1.275-0.157,2.296c-0.261,0.661-0.582,1.205-0.595,1.228C16.258,14.55,16.06,14.663,15.845,14.663z
					 M15.845,11.4c-0.146,0-0.211,0.029-0.219,0.043c-0.096,0.168,0.003,0.656,0.219,1.22c0.216-0.563,0.315-1.052,0.22-1.22
					C16.057,11.43,15.991,11.4,15.845,11.4z"/>
			</g>
			<rect x="19.315" y="12.597" fill="#B5793A" width="1.214" height="6.799"/>
			<g>
				<path fill="#6B4E32" d="M19.922,14.056c0,0-1.931-3.262,0-3.262C21.853,10.794,19.922,14.056,19.922,14.056z"/>
				<path fill="#7C654C" d="M19.922,14.663L19.922,14.663c-0.215,0-0.414-0.113-0.522-0.298c-0.014-0.022-0.334-0.566-0.595-1.228
					c-0.404-1.021-0.456-1.772-0.157-2.296c0.17-0.299,0.53-0.655,1.274-0.655c0.744,0,1.104,0.356,1.274,0.655
					c0.299,0.523,0.248,1.275-0.156,2.296c-0.261,0.661-0.582,1.205-0.595,1.228C20.335,14.55,20.137,14.663,19.922,14.663z
					 M19.922,11.4c-0.146,0-0.212,0.029-0.22,0.043c-0.096,0.168,0.004,0.656,0.22,1.22c0.216-0.563,0.315-1.052,0.219-1.22
					C20.134,11.43,20.068,11.4,19.922,11.4z"/>
			</g>
			<rect x="23.392" y="3.788" fill="#B5793A" width="1.214" height="15.607"/>
			<g>
				<path fill="#6B4E32" d="M23.999,5.248c0,0-1.931-3.263,0-3.263S23.999,5.248,23.999,5.248z"/>
				<path fill="#7C654C" d="M23.999,5.855c-0.215,0-0.413-0.113-0.522-0.299c-0.014-0.022-0.334-0.566-0.595-1.227
					c-0.404-1.021-0.455-1.772-0.156-2.297c0.17-0.299,0.53-0.654,1.274-0.654s1.104,0.355,1.274,0.654
					c0.299,0.524,0.248,1.275-0.156,2.297c-0.261,0.66-0.582,1.204-0.595,1.227C24.412,5.742,24.213,5.855,23.999,5.855z
					 M23.999,2.593c-0.146,0-0.212,0.028-0.219,0.042c-0.097,0.169,0.003,0.658,0.219,1.221c0.216-0.563,0.316-1.053,0.22-1.221
					C24.211,2.621,24.145,2.593,23.999,2.593z"/>
			</g>
			<rect x="27.469" y="12.597" fill="#B5793A" width="1.214" height="6.799"/>
			<g>
				<path fill="#6B4E32" d="M28.076,14.056c0,0-1.93-3.262,0-3.262C30.006,10.794,28.076,14.056,28.076,14.056z"/>
				<path fill="#7C654C" d="M28.076,14.663c-0.214,0-0.413-0.113-0.522-0.298c-0.013-0.022-0.334-0.566-0.595-1.228
					c-0.404-1.021-0.455-1.772-0.156-2.296c0.17-0.299,0.53-0.655,1.274-0.655c0.745,0,1.104,0.356,1.274,0.655
					c0.299,0.523,0.248,1.275-0.156,2.296c-0.261,0.661-0.582,1.205-0.595,1.228C28.489,14.55,28.291,14.663,28.076,14.663z
					 M28.076,11.4c-0.146,0-0.212,0.029-0.219,0.043c-0.096,0.168,0.003,0.656,0.219,1.22c0.216-0.563,0.315-1.052,0.219-1.22
					C28.288,11.43,28.222,11.4,28.076,11.4z"/>
			</g>
		</g>
		<g>
			<polygon fill="#6B4E32" points="38.389,16.189 38.389,62.426 52.125,62.426 52.125,20.131 50.838,20.124 50.809,17.408 
				52.125,17.408 52.125,16.189 			"/>
			<rect x="38.389" y="17.421" fill="#493127" width="6.181" height="45.005"/>
			<rect x="44.57" y="16.111" fill="#EF651F" width="7.555" height="1.31"/>
			<path fill="#6CDFF1" d="M50.065,21.276H38.389v-7.737h5.373c0.507,0,0.983,0.246,1.277,0.659L50.065,21.276z"/>
			<rect x="38.389" y="21.276" fill="#493127" width="13.736" height="1.94"/>
			<rect x="45.858" y="19.646" fill="#74F8FD" width="2.061" height="0.801"/>
		</g>
	</g>
	<path fill="#FBD22A" d="M41.939,12.6c0,0,3.167,0.11,4.017-2.513c0.849-2.622,0-3.567,0-3.567s-0.824,2.416-1.82,2.291
		c-0.995-0.125,1.089-2.891-0.632-5.851C41.784,0,41.784,0,41.784,0s-0.588,2.603-2.059,3.54c-1.47,0.938-2.104,3.767-1.312,5.271
		c0.792,1.504-1.787-0.994-1.787-0.994S36.667,13.527,41.939,12.6z"/>
	<path fill="#EAB721" d="M41.939,12.6c0,0-1.354-0.11-1.741-1.981c-0.387-1.872,1.027-4.842,1.288-5.616s-0.582,4.776,0.453,5.1
		c1.035,0.322,1.035,0.064,1.035,0.064S43.357,11.999,41.939,12.6z"/>
</g>
</svg>
