<?xml version="1.0" encoding="utf-8"?>
<!-- Generator: Adobe Illustrator 16.0.0, SVG Export Plug-In . SVG Version: 6.00 Build 0)  -->
<!DOCTYPE svg PUBLIC "-//W3C//DTD SVG 1.1//EN" "http://www.w3.org/Graphics/SVG/1.1/DTD/svg11.dtd">
<svg version="1.1" id="圖層_1" xmlns="http://www.w3.org/2000/svg" xmlns:xlink="http://www.w3.org/1999/xlink" x="0px" y="0px"
	 width="58.223px" height="69.265px" viewBox="0 0 58.223 69.265" enable-background="new 0 0 58.223 69.265" xml:space="preserve">
<g>
	<g>
		<path fill="#EAB721" d="M31.757,4.498v48.913c0,2.484-2.014,4.499-4.499,4.499H5.996c-2.484,0-4.498-2.015-4.498-4.499V4.498
			C1.498,2.014,3.512,0,5.996,0h21.262C29.743,0,31.757,2.014,31.757,4.498z"/>
		<g>
			<path fill="#4EBFDA" d="M23.979,42.688v-0.012c0,0-0.005,0.002-0.013,0.006c-0.008-0.004-0.013-0.006-0.013-0.006v0.012
				c-0.416,0.203-5.945,2.995-4.806,7.809c1.145,4.832,4.585-1.381,4.818-1.811c0.233,0.43,3.674,6.643,4.818,1.811
				C29.925,45.684,24.396,42.892,23.979,42.688z"/>
			<path fill="#4EBFDA" d="M23.974,45.539c-4.986-12.697-5.816-21.637-5.089-27.745c1.02-8.547,5.089-11.55,5.089-11.55
				s4.017,3.255,5.042,11.814C29.753,24.218,28.943,33.123,23.974,45.539z"/>
			<path fill="#74F8FD" d="M29.016,18.059c-0.292,0.154-2.986,1.545-5.033,1.545c-2.168,0-5.098-1.559-5.098-1.559v-0.251
				c1.02-8.547,5.089-11.55,5.089-11.55S27.99,9.499,29.016,18.059z"/>
			<circle fill="#FFFFFF" cx="23.954" cy="13.228" r="1.407"/>
		</g>
		<g>
			<path fill="#45B4D0" d="M16.828,42.688v-0.012c0,0-0.005,0.002-0.013,0.006c-0.008-0.004-0.013-0.006-0.013-0.006v0.012
				c-0.417,0.203-5.945,2.995-4.806,7.809c1.145,4.832,4.585-1.381,4.818-1.811c0.233,0.43,3.674,6.643,4.818,1.811
				C22.773,45.684,17.244,42.892,16.828,42.688z"/>
			<path fill="#45B4D0" d="M16.822,45.539c-4.986-12.697-5.816-21.637-5.089-27.745c1.02-8.547,5.089-11.55,5.089-11.55
				s4.017,3.255,5.042,11.814C22.602,24.218,21.792,33.123,16.822,45.539z"/>
			<path fill="#6CDFF1" d="M21.864,18.059c-0.292,0.154-2.986,1.545-5.033,1.545c-2.168,0-5.098-1.559-5.098-1.559v-0.251
				c1.02-8.547,5.089-11.55,5.089-11.55S20.839,9.499,21.864,18.059z"/>
			<circle fill="#FFFFFF" cx="16.802" cy="13.228" r="1.407"/>
		</g>
		<g>
			<path fill="#4EBFDA" d="M9.677,42.688v-0.012c0,0-0.005,0.002-0.013,0.006c-0.008-0.004-0.013-0.006-0.013-0.006v0.012
				c-0.417,0.203-5.945,2.995-4.806,7.809c1.145,4.832,4.585-1.381,4.818-1.811c0.232,0.43,3.674,6.643,4.817,1.811
				C15.622,45.684,10.093,42.892,9.677,42.688z"/>
			<path fill="#4EBFDA" d="M9.671,45.539C4.684,32.842,3.854,23.902,4.582,17.794c1.02-8.547,5.089-11.55,5.089-11.55
				s4.016,3.255,5.041,11.814C15.45,24.218,14.64,33.123,9.671,45.539z"/>
			<path fill="#74F8FD" d="M14.712,18.059c-0.292,0.154-2.985,1.545-5.033,1.545c-2.167,0-5.097-1.559-5.097-1.559v-0.251
				c1.02-8.547,5.089-11.55,5.089-11.55S13.687,9.499,14.712,18.059z"/>
			<circle fill="#FFFFFF" cx="9.651" cy="13.228" r="1.407"/>
		</g>
		<path fill="#FBD22A" d="M1.498,22.086V56.17c0,2.484,2.014,4.498,4.498,4.498h21.263c2.484,0,4.498-2.014,4.498-4.498V22.086
			H1.498z"/>
		<path fill="#F07B20" d="M31.516,25.563H1.739C0.778,25.563,0,24.785,0,23.825l0,0c0-0.961,0.778-1.739,1.739-1.739h29.776
			c0.96,0,1.739,0.778,1.739,1.739l0,0C33.255,24.785,32.476,25.563,31.516,25.563z"/>
		<path fill="#FBD22A" d="M31.757,4.498v2.94c0-2.484-2.014-4.498-4.499-4.498H5.996c-2.484,0-4.498,2.014-4.498,4.498v-2.94
			C1.498,2.014,3.512,0,5.996,0h21.262C29.743,0,31.757,2.014,31.757,4.498z"/>
		<rect x="1.498" y="31.477" fill="#493127" width="30.259" height="14.286"/>
		<rect x="1.498" y="33.727" fill="#6B4E32" width="30.259" height="9.787"/>
	</g>
	<g>
		<path fill="#A4AB18" d="M26.716,53.262v13.18c0,1.56,6.447,2.823,14.399,2.823c7.953,0,14.399-1.264,14.399-2.823v-13.18H26.716z"
			/>
		<ellipse fill="#76770B" cx="41.115" cy="53.262" rx="14.399" ry="2.823"/>
		<path fill="#A4AB18" d="M45.079,53.262c-0.007,0.743,7.017,1.2,7.017-0.259C52.096,51.554,45.086,52.448,45.079,53.262z
			 M46.954,53.173c0.004-0.379,3.266-0.795,3.266-0.12C50.22,53.732,46.951,53.52,46.954,53.173z"/>
		<g>
			<path fill="#F07B20" d="M41.115,58.907c-7.952,0-14.399-1.264-14.399-2.822v6.804c0,1.56,6.447,2.823,14.399,2.823
				c7.953,0,14.399-1.264,14.399-2.823v-6.804C55.515,57.644,49.067,58.907,41.115,58.907z"/>
		</g>
	</g>
	<g>
		<path fill="#A4AB18" d="M29.424,38.14v13.18c0,1.56,6.447,2.823,14.399,2.823c7.953,0,14.399-1.264,14.399-2.823V38.14H29.424z"/>
		<ellipse fill="#76770B" cx="43.823" cy="38.14" rx="14.399" ry="2.822"/>
		<path fill="#A4AB18" d="M47.787,38.14c-0.007,0.743,7.017,1.2,7.017-0.259C54.804,36.432,47.794,37.325,47.787,38.14z
			 M49.662,38.051c0.004-0.379,3.266-0.795,3.266-0.12C52.928,38.61,49.659,38.396,49.662,38.051z"/>
		<g>
			<path fill="#F07B20" d="M43.823,43.785c-7.952,0-14.399-1.264-14.399-2.823v6.805c0,1.56,6.447,2.823,14.399,2.823
				c7.953,0,14.399-1.264,14.399-2.823v-6.804C58.223,42.521,51.775,43.785,43.823,43.785z"/>
		</g>
	</g>
</g>
</svg>
