<?xml version="1.0" encoding="utf-8"?>
<!-- Generator: Adobe Illustrator 16.0.0, SVG Export Plug-In . SVG Version: 6.00 Build 0)  -->
<!DOCTYPE svg PUBLIC "-//W3C//DTD SVG 1.1//EN" "http://www.w3.org/Graphics/SVG/1.1/DTD/svg11.dtd">
<svg version="1.1" id="圖層_1" xmlns="http://www.w3.org/2000/svg" xmlns:xlink="http://www.w3.org/1999/xlink" x="0px" y="0px"
	 width="170px" height="106px" viewBox="0 0 170 106" enable-background="new 0 0 170 106" xml:space="preserve">
<g>
	<defs>
		<path id="SVGID_1_" d="M235.615,101.607c0,4.184-3.423,7.607-7.606,7.607H-58.009c-4.184,0-7.606-3.424-7.606-7.607V2.068
			c0-4.184,3.423-7.607,7.606-7.607h286.018c4.184,0,7.606,3.423,7.606,7.607V101.607z"/>
	</defs>
	<clipPath id="SVGID_2_">
		<use xlink:href="#SVGID_1_"  overflow="visible"/>
	</clipPath>
	<g clip-path="url(#SVGID_2_)">
		<linearGradient id="SVGID_4_" gradientUnits="userSpaceOnUse" x1="-80.3652" y1="35.3726" x2="252.3506" y2="35.3726">
			<stop  offset="0" style="stop-color:#FAEFD9"/>
			<stop  offset="0.962" style="stop-color:#FAEFD9"/>
		</linearGradient>
		<path fill="url(#SVGID_4_)" d="M223.297-86.324l-0.59,3.166l-1.235,4.221v3.078c2.386,0.832,4.106,3.076,4.106,5.744
			c0,3.374-2.734,6.107-6.108,6.107c-3.371,0-6.104-2.733-6.104-6.107c0-2.514,1.521-4.671,3.692-5.607v-0.003l0.925-3.824v-5.549
			l-0.428-1.226h-23.918l-0.592,3.166l-1.234,4.221v3.078c2.386,0.832,4.106,3.076,4.106,5.744c0,3.374-2.735,6.107-6.109,6.107
			s-6.108-2.733-6.108-6.107c0-2.514,1.526-4.671,3.696-5.607v-0.003l0.922-3.824v-5.549l-0.423-1.226h-23.92l-0.595,3.166
			l-1.231,4.221v3.078c2.386,0.832,4.106,3.076,4.106,5.744c0,3.374-2.733,6.107-6.107,6.107c-3.376,0-6.109-2.733-6.109-6.107
			c0-2.514,1.521-4.671,3.696-5.607v-0.003l0.921-3.824v-5.549l-0.423-1.226h-23.919l-0.596,3.166l-1.229,4.221v3.078
			c2.381,0.832,4.106,3.076,4.106,5.744c0,3.374-2.735,6.107-6.109,6.107s-6.109-2.733-6.109-6.107c0-2.514,1.522-4.671,3.696-5.607
			v-0.003l0.923-3.824v-5.549l-0.424-1.226h-23.924l-0.59,3.166l-1.231,4.221v3.078c2.381,0.832,4.106,3.076,4.106,5.744
			c0,3.374-2.734,6.107-6.109,6.107c-3.373,0-6.107-2.733-6.107-6.107c0-2.514,1.521-4.671,3.696-5.607l-0.005-0.003l0.926-3.824
			v-5.549l-0.424-1.226H74.986l-0.591,3.166l-1.23,4.221v3.078c2.382,0.832,4.102,3.076,4.102,5.744
			c0,3.374-2.734,6.107-6.104,6.107c-3.374,0-6.108-2.733-6.108-6.107c0-2.514,1.521-4.671,3.691-5.607v-0.003l0.927-3.824v-5.549
			l-0.424-1.226H45.325l-0.591,3.166l-1.235,4.221v3.078c2.387,0.832,4.106,3.076,4.106,5.744c0,3.374-2.734,6.107-6.104,6.107
			c-3.374,0-6.108-2.733-6.108-6.107c0-2.514,1.521-4.671,3.691-5.607v-0.003l0.926-3.824v-5.549l-0.423-1.226H15.664l-0.592,3.166
			l-1.234,4.221v3.078c2.386,0.832,4.105,3.076,4.105,5.744c0,3.374-2.734,6.107-6.108,6.107c-3.369,0-6.104-2.733-6.104-6.107
			c0-2.514,1.522-4.671,3.692-5.607v-0.003l0.926-3.824v-5.549l-0.428-1.226h-23.919l-0.591,3.166l-1.235,4.221v3.078
			c2.387,0.832,4.106,3.076,4.106,5.744c0,3.374-2.734,6.107-6.108,6.107c-3.37,0-6.104-2.733-6.104-6.107
			c0-2.514,1.521-4.671,3.691-5.607v-0.003l0.922-3.824v-5.549l-0.423-1.226h-23.919l-0.591,3.166l-1.235,4.221v3.078
			c2.387,0.832,4.106,3.076,4.106,5.744c0,3.374-2.734,6.107-6.108,6.107s-6.109-2.733-6.109-6.107c0-2.514,1.526-4.671,3.696-5.607
			v-0.003l0.922-3.824v-5.549l-0.424-1.226h-30.963v239.14l2.153,1.459l3.476-1.904l3.471-0.697l3.476-1.072l3.467,2.378
			l3.467-1.766l3.471,0.502l3.458-0.054l3.463,2.001l3.467,2.986l3.467-2.841l3.471,0.36l3.462-2.107l3.468,2.413l3.467-2.841
			l3.462-1.362l3.463,3.087l3.467-3.056l3.457,5.096l3.458,1.57l3.463-3.773l3.462,0.445l3.463-2.734l3.458,0.953l3.453,3.312
			l3.453-1.118l3.454,1.266l3.458-0.434l3.467-0.447l3.457,0.597l3.454-4.681l3.448,3.371l3.463-3.22l3.463,6.192l3.458-0.428
			l3.457-0.325l3.463-2.803l3.458-0.146l3.463-0.961l3.462,2.502l3.457,0.858l3.459-4.472l3.457,2.056l3.458,0.039l3.458,1.046
			l3.463,0.088l3.458-2.837l3.462,1.835l3.458-2.573l3.453,2.278l3.459,2.656l3.452,0.051l3.459-4.625l3.453,0.208l3.458-0.834
			l3.462,1.358l3.463,0.838l3.458-1.932l3.454,1.194l3.457-1.447l3.454,6.497l3.448-1.34l3.454-3.818l3.453,4.298l3.453-0.839
			l3.454-2.354l3.454,0.309l3.457,2.281l3.457-2.194l3.464-0.706l3.457,0.698l3.454-0.102l3.453,1.589l3.454-1.998l3.448-1.103
			l3.454,3.497l3.448,1.048l3.45,0.13l3.443,0.68l3.45-2.453l3.448,0.237l3.454-3.763l3.448,2.725l3.454,2.152l3.455-2.326
			l3.452-0.747l3.458-0.769l3.458,2.699l3.458-2.992l3.454,4.001l3.452-2.643l3.45,4.052l3.448-4.653l3.45,4.096l3.443-3.882
			l3.45,3.086l2.077-0.232V-86.324H223.297z"/>
	</g>
	<g opacity="0.3" clip-path="url(#SVGID_2_)">
		<defs>
			<rect id="SVGID_3_" x="-459.648" y="-332.307" opacity="0.3" width="1141.023" height="760.683"/>
		</defs>
		<clipPath id="SVGID_5_">
			<use xlink:href="#SVGID_3_"  overflow="visible"/>
		</clipPath>
		<g clip-path="url(#SVGID_5_)">
			<path fill-rule="evenodd" clip-rule="evenodd" fill="#3B342A" d="M165.101,8.387c1.299-0.365,1.735-1.18,1.771-2.203
				C165.573,6.549,165.137,7.365,165.101,8.387z"/>
			<path fill-rule="evenodd" clip-rule="evenodd" fill="#3B342A" d="M163.448,3.151c0.396,0.842,0.541,2.163,1.456,2.009
				C164.51,4.316,164.363,2.995,163.448,3.151z"/>
			<path fill-rule="evenodd" clip-rule="evenodd" fill="#3B342A" d="M150.413,61.617c1.316-2.206,3.443,0.41,4.831-1.375
				c-1.824-0.813-3.485-0.663-5.199-0.813C150.886,60.036,149.83,60.964,150.413,61.617z"/>
			<path fill-rule="evenodd" clip-rule="evenodd" fill="#3B342A" d="M169.727,91.031C166.316,89.79,170.401,93.79,169.727,91.031
				L169.727,91.031z"/>
			<path fill-rule="evenodd" clip-rule="evenodd" fill="#3B342A" d="M139.199,97.621C136.709,96.255,139.511,101.237,139.199,97.621
				L139.199,97.621z"/>
			<path fill-rule="evenodd" clip-rule="evenodd" fill="#3B342A" d="M125.646,107.019c0.933,0.125,1.429-1.812,1.391-2.055
				C126.787,103.42,124.886,106.918,125.646,107.019z"/>
			<path fill-rule="evenodd" clip-rule="evenodd" fill="#3B342A" d="M141.261,69.357c0.66-0.658,1.849-1.246,1.391-2.054
				C141.992,67.962,140.801,68.551,141.261,69.357z"/>
			<path fill-rule="evenodd" clip-rule="evenodd" fill="#3B342A" d="M141.181,61.514c0.473,0.804-0.026,2.261,1.43,1.868
				C142.138,62.577,142.637,61.119,141.181,61.514z"/>
			<path fill-rule="evenodd" clip-rule="evenodd" fill="#3B342A" d="M137.442,64.377C134.953,63.007,137.755,67.992,137.442,64.377
				L137.442,64.377z"/>
			<path fill-rule="evenodd" clip-rule="evenodd" fill="#3B342A" d="M125.28,71.72C122.791,70.352,125.593,75.334,125.28,71.72
				L125.28,71.72z"/>
			<path fill-rule="evenodd" clip-rule="evenodd" fill="#3B342A" d="M109.196,79.104c-0.65,0.599-1.664-0.163-1.245,0.954
				C108.438,80.68,109.643,80.004,109.196,79.104z"/>
			<path fill-rule="evenodd" clip-rule="evenodd" fill="#3B342A" d="M146.518,46.553C143.106,45.311,147.191,49.312,146.518,46.553
				L146.518,46.553z"/>
			<path fill-rule="evenodd" clip-rule="evenodd" fill="#3B342A" d="M129.996,57.235C127.506,55.869,130.306,60.852,129.996,57.235
				L129.996,57.235z"/>
			<path fill-rule="evenodd" clip-rule="evenodd" fill="#3B342A" d="M134.022,52.172C133.928,48.93,133.087,55.279,134.022,52.172
				L134.022,52.172z"/>
			<path fill-rule="evenodd" clip-rule="evenodd" fill="#3B342A" d="M150.755,31.446C150.659,28.203,149.818,34.552,150.755,31.446
				L150.755,31.446z"/>
			<path fill-rule="evenodd" clip-rule="evenodd" fill="#3B342A" d="M144.963,32.919C144.868,29.676,144.027,36.022,144.963,32.919
				L144.963,32.919z"/>
			<path fill-rule="evenodd" clip-rule="evenodd" fill="#3B342A" d="M138.114,38.167c-0.659,0.66-1.852,1.248-1.391,2.053
				C137.383,39.563,138.572,38.973,138.114,38.167z"/>
			<path fill-rule="evenodd" clip-rule="evenodd" fill="#3B342A" d="M152.249,24.37c0.66-0.66,1.852-1.248,1.394-2.053
				C152.983,22.975,151.792,23.563,152.249,24.37z"/>
			<path fill-rule="evenodd" clip-rule="evenodd" fill="#3B342A" d="M156.421,18.208C153.013,16.965,157.096,20.968,156.421,18.208
				L156.421,18.208z"/>
			<path fill-rule="evenodd" clip-rule="evenodd" fill="#3B342A" d="M125.103,39.242c-0.425-0.721-0.077-1.955-1.049-1.923
				c-0.128-0.16-0.304-0.348-0.58-0.583c-1.637,0.46-0.329,1.21,0.396,1.234C124.015,38.728,123.965,39.551,125.103,39.242z"/>
			<path fill-rule="evenodd" clip-rule="evenodd" fill="#3B342A" d="M122.134,40.529c-0.787-1.098-1.702-1.23-2.677-0.916
				C120.244,40.711,121.159,40.844,122.134,40.529z"/>
			<path fill-rule="evenodd" clip-rule="evenodd" fill="#3B342A" d="M129.42,31.98C126.012,30.738,130.095,34.739,129.42,31.98
				L129.42,31.98z"/>
			<path fill-rule="evenodd" clip-rule="evenodd" fill="#3B342A" d="M161.615,4.346C158.204,3.106,162.287,7.106,161.615,4.346
				L161.615,4.346z"/>
			<path fill-rule="evenodd" clip-rule="evenodd" fill="#3B342A" d="M137.143,20.133C134.655,18.765,137.455,23.749,137.143,20.133
				L137.143,20.133z"/>
			<path fill-rule="evenodd" clip-rule="evenodd" fill="#3B342A" d="M132.017,25.051c-0.476-0.806,0.027-2.263-1.432-1.869
				C131.061,23.984,130.558,25.443,132.017,25.051z"/>
			<path fill-rule="evenodd" clip-rule="evenodd" fill="#3B342A" d="M97.872,46.27c0.788,1.098,1.706,1.23,2.678,0.914
				C99.763,46.087,98.847,45.955,97.872,46.27z"/>
			<path fill-rule="evenodd" clip-rule="evenodd" fill="#3B342A" d="M151.756,6.958c0.036-0.04-0.481-0.548-0.476-0.621
				C151.646,0.691,149.171,9.777,151.756,6.958z"/>
			<path fill-rule="evenodd" clip-rule="evenodd" fill="#3B342A" d="M112.673,35.92c-0.65,0.597-1.664-0.163-1.245,0.954
				C111.915,37.495,113.119,36.82,112.673,35.92z"/>
			<path fill-rule="evenodd" clip-rule="evenodd" fill="#3B342A" d="M100.841,44.984c0.66-0.66,1.852-1.248,1.391-2.055
				C101.575,43.589,100.384,44.178,100.841,44.984z"/>
			<path fill-rule="evenodd" clip-rule="evenodd" fill="#3B342A" d="M112.011,32.473c-0.651,0.6-1.664-0.162-1.245,0.954
				C111.253,34.051,112.456,33.374,112.011,32.473z"/>
			<path fill-rule="evenodd" clip-rule="evenodd" fill="#3B342A" d="M149.807,0.545C146.396-0.695,150.481,3.306,149.807,0.545
				L149.807,0.545z"/>
			<path fill-rule="evenodd" clip-rule="evenodd" fill="#3B342A" d="M145.7-2.236c-0.321-0.116-0.556-0.175-0.755-0.208
				c-0.023-0.051-0.041-0.052-0.047-0.009c-0.979-0.146-0.503,0.639,0.064,1.016c-0.115,1.221-1.542,4.39,0.776,2.9
				c0.018-0.458-0.229-1.753-0.461-2.74C145.638-1.165,145.917-1.348,145.7-2.236z"/>
			<path fill-rule="evenodd" clip-rule="evenodd" fill="#3B342A" d="M127.043-0.789c-0.651,0.601-1.664-0.163-1.245,0.954
				C126.285,0.789,127.488,0.113,127.043-0.789z"/>
			<path fill-rule="evenodd" clip-rule="evenodd" fill="#3B342A" d="M140.801,85.523c-0.621-0.908-1.965-2.276-1.578-0.767
				C139.722,87.107,143.323,85.006,140.801,85.523z"/>
			<path fill-rule="evenodd" clip-rule="evenodd" fill="#3B342A" d="M160.313,60.688c-0.562-0.581,1.721-3.319-0.812-2.346
				C160.524,58.986,158.242,61.722,160.313,60.688z"/>
			<path fill-rule="evenodd" clip-rule="evenodd" fill="#3B342A" d="M121.917,80.227c-0.835-0.975-1.04-3.503-0.954-1.245
				C118.963,79.58,123.513,82.686,121.917,80.227z"/>
			<path fill-rule="evenodd" clip-rule="evenodd" fill="#3B342A" d="M119.386,78.214c-0.758,0.728-3.818-1.091-2.969,1.286
				C117.175,78.773,120.339,79.818,119.386,78.214z"/>
			<path fill-rule="evenodd" clip-rule="evenodd" fill="#3B342A" d="M133.942,44.329c0.442,0.853-0.398,0.912-1.245,0.954
				c1.066,0.884,0.297,2.305,1.43,1.868C133.375,46.39,137.113,43.582,133.942,44.329z"/>
			<path fill-rule="evenodd" clip-rule="evenodd" fill="#3B342A" d="M132.703,15.628c-0.695-1.025,1.216-1.704-0.184-2.823
				C130.813,13.242,131.731,16.665,132.703,15.628z"/>
			<path fill-rule="evenodd" clip-rule="evenodd" fill="#3B342A" d="M168.768,16.714C165.689,15.698,171.37,18.651,168.768,16.714
				L168.768,16.714z"/>
			<path fill-rule="evenodd" clip-rule="evenodd" fill="#3B342A" d="M148.259,11.67C146.122,13.545,151.762,12.612,148.259,11.67
				L148.259,11.67z"/>
			<path fill-rule="evenodd" clip-rule="evenodd" fill="#3B342A" d="M159.945,56.518C156.867,55.5,162.545,58.455,159.945,56.518
				L159.945,56.518z"/>
			<path fill-rule="evenodd" clip-rule="evenodd" fill="#3B342A" d="M145.891,51.082C142.812,50.065,148.49,53.021,145.891,51.082
				L145.891,51.082z"/>
			<path fill-rule="evenodd" clip-rule="evenodd" fill="#3B342A" d="M128.611-1.047c0.342,0.814-0.719,1.506,0.473,1.495
				C129.836,0.201,129.613-1.16,128.611-1.047z"/>
			<path fill-rule="evenodd" clip-rule="evenodd" fill="#3B342A" d="M143.763,59.979c0.157,1.125-0.835,1.651-0.787,2.717
				C144.723,62.866,145.721,59.696,143.763,59.979z"/>
			<path fill-rule="evenodd" clip-rule="evenodd" fill="#3B342A" d="M144.942,63.721C142.613,66.502,147.766,64.028,144.942,63.721
				L144.942,63.721z"/>
			<path fill-rule="evenodd" clip-rule="evenodd" fill="#3B342A" d="M142.699,80.059c0.749-0.246,0.525-1.607-0.473-1.496
				C142.565,79.379,141.505,80.07,142.699,80.059z"/>
			<path fill-rule="evenodd" clip-rule="evenodd" fill="#3B342A" d="M122.506,39.542C119.424,38.527,125.105,41.482,122.506,39.542
				L122.506,39.542z"/>
			<path fill-rule="evenodd" clip-rule="evenodd" fill="#3B342A" d="M116.56,38.951c0.074-0.527,0.951-3.466-0.945-2.992
				C116.771,37.126,114.164,39.168,116.56,38.951z"/>
			<path fill-rule="evenodd" clip-rule="evenodd" fill="#3B342A" d="M116.521,41.432c0.752-0.247,0.526-1.608-0.472-1.496
				C116.387,40.751,115.329,41.444,116.521,41.432z"/>
			<path fill-rule="evenodd" clip-rule="evenodd" fill="#3B342A" d="M135.176,100.53C132.094,99.516,137.775,102.471,135.176,100.53
				L135.176,100.53z"/>
			<path fill-rule="evenodd" clip-rule="evenodd" fill="#3B342A" d="M121.005,71.275c-0.396-0.843-0.544-2.163-1.456-2.007
				C119.944,70.11,120.09,71.432,121.005,71.275z"/>
			<path fill-rule="evenodd" clip-rule="evenodd" fill="#3B342A" d="M129.033,96.712c-0.395-0.844-0.543-2.164-1.456-2.009
				C127.973,95.548,128.118,96.867,129.033,96.712z"/>
			<path fill-rule="evenodd" clip-rule="evenodd" fill="#3B342A" d="M118.09,67.26c-0.396-0.843-0.541-2.164-1.456-2.007
				C117.029,66.095,117.178,67.416,118.09,67.26z"/>
			<path fill-rule="evenodd" clip-rule="evenodd" fill="#3B342A" d="M124.662,90.688C122.333,93.471,127.485,90.995,124.662,90.688
				L124.662,90.688z"/>
			<path fill-rule="evenodd" clip-rule="evenodd" fill="#3B342A" d="M104.395,39.5C102.065,42.283,107.218,39.81,104.395,39.5
				L104.395,39.5z"/>
			<path fill-rule="evenodd" clip-rule="evenodd" fill="#3B342A" d="M113.404,81.078C111.074,83.86,116.227,81.387,113.404,81.078
				L113.404,81.078z"/>
			<path fill-rule="evenodd" clip-rule="evenodd" fill="#3B342A" d="M106.24,63.597c0.172,0.917-0.797,2.116,0.71,2.244
				C106.778,64.922,107.746,63.725,106.24,63.597z"/>
			<path fill-rule="evenodd" clip-rule="evenodd" fill="#3B342A" d="M99.747,50.839c-1.363,0.544-2.344,1.281-2.522,2.441
				C98.999,52.951,99.982,52.212,99.747,50.839z"/>
			<path fill-rule="evenodd" clip-rule="evenodd" fill="#3B342A" d="M112.498,91.236c-0.027-0.048-0.681,0.266-0.749,0.235
				C106.566,89.202,114.266,94.629,112.498,91.236z"/>
			<path fill-rule="evenodd" clip-rule="evenodd" fill="#3B342A" d="M97.819,47.334c-0.5,0.158-0.999,0.315-1.498,0.473
				c0.238,0.749,0.473,1.496,0.71,2.245C98.404,49.724,98.547,48.756,97.819,47.334z"/>
			<path fill-rule="evenodd" clip-rule="evenodd" fill="#3B342A" d="M105.803,90.881C103.474,93.663,108.629,91.188,105.803,90.881
				L105.803,90.881z"/>
			<path fill-rule="evenodd" clip-rule="evenodd" fill="#3B342A" d="M101.789,93.794C99.459,96.577,104.611,94.102,101.789,93.794
				L101.789,93.794z"/>
			<path fill-rule="evenodd" clip-rule="evenodd" fill="#3B342A" d="M74.555,12.724C72.224,15.506,77.378,13.031,74.555,12.724
				L74.555,12.724z"/>
			<path fill-rule="evenodd" clip-rule="evenodd" fill="#3B342A" d="M81.991,44.105C82.941,39.874,78.965,43.068,81.991,44.105
				L81.991,44.105z"/>
			<path fill-rule="evenodd" clip-rule="evenodd" fill="#3B342A" d="M71.325,12.921C68.244,11.905,73.925,14.858,71.325,12.921
				L71.325,12.921z"/>
			<path fill-rule="evenodd" clip-rule="evenodd" fill="#3B342A" d="M73.922,21.149C74.874,16.918,70.897,20.112,73.922,21.149
				L73.922,21.149z"/>
			<path fill-rule="evenodd" clip-rule="evenodd" fill="#3B342A" d="M69.12,11.149C65.883,9.673,67.726,14.63,69.12,11.149
				L69.12,11.149z"/>
			<path fill-rule="evenodd" clip-rule="evenodd" fill="#3B342A" d="M74.984,32.331c0.752-0.247,0.527-1.607-0.473-1.495
				C74.854,31.65,73.793,32.342,74.984,32.331z"/>
			<path fill-rule="evenodd" clip-rule="evenodd" fill="#3B342A" d="M67.504,34.693c1.9-0.498,2.793,0.688,2.756-1.694
				C69.182,33.48,67.415,33.605,67.504,34.693z"/>
			<path fill-rule="evenodd" clip-rule="evenodd" fill="#3B342A" d="M60.93,26.896C58.795,28.77,64.435,27.838,60.93,26.896
				L60.93,26.896z"/>
			<path fill-rule="evenodd" clip-rule="evenodd" fill="#3B342A" d="M63.095,31.148c-0.396-0.842-0.543-2.163-1.456-2.009
				C62.032,29.983,62.179,31.305,63.095,31.148z"/>
			<path fill-rule="evenodd" clip-rule="evenodd" fill="#3B342A" d="M72.416,99.774C70.086,102.557,75.238,100.083,72.416,99.774
				L72.416,99.774z"/>
			<path fill-rule="evenodd" clip-rule="evenodd" fill="#3B342A" d="M42.857,24.373C40.528,27.157,45.682,24.682,42.857,24.373
				L42.857,24.373z"/>
			<path fill-rule="evenodd" clip-rule="evenodd" fill="#3B342A" d="M96.637,59.225c-1.325-2.793-3.89,2.372-2.521,2.441
				C94.146,59.401,97.332,62.257,96.637,59.225z"/>
			<path fill-rule="evenodd" clip-rule="evenodd" fill="#3B342A" d="M78.173,34.616c-1.818-0.346-1.84-0.306-0.511,0.983
				C75.757,37.121,79.062,36.045,78.173,34.616z"/>
			<path fill-rule="evenodd" clip-rule="evenodd" fill="#3B342A" d="M162.786,8.155c-0.051-0.021-0.339,0.647-0.407,0.668
				C156.982,10.528,166.349,9.544,162.786,8.155z"/>
			<path fill-rule="evenodd" clip-rule="evenodd" fill="#3B342A" d="M164.245,11.795c0.793,0.39,0.451,1.611,1.34,0.816
				C165.989,11.93,164.922,11.052,164.245,11.795z"/>
			<path fill-rule="evenodd" clip-rule="evenodd" fill="#3B342A" d="M163.808,17.04C163.437,19.856,167.067,15.441,163.808,17.04
				L163.808,17.04z"/>
			<path fill-rule="evenodd" clip-rule="evenodd" fill="#3B342A" d="M137.377,4.643C134.391,5.906,140.61,4.39,137.377,4.643
				L137.377,4.643z"/>
			<path fill-rule="evenodd" clip-rule="evenodd" fill="#3B342A" d="M166.702,28.896c-0.74,1.132-0.532,2.033,0.116,2.826
				C167.555,30.591,167.347,29.69,166.702,28.896z"/>
			<path fill-rule="evenodd" clip-rule="evenodd" fill="#3B342A" d="M137.85,15.946C134.863,17.209,141.083,15.693,137.85,15.946
				L137.85,15.946z"/>
			<path fill-rule="evenodd" clip-rule="evenodd" fill="#3B342A" d="M150.704,26.516c-0.853-0.375-1.833-1.272-2.419-0.551
				C149.139,26.337,150.119,27.234,150.704,26.516z"/>
			<path fill-rule="evenodd" clip-rule="evenodd" fill="#3B342A" d="M89.771,1.405C89.397,4.221,93.026-0.198,89.771,1.405
				L89.771,1.405z"/>
			<path fill-rule="evenodd" clip-rule="evenodd" fill="#3B342A" d="M167.092,53.922C167.172,57.55,169.418,52.295,167.092,53.922
				L167.092,53.922z"/>
			<path fill-rule="evenodd" clip-rule="evenodd" fill="#3B342A" d="M143.894,40.738C140.907,42.001,147.127,40.484,143.894,40.738
				L143.894,40.738z"/>
			<path fill-rule="evenodd" clip-rule="evenodd" fill="#3B342A" d="M88.521,7.99C85.534,9.254,91.754,7.736,88.521,7.99
				L88.521,7.99z"/>
			<path fill-rule="evenodd" clip-rule="evenodd" fill="#3B342A" d="M157.42,51.714c-0.74,1.131-0.529,2.031,0.115,2.826
				C158.272,53.408,158.064,52.508,157.42,51.714z"/>
			<path fill-rule="evenodd" clip-rule="evenodd" fill="#3B342A" d="M161.704,55.236c0.401-0.679-0.662-1.557-1.34-0.814
				C161.154,54.811,160.812,56.031,161.704,55.236z"/>
			<path fill-rule="evenodd" clip-rule="evenodd" fill="#3B342A" d="M69.764,17.699C69.391,20.516,73.021,16.101,69.764,17.699
				L69.764,17.699z"/>
			<path fill-rule="evenodd" clip-rule="evenodd" fill="#3B342A" d="M108.088,43.757C105.102,45.02,111.321,43.504,108.088,43.757
				L108.088,43.757z"/>
			<path fill-rule="evenodd" clip-rule="evenodd" fill="#3B342A" d="M18.596,2.199c-0.738,1.131-0.528,2.033,0.117,2.828
				C19.45,3.894,19.24,2.994,18.596,2.199z"/>
			<path fill-rule="evenodd" clip-rule="evenodd" fill="#3B342A" d="M94.779,49.054c0.407,0.484,0.734,0.708,0.095-0.51
				c-1.248-1.196-0.739-0.308-0.22,0.355c-0.151-0.009-0.371-0.004-0.722,0.022C91.853,49.801,94.232,49.333,94.779,49.054z"/>
			<path fill-rule="evenodd" clip-rule="evenodd" fill="#3B342A" d="M27.834,9.653C26.814,6.245,24.295,10.896,27.834,9.653
				L27.834,9.653z"/>
			<path fill-rule="evenodd" clip-rule="evenodd" fill="#3B342A" d="M46.853,20.873c-0.511-0.437-0.453-0.208-0.219,0.167
				c-0.009,0.012-0.021,0.015-0.031,0.025c0.036,0.016,0.059,0.043,0.09,0.064c0.138,0.209,0.313,0.443,0.477,0.633
				c0.153,0.351,0.25,0.587,0.775,0.119C48.301,21.277,47.509,20.526,46.853,20.873z"/>
			<path fill-rule="evenodd" clip-rule="evenodd" fill="#3B342A" d="M154.787,87.755c0.853,0.374,1.83,1.271,2.418,0.553
				C156.353,87.932,155.372,87.034,154.787,87.755z"/>
			<path fill-rule="evenodd" clip-rule="evenodd" fill="#3B342A" d="M12.942,2.435C12.57,5.25,16.199,0.836,12.942,2.435
				L12.942,2.435z"/>
			<path fill-rule="evenodd" clip-rule="evenodd" fill="#3B342A" d="M98.19,57.019c0.858,0.741,0.458,1.79,1.194,2.563
				C100.814,58.558,99.478,55.515,98.19,57.019z"/>
			<path fill-rule="evenodd" clip-rule="evenodd" fill="#3B342A" d="M101.542,59.056C101.619,62.684,103.869,57.429,101.542,59.056
				L101.542,59.056z"/>
			<path fill-rule="evenodd" clip-rule="evenodd" fill="#3B342A" d="M151.144,89.214c-0.576,0.732-2.115,0.793-1.221,2.01
				C150.499,90.491,152.041,90.429,151.144,89.214z"/>
			<path fill-rule="evenodd" clip-rule="evenodd" fill="#3B342A" d="M153.946,93.67C153.571,96.485,157.202,92.069,153.946,93.67
				L153.946,93.67z"/>
			<path fill-rule="evenodd" clip-rule="evenodd" fill="#3B342A" d="M165.938,102.052c0.012-0.132,0.012-0.299-0.015-0.532
				c-0.737,0.329-2.535-2.748-2.481-0.038c0.559-0.434,1.399,0.437,1.952,0.777c-0.068,0.03-0.121,0.049-0.199,0.087
				C164.857,104.89,167.771,101.545,165.938,102.052z"/>
			<path fill-rule="evenodd" clip-rule="evenodd" fill="#3B342A" d="M30.726,21.509C30.248,25.942,33.86,20.255,30.726,21.509
				L30.726,21.509z"/>
			<path fill-rule="evenodd" clip-rule="evenodd" fill="#3B342A" d="M134.043,91.668C134.123,95.298,136.373,90.041,134.043,91.668
				L134.043,91.668z"/>
			<path fill-rule="evenodd" clip-rule="evenodd" fill="#3B342A" d="M149.988,103.199
				C149.613,106.015,153.244,101.599,149.988,103.199L149.988,103.199z"/>
			<path fill-rule="evenodd" clip-rule="evenodd" fill="#3B342A" d="M11.902,19.248C8.493,20.267,13.146,22.785,11.902,19.248
				L11.902,19.248z"/>
			<path fill-rule="evenodd" clip-rule="evenodd" fill="#3B342A" d="M68.734,55.635C65.748,56.9,71.969,55.383,68.734,55.635
				L68.734,55.635z"/>
			<path fill-rule="evenodd" clip-rule="evenodd" fill="#3B342A" d="M143.811,101.279
				C140.821,102.544,147.043,101.026,143.811,101.279L143.811,101.279z"/>
			<path fill-rule="evenodd" clip-rule="evenodd" fill="#3B342A" d="M63.871,59.104c-0.292-0.446-1.567-3.236-2.682-1.63
				C62.828,57.594,62.209,60.844,63.871,59.104z"/>
			<path fill-rule="evenodd" clip-rule="evenodd" fill="#3B342A" d="M65.475,60.997c0.402-0.68-0.663-1.557-1.34-0.814
				C64.926,60.572,64.586,61.791,65.475,60.997z"/>
			<path fill-rule="evenodd" clip-rule="evenodd" fill="#3B342A" d="M118.429,93.192C115.442,94.457,121.661,92.94,118.429,93.192
				L118.429,93.192z"/>
			<path fill-rule="evenodd" clip-rule="evenodd" fill="#3B342A" d="M121.899,98.056C118.91,99.321,125.132,97.805,121.899,98.056
				L121.899,98.056z"/>
			<path fill-rule="evenodd" clip-rule="evenodd" fill="#3B342A" d="M131.689,103.092c-0.853-0.376-1.833-1.273-2.418-0.553
				C130.124,102.913,131.104,103.811,131.689,103.092z"/>
			<path fill-rule="evenodd" clip-rule="evenodd" fill="#3B342A" d="M88.501,80.506c-0.853-0.374-1.833-1.271-2.418-0.553
				C86.936,80.328,87.916,81.226,88.501,80.506z"/>
			<path fill-rule="evenodd" clip-rule="evenodd" fill="#3B342A" d="M111.291,94.361c-0.853-0.374-1.833-1.271-2.418-0.552
				C109.726,94.184,110.706,95.081,111.291,94.361z"/>
			<path fill-rule="evenodd" clip-rule="evenodd" fill="#3B342A" d="M83.664,79.402c-0.853-0.375-1.832-1.273-2.419-0.553
				C82.098,79.224,83.078,80.121,83.664,79.402z"/>
			<path fill-rule="evenodd" clip-rule="evenodd" fill="#3B342A" d="M104.035,92.705C104.115,96.333,106.365,91.078,104.035,92.705
				L104.035,92.705z"/>
			<path fill-rule="evenodd" clip-rule="evenodd" fill="#3B342A" d="M55.076,67.53C55.156,71.156,57.404,65.901,55.076,67.53
				L55.076,67.53z"/>
			<path fill-rule="evenodd" clip-rule="evenodd" fill="#3B342A" d="M16.463,44.969c-0.669,1.306-0.922,2.51-0.29,3.498
				C17.288,47.052,17.543,45.849,16.463,44.969z"/>
			<path fill-rule="evenodd" clip-rule="evenodd" fill="#3B342A" d="M89.235,92.888C89.315,96.515,91.564,91.26,89.235,92.888
				L89.235,92.888z"/>
			<path fill-rule="evenodd" clip-rule="evenodd" fill="#3B342A" d="M72.334,84.447c0.734,0.578,0.793,2.117,2.01,1.223
				C73.611,85.091,73.551,83.554,72.334,84.447z"/>
			<path fill-rule="evenodd" clip-rule="evenodd" fill="#3B342A" d="M58.756,82.619c1.116-1.415,1.371-2.618,0.29-3.496
				C58.377,80.429,58.123,81.631,58.756,82.619z"/>
			<path fill-rule="evenodd" clip-rule="evenodd" fill="#3B342A" d="M95.243,101.129c-0.054-0.019-0.339,0.649-0.407,0.67
				C89.438,103.503,98.806,102.519,95.243,101.129z"/>
			<path fill-rule="evenodd" clip-rule="evenodd" fill="#3B342A" d="M56.481,80.319c0.818-1.151,0.288-1.974-1.196-2.564
				c-0.271,0.448-0.544,0.895-0.813,1.341C55.142,79.503,55.812,79.912,56.481,80.319z"/>
			<path fill-rule="evenodd" clip-rule="evenodd" fill="#3B342A" d="M89.971,105.27C90.05,108.898,92.298,103.642,89.971,105.27
				L89.971,105.27z"/>
			<path fill-rule="evenodd" clip-rule="evenodd" fill="#3B342A" d="M14.987,67.024C15.065,70.654,17.315,65.397,14.987,67.024
				L14.987,67.024z"/>
			<path fill-rule="evenodd" clip-rule="evenodd" fill="#3B342A" d="M41.247,85.746C39.178,81.936,38.286,86.959,41.247,85.746
				L41.247,85.746z"/>
			<path fill-rule="evenodd" clip-rule="evenodd" fill="#3B342A" d="M73.015,105.977c-0.387-0.285-0.732-0.58-0.264-1.076
				c0.612,0.164,1.335,0.785,1.749,0.146c-1.072-0.497-2.328-1.746-3.089-0.962C72.144,104.425,71.01,107.802,73.015,105.977z"/>
			<path fill-rule="evenodd" clip-rule="evenodd" fill="#3B342A" d="M12.688,69.3C9.699,70.565,15.92,69.047,12.688,69.3
				L12.688,69.3z"/>
			<path fill-rule="evenodd" clip-rule="evenodd" fill="#3B342A" d="M20.06,73.782C17.989,69.971,17.1,74.994,20.06,73.782
				L20.06,73.782z"/>
			<path fill-rule="evenodd" clip-rule="evenodd" fill="#3B342A" d="M9.86,69.418C6.452,70.438,11.104,72.957,9.86,69.418
				L9.86,69.418z"/>
			<path fill-rule="evenodd" clip-rule="evenodd" fill="#3B342A" d="M25.106,85.113c-0.495,1.072-1.743,2.328-0.96,3.089
				C25.25,86.575,26.702,86.881,25.106,85.113z"/>
			<path fill-rule="evenodd" clip-rule="evenodd" fill="#3B342A" d="M14.066,86.663C13.691,89.479,17.322,85.064,14.066,86.663
				L14.066,86.663z"/>
			<path fill-rule="evenodd" clip-rule="evenodd" fill="#3B342A" d="M18.495,88.438c-0.854-0.375-1.834-1.273-2.419-0.553
				C16.929,88.26,17.908,89.157,18.495,88.438z"/>
			<path fill-rule="evenodd" clip-rule="evenodd" fill="#3B342A" d="M165.739,31.986c-0.553,1.908-4.742,0.469-3.378,2.536
				C163.092,33.336,167.306,34.868,165.739,31.986z"/>
			<path fill-rule="evenodd" clip-rule="evenodd" fill="#3B342A" d="M142.221,73.688c-0.339,0.733-3.717-0.4-1.893,1.604
				C140.557,74.108,143.936,75.245,142.221,73.688z"/>
			<path fill-rule="evenodd" clip-rule="evenodd" fill="#3B342A" d="M137.867,105.012c0.438-1.315,2.042-1.114,1.225-2.011
				c-0.439,0.978-4.409-1.49-2.564,1.194C137.16,103.474,137.523,104.235,137.867,105.012z"/>
			<path fill-rule="evenodd" clip-rule="evenodd" fill="#3B342A" d="M62.226,87.483c-2.837-1.23-1.366,4.346-0.29,3.495
				C60.468,89.256,64.745,89.306,62.226,87.483z"/>
			<path fill-rule="evenodd" clip-rule="evenodd" fill="#3B342A" d="M32.747,82.585c0.073-0.124,0.145-0.278,0.207-0.51
				c-0.06-0.068-0.104-0.11-0.159-0.168c-0.051-0.342-0.233-0.657-0.669-0.789c-1.408,0.826-1.562,0.958-0.313,1.043
				c0.111,0.321,0.299,0.616,0.509,0.685C32.331,83.355,32.615,83.067,32.747,82.585z"/>
			<path fill-rule="evenodd" clip-rule="evenodd" fill="#3B342A" d="M131.446,92.525c-2.564-0.151-1.222-3.246-3.446-3.654
				c0.118,1.993,1.019,3.398,1.672,4.988C129.824,92.835,131.135,93.343,131.446,92.525z"/>
			<path fill-rule="evenodd" clip-rule="evenodd" fill="#3B342A" d="M132.879,20.634c0.106-0.78,0.761-0.837,0.995-1.444
				C132.923,16.891,131.107,19.959,132.879,20.634z"/>
			<path fill-rule="evenodd" clip-rule="evenodd" fill="#3B342A" d="M111.88,68.374c-0.003-0.056-0.729-0.054-0.775-0.11
				C107.408,63.98,112.011,72.196,111.88,68.374z"/>
			<path fill-rule="evenodd" clip-rule="evenodd" fill="#3B342A" d="M109.58,72.278c0.395,0.488,0.294,1.211,1.031,0.553
				c0.329-0.561-0.333-1.239-0.957-1.052c-0.039-0.264-0.202-0.51-0.544-0.627c-0.045,0.882-1.299,1.049-0.22,1.553
				C109.212,72.746,109.458,72.547,109.58,72.278z"/>
			<path fill-rule="evenodd" clip-rule="evenodd" fill="#3B342A" d="M108.944,38.646C106.605,36.401,110.456,41.517,108.944,38.646
				L108.944,38.646z"/>
			<path fill-rule="evenodd" clip-rule="evenodd" fill="#3B342A" d="M104.121,72.823C101.388,73.593,106.879,75.185,104.121,72.823
				L104.121,72.823z"/>
			<path fill-rule="evenodd" clip-rule="evenodd" fill="#3B342A" d="M111.778,7.356C108.475,8.861,114.191,8.851,111.778,7.356
				L111.778,7.356z"/>
			<path fill-rule="evenodd" clip-rule="evenodd" fill="#3B342A" d="M105.072,43.644C102.73,41.399,106.579,46.515,105.072,43.644
				L105.072,43.644z"/>
			<path fill-rule="evenodd" clip-rule="evenodd" fill="#3B342A" d="M107.016,13.022c-0.042,0.882-1.299,1.049-0.217,1.552
				C107.583,14.677,107.967,13.352,107.016,13.022z"/>
			<path fill-rule="evenodd" clip-rule="evenodd" fill="#3B342A" d="M94.11,80.548c0.062,0,0.125-0.002,0.196-0.022
				c-0.023-0.054-0.041-0.116-0.065-0.172c0.042-0.067,0.093-0.119,0.131-0.19c-0.077-0.014-0.134,0-0.205-0.008
				c-0.374-1.069-0.579-2.466-1.551-2.386c0.33,0.736-2.748,2.531-0.039,2.479c-0.104-0.47-0.169-0.92,0.512-0.983
				c0.166,0.251,0.288,0.596,0.445,0.864c-0.823,0.087-1.349,0.562-1.715,1.257C92.94,81.582,93.632,81.206,94.11,80.548z"/>
			<path fill-rule="evenodd" clip-rule="evenodd" fill="#3B342A" d="M89.791,62.086c-0.006,0.931-0.444,2.187,0.448,2.441
				C90.247,63.596,90.684,62.34,89.791,62.086z"/>
			<path fill-rule="evenodd" clip-rule="evenodd" fill="#3B342A" d="M71.534,90.408C68.231,91.913,73.947,91.903,71.534,90.408
				L71.534,90.408z"/>
			<path fill-rule="evenodd" clip-rule="evenodd" fill="#3B342A" d="M74.483,63.887C72.144,61.642,75.995,66.758,74.483,63.887
				L74.483,63.887z"/>
			<path fill-rule="evenodd" clip-rule="evenodd" fill="#3B342A" d="M82.698,0.082C80.358-2.162,84.208,2.952,82.698,0.082
				L82.698,0.082z"/>
			<path fill-rule="evenodd" clip-rule="evenodd" fill="#3B342A" d="M67.193,81.873c1.33,0.23,2.075-0.318,2.55-1.226
				C68.412,80.417,67.666,80.964,67.193,81.873z"/>
			<path fill-rule="evenodd" clip-rule="evenodd" fill="#3B342A" d="M68.418,84.423c-0.045,0.881-1.301,1.049-0.219,1.552
				C68.982,86.077,69.367,84.752,68.418,84.423z"/>
			<path fill-rule="evenodd" clip-rule="evenodd" fill="#3B342A" d="M57.569,32.187C55.229,29.941,59.078,35.055,57.569,32.187
				L57.569,32.187z"/>
			<path fill-rule="evenodd" clip-rule="evenodd" fill="#3B342A" d="M36.04,94.904c0.009-0.932,0.445-2.186-0.447-2.439
				C35.585,93.396,35.146,94.65,36.04,94.904z"/>
			<path fill-rule="evenodd" clip-rule="evenodd" fill="#3B342A" d="M41.476,28.33c-0.342,1.083-1.465,1.13-1.884,2.111
				C41.097,31.349,43.365,28.919,41.476,28.33z"/>
			<path fill-rule="evenodd" clip-rule="evenodd" fill="#3B342A" d="M40.928,32.215C37.625,33.718,43.342,33.709,40.928,32.215
				L40.928,32.215z"/>
			<path fill-rule="evenodd" clip-rule="evenodd" fill="#3B342A" d="M29.826,94.027C27.091,94.796,32.582,96.389,29.826,94.027
				L29.826,94.027z"/>
			<path fill-rule="evenodd" clip-rule="evenodd" fill="#3B342A" d="M31.854,45.986c0.783,0.101,1.168-1.223,0.22-1.554
				C32.028,45.315,30.772,45.482,31.854,45.986z"/>
			<path fill-rule="evenodd" clip-rule="evenodd" fill="#3B342A" d="M23.804,74.955C20.501,76.461,26.218,76.45,23.804,74.955
				L23.804,74.955z"/>
			<path fill-rule="evenodd" clip-rule="evenodd" fill="#3B342A" d="M19.508,94.155C16.774,94.925,22.266,96.516,19.508,94.155
				L19.508,94.155z"/>
			<path fill-rule="evenodd" clip-rule="evenodd" fill="#3B342A" d="M31.111,0.724C28.77-1.523,32.621,3.594,31.111,0.724
				L31.111,0.724z"/>
			<path fill-rule="evenodd" clip-rule="evenodd" fill="#3B342A" d="M18.832,87.723C16.49,85.478,20.342,90.593,18.832,87.723
				L18.832,87.723z"/>
			<path fill-rule="evenodd" clip-rule="evenodd" fill="#3B342A" d="M16.236,61.211C13.896,58.966,17.746,64.082,16.236,61.211
				L16.236,61.211z"/>
			<path fill-rule="evenodd" clip-rule="evenodd" fill="#3B342A" d="M13.139,66.319C10.796,64.074,14.646,69.189,13.139,66.319
				L13.139,66.319z"/>
			<path fill-rule="evenodd" clip-rule="evenodd" fill="#3B342A" d="M11.933,74.865c-0.008,0.93-0.446,2.186,0.447,2.439
				C12.389,76.373,12.825,75.117,11.933,74.865z"/>
			<path fill-rule="evenodd" clip-rule="evenodd" fill="#3B342A" d="M16.07,28.706c0.007-0.932,0.444-2.187-0.446-2.44
				C15.615,27.196,15.179,28.451,16.07,28.706z"/>
			<path fill-rule="evenodd" clip-rule="evenodd" fill="#3B342A" d="M12.343,55.115c0.007-0.932,0.444-2.186-0.447-2.439
				C11.888,53.607,11.449,54.861,12.343,55.115z"/>
			<path fill-rule="evenodd" clip-rule="evenodd" fill="#3B342A" d="M15.174,23.826c0.008-0.933,0.446-2.187-0.448-2.441
				C14.72,22.317,14.283,23.571,15.174,23.826z"/>
			<path fill-rule="evenodd" clip-rule="evenodd" fill="#3B342A" d="M10.998,47.795C7.696,49.302,13.414,49.292,10.998,47.795
				L10.998,47.795z"/>
			<path fill-rule="evenodd" clip-rule="evenodd" fill="#3B342A" d="M3.406,84.752c-0.902-0.242-1.566-1.631-2.33-0.328
				C1.979,84.665,2.643,86.056,3.406,84.752z"/>
			<path fill-rule="evenodd" clip-rule="evenodd" fill="#3B342A" d="M1.396,76.547C-1.907,78.052,3.811,78.041,1.396,76.547
				L1.396,76.547z"/>
			<path fill-rule="evenodd" clip-rule="evenodd" fill="#3B342A" d="M4.985,34.271C1.684,35.777,7.399,35.767,4.985,34.271
				L4.985,34.271z"/>
			<path fill-rule="evenodd" clip-rule="evenodd" fill="#3B342A" d="M6.063,15.408c-0.24,0.903-1.631,1.566-0.328,2.331
				C5.978,16.837,7.367,16.173,6.063,15.408z"/>
			<path fill-rule="evenodd" clip-rule="evenodd" fill="#3B342A" d="M2.381,2.212c1.74,0.466,2.947,0.226,3.326-1.114
				C4.244,1,3.039,1.242,2.381,2.212z"/>
			<path fill-rule="evenodd" clip-rule="evenodd" fill="#3B342A" d="M129.598,49.484c-0.021,0.807-3.571,1.098-1.104,2.22
				C128.234,50.527,131.788,50.236,129.598,49.484z"/>
			<path fill-rule="evenodd" clip-rule="evenodd" fill="#3B342A" d="M117.442,12.116c2.558-1.687,3.536,2.548,5.438,0.768
				c-1.353-0.831-2.995-1.449-3.554-2.878C118.984,11.088,117.861,11.135,117.442,12.116z"/>
			<path fill-rule="evenodd" clip-rule="evenodd" fill="#3B342A" d="M113.953,48.067c-0.608,0.556-5.199,0.29-2.659,2.002
				C112.203,49.724,116.135,46.766,113.953,48.067z"/>
			<path fill-rule="evenodd" clip-rule="evenodd" fill="#3B342A" d="M91.154,80.5c-1.973,0.247-2.306-4.173-3.666-2.101
				C88.865,78.6,89.124,83.078,91.154,80.5z"/>
			<path fill-rule="evenodd" clip-rule="evenodd" fill="#3B342A" d="M94.568,0.172c-1.277-0.108-3.194-1.77-1.551-0.218
				C92.01,1.783,97.43,0.81,94.568,0.172z"/>
			<path fill-rule="evenodd" clip-rule="evenodd" fill="#3B342A" d="M43.552,75.365c-0.255-0.006-0.458-0.365-0.652-0.773
				c0.191-0.153,0.312-0.35,0.285-0.638c-0.157,0.06-0.331,0.108-0.509,0.157c-0.346-0.722-0.714-1.239-1.346,0.148
				c0.174-0.037,0.325,0.014,0.465,0.11c-0.444,0.168-0.768,0.41-0.725,0.881c0.361-0.137,0.796-0.226,1.181-0.348
				C42.747,75.719,43.046,76.835,43.552,75.365z"/>
			<path fill-rule="evenodd" clip-rule="evenodd" fill="#3B342A" d="M15.387,84.067c-1.071-0.017-0.373-4.64-2.111-1.884
				c0.914,0.297,0.356,0.93-0.218,1.554C14.436,83.62,14.885,85.171,15.387,84.067z"/>
			<path fill-rule="evenodd" clip-rule="evenodd" fill="#3B342A" d="M26.189,106.069c0.777-0.117,1.016,0.493,1.665,0.548
				C29.791,105.053,26.335,104.181,26.189,106.069z"/>
			<path fill-rule="evenodd" clip-rule="evenodd" fill="#3B342A" d="M8.085,101.607C6.573,99.201,6.601,104.919,8.085,101.607
				L8.085,101.607z"/>
			<path fill-rule="evenodd" clip-rule="evenodd" fill="#3B342A" d="M2.255,87.468c-0.065,0.006-0.136,0.022-0.214,0.056
				c0.012,0.074-0.006,0.129-0.01,0.192c-0.007,0.011-0.013,0.019-0.021,0.027c-1.209-0.146-1.921,0.368-2.369,1.231
				c0.659,0.114,1.172,0.034,1.582-0.182c-0.327,0.293-0.552,0.649-0.18,1.378c1.502,0.266,2.133-2.327,1.419-2.666
				C2.552,87.234,2.438,87.282,2.255,87.468z"/>
			<path fill-rule="evenodd" clip-rule="evenodd" fill="#3B342A" d="M47.126,76.018c0.125,0.781,1.505,0.774,1.553-0.229
				C47.819,75.995,47.305,74.838,47.126,76.018z"/>
			<path fill-rule="evenodd" clip-rule="evenodd" fill="#3B342A" d="M26.173,79.111c-0.858,0.208-1.374-0.949-1.553,0.23
				C24.745,80.123,26.125,80.115,26.173,79.111z"/>
			<path fill-rule="evenodd" clip-rule="evenodd" fill="#3B342A" d="M71.616,70.021c0.519-0.076,1.036-0.151,1.553-0.229
				c-0.077-0.518-0.153-1.034-0.229-1.553c-0.519,0.077-1.036,0.153-1.553,0.23C71.463,68.987,71.541,69.505,71.616,70.021z"/>
			<path fill-rule="evenodd" clip-rule="evenodd" fill="#3B342A" d="M80.444,59.996C78.067,57.253,79.694,62.734,80.444,59.996
				L80.444,59.996z"/>
			<path fill-rule="evenodd" clip-rule="evenodd" fill="#3B342A" d="M34.949,57.99C33.438,55.586,33.465,61.303,34.949,57.99
				L34.949,57.99z"/>
			<path fill-rule="evenodd" clip-rule="evenodd" fill="#3B342A" d="M96.574,45.718c0.125,0.783,1.506,0.775,1.554-0.229
				C97.27,45.697,96.752,44.54,96.574,45.718z"/>
			<path fill-rule="evenodd" clip-rule="evenodd" fill="#3B342A" d="M31.704,52.125C33.194,49.245,29.378,54.386,31.704,52.125
				L31.704,52.125z"/>
			<path fill-rule="evenodd" clip-rule="evenodd" fill="#3B342A" d="M88.127,42.209c0.933-0.024,1.964,1.123,2.328-0.345
				C89.522,41.888,88.492,40.743,88.127,42.209z"/>
			<path fill-rule="evenodd" clip-rule="evenodd" fill="#3B342A" d="M85.341,39.447c0.125,0.783,1.504,0.778,1.553-0.229
				C86.033,39.426,85.519,38.269,85.341,39.447z"/>
			<path fill-rule="evenodd" clip-rule="evenodd" fill="#3B342A" d="M38.934,32.353c-0.293-0.283-0.528-0.189-0.379,0.801
				c0.358,1.233-0.502,3.619,0.354,1.527c0.843,0.116,0.863-0.598,0.627-1.287c0.119-0.167,0.25-0.39,0.398-0.721
				C39.427,31.867,39.097,31.98,38.934,32.353z"/>
			<path fill-rule="evenodd" clip-rule="evenodd" fill="#3B342A" d="M89.206,11.917c-0.156-1.342-0.892-1.902-1.897-2.1
				C87.465,11.159,88.201,11.718,89.206,11.917z"/>
			<path fill-rule="evenodd" clip-rule="evenodd" fill="#3B342A" d="M1.396,24.089C2.888,21.21-0.931,26.349,1.396,24.089
				L1.396,24.089z"/>
			<path fill-rule="evenodd" clip-rule="evenodd" fill="#3B342A" d="M77.335,12.083C80.297,14.055,79.265,8.865,77.335,12.083
				L77.335,12.083z"/>
			<path fill-rule="evenodd" clip-rule="evenodd" fill="#3B342A" d="M54.054,15.521c0.123,0.781,1.505,0.775,1.551-0.229
				C54.746,15.5,54.23,14.342,54.054,15.521z"/>
			<path fill-rule="evenodd" clip-rule="evenodd" fill="#3B342A" d="M93.403,8.125C91.891,5.72,91.918,11.436,93.403,8.125
				L93.403,8.125z"/>
			<path fill-rule="evenodd" clip-rule="evenodd" fill="#3B342A" d="M67.538,4.806C65.073,1.092,65.926,7.775,67.538,4.806
				L67.538,4.806z"/>
			<path fill-rule="evenodd" clip-rule="evenodd" fill="#3B342A" d="M16.495,2.827C17.985-0.052,14.169,5.088,16.495,2.827
				L16.495,2.827z"/>
			<path fill-rule="evenodd" clip-rule="evenodd" fill="#3B342A" d="M32.548,90.065c-0.006,0-0.01-0.003-0.015-0.003
				c0.092-0.087,0.186-0.205,0.281-0.367c-0.82-0.22-1.446-1.368-2.128-0.595c-0.202-0.12-0.427-0.214-0.695-0.245
				c2.342,1.977-1.444,4.111,0.803,5.432C31.208,92.754,31.334,91.004,32.548,90.065z"/>
			<path fill-rule="evenodd" clip-rule="evenodd" fill="#3B342A" d="M65.752,73.268C61.844,68.837,63.326,74.117,65.752,73.268
				L65.752,73.268z"/>
			<path fill-rule="evenodd" clip-rule="evenodd" fill="#3B342A" d="M73.893,58.584c0.799,0.593,2.111-0.98,2.214-1.12
				C78.327,54.475,73.44,58.249,73.893,58.584z"/>
			<path fill-rule="evenodd" clip-rule="evenodd" fill="#3B342A" d="M34.747,61.985c-2.04-0.447,0.428,4.475,0.229,1.552
				C34.718,62.279,35.77,59.971,34.747,61.985z"/>
			<path fill-rule="evenodd" clip-rule="evenodd" fill="#3B342A" d="M87.147,46.318c-0.479,0.025-0.934,0.02-0.89-0.661
				c0.895-0.258,2.223-0.193,2.212-1.12c-0.478,0.025-0.934,0.02-0.89-0.663c-0.517,0.076-1.035,0.153-1.553,0.229
				C85.537,45.547,85.717,48.847,87.147,46.318z"/>
			<path fill-rule="evenodd" clip-rule="evenodd" fill="#3B342A" d="M-0.52,3.562C2.073,6.099,0.007,0.771-0.52,3.562L-0.52,3.562z"
				/>
			<path fill-rule="evenodd" clip-rule="evenodd" fill="#3B342A" d="M30.005,10.173C31.706,12.446,31.214,6.75,30.005,10.173
				L30.005,10.173z"/>
			<path fill-rule="evenodd" clip-rule="evenodd" fill="#3B342A" d="M44.113,8.512c-0.41,1.509,2.766-0.892,2.117-1.297
				C45.431,6.717,44.179,8.274,44.113,8.512z"/>
			<path fill-rule="evenodd" clip-rule="evenodd" fill="#3B342A" d="M16.449,35.058c-0.872,0.327-2.2,0.372-2.116,1.296
				C15.204,36.027,16.532,35.984,16.449,35.058z"/>
			<path fill-rule="evenodd" clip-rule="evenodd" fill="#3B342A" d="M13.28,42.236c-0.099-0.929,0.96-2.049-0.53-2.292
				C12.848,40.872,11.79,41.992,13.28,42.236z"/>
			<path fill-rule="evenodd" clip-rule="evenodd" fill="#3B342A" d="M17.866,41.172C19.567,43.447,19.077,37.75,17.866,41.172
				L17.866,41.172z"/>
			<path fill-rule="evenodd" clip-rule="evenodd" fill="#3B342A" d="M31.977,39.511C33.678,41.786,33.186,36.089,31.977,39.511
				L31.977,39.511z"/>
			<path fill-rule="evenodd" clip-rule="evenodd" fill="#3B342A" d="M51.201,39.079c-0.186-0.77-1.562-0.651-1.527,0.354
				C50.514,39.156,51.121,40.267,51.201,39.079z"/>
			<path fill-rule="evenodd" clip-rule="evenodd" fill="#3B342A" d="M2.238,53.653C4.832,56.194,2.766,50.863,2.238,53.653
				L2.238,53.653z"/>
			<path fill-rule="evenodd" clip-rule="evenodd" fill="#3B342A" d="M21.698,50.752C23.399,53.026,22.909,47.33,21.698,50.752
				L21.698,50.752z"/>
			<path fill-rule="evenodd" clip-rule="evenodd" fill="#3B342A" d="M15.939,53.699C14.687,56.692,18.074,51.257,15.939,53.699
				L15.939,53.699z"/>
			<path fill-rule="evenodd" clip-rule="evenodd" fill="#3B342A" d="M8.541,63.468c-0.871,0.327-2.199,0.37-2.116,1.294
				C7.297,64.435,8.625,64.392,8.541,63.468z"/>
			<path fill-rule="evenodd" clip-rule="evenodd" fill="#3B342A" d="M18.719,69.16c0.1,0.928-0.958,2.049,0.532,2.292
				C19.151,70.523,20.209,69.403,18.719,69.16z"/>
			<path fill-rule="evenodd" clip-rule="evenodd" fill="#3B342A" d="M24.013,71.153c-0.263-1.325-1.041-1.822-2.06-1.938
				C22.217,70.54,22.996,71.038,24.013,71.153z"/>
			<path fill-rule="evenodd" clip-rule="evenodd" fill="#3B342A" d="M11.787,73.988C14.38,76.527,12.312,71.198,11.787,73.988
				L11.787,73.988z"/>
			<path fill-rule="evenodd" clip-rule="evenodd" fill="#3B342A" d="M-0.142,81.586C1.56,83.86,1.069,78.165-0.142,81.586
				L-0.142,81.586z"/>
			<path fill-rule="evenodd" clip-rule="evenodd" fill="#3B342A" d="M6.559,79.227c0.1,0.929-0.96,2.049,0.532,2.294
				C6.991,80.592,8.049,79.472,6.559,79.227z"/>
			<path fill-rule="evenodd" clip-rule="evenodd" fill="#3B342A" d="M46.419,74.011c-0.263-1.324-1.043-1.823-2.06-1.938
				C44.622,73.396,45.401,73.895,46.419,74.011z"/>
			<path fill-rule="evenodd" clip-rule="evenodd" fill="#3B342A" d="M28.664,77.32c0.842-0.274,1.449,0.837,1.529-0.354
				C30.006,76.199,28.632,76.318,28.664,77.32z"/>
			<path fill-rule="evenodd" clip-rule="evenodd" fill="#3B342A" d="M29.375,80.38c-0.174-0.709-1.336-0.655-1.498,0.138
				c-0.296-0.166-0.685-0.175-0.995,0.167c0.793,0.388,0.45,1.608,1.34,0.813c0.165-0.277,0.079-0.583-0.122-0.804
				C28.806,80.671,29.302,81.443,29.375,80.38z"/>
			<path fill-rule="evenodd" clip-rule="evenodd" fill="#3B342A" d="M0.412,104.812c0.84-0.278,1.447,0.835,1.529-0.355
				C1.754,103.689,0.378,103.807,0.412,104.812z"/>
			<path fill-rule="evenodd" clip-rule="evenodd" fill="#3B342A" d="M23.548,20.528c0.19,1.083,0.849,2.883,1.118,1.349
				C25.185,19.533,21.037,19.958,23.548,20.528z"/>
			<path fill-rule="evenodd" clip-rule="evenodd" fill="#3B342A" d="M40.027,36.033c0.992-0.351,3.027,2.57,3.234,0.054
				C42.272,36.436,39.822,34.177,40.027,36.033z"/>
			<path fill-rule="evenodd" clip-rule="evenodd" fill="#3B342A" d="M12.771,60.875c-0.052-0.96,0.739-0.667,1.529-0.355
				c-0.607-1.245,0.679-2.221-0.532-2.291C14.141,59.234,9.574,60.246,12.771,60.875z"/>
			<path fill-rule="evenodd" clip-rule="evenodd" fill="#3B342A" d="M1.349,36.266c-0.153-0.777-1.532-0.721-1.543,0.287
				C0.657,36.312,1.215,37.45,1.349,36.266z"/>
		</g>
	</g>
</g>
<g>
	<g>
		<path fill="#42210B" d="M103.221,57.828H66.78c-0.983,0-1.78-0.796-1.78-1.779V39.39c0-0.983,0.797-1.779,1.78-1.779
			c0.983,0,1.78,0.796,1.78,1.779v14.876h32.879V39.39c0-0.983,0.797-1.779,1.781-1.779S105,38.406,105,39.39v16.659
			C105,57.032,104.205,57.828,103.221,57.828z"/>
	</g>
	<g>
		<path fill="#42210B" d="M85.001,47.108c-0.983,0-1.78-0.797-1.78-1.781V20c0-0.984,0.797-1.782,1.78-1.782
			c0.982,0,1.78,0.798,1.78,1.782v25.328C86.781,46.311,85.983,47.108,85.001,47.108z"/>
	</g>
	<g>
		<path fill="#42210B" d="M70.995,31.878c-0.445,0-0.892-0.167-1.238-0.502c-0.706-0.685-0.725-1.811-0.041-2.518l14.006-14.468
			c0.67-0.692,1.887-0.692,2.558,0l14.006,14.468c0.684,0.707,0.666,1.833-0.043,2.518c-0.705,0.685-1.832,0.666-2.516-0.041
			L85,18.191L72.274,31.336C71.925,31.698,71.461,31.878,70.995,31.878z"/>
	</g>
</g>
<text transform="matrix(1 0 0 1 53 86.2139)" fill="#42210B" font-family="'NotoSansCJKtc-Bold-B5pc-H'" font-size="16">上傳圖片</text>
</svg>
