<?xml version="1.0" encoding="utf-8"?>
<!-- Generator: Adobe Illustrator 16.0.0, SVG Export Plug-In . SVG Version: 6.00 Build 0)  -->
<!DOCTYPE svg PUBLIC "-//W3C//DTD SVG 1.1//EN" "http://www.w3.org/Graphics/SVG/1.1/DTD/svg11.dtd">
<svg version="1.1" id="圖層_1" xmlns="http://www.w3.org/2000/svg" xmlns:xlink="http://www.w3.org/1999/xlink" x="0px" y="0px"
	 width="90px" height="90px" viewBox="0 0 90 90" enable-background="new 0 0 90 90" xml:space="preserve">
<g id="XMLID_926_">
	<g>
		<path id="XMLID_9_" fill="#007E85" d="M86.266,86.868c0.398-0.702,0.393-1.563-0.019-2.257L50.47,24.079l-2.862-5.026
			l7.799-13.694c0.611-1.077,0.236-2.45-0.842-3.062c-1.078-0.614-2.448-0.24-3.062,0.841l-6.477,11.375l-5.439-9.55
			c-0.614-1.08-1.987-1.457-3.062-0.841c-1.078,0.613-1.453,1.984-0.84,3.062l6.758,11.87l-1.619,2.84L3.752,84.611
			c-0.411,0.693-0.417,1.556-0.018,2.257C4.135,87.568,4.88,88,5.686,88h78.628C85.121,88,85.865,87.568,86.266,86.868z
			 M29.913,83.479L45,57.954l15.087,25.524H29.913z M27.334,53.539l4.951-8.376l10.47-17.712v17.712v7.762l-0.364,0.614
			L24.678,83.508H9.622L27.334,53.539z M65.32,83.508L47.607,53.539l-0.362-0.614v-7.762V27.45l10.469,17.712l4.95,8.376
			l17.714,29.969L65.32,83.508L65.32,83.508z"/>
	</g>
</g>
</svg>
