<?xml version="1.0" encoding="utf-8"?>
<!-- Generator: Adobe Illustrator 16.0.0, SVG Export Plug-In . SVG Version: 6.00 Build 0)  -->
<!DOCTYPE svg PUBLIC "-//W3C//DTD SVG 1.1//EN" "http://www.w3.org/Graphics/SVG/1.1/DTD/svg11.dtd">
<svg version="1.1" id="圖層_1" xmlns="http://www.w3.org/2000/svg" xmlns:xlink="http://www.w3.org/1999/xlink" x="0px" y="0px"
	 width="90px" height="90px" viewBox="0 0 90 90" enable-background="new 0 0 90 90" xml:space="preserve">
<g>
	<g>
		<g>
			<path fill="#007E85" d="M78.665,81.811h-5.751c-1.336,0-2.419-1.084-2.419-2.42s1.083-2.418,2.419-2.418h5.751
				c2.03,0,3.81-1.179,3.81-2.521V52.77c0-1.846-2.255-3.403-4.924-3.403h-3.428c-1.336,0-2.42-1.083-2.42-2.421
				c0-1.336,1.083-2.418,2.42-2.418h3.428c5.383,0,9.762,3.698,9.762,8.243v21.683C87.312,78.509,83.434,81.811,78.665,81.811z"/>
		</g>
		<g>
			<path fill="#007E85" d="M17.087,81.811h-5.751c-4.769,0-8.649-3.302-8.649-7.359V52.77c0-4.545,4.379-8.244,9.763-8.244h3.428
				c1.336,0,2.419,1.083,2.419,2.419s-1.083,2.42-2.419,2.42H12.45c-2.669,0-4.924,1.559-4.924,3.402V74.45
				c0,1.343,1.78,2.521,3.81,2.521h5.751c1.336,0,2.419,1.084,2.419,2.418C19.506,80.727,18.423,81.811,17.087,81.811z"/>
		</g>
	</g>
	<g>
		<path fill="#007E85" d="M63.979,88H27.221C19.291,88,14,79.312,14,71.461V29.154C14,17.347,22.81,10,36.103,10h18.995
			C68.086,10,75,17.168,75,29.154v42.307C75,79.152,72.129,88,63.979,88z M36.103,15C25.482,15,19,20.064,19,29.154v42.307
			C19,75.95,21.879,82,27.221,82h36.757C69.535,82,71,75.312,71,71.461V29.154C71,17.332,62.354,15,55.098,15H36.103z"/>
	</g>
	<g>
		<path fill="#007E85" d="M45.197,39.851c-21.715,0-29.189-8.815-29.489-9.191C15.365,30.231,15,29.699,15,29.149V28.56
			c0-1.336,1.262-2.419,2.598-2.419c1.188,0,2.265,0.855,2.47,1.983c1.808,1.643,8.894,6.888,25.084,6.888
			c10.038,0,16.489-2.025,20.114-3.724c2.645-1.24,4.224-2.488,4.959-3.162c0.205-1.129,0.681-1.985,1.868-1.985
			c1.337,0,1.907,1.083,1.907,2.419v0.589c0,0.549,0.331,1.082-0.011,1.51C73.688,31.036,66.911,39.851,45.197,39.851z"/>
	</g>
	<g>
		<path fill="#007E85" d="M45.196,64.852c21.715,0,28.494,8.814,28.792,9.189C74.331,74.471,74,75.003,74,75.552v0.589
			c0,1.336-0.566,2.42-1.9,2.42c-1.188,0-1.916-0.855-2.121-1.983c-1.808-1.644-8.721-6.888-24.912-6.888
			c-10.037,0-16.401,2.025-20.025,3.725c-2.646,1.24-4.182,2.488-4.916,3.162c-0.205,1.129-1.356,1.984-2.543,1.984
			c-1.337,0-2.582-1.082-2.582-2.418v-0.59c0-0.549,0.365-1.082,0.707-1.511C16.008,73.666,23.482,64.852,45.196,64.852z"/>
	</g>
	<g id="XMLID_1_">
		<path fill="#007E85" d="M45.197,55.26c-4.656,0-8.444-3.787-8.444-8.443c0-4.655,3.788-8.442,8.444-8.442
			c4.654,0,8.443,3.787,8.443,8.442C53.641,51.473,49.854,55.26,45.197,55.26z M45.197,43.212c-1.988,0-3.605,1.617-3.605,3.604
			c0,1.988,1.617,3.604,3.605,3.604c1.986,0,3.604-1.616,3.604-3.604C48.801,44.829,47.184,43.212,45.197,43.212z"/>
	</g>
	<g>
		<path fill="#007E85" d="M36.326,7.889c0-1.038,0.846-1.882,1.883-1.882h13.975c1.039,0,1.883,0.844,1.883,1.882v4.133
			c1.203-0.057,2.412-0.038,3.629,0.105c0.136,0.017,0.269,0.041,0.402,0.062v-4.3c0-3.261-2.652-5.915-5.914-5.915H38.209
			c-3.262,0-5.915,2.654-5.915,5.915v3.675c1.409,0.034,2.806,0.431,4.032,1.188V7.889z"/>
	</g>
</g>
</svg>
