<?xml version="1.0" encoding="utf-8"?>
<!-- Generator: Adobe Illustrator 16.0.0, SVG Export Plug-In . SVG Version: 6.00 Build 0)  -->
<!DOCTYPE svg PUBLIC "-//W3C//DTD SVG 1.1//EN" "http://www.w3.org/Graphics/SVG/1.1/DTD/svg11.dtd">
<svg version="1.1" id="圖層_1" xmlns="http://www.w3.org/2000/svg" xmlns:xlink="http://www.w3.org/1999/xlink" x="0px" y="0px"
	 width="90px" height="90px" viewBox="0 0 90 90" enable-background="new 0 0 90 90" xml:space="preserve">
<g id="XMLID_8573_">
	<path id="XMLID_8577_" fill="#007E85" d="M70.693,33.697c0.498-2.049,0.75-4.152,0.75-6.253C71.443,12.863,59.581,1,45,1
		S18.557,12.863,18.557,27.444c0,2.101,0.252,4.204,0.749,6.253c0.707,4.289,1.678,7.75,2.886,10.287
		c2.599,5.458,13.534,23.477,18.554,31.685c-6.787,0.864-9.937,3.783-9.937,6.534C30.809,85.475,35.25,89,45,89
		c9.751,0,14.191-3.525,14.191-6.797c0-2.751-3.15-5.67-9.938-6.534c5.02-8.208,15.956-26.228,18.555-31.685
		C69.018,41.446,69.986,37.985,70.693,33.697z M55.102,82.203c-0.275,0.773-3.689,2.712-10.102,2.712
		c-6.487,0-9.905-1.985-10.109-2.687c0.183-0.679,2.971-2.345,8.238-2.678c0.062,0.1,0.109,0.176,0.133,0.217
		c0.371,0.603,1.029,0.971,1.738,0.971c0.708,0,1.367-0.368,1.739-0.971c0.022-0.041,0.071-0.117,0.131-0.217
		C52.07,79.879,54.854,81.509,55.102,82.203z M25.878,42.229c-1.034-2.174-1.917-5.38-2.555-9.27
		c-0.009-0.053-0.019-0.105-0.033-0.158c-0.432-1.755-0.65-3.557-0.65-5.356c0-12.33,10.03-22.36,22.359-22.36
		s22.36,10.03,22.36,22.36c0,1.799-0.219,3.602-0.651,5.356c-0.015,0.051-0.024,0.105-0.032,0.158
		c-0.639,3.89-1.523,7.096-2.556,9.27C61.498,47.738,49.525,67.402,45,74.793C40.475,67.402,28.503,47.739,25.878,42.229z"/>
	<path id="XMLID_8574_" fill="#007E85" d="M45,12.491c-7.825,0-14.191,6.367-14.191,14.192c0,7.825,6.366,14.19,14.191,14.19
		s14.191-6.366,14.191-14.19C59.191,18.857,52.825,12.491,45,12.491z M34.893,26.683c0-5.574,4.534-10.108,10.107-10.108
		s10.107,4.534,10.107,10.108c0,5.573-4.534,10.107-10.107,10.107S34.893,32.256,34.893,26.683z"/>
</g>
</svg>
