<?xml version="1.0" encoding="utf-8"?>
<!-- Generator: Adobe Illustrator 16.0.0, SVG Export Plug-In . SVG Version: 6.00 Build 0)  -->
<!DOCTYPE svg PUBLIC "-//W3C//DTD SVG 1.1//EN" "http://www.w3.org/Graphics/SVG/1.1/DTD/svg11.dtd">
<svg version="1.1" id="圖層_1" xmlns="http://www.w3.org/2000/svg" xmlns:xlink="http://www.w3.org/1999/xlink" x="0px" y="0px"
	 width="90px" height="90px" viewBox="0 0 90 90" enable-background="new 0 0 90 90" xml:space="preserve">
<g>
	<path fill="#007E85" d="M87.496,38.053c-0.13-0.932-0.148-1.896-0.344-2.854c-1.774-8.719-6.332-16.084-13.656-21.89
		c-7.199-5.705-15.667-8.915-25.23-9.542c-11.3-0.743-21.471,2.122-30.2,8.501C9.692,18.386,4.584,26.355,2.871,35.954
		c-1.693,9.484,0.303,18.335,5.925,26.308c6.22,8.818,15.16,14.537,26.57,16.998c6.174,1.332,12.467,1.369,18.476,0.133
		c0.037,0,0.18,0.021,0.395,0.111c6.082,2.602,11.177,4.367,16.027,5.559c2.59,0.638,5.658,1.287,8.774,1.287
		c0.726,0,1.442-0.033,2.136-0.103c1.258-0.125,2.618-0.472,4.158-1.06c1.053-0.403,1.82-1.142,2.159-2.076
		c0.343-0.947,0.222-2.024-0.345-3.033c-0.49-0.877-1.194-1.729-2.094-2.535c-0.799-0.716-1.63-1.402-2.434-2.064
		c-0.862-0.711-1.754-1.446-2.58-2.201c-1.671-1.523-2.969-3.323-3.855-5.35c5.58-5.271,9.229-11.475,10.846-18.438
		c0.277-1.191,0.459-2.396,0.633-3.56C87.917,41.744,87.555,38.476,87.496,38.053z M70.286,65.062
		c-0.834,0.707-1.109,1.526-0.863,2.58c0.938,4.033,3.185,7.484,7.069,10.861c0.611,0.532,1.234,1.053,1.867,1.574
		c-1.194,0.021-2.412-0.209-3.672-0.451c-7.064-1.357-13.6-3.913-19.06-6.234c-0.319-0.135-0.813-0.297-1.364-0.297
		c-0.188,0-0.371,0.021-0.543,0.057c-5.714,1.238-11.534,1.229-17.289-0.027c-9.664-2.109-17.225-6.936-22.476-14.341
		c-4.719-6.657-6.379-14-4.934-21.824c1.6-8.661,6.453-15.679,14.427-20.86c7.767-5.047,16.661-7.048,26.43-5.941
		c8.673,0.981,16.107,4.344,22.098,9.997c6.1,5.757,9.352,12.612,9.666,20.373C82.032,50.1,78.211,58.355,70.286,65.062z"/>
	<g>
		<path fill="#007E85" d="M40.664,24.642c0-2.589,2.039-4.516,4.627-4.516c2.645,0,4.518,1.873,4.518,4.516
			c0,2.534-1.929,4.406-4.518,4.406C42.758,29.048,40.664,27.12,40.664,24.642z M41.546,59.671V37.255
			c0-2.369,1.322-3.69,3.745-3.69c2.479,0,3.801,1.322,3.801,3.69v22.416c0,2.368-1.322,3.69-3.801,3.69
			C42.868,63.361,41.546,62.039,41.546,59.671z"/>
	</g>
</g>
</svg>
