<?xml version="1.0" encoding="utf-8"?>
<!-- Generator: Adobe Illustrator 16.0.0, SVG Export Plug-In . SVG Version: 6.00 Build 0)  -->
<!DOCTYPE svg PUBLIC "-//W3C//DTD SVG 1.1//EN" "http://www.w3.org/Graphics/SVG/1.1/DTD/svg11.dtd">
<svg version="1.1" id="圖層_1" xmlns="http://www.w3.org/2000/svg" xmlns:xlink="http://www.w3.org/1999/xlink" x="0px" y="0px"
	 width="277.181px" height="277.177px" viewBox="0 0 277.181 277.177" enable-background="new 0 0 277.181 277.177"
	 xml:space="preserve">
<g>
	<path opacity="0.7" fill="#F2F7F3" d="M277.181,138.591c0,76.541-62.051,138.586-138.591,138.586
		C62.048,277.177,0,215.132,0,138.591C0,62.049,62.048,0,138.59,0C215.13,0,277.181,62.049,277.181,138.591z"/>
	<g>
		<g>
			<g>
				<path fill="#197E85" d="M121.081,80.04c0,0.632,0.523,1.16,1.165,1.16c0.646,0,1.168-0.527,1.168-1.16
					c0-0.642-0.521-1.161-1.168-1.161C121.604,78.879,121.081,79.398,121.081,80.04z"/>
				<path fill="#197E85" d="M135.646,62.06c0.635,0,1.158-0.521,1.158-1.16c0-0.638-0.523-1.166-1.158-1.166
					c-0.645,0-1.172,0.527-1.172,1.166C134.474,61.539,135.001,62.06,135.646,62.06z"/>
				<path fill="#197E85" d="M126.25,80.789c0.295,0,0.565-0.133,0.739-0.368c0.331-0.414,0.254-1.017-0.146-1.331l-4.19-3.28
					c-0.182-0.125-0.385-0.194-0.588-0.194c-0.293,0-0.57,0.13-0.757,0.366c-0.153,0.206-0.228,0.448-0.204,0.696
					c0.035,0.263,0.173,0.485,0.376,0.644l4.182,3.271C125.829,80.719,126.04,80.789,126.25,80.789z"/>
				<path fill="#197E85" d="M135.854,52.436c0.642,0,1.169-0.528,1.169-1.159c0-0.646-0.527-1.168-1.169-1.168
					c-0.631,0-1.158,0.522-1.158,1.168C134.696,51.908,135.224,52.436,135.854,52.436z"/>
				<path fill="#197E85" d="M118.288,85.652c0-0.645-0.525-1.169-1.166-1.169c-0.656,0-1.156,0.525-1.156,1.169
					c0,0.633,0.5,1.154,1.156,1.154C117.763,86.806,118.288,86.286,118.288,85.652z"/>
				<path fill="#197E85" d="M125.63,73.403c0-0.644-0.533-1.169-1.167-1.169c-0.644,0-1.173,0.525-1.173,1.169
					c0,0.644,0.529,1.159,1.173,1.159C125.097,74.562,125.63,74.047,125.63,73.403z"/>
				<path fill="#197E85" d="M133.821,53.85c-0.631,0-1.16,0.531-1.16,1.171c0,0.635,0.529,1.164,1.16,1.164
					c0.636,0,1.164-0.528,1.164-1.164C134.985,54.38,134.457,53.85,133.821,53.85z"/>
				<path fill="#197E85" d="M89.308,116.121l0.072-0.026c1.73-0.602,3.186-1.467,4.322-2.551c1.59-1.537,2.635-3.612,3.082-6.183
					l0.017-0.071c0-0.005-0.009-0.029-0.017-0.03c-0.008-0.013-0.026-0.008-0.034,0.001l-0.058,0.047
					c-1.246,1.066-2.621,2.015-4.097,2.804c0,0.002,0,0.008,0,0.01l-3.315,5.945c0,0.018,0,0.038,0,0.049
					c0.008,0,0.013,0.008,0.013,0.008S89.308,116.126,89.308,116.121z"/>
				<path fill="#197E85" d="M107.852,97.433c-0.017,0.008-0.017,0.017-0.017,0.022s0,0.016,0,0.032l0.017,0.022
					c0.852,1.395,1.911,2.566,3.168,3.486v0.009c0.01,0,0.01,0,0.03,0l0,0l0.022-0.005c5.459-2.456,14.147-5.515,24.632-6.195
					l0.019-0.001c0.017,0,0.038-0.014,0.038-0.03v-0.057c0-0.119,0-0.25,0-0.389c0-2.069,1.614-3.756,3.596-3.756
					c0.053,0,0.095,0,0.165,0.007c0.041-0.007,0.097-0.007,0.147-0.007c1.987,0,3.597,1.688,3.597,3.756c0,0.093,0,0.174,0,0.27
					v0.133c0,0.018,0.02,0.037,0.036,0.037l0.02,0.003c7.88,0.427,15.468,2.381,22.562,5.781l0.019,0.005
					c0.007,0.005,0.018,0.005,0.023-0.005h0.017c1.426-0.829,2.699-1.875,3.801-3.128l0.017-0.029
					c0.011-0.013,0.011-0.017,0.011-0.025c0-0.016-0.011-0.026-0.015-0.029l-0.035-0.012c-6.54-3.375-13.479-5.605-20.645-6.599
					c-0.137-4.077-1.399-7.876-3.53-10.705c-2.142-2.853-4.963-4.43-7.925-4.43c-3.083,0-5.974,1.661-8.138,4.672
					c-2.148,2.989-3.349,6.972-3.364,11.207c-7.917,1.543-14.28,4.088-18.233,5.955L107.852,97.433z"/>
				<path fill="#197E85" d="M113.882,91.812c0-0.643-0.521-1.167-1.168-1.167c-0.635,0-1.163,0.524-1.163,1.167
					c0,0.641,0.528,1.163,1.163,1.163C113.36,92.975,113.882,92.452,113.882,91.812z"/>
				<path fill="#197E85" d="M115.682,89.303c0.036,0.518,0.448,0.925,0.965,0.925h0.03c0.004,0,0.004,0,0.004,0l6.297-0.191
					c0.256-0.004,0.486-0.114,0.659-0.298c0.167-0.183,0.275-0.428,0.261-0.683c-0.021-0.512-0.441-0.924-0.978-0.924l-6.296,0.187
					C116.104,88.334,115.676,88.777,115.682,89.303z"/>
				<path fill="#197E85" d="M81.666,129.874l0.063-0.03c0.478-0.196,0.987-0.297,1.485-0.297c0.073,0,0.144,0.003,0.196,0.003
					c0.065,0.003,0.129,0.003,0.236,0.003c0.588,0,2.73-0.056,5.111-0.783l0.008-0.006c0.007,0,0.007-0.013,0.016-0.013l2.741-4.937
					c0.015-0.005,0.015-0.023,0-0.03c0-0.009-0.02-0.02-0.03-0.009l-0.07,0.016c-3.004,0.978-5.741,1.188-7.092,1.235h-0.016
					c-0.029,0-0.029,0.01-0.029,0.023l-2.67,4.788c0,0.006,0,0.019,0.012,0.033c0,0.003,0.018,0.003,0.018,0.003
					C81.657,129.874,81.657,129.874,81.666,129.874z"/>
				<path fill="#197E85" d="M155.643,73.841c0-0.637-0.509-1.155-1.149-1.155c-0.646,0-1.175,0.518-1.175,1.155
					c0,0.646,0.528,1.167,1.175,1.167C155.134,75.008,155.643,74.487,155.643,73.841z"/>
				<path fill="#197E85" d="M105.39,87.227c0,3.324,0.537,6.226,1.593,8.613l0.022,0.056c0.01,0.005,0.029,0.018,0.029,0.012
					c0.02,0,0.027-0.007,0.037-0.012l7.411-13.325l9.337,2.795c0.1,0.028,0.188,0.04,0.281,0.04c0.427,0,0.779-0.268,0.906-0.68
					c0.072-0.246,0.055-0.506-0.061-0.728c-0.123-0.225-0.333-0.384-0.57-0.463l-8.946-2.67l8.468-15.204l4.74,11.28
					c0.154,0.353,0.492,0.581,0.869,0.581c0.123,0,0.268-0.022,0.369-0.075c0.501-0.199,0.722-0.764,0.521-1.244l-4.826-11.477
					c-0.139-0.34-0.459-0.56-0.843-0.583l4.047-7.244l4.153,17.058c0.103,0.436,0.494,0.736,0.928,0.736
					c0.087,0,0.158-0.008,0.23-0.024c0.246-0.061,0.451-0.214,0.593-0.436c0.125-0.222,0.17-0.48,0.104-0.723l-4.614-18.908
					c-0.004-0.041-0.012-0.091-0.034-0.144l7.342-13.209l0.087,32.064c0,0.521,0.427,0.948,0.955,0.948
					c0.529-0.001,0.953-0.429,0.953-0.954l-0.087-32.623l8.289,14.875c0,0.005,0,0.005,0,0.009l-5.114,19.107
					c-0.143,0.51,0.162,1.036,0.686,1.177c0.07,0.016,0.159,0.024,0.237,0.024c0.437,0,0.807-0.289,0.914-0.703l4.6-17.208
					l4.006,7.182c-0.105-0.035-0.204-0.052-0.306-0.052c-0.364,0-0.697,0.205-0.855,0.531l-5.648,11.299
					c-0.119,0.229-0.135,0.49-0.069,0.728c0.086,0.245,0.254,0.436,0.479,0.554c0.146,0.068,0.296,0.098,0.435,0.098
					c0.354,0,0.688-0.193,0.853-0.525l5.661-11.305c0.036-0.067,0.06-0.142,0.065-0.21l7.623,13.675l-10.634,3.227
					c-0.517,0.154-0.789,0.69-0.642,1.192c0.125,0.398,0.491,0.677,0.907,0.677c0.096,0,0.188-0.014,0.278-0.04l11.042-3.351
					l8.232,14.8l0.011,0.029c0.019,0.006,0.022,0.021,0.029,0.021l0,0c0.01,0,0.013-0.003,0.023-0.018l0.028-0.028
					c1.334-1.799,2.317-3.949,2.911-6.37v-0.007c0-0.004,0-0.013,0-0.02L141.87,33.356l5.6-10.054
					c0.372-0.677,0.468-1.452,0.254-2.187c-0.218-0.734-0.7-1.343-1.366-1.722c-0.422-0.234-0.907-0.358-1.387-0.358
					c-1.045,0-2.009,0.564-2.501,1.478l-37.08,66.592c0,0.004,0,0.02,0,0.023c0,0.02,0,0.035,0,0.048S105.39,87.206,105.39,87.227z"
					/>
				<path fill="#197E85" d="M127.761,64.668c0,0.64,0.524,1.165,1.153,1.165c0.65,0,1.167-0.525,1.167-1.165
					c0-0.639-0.517-1.16-1.167-1.16C128.285,63.509,127.761,64.03,127.761,64.668z"/>
				<path fill="#197E85" d="M149.743,66.301c0-0.637-0.519-1.154-1.158-1.154c-0.645,0-1.155,0.518-1.155,1.154
					c0,0.644,0.511,1.165,1.155,1.165C149.225,67.466,149.743,66.945,149.743,66.301z"/>
				<path fill="#197E85" d="M134.058,31.11c0.01,0.006,0.01,0.008,0.029,0.008l0,0c0.01,0,0.023-0.002,0.023-0.008l0.021-0.046
					c1.15-2.132,2.206-3.889,3.359-5.52l0.015-0.015c0.004-0.009,0.004-0.029,0-0.035l-2.797-4.981
					c-0.491-0.914-1.453-1.478-2.504-1.478c-0.478,0-0.96,0.124-1.381,0.358c-1.382,0.778-1.881,2.52-1.113,3.908L134.058,31.11z"/>
				<path fill="#197E85" d="M213.07,141.798h-8.631c-0.032,0-0.039,0.003-0.046,0.01c-0.013,0.009-0.013,0.03,0,0.035l3.148,5.656
					l0.009,0.014c0.005,0.006,0.011,0.016,0.021,0.016h5.499c1.578,0,2.868-1.29,2.868-2.867
					C215.938,143.076,214.648,141.798,213.07,141.798z"/>
				<path fill="#197E85" d="M81.448,141.936l2.418-4.345l0.022-0.036c0.007-0.013,0.007-0.024,0-0.037
					c-0.015-0.006-0.022-0.01-0.037-0.01l0,0h-0.038c-0.391,0.007-0.636-0.013-0.734-0.013l-0.016-0.003
					c-1.846-0.086-3.438-1.478-3.756-3.289l-0.007-0.079c-0.009-0.003-0.009-0.021-0.03-0.023c-0.022-0.006-0.022,0.007-0.037,0.02
					l-10.276,18.473c-0.767,1.383-0.282,3.129,1.099,3.906c0.442,0.234,0.92,0.359,1.397,0.359c1.044,0,1.997-0.566,2.511-1.475
					l4.286-7.707h120.681l4.288,7.707c0.511,0.908,1.466,1.475,2.508,1.475c0.479,0,0.971-0.125,1.396-0.359
					c1.379-0.777,1.872-2.523,1.099-3.906l-8.971-16.147l-0.017-0.02c-0.007-0.007-0.036-0.02-0.036-0.007l-0.025,0.007
					c-0.489,0.23-1.007,0.356-1.538,0.386c-0.08,0.003-0.291,0.01-0.631,0.01c-0.736,0-2.286-0.046-4.207-0.356l-0.059-0.014
					c0,0-0.017,0.004-0.027,0.018c-0.003,0.013-0.003,0.022,0,0.029l3.023,5.437H81.448z"/>
				<path fill="#197E85" d="M69.632,147.513l3.138-5.637l0.017-0.033c0.014-0.005,0.014-0.026,0-0.035
					c0-0.007-0.017-0.01-0.028-0.01h-8.649c-1.578,0-2.867,1.277-2.867,2.863c0,1.577,1.289,2.867,2.867,2.867h5.5
					C69.614,147.529,69.624,147.519,69.632,147.513z"/>
				<path fill="#197E85" d="M148.939,79.677c-0.217,0.159-0.354,0.382-0.4,0.632c-0.028,0.251,0.028,0.501,0.184,0.708
					c0.175,0.243,0.462,0.39,0.767,0.39c0.21,0,0.398-0.064,0.562-0.182l4.293-3.136c0.205-0.148,0.34-0.369,0.376-0.624
					c0.036-0.254-0.013-0.503-0.171-0.706c-0.179-0.246-0.473-0.391-0.76-0.391c-0.204,0-0.408,0.062-0.567,0.182L148.939,79.677z"
					/>
				<path fill="#197E85" d="M142.49,54.362c-0.63,0-1.146,0.526-1.146,1.168c0,0.638,0.516,1.163,1.146,1.163
					c0.66,0,1.175-0.525,1.175-1.163C143.665,54.889,143.15,54.362,142.49,54.362z"/>
				<path fill="#197E85" d="M191.833,123.171h-0.013c-3.05-0.613-5.808-1.672-8.17-3.161l-0.079-0.06
					c-0.007-0.007-0.043-0.007-0.046,0.001c-0.014,0.01-0.014,0.032,0,0.043l2.544,4.57c0,0.006,0.022,0.009,0.022,0.009
					c0.013,0.023,0.02,0.044,0.04,0.061l0.021,0.033c0.067,0.066,0.131,0.125,0.197,0.195c2.501,2.395,5.913,3.276,8.344,3.591
					l0.053,0.008l0,0c0.018,0,0.021-0.004,0.021-0.014c0.013-0.009,0.013-0.026,0.009-0.032l-2.899-5.225l-0.017-0.008
					C191.859,123.175,191.853,123.171,191.833,123.171z"/>
				<path fill="#197E85" d="M152.118,86.654c-0.515,0-0.934,0.408-0.957,0.927c-0.013,0.516,0.394,0.963,0.935,0.983l9.894,0.327
					c0.021,0,0.027,0,0.037,0c0.527,0,0.939-0.405,0.956-0.919c0.023-0.527-0.398-0.972-0.927-0.987l-9.902-0.332H152.118z"/>
				<path fill="#197E85" d="M141.514,61.658c0,0.636,0.527,1.168,1.154,1.168c0.647,0,1.168-0.532,1.168-1.168
					c0-0.637-0.521-1.16-1.168-1.16C142.041,60.498,141.514,61.021,141.514,61.658z"/>
				<path fill="#197E85" d="M162.177,90.882c0,0.647,0.512,1.17,1.16,1.17c0.636,0,1.163-0.523,1.163-1.17
					c0-0.64-0.527-1.161-1.163-1.161C162.688,89.722,162.177,90.242,162.177,90.882z"/>
				<path fill="#197E85" d="M158.766,85.146c0-0.638-0.527-1.151-1.161-1.151c-0.646,0-1.157,0.514-1.157,1.151
					c0,0.645,0.511,1.164,1.157,1.164C158.238,86.311,158.766,85.791,158.766,85.146z"/>
			</g>
			<path fill="#24A4A3" d="M98.726,141.936v-11.943l-1.371,1.171c-5.092,4.335-11.795,4.672-13.727,4.672
				c-0.23,0-0.391-0.007-0.484-0.013c-0.625-0.027-1.203-0.294-1.624-0.749c-0.411-0.461-0.622-1.049-0.606-1.659
				c0.067-1.212,1.098-2.195,2.302-2.195c0.044,0,0.073,0,0.144,0c0.007,0.004,0.096,0.007,0.289,0.007
				c1.158,0,7.205-0.194,11.205-4.015c1.948-1.865,3.184-4.411,3.649-7.568l0.304-2.145l-1.665,1.382
				c-5.066,4.168-11.61,4.492-13.493,4.492c-0.25,0-0.41-0.003-0.541-0.005c-1.271-0.072-2.245-1.143-2.193-2.407
				c0.067-1.198,1.107-2.201,2.294-2.201c0.034,0,0.081,0,0.116,0h0.022c0.052,0.007,0.137,0.007,0.272,0.007
				c1.183,0,7.238-0.198,11.234-4.021c2.396-2.292,3.684-5.543,3.844-9.682l0.096-2.247l-1.536,1.64
				c-4.256,4.562-9.222,5.751-9.44,5.794c-0.141,0.037-0.322,0.06-0.492,0.06c-1.084,0-1.999-0.745-2.242-1.812
				c-0.275-1.233,0.508-2.459,1.744-2.75c0.479-0.11,11.9-2.904,11.9-18.522c0-1.275,1.041-2.309,2.309-2.309
				c0.015,0,0.051,0.005,0.094,0.009l0.092,0.011l0.104-0.011c0.045-0.003,0.074-0.009,0.1-0.009c1.268,0,2.303,1.033,2.303,2.309
				c0,15.448,10.771,17.236,11.234,17.303c1.254,0.176,2.134,1.34,1.953,2.592c-0.145,1.14-1.129,1.997-2.28,1.997
				c-0.108,0-0.208-0.007-0.318-0.021c-0.202-0.026-4.985-0.76-9.153-4.93l-1.478-1.479l0.051,2.088
				c0.124,4.273,1.419,7.625,3.864,9.968c3.994,3.822,10.068,4.021,11.24,4.021c0.16,0,0.246,0,0.26,0l0.094-0.007
				c1.254,0,2.288,0.956,2.346,2.183c0.029,0.619-0.182,1.209-0.6,1.665c-0.406,0.452-0.965,0.727-1.535,0.753l-0.101,0.007
				c-0.022,0-0.182,0.005-0.5,0.005c-1.89,0-8.434-0.324-13.484-4.492l-1.671-1.378l0.31,2.144c0.463,3.155,1.694,5.7,3.642,7.565
				c4.002,3.821,10.053,4.015,11.226,4.015c0.139,0,0.23-0.002,0.274-0.007h0.08c1.268,0,2.302,0.963,2.359,2.19
				c0.029,0.611-0.182,1.202-0.6,1.664c-0.406,0.452-0.971,0.719-1.578,0.749h-0.058c-0.124,0.013-0.282,0.013-0.5,0.013
				c-1.919,0-8.612-0.334-13.702-4.672l-1.375-1.171v11.943H98.726z M141.59,141.936v-8.708l1.386,1.235
				c4.232,3.755,9.667,4.048,11.224,4.048c0.112,0,0.321,0,0.446-0.009c1.052-0.063,1.877-1.042,1.835-2.185
				c-0.05-1.083-0.918-1.992-1.925-1.992l-0.071,0.009c-0.094,0-0.17,0-0.285,0c-0.96,0-6.027-0.174-9.373-3.659
				c-1.574-1.643-2.583-3.856-2.999-6.592l-0.346-2.218l1.711,1.455c4.188,3.591,9.504,3.865,11.007,3.865
				c0.229,0,0.367-0.007,0.439-0.017h0.022c1.049-0.059,1.861-1.033,1.819-2.182c-0.05-1.094-0.908-1.99-1.931-1.99l-0.065,0.006
				c-0.036,0-0.116,0.004-0.262,0.004c-0.97,0-6.051-0.178-9.396-3.657c-1.938-2.02-3.016-4.876-3.207-8.486l-0.112-2.357
				l1.57,1.757c3.488,3.882,7.49,4.954,7.658,4.999c0.123,0.025,0.268,0.047,0.399,0.047c0.9,0,1.68-0.676,1.867-1.636
				c0.228-1.115-0.422-2.237-1.465-2.496c-0.393-0.102-9.947-2.624-9.947-16.849c0-0.558-0.198-1.085-0.562-1.473
				c-0.349-0.394-0.842-0.612-1.359-0.612l0,0l-0.106,0.012l-0.153-0.009l-0.018-0.003c-0.014,0-0.021-0.006-0.035-0.006
				c-1.064,0-1.917,0.943-1.917,2.091c0,14.082-9.013,15.677-9.387,15.736c-1.063,0.166-1.783,1.218-1.645,2.356
				c0.137,1.128,1.1,1.945,2.157,1.789c0.168-0.026,4.054-0.754,7.409-4.24l1.531-1.569l-0.089,2.18
				c-0.138,3.745-1.229,6.689-3.213,8.77c-3.352,3.479-8.426,3.657-9.425,3.657c-0.151,0-0.218-0.004-0.245-0.004l-0.059-0.006
				c-1.027,0.006-1.882,0.873-1.93,1.983c-0.053,1.152,0.772,2.129,1.836,2.188h0.028c0.071,0.01,0.212,0.014,0.407,0.014
				c1.518,0,6.823-0.281,11.015-3.862l1.703-1.455l-0.337,2.218c-0.408,2.736-1.424,4.949-2.994,6.592
				c-3.358,3.485-8.411,3.659-9.387,3.659c-0.154,0-0.219,0-0.24,0h-0.071c-1.042,0-1.912,0.865-1.96,1.98
				c-0.053,1.142,0.764,2.125,1.812,2.188c0.105,0,0.241,0.009,0.46,0.009c1.562,0,7.006-0.293,11.217-4.048l1.405-1.235v8.708
				H141.59z M181.083,141.936v-12.947l1.416,1.211c5.365,4.593,12.448,4.946,14.504,4.946c0.207,0,0.408-0.004,0.545-0.007
				c0.656-0.032,1.24-0.32,1.679-0.798c0.433-0.485,0.66-1.103,0.621-1.752c-0.063-1.293-1.156-2.31-2.488-2.31h-0.069
				c-0.043,0.006-0.129,0.013-0.316,0.013c-1.222,0-7.6-0.208-11.803-4.237c-2.074-1.987-3.368-4.695-3.854-8.056l-0.31-2.163
				l1.702,1.414c5.342,4.428,12.278,4.771,14.264,4.771c0.219,0,0.392-0.003,0.567-0.011c0.663-0.032,1.247-0.319,1.686-0.795
				c0.433-0.485,0.66-1.104,0.621-1.746c-0.063-1.3-1.141-2.315-2.469-2.315l-0.093,0.008c0,0,0,0-0.006,0
				c-0.013,0-0.119,0.003-0.277,0.003c-1.237,0-7.629-0.207-11.832-4.232c-2.596-2.487-3.965-6.043-4.074-10.578l-0.049-2.125
				l1.507,1.518c4.444,4.458,9.652,5.23,9.693,5.245c0.11,0.01,0.198,0.014,0.321,0.014c1.217,0,2.246-0.902,2.425-2.104
				c0.171-1.327-0.759-2.544-2.072-2.725c-0.476-0.083-11.839-2.025-11.839-18.235c0-1.342-1.085-2.428-2.424-2.428
				c-0.037,0-0.063,0-0.109,0.005l-0.097,0.013l-0.091-0.013c-0.041,0-0.074-0.005-0.11-0.005c-1.355,0-2.438,1.086-2.438,2.428
				c0,16.408-12.03,19.396-12.522,19.515c-1.303,0.305-2.14,1.595-1.854,2.9c0.248,1.115,1.23,1.902,2.38,1.902
				c0.177,0,0.349-0.02,0.517-0.058c0.222-0.043,5.46-1.269,9.988-6.148l1.555-1.685l-0.08,2.27
				c-0.154,4.396-1.518,7.858-4.071,10.286c-4.193,4.032-10.574,4.238-11.806,4.238c-0.121,0-0.228-0.003-0.321-0.003
				c-0.041-0.008-0.071-0.011-0.113-0.011c-1.261,0-2.37,1.069-2.426,2.327c-0.061,1.331,0.977,2.474,2.333,2.533
				c0.056,0.006,0.236,0.011,0.537,0.011c1.987,0,8.935-0.343,14.267-4.771l1.696-1.414L175.597,118
				c-0.477,3.36-1.775,6.068-3.87,8.056c-4.193,4.029-10.549,4.237-11.796,4.237c-0.131,0-0.243-0.007-0.301-0.007l-0.064-0.009
				h-0.087c-1.267,0-2.362,1.039-2.418,2.329c-0.061,1.332,0.964,2.468,2.304,2.533c0.078,0.003,0.26,0.007,0.566,0.007
				c2.046,0,9.113-0.353,14.479-4.946l1.405-1.211v12.947H181.083z"/>
		</g>
		<g>
			<g>
				<path fill="#24A4A3" d="M85.429,179.371c-1.15,0-2.088,0.938-2.088,2.088v17.861c0,0.494-0.398,0.9-0.9,0.9H71.64
					c-0.48,0-0.85-0.396-0.85-0.9v-27.057c0-1.107-0.972-2.08-2.082-2.08c-1.14,0-2.092,0.953-2.092,2.08v27.057
					c0,0.494-0.407,0.9-0.898,0.9h-9.907c-0.492,0-0.891-0.406-0.891-0.9v-17.623c0-1.17-0.917-2.092-2.089-2.092
					c-1.168,0-2.082,0.922-2.082,2.092v19.188c0,1.932,1.569,3.508,3.506,3.508h29.752c1.936,0,3.508-1.576,3.508-3.508v-19.426
					C87.515,180.308,86.579,179.371,85.429,179.371z"/>
				<path fill="#24A4A3" d="M112.587,190.505h-5.315c-0.321,0-0.571-0.229-0.571-0.514v-0.379c0-1.076-0.871-1.947-1.935-1.947
					c-1.081,0-1.95,0.871-1.95,1.947v0.379c0,0.301-0.22,0.514-0.525,0.514h-4.73c-1.1,0-1.998,0.916-1.998,2.037
					c0,1.119,0.878,1.996,1.998,1.996h2.082c0.163,0,0.321,0.096,0.41,0.244c0.083,0.152,0.071,0.326-0.022,0.482l-4.5,7.297
					c-0.261,0.42-0.265,0.932-0.025,1.367c0.249,0.436,0.701,0.695,1.201,0.695c1.456,0,2.78-0.766,3.546-2.059l2.232-3.752
					c0.035-0.096,0.106-0.105,0.149-0.105c0.091,0,0.183,0.07,0.183,0.182v6.969c0,1.076,0.869,1.943,1.95,1.943
					c1.063,0,1.935-0.867,1.935-1.943v-7.303c0-0.115,0.119-0.188,0.219-0.188c0.043,0,0.118,0.01,0.171,0.076l1.79,3.236
					c0.676,1.211,1.961,1.963,3.355,1.963c0.48,0,0.906-0.246,1.156-0.666c0.252-0.422,0.252-0.922,0.025-1.346l-3.5-6.41
					c-0.059-0.107-0.021-0.223,0.021-0.295c0.122-0.205,0.432-0.389,0.668-0.389h1.981c1.118,0,1.994-0.877,1.994-1.996
					C114.581,191.421,113.686,190.505,112.587,190.505z"/>
				<path fill="#24A4A3" d="M131.286,195.222c-0.079-0.146-0.079-0.311,0.006-0.449c0.078-0.148,0.242-0.234,0.427-0.234H133
					c1.117,0,1.993-0.877,1.993-1.996c0-1.121-0.896-2.037-1.993-2.037h-4.356c-0.32,0-0.576-0.229-0.576-0.514v-0.379
					c0-1.094-0.834-1.947-1.891-1.947c-1.075,0-1.949,0.871-1.949,1.947v0.379c0,0.285-0.246,0.514-0.563,0.514h-5.701
					c-1.069,0-1.989,0.939-1.989,2.037c0,1.102,0.9,1.996,1.989,1.996h2.46c0.244,0,0.568,0.184,0.701,0.402
					c0.074,0.115,0.08,0.229,0.037,0.33l-3.747,6.537c-0.228,0.42-0.228,0.916,0.021,1.334c0.255,0.428,0.702,0.678,1.208,0.678
					c1.42,0,2.703-0.752,3.356-1.963l1.853-3.225c0.035-0.072,0.104-0.111,0.188-0.111c0.094,0,0.188,0.062,0.188,0.184v7.154
					c0,1.076,0.874,1.943,1.949,1.943c1.057,0,1.891-0.852,1.891-1.943v-7.486c0-0.152,0.109-0.207,0.201-0.207
					c0.076,0,0.145,0.031,0.187,0.088l1.938,3.555c0.728,1.26,2.025,2.012,3.457,2.012c0.501,0,0.949-0.248,1.191-0.67
					c0.247-0.432,0.243-0.949-0.01-1.391L131.286,195.222z"/>
				<path fill="#24A4A3" d="M117.124,184.822v-7.766c0-0.203,0.176-0.312,0.333-0.312c0.093,0,0.188,0.037,0.249,0.104l4.838,4.932
					c1.243,1.238,2.985,1.955,4.768,1.955c0.487,0,0.895-0.281,1.09-0.74c0.182-0.451,0.094-0.945-0.252-1.283l-6.152-6.256
					c-0.096-0.119-0.127-0.26-0.066-0.387c0.059-0.117,0.182-0.193,0.311-0.193h4.203c1.119,0,2.039-0.914,2.039-2.039
					c0-1.123-0.92-2.039-2.039-2.039h-8.608c-0.396,0-0.712-0.314-0.712-0.709v-0.76c0-1.111-0.877-1.988-1.988-1.988
					c-1.123,0-2.035,0.895-2.035,1.988v0.76c0,0.412-0.283,0.709-0.666,0.709h-8.572c-1.129,0-2.045,0.916-2.045,2.039
					c0,1.125,0.916,2.039,2.045,2.039h4.215c0.128,0,0.235,0.064,0.287,0.182c0.047,0.117,0.011,0.248-0.084,0.352l-6.349,6.258
					c-0.365,0.357-0.477,0.869-0.286,1.328c0.191,0.459,0.615,0.74,1.125,0.74c1.82,0,3.525-0.715,4.82-2.004l4.977-4.83
					c0.063-0.066,0.148-0.109,0.238-0.109c0.137,0,0.295,0.109,0.295,0.307v7.725c0,1.125,0.912,2.039,2.035,2.039
					C116.234,186.861,117.124,185.947,117.124,184.822z"/>
				<path fill="#24A4A3" d="M179.479,171.507h-21.846c-0.204,0-0.393-0.1-0.523-0.279c-0.122-0.186-0.16-0.42-0.093-0.598
					l0.616-1.377c0.215-0.516,0.162-1.062-0.131-1.492c-0.28-0.418-0.729-0.66-1.244-0.66c-1.354,0-2.597,0.793-3.267,2.068
					l-0.606,1.422c-0.252,0.631-0.862,0.916-1.334,0.916h-7.35c-1.206,0-2.08,0.875-2.08,2.086c0,1.182,0.874,2.037,2.08,2.037h5.36
					c0.251,0,0.491,0.135,0.63,0.359c0.133,0.201,0.165,0.434,0.081,0.617l-6.828,15.16c-0.205,0.521-0.159,1.07,0.139,1.512
					c0.271,0.4,0.717,0.639,1.195,0.639c1.412,0,2.665-0.805,3.266-2.111l2.171-4.688c0.058-0.119,0.182-0.158,0.273-0.158
					c0.13,0,0.258,0.068,0.258,0.234v19.234c0,1.168,0.812,1.99,1.989,1.99c1.122,0,1.944-0.842,1.944-1.99v-5.213
					c0-0.508,0.521-0.949,0.95-0.949h16.391c0.508,0,0.989,0.457,0.989,0.949v5.213c0,1.168,0.84,1.99,2.039,1.99
					c1.175,0,1.991-0.822,1.991-1.99v-23.357c0-1.918-1.508-3.367-3.504-3.367h-19.094c-0.222,0-0.409-0.1-0.525-0.277
					c-0.122-0.178-0.135-0.402-0.053-0.6l0.997-2.186c0.224-0.566,0.804-1.012,1.335-1.012h23.782c1.158,0,2.042-0.879,2.042-2.037
					C181.521,172.382,180.664,171.507,179.479,171.507z M171.521,187.761h-16.391c-0.47,0-0.95-0.516-0.95-0.996v-2.039
					c0-0.48,0.48-0.992,0.95-0.992h16.391c0.491,0,0.989,0.496,0.989,0.992v2.039C172.511,187.255,172.013,187.761,171.521,187.761z
					 M155.131,191.882h16.391c0.491,0,0.989,0.502,0.989,0.994v2.18c0,0.482-0.481,0.943-0.989,0.943h-16.391
					c-0.43,0-0.95-0.436-0.95-0.943v-2.18C154.181,192.398,154.661,191.882,155.131,191.882z"/>
				<path fill="#24A4A3" d="M223.164,188.847h-5.643c-0.177,0-0.348-0.098-0.464-0.26c-0.129-0.17-0.169-0.389-0.106-0.576
					l0.809-2.461c0.157-0.459,0.083-0.973-0.212-1.389c-0.293-0.416-0.768-0.666-1.253-0.666c-1.284,0-2.399,0.795-2.841,2.021
					l-0.854,2.465c-0.191,0.525-0.656,0.865-1.183,0.865h-7.399c-0.538,0-1.049-0.354-1.231-0.865l-0.945-2.465
					c-0.436-1.207-1.601-2.021-2.888-2.021c-0.502,0-0.953,0.23-1.251,0.643c-0.3,0.418-0.383,0.965-0.211,1.455l0.897,2.418
					c0.062,0.203,0.037,0.42-0.089,0.596c-0.119,0.154-0.287,0.24-0.479,0.24h-5.738c-1.094,0-1.986,0.916-1.986,2.043
					c0,1.121,0.893,2.035,1.986,2.035h12.602c0.501,0,0.903,0.373,0.903,0.85v2.793c0,0.502-0.412,0.902-0.903,0.902h-8.81
					c-1.158,0-2.089,0.916-2.089,2.041c0,1.172,0.917,2.084,2.089,2.084h8.81c0.501,0,0.903,0.373,0.903,0.852v3.93
					c0,1.152,0.91,2.088,2.032,2.088c1.165,0,2.086-0.918,2.086-2.088v-3.93c0-0.496,0.36-0.852,0.857-0.852h8.855
					c1.122,0,2.039-0.939,2.039-2.084c0-1.125-0.917-2.041-2.039-2.041h-8.855c-0.481,0-0.857-0.393-0.857-0.902v-2.793
					c0-0.49,0.36-0.85,0.857-0.85h12.601c1.119,0,2.039-0.914,2.039-2.035C225.203,189.763,224.283,188.847,223.164,188.847z"/>
				<path fill="#24A4A3" d="M224.346,178.097h-13.782c-0.469,0-0.857-0.387-0.857-0.857v-1.848c0-0.492,0.36-0.848,0.857-0.848
					h10.186c1.099,0,2.043-0.957,2.043-2.09c0-1.148-0.918-2.082-2.043-2.082h-10.479c-0.341,0-0.564-0.207-0.564-0.52v-0.334
					c0-1.168-0.921-2.088-2.086-2.088c-1.122,0-2.032,0.939-2.032,2.088v0.334c0,0.289-0.254,0.52-0.571,0.52h-10.518
					c-1.122,0-2.039,0.934-2.039,2.082c0,1.133,0.934,2.09,2.039,2.09h10.186c0.515,0,0.903,0.363,0.903,0.848v1.848
					c0,0.465-0.415,0.857-0.903,0.857h-13.788c-1.152,0-2.08,0.91-2.08,2.033c0,1.17,0.912,2.084,2.08,2.084h33.449
					c1.171,0,2.084-0.914,2.084-2.084C226.43,179.007,225.496,178.097,224.346,178.097z"/>
			</g>
			<g>
				<path fill="#24A4A3" d="M60.6,221.907l2.369,0.749c-0.361,1.323-0.96,2.304-1.81,2.942c-0.846,0.641-1.918,0.96-3.212,0.96
					c-1.606,0-2.925-0.548-3.963-1.643c-1.031-1.099-1.555-2.6-1.555-4.5c0-2.013,0.525-3.576,1.573-4.691
					c1.033-1.111,2.396-1.67,4.091-1.67c1.475,0,2.679,0.439,3.606,1.312c0.545,0.514,0.965,1.254,1.237,2.228l-2.412,0.573
					c-0.146-0.619-0.452-1.118-0.903-1.482c-0.451-0.361-1.002-0.545-1.654-0.545c-0.895,0-1.617,0.322-2.178,0.962
					c-0.557,0.645-0.839,1.687-0.839,3.128c0,1.531,0.275,2.621,0.829,3.27c0.545,0.648,1.265,0.971,2.137,0.971
					c0.652,0,1.211-0.201,1.682-0.613C60.063,223.445,60.39,222.793,60.6,221.907z"/>
				<path fill="#24A4A3" d="M69.721,214.263v4.442c0.753-0.874,1.646-1.311,2.681-1.311c0.538,0,1.019,0.097,1.449,0.292
					c0.43,0.201,0.746,0.459,0.971,0.763c0.215,0.31,0.367,0.648,0.442,1.025c0.083,0.373,0.116,0.954,0.116,1.738v5.137h-2.323
					v-4.626c0-0.916-0.038-1.497-0.122-1.752c-0.09-0.243-0.242-0.441-0.465-0.586c-0.229-0.146-0.502-0.215-0.84-0.215
					c-0.387,0-0.729,0.093-1.033,0.274c-0.299,0.197-0.524,0.472-0.663,0.852c-0.142,0.372-0.213,0.933-0.213,1.666v4.387h-2.312
					v-12.087H69.721z"/>
				<path fill="#24A4A3" d="M81.837,220.266l-2.105-0.381c0.237-0.846,0.642-1.474,1.224-1.879c0.571-0.412,1.429-0.611,2.567-0.611
					c1.036,0,1.807,0.119,2.312,0.366c0.508,0.245,0.859,0.556,1.07,0.932c0.202,0.376,0.31,1.069,0.31,2.075l-0.027,2.706
					c0,0.771,0.033,1.339,0.111,1.705c0.073,0.363,0.213,0.756,0.418,1.171h-2.295c-0.058-0.147-0.137-0.382-0.229-0.68
					c-0.039-0.141-0.062-0.23-0.076-0.273c-0.398,0.387-0.818,0.678-1.27,0.867c-0.456,0.192-0.936,0.285-1.446,0.285
					c-0.894,0-1.606-0.241-2.132-0.733c-0.518-0.487-0.777-1.104-0.777-1.857c0-0.491,0.121-0.933,0.355-1.319
					c0.234-0.39,0.569-0.688,0.986-0.891c0.431-0.208,1.046-0.387,1.846-0.541c1.083-0.204,1.84-0.396,2.258-0.567v-0.235
					c0-0.444-0.111-0.759-0.33-0.952c-0.218-0.188-0.639-0.281-1.25-0.281c-0.408,0-0.729,0.079-0.956,0.24
					C82.163,219.574,81.98,219.861,81.837,220.266z M84.937,222.148c-0.296,0.099-0.768,0.218-1.414,0.352
					c-0.641,0.14-1.064,0.275-1.264,0.404c-0.295,0.217-0.447,0.488-0.447,0.82c0,0.325,0.122,0.601,0.361,0.839
					c0.244,0.235,0.544,0.356,0.921,0.356c0.415,0,0.815-0.14,1.198-0.412c0.278-0.208,0.467-0.462,0.55-0.77
					c0.058-0.198,0.095-0.574,0.095-1.128V222.148z"/>
				<path fill="#24A4A3" d="M99.825,226.35h-2.312v-4.47c0-0.94-0.052-1.554-0.151-1.832c-0.095-0.276-0.262-0.494-0.482-0.646
					c-0.227-0.159-0.484-0.231-0.799-0.231c-0.4,0-0.764,0.109-1.085,0.327c-0.318,0.217-0.541,0.512-0.658,0.874
					c-0.112,0.359-0.179,1.033-0.179,2.012v3.966h-2.317v-8.756h2.154v1.286c0.77-0.992,1.724-1.485,2.891-1.485
					c0.513,0,0.979,0.09,1.407,0.275c0.42,0.188,0.736,0.419,0.96,0.709c0.206,0.28,0.366,0.604,0.45,0.968
					c0.083,0.362,0.121,0.883,0.121,1.563V226.35z"/>
				<path fill="#24A4A3" d="M104.335,226.931l2.647,0.32c0.045,0.311,0.144,0.525,0.304,0.634c0.22,0.168,0.564,0.252,1.036,0.252
					c0.608,0,1.064-0.091,1.362-0.272c0.209-0.121,0.361-0.32,0.468-0.583c0.071-0.194,0.102-0.552,0.102-1.068v-1.275
					c-0.689,0.941-1.565,1.412-2.623,1.412c-1.178,0-2.108-0.494-2.796-1.487c-0.54-0.785-0.805-1.77-0.805-2.943
					c0-1.462,0.353-2.586,1.055-3.358c0.705-0.778,1.586-1.166,2.641-1.166c1.084,0,1.979,0.477,2.686,1.424v-1.225h2.168v7.86
					c0,1.035-0.086,1.807-0.263,2.322c-0.173,0.507-0.405,0.913-0.716,1.2c-0.304,0.29-0.722,0.521-1.231,0.688
					c-0.515,0.16-1.167,0.246-1.954,0.246c-1.479,0-2.537-0.26-3.158-0.763c-0.623-0.514-0.932-1.157-0.932-1.938
					C104.325,227.136,104.327,227.038,104.335,226.931z M106.401,221.792c0,0.931,0.18,1.609,0.537,2.042
					c0.363,0.436,0.81,0.646,1.33,0.646c0.576,0,1.049-0.213,1.439-0.662c0.393-0.441,0.589-1.095,0.589-1.968
					c0-0.903-0.19-1.58-0.559-2.021c-0.378-0.439-0.845-0.656-1.426-0.656c-0.55,0-1.011,0.215-1.374,0.644
					C106.581,220.248,106.401,220.903,106.401,221.792z"/>
				<path fill="#24A4A3" d="M122.303,223.566l2.311,0.39c-0.291,0.843-0.766,1.487-1.403,1.933
					c-0.643,0.444-1.444,0.661-2.403,0.661c-1.526,0-2.653-0.496-3.381-1.492c-0.579-0.791-0.87-1.802-0.87-3.016
					c0-1.455,0.379-2.589,1.141-3.412c0.754-0.824,1.717-1.234,2.877-1.234c1.309,0,2.328,0.431,3.083,1.291
					c0.756,0.858,1.112,2.182,1.081,3.96h-5.806c0.015,0.683,0.208,1.217,0.561,1.6c0.365,0.384,0.808,0.571,1.34,0.571
					c0.362,0,0.668-0.097,0.91-0.291C121.989,224.321,122.181,224.005,122.303,223.566z M122.436,221.224
					c-0.015-0.674-0.183-1.182-0.524-1.531c-0.33-0.346-0.725-0.521-1.197-0.521c-0.506,0-0.926,0.179-1.252,0.548
					c-0.328,0.369-0.494,0.867-0.49,1.505H122.436z"/>
				<path fill="#24A4A3" d="M138.942,226.35v-5.084l-4.435-7.003h2.866l2.842,4.782l2.789-4.782h2.817l-4.447,7.018v5.069H138.942z"
					/>
				<path fill="#24A4A3" d="M147.594,221.849c0-0.768,0.188-1.516,0.568-2.236c0.383-0.718,0.914-1.271,1.617-1.648
					c0.688-0.383,1.464-0.569,2.328-0.569c1.324,0,2.405,0.431,3.251,1.291c0.848,0.858,1.27,1.951,1.27,3.265
					c0,1.325-0.425,2.421-1.279,3.292c-0.855,0.874-1.928,1.307-3.228,1.307c-0.805,0-1.571-0.182-2.296-0.542
					c-0.733-0.363-1.28-0.894-1.663-1.6C147.782,223.708,147.594,222.857,147.594,221.849z M149.969,221.972
					c0,0.868,0.202,1.535,0.618,1.996c0.412,0.466,0.921,0.693,1.521,0.693c0.604,0,1.119-0.228,1.524-0.693
					c0.416-0.461,0.614-1.128,0.614-2.016c0-0.851-0.198-1.512-0.614-1.98c-0.405-0.454-0.92-0.688-1.524-0.688
					c-0.6,0-1.108,0.234-1.521,0.688C150.171,220.441,149.969,221.105,149.969,221.972z"/>
				<path fill="#24A4A3" d="M166.579,226.35v-1.309c-0.319,0.472-0.735,0.834-1.254,1.104c-0.522,0.269-1.068,0.404-1.652,0.404
					s-1.112-0.13-1.577-0.389c-0.472-0.259-0.809-0.618-1.017-1.086c-0.209-0.466-0.313-1.116-0.313-1.938v-5.543h2.317v4.028
					c0,1.229,0.042,1.983,0.128,2.261c0.081,0.276,0.234,0.497,0.462,0.659c0.23,0.165,0.515,0.245,0.864,0.245
					c0.393,0,0.749-0.108,1.059-0.32c0.32-0.228,0.524-0.495,0.646-0.816c0.115-0.319,0.168-1.11,0.168-2.364v-3.692h2.324v8.756
					H166.579z"/>
				<path fill="#24A4A3" d="M175.719,226.35h-2.316v-8.756h2.15v1.243c0.371-0.59,0.698-0.977,0.997-1.164
					c0.29-0.185,0.624-0.278,0.994-0.278c0.531,0,1.046,0.153,1.53,0.437l-0.712,2.025c-0.396-0.257-0.761-0.382-1.09-0.382
					c-0.326,0-0.604,0.089-0.825,0.267c-0.228,0.182-0.399,0.503-0.536,0.971c-0.129,0.468-0.192,1.444-0.192,2.933V226.35z"/>
				<path fill="#24A4A3" d="M189.577,226.35v-11.987h2.444v9.952h6.067v2.035H189.577z"/>
				<path fill="#24A4A3" d="M202.184,216.408v-2.145h2.322v2.145H202.184z M202.184,226.35v-8.756h2.322v8.756H202.184z"/>
				<path fill="#24A4A3" d="M208.231,217.594h1.28v-0.659c0-0.736,0.081-1.287,0.243-1.654c0.149-0.357,0.442-0.656,0.865-0.883
					c0.414-0.23,0.949-0.344,1.597-0.344c0.66,0,1.311,0.1,1.933,0.295l-0.312,1.615c-0.374-0.084-0.724-0.129-1.066-0.129
					c-0.336,0-0.574,0.076-0.719,0.238c-0.146,0.154-0.222,0.457-0.222,0.9v0.62h1.731v1.82h-1.731v6.936h-2.318v-6.936h-1.28
					V217.594z"/>
				<path fill="#24A4A3" d="M222.307,223.566l2.31,0.39c-0.293,0.843-0.763,1.487-1.405,1.933c-0.637,0.444-1.446,0.661-2.409,0.661
					c-1.521,0-2.646-0.496-3.378-1.492c-0.575-0.791-0.869-1.802-0.869-3.016c0-1.455,0.38-2.589,1.139-3.412
					c0.763-0.824,1.723-1.234,2.881-1.234c1.307,0,2.326,0.431,3.089,1.291c0.758,0.858,1.11,2.182,1.082,3.96h-5.812
					c0.012,0.683,0.205,1.217,0.559,1.6c0.363,0.384,0.801,0.571,1.339,0.571c0.36,0,0.666-0.097,0.918-0.291
					C221.996,224.321,222.182,224.005,222.307,223.566z M222.441,221.224c-0.017-0.674-0.188-1.182-0.527-1.531
					c-0.33-0.346-0.729-0.521-1.198-0.521c-0.508,0-0.924,0.179-1.254,0.548c-0.323,0.369-0.502,0.867-0.488,1.505H222.441z"/>
			</g>
		</g>
	</g>
</g>
</svg>
