<?xml version="1.0" encoding="utf-8"?>
<!-- Generator: Adobe Illustrator 16.0.0, SVG Export Plug-In . SVG Version: 6.00 Build 0)  -->
<!DOCTYPE svg PUBLIC "-//W3C//DTD SVG 1.1//EN" "http://www.w3.org/Graphics/SVG/1.1/DTD/svg11.dtd">
<svg version="1.1" id="圖層_1" xmlns="http://www.w3.org/2000/svg" xmlns:xlink="http://www.w3.org/1999/xlink" x="0px" y="0px"
	 width="110px" height="90px" viewBox="0 0 110 90" enable-background="new 0 0 110 90" xml:space="preserve">
<g>
	<g>
		<path fill="#007E85" d="M90.008,36.024v42.633c0,0.97-0.789,1.758-1.758,1.758H9.376c-0.97,0-1.758-0.788-1.758-1.758V27.565
			c0-0.969,0.788-1.758,1.758-1.758h64.118c0.061-2.069,0.701-4.113,1.927-5.748H9.376c-4.139,0-7.506,3.367-7.506,7.506v51.092
			c0,4.139,3.367,7.506,7.506,7.506H88.25c4.139,0,7.505-3.367,7.505-7.506V31.672C94.632,33.775,92.719,35.435,90.008,36.024z"/>
	</g>
	<g>
		<g>
			<path fill="#007E85" d="M75.12,50.796c-1.729,0-3.354-0.673-4.576-1.896l-7.476-7.476c-1.223-1.223-1.896-2.848-1.896-4.577
				s0.674-3.354,1.896-4.576L89.609,5.731c1.223-1.222,2.849-1.895,4.576-1.895l0,0c1.729,0,3.354,0.673,4.575,1.895l7.476,7.476
				c2.523,2.522,2.523,6.628,0,9.151L79.695,48.9C78.475,50.123,76.85,50.796,75.12,50.796z M94.186,9.111
				c-0.185,0-0.541,0.045-0.846,0.351l-26.542,26.54c-0.305,0.306-0.35,0.662-0.35,0.846c0,0.186,0.045,0.542,0.35,0.846
				l7.476,7.477c0.306,0.304,0.662,0.351,0.847,0.351s0.542-0.045,0.847-0.351l26.541-26.542c0.467-0.466,0.467-1.225,0-1.692
				l-7.476-7.476C94.727,9.157,94.372,9.111,94.186,9.111z"/>
		</g>
		<g>
			<path fill="#007E85" d="M57.376,57.068c-0.692,0-1.372-0.272-1.876-0.782c-0.711-0.72-0.948-1.781-0.611-2.734l6.061-17.115
				c0.487-1.374,1.995-2.091,3.366-1.606c1.373,0.487,2.093,1.994,1.606,3.367L61.68,50.176l12.119-4.138
				c1.381-0.472,2.877,0.267,3.348,1.644c0.473,1.379-0.265,2.879-1.643,3.348l-17.275,5.9
				C57.949,57.023,57.661,57.068,57.376,57.068z"/>
		</g>
	</g>
	<g>
		<path id="XMLID_12_" fill="#007E85" d="M47.552,39.399c0-0.892-0.723-1.615-1.613-1.615H18.516c-0.891,0-1.613,0.723-1.613,1.615
			s0.723,1.615,1.613,1.615h27.423C46.83,41.014,47.552,40.291,47.552,39.399z"/>
		<path id="XMLID_13_" fill="#007E85" d="M47.552,53.111c0-0.893-0.723-1.614-1.613-1.614H18.516c-0.891,0-1.613,0.722-1.613,1.614
			c0,0.892,0.723,1.613,1.613,1.613h27.423C46.83,54.727,47.552,54.003,47.552,53.111z"/>
		<path id="XMLID_14_" fill="#007E85" d="M47.552,66.824c0-0.893-0.723-1.614-1.613-1.614H18.516c-0.891,0-1.613,0.724-1.613,1.614
			c0,0.892,0.723,1.615,1.613,1.615h27.423C46.83,68.438,47.552,67.716,47.552,66.824z"/>
	</g>
</g>
</svg>
