<?xml version="1.0" encoding="utf-8"?>
<!-- Generator: Adobe Illustrator 16.0.0, SVG Export Plug-In . SVG Version: 6.00 Build 0)  -->
<!DOCTYPE svg PUBLIC "-//W3C//DTD SVG 1.1//EN" "http://www.w3.org/Graphics/SVG/1.1/DTD/svg11.dtd">
<svg version="1.1" xmlns="http://www.w3.org/2000/svg" xmlns:xlink="http://www.w3.org/1999/xlink" x="0px" y="0px" width="1920px"
	 height="750px" viewBox="0 0 1920 750" enable-background="new 0 0 1920 750" xml:space="preserve">
<g id="圖層_1">
	<rect x="-26.918" y="-32.227" display="none" fill="#B0DBDE" width="2016.129" height="1696.638"/>
	
		<rect x="360" y="-70.35" display="none" fill="none" stroke="#E60012" stroke-width="3" stroke-miterlimit="10" width="1200" height="1784.351"/>
	<g>
		<g>
			<path fill="#61BB98" d="M1038.405,165.218c-8.859,0-71.96,111.732-71.96,111.732h143.92
				C1110.365,276.95,1047.269,165.218,1038.405,165.218z"/>
			<path fill="#FFFFFF" d="M1025.214,188.127c0,0-1.871,9.044,3.74,10.852c5.609,1.808,8.469-10.649,8.469-10.649
				s4.134,11.955,10.039,10.448c5.908-1.509,1.971-11.855,1.971-11.855s4.169,9.995,11.812,7.646
				c-10.766-16.736-19.864-29.351-22.84-29.351c-3.146,0-13.115,14.069-24.68,32.221
				C1017.866,198.546,1025.214,188.127,1025.214,188.127z"/>
		</g>
		<g>
			<g>
				
					<line fill="none" stroke="#FFFFFF" stroke-width="3" stroke-linecap="round" stroke-linejoin="round" stroke-miterlimit="10" x1="1049.134" y1="187.991" x2="1071.001" y2="230.836"/>
				
					<line fill="none" stroke="#FFFFFF" stroke-width="3" stroke-linecap="round" stroke-linejoin="round" stroke-miterlimit="10" x1="1037.407" y1="189.116" x2="1037.485" y2="223.336"/>
				
					<line fill="none" stroke="#FFFFFF" stroke-width="3" stroke-linecap="round" stroke-linejoin="round" stroke-miterlimit="10" x1="1026.312" y1="187.04" x2="1010.845" y2="224.312"/>
			</g>
		</g>
		<g>
			<path fill="#4C8E67" d="M1263.967,397.509c-8.696,0-70.61,109.633-70.61,109.633h141.218
				C1334.574,507.142,1272.66,397.509,1263.967,397.509z"/>
			<path fill="#FFFFFF" d="M1251.02,419.988c0,0-1.833,8.872,3.672,10.645c5.506,1.776,8.312-10.448,8.312-10.448
				s4.057,11.732,9.854,10.255c5.793-1.479,1.929-11.635,1.929-11.635s4.094,9.812,11.594,7.505
				c-10.568-16.427-19.492-28.801-22.412-28.801c-3.087,0-12.874,13.805-24.216,31.615
				C1243.814,430.209,1251.02,419.988,1251.02,419.988z"/>
		</g>
		<g>
			<g>
				
					<line fill="none" stroke="#FFFFFF" stroke-width="3" stroke-linecap="round" stroke-linejoin="round" stroke-miterlimit="10" x1="1263.2" y1="418.805" x2="1262.199" y2="470.855"/>
				
					<line fill="none" stroke="#FFFFFF" stroke-width="3" stroke-linecap="round" stroke-linejoin="round" stroke-miterlimit="10" x1="1274.785" y1="418.805" x2="1295.994" y2="459.612"/>
				
					<line fill="none" stroke="#FFFFFF" stroke-width="3" stroke-linecap="round" stroke-linejoin="round" stroke-miterlimit="10" x1="1250.414" y1="421.305" x2="1232.998" y2="459.612"/>
			</g>
		</g>
		<g>
			<g>
				<path fill="#AABD00" d="M679.201,446.852c0-0.05,0-0.095,0-0.141c0-39.562,7.501-71.633,16.749-71.633
					c9.252,0,16.749,32.071,16.749,71.633c0,0.046,0,0.091,0,0.141H679.201z"/>
				<polygon fill="#C3C000" points="707.973,431.562 697.954,443.349 698.044,446.852 694.722,446.852 695.147,432.249 
					684.881,420.17 695.259,428.501 696.03,402.105 691.28,396.512 696.083,400.373 696.481,386.828 697.14,412.1 702.827,407.535 
					697.191,414.162 697.856,439.684 				"/>
			</g>
			<g>
				<path fill="#7AB80A" d="M665.062,446.852c0.042-29.791,5.703-53.887,12.682-53.887c6.976,0,12.636,24.097,12.679,53.887H665.062
					z"/>
				<polygon fill="#9CC730" points="686.849,435.727 679.259,444.654 679.312,446.852 676.825,446.852 677.135,436.249 
					669.362,427.103 677.217,433.414 677.803,413.43 674.202,409.195 677.842,412.116 678.142,401.86 678.64,420.993 
					682.949,417.537 678.683,422.556 679.185,441.875 				"/>
			</g>
		</g>
		<path fill="#839F00" d="M1226.796,251.639c26.837,0,52.005,1.709,73.714,4.698c-15.07,1.741-43.604,2.918-76.327,2.918
			c-30.689,0-57.692-1.035-73.364-2.602C1173.033,253.47,1199.02,251.639,1226.796,251.639z"/>
		<g>
			<path fill="#4A8028" d="M1173.954,253.833c0.092-39.552,7.614-71.498,16.884-71.498s16.79,31.946,16.881,71.498H1173.954z"/>
			<polygon fill="#9EC92F" points="1202.959,239.269 1192.855,251.159 1192.926,253.833 1189.621,253.833 1190.027,239.965 
				1179.677,227.79 1190.139,236.187 1190.919,209.581 1186.126,203.941 1190.971,207.829 1191.371,194.177 1192.033,219.654 
				1197.769,215.051 1192.088,221.734 1192.758,247.459 			"/>
		</g>
		<g>
			<path fill="#60A32B" d="M1202.207,253.833c0.042-29.043,5.559-52.53,12.36-52.53c6.801,0,12.318,23.487,12.36,52.53H1202.207z"/>
			<polygon fill="#9EC92F" points="1223.441,242.988 1216.044,251.691 1216.1,253.833 1213.672,253.833 1213.974,243.498 
				1206.396,234.581 1214.054,240.73 1214.628,221.25 1211.117,217.122 1214.664,219.969 1214.957,209.973 1215.443,228.625 
				1219.642,225.254 1215.484,230.145 1215.975,248.985 			"/>
		</g>
		<g>
			<circle fill="#F2F7F3" cx="1251.99" cy="156.008" r="14.092"/>
			<g>
				<g>
					<path fill="#F7CC5E" d="M1290.964,254.068c0,0-30.77-36.993-38.973-58.255c-8.205,21.262-38.975,58.255-38.975,58.255H1290.964
						z"/>
					<path fill="#717071" d="M1257.052,254.068c0,0-3.996-24.122-5.061-37.985c-1.064,13.863-5.061,37.985-5.061,37.985H1257.052z"
						/>
					<path fill="#F1A900" d="M1251.991,195.813c0,0-0.35,31.742,14.658,56.193l-9.598,2.062
						C1257.052,254.068,1249.548,212.756,1251.991,195.813z"/>
					<path fill="#F1A900" d="M1252.114,195.813c0,0,0.348,31.742-14.66,56.193l9.598,2.062
						C1247.052,254.068,1254.556,212.756,1252.114,195.813z"/>
					<path fill="#F1A900" d="M1258.013,205.914c0,0-4.754-6.718-6.021-10.579c-1.27,3.861-6.021,10.579-6.021,10.579H1258.013z"/>
				</g>
			</g>
			<path fill="#E66324" d="M1251.992,136.567c-10.089,0-18.268,8.181-18.268,18.269c0,10.087,18.268,31.873,18.268,31.873
				s18.264-21.786,18.264-31.873C1270.256,144.748,1262.078,136.567,1251.992,136.567z M1251.992,164.063
				c-5.099,0-9.229-4.132-9.229-9.228c0-5.098,4.13-9.229,9.229-9.229c5.096,0,9.229,4.131,9.229,9.229
				C1261.221,159.931,1257.088,164.063,1251.992,164.063z"/>
		</g>
		<path fill="#839F00" d="M1342.975,297.536c41.43,0,80.283,2.062,113.795,5.669c-23.264,2.101-67.314,3.521-117.832,3.521
			c-47.377,0-89.064-1.249-113.256-3.139C1259.977,299.745,1300.094,297.536,1342.975,297.536z"/>
		<g>
			<g>
				<path fill="none" stroke="#23A098" stroke-width="3" stroke-linecap="round" stroke-linejoin="round" d="M1279.597,388.669
					c0,0-2.151,0.044-5.995,0.107"/>
				
					<path fill="none" stroke="#23A098" stroke-width="3" stroke-linecap="round" stroke-linejoin="round" stroke-dasharray="12.1042,12.1042" d="
					M1261.503,388.947c-36.843,0.446-119.971,0.809-154.187-4.303c-46.202-6.906-21.898-23.906,13.754-26.773
					c35.656-2.865,220.24,9.983,220.236-6.919c-0.004-17.076-245.433-1.688-227.143-15.561
					c18.289-13.872,211.348,1.833,185.276-14.064c0,0-14.388-4.021-37.426-4.226"/>
				<path fill="none" stroke="#23A098" stroke-width="3" stroke-linecap="round" stroke-linejoin="round" d="M1255.953,317.136
					c-1.949,0.04-3.95,0.108-6,0.208"/>
			</g>
		</g>
		<path fill="#85A100" d="M1479.455,310.477c0,1.491-6.06,2.7-13.537,2.7c-7.475,0-13.533-1.209-13.533-2.7
			c0-1.496,6.059-2.705,13.533-2.705C1473.396,307.772,1479.455,308.981,1479.455,310.477z"/>
		<path fill="#85A100" d="M472.245,478.034c0,2.36-9.584,4.272-21.412,4.272c-11.823,0-21.406-1.912-21.406-4.272
			c0-2.366,9.583-4.278,21.406-4.278C462.661,473.755,472.245,475.667,472.245,478.034z"/>
		<ellipse fill="#85A100" cx="1347.976" cy="393.922" rx="18.595" ry="3.712"/>
		<ellipse fill="#85A100" cx="1371.072" cy="583.183" rx="18.595" ry="3.712"/>
		<g>
			<g>
				
					<rect x="1179.245" y="341.768" transform="matrix(0.8353 0.5498 -0.5498 0.8353 385.5369 -596.053)" fill="#66534E" width="16.772" height="7.397"/>
				
					<rect x="1180.943" y="342.278" transform="matrix(-0.8352 -0.5499 0.5499 -0.8352 1994.0784 1283.3989)" fill="#463835" width="16.722" height="1.383"/>
			</g>
			<g>
				
					<rect x="1167.33" y="331.837" transform="matrix(0.8353 0.5498 -0.5498 0.8353 379.23 -590.767)" fill="#AEACAA" width="16.769" height="11.569"/>
				<polygon fill="#878583" points="1175.374,330.474 1174.547,333.611 1183.907,340.429 1183.907,340.429 1185.899,337.401 				"/>
			</g>
			<g>
				
					<rect x="1119.103" y="285.056" transform="matrix(0.8352 0.5499 -0.5499 0.8352 350.692 -567.9617)" fill="#AEACAA" width="8.097" height="32.385"/>
				<polygon fill="#878583" points="1128.674,285.498 1122.022,295.599 1122.022,295.599 1128.487,300.354 1128.979,299.757 
					1135.437,289.949 				"/>
			</g>
			<g>
				<polygon fill="#66534E" points="1133.316,293.17 1119.748,313.78 1168.571,342.69 1177.898,328.52 				"/>
				<polygon fill="#453631" points="1133.316,293.17 1128.555,300.403 1174.547,333.611 1174.549,333.61 1177.898,328.52 				"/>
			</g>
		</g>
		<g>
			<path fill="#321622" d="M1235.646,294.192h-54.489c-3.712,0-6.723-2.472-6.723-5.522v-6.234c0-3.049,3.011-5.519,6.723-5.519
				h54.489c3.71,0,6.721,2.47,6.721,5.519v6.234C1242.366,291.72,1239.355,294.192,1235.646,294.192z"/>
			<g>
				<path fill="#F1A900" d="M1208.35,283.034c3.803,0.001,6.885,3.076,6.903,6.873l3.487,0c-0.016-5.721-4.662-10.359-10.389-10.361
					c-5.729,0-10.375,4.63-10.396,10.354l3.488,0.002C1201.463,286.105,1204.548,283.031,1208.35,283.034z"/>
				<path fill="#F1A900" d="M1233.751,372.436c2.835,0,5.135-2.3,5.135-5.136v-72.987c0-2.837-2.3-5.137-5.135-5.137h-50.806
					c-2.836,0-5.135,2.3-5.135,5.137V367.3c0,2.836,2.299,5.136,5.135,5.136H1233.751z"/>
				<path fill="#DB4B43" d="M1189.895,294.132h-2.75c-1.347,0-2.438-1.091-2.438-2.437v-14.371c0-1.346,1.091-2.436,2.438-2.436
					h2.75c1.348,0,2.438,1.09,2.438,2.436v14.371C1192.332,293.041,1191.242,294.132,1189.895,294.132z"/>
				<path fill="#F1A900" d="M1189.895,294.132h-2.75c-1.347,0-2.438-1.091-2.438-2.437v-14.371c0-1.346,1.091-2.436,2.438-2.436
					h2.75c1.348,0,2.438,1.09,2.438,2.436v14.371C1192.332,293.041,1191.242,294.132,1189.895,294.132z"/>
				<path fill="#F1A900" d="M1230.562,293.95h-2.754c-1.345,0-2.436-1.091-2.436-2.437v-14.371c0-1.344,1.091-2.436,2.436-2.436
					h2.754c1.344,0,2.436,1.092,2.436,2.436v14.371C1232.998,292.858,1231.906,293.95,1230.562,293.95z"/>
				<defs>
					<filter id="Adobe_OpacityMaskFilter" filterUnits="userSpaceOnUse" x="1177.725" y="289.411" width="61.117" height="39.383">
						<feFlood  style="flood-color:white;flood-opacity:1" result="back"/>
						<feBlend  in="SourceGraphic" in2="back" mode="normal"/>
					</filter>
				</defs>
				<mask maskUnits="userSpaceOnUse" x="1177.725" y="289.411" width="61.117" height="39.383" id="SVGID_1_">
				</mask>
				<path mask="url(#SVGID_1_)" fill="#BE7D00" d="M1238.834,295.993c0-3.637-2.301-6.582-5.136-6.582h-50.804
					c-2.837,0-5.139,2.945-5.139,6.582c0,0-2.178,32.801,30.137,32.801S1238.834,295.993,1238.834,295.993z"/>
				<path fill="#F1A900" d="M1239.068,294.313c0-2.837-2.299-5.137-5.139-5.137h-50.803c-2.836,0-5.139,2.3-5.139,5.137
					c0,0-2.176,25.598,30.139,25.598C1240.439,319.911,1239.068,294.313,1239.068,294.313z"/>
				<g>
					<g>
						<path fill="#321622" d="M1192.133,296.451L1192.133,296.451c-1.68,0-3.043,1.361-3.043,3.041v39.966l3.153,2.276l2.93-2.276
							v-39.966C1195.173,297.812,1193.809,296.451,1192.133,296.451z"/>
					</g>
					<g>
						<path fill="#E1DEC7" d="M1196.443,330.572v-6.869c0-0.673-0.543-1.217-1.216-1.217h-6.351c-0.673,0-1.216,0.543-1.216,1.217
							v6.869c0,0.67,0.738,1.215,1.411,1.215l-0.006-7.946h6.133l-0.016,7.946C1195.855,331.787,1196.443,331.242,1196.443,330.572z
							"/>
					</g>
					<g>
						<path fill="#E1DEC7" d="M1192.087,326.797c0.505,0,0.917-0.412,0.917-0.918v-2.457c0-0.506-0.412-0.918-0.917-0.918h-0.019
							c-0.505,0-0.918,0.412-0.918,0.918v2.457c0,0.506,0.413,0.918,0.918,0.918H1192.087z"/>
					</g>
				</g>
				<g>
					<g>
						<path fill="#321622" d="M1224.805,296.451L1224.805,296.451c-1.68,0-3.042,1.361-3.042,3.041v39.966l3.154,2.276l2.928-2.276
							v-39.966C1227.845,297.812,1226.484,296.451,1224.805,296.451z"/>
					</g>
					<g>
						<path fill="#E1DEC7" d="M1229.118,330.572v-6.869c0-0.673-0.546-1.217-1.214-1.217h-6.355c-0.67,0-1.216,0.543-1.216,1.217
							v6.869c0,0.67,0.741,1.215,1.413,1.215l-0.007-7.946h6.132l-0.014,7.946C1228.527,331.787,1229.118,331.242,1229.118,330.572z
							"/>
					</g>
					<g>
						<path fill="#E1DEC7" d="M1224.761,326.797c0.505,0,0.916-0.412,0.916-0.918v-2.457c0-0.506-0.411-0.918-0.916-0.918h-0.021
							c-0.506,0-0.915,0.412-0.915,0.918v2.457c0,0.506,0.409,0.918,0.915,0.918H1224.761z"/>
					</g>
				</g>
				<g>
					<path fill="#BE7D00" d="M1221.406,369.121c1.54,0,2.785-1.247,2.785-2.781v-19.454c0-1.539-1.245-2.783-2.785-2.783h-28.59
						c-1.539,0-2.783,1.245-2.783,2.783v19.454c0,1.535,1.244,2.781,2.783,2.781H1221.406z"/>
				</g>
				<g>
					<path fill="#321622" d="M1221.406,356.524c1.54,0,2.785-1.247,2.785-2.782v-6.856c0-1.539-1.245-2.783-2.785-2.783h-28.59
						c-1.539,0-2.783,1.245-2.783,2.783v6.856c0,1.535,1.244,2.782,2.783,2.782H1221.406z"/>
				</g>
				<g>
					<circle fill="#E1DEC7" cx="1207.971" cy="352.503" r="1.795"/>
				</g>
			</g>
		</g>
		<g>
			<circle fill="#FFFFFF" cx="1256.218" cy="314.476" r="7.983"/>
			<circle fill="#E0AD00" cx="1256.217" cy="314.476" r="4.935"/>
		</g>
		<g>
			<circle fill="#FFFFFF" cx="1087.164" cy="367.25" r="7.983"/>
			<circle fill="#E0AD00" cx="1087.164" cy="367.25" r="4.935"/>
		</g>
		<g>
			<circle fill="#FFFFFF" cx="1295.994" cy="388.107" r="7.983"/>
			<circle fill="#E0AD00" cx="1295.995" cy="388.107" r="4.936"/>
		</g>
		<g>
			<path fill="#98C20E" d="M1307.041,351.073c-2.352-5.41-11.454-13.118-22.328-13.118c-10.873,0-19.979,7.708-22.33,13.118
				H1307.041z"/>
			<path opacity="0.53" fill="#84A800" d="M1284.946,351.073h22.095c-2.332-5.371-11.324-13.002-22.095-13.113V351.073z"/>
		</g>
		<g>
			<path fill="#98C20E" d="M1168.942,369.198c-2.782-6.399-13.55-15.516-26.408-15.516s-23.627,9.117-26.407,15.516H1168.942z"/>
			<path opacity="0.53" fill="#84A800" d="M1142.811,369.198h26.132c-2.761-6.355-13.395-15.38-26.132-15.511V369.198z"/>
		</g>
		<g>
			<path fill="#98C20E" d="M749.497,201.763c-2.782-6.399-13.55-15.516-26.408-15.516s-23.627,9.117-26.407,15.516H749.497z"/>
			<path opacity="0.53" fill="#84A800" d="M723.365,201.763h26.132c-2.761-6.355-13.395-15.38-26.132-15.511V201.763z"/>
		</g>
		<g>
			<path fill="#98C20E" d="M1262.521,382.547c-3.404-7.83-16.582-18.987-32.318-18.987c-15.738,0-28.917,11.157-32.317,18.987
				H1262.521z"/>
			<path opacity="0.53" fill="#84A800" d="M1230.542,382.547h31.979c-3.379-7.773-16.394-18.819-31.979-18.98V382.547z"/>
		</g>
		<g>
			<g>
				<path fill="none" stroke="#23A098" stroke-width="3" stroke-linecap="round" stroke-linejoin="round" d="M813.134,291.552
					c0,0-2.142,0.048-5.994,0.117"/>
				
					<path fill="none" stroke="#23A098" stroke-width="3" stroke-linecap="round" stroke-linejoin="round" stroke-dasharray="12.1055,12.1055" d="
					M795.037,291.86c-40.22,0.553-136.573,1.128-175.803-5.202c-51.996-8.391-24.645-29.048,15.482-32.533
					c40.13-3.481,247.875,12.13,247.869-8.408c-0.004-20.75-276.229-2.052-255.644-18.91c20.585-16.855,237.866,2.228,208.525-17.09
					c0,0-16.824-5.076-43.637-5.144"/>
				<path fill="none" stroke="#23A098" stroke-width="3" stroke-linecap="round" stroke-linejoin="round" d="M785.768,204.644
					c-1.955,0.05-3.955,0.127-5.998,0.236"/>
			</g>
		</g>
		<g>
			<g>
				<path fill="none" stroke="#23A098" stroke-width="3" stroke-linecap="round" stroke-linejoin="round" d="M804.5,608.519
					c1.985,0.029,3.987,0.058,6.003,0.084"/>
				
					<path fill="none" stroke="#23A098" stroke-width="3" stroke-linecap="round" stroke-linejoin="round" stroke-dasharray="11.9769,11.9769" d="
					M822.466,608.746c78.388,0.814,171.491-0.543,171.487-10.643c-0.004-20.75-309.287-2.053-286.237-18.91
					c23.049-16.855,266.333,2.229,233.48-17.09c0,0-19.469-5.246-50.366-5.143"/>
				<path fill="none" stroke="#23A098" stroke-width="3" stroke-linecap="round" stroke-linejoin="round" d="M884.83,557.046
					c-1.96,0.05-3.96,0.122-5.998,0.219"/>
			</g>
		</g>
		<g>
			<path fill="#4C8E67" d="M788.577,227.703c9.185,0,74.597,115.825,74.597,115.825H713.98
				C713.98,343.527,779.392,227.703,788.577,227.703z"/>
			<path fill="#FFFFFF" d="M802.254,251.452c0,0,1.938,9.373-3.878,11.245c-5.817,1.877-8.782-11.038-8.782-11.038
				s-4.285,12.395-10.41,10.833c-6.119-1.562-2.037-12.292-2.037-12.292s-4.325,10.366-12.248,7.93
				c11.164-17.355,20.594-30.428,23.679-30.428c3.261,0,13.599,14.583,25.582,33.4C809.866,262.25,802.254,251.452,802.254,251.452z
				"/>
		</g>
		<g>
			<path fill="#61BB98" d="M702.592,239.923c9.187,0,74.598,115.827,74.598,115.827H627.994
				C627.994,355.75,693.404,239.923,702.592,239.923z"/>
			<path fill="#FFFFFF" d="M716.265,263.673c0,0,1.942,9.375-3.876,11.249c-5.814,1.874-8.777-11.039-8.777-11.039
				s-4.286,12.392-10.408,10.83c-6.125-1.563-2.043-12.29-2.043-12.29s-4.323,10.362-12.244,7.927
				c11.16-17.351,20.592-30.427,23.676-30.427c3.261,0,13.596,14.584,25.582,33.403
				C723.885,274.474,716.265,263.673,716.265,263.673z"/>
		</g>
		<path fill="#85A100" d="M635.651,440.616c64.887,0,125.732,2.332,178.217,6.406c-36.439,2.378-105.42,3.981-184.531,3.981
			c-74.198,0-139.484-1.411-177.369-3.549C505.678,443.112,568.502,440.616,635.651,440.616z"/>
		<path fill="#FFFFFF" d="M698.101,145.203c-1.427,0-2.797,0.264-4.063,0.728c-2.429-4.893-7.462-8.269-13.29-8.269
			c-6.454,0-11.925,4.121-13.976,9.868c-1.969-1.457-4.398-2.328-7.039-2.328c-6.405,0-11.611,5.073-11.852,11.416h62.071
			C709.711,150.276,704.505,145.203,698.101,145.203z"/>
		<path fill="#FFFFFF" d="M1161.995,154.681c-1.427,0-2.797,0.264-4.063,0.728c-2.429-4.893-7.462-8.269-13.29-8.269
			c-6.454,0-11.925,4.121-13.976,9.868c-1.969-1.457-4.398-2.328-7.039-2.328c-6.405,0-11.611,5.073-11.852,11.416h62.071
			C1173.605,159.754,1168.399,154.681,1161.995,154.681z"/>
		<path fill="#FFFFFF" d="M1421.293,173.856c-1.428,0-2.798,0.264-4.063,0.728c-2.429-4.893-7.462-8.268-13.291-8.268
			c-6.453,0-11.925,4.121-13.975,9.868c-1.969-1.457-4.399-2.328-7.038-2.328c-6.407,0-11.613,5.073-11.854,11.416h62.071
			C1432.903,178.929,1427.697,173.856,1421.293,173.856z"/>
		<path fill="#FFFFFF" d="M481.88,195.546c-1.428,0-2.798,0.264-4.063,0.728c-2.429-4.893-7.462-8.268-13.291-8.268
			c-6.453,0-11.925,4.121-13.975,9.868c-1.969-1.457-4.399-2.328-7.038-2.328c-6.407,0-11.613,5.073-11.854,11.416h62.071
			C493.49,200.619,488.284,195.546,481.88,195.546z"/>
		<path fill="#FFFFFF" d="M612.879,153.368c-1.916,0-3.754,0.353-5.455,0.977c-3.261-6.569-10.02-11.102-17.845-11.102
			c-8.665,0-16.01,5.533-18.763,13.249c-2.644-1.956-5.907-3.124-9.451-3.124c-8.602,0-15.59,6.809-15.914,15.328h83.34
			C628.468,160.177,621.479,153.368,612.879,153.368z"/>
		<path fill="#FFFFFF" d="M1489.302,200.37c-1.916,0-3.754,0.353-5.455,0.977c-3.261-6.569-10.02-11.102-17.845-11.102
			c-8.665,0-16.01,5.533-18.763,13.249c-2.644-1.956-5.907-3.124-9.451-3.124c-8.602,0-15.59,6.809-15.915,15.328h83.341
			C1504.891,207.179,1497.901,200.37,1489.302,200.37z"/>
		<path fill="#FFFFFF" d="M915.417,127.915c-1.918,0-3.756,0.353-5.456,0.977c-3.261-6.569-10.019-11.102-17.845-11.102
			c-8.666,0-16.011,5.533-18.764,13.249c-2.644-1.956-5.907-3.124-9.451-3.124c-8.601,0-15.59,6.81-15.913,15.328h83.339
			C931.004,134.725,924.015,127.915,915.417,127.915z"/>
		<g>
			<path fill="#4C8E67" d="M1095.476,394.952c-8.897,0-72.256,112.19-72.256,112.19h144.511
				C1167.73,507.142,1104.373,394.952,1095.476,394.952z"/>
			<path fill="#FFFFFF" d="M1082.228,417.956c0,0-1.876,9.079,3.757,10.893c5.635,1.817,8.506-10.691,8.506-10.691
				s4.151,12.006,10.083,10.493c5.929-1.513,1.975-11.906,1.975-11.906s4.188,10.041,11.863,7.681
				c-10.814-16.811-19.948-29.473-22.936-29.473c-3.159,0-13.173,14.127-24.779,32.353
				C1074.854,428.416,1082.228,417.956,1082.228,417.956z"/>
		</g>
		<g>
			<path fill="#61BB98" d="M1172.695,421.409c-7.482,0-60.778,94.371-60.778,94.371h121.558
				C1233.475,515.78,1180.182,421.409,1172.695,421.409z"/>
			<path fill="#FFFFFF" d="M1161.555,440.758c0,0-1.581,7.639,3.158,9.165c4.738,1.527,7.152-8.994,7.152-8.994
				s3.492,10.097,8.48,8.824c4.99-1.274,1.664-10.013,1.664-10.013s3.521,8.442,9.977,6.458
				c-9.093-14.135-16.777-24.79-19.291-24.79c-2.656,0-11.077,11.883-20.844,27.214
				C1155.348,449.558,1161.555,440.758,1161.555,440.758z"/>
		</g>
		<g>
			<g>
				<g>
					<g>
						<g>
							<path fill="#4A8028" d="M674.976,545.334c0-0.05,0-0.095,0-0.141c0-39.562,7.498-71.63,16.748-71.63
								c9.251,0,16.748,32.067,16.748,71.63c0,0.046,0,0.091,0,0.141H674.976z"/>
							<polygon fill="#C3C000" points="703.745,530.043 693.726,541.832 693.816,545.334 690.494,545.334 690.921,530.731 
								680.653,518.652 691.033,526.983 691.806,500.587 687.049,494.994 691.855,498.855 692.251,485.31 692.912,510.582 
								698.598,506.017 692.967,512.644 693.631,538.167 							"/>
						</g>
						<g>
							<path fill="#AABD00" d="M639.606,545.334c0-0.05,0-0.095,0-0.141c0-39.562,7.5-71.63,16.747-71.63
								c9.253,0,16.75,32.067,16.75,71.63c0,0.046,0,0.091,0,0.141H639.606z"/>
							<polygon fill="#C3C000" points="668.377,530.043 658.359,541.832 658.447,545.334 655.123,545.334 655.553,530.731 
								645.285,518.652 655.663,526.983 656.436,500.587 651.682,494.994 656.487,498.855 656.883,485.31 657.543,510.582 
								663.228,506.017 657.594,512.644 658.259,538.167 							"/>
						</g>
						<g>
							<path fill="#7AB80A" d="M701.305,545.334c0.044-29.791,5.705-53.888,12.682-53.888c6.975,0,12.638,24.097,12.68,53.888
								H701.305z"/>
							<polygon fill="#9CC730" points="723.089,534.209 715.501,543.136 715.558,545.334 713.068,545.334 713.378,534.731 
								705.605,525.584 713.461,531.896 714.046,511.912 710.45,507.677 714.084,510.598 714.387,500.342 714.887,519.475 
								719.192,516.019 714.927,521.038 715.428,540.358 							"/>
						</g>
						<g>
							<path fill="#4A8028" d="M584.109,545.334c0.092-40.573,7.811-73.346,17.321-73.346c9.506,0,17.224,32.772,17.315,73.346
								H584.109z"/>
							<polygon fill="#9CC730" points="613.862,530.395 603.496,542.592 603.57,545.334 600.182,545.334 600.597,531.109 
								589.981,518.619 600.713,527.235 601.514,499.94 596.596,494.157 601.565,498.143 601.975,484.137 602.658,510.275 
								608.539,505.551 602.712,512.406 603.4,538.796 							"/>
						</g>
						<g>
							<path fill="#5FA12C" d="M613.09,545.334c0.044-29.791,5.703-53.888,12.68-53.888c6.979,0,12.639,24.097,12.682,53.888H613.09
								z"/>
							<polygon fill="#9CC730" points="634.875,534.209 627.285,543.136 627.343,545.334 624.854,545.334 625.163,534.731 
								617.389,525.584 625.248,531.896 625.832,511.912 622.232,507.677 625.872,510.598 626.168,500.342 626.668,519.475 
								630.974,516.019 626.709,521.038 627.216,540.358 							"/>
						</g>
					</g>
					<g>
						<g>
							<path fill="#7AB80A" d="M871.917,545.334c0.043-29.791,5.7-53.888,12.679-53.888c6.977,0,12.639,24.097,12.679,53.888
								H871.917z"/>
							<polygon fill="#9CC730" points="893.699,534.209 886.111,543.136 886.169,545.334 883.678,545.334 883.989,534.731 
								876.215,525.584 884.072,531.896 884.658,511.912 881.059,507.677 884.699,510.598 884.995,500.342 885.493,519.475 
								889.803,516.019 885.535,521.038 886.039,540.358 							"/>
						</g>
						<g>
							<path fill="#4A8028" d="M894.979,545.334c0.092-40.573,7.811-73.346,17.317-73.346c9.51,0,17.228,32.772,17.317,73.346
								H894.979z"/>
							<polygon fill="#9CC730" points="924.731,530.395 914.365,542.592 914.438,545.334 911.049,545.334 911.468,531.109 
								900.85,518.619 911.58,527.235 912.383,499.94 907.465,494.157 912.435,498.143 912.843,484.137 913.525,510.275 
								919.406,505.551 913.577,512.406 914.27,538.796 							"/>
						</g>
						<g>
							<path fill="#5FA12C" d="M923.958,545.334c0.047-29.791,5.704-53.888,12.682-53.888c6.975,0,12.635,24.097,12.679,53.888
								H923.958z"/>
							<polygon fill="#9CC730" points="945.742,534.209 938.153,543.136 938.212,545.334 935.719,545.334 936.031,534.731 
								928.256,525.584 936.115,531.896 936.699,511.912 933.101,507.677 936.739,510.598 937.039,500.342 937.539,519.475 
								941.843,516.019 937.578,521.038 938.081,540.358 							"/>
						</g>
					</g>
				</g>
				<g>
					<g>
						<g>
							<path fill="#E66324" d="M900.621,540.119c0,0-85.244-96.618-107.971-152.145C769.916,443.5,684.677,540.119,684.677,540.119
								H900.621z"/>
							<path fill="#F5CA5F" d="M872.26,540.119c0,0-62.852-96.618-79.609-152.145c-16.759,55.527-79.61,152.145-79.61,152.145
								H872.26z"/>
							<path fill="#896414" d="M806.671,540.119c0,0-11.068-63.006-14.021-99.208c-2.953,36.202-14.02,99.208-14.02,99.208H806.671z
								"/>
							<path fill="#EFA700" d="M792.65,387.974c0,0-0.967,82.902,40.611,146.761l-26.591,5.384
								C806.671,540.119,785.879,432.223,792.65,387.974z"/>
							<path fill="#EFA700" d="M792.988,387.974c0,0,0.967,82.902-40.611,146.761l26.59,5.384
								C778.967,540.119,799.754,432.223,792.988,387.974z"/>
							<path fill="#EEEA47" d="M809.331,414.345c0,0-13.173-17.542-16.681-27.627c-3.51,10.085-16.68,27.627-16.68,27.627H809.331z"
								/>
						</g>
						<path fill="none" stroke="#F0E144" stroke-linecap="round" stroke-linejoin="round" stroke-miterlimit="10" d="
							M792.65,386.718c0,0,95.156,133.818,209.287,160.266"/>
						<path fill="none" stroke="#F0E144" stroke-linecap="round" stroke-linejoin="round" stroke-miterlimit="10" d="
							M793.576,386.718c0,0-92.312,133.538-206.446,159.984"/>
					</g>
				</g>
				<path fill="#839F00" d="M790.574,539.288c-93.823,0-181.815,2.021-257.713,5.561c52.691,2.061,152.447,3.454,266.846,3.454
					c107.305,0,201.716-1.226,256.499-3.08C978.537,541.453,887.687,539.288,790.574,539.288z"/>
			</g>
		</g>
		<g>
			<ellipse fill="#85A100" cx="615.653" cy="585.987" rx="11.026" ry="2.201"/>
			<ellipse fill="#85A100" cx="663.066" cy="575.072" rx="26.954" ry="5.38"/>
		</g>
		<g>
			<path fill="#4A8028" d="M1308.864,531.11c0.092-39.552,7.614-71.498,16.884-71.498s16.79,31.946,16.881,71.498H1308.864z"/>
			<polygon fill="#9EC92F" points="1337.869,516.546 1327.766,528.436 1327.836,531.11 1324.531,531.11 1324.938,517.243 
				1314.587,505.067 1325.049,513.464 1325.829,486.858 1321.036,481.218 1325.881,485.106 1326.281,471.455 1326.943,496.931 
				1332.679,492.329 1326.998,499.011 1327.668,524.737 			"/>
		</g>
		<g>
			<path fill="#60A32B" d="M1337.117,531.11c0.042-29.043,5.559-52.53,12.36-52.53c6.801,0,12.318,23.487,12.36,52.53H1337.117z"/>
			<polygon fill="#9EC92F" points="1358.352,520.265 1350.954,528.968 1351.01,531.11 1348.582,531.11 1348.884,520.775 
				1341.307,511.858 1348.964,518.007 1349.538,498.528 1346.027,494.399 1349.574,497.247 1349.867,487.25 1350.354,505.902 
				1354.552,502.532 1350.395,507.422 1350.885,526.262 			"/>
		</g>
		<path fill="#839F00" d="M1319.624,528.268c21.461,0,41.588,1.709,58.947,4.698c-12.052,1.741-34.87,2.918-61.037,2.918
			c-24.542,0-46.137-1.035-58.668-2.602C1276.631,530.099,1297.411,528.268,1319.624,528.268z"/>
		<g>
			<g>
				<path fill="#F5CA5F" d="M781.343,618.258c-5.8-13.649-26.297-32.469-50.665-32.431c-24.262,0.042-44.638,18.778-50.507,32.431
					H781.343z"/>
				<path fill="#EFA700" d="M781.336,618.258c-5.759-13.552-26.002-32.206-50.148-32.422v32.422H781.336z"/>
			</g>
			<g>
				<path fill="#96C011" d="M710.576,618.258c-3.503-8.06-17.063-19.54-33.261-19.54c-16.193,0-29.751,11.48-33.255,19.54H710.576z"
					/>
				<path opacity="0.53" fill="#82A600" d="M677.665,618.258h32.911c-3.476-8-16.869-19.366-32.911-19.532V618.258z"/>
			</g>
			<g>
				<path fill="#96C011" d="M744.552,625.218c-2.66-6.466-12.953-15.681-25.25-15.681c-12.295,0-22.588,9.215-25.25,15.681H744.552z
					"/>
				<path opacity="0.53" fill="#82A600" d="M719.567,625.218h24.984c-2.642-6.42-12.808-15.542-24.984-15.674V625.218z"/>
			</g>
		</g>
		<g>
			<g>
				<path fill="#F5CA5F" d="M793.262,370.183c-4.517-10.627-20.478-25.281-39.453-25.252c-18.893,0.033-34.759,14.623-39.33,25.252
					H793.262z"/>
				<path fill="#EFA700" d="M793.255,370.183c-4.484-10.551-20.247-25.077-39.049-25.245v25.245H793.255z"/>
			</g>
			<g>
				<path fill="#96C011" d="M764.611,375.603c-2.071-5.035-10.086-12.208-19.66-12.208s-17.59,7.173-19.664,12.208H764.611z"/>
				<path opacity="0.53" fill="#82A600" d="M745.156,375.603h19.455c-2.057-4.999-9.973-12.101-19.455-12.204V375.603z"/>
			</g>
		</g>
		<g>
			<g>
				<path fill="#96C011" d="M1299.038,587.948c-3.229-7.431-15.734-18.017-30.669-18.017c-14.934,0-27.434,10.586-30.666,18.017
					H1299.038z"/>
				<path opacity="0.53" fill="#82A600" d="M1268.691,587.948h30.347c-3.206-7.376-15.556-17.857-30.347-18.011V587.948z"/>
			</g>
			<g>
				<path fill="#96C011" d="M1330.367,594.366c-2.453-5.963-11.943-14.458-23.282-14.458c-11.338,0-20.828,8.495-23.284,14.458
					H1330.367z"/>
				<path opacity="0.53" fill="#82A600" d="M1307.329,594.366h23.038c-2.435-5.919-11.81-14.33-23.038-14.453V594.366z"/>
			</g>
		</g>
		<path fill="#839F00" d="M1435.959,432.381c29.262,0,56.705,1.457,80.375,4.004c-16.432,1.482-47.545,2.485-83.227,2.485
			c-33.463,0-62.907-0.881-79.994-2.217C1377.336,433.941,1405.671,432.381,1435.959,432.381z"/>
		<g>
			<path fill="#98C20E" d="M788.439,208.729c-1.841-4.234-8.966-10.267-17.475-10.267c-8.51,0-15.635,6.033-17.474,10.267H788.439z"
				/>
			<path opacity="0.53" fill="#84A800" d="M771.148,208.729h17.291c-1.827-4.203-8.863-10.175-17.291-10.263V208.729z"/>
		</g>
		<g>
			<path fill="#98C20E" d="M1360.661,627.794c-3.296-7.581-16.05-18.38-31.281-18.38s-27.987,10.799-31.28,18.38H1360.661z"/>
			<path opacity="0.53" fill="#84A800" d="M1329.707,627.794h30.954c-3.271-7.528-15.866-18.219-30.954-18.374V627.794z"/>
		</g>
		<g>
			<circle fill="#FFFFFF" cx="613.894" cy="284.862" r="7.983"/>
			<circle fill="#E0AD00" cx="613.895" cy="284.862" r="4.936"/>
		</g>
		<g>
			<circle fill="#FFFFFF" cx="836.827" cy="221.085" r="7.983"/>
			<circle fill="#E0AD00" cx="836.828" cy="221.085" r="4.936"/>
		</g>
		<g>
			<circle fill="#FFFFFF" cx="736.62" cy="227.703" r="7.983"/>
			<circle fill="#E0AD00" cx="736.621" cy="227.703" r="4.936"/>
		</g>
		<g>
			<g>
				
					<line fill="none" stroke="#FFFFFF" stroke-width="3" stroke-linecap="round" stroke-linejoin="round" stroke-miterlimit="10" x1="1183.168" y1="441.709" x2="1196.486" y2="471.439"/>
				
					<line fill="none" stroke="#FFFFFF" stroke-width="3" stroke-linecap="round" stroke-linejoin="round" stroke-miterlimit="10" x1="1171.386" y1="442.844" x2="1172.548" y2="484.137"/>
				
					<line fill="none" stroke="#FFFFFF" stroke-width="3" stroke-linecap="round" stroke-linejoin="round" stroke-miterlimit="10" x1="1161.555" y1="440.758" x2="1146.905" y2="478.031"/>
			</g>
		</g>
		<g>
			<g>
				<g>
					<path fill="#AABD00" d="M1266.615,556.463c0-0.055,0-0.108,0-0.161c0-45.299-8.588-82.015-19.177-82.015
						c-10.592,0-19.178,36.716-19.178,82.015c0,0.053,0,0.106,0,0.161H1266.615z"/>
					<polygon fill="#C3C000" points="1233.672,538.955 1245.145,552.453 1245.042,556.463 1248.846,556.463 1248.356,539.742 
						1260.112,525.914 1248.23,535.451 1247.346,505.23 1252.786,498.827 1247.287,503.246 1246.831,487.738 1246.077,516.671 
						1239.564,511.446 1246.018,519.032 1245.256,548.257 					"/>
				</g>
				<g>
					<path fill="#7AB80A" d="M1282.806,556.463c-0.049-34.11-6.53-61.7-14.52-61.7c-7.987,0-14.47,27.59-14.519,61.7H1282.806z"/>
					<polygon fill="#9CC730" points="1257.861,543.726 1266.551,553.948 1266.488,556.463 1269.336,556.463 1268.982,544.324 
						1277.883,533.852 1268.889,541.077 1268.217,518.195 1272.339,513.346 1268.172,516.692 1267.829,504.949 1267.258,526.856 
						1262.324,522.899 1267.21,528.644 1266.635,550.767 					"/>
				</g>
				<g>
					<path fill="#5FA12C" d="M1187.956,556.463c-0.053-34.11-6.529-61.7-14.52-61.7c-7.985,0-14.466,27.59-14.517,61.7H1187.956z"/>
					<polygon fill="#9CC730" points="1163.014,543.726 1171.703,553.948 1171.637,556.463 1174.491,556.463 1174.134,544.324 
						1183.036,533.852 1174.037,541.077 1173.369,518.195 1177.489,513.346 1173.324,516.692 1172.979,504.949 1172.408,526.856 
						1167.479,522.899 1172.362,528.644 1171.785,550.767 					"/>
				</g>
			</g>
			<path fill="#839F00" d="M1198.2,553.132c33.057,0,64.058,1.708,90.798,4.698c-18.564,1.741-53.71,2.918-94.016,2.918
				c-37.806,0-71.067-1.035-90.37-2.602C1131.977,554.963,1163.986,553.132,1198.2,553.132z"/>
		</g>
		<g>
			<path fill="#7ABA06" d="M1029.94,619.305c0.05-36.148,6.918-65.383,15.383-65.383c8.469,0,15.336,29.234,15.386,65.383H1029.94z"
				/>
			<polygon fill="#9EC92F" points="1056.372,605.806 1047.163,616.639 1047.234,619.305 1044.211,619.305 1044.588,606.442 
				1035.155,595.341 1044.689,602.998 1045.399,578.75 1041.032,573.612 1045.446,577.156 1045.813,564.711 1046.416,587.928 
				1051.642,583.736 1046.464,589.824 1047.077,613.27 			"/>
		</g>
		<g>
			<path fill="#60A32B" d="M1089.574,623.61c0.108-46.97,9.042-84.909,20.052-84.909c11.008,0,19.941,37.939,20.049,84.909H1089.574
				z"/>
			<polygon fill="#D5DB7C" points="1124.021,606.316 1112.021,620.432 1112.104,623.61 1108.181,623.61 1108.665,607.141 
				1096.374,592.681 1108.795,602.654 1109.723,571.055 1104.03,564.36 1109.783,568.977 1110.26,552.765 1111.048,583.022 
				1117.856,577.554 1111.11,585.49 1111.907,616.043 			"/>
		</g>
		<path fill="#85A100" d="M1049.19,614.14c-41.998,0-81.378,4.056-115.352,11.146c23.585,4.135,68.234,6.926,119.439,6.926
			c48.025,0,90.282-2.454,114.804-6.171C1133.319,618.485,1092.655,614.14,1049.19,614.14z"/>
		<g>
			<g>
				<path fill="#FBD22A" d="M566.531,187.673v68.972l-1.08,0.492l-1.019,0.463l-7.128,3.255l-2.29,1.043l-1.455,0.662l-14.131,6.447
					c-1.46,0.665-3.238-0.218-3.238-1.606V202.6c0-0.671,0.438-1.286,1.139-1.606l23.755-10.833L566.531,187.673z"/>
				<polygon fill="#EAB721" points="596.87,201.513 596.87,270.484 590.99,267.803 588.95,266.872 584.85,265.002 569.236,257.879 
					566.938,256.83 566.531,256.645 566.531,187.673 571.116,189.765 				"/>
				<path fill="#FBD22A" d="M627.211,190.756v64.805c0,0.668-0.438,1.285-1.139,1.604l-16.834,7.677l-1.328,0.607l-11.04,5.035
					v-68.971l27.104-12.362C625.433,188.486,627.211,189.367,627.211,190.756z"/>
			</g>
			<path fill="#EF651F" d="M627.211,234.062v3.029c-2.375,3.293-6.471,5.236-10.435,7.115c-2.294,1.087-4.663,2.21-6.657,3.577
				c-1.744,1.194-3.921,3.137-4.423,5.601c-0.396,1.948,0.302,3.988,0.983,5.747c0.751,1.932,1.607,3.841,2.559,5.712l-1.328,0.607
				c-0.996-1.941-1.885-3.922-2.666-5.929c-0.737-1.901-1.487-4.118-1.037-6.348c0.459-2.253,2.172-4.455,4.956-6.362
				c2.094-1.436,4.521-2.587,6.868-3.7c4.157-1.972,8.085-3.833,10.194-7.116C626.625,235.376,626.939,234.73,627.211,234.062z"/>
			<path fill="#93932F" d="M536.19,234.582c1.412,0.907,3.28,1.375,5.226,1.865c1.415,0.355,2.879,0.724,4.214,1.279
				c0.702,0.295,1.571,0.732,2.02,1.5c0.333,0.576,0.354,1.193,0.325,1.778c-0.068,1.41-0.367,2.86-0.654,4.26
				c-0.642,3.142-1.252,6.111,0.556,8.56c0.723,0.981,1.776,1.769,2.896,2.601c1.336,0.997,2.721,2.025,3.534,3.442
				c0.381,0.663,0.607,1.34,0.708,2.031l-1.455,0.662c-0.03-0.742-0.219-1.463-0.612-2.147c-0.683-1.189-1.896-2.09-3.178-3.047
				c-1.148-0.856-2.336-1.742-3.179-2.88c-2.105-2.853-1.419-6.198-0.757-9.432c0.28-1.363,0.568-2.771,0.635-4.099
				c0.02-0.419,0.014-0.852-0.176-1.173c-0.196-0.335-0.607-0.621-1.34-0.927c-1.213-0.508-2.617-0.86-3.972-1.201
				c-1.65-0.415-3.337-0.837-4.791-1.557V234.582z"/>
			<path fill="#93932F" d="M566.938,256.83c-0.098-0.736-0.228-1.483-0.406-2.227c-0.534-2.246-1.499-4.467-3.291-6.293
				c-0.825-0.837-1.793-1.562-2.724-2.265c-1.382-1.036-2.687-2.014-3.502-3.283c-0.936-1.463-1.015-3.16-0.204-4.428
				c0.85-1.33,2.812-2.083,4.375-1.678c1.804,0.469,2.733,2.133,3.125,3.083c0.254,0.609,0.435,1.228,0.632,1.885
				c0.269,0.908,0.546,1.85,1.019,2.746c0.17,0.32,0.357,0.63,0.57,0.928c1.586,2.27,4.244,3.932,6.432,5.301
				c0.838,0.524,1.882,1.177,3.157,1.326c1.854,0.217,3.753-0.65,5.486-2.509c0.2-0.215,0.397-0.437,0.596-0.658
				c0.767-0.855,1.497-1.671,2.429-2.197c0.902,2.37,0.905,4.901,0.911,7.566c0.003,2.743,0.006,5.58,1.09,8.238
				c0.397,0.986,0.946,1.976,1.472,2.933c0.293,0.53,0.584,1.056,0.847,1.574l2.04,0.931c-0.405-1.021-0.963-2.034-1.517-3.033
				c-0.513-0.929-1.041-1.887-1.415-2.808c-1.002-2.463-1.009-5.195-1.011-7.836c-0.005-2.908-0.009-5.916-1.298-8.699l-0.282-0.607
				l-0.72,0.256c-1.66,0.591-2.725,1.781-3.752,2.928c-0.193,0.214-0.385,0.428-0.578,0.636c-0.966,1.034-2.459,2.227-4.09,2.036
				c-0.89-0.104-1.724-0.625-2.463-1.087c-2.451-1.534-5.234-3.274-6.523-5.727c-0.355-0.67-0.586-1.375-0.811-2.114
				c-0.041-0.143-0.086-0.284-0.128-0.429c-0.191-0.653-0.394-1.331-0.667-1.992c-0.485-1.177-1.663-3.241-4.105-3.876
				c-2.255-0.583-4.954,0.422-6.151,2.291c-1.042,1.633-0.966,3.784,0.207,5.613c0.939,1.465,2.404,2.564,3.819,3.627
				c0.894,0.671,1.817,1.363,2.565,2.125c2.152,2.191,2.996,4.928,3.38,8.029L566.938,256.83z"/>
			<path fill="#EF651F" d="M536.19,230.254c3.354-0.287,6.683-0.766,9.872-1.669c6.387-1.808,11.254-5.232,13.35-9.396
				c0.692-1.374,1.117-2.888,1.529-4.352c0.491-1.755,1.004-3.567,1.982-5.245c0.872-1.492,2.115-2.829,3.607-3.932
				c1.697-1.251,3.718-2.195,5.891-2.714c0.896-0.212,1.814-0.356,2.697-0.494c1.416-0.221,2.756-0.43,3.976-0.899
				c2.427-0.931,4.425-2.986,5.485-5.645l1.492,0.681c-1.232,2.911-3.502,5.174-6.278,6.236c-1.407,0.543-2.911,0.775-4.366,1.002
				c-0.885,0.14-1.724,0.271-2.548,0.466c-2.431,0.58-4.651,1.76-6.349,3.331c-0.84,0.775-1.553,1.643-2.102,2.583
				c-0.897,1.535-1.364,3.193-1.857,4.952c-0.428,1.52-0.867,3.089-1.615,4.574c-2.285,4.533-7.521,8.243-14.356,10.179
				c-3.392,0.96-6.896,1.459-10.41,1.751V230.254z"/>
			<path fill="#93932F" d="M627.211,205.653l-0.388-0.22c-0.911,1.111-2.251,1.809-3.98,2.069
				c-3.024,0.458-7.087-0.484-10.352-2.398l-0.181-0.108c-1.582-0.93-3.375-1.984-5.452-1.679c-2.745,0.402-4.144,3.06-3.73,5.288
				c0.309,1.653,1.313,3.083,2.288,4.465c0.232,0.331,0.475,0.677,0.697,1.012c1.85,2.778,3.016,5.917,3.377,9.08
				c0.356,3.15-0.252,5.65-1.807,7.433c-1.653,1.897-4.213,2.973-7.812,3.286c-0.986,0.086-2.001,0.107-3.002,0.089
				c-2.625-0.058-5.2-0.414-7.104-0.714c-0.901-0.145-1.819-0.326-2.218-0.826c-0.365-0.462-0.274-1.157-0.139-1.888l2.154-11.578
				c0.179-0.965,0.654-3.525-1.371-4.72c-0.871-0.514-1.854-0.629-2.841-0.336c-1.851,0.551-3.442,2.53-4.174,4.342
				c-2.557,0.098-5.224-0.45-7.573-1.557c-2.506-1.181-4.543-2.952-5.742-4.987l-1.092-1.851l-0.24,1.491l-0.09,0.554
				c-0.258,1.562-0.543,3.33-1.756,4.589c-0.625,0.65-1.664,1.111-2.645,1.177c-0.491,0.033-1.189-0.018-1.755-0.442
				c-0.827-0.623-1.014-1.728-1.193-2.797c-0.022-0.14-0.046-0.283-0.07-0.421c-0.34-1.883-1.054-3.69-2.123-5.373
				c-0.483-0.758-1.195-1.665-2.415-1.939c-1.031-0.234-2.013,0.086-2.652,0.395c-2.949,1.431-3.433,4.26-3.9,6.995
				c-0.229,1.341-0.465,2.729-0.993,3.909c-0.876,1.958-2.998,3.57-5.677,4.311c-1.699,0.47-3.47,0.55-5.071,0.253v1.296
				c1.766,0.28,3.674,0.165,5.546-0.354c3.154-0.872,5.565-2.719,6.615-5.065c0.582-1.309,0.833-2.764,1.074-4.172
				c0.433-2.551,0.848-4.962,3.163-6.083c0.319-0.155,0.942-0.398,1.504-0.27c0.663,0.148,1.136,0.78,1.476,1.314
				c0.988,1.554,1.651,3.226,1.963,4.969c0.023,0.135,0.048,0.271,0.07,0.411c0.207,1.231,0.441,2.625,1.674,3.556
				c0.754,0.565,1.776,0.838,2.887,0.764c1.394-0.093,2.811-0.724,3.699-1.646c0.255-0.264,0.479-0.546,0.67-0.837
				c0.547-0.826,0.862-1.735,1.073-2.623c3.124,3.78,8.685,6.057,14.204,5.662l0.521-0.037l0.142-0.422
				c0.53-1.591,1.94-3.494,3.389-3.924c0.526-0.159,0.992-0.101,1.464,0.179c0.874,0.514,1.104,1.59,0.75,3.495l-2.152,11.579
				c-0.176,0.947-0.294,1.94,0.371,2.778c0.785,0.985,2.292,1.225,3.193,1.367c2.242,0.355,4.812,0.68,7.384,0.726
				c0.213,0.007,0.426,0.007,0.641,0.007c4.419,0,8.765-0.878,11.392-3.89c1.781-2.039,2.48-4.829,2.088-8.292
				c-0.379-3.336-1.607-6.647-3.558-9.574c-0.231-0.35-0.479-0.7-0.72-1.038c-0.939-1.338-1.83-2.605-2.094-4.021
				c-0.3-1.608,0.652-3.584,2.499-3.855c1.462-0.213,2.915,0.642,4.325,1.471l0.181,0.106c3.575,2.099,8.083,3.123,11.487,2.608
				c1.657-0.25,3.032-0.83,4.1-1.729V205.653z"/>
		</g>
		<g>
			<path fill="#614D44" d="M644.951,226.401c-0.287-0.152-0.398-0.507-0.245-0.796l2.92-5.524c0.153-0.288,0.509-0.398,0.797-0.246
				c0.287,0.152,0.396,0.507,0.243,0.796l-2.921,5.524C645.593,226.443,645.238,226.553,644.951,226.401z"/>
			<circle fill="#A4AB18" cx="634.292" cy="246.563" r="23.846"/>
			<path fill="#93932F" d="M645.438,225.481l-22.29,42.163c11.643,6.155,26.071,1.707,32.226-9.936
				C661.529,246.065,657.08,231.636,645.438,225.481z"/>
			<g>
				<circle fill="#FFFFFF" cx="634.292" cy="246.563" r="17.962"/>
				<path fill="#5E4F47" d="M625.555,263.092c-9.115-4.819-12.61-16.153-7.792-25.268c4.819-9.115,16.153-12.609,25.269-7.791
					c9.114,4.819,12.608,16.153,7.79,25.268C646.003,264.416,634.669,267.91,625.555,263.092z M642.344,231.333
					c-8.396-4.439-18.84-1.218-23.279,7.179c-4.439,8.398-1.22,18.84,7.178,23.279c8.397,4.439,18.84,1.22,23.279-7.178
					S650.742,235.772,642.344,231.333z"/>
			</g>
			<g>
				<path fill="#FFFFFF" d="M640.444,234.927l2.243-4.244L640.444,234.927z"/>
				<path fill="#5E4F47" d="M640.101,235.577c-0.358-0.189-0.495-0.634-0.306-0.993l2.244-4.244
					c0.189-0.358,0.634-0.496,0.992-0.307c0.359,0.19,0.496,0.635,0.307,0.993l-2.244,4.244
					C640.904,235.63,640.459,235.767,640.101,235.577z"/>
			</g>
			<g>
				<path fill="#FFFFFF" d="M625.898,262.441l2.242-4.242L625.898,262.441z"/>
				<path fill="#5E4F47" d="M625.555,263.092c-0.358-0.189-0.496-0.634-0.306-0.993l2.243-4.243
					c0.189-0.359,0.634-0.496,0.992-0.307c0.359,0.19,0.496,0.635,0.307,0.994l-2.242,4.242
					C626.358,263.145,625.914,263.282,625.555,263.092z"/>
			</g>
			<g>
				<path fill="#FFFFFF" d="M645.929,252.715l4.243,2.243L645.929,252.715z"/>
				<path fill="#5E4F47" d="M649.828,255.608l-4.243-2.243c-0.358-0.189-0.494-0.634-0.305-0.993
					c0.19-0.359,0.634-0.498,0.992-0.309l4.243,2.244c0.357,0.189,0.495,0.635,0.306,0.994
					C650.631,255.66,650.186,255.797,649.828,255.608z"/>
			</g>
			<g>
				<path fill="#FFFFFF" d="M618.413,238.168l4.242,2.243L618.413,238.168z"/>
				<path fill="#5E4F47" d="M622.312,241.061l-4.243-2.243c-0.358-0.19-0.496-0.635-0.307-0.994c0.19-0.359,0.636-0.497,0.995-0.307
					L623,239.76c0.359,0.189,0.496,0.636,0.307,0.995C623.117,241.114,622.671,241.251,622.312,241.061z"/>
			</g>
			<polygon fill="#6CDFF1" points="633.149,242.856 621.265,250.581 635.438,250.27 			"/>
			<path fill="#614D44" d="M646.83,222.847c-2.244-1.186-3.104-3.975-1.917-6.219s3.975-3.104,6.219-1.917
				c2.243,1.186,3.104,3.976,1.918,6.219S649.074,224.033,646.83,222.847z M650.582,215.751c-1.67-0.882-3.748-0.243-4.631,1.426
				c-0.883,1.67-0.24,3.747,1.43,4.629c1.67,0.883,3.744,0.242,4.627-1.428C652.891,218.709,652.252,216.634,650.582,215.751z"/>
			<polygon fill="#EF651F" points="633.149,242.856 647.323,242.544 635.438,250.27 			"/>
		</g>
		<g>
			<g>
				<path fill="#614D44" d="M482.851,523.414c-0.339,0.01-0.617-0.254-0.627-0.592l-0.44-15.321
					c-0.06-2.089-1.811-3.741-3.902-3.682l-29.725,0.854c-2.092,0.06-3.742,1.811-3.683,3.899l0.44,15.32
					c0.01,0.338-0.257,0.617-0.593,0.627c-0.338,0.01-0.619-0.254-0.629-0.592l-0.44-15.32c-0.079-2.763,2.104-5.076,4.869-5.156
					l29.725-0.854c2.765-0.079,5.076,2.105,5.156,4.867l0.439,15.321C483.451,523.125,483.187,523.404,482.851,523.414z"/>
				<path fill="#614D44" d="M444.422,528.03c-1.305,0.037-2.396-0.992-2.434-2.296c-0.038-1.304,0.993-2.396,2.298-2.433
					c1.302-0.038,2.395,0.993,2.433,2.297C446.756,526.901,445.725,527.992,444.422,528.03z M444.321,524.52
					c-0.632,0.019-1.13,0.548-1.111,1.179s0.546,1.13,1.177,1.111c0.63-0.018,1.128-0.546,1.109-1.177
					C445.479,525.002,444.951,524.502,444.321,524.52z"/>
				<path fill="#614D44" d="M482.951,526.922c-1.307,0.038-2.395-0.992-2.432-2.295c-0.038-1.305,0.989-2.396,2.296-2.434
					c1.303-0.037,2.393,0.993,2.431,2.298C485.283,525.794,484.254,526.885,482.951,526.922z M482.851,523.414
					c-0.633,0.018-1.131,0.548-1.112,1.179c0.018,0.63,0.545,1.129,1.178,1.111c0.631-0.019,1.129-0.547,1.111-1.178
					C484.009,523.896,483.48,523.395,482.851,523.414z"/>
				<path fill="#626208" d="M515.697,529.701c0.109,3.812,0.109,3.812,0.109,3.812s-0.7-0.054-1.675,0.616
					c-1.708,1.172-4.259,4.553-5.381,14.297c-1.765,15.309-9.899,23.171-19.156,22.708c-9.261-0.457-13.316-19.049-0.61-21.231
					c0,0,0.554,0.301,1.436,0.668c2.954,1.233,9.574,3.214,11.266-2.85C503.882,539.848,506.038,530.705,515.697,529.701z"/>
				<g>
					<path fill="#76770B" d="M515.271,531.125c0.151-0.081,0.305-0.162,0.459-0.242l-0.033-1.183
						c-9.659,1.004-11.815,10.147-14.012,18.02c-1.691,6.063-8.312,4.083-11.266,2.85c-0.276,0.034-0.557,0.063-0.833,0.092
						c-2.168,0.228-4.229,1.926-4.052,4.295c0.153,2.115,1.965,4.298,4.291,4.053c3.213-0.336,6.32-0.816,9.264-2.199
						c2.924-1.377,5.027-3.882,6.188-6.862c0.895-2.306,1.156-4.717,1.576-7.124C507.303,537.776,510.878,533.519,515.271,531.125z"
						/>
					<path fill="#76770B" d="M497.558,546.883c-0.016,0.05-0.038,0.102-0.055,0.156c-0.002,0-0.002,0.003-0.003,0.007
						c-0.01,0.019-0.019,0.04-0.03,0.062C497.598,546.462,497.637,546.625,497.558,546.883z"/>
					<path fill="#76770B" d="M492.058,550.351c0.285-0.069,0.544-0.187-0.252,0.045c0.015-0.003,0.034-0.004,0.05-0.007
						C491.922,550.375,491.989,550.362,492.058,550.351z"/>
				</g>
				<path fill="#76770B" d="M463.525,521.818c-8.551,0.246-22.558,5.141-22.558,5.141s7.591,2.561,22.767,2.124L463.525,521.818z"/>
				<path fill="#626208" d="M463.525,521.818c8.547-0.245,22.811,3.837,22.811,3.837s-7.433,2.992-22.602,3.428L463.525,521.818z"/>
				<path fill="#493127" d="M467.113,518.505c0.059,2.034-1.542,3.729-3.574,3.787c-2.037,0.059-3.731-1.541-3.79-3.575
					c-0.059-2.033,1.542-3.73,3.578-3.789C465.359,514.87,467.055,516.472,467.113,518.505z"/>
				<path fill="#A4AB18" d="M463.635,525.656l1.682,58.501l-19.266,0.554c-2.058,0.059-3.984-0.496-5.613-1.504
					c-2.637-1.629-4.479-4.436-4.773-7.707c-0.021-0.21-0.035-0.421-0.041-0.634l-1.099-38.229c-0.065-2.307,0.64-4.449,1.887-6.188
					c1.78-2.49,4.664-4.146,7.958-4.241L463.635,525.656z"/>
				<path fill="#93932F" d="M465.316,584.156l19.264-0.554c5.598-0.161,10.003-4.828,9.842-10.426l-1.099-38.229
					c-0.16-5.598-4.826-10.007-10.425-9.846l-19.264,0.554L465.316,584.156z"/>
				<path fill="#B9B941" d="M489.447,564.366c-0.422,0.012-0.773-0.321-0.785-0.741l-0.782-27.219
					c-0.081-2.835-2.452-5.071-5.286-4.99l-6.801,0.196c-0.423,0.012-0.774-0.32-0.786-0.742c-0.013-0.42,0.319-0.772,0.742-0.785
					l6.801-0.195c3.675-0.105,6.75,2.799,6.855,6.473l0.782,27.219C490.199,564.001,489.869,564.353,489.447,564.366z"/>
				<path fill="#76770B" d="M465.043,574.656l0.273,9.501l-19.266,0.554c-2.058,0.059-3.984-0.496-5.613-1.504
					c-2.637-1.629-4.479-4.436-4.773-7.707L465.043,574.656z"/>
				<path fill="#626208" d="M465.051,574.656l0.273,9.501l19.264-0.554c2.057-0.06,3.95-0.725,5.516-1.823
					c2.54-1.778,4.219-4.686,4.329-7.969L465.051,574.656z"/>
			</g>
			<path fill="#614D44" d="M498.585,585.944l-71.053,2.042c-0.759,0.021-1.39-0.575-1.411-1.33
				c-0.022-0.761,0.573-1.393,1.332-1.414l71.053-2.042c0.759-0.021,1.391,0.575,1.412,1.335
				C499.939,585.291,499.344,585.922,498.585,585.944z"/>
			<g>
				<path fill="#F07B20" d="M436.029,597.441l-4.92,0.141c-10.242,0.295-18.781-7.768-19.076-18.01l-0.225-7.854l23.463-0.674
					L436.029,597.441z"/>
				<path fill="#614D44" d="M458.815,573.184l-46.927,1.349c-0.338,0.01-0.617-0.255-0.627-0.592
					c-0.36-12.558,9.56-23.064,22.116-23.425l2.605-0.075c12.556-0.36,23.063,9.56,23.424,22.117
					C459.417,572.895,459.152,573.174,458.815,573.184z M412.472,573.295l45.688-1.312c-0.658-11.594-10.464-20.659-22.142-20.323
					l-2.605,0.074C421.734,552.07,412.463,561.683,412.472,573.295z"/>
				<path fill="#EF651F" d="M436.029,597.441l4.921-0.142c10.241-0.294,18.305-8.834,18.011-19.076l-0.227-7.853l-23.463,0.674
					L436.029,597.441z"/>
				<path fill="#FBD22A" d="M435.369,574.451l-25.17,0.724c-0.943,0.027-1.729-0.714-1.755-1.654l0,0
					c-0.027-0.942,0.714-1.726,1.657-1.753l25.17-0.723L435.369,574.451z"/>
				<path fill="#EAB721" d="M435.271,571.044l25.17-0.724c0.941-0.026,1.727,0.713,1.753,1.655l0,0
					c0.027,0.94-0.714,1.725-1.655,1.752l-25.17,0.723L435.271,571.044z"/>
				<path fill="#FF7315" d="M442.962,593.916c-0.419,0.013-0.771-0.319-0.783-0.741c-0.013-0.421,0.319-0.772,0.739-0.784
					c6.639-0.19,11.885-5.747,11.694-12.385c-0.012-0.421,0.319-0.772,0.74-0.784c0.421-0.013,0.772,0.319,0.784,0.74
					C456.352,587.441,450.443,593.701,442.962,593.916z"/>
			</g>
			<path fill="#79D9E7" d="M515.98,526.984c-0.164,0.005-0.328-0.056-0.454-0.183l-0.909-0.922c-0.587-0.591-0.89-1.407-0.828-2.237
				c0.059-0.831,0.474-1.596,1.14-2.099c0.386-0.29,0.624-0.732,0.658-1.214c0.035-0.481-0.142-0.955-0.483-1.296l-0.682-0.679
				c-0.59-0.592-0.895-1.407-0.841-2.241c0.06-0.835,0.475-1.601,1.142-2.105l0.341-0.259c0.415-0.312,0.656-0.791,0.662-1.312
				c0.005-0.521-0.224-1.004-0.634-1.325c-0.264-0.21-0.31-0.595-0.101-0.858c0.208-0.266,0.591-0.311,0.856-0.101
				c0.709,0.559,1.107,1.396,1.098,2.297c-0.01,0.9-0.426,1.73-1.146,2.272l-0.341,0.257c-0.385,0.293-0.625,0.738-0.657,1.218
				c-0.035,0.482,0.141,0.952,0.482,1.295l0.683,0.678c0.59,0.591,0.895,1.408,0.84,2.244c-0.061,0.834-0.475,1.6-1.144,2.104
				c-0.382,0.29-0.622,0.733-0.657,1.21c-0.035,0.48,0.139,0.95,0.479,1.295l0.912,0.922c0.236,0.24,0.234,0.626-0.005,0.864
				C516.276,526.919,516.129,526.979,515.98,526.984z"/>
			<path fill="#7FE9F4" d="M511.805,521.055c-0.162,0.005-0.327-0.055-0.452-0.181l-0.91-0.922c-0.587-0.592-0.89-1.408-0.829-2.239
				c0.061-0.83,0.477-1.595,1.14-2.096c0.388-0.292,0.626-0.733,0.661-1.217c0.032-0.481-0.144-0.952-0.486-1.296l-0.68-0.68
				c-0.59-0.589-0.898-1.407-0.841-2.24c0.058-0.832,0.473-1.603,1.142-2.104l0.34-0.259c0.417-0.314,0.656-0.792,0.661-1.313
				c0.007-0.521-0.228-1.003-0.634-1.326c-0.267-0.209-0.309-0.592-0.102-0.856c0.209-0.265,0.593-0.311,0.86-0.102
				c0.706,0.56,1.104,1.396,1.096,2.299c-0.011,0.901-0.425,1.729-1.145,2.271l-0.343,0.259c-0.385,0.293-0.624,0.733-0.658,1.215
				c-0.031,0.481,0.145,0.954,0.486,1.294l0.68,0.681c0.59,0.591,0.897,1.409,0.84,2.242s-0.473,1.602-1.142,2.105
				c-0.384,0.289-0.624,0.73-0.659,1.211c-0.033,0.479,0.14,0.95,0.479,1.291l0.911,0.923c0.237,0.239,0.234,0.627-0.005,0.863
				C512.101,520.994,511.955,521.051,511.805,521.055z"/>
			<path fill="#614D44" d="M453.08,599.699l-33.945,0.976c-0.756,0.021-1.387-0.575-1.409-1.335c-0.021-0.757,0.575-1.39,1.33-1.411
				l33.945-0.976c0.757-0.021,1.39,0.576,1.411,1.332C454.435,599.045,453.836,599.677,453.08,599.699z"/>
		</g>
		<g>
			<g>
				<path fill="#614D44" d="M1470.887,558.589h-58.141c-3.678,0-6.667-2.991-6.667-6.667v-66.056c0-3.677,2.989-6.665,6.667-6.665
					h58.141c3.675,0,6.667,2.988,6.667,6.665v66.056C1477.554,555.598,1474.562,558.589,1470.887,558.589z M1412.746,481.434
					c-2.445,0-4.434,1.988-4.434,4.433v66.056c0,2.445,1.988,4.435,4.434,4.435h58.141c2.444,0,4.434-1.989,4.434-4.435v-66.056
					c0-2.444-1.989-4.433-4.434-4.433H1412.746z"/>
				<polygon fill="#6B4E32" points="1435.72,486.698 1428.309,476.688 1441.584,469.549 1441.584,491.084 				"/>
				<polygon fill="#493127" points="1447.448,486.698 1454.857,476.688 1441.584,469.549 1441.584,491.084 				"/>
				<path fill="#6B4E32" d="M1457.049,565.319h-30.93c-6.123,0-11.085-4.961-11.085-11.083v-58.713
					c0-6.122,4.962-11.086,11.085-11.086h30.93c6.121,0,11.085,4.964,11.085,11.086v58.713
					C1468.134,560.358,1463.17,565.319,1457.049,565.319z"/>
				<path fill="#493127" d="M1457.049,484.437h-15.465v80.882h15.465c6.121,0,11.085-4.961,11.085-11.083v-58.713
					C1468.134,489.401,1463.17,484.437,1457.049,484.437z"/>
				<rect x="1412.37" y="495.523" fill="#B0DBDE" width="29.214" height="53.938"/>
				<rect x="1436.193" y="495.523" fill="#B0DBDE" width="34.604" height="53.938"/>
				<circle fill="#FBD22A" cx="1441.583" cy="557.472" r="3.099"/>
				<polygon fill="#6B4E32" points="1428.309,476.688 1441.584,476.688 1441.584,469.549 				"/>
				<polygon fill="#493127" points="1441.584,469.549 1454.857,476.688 1441.584,476.688 				"/>
				<path fill="#F07B20" d="M1440.146,549.086c0,0-11.566,0.402-14.668-9.174c-3.101-9.578,0-13.028,0-13.028
					s3.012,8.823,6.645,8.366c3.636-0.455-3.976-10.553,2.307-21.362c6.283-10.808,6.283-10.808,6.283-10.808
					s2.146,9.501,7.516,12.926c5.368,3.426,7.682,13.754,4.791,19.244c-2.892,5.49,6.523-3.63,6.523-3.63
					S1459.398,552.475,1440.146,549.086z"/>
				<path fill="#EF651F" d="M1440.146,549.086c0,0,4.94-0.401,6.354-7.236c1.414-6.834-3.748-17.676-4.703-20.505
					c-0.952-2.829,2.126,17.441-1.65,18.62c-3.781,1.178-3.781,0.234-3.781,0.234S1434.967,546.895,1440.146,549.086z"/>
				<path fill="#6B4E32" d="M1441.584,567.231h-21.004c-0.527,0-0.955-0.427-0.955-0.956l0,0c0-0.527,0.428-0.956,0.955-0.956
					h21.004V567.231z"/>
				<path fill="#493127" d="M1441.584,565.319h21.003c0.527,0,0.956,0.429,0.956,0.956l0,0c0,0.529-0.429,0.956-0.956,0.956h-21.003
					V565.319z"/>
			</g>
			<g>
				<line fill="none" stroke="#6B4E32" stroke-miterlimit="10" x1="1416.052" y1="495.523" x2="1467.481" y2="550.288"/>
				<line fill="none" stroke="#6B4E32" stroke-miterlimit="10" x1="1467.581" y1="495.523" x2="1416.151" y2="550.288"/>
			</g>
			<rect x="1466.464" y="494.205" fill="#493127" width="1.472" height="58.951"/>
			<rect x="1415.034" y="494.205" fill="#6B4E32" width="1.472" height="55.451"/>
		</g>
		<g>
			<circle fill="#F2F7F3" cx="634.805" cy="346.562" r="11.392"/>
			<g>
				<path fill="#E66324" d="M634.294,328.142c-10.089,0-18.268,8.181-18.268,18.269c0,10.087,18.268,31.873,18.268,31.873
					s18.264-21.786,18.264-31.873C652.558,336.323,644.38,328.142,634.294,328.142z M634.294,355.638
					c-5.099,0-9.229-4.132-9.229-9.228c0-5.098,4.13-9.229,9.229-9.229c5.096,0,9.229,4.131,9.229,9.229
					C643.522,351.506,639.39,355.638,634.294,355.638z"/>
				<g>
					<g>
						<path fill="#F7CC5E" d="M673.266,445.497c0,0-30.77-36.993-38.973-58.254c-8.205,21.262-38.975,58.254-38.975,58.254H673.266z
							"/>
						<path fill="#717071" d="M639.354,445.497c0,0-3.996-24.122-5.061-37.985c-1.064,13.863-5.061,37.985-5.061,37.985H639.354z"/>
						<path fill="#F1A900" d="M634.293,387.242c0,0-0.35,31.742,14.658,56.193l-9.598,2.062
							C639.354,445.497,631.85,404.186,634.293,387.242z"/>
						<path fill="#F1A900" d="M634.416,387.242c0,0,0.348,31.742-14.66,56.193l9.598,2.062
							C629.354,445.497,636.857,404.186,634.416,387.242z"/>
						<path fill="#F1A900" d="M640.314,397.343c0,0-4.754-6.718-6.021-10.579c-1.27,3.861-6.021,10.579-6.021,10.579H640.314z"/>
					</g>
				</g>
			</g>
		</g>
		<g>
			<g>
				
					<line fill="none" stroke="#FFFFFF" stroke-width="3" stroke-linecap="round" stroke-linejoin="round" stroke-miterlimit="10" x1="1094.808" y1="418.183" x2="1096.374" y2="470.855"/>
				
					<line fill="none" stroke="#FFFFFF" stroke-width="3" stroke-linecap="round" stroke-linejoin="round" stroke-miterlimit="10" x1="1106.758" y1="417.6" x2="1127.967" y2="461.672"/>
				
					<line fill="none" stroke="#FFFFFF" stroke-width="3" stroke-linecap="round" stroke-linejoin="round" stroke-miterlimit="10" x1="1083.45" y1="414.751" x2="1062.874" y2="459.612"/>
			</g>
		</g>
		<g>
			<g>
				
					<line fill="none" stroke="#FFFFFF" stroke-width="3" stroke-linecap="round" stroke-linejoin="round" stroke-miterlimit="10" x1="789.594" y1="251.659" x2="789.531" y2="312.914"/>
				
					<line fill="none" stroke="#FFFFFF" stroke-width="3" stroke-linecap="round" stroke-linejoin="round" stroke-miterlimit="10" x1="801" y1="249.755" x2="821.123" y2="296.659"/>
				
					<line fill="none" stroke="#FFFFFF" stroke-width="3" stroke-linecap="round" stroke-linejoin="round" stroke-miterlimit="10" x1="776.607" y1="250.644" x2="756.031" y2="295.505"/>
			</g>
		</g>
		<g>
			<g>
				
					<line fill="none" stroke="#FFFFFF" stroke-width="3" stroke-linecap="round" stroke-linejoin="round" stroke-miterlimit="10" x1="703.608" y1="263.17" x2="703.546" y2="324.424"/>
				
					<line fill="none" stroke="#FFFFFF" stroke-width="3" stroke-linecap="round" stroke-linejoin="round" stroke-miterlimit="10" x1="715.015" y1="261.266" x2="733.75" y2="303.989"/>
				
					<line fill="none" stroke="#FFFFFF" stroke-width="3" stroke-linecap="round" stroke-linejoin="round" stroke-miterlimit="10" x1="690.622" y1="262.155" x2="670.046" y2="307.016"/>
			</g>
		</g>
	</g>
</g>
<g id="圖層_2">
</g>
</svg>
