<?xml version="1.0" encoding="utf-8"?>
<!-- Generator: Adobe Illustrator 16.0.0, SVG Export Plug-In . SVG Version: 6.00 Build 0)  -->
<!DOCTYPE svg PUBLIC "-//W3C//DTD SVG 1.1//EN" "http://www.w3.org/Graphics/SVG/1.1/DTD/svg11.dtd">
<svg version="1.1" xmlns="http://www.w3.org/2000/svg" xmlns:xlink="http://www.w3.org/1999/xlink" x="0px" y="0px" width="1920px"
	 height="750px" viewBox="0 0 1920 750" enable-background="new 0 0 1920 750" xml:space="preserve">
<g id="圖層_1">
	<rect x="-26.918" y="-905.227" display="none" fill="#B0DBDE" width="2016.129" height="1696.638"/>
	<g display="none">
		<g display="inline">
			<path fill="#FFFFFF" d="M-262.189,502.594l2.78,147.049l28.266,0.299l15.89,0.178l31.774,0.342l6.022,0.066l5.886,0.068
				l5.632,0.061l18.147,0.193l3.323,0.043l1.572,0.009l8.07,0.099l2.998,0.024l16.337,0.182l38.099,0.413l22.059,0.239l4.297,0.04
				l0.926,0.018l10.715,0.108l11.44,0.129l26.544,0.286l5.448,0.063l23.618,0.26l14.715,0.149l1.586,0.02l29.539,0.323l1.525,0.019
				l11.267,0.122l2.034,0.021l19.811,0.211l0.789,0.008l30.325,0.336l0.639-0.002l8.506,0.091l3.437,0.043l22.693,0.251l2.974,0.027
				l13.891,0.157l7.382,0.073l224.471,2.44l8.381,0.08l39.208,0.429l6.696,0.077l3.508,0.042l81.016,0.866l2.361,0.026l11.217,0.123
				l1.711,0.028l4.111,0.042l2.222,0.016l6.244,0.073l7.383,0.075l9.956,0.111l2.498,0.025l23.544,0.258l44.104,0.479l-1.651-87.368
				c0,0-21.583-31.836-49.938-15.766c-2.191-2.207-4.54-4.191-7.008-5.957c-24.457-17.457-61.07-13.435-80.702,8.344
				c-2.521,2.778-4.747,5.854-6.645,9.207c0,0-1.711-3.262-4.929-6.986c-4.365-5.025-11.468-10.897-20.845-10.684
				c-1.846,0.046-3.79,0.334-5.801,0.901c9.316-34.263-38.924-50.029-57.814-26.703c-13.128-35.815-43.637-83.204-118.874-27.763
				c-42.91-29.059-106.911,12.539-78.474,66.846c-38.906-14.703-37.297,7.627-37.297,7.627s-25.67-43.315-61.65-35.495
				c-0.704-37.247-47.463-86.382-111.774-33.367c-3.956,3.261-6.728,8.139-9.679,13.196c-9.183-15.249-18.498-23.312-26.471-27.482
				c-12.477-6.533-21.621-3.508-21.621-3.508s1.425-45.486-43.018-39.393c-11.623-37.397-114.426-64.607-117.652,25.063
				c-31.089-0.32-32.938,26.684-32.938,26.684S-242.688,476.569-262.189,502.594z"/>
			<path fill="#FFFFFF" d="M-262.189,502.594l2.78,147.049l28.266,0.299l15.89,0.178l31.774,0.342l6.022,0.066l5.886,0.068
				l5.632,0.061l18.147,0.193l3.323,0.043l1.572,0.009l8.07,0.099l2.998,0.024l16.337,0.182l38.099,0.413l22.059,0.239l4.297,0.04
				l0.926,0.018l10.715,0.108l11.44,0.129l26.544,0.286l5.448,0.063l23.618,0.26l14.715,0.149l1.586,0.02l29.539,0.323l1.525,0.019
				l11.267,0.122l2.034,0.021l19.811,0.211l0.789,0.008l30.325,0.336l0.639-0.002l8.506,0.091l3.437,0.043l22.693,0.251l2.974,0.027
				l13.891,0.157l7.382,0.073l224.471,2.44l8.381,0.08l39.208,0.429l6.696,0.077l3.508,0.042l81.016,0.866l2.361,0.026l11.217,0.123
				l1.711,0.028l4.111,0.042l2.222,0.016l6.244,0.073l7.383,0.075l9.956,0.111l2.498,0.025l23.544,0.258l44.104,0.479l-1.651-87.368
				c0,0-21.583-31.836-49.938-15.766c-2.191-2.207-4.54-4.191-7.008-5.957c-24.457-17.457-61.07-13.435-80.702,8.344
				c-2.521,2.778-4.747,5.854-6.645,9.207c0,0-1.711-3.262-4.929-6.986c-4.365-5.025-11.468-10.897-20.845-10.684
				c-1.846,0.046-3.79,0.334-5.801,0.901c9.316-34.263-38.924-50.029-57.814-26.703c-13.128-35.815-43.637-83.204-118.874-27.763
				c-42.91-29.059-106.911,12.539-78.474,66.846c-38.906-14.703-37.297,7.627-37.297,7.627s-25.67-43.315-61.65-35.495
				c-0.704-37.247-47.463-86.382-111.774-33.367c-3.956,3.261-6.728,8.139-9.679,13.196c-9.183-15.249-18.498-23.312-26.471-27.482
				c-12.477-6.533-21.621-3.508-21.621-3.508s1.425-45.486-43.018-39.393c-11.623-37.397-114.426-64.607-117.652,25.063
				c-31.089-0.32-32.938,26.684-32.938,26.684S-242.688,476.569-262.189,502.594z"/>
		</g>
		<path display="inline" fill="#FFFFFF" d="M965.941,512.39c-3.047-5.001-6.38-9.311-9.927-13.01
			c-41.028-42.729-111.124-1.78-111.124,35.474c-57.072-9.107-60.97,36.654-60.97,36.654s-7.305-28.068-37.433-6.92
			c27.406-54.836-37.371-95.215-79.725-65.35c-38.605-41.585-105.878-6.053-118.327,30.004c-19.328-22.965-67.262-6.289-57.3,27.791
			c-2.02-0.528-3.971-0.779-5.816-0.791c-9.378-0.036-16.369,5.969-20.639,11.074c-3.147,3.787-4.795,7.08-4.795,7.08
			c-1.963-3.317-4.245-6.35-6.818-9.081c-20.041-21.402-56.724-24.732-80.846-6.816c-2.434,1.813-4.745,3.842-6.895,6.089
			c-28.652-15.53-49.63,16.709-49.63,16.709v87.382l44.089-1.313l23.535-0.703l2.497-0.071l9.952-0.301l7.38-0.214l6.241-0.191
			l2.222-0.059l4.108-0.119l1.711-0.06l11.213-0.336l2.358-0.07l80.986-2.398l3.507-0.107l6.693-0.204l39.192-1.17l8.378-0.239
			l224.385-6.683l7.379-0.213l13.885-0.42l2.972-0.084l22.686-0.68l3.436-0.107l8.503-0.252l0.639-0.01l30.312-0.909l0.789-0.023
			l19.803-0.585l2.033-0.059l11.262-0.336l1.526-0.047l29.528-0.882l1.586-0.05l14.707-0.427l23.61-0.707l5.446-0.167l26.533-0.787
			l11.436-0.347l10.711-0.31l0.926-0.035l4.294-0.12l22.052-0.657l38.082-1.133l16.332-0.49l2.996-0.082l8.067-0.251l1.571-0.038
			l3.322-0.106l18.141-0.536l5.631-0.167l5.882-0.18l6.021-0.179l31.761-0.943l15.885-0.479l28.255-0.834V493.734
			c-19.991-25.65-44.899-4.545-44.899-4.545s-2.361-26.965-33.438-26.057c-23.872-98.183-107.192-60.445-118.104-22.834
			c-44.549-5.254-42.266,40.197-42.266,40.197S968.572,466.405,965.941,512.39z"/>
		<path display="inline" fill="#FFFFFF" d="M1929.06,493.734v147.074l-28.257,0.834l-15.883,0.479l-31.761,0.943l-6.022,0.179
			l-5.882,0.18l-5.63,0.167l-18.141,0.536l-3.322,0.106l-1.57,0.038l-8.068,0.251l-2.997,0.082l-16.331,0.49l-38.084,1.133
			l-22.049,0.657l-4.297,0.12l-0.925,0.035l-10.71,0.31l-11.436,0.347l-26.534,0.787l-5.445,0.167l-23.61,0.707l-14.707,0.427
			l-1.586,0.05l-29.529,0.882l-1.525,0.047l-11.262,0.336l-2.033,0.059l-19.805,0.585l-0.787,0.023l-30.312,0.909l-0.639,0.01
			l-8.503,0.252l-3.436,0.107l-22.687,0.68l-2.971,0.084l-13.885,0.42l-7.379,0.213l-224.385,6.683l-8.377,0.239l-39.194,1.17
			l-6.692,0.204l-3.507,0.107l-80.986,2.398l-2.359,0.07l-11.212,0.336l-1.71,0.06l-4.109,0.119l-2.221,0.059l-6.243,0.191
			l-7.38,0.214l-9.951,0.301l-2.497,0.071l-23.535,0.703l-44.089,1.313v-87.382c0,0,20.978-32.239,49.631-16.709
			c2.149-2.247,4.459-4.275,6.894-6.089c24.122-17.916,60.805-14.586,80.846,6.816c2.572,2.731,4.856,5.764,6.817,9.081
			c0,0,1.649-3.293,4.796-7.08c4.27-5.105,11.26-11.11,20.637-11.074c1.849,0.012,3.798,0.263,5.818,0.791
			c-9.962-34.08,37.973-50.756,57.299-27.791c12.451-36.057,56.197-80.975,118.329-30.004c42.353-29.865,107.13,10.514,79.724,65.35
			c38.62-15.436,37.434,6.92,37.434,6.92s24.846-43.793,60.969-36.654c0-37.254,70.096-78.203,111.124-35.474
			c3.547,3.699,6.88,8.009,9.926,13.01c8.892-15.419,18.054-23.658,25.946-27.977c12.35-6.768,21.551-3.917,21.551-3.917
			s-2.285-45.451,42.266-40.197c10.912-37.611,113.186-66.76,118.104,22.834c31.078-0.908,33.439,26.057,33.439,26.057
			S1909.068,468.084,1929.06,493.734z"/>
		<path display="inline" fill="#F8F8F8" d="M1240.312,582.115c-0.745-1.014-1.487-2.052-2.232-3.092
			c-0.296-0.404-0.579-0.812-0.874-1.219c-1.7-2.403-3.437-4.865-5.184-7.361c-2.518-3.569-5.097-7.189-7.754-10.775
			c2.604,5.176,4.226,9.639,4.226,12.712c0,0.001-0.844,18.389-1.997,43.515c11.662,0.768,23.45-3.131,34.111-8.047
			c1.045-0.479,2.068-0.994,3.1-1.498C1255.586,601.858,1248.079,592.792,1240.312,582.115z"/>
		<path display="inline" fill="#F8F8F8" d="M1224.268,559.668c-9.646-13.016-20.38-25.544-33.472-33.227
			c-18.398-10.786-41.219-9.867-59.453-6.246c2.474,5.79,1.759,12.576,0.156,16.252c-1.473,3.378-3.482,6.468-4.923,9.878
			c-3.908,9.278,7.25,18.729,17.701,19.292c1.169,0.064,2.337,0.056,3.496,0c9.188-0.43,18.103-4.119,27.338-5.091
			c10.392-1.083,23.252,3.579,24.408,13.523c0.544,4.662-1.7,9.178-2.277,13.828c-1.324,10.646,6.636,20.456,16.933,25.084
			c2.246,1.016,4.595,1.774,6.979,2.247c1.774,0.35,3.557,0.568,5.342,0.686c1.153-25.126,1.997-43.514,1.997-43.515
			C1228.493,569.307,1226.871,564.844,1224.268,559.668z"/>
		<g display="inline">
			<g>
				<path fill="#E6CFED" d="M372.078,565.882v189.993h-905.881V512.646c0,0,55.802-27.302,93.475-4.016
					c17.079,10.566,30.244,29.63,42.166,47.448c1.787,2.691,3.562,5.347,5.301,7.937c0.302,0.44,0.592,0.88,0.895,1.315
					c0.762,1.121,1.522,2.24,2.284,3.333c9.88,14.319,19.347,25.967,30.122,28.757c1.281,0.328,2.586,0.534,3.902,0.608
					c1.886,0.098,3.768,0,5.641-0.269h0.012c7.488-1.084,14.918-4.979,22.332-10.396c3.226-2.352,6.439-4.994,9.664-7.817
					c11.449-10.016,22.961-22.31,34.773-32.173c12.029-10.029,24.362-17.541,37.263-17.541c37.249,0,75.224,65.139,115.167,64.971
					c2.669-0.014,5.338-0.318,8.031-0.953c16.945-4.004,37.516,3.529,59.885,13.344c9.276,4.064,18.866,8.521,28.639,12.722
					c9.312,3.992,18.793,7.738,28.324,10.674c5.762,1.776,11.543,3.263,17.332,4.309c2.887,0.538,5.773,0.95,8.648,1.243
					c7.55,0.805,15.061,0.766,22.514-0.39c2.053-0.315,4.105-0.729,6.149-1.23c0.616-0.146,1.242-0.304,1.857-0.476
					c8.889-2.386,17.637-6.561,26.14-12.976c1.556-1.182,3.104-2.434,4.648-3.773c6.921-5.987,13.953-12.294,21.066-18.795
					c10.204-9.325,20.567-19.038,30.992-28.706c0.229-0.205,0.448-0.413,0.677-0.619c2.486-2.312,4.976-4.613,7.464-6.903
					c5.037-4.651,10.085-9.251,15.12-13.778c2.454-2.202,4.907-4.382,7.345-6.536c0.423-0.368,0.834-0.73,1.244-1.087
					c5.159-4.526,10.293-8.934,15.402-13.169c4.637-3.845,9.249-7.559,13.84-11.087c10.581-8.155,21.006-15.376,31.164-21.22
					c20.893-12.001,40.67-18.136,58.372-14.388c23.916,5.076,43.313,20.949,57.748,37.604
					C361.606,541.497,372.078,565.882,372.078,565.882z"/>
			</g>
			<g>
				<path fill="#E6CFED" d="M1228.493,572.38c0,0.002-8.415,183.348-8.415,183.348H216.887L126,614l90.887-113.762
					c0,0,61.796-28.679,103.516-4.219c18.914,11.099,33.493,31.123,46.695,49.84c1.979,2.827,3.945,5.616,5.871,8.338
					c0.334,0.461,0.655,0.923,0.99,1.381c0.844,1.178,1.686,2.354,2.529,3.502c10.941,15.04,21.426,27.275,33.358,30.206
					c1.419,0.344,2.863,0.562,4.321,0.64c2.088,0.102,4.172,0,6.26-0.283c8.292-1.139,16.52-5.23,24.73-10.919
					c3.572-2.47,7.131-5.246,10.702-8.212c12.68-10.521,25.428-23.435,38.509-33.795c13.322-10.535,26.979-18.425,41.266-18.425
					c41.234,0,83.273,68.371,127.489,68.246c14.532-0.041,19.554-15.29,32.233-18.323c18.959-4.535,35.658,17.088,49.729,26.236
					c53.861,35.022,118.526,52.374,168.407,1.917c34.691-35.092,60.559-77.329,102.514-105.098
					c27.017-17.881,59.066-25.801,91.495-24.264c26.325,1.248,62.737,21.37,80.054,40.633
					C1196.529,517.622,1228.493,558.7,1228.493,572.38z"/>
				<path opacity="0.1" fill="#9D56A0" d="M895.218,647.478c0.013,9.946-1.259,19.894-4.428,28.96
					c-3.249,9.349-8.507,17.773-16.425,24.307c-0.043,0.025-0.067,0.063-0.107,0.089c-10.5,8.633-24.212,12.66-37.76,15.513
					c-0.469,0.101-0.938,0.191-1.408,0.293c-0.386,0.076-0.786,0.166-1.174,0.23c-6.553,1.33-13.148,2.467-19.784,3.478
					c-6.417,0.973-12.854,1.831-19.314,2.607c-7.383,0.896-14.783,1.702-22.189,2.494c-4.562,0.486-9.11,0.973-13.671,1.458
					c-0.026,0-0.053,0.014-0.08,0.014c-0.107,0.013-0.214,0.024-0.32,0.037c-6.796,0.729-13.59,1.496-20.359,2.34
					c-0.643,0.09-1.283,0.168-1.938,0.245c-5.405,0.702-10.794,1.455-16.158,2.3c-4.667,0.741-9.323,1.547-13.951,2.443
					c-1.871,0.357-3.758,0.74-5.618,1.137c-0.227,0.04-0.455,0.089-0.669,0.141c-2.3,0.475-4.574,0.985-6.848,1.534
					c-2.249,0.524-4.482,1.075-6.701,1.663c-3.771,0.984-7.517,2.059-11.247,3.223c-3.388,1.061-6.76,2.186-10.103,3.413
					c-1.097,0.397-2.193,0.806-3.288,1.227c-6.648,2.559-13.121,5.436-19.488,8.53c-0.402,0.19-0.791,0.383-1.193,0.575H216.887
					c0,0-232.364,0.147-232.886,0.147c9.393-0.006,45.433-65.047,53.306-73.477c42.165-45.148,111.507-79.436,174.956-69.014
					c22.849,3.754,40.49,19.969,62.326,26.187c76.991,21.924,154.993-63.135,231.042-33.485
					c29.977,11.71,49.651,45.57,81.995,47.209c26.177,1.329,48.541-19.783,74.703-21.279c17.95-1.022,34.806,7.278,51.632,13.324
					c5.189,1.867,10.444,3.516,15.77,4.936c2.531,0.692,5.057,1.331,7.61,1.908c4.938,1.135,9.911,2.094,14.927,2.863
					c1.099,0.19,2.209,0.344,3.319,0.498c8.493,1.202,17.079,1.879,25.667,2.059c1.123,0.025,2.26,0.037,3.385,0.037
					c7.799,0.053,15.61-0.307,23.38-1.084c4.068-0.4,8.107-0.922,12.132-1.548c1.834-0.282,3.666-0.59,5.486-0.938
					c2.127-0.369,4.254-0.789,6.379-1.238c5.283-1.112,10.514-2.429,15.691-3.938c0.788-0.229,1.578-0.461,2.354-0.705
					c4-1.2,7.96-2.53,11.877-3.976c0.587-0.218,1.164-0.436,1.752-0.663c10.447-3.939,20.547-8.724,30.162-14.311
					C894.693,635.176,895.203,641.325,895.218,647.478z"/>
				<path fill="#F8F8F8" d="M420.414,589.643c-3.051,1.753-6.154,3.414-9.296,4.986c-1.939,0.982-3.894,1.932-5.873,2.838
					c-13.924,6.421-29.546,11.32-44.688,8.339c-2.702-0.536-5.362-1.396-7.906-2.546c-11.663-5.241-20.679-16.354-19.179-28.412
					c0.653-5.268,3.195-10.382,2.579-15.663c-1.31-11.264-15.876-16.544-27.646-15.317c-10.461,1.101-20.559,5.279-30.966,5.767
					c-1.312,0.062-2.636,0.073-3.96,0c-11.838-0.639-24.477-11.343-20.05-21.853c1.632-3.862,5.323-7.021,5.576-11.188
					c0.522-8.771-12.732-10.883-21.734-9.118c-6.89,1.344-13.686,3.044-20.385,5.076v-12.312c0,0,48.394-38.554,90.113-14.094
					c18.914,11.099,46.896,40.998,60.098,59.715c1.979,2.827,3.945,5.616,5.871,8.338c0.334,0.461,0.655,0.923,0.99,1.381
					c0.844,1.178,1.686,2.354,2.529,3.502c10.941,15.04,21.426,27.275,33.358,30.206c1.419,0.344,2.863,0.562,4.321,0.64
					C416.256,590.027,418.34,589.926,420.414,589.643z"/>
				<path fill="#F8F8F8" d="M663.173,586.538c-16.64,9.474-38.175,7.247-57.649,4.588c-8.36-1.152-17.097-2.442-23.904-7.237
					c-7.062-4.962-10.941-12.94-16.331-19.564c-5.392-6.611-14.126-12.325-22.46-9.73c-11.769,3.645-17.761,21.967-29.599,18.541
					c-6.366-1.84-8.748-9.423-8.24-15.766c0.509-6.329,2.862-12.635,1.818-18.911c-4.213,0.471-8.546-0.142-12.438-1.741
					c13.322-10.535,26.979-18.425,41.266-18.425C576.885,518.292,618.939,586.714,663.173,586.538z"/>
			</g>
			<path fill="#F8F8F8" d="M1094.313,513.509c23.403-7.85,33.486-1.603,37.029,6.687c18.234-3.621,41.055-4.54,59.453,6.246
				c13.092,7.683,23.826,20.211,33.472,33.227c-1.182-2.35-2.569-4.847-4.101-7.431c-3.448-5.241-7.469-11.427-11.782-17.9
				c-8.266-11.622-16.83-22.249-20.828-26.697c-17.316-19.263-53.729-39.385-80.054-40.633
				c-32.429-1.537-64.479,6.383-91.495,24.264c-17.337,11.475-31.924,25.423-45.525,40.314c8.229,5.236,20.457,10.569,27.506,12.562
				C1028.913,552.921,1088.438,515.479,1094.313,513.509z"/>
			<g>
				<path fill="#E6CFED" d="M1985.083,579.534v176.193h-885.677V530.166c0,0,54.558-25.318,91.39-3.725
					c16.698,9.799,29.57,27.478,41.226,44.002c1.747,2.496,3.483,4.958,5.184,7.361c0.295,0.407,0.578,0.814,0.874,1.219
					c0.745,1.04,1.487,2.078,2.232,3.092c9.66,13.278,18.916,24.08,29.451,26.668c1.253,0.304,2.528,0.496,3.815,0.564
					c1.843,0.09,3.683,0,5.515-0.25h0.012c7.32-1.005,14.584-4.617,21.834-9.64c3.153-2.181,6.295-4.632,9.448-7.25
					c11.194-9.288,22.448-20.689,33.997-29.836c11.762-9.302,23.819-16.267,36.431-16.267c36.419,0,73.548,60.406,112.6,60.252
					c2.61-0.014,5.219-0.296,7.852-0.884c16.568-3.714,36.681,3.272,58.549,12.374c9.07,3.769,18.446,7.902,28,11.797
					c9.105,3.703,18.376,7.177,27.694,9.899c5.633,1.647,11.285,3.025,16.944,3.995c2.823,0.499,5.645,0.882,8.456,1.153
					c7.382,0.746,14.724,0.71,22.012-0.362c2.007-0.292,4.013-0.677,6.013-1.141c0.602-0.135,1.214-0.281,1.815-0.441
					c8.69-2.211,17.243-6.083,25.557-12.032c1.521-1.097,3.035-2.257,4.544-3.499c6.768-5.554,13.643-11.401,20.598-17.43
					c9.977-8.648,20.108-17.656,30.301-26.621c0.225-0.191,0.438-0.383,0.661-0.575c2.432-2.145,4.865-4.277,7.298-6.401
					c4.926-4.313,9.859-8.579,14.783-12.777c2.399-2.043,4.797-4.063,7.181-6.062c0.413-0.341,0.815-0.677,1.217-1.007
					c5.044-4.198,10.063-8.284,15.059-12.213c4.533-3.565,9.043-7.01,13.531-10.282c10.345-7.562,20.536-14.258,30.469-19.678
					c20.427-11.13,39.763-16.818,57.07-13.343c23.382,4.708,42.348,19.428,56.46,34.872
					C1974.845,556.921,1985.083,579.534,1985.083,579.534z"/>
				<path opacity="0.1" fill="#9D56A0" d="M1698.277,660.158c0.011,8.781-3.91,99.342-3.91,99.342l-727.157-3.772l17.32-120.47
					c6.603,3.059,68.863-57.255,132.873-0.378c8.586,7.629,16.697,16.786,26.865,21.822c3.142,1.558,6.461,2.732,10.013,3.387
					c3.06,0.564,6.083,0.698,9.082,0.519c0.733-0.045,1.465-0.112,2.196-0.191c4.734-0.542,9.413-1.839,14.065-3.512
					c1.901-0.677,3.791-1.421,5.692-2.212c8.205-3.376,16.402-7.427,24.821-9.99c1.441-0.44,2.905-0.837,4.359-1.163
					c3.812-0.902,7.675-1.41,11.617-1.354c13.321,0.203,26.653,7.021,39.479,3.546c5.645-1.535,10.472-4.924,15.28-8.22
					c0.746-0.519,1.499-1.026,2.245-1.536c3.223-2.155,6.61-4.164,10.119-5.981c8.752-4.538,18.269-7.879,27.916-9.415
					c11.22-1.762,22.604-1.083,33.172,3.037c26.465,10.338,43.835,40.232,72.39,41.679c23.11,1.174,42.854-17.466,65.951-18.786
					c15.849-0.903,30.729,6.426,45.585,11.763c4.583,1.648,9.221,3.104,13.922,4.357c2.235,0.611,4.465,1.175,6.72,1.685
					c4.359,1.002,8.75,1.849,13.178,2.528c0.97,0.168,1.95,0.304,2.931,0.439c7.498,1.062,15.078,1.659,22.66,1.817
					c0.991,0.022,1.995,0.033,2.987,0.033c6.887,0.046,13.783-0.271,20.643-0.957c3.592-0.354,7.157-0.814,10.71-1.367
					c1.619-0.249,3.237-0.521,4.844-0.827c1.878-0.326,3.755-0.696,5.632-1.094c4.664-0.981,9.282-2.144,13.854-3.476
					c0.695-0.203,1.394-0.407,2.078-0.623c3.531-1.06,7.027-2.233,10.485-3.51c0.519-0.192,1.027-0.385,1.547-0.585
					c9.224-3.479,18.14-7.702,26.629-12.635C1697.814,649.297,1698.265,654.727,1698.277,660.158z"/>
				<path fill="#F8F8F8" d="M1493.414,606.357c-14.69,8.363-33.703,6.397-50.896,4.05c-7.381-1.017-15.094-2.156-21.104-6.39
					c-6.235-4.38-9.66-11.424-14.418-17.272c-4.762-5.837-12.472-10.881-19.829-8.591c-10.391,3.218-15.681,19.394-26.132,16.369
					c-5.62-1.624-7.724-8.318-7.274-13.918c0.449-5.588,2.526-11.155,1.605-16.696c-3.72,0.415-7.545-0.125-10.982-1.537
					c11.762-9.302,23.819-16.267,36.431-16.267C1417.233,546.105,1454.362,606.512,1493.414,606.357z"/>
				<path fill="#F8F8F8" d="M1955.477,535.699c-8.856,2.812-17.961,3.939-26.417,0.598c-8.834-3.499-17.761-11.719-26.345-7.688
					c-8.823,4.144-7.441,17.159-14.172,23.999c-4.24,4.325-10.863,5.363-16.873,6.786c-25.416,6.027-50.862,24.487-78.164,16.74
					c-8.859-2.504-15.012-7.021-19.016-12.722c44.652-38.032,88.887-69.753,124.526-62.585
					C1922.398,505.535,1941.364,520.255,1955.477,535.699z"/>
			</g>
		</g>
		<path display="inline" fill="#FFFFFF" d="M1478.69,384.733h-203.556c0,0,18.95-6.843,42.761-3.422
			c-3.436-16.203,62.758-27.984,65.747-4.419c19.192-5.153,25.555,3.683,25.555,3.683S1435.976,373.425,1478.69,384.733z"/>
		<path display="inline" fill="#FFFFFF" d="M666.15,375.645H434.137c0,0,21.599-7.8,48.738-3.9
			c-3.916-18.469,71.532-31.896,74.939-5.037c21.875-5.873,29.127,4.197,29.127,4.197S617.464,362.755,666.15,375.645z"/>
		<path display="inline" fill="#FFFFFF" d="M799.639,424.39H654.038c0,0,15.75-7.653,35.997-6.378
			c2.354-22.961,40.615-29.625,32.918-0.142C747.068,407.809,799.639,424.39,799.639,424.39z"/>
		<path display="inline" fill="#FFFFFF" d="M198.801,424.39H53.2c0,0,15.75-7.653,35.997-6.378
			c2.354-22.961,40.615-29.625,32.918-0.142C146.23,407.809,198.801,424.39,198.801,424.39z"/>
		<g display="inline">
			<path fill="#246887" d="M1035.109,709.532l-10.708-1.397l10.239-1.702c-1.487-9.856-2.954-19.276-4.194-26.751l-7.511-2.574
				h7.077c-0.658-3.886-1.242-7.121-1.719-9.443c-1.286-6.286-3.53-13.687-5.957-20.777l-6.052-1.664l5.364-0.317
				c-4.75-13.563-9.91-25.48-9.91-25.48s-3.764,11.911-8.219,30.729v0.006l8.219,3.91l-9.664,2.328
				c-1.457,6.453-2.945,13.551-4.382,21.138l8.194-3.429l-9.011,7.878c-4.562,25.308-8.26,55.443-7.624,84.799
				c39.532,0,54.139,0,54.139,0S1039.231,737.062,1035.109,709.532z"/>
			<path fill="#246887" d="M1207.078,596.144l8.72-1.133c-5.025-19.521-10.525-38.57-16.171-54.177l-10.142-2.426l8.646-1.611
				c-3.387-8.948-6.816-16.582-10.215-22.251c-3.594,9.965-6.893,22.034-9.894,35.199l7.541,3.316h-8.286
				c-1.631,7.368-3.171,15.044-4.617,22.864l21.063,1.709l-22.302,5.126c-10.354,58.523-15.662,122.159-15.662,122.159h83.92
				c0,0-9.77-54.422-23.05-106.66L1207.078,596.144z"/>
			<path fill="#246887" d="M1085.16,598.949l-12.604-4.596c5.38-20.597,11.367-40.729,17.697-57.283l12.54-3.08l-10.857-1.204
				c3.816-9.499,8.052-27.899,12.032-33.985c4.938,10.177,9.297,32.822,13.643,46.362l-9.256,3.864l10.337-0.452
				c2.37,7.581,4.643,15.486,6.806,23.548l-16.773,9.263l18.627-2.215c15.589,60.353,25.121,126.306,25.121,126.306l-116.414,10.418
				c0,0,16.719-63.035,30.896-118.142L1085.16,598.949z"/>
			<path fill="#246887" d="M1906.831,664.535l-12.604-4.596c5.38-20.597,11.367-40.729,17.697-57.283l12.54-3.08l-10.857-1.204
				c3.816-9.499,8.052-27.899,12.032-33.985c4.938,10.177,9.297,32.822,13.643,46.362l-9.256,3.864l10.337-0.452
				c2.37,7.581,4.643,15.486,6.806,23.548l-16.773,9.263l18.627-2.215c15.589,60.353,25.121,126.306,25.121,126.306l-116.414,10.418
				c0,0,16.719-63.035,30.896-118.142L1906.831,664.535z"/>
			<path fill="#247CA7" d="M1237.684,647.471l12.354-8.572c-4.268-19.521-8.938-38.57-13.732-54.177l-8.613-2.425l7.342-1.612
				c-2.875-8.946-5.787-16.583-8.674-22.25c-3.052,9.965-5.854,22.032-8.402,35.199l6.404,3.315h-7.036
				c-1.386,7.369-2.693,15.045-3.924,22.865l5.212,1.768l-6.261,5.066c-8.791,58.522-13.3,122.158-13.3,122.158h71.266
				c0,0-8.297-54.42-19.576-106.658L1237.684,647.471z"/>
			<path fill="#247CA7" d="M982.716,670.455l10.289-6.628c-3.555-15.095-7.443-29.822-11.438-41.89l-7.172-1.874l6.113-1.247
				c-2.396-6.919-4.819-12.821-7.226-17.205c-2.539,7.705-4.873,17.035-6.997,27.219l5.334,2.561h-5.86
				c-1.153,5.699-2.242,11.634-3.268,17.68l9.128-2.229l-10.002,7.514c-7.321,45.249-11.077,94.451-11.077,94.451h59.357
				c0,0-6.911-42.076-16.306-82.467L982.716,670.455z"/>
			<path opacity="0.2" fill="#67A2A0" d="M976.323,647.471l3.896,86.458C980.22,733.929,972.383,689.35,976.323,647.471z"/>
			<path fill="#247CA7" d="M1826.293,658.193l11.898-7.666c-4.111-17.457-8.607-34.489-13.229-48.445l-8.295-2.167l7.07-1.442
				c-2.77-8.002-5.573-14.828-8.355-19.897c-2.938,8.911-5.637,19.701-8.093,31.479l6.169,2.961h-6.777
				c-1.334,6.591-2.594,13.454-3.779,20.446l10.557-2.577l-11.567,8.689c-8.467,52.331-12.811,109.233-12.811,109.233h68.647
				c0,0-7.994-48.661-18.857-95.373L1826.293,658.193z"/>
			<path opacity="0.2" fill="#67A2A0" d="M1818.898,631.611l4.508,99.989C1823.406,731.601,1814.342,680.045,1818.898,631.611z"/>
			<path opacity="0.2" fill="#67A2A0" d="M1228.493,603.402v81.264C1228.493,684.666,1232.956,640.176,1228.493,603.402z"/>
			<path fill="#247CA7" d="M1285.311,652.754l11.174-7.195c-3.861-16.391-8.083-32.385-12.418-45.486l-7.79-2.034l6.64-1.354
				c-2.6-7.511-5.231-13.922-7.844-18.682c-2.761,8.368-5.293,18.5-7.598,29.552l5.791,2.784h-6.365
				c-1.251,6.187-2.434,12.632-3.545,19.196l9.91-2.421l-10.863,8.158c-7.951,49.133-12.026,102.558-12.026,102.558h64.448
				c0,0-7.502-45.688-17.699-89.545L1285.311,652.754z"/>
			<path fill="#247CA7" d="M1874.781,667.771l11.174-7.195c-3.861-16.391-8.083-32.385-12.418-45.486l-7.79-2.034l6.64-1.354
				c-2.6-7.511-5.231-13.922-7.844-18.682c-2.761,8.368-5.293,18.5-7.598,29.552l5.791,2.784h-6.365
				c-1.251,6.187-2.434,12.632-3.545,19.196l9.91-2.421l-10.863,8.158c-7.95,49.133-12.026,102.558-12.026,102.558h64.448
				c0,0-7.502-45.688-17.699-89.545L1874.781,667.771z"/>
			<path fill="#2B87BE" d="M1053.327,635.257l-15.285-3.345c4.251-20.764,8.899-41.024,13.672-57.623l8.577-2.578l-7.31-1.715
				c2.863-9.517,5.762-17.638,8.636-23.668c3.038,10.602,5.829,23.437,8.366,37.439l-6.377,3.527h7.006
				c1.379,7.837,2.682,16.001,3.908,24.318l-10.674,4.65l11.717,2.619c8.754,62.243,13.244,129.924,13.244,129.924h-70.96
				c0,0,8.264-57.88,19.49-113.439L1053.327,635.257z"/>
			<path fill="#2B87BE" d="M1175.735,661.473l-14.643-2.233l14.001-2.714c1.429-14.061,0.893-30.598-0.805-42.527l-5.866-4.266
				l4.47-2.385c-0.897-6.201-2.493-13.087-3.146-16.789c-1.759-10.031-5.198-17.733-8.516-29.049l-9.264-2.656l8.323-0.504
				c-6.496-21.643-16.519-40.659-16.519-40.659s-5.143,19.007-11.235,49.033v0.01l11.235,6.24l-13.21,3.712
				c-1.996,10.3-4.028,21.623-5.993,33.73l11.875,4.517l-12.991,2.581c-6.241,40.384-11.295,88.469-10.428,135.311
				c54.06,0,74.033,0,74.033,0S1181.373,705.4,1175.735,661.473z"/>
			<path fill="#247CA7" d="M1138.904,680.18l-11.644-1.775l11.135-2.159c-1.617-12.508-3.213-24.46-4.562-33.943l-8.166-3.267h7.696
				c-0.716-4.931-1.353-9.038-1.87-11.982c-1.397-7.977-3.838-17.367-6.477-26.366l-6.58-2.112l5.834-0.401
				c-5.166-17.212-10.781-32.333-10.781-32.333s-4.092,15.114-8.936,38.993v0.007l8.936,4.961l-10.505,2.954
				c-1.588,8.188-3.205,17.194-4.769,26.82l8.914-4.348l-9.801,9.995c-4.962,32.113-8.981,70.353-8.29,107.602
				c42.987,0,58.873,0,58.873,0S1143.389,715.112,1138.904,680.18z"/>
			<path opacity="0.2" fill="#67A2A0" d="M1059.065,595.522l-2.403,113.825C1056.662,709.348,1054.688,623.979,1059.065,595.522z"/>
			<path opacity="0.2" fill="#67A2A0" d="M1149.994,572.38l5.767,108.95C1155.761,681.33,1157.304,608.34,1149.994,572.38z"/>
			<path fill="#246887" d="M1392.572,701.34l-12.824-1.674l12.263-2.039c-1.781-11.804-3.538-23.085-5.023-32.037l-8.995-3.083
				h8.477c-0.789-4.653-1.488-8.528-2.059-11.309c-1.541-7.528-4.229-16.392-7.135-24.884l-7.248-1.992l6.424-0.381
				c-5.688-16.243-11.867-30.516-11.867-30.516s-4.508,14.266-9.843,36.801v0.008l9.843,4.683l-11.574,2.788
				c-1.744,7.729-3.527,16.229-5.248,25.314l9.814-4.106l-10.791,9.435c-5.465,30.309-9.893,66.399-9.131,101.556
				c47.344,0,64.836,0,64.836,0S1397.508,734.31,1392.572,701.34z"/>
			<path fill="#246887" d="M1560.821,621.51l8.72-1.133c-5.025-19.521-10.525-38.57-16.171-54.177l-10.142-2.426l8.646-1.611
				c-3.387-8.948-6.816-16.582-10.215-22.251c-3.594,9.965-6.893,22.034-9.895,35.199l7.542,3.316h-8.286
				c-1.631,7.368-3.172,15.044-4.617,22.864l21.063,1.709l-22.302,5.126c-10.354,58.523-15.662,122.159-15.662,122.159h83.92
				c0,0-9.77-54.422-23.05-106.66L1560.821,621.51z"/>
			<path fill="#246887" d="M1438.903,624.315l-12.604-4.596c5.38-20.597,11.367-40.729,17.697-57.283l12.54-3.08l-10.857-1.204
				c3.816-9.499,8.052-27.899,12.032-33.985c4.938,10.177,9.297,32.822,13.643,46.362l-9.256,3.864l10.336-0.452
				c2.371,7.581,4.644,15.486,6.807,23.548l-16.773,9.263l18.627-2.215c15.588,60.353,25.121,126.306,25.121,126.306
				l-116.414,10.418c0,0,16.719-63.035,30.896-118.142L1438.903,624.315z"/>
			<path fill="#246887" d="M1673.165,669.3l-12.604-4.596c5.38-20.597,11.367-40.729,17.697-57.283l12.54-3.08l-10.857-1.204
				c3.816-9.499,8.052-27.899,12.032-33.985c4.938,10.177,9.297,32.822,13.643,46.362l-9.256,3.864l10.337-0.452
				c2.37,7.581,4.643,15.486,6.806,23.548l-16.773,9.263l18.627-2.215c15.589,60.353,25.121,126.306,25.121,126.306l-116.414,10.418
				c0,0,16.719-63.035,30.896-118.142L1673.165,669.3z"/>
			<path fill="#247CA7" d="M1591.427,672.837l12.354-8.572c-4.268-19.521-8.938-38.57-13.732-54.177l-8.613-2.425l7.342-1.612
				c-2.875-8.946-5.787-16.583-8.674-22.25c-3.052,9.965-5.854,22.032-8.402,35.199l6.404,3.315h-7.037
				c-1.385,7.369-2.692,15.045-3.923,22.865l5.212,1.768l-6.261,5.066c-8.791,58.522-13.3,122.158-13.3,122.158h71.266
				c0,0-8.297-54.42-19.576-106.658L1591.427,672.837z"/>
			<path fill="#247CA7" d="M1336.459,695.821l10.289-6.628c-3.555-15.095-7.443-29.822-11.438-41.89l-7.172-1.874l6.113-1.247
				c-2.396-6.919-4.819-12.821-7.226-17.205c-2.539,7.705-4.873,17.035-6.997,27.219l5.334,2.561h-5.86
				c-1.153,5.699-2.242,11.634-3.268,17.68l9.128-2.229l-10.002,7.514c-7.321,45.249-11.077,94.451-11.077,94.451h59.357
				c0,0-6.911-42.076-16.306-82.467L1336.459,695.821z"/>
			<path opacity="0.2" fill="#67A2A0" d="M1330.066,672.837l3.896,86.458C1333.963,759.295,1326.126,714.716,1330.066,672.837z"/>
			<path opacity="0.2" fill="#67A2A0" d="M1582.236,628.769v81.264C1582.236,710.032,1586.699,665.542,1582.236,628.769z"/>
			<path fill="#247CA7" d="M1638.84,684.843l10.291-6.626c-3.557-15.096-7.444-29.826-11.437-41.892l-7.175-1.874l6.115-1.246
				c-2.395-6.918-4.818-12.822-7.225-17.206c-2.543,7.707-4.875,17.038-6.997,27.217l5.333,2.564h-5.861
				c-1.152,5.697-2.242,11.634-3.265,17.679l9.126-2.229l-10.004,7.514c-7.322,45.25-11.076,94.453-11.076,94.453h59.355
				c0,0-6.91-42.078-16.301-82.469L1638.84,684.843z"/>
			<path fill="#2B87BE" d="M1407.07,660.623l-15.285-3.345c4.251-20.764,8.899-41.024,13.672-57.623l8.577-2.578l-7.31-1.715
				c2.863-9.517,5.762-17.638,8.636-23.668c3.038,10.602,5.829,23.437,8.366,37.439l-6.377,3.527h7.006
				c1.379,7.837,2.682,16.001,3.908,24.318l-10.674,4.65l11.717,2.619c8.754,62.243,13.244,129.924,13.244,129.924h-70.96
				c0,0,8.264-57.88,19.49-113.439L1407.07,660.623z"/>
			<path fill="#2B87BE" d="M1529.479,686.839l-14.643-2.233l14.001-2.714c1.429-14.061,0.893-30.598-0.806-42.527l-5.865-4.266
				l4.469-2.385c-0.896-6.201-2.492-13.087-3.145-16.789c-1.76-10.031-5.198-17.733-8.516-29.049l-9.264-2.656l8.323-0.504
				c-6.496-21.643-16.519-40.659-16.519-40.659s-5.143,19.007-11.235,49.033v0.01l11.235,6.24l-13.21,3.712
				c-1.996,10.3-4.028,21.623-5.993,33.73l11.875,4.517l-12.991,2.581c-6.241,40.384-11.295,88.469-10.428,135.311
				c54.06,0,74.032,0,74.032,0S1535.115,730.767,1529.479,686.839z"/>
			<path fill="#247CA7" d="M1492.647,705.546l-11.644-1.775l11.135-2.159c-1.617-12.508-3.213-24.46-4.562-33.943l-8.166-3.267
				h7.696c-0.716-4.931-1.353-9.038-1.87-11.982c-1.397-7.977-3.838-17.367-6.477-26.366l-6.58-2.112l5.834-0.401
				c-5.166-17.212-10.781-32.333-10.781-32.333s-4.092,15.114-8.936,38.993v0.007l8.936,4.961l-10.505,2.954
				c-1.588,8.188-3.205,17.194-4.769,26.82l8.914-4.348l-9.801,9.995c-4.962,32.113-8.981,70.353-8.29,107.602
				c42.987,0,58.873,0,58.873,0S1497.132,740.479,1492.647,705.546z"/>
			<path fill="#247CA7" d="M297.117,705.546l-11.644-1.775l11.135-2.159c-1.617-12.508-3.213-24.46-4.562-33.943l-8.166-3.267h7.696
				c-0.716-4.931-1.353-9.038-1.87-11.982c-1.397-7.977-3.838-17.367-6.477-26.366l-6.58-2.112l5.834-0.401
				c-5.166-17.212-10.781-32.333-10.781-32.333s-4.092,15.114-8.936,38.993v0.007l8.936,4.961l-10.505,2.954
				c-1.588,8.188-3.205,17.194-4.769,26.82l8.914-4.348l-9.801,9.995c-4.962,32.113-8.981,70.353-8.29,107.602
				c42.987,0,58.873,0,58.873,0S301.602,740.479,297.117,705.546z"/>
			<path opacity="0.2" fill="#67A2A0" d="M1412.809,620.889l-2.403,113.825C1410.405,734.714,1408.432,649.346,1412.809,620.889z"/>
			<path opacity="0.2" fill="#67A2A0" d="M1503.737,597.746l5.767,108.95C1509.504,706.696,1511.047,633.706,1503.737,597.746z"/>
			<path fill="#246887" d="M4.583,641.17l-12.604-4.596c5.38-20.597,11.367-40.729,17.697-57.283l12.54-3.08l-10.857-1.204
				c3.816-9.499,8.052-27.899,12.032-33.985c4.938,10.177,9.297,32.822,13.643,46.362l-9.256,3.864l10.337-0.452
				c2.37,7.581,4.643,15.486,6.806,23.548l-16.773,9.263l18.627-2.215c15.589,60.353,25.121,126.306,25.121,126.306L-44.52,758.115
				c0,0,16.719-63.035,30.896-118.142L4.583,641.17z"/>
			<path fill="#2B87BE" d="M100.461,686.839l-14.643-2.233l14.001-2.714c1.429-14.061,0.893-30.598-0.805-42.527l-5.866-4.266
				l4.47-2.385c-0.897-6.201-2.493-13.087-3.146-16.789c-1.759-10.031-5.198-17.733-8.516-29.049l-9.264-2.656l8.323-0.504
				c-6.496-21.643-16.519-40.659-16.519-40.659s-5.143,19.007-11.235,49.033v0.01l11.235,6.24l-13.21,3.712
				c-1.996,10.3-4.028,21.623-5.993,33.73l11.875,4.517l-12.991,2.581c-6.241,40.384-11.295,88.469-10.428,135.311
				c54.06,0,74.033,0,74.033,0S106.099,730.767,100.461,686.839z"/>
			<path fill="#247CA7" d="M63.63,705.546l-11.644-1.775l11.135-2.159c-1.617-12.508-3.213-24.46-4.562-33.943l-8.166-3.267h7.696
				c-0.716-4.931-1.353-9.038-1.87-11.982c-1.397-7.977-3.838-17.367-6.477-26.366l-6.58-2.112l5.834-0.401
				c-5.166-17.212-10.781-32.333-10.781-32.333s-4.092,15.114-8.936,38.993v0.007l8.936,4.961l-10.505,2.954
				c-1.588,8.188-3.205,17.194-4.769,26.82l8.914-4.348l-9.801,9.995c-4.962,32.113-8.981,70.353-8.29,107.602
				c42.987,0,58.873,0,58.873,0S68.114,740.479,63.63,705.546z"/>
			<path opacity="0.2" fill="#67A2A0" d="M74.72,597.746l5.767,108.95C80.486,706.696,82.029,633.706,74.72,597.746z"/>
			<path fill="#246887" d="M150.19,657.41l-12.604-4.596c5.38-20.597,11.367-40.729,17.697-57.283l12.54-3.08l-10.857-1.204
				c3.816-9.499,8.052-27.899,12.032-33.985c4.938,10.177,9.297,32.822,13.643,46.362l-9.256,3.864l10.337-0.452
				c2.37,7.581,4.643,15.486,6.806,23.548l-16.773,9.263l18.627-2.215c15.589,60.353,25.121,126.306,25.121,126.306l-116.414,10.418
				c0,0,16.719-63.035,30.896-118.142L150.19,657.41z"/>
			<path fill="#2B87BE" d="M265.678,686.839l-14.643-2.233l14.001-2.714c1.429-14.061,0.893-30.598-0.805-42.527l-5.866-4.266
				l4.47-2.385c-0.897-6.201-2.493-13.087-3.146-16.789c-1.759-10.031-5.198-17.733-8.516-29.049l-9.264-2.656l8.323-0.504
				c-6.496-21.643-16.519-40.659-16.519-40.659s-5.143,19.007-11.235,49.033v0.01l11.235,6.24l-13.21,3.712
				c-1.996,10.3-4.028,21.623-5.993,33.73l11.875,4.517l-12.991,2.581c-6.241,40.384-11.295,88.469-10.428,135.311
				c54.06,0,74.033,0,74.033,0S271.315,730.767,265.678,686.839z"/>
			<path fill="#247CA7" d="M228.847,705.546l-11.644-1.775l11.135-2.159c-1.617-12.508-3.213-24.46-4.562-33.943l-8.166-3.267h7.696
				c-0.716-4.931-1.353-9.038-1.87-11.982c-1.397-7.977-3.838-17.367-6.477-26.366l-6.58-2.112l5.834-0.401
				c-5.166-17.212-10.781-32.333-10.781-32.333s-4.092,15.114-8.936,38.993v0.007l8.936,4.961l-10.505,2.954
				c-1.588,8.188-3.205,17.194-4.769,26.82l8.914-4.348l-9.801,9.995c-4.962,32.113-8.981,70.353-8.29,107.602
				c42.987,0,58.873,0,58.873,0S233.331,740.479,228.847,705.546z"/>
			<path opacity="0.2" fill="#67A2A0" d="M239.937,597.746l5.767,108.95C245.703,706.696,247.246,633.706,239.937,597.746z"/>
			<path fill="#247CA7" d="M321.925,659.57l13.502-8.694c-4.666-19.806-9.767-39.132-15.005-54.962l-9.413-2.458l8.022-1.636
				c-3.141-9.075-6.32-16.822-9.478-22.573c-3.336,10.111-6.396,22.354-9.181,35.708l6.998,3.364h-7.691
				c-1.512,7.475-2.94,15.263-4.283,23.194l11.975-2.925l-13.127,9.857c-9.605,59.368-14.531,123.923-14.531,123.923h77.874
				c0,0-9.064-55.206-21.386-108.199L321.925,659.57z"/>
			<path fill="#246887" d="M418.847,701.34l-12.824-1.674l12.263-2.039c-1.781-11.804-3.538-23.085-5.023-32.037l-8.995-3.083h8.477
				c-0.789-4.653-1.488-8.528-2.059-11.309c-1.541-7.528-4.229-16.392-7.135-24.884l-7.248-1.992l6.425-0.381
				c-5.688-16.243-11.868-30.516-11.868-30.516s-4.508,14.266-9.843,36.801v0.008l9.843,4.683l-11.574,2.788
				c-1.744,7.729-3.527,16.229-5.248,25.314l9.814-4.106l-10.791,9.435c-5.465,30.309-9.893,66.399-9.131,101.556
				c47.344,0,64.836,0,64.836,0S423.782,734.31,418.847,701.34z"/>
			<path fill="#246887" d="M587.096,644.327l8.72-1.133c-5.025-19.521-10.525-38.57-16.171-54.177l-10.142-2.426l8.646-1.611
				c-3.387-8.948-6.816-16.582-10.215-22.251c-3.594,9.965-6.893,22.034-9.894,35.199l7.541,3.316h-8.286
				c-1.631,7.368-3.171,15.044-4.617,22.864l21.063,1.709l-22.302,5.126c-10.354,58.523-15.662,122.159-15.662,122.159h83.92
				c0,0-9.77-54.422-23.05-106.66L587.096,644.327z"/>
			<path fill="#246887" d="M465.178,624.315l-12.604-4.596c5.38-20.597,11.367-40.729,17.697-57.283l12.54-3.08l-10.857-1.204
				c3.816-9.499,8.052-27.899,12.032-33.985c4.938,10.177,9.297,32.822,13.643,46.362l-9.256,3.864l10.337-0.452
				c2.37,7.581,4.643,15.486,6.806,23.548l-16.773,9.263l18.627-2.215c15.589,60.353,25.121,126.306,25.121,126.306l-116.414,10.418
				c0,0,16.719-63.035,30.896-118.142L465.178,624.315z"/>
			<path fill="#247CA7" d="M362.733,695.821l10.289-6.628c-3.555-15.095-7.443-29.822-11.438-41.89l-7.172-1.874l6.113-1.247
				c-2.396-6.919-4.819-12.821-7.226-17.205c-2.539,7.705-4.873,17.035-6.997,27.219l5.334,2.561h-5.86
				c-1.153,5.699-2.242,11.634-3.268,17.68l9.128-2.229l-10.002,7.514c-7.321,45.249-11.077,94.451-11.077,94.451h59.357
				c0,0-6.911-42.076-16.306-82.467L362.733,695.821z"/>
			<path fill="#2B87BE" d="M433.345,660.623l-15.285-3.345c4.251-20.764,8.899-41.024,13.672-57.623l8.577-2.578l-7.31-1.715
				c2.863-9.517,5.762-17.638,8.636-23.668c3.038,10.602,5.829,23.437,8.366,37.439l-6.377,3.527h7.006
				c1.379,7.837,2.682,16.001,3.908,24.318l-10.674,4.65l11.717,2.619c8.754,62.243,13.244,129.924,13.244,129.924h-70.96
				c0,0,8.264-57.88,19.49-113.439L433.345,660.623z"/>
			<path fill="#2B87BE" d="M555.753,686.839l-14.643-2.233l14.001-2.714c1.429-14.061,0.893-30.598-0.805-42.527l-5.866-4.266
				l4.47-2.385c-0.897-6.201-2.493-13.087-3.146-16.789c-1.759-10.031-5.198-17.733-8.516-29.049l-9.264-2.656l8.323-0.504
				c-6.496-21.643-16.519-40.659-16.519-40.659s-5.143,19.007-11.235,49.033v0.01l11.235,6.24l-13.21,3.712
				c-1.996,10.3-4.028,21.623-5.993,33.73l11.875,4.517l-12.991,2.581c-6.241,40.384-11.295,88.469-10.428,135.311
				c54.06,0,74.033,0,74.033,0S561.391,730.767,555.753,686.839z"/>
			<path fill="#247CA7" d="M518.922,705.546l-11.644-1.775l11.135-2.159c-1.617-12.508-3.213-24.46-4.562-33.943l-8.166-3.267h7.696
				c-0.716-4.931-1.353-9.038-1.87-11.982c-1.397-7.977-3.838-17.367-6.477-26.366l-6.58-2.112l5.834-0.401
				c-5.166-17.212-10.781-32.333-10.781-32.333s-4.092,15.114-8.936,38.993v0.007l8.936,4.961l-10.505,2.954
				c-1.588,8.188-3.205,17.194-4.769,26.82l8.914-4.348l-9.801,9.995c-4.962,32.113-8.981,70.353-8.29,107.602
				c42.987,0,58.873,0,58.873,0S523.406,740.479,518.922,705.546z"/>
			<path opacity="0.2" fill="#67A2A0" d="M439.083,620.889l-2.403,113.825C436.68,734.714,434.706,649.346,439.083,620.889z"/>
			<path opacity="0.2" fill="#67A2A0" d="M530.012,597.746l5.767,108.95C535.778,706.696,537.321,633.706,530.012,597.746z"/>
			<path fill="#2B87BE" d="M1796.465,686.839l-14.642-2.233l14.001-2.714c1.428-14.061,0.893-30.598-0.805-42.527l-5.866-4.266
				l4.47-2.385c-0.897-6.201-2.493-13.087-3.146-16.789c-1.759-10.031-5.198-17.733-8.516-29.049l-9.264-2.656l8.323-0.504
				c-6.496-21.643-16.52-40.659-16.52-40.659s-5.142,19.007-11.234,49.033v0.01l11.234,6.24l-13.209,3.712
				c-1.996,10.3-4.028,21.623-5.993,33.73l11.875,4.517l-12.991,2.581c-6.241,40.384-11.295,88.469-10.428,135.311
				c54.059,0,74.033,0,74.033,0S1802.104,730.767,1796.465,686.839z"/>
			<path fill="#247CA7" d="M1759.635,705.546l-11.644-1.775l11.135-2.159c-1.617-12.508-3.213-24.46-4.562-33.943l-8.166-3.267
				h7.696c-0.716-4.931-1.353-9.038-1.87-11.982c-1.397-7.977-3.839-17.367-6.477-26.366l-6.58-2.112l5.834-0.401
				c-5.165-17.212-10.781-32.333-10.781-32.333s-4.092,15.114-8.937,38.993v0.007l8.937,4.961l-10.505,2.954
				c-1.588,8.188-3.205,17.194-4.769,26.82l8.914-4.348l-9.801,9.995c-4.962,32.113-8.981,70.353-8.29,107.602
				c42.987,0,58.873,0,58.873,0S1764.119,740.479,1759.635,705.546z"/>
			<path opacity="0.2" fill="#67A2A0" d="M1770.725,597.746l5.767,108.95C1776.491,706.696,1778.034,633.706,1770.725,597.746z"/>
			<path fill="#2B87BE" d="M144.824,694.059l-10.709-1.398l10.238-1.702c-1.486-9.858-2.952-19.275-4.194-26.751l-7.51-2.572h7.076
				c-0.656-3.887-1.241-7.123-1.718-9.444c-1.285-6.287-3.531-13.687-5.958-20.777l-6.05-1.665l5.365-0.316
				c-4.752-13.562-9.914-25.48-9.914-25.48s-3.762,11.912-8.217,30.729v0.006l8.217,3.911l-9.66,2.327
				c-1.459,6.452-2.945,13.551-4.383,21.137l8.746,3.415l-9.562,1.036c-4.563,25.306-8.26,55.441-7.625,84.797
				c39.532,0,54.139,0,54.139,0S148.945,721.588,144.824,694.059z"/>
			<path fill="#246887" d="M716.247,650.961l10.407-4.692c-4.267-20.547-9.036-40.624-14.116-57.123l-10.296-2.981l8.943-1.289
				c-3.065-9.467-6.408-27.827-9.637-33.879c-4.142,10.211-7.904,32.882-11.587,46.451l7.588,3.793l-8.502-0.374
				c-2.01,7.597-3.941,15.519-5.785,23.594l13.729,9.128l-15.311-2.069c-13.296,60.454-21.651,126.457-21.651,126.457l95.713,9.509
				c0,0-13.268-62.881-24.505-117.859L716.247,650.961z"/>
			<path fill="#247CA7" d="M642.723,690.074l12.354-8.571c-4.27-19.521-8.939-38.571-13.733-54.179l-8.612-2.424l7.341-1.61
				c-2.875-8.949-5.786-16.585-8.673-22.252c-3.052,9.965-5.854,22.034-8.402,35.199l6.404,3.315h-7.036
				c-1.386,7.369-2.692,15.045-3.923,22.864l5.211,1.771l-6.262,5.066c-8.791,58.521-13.299,122.157-13.299,122.157h71.266
				c0,0-8.299-54.419-19.576-106.659L642.723,690.074z"/>
			<path opacity="0.2" fill="#67A2A0" d="M633.532,646.007v81.263C633.532,727.27,637.995,682.779,633.532,646.007z"/>
			<path fill="#2B87BE" d="M655.177,705.544l-15.285-3.345c4.25-20.764,8.899-41.023,13.674-57.623l8.575-2.58l-7.31-1.713
				c2.863-9.517,5.762-17.637,8.636-23.666c3.038,10.599,5.828,23.436,8.366,37.437l-6.377,3.528h7.007
				c1.379,7.837,2.681,16.001,3.905,24.317l-10.672,4.652l11.717,2.618c8.754,62.244,13.244,129.924,13.244,129.924h-70.959
				c0,0,8.262-57.879,19.49-113.439L655.177,705.544z"/>
			<path opacity="0.2" fill="#67A2A0" d="M660.915,665.809l-2.403,113.828C658.512,779.637,656.538,694.264,660.915,665.809z"/>
			<path fill="#2B87BE" d="M776.226,694.059l-10.709-1.398l10.238-1.702c-1.486-9.858-2.952-19.275-4.194-26.751l-7.51-2.572h7.076
				c-0.656-3.887-1.241-7.123-1.718-9.444c-1.285-6.287-3.531-13.687-5.958-20.777l-6.05-1.665l5.365-0.316
				c-4.752-13.562-9.914-25.48-9.914-25.48s-3.762,11.912-8.217,30.729v0.006l8.217,3.911l-9.66,2.327
				c-1.459,6.452-2.945,13.551-4.383,21.137l8.746,3.415l-9.562,1.036c-4.563,25.306-8.26,55.441-7.625,84.797
				c39.532,0,54.139,0,54.139,0S780.347,721.588,776.226,694.059z"/>
		</g>
		<path display="inline" fill="#4CADD7" d="M1320.595,708.355v60.908H867.096c0,0,0.42-3.434,1.607-8.66
			c0.988-4.436,2.531-10.154,4.832-16.185c0.059-0.147,0.121-0.309,0.184-0.456c1.557-4.017,3.446-8.156,5.73-12.133
			c3.166-5.486,7.08-10.637,11.924-14.717c0.691-0.579,1.398-1.146,2.139-1.679c4.805-3.545,10.463-6.027,17.084-6.809
			c1.472-0.183,3.003-0.271,4.572-0.271c-0.766-6.919,0.592-12.973,3.459-18.1c4.361-7.796,12.205-13.453,21.373-16.812
			c2.755-1.015,5.633-1.819,8.562-2.412c0.234-0.05,0.468-0.086,0.703-0.135c2.371-0.442,4.781-0.753,7.201-0.914
			c0.126-0.024,0.25-0.024,0.371-0.024c1.781-0.124,3.559-0.16,5.326-0.111c5.141,0.111,10.193,0.877,14.875,2.334
			c4.793,1.484,9.189,3.683,12.849,6.625c0.397,0.306,0.765,0.627,1.136,0.962c4.646,4.09,7.957,9.489,9.18,16.258
			c8.068-4.744,13.108-4.942,16.248-3.372c5.027,2.483,5.226,9.426,5.226,9.426s0.928-3.41,3.346-8.265
			c2.089-4.176,5.277-9.438,9.946-14.529c5.817-6.362,13.935-12.452,25.055-15.838c1.767-0.543,3.597-1.012,5.512-1.409
			c5.164-1.05,10.896-1.544,17.246-1.284c1.187-5.584,3.521-10.586,6.683-14.912c2.495-3.435,5.524-6.449,8.884-8.982
			c4.113-3.101,8.723-5.484,13.541-7.066c0.777-0.259,1.568-0.493,2.373-0.702c2.803-0.765,5.669-1.263,8.512-1.435
			c5.795-0.409,11.541,0.407,16.703,2.582c7.449,3.125,13.701,9.081,17.258,18.296c9.969-8.363,17.778-8.932,23.659-6.3
			c8.093,3.632,12.553,13.295,14.012,17.024c0.37,0.939,0.542,1.495,0.542,1.495s0.865-0.681,2.422-1.58
			c1.817-1.076,4.584-2.473,7.982-3.474c0.566-0.171,1.148-0.332,1.742-0.471c0.739-0.183,1.504-0.331,2.283-0.454
			c5.485-0.891,12.035-0.446,18.768,3.434c1.246,0.717,2.522,1.568,3.781,2.545c0.555-0.964,1.159-1.879,1.789-2.717
			c1.446-1.901,3.088-3.496,4.895-4.819c2.433-1.778,5.15-3.05,8.03-3.83c9.917-2.741,21.73,0.196,30.28,7.301
			c11.785,9.798,17.332,27.526,3.066,49.209c16.021,0,19.727,13.526,19.727,13.526s0.693-3.692,4.373-6.816
			C1307.127,710.012,1312.206,707.801,1320.595,708.355z"/>
		<path display="inline" fill="#4CADD7" d="M902.159,757.664c-2.521,1.036-4.906,2.012-7.155,2.939
			c-8.968,3.694-15.812,6.511-21.025,8.66c-0.049,0.014-0.113,0.038-0.16,0.062c-0.791,0.321-1.545,0.63-2.26,0.93
			c-1.683,0.688-3.164,1.306-4.475,1.838c-9.846,4.053-9.846,4.053-9.846,4.053l-2.806-0.038h-0.086l-0.618-0.012l-10.34-0.16
			l-9.502-0.136l-14.812-0.223l-12.034-0.173l-22.262-0.334l-9.848-0.149l-0.679-0.011l-46.12-0.68l-76.104-1.138l-31.64-0.468
			l-5.733-0.089l-0.716-0.01l-2.532-0.038l-28.305-0.419l-57.264-0.84l-19.68-0.298l-11.936-0.172l-1.445-0.026l-1.037-0.011
			l-35.605-0.534l-28.316-0.419l-33.814-0.506v-52.768c0,0,16.691-18.556,40.658-10.624c1.952,0.644,3.94,1.469,5.979,2.483
			c2.124-11.117,10.833-17.234,20.272-18.494c0.793-0.111,1.583-0.172,2.373-0.209c2.718-0.136,5.449,0.133,8.055,0.777
			c8.834,2.199,16.346,8.834,17.371,19.768c1.125-0.901,2.212-1.693,3.286-2.396c0,0,0,0,0.013,0
			c0.717-0.471,1.42-0.892,2.113-1.273c0.012-0.012,0.024-0.012,0.037-0.012c3.682-2.015,7.029-2.855,10.043-2.892
			c6.685-0.11,11.713,3.683,14.913,7.166c2.705,2.964,4.101,5.706,4.101,5.706s16.283-37.223,63.516-27.834
			c1.397,0.271,2.816,0.595,4.275,0.951c0.604-1.668,1.307-3.248,2.111-4.721c1.445-2.666,3.199-5.025,5.201-7.077
			c9.871-10.18,25.499-12.788,37.781-7.611c3.422,1.435,6.584,3.472,9.289,6.152c6.005,5.884,9.748,14.803,9.033,26.784
			c-0.014,0.46-0.052,0.917-0.101,1.385c-0.026,0.419-0.062,0.84-0.124,1.26c-0.084,0.841-0.197,1.705-0.333,2.57
			c27.119-4.93,30.812,14.789,30.812,14.789s15.654-25.142,43.365-19.719c0.357-3.632,1.789-7.018,4.053-10.093
			c19.26-26.131,99.441-29.736,107.496,29.812c22.57,1.233,18.693,13.564,18.693,13.564s0.529-0.357,1.469-0.891
			c3.187-1.778,11.144-5.508,19.691-3.988c4.463,0.791,9.098,3.014,13.271,7.709c0.542,0.604,1.074,1.235,1.595,1.926
			c2.828,3.719,5.423,8.687,7.549,15.271C901.96,757.045,902.061,757.356,902.159,757.664z"/>
		<path display="inline" fill="#2B87BE" d="M1320.595,727.541v41.723H394.006v-36.668c0,0,15.307-8.054,39.016-12.838
			c8.363-1.692,17.754-2.964,27.895-3.346c0.434-0.015,0.878-0.025,1.311-0.039c1.273-0.035,2.545-0.06,3.83-0.073
			c8.205-0.049,16.838,0.52,25.76,1.951c0.68,0.111,1.369,0.224,2.051,0.334c0.927,0.174,1.854,0.332,2.779,0.52
			c1.631,0.309,3.273,0.653,4.917,1.037c6.374,1.459,12.85,3.375,19.396,5.845c4.979,1.877,9.983,4.064,14.999,6.609
			c12.541-24.808,34.691-25.907,47.739-15.95c7.595,5.793,12.093,15.344,9.784,26.144c3.842-1.806,7.511-2.916,10.969-3.485
			c10.799-1.804,19.656,1.569,25.759,5.337c0.187,0.1,0.358,0.209,0.532,0.321v0.013h0.013c0.977,0.617,1.878,1.236,2.693,1.842
			c1.644,1.233,2.978,2.396,3.965,3.335c1.358,1.298,2.076,2.162,2.076,2.162s1.692-0.902,4.781-2.285
			c0.987-0.458,2.139-0.954,3.409-1.482c16.754-7.018,56.819-20.263,97.849-7.847c-3.385-34.52,38.866-41.351,57.054-28.896
			c0.186,0.124,0.356,0.235,0.518,0.371c0.567,0.396,1.1,0.827,1.605,1.271c2.359,2.052,4.141,4.51,5.115,7.363
			c0.693,1.978,0.988,4.151,0.816,6.498c1.322-0.011,2.594,0.025,3.83,0.1c2.26,0.135,4.371,0.395,6.338,0.79
			c1.568,0.298,3.039,0.68,4.423,1.112c1.976,0.63,3.767,1.372,5.423,2.224c0.32,0.163,0.643,0.335,0.965,0.509
			c7.956,4.422,12.118,11.116,14.293,16.505c1.965,4.893,2.287,8.698,2.287,8.698s3.791-2.732,10.153-6.091
			c4.103-2.177,9.266-4.61,15.187-6.734c0.643-0.235,1.309-0.471,1.975-0.693c5.274-1.79,11.084-3.309,17.21-4.187
			c0.519-0.075,1.038-0.135,1.557-0.211c0.099-0.013,0.209-0.024,0.308-0.037c4.154-0.493,8.451-0.691,12.813-0.469
			c1.445,0.061,2.892,0.186,4.349,0.346c-1.026-10.622,5.062-18.15,12.453-20.953c8.365-3.188,18.396-0.321,21.522,10.97
			c0.296-0.059,0.581-0.11,0.862-0.147c7.649-1.334,13.244,0.089,17.334,2.681c1.015,0.656,1.939,1.385,2.781,2.152
			c6.719,6.188,7.933,15.54,7.933,15.54s12.896-26.562,44.127-34.827c2.558-0.681,5.226-1.235,8.03-1.631
			c1.744-0.274,3.547-0.471,5.401-0.594c3.63-0.271,7.448-0.284,11.478-0.012c1.629,0.111,3.285,0.261,4.978,0.471
			c0.396-0.359,0.79-0.694,1.186-1.015c0.013,0,0.013-0.013,0.013-0.013c3.953-3.2,8.154-4.941,12.244-5.769
			c9.229-1.853,17.9,0.999,21.979,2.72c1.545,0.651,2.432,1.135,2.432,1.135s0.199-0.532,0.631-1.421
			c1.15-2.335,3.918-7.141,8.983-11.192c3.064-2.435,6.942-4.609,11.823-5.796c2.357-0.58,4.955-0.928,7.807-0.964
			c0.605,0,1.235,0,1.881,0.024c1.148-8.389,10.672-17.308,23.854-22.436c10.515-4.101,23.363-5.806,36.137-2.929
			c9.627,2.15,19.211,6.907,27.738,15.172c2.234,2.176,4.397,4.584,6.473,7.254c1.26-0.693,2.52-1.312,3.768-1.866
			c9.725-4.275,19.002-4.325,26.551-1.397c0.926,0.347,1.827,0.742,2.692,1.188c13.308,6.745,20.052,23.288,11.985,41.179
			c21.447-1.682,28.166,14.725,28.166,14.725s8.326-9.499,22.027-12.885C1311.092,727.531,1315.639,727.062,1320.595,727.541z"/>
		<path display="inline" fill="#4CADD7" d="M416.075,708.355v60.908H-8.06c0,0,0.393-3.434,1.503-8.66
			c0.925-4.436,2.368-10.154,4.52-16.185c0.055-0.147,0.113-0.309,0.172-0.456c1.456-4.017,3.223-8.156,5.359-12.133
			c2.961-5.486,6.621-10.637,11.152-14.717c0.646-0.579,1.308-1.146,2-1.679c4.493-3.545,9.785-6.027,15.978-6.809
			c1.376-0.183,2.809-0.271,4.276-0.271c-0.717-6.919,0.553-12.973,3.234-18.1c4.079-7.796,11.415-13.453,19.989-16.812
			c2.577-1.015,5.269-1.819,8.009-2.412c0.219-0.05,0.438-0.086,0.657-0.135c2.218-0.442,4.472-0.753,6.735-0.914
			c0.117-0.024,0.233-0.024,0.347-0.024c1.666-0.124,3.328-0.16,4.981-0.111c4.808,0.111,9.533,0.877,13.912,2.334
			c4.482,1.484,8.594,3.683,12.016,6.625c0.372,0.306,0.716,0.627,1.062,0.962c4.346,4.09,7.441,9.489,8.586,16.258
			c7.545-4.744,12.26-4.942,15.195-3.372c4.702,2.483,4.888,9.426,4.888,9.426s0.867-3.41,3.129-8.265
			c1.954-4.176,4.936-9.438,9.302-14.529c5.441-6.362,13.033-12.452,23.433-15.838c1.652-0.543,3.364-1.012,5.155-1.409
			c4.829-1.05,10.189-1.544,16.129-1.284c1.109-5.584,3.294-10.586,6.25-14.912c2.334-3.435,5.167-6.449,8.309-8.982
			c3.847-3.101,8.158-5.484,12.664-7.066c0.728-0.259,1.467-0.493,2.22-0.702c2.621-0.765,5.302-1.263,7.96-1.435
			c5.42-0.409,10.794,0.407,15.622,2.582c6.967,3.125,12.813,9.081,16.141,18.296c9.323-8.363,16.627-8.932,22.127-6.3
			c7.569,3.632,11.74,13.295,13.104,17.024c0.346,0.939,0.507,1.495,0.507,1.495s0.81-0.681,2.265-1.58
			c1.7-1.076,4.287-2.473,7.466-3.474c0.53-0.171,1.074-0.332,1.63-0.471c0.691-0.183,1.406-0.331,2.135-0.454
			c5.131-0.891,11.256-0.446,17.553,3.434c1.165,0.717,2.359,1.568,3.536,2.545c0.519-0.964,1.085-1.879,1.674-2.717
			c1.353-1.901,2.888-3.496,4.577-4.819c2.275-1.778,4.816-3.05,7.511-3.83c9.274-2.741,20.323,0.196,28.319,7.301
			c11.021,9.798,16.21,27.526,2.868,49.209c14.983,0,18.449,13.526,18.449,13.526s0.648-3.692,4.09-6.816
			C403.479,710.012,408.229,707.801,416.075,708.355z"/>
		<path display="inline" fill="#4CADD7" d="M24.733,757.664c-2.356,1.036-4.589,2.012-6.691,2.939
			c-8.388,3.694-14.789,6.511-19.664,8.66c-0.046,0.014-0.106,0.038-0.149,0.062c-0.74,0.321-1.445,0.63-2.114,0.93
			c-1.573,0.688-2.959,1.306-4.185,1.838c-9.208,4.053-9.208,4.053-9.208,4.053l-2.624-0.038h-0.08l-0.578-0.012l-9.671-0.16
			l-8.887-0.136l-13.853-0.223l-11.255-0.173l-20.82-0.334l-9.21-0.149l-0.635-0.011l-43.134-0.68l-71.176-1.138l-29.591-0.468
			l-5.362-0.089l-0.669-0.01l-2.369-0.038l-26.472-0.419l-53.556-0.84l-18.405-0.298l-11.163-0.172l-1.352-0.026l-0.97-0.011
			l-33.3-0.534l-26.483-0.419l-31.625-0.506v-52.768c0,0,15.61-18.556,38.025-10.624c1.826,0.644,3.686,1.469,5.593,2.483
			c1.986-11.117,10.131-17.234,18.96-18.494c0.741-0.111,1.48-0.172,2.219-0.209c2.542-0.136,5.097,0.133,7.533,0.777
			c8.263,2.199,15.288,8.834,16.247,19.768c1.052-0.901,2.068-1.693,3.072-2.396c0,0,0,0,0.013,0
			c0.67-0.471,1.328-0.892,1.977-1.273c0.011-0.012,0.022-0.012,0.034-0.012c3.443-2.015,6.574-2.855,9.393-2.892
			c6.252-0.11,10.955,3.683,13.947,7.166c2.53,2.964,3.836,5.706,3.836,5.706s15.229-37.223,59.402-27.834
			c1.307,0.271,2.635,0.595,3.999,0.951c0.565-1.668,1.222-3.248,1.975-4.721c1.352-2.666,2.992-5.025,4.864-7.077
			c9.232-10.18,23.848-12.788,35.335-7.611c3.2,1.435,6.157,3.472,8.688,6.152c5.616,5.884,9.116,14.803,8.448,26.784
			c-0.013,0.46-0.049,0.917-0.094,1.385c-0.025,0.419-0.059,0.84-0.116,1.26c-0.079,0.841-0.185,1.705-0.312,2.57
			c25.363-4.93,28.816,14.789,28.816,14.789s14.641-25.142,40.558-19.719c0.334-3.632,1.673-7.018,3.79-10.093
			c18.013-26.131,93.002-29.736,100.535,29.812c21.109,1.233,17.483,13.564,17.483,13.564s0.495-0.357,1.374-0.891
			c2.98-1.778,10.422-5.508,18.416-3.988c4.174,0.791,8.509,3.014,12.411,7.709c0.507,0.604,1.005,1.235,1.491,1.926
			c2.646,3.719,5.072,8.687,7.061,15.271C24.547,757.045,24.642,757.356,24.733,757.664z"/>
		<path display="inline" fill="#2B87BE" d="M416.075,727.541v41.723h-866.592v-36.668c0,0,14.315-8.054,36.489-12.838
			c7.822-1.692,16.604-2.964,26.089-3.346c0.405-0.015,0.821-0.025,1.226-0.039c1.19-0.035,2.38-0.06,3.582-0.073
			c7.674-0.049,15.748,0.52,24.092,1.951c0.636,0.111,1.28,0.224,1.918,0.334c0.867,0.174,1.733,0.332,2.6,0.52
			c1.525,0.309,3.061,0.653,4.598,1.037c5.962,1.459,12.018,3.375,18.141,5.845c4.657,1.877,9.338,4.064,14.028,6.609
			c11.729-24.808,32.445-25.907,44.648-15.95c7.103,5.793,11.31,15.344,9.15,26.144c3.593-1.806,7.024-2.916,10.259-3.485
			c10.1-1.804,18.383,1.569,24.091,5.337c0.174,0.1,0.335,0.209,0.497,0.321v0.013h0.012c0.914,0.617,1.757,1.236,2.52,1.842
			c1.537,1.233,2.785,2.396,3.708,3.335c1.271,1.298,1.942,2.162,1.942,2.162s1.582-0.902,4.471-2.285
			c0.924-0.458,2.001-0.954,3.189-1.482c15.668-7.018,53.14-20.263,91.512-7.847c-3.165-34.52,36.35-41.351,53.36-28.896
			c0.173,0.124,0.333,0.235,0.483,0.371c0.531,0.396,1.029,0.827,1.502,1.271c2.207,2.052,3.873,4.51,4.784,7.363
			c0.648,1.978,0.924,4.151,0.764,6.498c1.236-0.011,2.426,0.025,3.582,0.1c2.113,0.135,4.088,0.395,5.927,0.79
			c1.467,0.298,2.843,0.68,4.137,1.112c1.848,0.63,3.523,1.372,5.072,2.224c0.299,0.163,0.601,0.335,0.902,0.509
			c7.44,4.422,11.333,11.116,13.367,16.505c1.838,4.893,2.139,8.698,2.139,8.698s3.546-2.732,9.496-6.091
			c3.837-2.177,8.666-4.61,14.203-6.734c0.602-0.235,1.225-0.471,1.847-0.693c4.933-1.79,10.366-3.309,16.096-4.187
			c0.485-0.075,0.971-0.135,1.456-0.211c0.092-0.013,0.195-0.024,0.287-0.037c3.886-0.493,7.904-0.691,11.984-0.469
			c1.352,0.061,2.704,0.186,4.066,0.346c-0.959-10.622,4.735-18.15,11.647-20.953c7.823-3.188,17.205-0.321,20.129,10.97
			c0.276-0.059,0.543-0.11,0.807-0.147c7.153-1.334,12.386,0.089,16.212,2.681c0.948,0.656,1.813,1.385,2.601,2.152
			c6.284,6.188,7.419,15.54,7.419,15.54s12.061-26.562,41.27-34.827c2.393-0.681,4.888-1.235,7.511-1.631
			c1.631-0.274,3.317-0.471,5.052-0.594c3.395-0.271,6.966-0.284,10.734-0.012c1.523,0.111,3.072,0.261,4.654,0.471
			c0.37-0.359,0.739-0.694,1.109-1.015c0.012,0,0.012-0.013,0.012-0.013c3.697-3.2,7.627-4.941,11.451-5.769
			c8.631-1.853,16.742,0.999,20.556,2.72c1.444,0.651,2.274,1.135,2.274,1.135s0.186-0.532,0.59-1.421
			c1.076-2.335,3.664-7.141,8.401-11.192c2.866-2.435,6.493-4.609,11.058-5.796c2.205-0.58,4.635-0.928,7.302-0.964
			c0.565,0,1.155,0,1.759,0.024c1.074-8.389,9.98-17.308,22.309-22.436c9.834-4.101,21.851-5.806,33.797-2.929
			c9.004,2.15,17.968,6.907,25.942,15.172c2.09,2.176,4.113,4.584,6.054,7.254c1.178-0.693,2.356-1.312,3.523-1.866
			c9.096-4.275,17.771-4.325,24.832-1.397c0.865,0.347,1.709,0.742,2.518,1.188c12.446,6.745,18.754,23.288,11.21,41.179
			c20.058-1.682,26.342,14.725,26.342,14.725s7.787-9.499,20.601-12.885C407.188,727.531,411.44,727.062,416.075,727.541z"/>
		<path display="inline" fill="#4CADD7" d="M2005.88,708.355v60.908h-424.135c0,0,0.393-3.434,1.503-8.66
			c0.925-4.436,2.367-10.154,4.52-16.185c0.055-0.147,0.113-0.309,0.172-0.456c1.456-4.017,3.223-8.156,5.359-12.133
			c2.961-5.486,6.621-10.637,11.152-14.717c0.646-0.579,1.308-1.146,2-1.679c4.493-3.545,9.785-6.027,15.978-6.809
			c1.376-0.183,2.809-0.271,4.276-0.271c-0.717-6.919,0.553-12.973,3.234-18.1c4.078-7.796,11.415-13.453,19.989-16.812
			c2.577-1.015,5.269-1.819,8.009-2.412c0.219-0.05,0.438-0.086,0.657-0.135c2.218-0.442,4.472-0.753,6.735-0.914
			c0.117-0.024,0.233-0.024,0.347-0.024c1.666-0.124,3.328-0.16,4.981-0.111c4.807,0.111,9.533,0.877,13.912,2.334
			c4.482,1.484,8.594,3.683,12.016,6.625c0.372,0.306,0.715,0.627,1.062,0.962c4.346,4.09,7.441,9.489,8.586,16.258
			c7.545-4.744,12.26-4.942,15.195-3.372c4.702,2.483,4.888,9.426,4.888,9.426s0.867-3.41,3.129-8.265
			c1.954-4.176,4.935-9.438,9.302-14.529c5.441-6.362,13.033-12.452,23.433-15.838c1.652-0.543,3.364-1.012,5.155-1.409
			c4.829-1.05,10.189-1.544,16.129-1.284c1.109-5.584,3.294-10.586,6.25-14.912c2.334-3.435,5.166-6.449,8.309-8.982
			c3.847-3.101,8.158-5.484,12.664-7.066c0.728-0.259,1.467-0.493,2.22-0.702c2.621-0.765,5.302-1.263,7.96-1.435
			c5.42-0.409,10.794,0.407,15.622,2.582c6.967,3.125,12.813,9.081,16.141,18.296c9.323-8.363,16.627-8.932,22.127-6.3
			c7.569,3.632,11.74,13.295,13.104,17.024c0.346,0.939,0.506,1.495,0.506,1.495s0.811-0.681,2.266-1.58
			c1.7-1.076,4.287-2.473,7.465-3.474c0.531-0.171,1.075-0.332,1.631-0.471c0.691-0.183,1.406-0.331,2.135-0.454
			c5.131-0.891,11.256-0.446,17.553,3.434c1.165,0.717,2.359,1.568,3.535,2.545c0.52-0.964,1.086-1.879,1.676-2.717
			c1.352-1.901,2.887-3.496,4.576-4.819c2.275-1.778,4.816-3.05,7.511-3.83c9.274-2.741,20.323,0.196,28.319,7.301
			c11.021,9.798,16.21,27.526,2.868,49.209c14.983,0,18.448,13.526,18.448,13.526s0.649-3.692,4.091-6.816
			C1993.283,710.012,1998.034,707.801,2005.88,708.355z"/>
		<path display="inline" fill="#4CADD7" d="M1614.538,757.664c-2.356,1.036-4.589,2.012-6.691,2.939
			c-8.388,3.694-14.789,6.511-19.665,8.66c-0.045,0.014-0.105,0.038-0.148,0.062c-0.74,0.321-1.445,0.63-2.115,0.93
			c-1.572,0.688-2.958,1.306-4.184,1.838c-9.208,4.053-9.208,4.053-9.208,4.053l-2.624-0.038h-0.08l-0.578-0.012l-9.671-0.16
			l-8.887-0.136l-13.853-0.223l-11.255-0.173l-20.82-0.334l-9.21-0.149l-0.635-0.011l-43.134-0.68l-71.176-1.138l-29.591-0.468
			l-5.363-0.089l-0.668-0.01l-2.369-0.038l-26.472-0.419l-53.556-0.84l-18.405-0.298l-11.163-0.172l-1.352-0.026l-0.97-0.011
			l-33.3-0.534l-26.483-0.419l-31.625-0.506v-52.768c0,0,15.61-18.556,38.025-10.624c1.826,0.644,3.686,1.469,5.593,2.483
			c1.986-11.117,10.131-17.234,18.96-18.494c0.741-0.111,1.48-0.172,2.219-0.209c2.542-0.136,5.097,0.133,7.533,0.777
			c8.263,2.199,15.288,8.834,16.247,19.768c1.052-0.901,2.068-1.693,3.072-2.396c0,0,0,0,0.013,0
			c0.67-0.471,1.328-0.892,1.977-1.273c0.011-0.012,0.022-0.012,0.034-0.012c3.443-2.015,6.574-2.855,9.393-2.892
			c6.252-0.11,10.955,3.683,13.947,7.166c2.53,2.964,3.836,5.706,3.836,5.706s15.229-37.223,59.402-27.834
			c1.307,0.271,2.635,0.595,3.999,0.951c0.565-1.668,1.222-3.248,1.975-4.721c1.352-2.666,2.992-5.025,4.864-7.077
			c9.232-10.18,23.848-12.788,35.335-7.611c3.2,1.435,6.157,3.472,8.687,6.152c5.617,5.884,9.117,14.803,8.449,26.784
			c-0.013,0.46-0.049,0.917-0.094,1.385c-0.025,0.419-0.059,0.84-0.116,1.26c-0.079,0.841-0.185,1.705-0.312,2.57
			c25.363-4.93,28.816,14.789,28.816,14.789s14.641-25.142,40.557-19.719c0.335-3.632,1.674-7.018,3.791-10.093
			c18.013-26.131,93.002-29.736,100.535,29.812c21.109,1.233,17.483,13.564,17.483,13.564s0.495-0.357,1.374-0.891
			c2.98-1.778,10.422-5.508,18.416-3.988c4.174,0.791,8.509,3.014,12.411,7.709c0.507,0.604,1.005,1.235,1.491,1.926
			c2.646,3.719,5.072,8.687,7.061,15.271C1614.352,757.045,1614.446,757.356,1614.538,757.664z"/>
		<path display="inline" fill="#2B87BE" d="M2005.88,727.541v41.723h-866.592v-36.668c0,0,14.315-8.054,36.489-12.838
			c7.822-1.692,16.604-2.964,26.089-3.346c0.405-0.015,0.821-0.025,1.226-0.039c1.19-0.035,2.38-0.06,3.582-0.073
			c7.674-0.049,15.748,0.52,24.092,1.951c0.636,0.111,1.28,0.224,1.918,0.334c0.867,0.174,1.733,0.332,2.6,0.52
			c1.525,0.309,3.061,0.653,4.598,1.037c5.962,1.459,12.018,3.375,18.141,5.845c4.657,1.877,9.338,4.064,14.027,6.609
			c11.73-24.808,32.446-25.907,44.649-15.95c7.103,5.793,11.31,15.344,9.15,26.144c3.593-1.806,7.024-2.916,10.259-3.485
			c10.1-1.804,18.383,1.569,24.091,5.337c0.174,0.1,0.335,0.209,0.497,0.321v0.013h0.012c0.914,0.617,1.757,1.236,2.52,1.842
			c1.537,1.233,2.785,2.396,3.707,3.335c1.271,1.298,1.943,2.162,1.943,2.162s1.582-0.902,4.471-2.285
			c0.924-0.458,2.001-0.954,3.189-1.482c15.668-7.018,53.14-20.263,91.512-7.847c-3.165-34.52,36.35-41.351,53.36-28.896
			c0.173,0.124,0.333,0.235,0.483,0.371c0.531,0.396,1.029,0.827,1.502,1.271c2.207,2.052,3.873,4.51,4.784,7.363
			c0.648,1.978,0.923,4.151,0.764,6.498c1.236-0.011,2.425,0.025,3.582,0.1c2.113,0.135,4.088,0.395,5.927,0.79
			c1.467,0.298,2.843,0.68,4.137,1.112c1.848,0.63,3.523,1.372,5.072,2.224c0.299,0.163,0.601,0.335,0.902,0.509
			c7.44,4.422,11.333,11.116,13.367,16.505c1.838,4.893,2.139,8.698,2.139,8.698s3.546-2.732,9.496-6.091
			c3.837-2.177,8.666-4.61,14.203-6.734c0.602-0.235,1.225-0.471,1.847-0.693c4.933-1.79,10.366-3.309,16.096-4.187
			c0.485-0.075,0.971-0.135,1.456-0.211c0.092-0.013,0.195-0.024,0.287-0.037c3.886-0.493,7.904-0.691,11.984-0.469
			c1.352,0.061,2.704,0.186,4.066,0.346c-0.959-10.622,4.735-18.15,11.646-20.953c7.824-3.188,17.206-0.321,20.13,10.97
			c0.276-0.059,0.543-0.11,0.807-0.147c7.153-1.334,12.386,0.089,16.212,2.681c0.948,0.656,1.813,1.385,2.6,2.152
			c6.285,6.188,7.42,15.54,7.42,15.54s12.061-26.562,41.27-34.827c2.393-0.681,4.888-1.235,7.51-1.631
			c1.632-0.274,3.318-0.471,5.053-0.594c3.395-0.271,6.965-0.284,10.734-0.012c1.523,0.111,3.072,0.261,4.654,0.471
			c0.37-0.359,0.739-0.694,1.109-1.015c0.012,0,0.012-0.013,0.012-0.013c3.697-3.2,7.627-4.941,11.451-5.769
			c8.631-1.853,16.742,0.999,20.556,2.72c1.444,0.651,2.274,1.135,2.274,1.135s0.186-0.532,0.59-1.421
			c1.076-2.335,3.664-7.141,8.401-11.192c2.866-2.435,6.493-4.609,11.058-5.796c2.205-0.58,4.635-0.928,7.302-0.964
			c0.565,0,1.155,0,1.759,0.024c1.074-8.389,9.98-17.308,22.309-22.436c9.834-4.101,21.851-5.806,33.797-2.929
			c9.004,2.15,17.968,6.907,25.941,15.172c2.091,2.176,4.114,4.584,6.055,7.254c1.178-0.693,2.356-1.312,3.523-1.866
			c9.096-4.275,17.771-4.325,24.832-1.397c0.865,0.347,1.709,0.742,2.518,1.188c12.446,6.745,18.754,23.288,11.209,41.179
			c20.059-1.682,26.343,14.725,26.343,14.725s7.787-9.499,20.601-12.885C1996.992,727.531,2001.245,727.062,2005.88,727.541z"/>
		<path display="inline" opacity="0.2" fill="#67A2A0" d="M1100.985,755.731c0,0,7.497-15.726,30.836-12.996
			c-4.239-21.894,10.729-26.641,20.184-21.11c1.962-5.53,9.098-2.114,9.098-2.114s1.428-15.726,16.946-12.871
			c9.993-11.417,38.712-9.276,38.891,12.843c9.812,0.357,9.456,8.307,9.456,8.307s7.313-7.771,14.449-4.025
			c4.282-11.06,24.797-4.459,18.909,10.526c8.743-0.356,11.596,8.562,9.812,13.378c11.06-2.14,17.481,8.207,17.481,8.207
			L1100.985,755.731z"/>
		<path display="inline" opacity="0.2" fill="#67A2A0" d="M1084.568,755.646c0,0,0.655-11.821-10.835-11.165
			c-2.627-11.818-18.389-7.879-17.732,3.285c-16.745-3.285-27.252,8.109-27.252,8.109L1084.568,755.646z"/>
		<path display="inline" opacity="0.2" fill="#67A2A0" d="M748.06,755.875l-16.113-0.01l-46.674-0.049l-15.798-0.01l-9.163-0.011
			h-2.152l-28.318-0.029l-22.719-0.02l-27.064-0.02v-13.646c0,0,17.131-1.322,28.209,1.817c2.37,0.67,4.463,1.55,6.053,2.685
			c6.477-8.165,13.201-7.701,18.109-5.449c4.373,2.014,7.297,5.449,7.297,5.449s8.046-9.498,18.345-11.75
			c0.454-0.108,0.918-0.197,1.393-0.256c1.253-0.198,2.537-0.267,3.841-0.198c0.789,0.039,1.59,0.129,2.389,0.286
			c3.189,0.613,6.457,2.154,9.666,5.046c2.529-1.243,5.234-2.023,7.988-2.399c12.905-1.758,26.887,5.43,28.545,15.512
			c5.304-3.523,12.146-3.742,18.455-2.736c1.422,0.228,2.814,0.524,4.157,0.852c0.493,0.118,0.977,0.246,1.451,0.375
			c5.925,1.599,10.614,3.82,11.809,4.413C747.962,755.826,748.06,755.875,748.06,755.875z"/>
		<g display="inline">
			<path fill="#4C8E67" d="M1156.094,630.834c-9.782,0-79.445,123.353-79.445,123.353h158.891
				C1235.539,754.187,1165.876,630.834,1156.094,630.834z"/>
			<path fill="#FFFFFF" d="M1141.529,656.127c0,0-2.064,9.981,4.128,11.977c6.197,2,9.353-11.756,9.353-11.756
				s4.564,13.201,11.087,11.537c6.516-1.664,2.171-13.09,2.171-13.09s4.606,11.039,13.044,8.443
				c-11.89-18.482-21.933-32.404-25.218-32.404c-3.474,0-14.482,15.532-27.245,35.57
				C1133.419,667.625,1141.529,656.127,1141.529,656.127z"/>
		</g>
		<g display="inline">
			<path fill="#4C8E67" d="M678.65,630.834c-9.782,0-79.445,123.353-79.445,123.353h158.89
				C758.095,754.187,688.433,630.834,678.65,630.834z"/>
			<path fill="#FFFFFF" d="M664.085,656.127c0,0-2.064,9.981,4.129,11.977c6.196,2,9.352-11.756,9.352-11.756
				s4.565,13.201,11.088,11.537c6.517-1.664,2.17-13.09,2.17-13.09s4.606,11.039,13.043,8.443
				c-11.889-18.482-21.932-32.404-25.216-32.404c-3.475,0-14.483,15.532-27.245,35.57
				C655.976,667.625,664.085,656.127,664.085,656.127z"/>
		</g>
		<g display="inline">
			<path fill="#61BB98" d="M1073.308,648.418c-8.121,0-65.977,102.445-65.977,102.445h131.957
				C1139.288,750.863,1081.438,648.418,1073.308,648.418z"/>
			<path fill="#FFFFFF" d="M1061.218,667.588c0,0-1.717,8.292,3.426,9.946c5.146,1.657,7.766-9.762,7.766-9.762
				s3.789,10.959,9.203,9.579c5.418-1.384,1.808-10.869,1.808-10.869s3.826,9.162,10.831,7.011
				c-9.869-15.347-18.215-26.912-20.943-26.912c-2.882,0-12.022,12.898-22.623,29.543
				C1054.479,677.139,1061.218,667.588,1061.218,667.588z"/>
		</g>
		<g display="inline">
			<path fill="#61BB98" d="M1352.521,665.682c-6.752,0-54.858,85.182-54.858,85.182h109.721
				C1407.383,750.863,1359.281,665.682,1352.521,665.682z"/>
			<path fill="#FFFFFF" d="M1342.469,681.621c0,0-1.428,6.895,2.848,8.27c4.279,1.379,6.457-8.116,6.457-8.116
				s3.15,9.112,7.652,7.965c4.505-1.15,1.503-9.038,1.503-9.038s3.182,7.619,9.007,5.83c-8.207-12.761-15.146-22.377-17.415-22.377
				c-2.396,0-9.996,10.725-18.811,24.564C1336.865,689.562,1342.469,681.621,1342.469,681.621z"/>
		</g>
		<g display="inline">
			<path fill="#F5CA5F" d="M1157.676,754.396c9.949-23.416,45.116-55.702,86.926-55.635c41.621,0.074,76.577,32.219,86.648,55.645
				L1157.676,754.396z"/>
			<path fill="#EFA700" d="M1157.687,754.396c9.881-23.25,44.612-55.25,86.037-55.623l-0.004,55.627L1157.687,754.396z"/>
		</g>
		<g display="inline">
			<path fill="#F5CA5F" d="M1793.812,754.396c9.949-23.416,45.116-55.702,86.926-55.635c41.621,0.074,76.576,32.219,86.648,55.645
				L1793.812,754.396z"/>
			<path fill="#EFA700" d="M1793.823,754.396c9.881-23.25,44.612-55.25,86.037-55.623l-0.004,55.627L1793.823,754.396z"/>
		</g>
		<g display="inline">
			<path fill="#F5CA5F" d="M171.971,754.396c7.723-18.176,35.021-43.237,67.474-43.185c32.308,0.058,59.441,25.009,67.26,43.192
				L171.971,754.396z"/>
			<path fill="#EFA700" d="M171.979,754.396c7.669-18.047,34.629-42.886,66.783-43.176l-0.002,43.18L171.979,754.396z"/>
		</g>
		<g display="inline">
			<path fill="#96C011" d="M1218.317,750.604c5.576-12.83,27.164-31.105,52.947-31.105c25.781,0.002,47.362,18.279,52.941,31.109
				L1218.317,750.604z"/>
			<path opacity="0.53" fill="#82A600" d="M1270.709,750.604h-52.392c5.532-12.735,26.854-30.83,52.393-31.093L1270.709,750.604z"/>
		</g>
		<g display="inline">
			<path fill="#96C011" d="M639.264,749.377c5.577-12.83,27.163-31.104,52.946-31.104c25.782,0.002,47.363,18.279,52.939,31.107
				L639.264,749.377z"/>
			<path opacity="0.53" fill="#82A600" d="M691.653,749.379l-52.39-0.002c5.534-12.734,26.854-30.828,52.392-31.091L691.653,749.379
				z"/>
		</g>
		<g display="inline">
			<path fill="#96C011" d="M37.654,749.377c5.577-12.83,27.163-31.104,52.946-31.104c25.782,0.002,47.363,18.279,52.939,31.107
				L37.654,749.377z"/>
			<path opacity="0.53" fill="#82A600" d="M90.044,749.379l-52.39-0.002c5.534-12.734,26.854-30.828,52.392-31.091L90.044,749.379z"
				/>
		</g>
		<g display="inline">
			<ellipse opacity="0.2" fill="#67A2A0" cx="851.324" cy="753.153" rx="157.893" ry="7.614"/>
			<polygon fill="#FA830D" points="981.677,752.517 720.303,752.517 750.202,693.415 780.884,632.773 935.03,632.773 			"/>
			<polygon opacity="0.1" fill="#8F75B2" points="923.493,668.434 896.285,752.519 792.3,752.517 			"/>
			<polygon opacity="0.3" fill="#F8F8F8" points="919.407,632.773 750.202,693.415 780.884,632.773 			"/>
			<path fill="#483D7F" d="M935.03,633.09c-0.176,0-0.314-0.143-0.314-0.316v-1.629c0-0.174,0.139-0.315,0.314-0.315
				s0.316,0.142,0.316,0.315v1.629C935.347,632.947,935.206,633.09,935.03,633.09z"/>
			<polygon fill="#FA830D" points="935.03,632.773 896.285,752.519 981.677,752.519 			"/>
			<polygon fill="#FDD465" points="928.944,752.519 935.03,632.773 896.285,752.519 			"/>
			<polygon fill="#483D7F" points="935.03,632.773 928.944,752.519 946.465,752.519 			"/>
			<polygon fill="#FCB42B" points="935.03,632.773 946.465,752.519 967.967,752.519 			"/>
			<rect x="712.331" y="744.818" fill="#483D7F" width="3.174" height="7.698"/>
			<rect x="993.057" y="744.818" fill="#483D7F" width="3.175" height="7.698"/>
			<rect x="881.56" y="744.818" fill="#483D7F" width="3.174" height="7.698"/>
			<g>
				<path fill="#483D7F" d="M884.104,746.533c-0.044,0-0.087-0.007-0.13-0.026c-0.158-0.07-0.23-0.259-0.158-0.417l51.195-114.042
					l0.301,0.58l58.752,113.445c0.081,0.155,0.021,0.345-0.136,0.426c-0.153,0.081-0.345,0.021-0.425-0.134L935.05,633.499
					l-50.657,112.85C884.339,746.466,884.225,746.533,884.104,746.533z"/>
				<path fill="#483D7F" d="M714.688,746.533c-0.054,0-0.108-0.012-0.159-0.042c-0.15-0.088-0.203-0.28-0.113-0.433l66.153-113.372
					v-2.403c0-0.172,0.14-0.315,0.315-0.315s0.316,0.144,0.316,0.315v2.574l-66.24,113.521
					C714.901,746.479,714.796,746.533,714.688,746.533z"/>
			</g>
		</g>
		<g display="inline">
			<ellipse opacity="0.2" fill="#67A2A0" cx="1590.623" cy="755.358" rx="112.173" ry="5.409"/>
			<polygon fill="#EFA700" points="1683.23,754.906 1497.541,754.906 1518.783,712.918 1540.58,669.836 1650.091,669.836 			"/>
			<polygon opacity="0.1" fill="#8F75B2" points="1641.895,695.17 1622.565,754.907 1548.69,754.906 			"/>
			<polygon opacity="0.3" fill="#F8F8F8" points="1638.992,669.836 1518.783,712.918 1540.58,669.836 			"/>
			<path fill="#483D7F" d="M1650.091,670.061c-0.124,0-0.224-0.102-0.224-0.225v-1.157c0-0.123,0.1-0.224,0.224-0.224
				c0.125,0,0.226,0.101,0.226,0.224v1.157C1650.316,669.959,1650.216,670.061,1650.091,670.061z"/>
			<polygon fill="#FA830D" points="1650.091,669.836 1622.565,754.907 1683.23,754.907 			"/>
			<polygon fill="#FDD465" points="1645.768,754.907 1650.091,669.836 1622.565,754.907 			"/>
			<polygon fill="#483D7F" points="1650.091,669.836 1645.768,754.907 1658.215,754.907 			"/>
			<polygon fill="#FCB42B" points="1650.091,669.836 1658.215,754.907 1673.49,754.907 			"/>
			<rect x="1491.878" y="749.437" fill="#483D7F" width="2.255" height="5.47"/>
			<rect x="1691.314" y="749.437" fill="#483D7F" width="2.256" height="5.47"/>
			<rect x="1612.104" y="749.437" fill="#483D7F" width="2.255" height="5.47"/>
			<g>
				<path fill="#483D7F" d="M1613.911,750.655c-0.031,0-0.062-0.005-0.093-0.019c-0.112-0.051-0.163-0.185-0.112-0.297l36.371-81.02
					l0.214,0.412l41.739,80.596c0.058,0.11,0.015,0.245-0.097,0.303c-0.108,0.058-0.244,0.015-0.302-0.096l-41.526-80.184
					l-35.99,80.172C1614.078,750.607,1613.997,750.655,1613.911,750.655z"/>
				<path fill="#483D7F" d="M1493.552,750.655c-0.038,0-0.077-0.009-0.113-0.03c-0.106-0.062-0.144-0.199-0.08-0.307l46.997-80.544
					v-1.708c0-0.121,0.1-0.224,0.225-0.224s0.225,0.103,0.225,0.224v1.829l-47.06,80.649
					C1493.704,750.617,1493.629,750.655,1493.552,750.655z"/>
			</g>
		</g>
		<g display="inline">
			<ellipse opacity="0.2" fill="#67A2A0" cx="527.93" cy="755.358" rx="112.173" ry="5.409"/>
			<polygon fill="#EFA700" points="620.537,754.906 434.848,754.906 456.09,712.918 477.887,669.836 587.397,669.836 			"/>
			<polygon opacity="0.1" fill="#8F75B2" points="579.201,695.17 559.872,754.907 485.997,754.906 			"/>
			<polygon opacity="0.3" fill="#F8F8F8" points="576.299,669.836 456.09,712.918 477.887,669.836 			"/>
			<path fill="#483D7F" d="M587.397,670.061c-0.124,0-0.224-0.102-0.224-0.225v-1.157c0-0.123,0.1-0.224,0.224-0.224
				c0.125,0,0.226,0.101,0.226,0.224v1.157C587.623,669.959,587.522,670.061,587.397,670.061z"/>
			<polygon fill="#FA830D" points="587.397,669.836 559.872,754.907 620.537,754.907 			"/>
			<polygon fill="#FDD465" points="583.074,754.907 587.397,669.836 559.872,754.907 			"/>
			<polygon fill="#483D7F" points="587.397,669.836 583.074,754.907 595.521,754.907 			"/>
			<polygon fill="#FCB42B" points="587.397,669.836 595.521,754.907 610.797,754.907 			"/>
			<rect x="429.185" y="749.437" fill="#483D7F" width="2.255" height="5.47"/>
			<rect x="628.622" y="749.437" fill="#483D7F" width="2.255" height="5.47"/>
			<rect x="549.41" y="749.437" fill="#483D7F" width="2.255" height="5.47"/>
			<g>
				<path fill="#483D7F" d="M551.218,750.655c-0.031,0-0.062-0.005-0.093-0.019c-0.112-0.051-0.163-0.185-0.112-0.297l36.371-81.02
					l0.214,0.412l41.739,80.596c0.058,0.11,0.015,0.245-0.097,0.303c-0.108,0.058-0.244,0.015-0.302-0.096l-41.526-80.184
					l-35.989,80.172C551.385,750.607,551.304,750.655,551.218,750.655z"/>
				<path fill="#483D7F" d="M430.858,750.655c-0.038,0-0.077-0.009-0.113-0.03c-0.106-0.062-0.144-0.199-0.08-0.307l46.997-80.544
					v-1.708c0-0.121,0.1-0.224,0.225-0.224s0.225,0.103,0.225,0.224v1.829l-47.06,80.649
					C431.011,750.617,430.936,750.655,430.858,750.655z"/>
			</g>
		</g>
		<rect x="604.365" y="374.166" display="inline" fill="none" width="711.27" height="375.834"/>
		<g display="inline">
			<path fill="#4C8E67" d="M318.783,630.834c-9.782,0-79.445,123.353-79.445,123.353h158.891
				C398.229,754.187,328.565,630.834,318.783,630.834z"/>
			<path fill="#FFFFFF" d="M304.219,656.127c0,0-2.064,9.981,4.128,11.977c6.197,2,9.353-11.756,9.353-11.756
				s4.564,13.201,11.087,11.537c6.516-1.664,2.171-13.09,2.171-13.09s4.606,11.039,13.044,8.443
				c-11.89-18.482-21.933-32.404-25.218-32.404c-3.474,0-14.482,15.532-27.245,35.57
				C296.108,667.625,304.219,656.127,304.219,656.127z"/>
		</g>
		<g display="inline">
			<path fill="#61BB98" d="M434.281,665.682c-6.752,0-54.858,85.182-54.858,85.182h109.721
				C489.144,750.863,441.042,665.682,434.281,665.682z"/>
			<path fill="#FFFFFF" d="M424.229,681.621c0,0-1.428,6.895,2.848,8.27c4.279,1.379,6.457-8.116,6.457-8.116
				s3.15,9.112,7.652,7.965c4.505-1.15,1.503-9.038,1.503-9.038s3.182,7.619,9.007,5.83c-8.207-12.761-15.146-22.377-17.415-22.377
				c-2.396,0-9.996,10.725-18.811,24.564C418.626,689.562,424.229,681.621,424.229,681.621z"/>
		</g>
		<g display="inline">
			<path fill="#61BB98" d="M10.339,665.682c-6.752,0-54.858,85.182-54.858,85.182H65.201
				C65.201,750.863,17.1,665.682,10.339,665.682z"/>
			<path fill="#FFFFFF" d="M0.287,681.621c0,0-1.428,6.895,2.848,8.27c4.279,1.379,6.457-8.116,6.457-8.116s3.15,9.112,7.652,7.965
				c4.505-1.15,1.503-9.038,1.503-9.038s3.182,7.619,9.007,5.83c-8.207-12.761-15.146-22.377-17.415-22.377
				c-2.396,0-9.996,10.725-18.811,24.564C-5.316,689.562,0.287,681.621,0.287,681.621z"/>
		</g>
		<g display="inline">
			<path fill="#96C011" d="M1754.845,750.604c5.576-12.83,27.164-31.105,52.947-31.105c25.781,0.002,47.362,18.279,52.941,31.109
				L1754.845,750.604z"/>
			<path opacity="0.53" fill="#82A600" d="M1807.236,750.604h-52.392c5.533-12.735,26.854-30.83,52.393-31.093L1807.236,750.604z"/>
		</g>
	</g>
	
		<rect x="360" y="-943.351" display="none" fill="none" stroke="#E60012" stroke-width="3" stroke-miterlimit="10" width="1200" height="1784.351"/>
	<g>
		<g>
			<circle fill="#F2F7F3" cx="525.481" cy="316.999" r="12.195"/>
			<g>
				<g>
					<path fill="#F1A900" d="M464.095,445.497c0,0,48.801-58.669,61.811-92.397c13.018,33.729,61.815,92.397,61.815,92.397H464.095z
						"/>
					<path fill="#717071" d="M517.882,445.497c0,0,6.337-38.257,8.023-60.243c1.693,21.986,8.027,60.243,8.027,60.243H517.882z"/>
					<path fill="#F7CC5E" d="M525.905,353.1c0,0,0.555,50.352-23.25,89.129l15.227,3.269
						C517.882,445.497,529.784,379.979,525.905,353.1z"/>
					<path fill="#F7CC5E" d="M525.713,353.1c0,0-0.554,50.352,23.251,89.129l-15.223,3.269
						C533.741,445.497,521.839,379.979,525.713,353.1z"/>
					<path fill="#F7CC5E" d="M516.358,369.119c0,0,7.54-10.657,9.547-16.779c2.012,6.122,9.55,16.779,9.55,16.779H516.358z"/>
				</g>
			</g>
			<path fill="#E66324" d="M525.903,300.401c-8.883,0-16.082,7.202-16.082,16.084c0,8.883,16.082,28.075,16.082,28.075
				s16.086-19.192,16.086-28.075C541.989,307.604,534.786,300.401,525.903,300.401z M525.903,324.611
				c-4.486,0-8.123-3.639-8.123-8.126c0-4.489,3.637-8.126,8.123-8.126c4.488,0,8.129,3.637,8.129,8.126
				C534.032,320.973,530.392,324.611,525.903,324.611z"/>
		</g>
		<g>
			<circle fill="#F2F7F3" cx="1434.609" cy="335.452" r="11.047"/>
			<g>
				<path fill="#E66324" d="M1434.726,316.895c-10.089,0-18.268,8.182-18.268,18.27c0,10.086,18.268,31.873,18.268,31.873
					s18.264-21.787,18.264-31.873C1452.989,325.076,1444.812,316.895,1434.726,316.895z M1434.726,344.391
					c-5.099,0-9.229-4.131-9.229-9.227c0-5.098,4.13-9.229,9.229-9.229c5.096,0,9.229,4.131,9.229,9.229
					C1443.954,340.26,1439.821,344.391,1434.726,344.391z"/>
				<g>
					<g>
						<path fill="#F7CC5E" d="M1473.697,434.25c0,0-30.77-36.992-38.973-58.254c-8.205,21.262-38.975,58.254-38.975,58.254H1473.697
							z"/>
						<path fill="#717071" d="M1439.785,434.25c0,0-3.996-24.121-5.061-37.984c-1.064,13.863-5.061,37.984-5.061,37.984H1439.785z"
							/>
						<path fill="#F1A900" d="M1434.725,375.996c0,0-0.35,31.742,14.658,56.193l-9.598,2.061
							C1439.785,434.25,1432.281,392.939,1434.725,375.996z"/>
						<path fill="#F1A900" d="M1434.848,375.996c0,0,0.348,31.742-14.66,56.193l9.598,2.061
							C1429.785,434.25,1437.289,392.939,1434.848,375.996z"/>
						<path fill="#F1A900" d="M1440.746,386.096c0,0-4.754-6.717-6.021-10.578c-1.27,3.861-6.021,10.578-6.021,10.578H1440.746z"/>
					</g>
				</g>
			</g>
		</g>
		<g>
			<g>
				<g>
					<path fill="#F1A900" d="M1120.759,622.984c0,0-36-43.282-45.598-68.159c-9.602,24.877-45.601,68.159-45.601,68.159H1120.759z"
						/>
					<path fill="#717071" d="M1081.081,622.984c0,0-4.674-28.224-5.92-44.443c-1.245,16.22-5.92,44.443-5.92,44.443H1081.081z"/>
					<path fill="#F7CC5E" d="M1075.161,554.825c0,0-0.408,37.139,17.15,65.747l-11.23,2.412
						C1081.081,622.984,1072.302,574.649,1075.161,554.825z"/>
					<path fill="#F7CC5E" d="M1075.304,554.825c0,0,0.407,37.139-17.152,65.747l11.23,2.412
						C1069.382,622.984,1078.162,574.649,1075.304,554.825z"/>
					<path fill="#F7CC5E" d="M1082.206,566.644c0,0-5.562-7.86-7.045-12.378c-1.484,4.518-7.045,12.378-7.045,12.378H1082.206z"/>
				</g>
			</g>
			<g>
				<circle fill="#F2F7F3" cx="1074.588" cy="510.896" r="12.195"/>
				<path fill="#E66324" d="M1074.591,493.32c-10.089,0-18.268,8.18-18.268,18.268s18.268,31.873,18.268,31.873
					s18.264-21.785,18.264-31.873S1084.677,493.32,1074.591,493.32z M1074.591,520.816c-5.099,0-9.229-4.133-9.229-9.229
					c0-5.098,4.13-9.229,9.229-9.229c5.096,0,9.229,4.131,9.229,9.229C1083.819,516.684,1079.687,520.816,1074.591,520.816z"/>
			</g>
		</g>
		<g>
			<circle fill="#F2F7F3" cx="1341.627" cy="177.145" r="11.047"/>
			<g>
				<path fill="#E66324" d="M1341.226,160.231c-8.002,0-14.49,6.488-14.49,14.491c0,8.002,14.49,25.287,14.49,25.287
					s14.49-17.285,14.49-25.287C1355.716,166.72,1349.228,160.231,1341.226,160.231z M1341.226,182.043
					c-4.043,0-7.322-3.278-7.322-7.32c0-4.044,3.279-7.322,7.322-7.322c4.045,0,7.32,3.278,7.32,7.322
					C1348.546,178.765,1345.271,182.043,1341.226,182.043z"/>
				<g>
					<g>
						<path fill="#F1A900" d="M1281.162,300.131c0,0,47.42-57.01,60.061-89.775c12.648,32.766,60.066,89.775,60.066,89.775H1281.162
							z"/>
						<path fill="#717071" d="M1333.426,300.131c0,0,6.158-37.176,7.797-58.539c1.645,21.363,7.801,58.539,7.801,58.539H1333.426z"
							/>
						<path fill="#F7CC5E" d="M1341.223,210.355c0,0,0.539,48.918-22.592,86.599l14.795,3.177
							C1333.426,300.131,1344.992,236.469,1341.223,210.355z"/>
						<path fill="#F7CC5E" d="M1341.035,210.355c0,0-0.537,48.918,22.594,86.599l-14.791,3.177
							C1348.838,300.131,1337.271,236.469,1341.035,210.355z"/>
						<path fill="#F7CC5E" d="M1331.945,225.921c0,0,7.326-10.355,9.277-16.305c1.955,5.949,9.279,16.305,9.279,16.305H1331.945z"/>
					</g>
				</g>
			</g>
		</g>
	</g>
</g>
<g id="圖層_2">
</g>
</svg>
