<svg xmlns="http://www.w3.org/2000/svg" viewBox="0 0 129.08 152.62"><defs><style>.cls-1{fill:#007382;}.cls-2{fill:#00adb0;}</style></defs><title>資產 1</title><g id="圖層_2" data-name="圖層 2"><g id="圖層_1-2" data-name="圖層 1"><path class="cls-1" d="M52.09,43.38a.83.83,0,1,0,.83-.83A.83.83,0,0,0,52.09,43.38Z"/><circle class="cls-1" cx="62.44" cy="29.77" r="0.83"/><path class="cls-1" d="M55.77,43.91a.64.64,0,0,0,.52-.26.68.68,0,0,0-.1-.95l-3-2.33a.73.73,0,0,0-.42-.14.69.69,0,0,0-.54.26.73.73,0,0,0-.14.5.69.69,0,0,0,.27.45l3,2.33A.7.7,0,0,0,55.77,43.91Z"/><path class="cls-1" d="M62.6,23.75a.83.83,0,1,0-.82-.83A.83.83,0,0,0,62.6,23.75Z"/><path class="cls-1" d="M50.1,47.37a.83.83,0,0,0-.83-.83.83.83,0,0,0,0,1.65A.83.83,0,0,0,50.1,47.37Z"/><ellipse class="cls-1" cx="54.49" cy="38.66" rx="0.83" ry="0.83"/><ellipse class="cls-1" cx="61.15" cy="25.59" rx="0.83" ry="0.83"/><path class="cls-1" d="M29.5,69l.05,0a8.41,8.41,0,0,0,3.07-1.81,7.8,7.8,0,0,0,2.19-4.39v-.05s0,0,0,0h0l0,0a16.12,16.12,0,0,1-2.91,2h0L29.48,69v0h0Z"/><path class="cls-1" d="M42.68,55.75v.06a8.62,8.62,0,0,0,2.25,2.48h0a51.38,51.38,0,0,1,17.51-4.4h0s0,0,0,0v-.32a2.62,2.62,0,0,1,2.56-2.67h.22a2.62,2.62,0,0,1,2.56,2.67v.29a0,0,0,0,0,0,0h0a42.24,42.24,0,0,1,16,4.11h0a10.79,10.79,0,0,0,2.7-2.22v-.06h0A45.61,45.61,0,0,0,72,51a13.46,13.46,0,0,0-2.51-7.61,6.66,6.66,0,0,0-11.42.17,13.8,13.8,0,0,0-2.39,8,55.7,55.7,0,0,0-13,4.23Z"/><circle class="cls-1" cx="46.14" cy="51.75" r="0.83"/><path class="cls-1" d="M48.25,50a.69.69,0,0,0,.69.66h0l4.48-.14a.64.64,0,0,0,.47-.21.67.67,0,0,0,.19-.48.69.69,0,0,0-.7-.66l-4.48.13A.7.7,0,0,0,48.25,50Z"/><path class="cls-1" d="M24.06,78.81l0,0a2.77,2.77,0,0,1,1.06-.21h.31A13.14,13.14,0,0,0,29.11,78h0l2-3.51a0,0,0,0,0,0,0s0,0,0,0H31a18.81,18.81,0,0,1-5,.88h0s0,0,0,0L24,78.79a0,0,0,0,0,0,0h0Z"/><path class="cls-1" d="M76.67,39a.82.82,0,0,0-.82-.82.83.83,0,1,0,0,1.65A.82.82,0,0,0,76.67,39Z"/><path class="cls-1" d="M40.93,48.49a15.14,15.14,0,0,0,1.13,6.13l0,0h0l5.27-9.48,6.64,2,.2,0a.66.66,0,0,0,.64-.48.69.69,0,0,0,0-.52.71.71,0,0,0-.41-.33L48.07,44l6-10.81,3.37,8a.67.67,0,0,0,.62.41.6.6,0,0,0,.26-.05.67.67,0,0,0,.37-.89l-3.43-8.16a.67.67,0,0,0-.6-.41l2.88-5.15,3,12.13a.68.68,0,0,0,.66.52l.16,0a.71.71,0,0,0,.42-.31.69.69,0,0,0,.07-.51L58.55,25.29a.56.56,0,0,0,0-.11l5.22-9.39.06,22.8a.68.68,0,0,0,1.36,0l-.06-23.2L71,26h0L67.36,39.56a.68.68,0,0,0,.49.84l.17,0a.67.67,0,0,0,.65-.5l3.27-12.24,2.85,5.11a.68.68,0,0,0-.82.34l-4,8a.72.72,0,0,0,0,.52.71.71,0,0,0,.34.39.73.73,0,0,0,.31.07.68.68,0,0,0,.61-.37l4-8a.44.44,0,0,0,0-.15l5.42,9.72L73.08,45.6a.68.68,0,0,0,.19,1.33.64.64,0,0,0,.2,0l7.85-2.38L87.18,55v0h0l0,0a12.61,12.61,0,0,0,2.07-4.53h0L66.87,10.18l4-7.15A2,2,0,0,0,71,1.48a2.08,2.08,0,0,0-1-1.23,2,2,0,0,0-1-.25A2,2,0,0,0,67.3,1.05L40.93,48.4v.09Z"/><path class="cls-1" d="M56.84,32.45a.82.82,0,1,0,.82-.83A.83.83,0,0,0,56.84,32.45Z"/><circle class="cls-1" cx="71.65" cy="33.61" r="0.82"/><path class="cls-1" d="M61.32,8.58h0l0,0a37.85,37.85,0,0,1,2.39-3.93h0a0,0,0,0,0,0,0l-2-3.54A2,2,0,0,0,60,0a2,2,0,0,0-1.78,3Z"/><path class="cls-1" d="M117.5,87.29h-6.17a0,0,0,0,0,0,0l2.24,4h3.93a2,2,0,1,0,0-4.07Z"/><path class="cls-1" d="M23.91,87.39l1.72-3.09v0a0,0,0,0,0,0,0h-.59a2.87,2.87,0,0,1-2.67-2.34v-.06h0s0,0,0,0L15,95a2,2,0,0,0,.78,2.77,2.1,2.1,0,0,0,1,.26,2.06,2.06,0,0,0,1.79-1l3-5.48h85.81L110.5,97a2,2,0,1,0,3.56-2l-6.38-11.48h-.06a3,3,0,0,1-1.09.27h-.45a19.26,19.26,0,0,1-3-.25H103a0,0,0,0,0,0,0l2.15,3.87Z"/><path class="cls-1" d="M15.5,91.36l2.23-4v0s0,0,0,0H11.58a2,2,0,1,0,0,4.07H15.5Z"/><path class="cls-1" d="M71.9,43.12a.66.66,0,0,0-.15,1,.68.68,0,0,0,.95.15L75.74,42a.66.66,0,0,0,.27-.44.65.65,0,0,0-.12-.5.68.68,0,0,0-.95-.15Z"/><path class="cls-1" d="M67.31,25.12a.83.83,0,1,0,.83.83A.83.83,0,0,0,67.31,25.12Z"/><path class="cls-1" d="M102.4,74h0a17.14,17.14,0,0,1-5.81-2.25l-.06,0h0a0,0,0,0,0,0,0L98.3,75h0s0,0,0,0v0l.14.14a10.59,10.59,0,0,0,5.93,2.55h.05a0,0,0,0,0,0,0l-2.06-3.71h0Z"/><path class="cls-1" d="M74.16,48.08a.68.68,0,0,0,0,1.36l7,.23h0a.68.68,0,0,0,0-1.36l-7-.24Z"/><path class="cls-1" d="M66.62,30.31a.83.83,0,1,0,.82-.82A.83.83,0,0,0,66.62,30.31Z"/><circle class="cls-1" cx="82.14" cy="51.09" r="0.83"/><circle class="cls-1" cx="78.06" cy="47.01" r="0.83"/><path class="cls-2" d="M36.19,87.39V78.9l-1,.83a15.77,15.77,0,0,1-9.76,3.32h-.35A1.66,1.66,0,0,1,24,82.51a1.7,1.7,0,0,1-.43-1.18,1.66,1.66,0,0,1,1.64-1.56h.31c.82,0,5.12-.14,8-2.86A9,9,0,0,0,36,71.54L36.25,70l-1.18,1a15.83,15.83,0,0,1-9.59,3.19h-.38a1.65,1.65,0,0,1-1.56-1.71,1.68,1.68,0,0,1,1.63-1.56h.29c.84,0,5.15-.14,8-2.86a9.65,9.65,0,0,0,2.73-6.88l.07-1.6-1.09,1.17a14.52,14.52,0,0,1-6.71,4.12,1.54,1.54,0,0,1-.35,0,1.63,1.63,0,0,1-1.6-1.29,1.65,1.65,0,0,1,1.24-2c.34-.08,8.46-2.07,8.46-13.17a1.64,1.64,0,0,1,1.64-1.64h.28a1.64,1.64,0,0,1,1.64,1.64c0,11,7.66,12.26,8,12.3a1.64,1.64,0,0,1-.23,3.26l-.23,0a12.55,12.55,0,0,1-6.51-3.5l-1-1.05,0,1.49a9.8,9.8,0,0,0,2.75,7.09c2.84,2.72,7.16,2.86,8,2.86h.25a1.65,1.65,0,0,1,1.67,1.55A1.62,1.62,0,0,1,52,73.65a1.6,1.6,0,0,1-1.09.54h-.43A15.79,15.79,0,0,1,40.88,71l-1.19-1,.22,1.52a9,9,0,0,0,2.59,5.38c2.85,2.72,7.15,2.86,8,2.86h.25a1.65,1.65,0,0,1,1.68,1.56A1.63,1.63,0,0,1,52,82.51a1.61,1.61,0,0,1-1.12.53h-.4a15.72,15.72,0,0,1-9.74-3.32l-1-.83v8.49Zm30.48,0V81.2l1,.88a12.53,12.53,0,0,0,8,2.88H76a1.49,1.49,0,0,0-.06-3h-.25A9.78,9.78,0,0,1,69,79.38a8.44,8.44,0,0,1-2.14-4.69l-.25-1.58,1.22,1a12.55,12.55,0,0,0,7.83,2.75H76a1.49,1.49,0,0,0-.08-3h-.23A9.8,9.8,0,0,1,69,71.33a9.12,9.12,0,0,1-2.28-6l-.08-1.68,1.12,1.25a12.19,12.19,0,0,0,5.45,3.56,1.47,1.47,0,0,0,.28,0,1.38,1.38,0,0,0,1.33-1.16,1.5,1.5,0,0,0-1-1.77c-.28-.07-7.07-1.87-7.07-12a1.54,1.54,0,0,0-.4-1,1.28,1.28,0,0,0-1-.44h-.22a1.43,1.43,0,0,0-1.36,1.49c0,10-6.41,11.15-6.68,11.19a1.47,1.47,0,0,0-1.17,1.68,1.39,1.39,0,0,0,1.53,1.27,10.57,10.57,0,0,0,5.27-3l1.09-1.12-.06,1.55a9.23,9.23,0,0,1-2.29,6.23,9.82,9.82,0,0,1-6.7,2.6H54.5a1.43,1.43,0,0,0-1.37,1.41,1.45,1.45,0,0,0,1.31,1.55h.31a12.57,12.57,0,0,0,7.83-2.74l1.21-1-.24,1.58a8.41,8.41,0,0,1-2.13,4.69A9.79,9.79,0,0,1,54.75,82h-.22a1.49,1.49,0,0,0-.1,3h.33a12.48,12.48,0,0,0,8-2.88l1-.88v6.19Zm28.08,0V78.19l1,.86c3.81,3.27,8.85,3.52,10.31,3.52h.39a1.72,1.72,0,0,0,1.19-.57,1.69,1.69,0,0,0,.44-1.24,1.75,1.75,0,0,0-1.77-1.64h-.27c-.87,0-5.4-.15-8.39-3a9.55,9.55,0,0,1-2.74-5.73l-.22-1.54,1.21,1a16.68,16.68,0,0,0,10.14,3.39h.4a1.72,1.72,0,0,0,1.2-.57,1.69,1.69,0,0,0,.44-1.24,1.74,1.74,0,0,0-1.75-1.65h-.27c-.88,0-5.42-.15-8.41-3a10.32,10.32,0,0,1-2.9-7.52l0-1.51,1.07,1.08a13.57,13.57,0,0,0,6.89,3.73h.23a1.75,1.75,0,0,0,1.72-1.5,1.73,1.73,0,0,0-1.47-1.94c-.34-.06-8.42-1.44-8.42-13A1.72,1.72,0,0,0,93,44.43h-.29A1.73,1.73,0,0,0,91,46.16C91,57.82,82.45,59.95,82.1,60a1.75,1.75,0,0,0-1.32,2.06,1.72,1.72,0,0,0,1.69,1.35,1.63,1.63,0,0,0,.37,0A15.09,15.09,0,0,0,89.95,59l1.11-1.2L91,59.45a10.19,10.19,0,0,1-2.89,7.31c-3,2.87-7.52,3-8.4,3H79.4a1.77,1.77,0,0,0-1.72,1.65,1.73,1.73,0,0,0,1.66,1.8h.38a16.68,16.68,0,0,0,10.14-3.39l1.2-1-.21,1.54A9.47,9.47,0,0,1,88.1,76.1c-3,2.87-7.5,3-8.39,3h-.32a1.75,1.75,0,0,0-1.72,1.66,1.73,1.73,0,0,0,1.64,1.8h.41c1.45,0,6.48-.25,10.29-3.52l1-.86v9.21Z"/><path class="cls-2" d="M25.48,114.44A1.54,1.54,0,0,0,23.95,116V129.1a.66.66,0,0,1-.66.66H15.35a.64.64,0,0,1-.62-.66V109.22a1.57,1.57,0,0,0-1.53-1.53,1.55,1.55,0,0,0-1.54,1.53V129.1a.67.67,0,0,1-.66.66H3.72a.66.66,0,0,1-.65-.66V116.15a1.52,1.52,0,0,0-1.54-1.53A1.52,1.52,0,0,0,0,116.15v14.1a2.58,2.58,0,0,0,2.58,2.58H24.44A2.58,2.58,0,0,0,27,130.25V116A1.53,1.53,0,0,0,25.48,114.44Z"/><path class="cls-2" d="M45.44,122.63H41.53a.4.4,0,0,1-.42-.38V122a1.43,1.43,0,1,0-2.85,0v.28a.37.37,0,0,1-.38.38H34.39a1.48,1.48,0,0,0-1.47,1.49,1.45,1.45,0,0,0,1.47,1.46h1.53a.36.36,0,0,1,.3.18.36.36,0,0,1,0,.36l-3.31,5.36a1,1,0,0,0,0,1,1,1,0,0,0,.88.51,3,3,0,0,0,2.61-1.51L38,128.73a.11.11,0,0,1,.11-.08.13.13,0,0,1,.13.13v5.12a1.43,1.43,0,1,0,2.85,0v-5.37a.15.15,0,0,1,.16-.14.16.16,0,0,1,.13.06l1.31,2.38a2.82,2.82,0,0,0,2.46,1.44,1,1,0,0,0,.85-.49,1,1,0,0,0,0-1l-2.57-4.71a.23.23,0,0,1,0-.22.66.66,0,0,1,.49-.29h1.46a1.45,1.45,0,0,0,1.46-1.46A1.48,1.48,0,0,0,45.44,122.63Z"/><path class="cls-2" d="M59.17,126.09a.33.33,0,0,1,0-.33.35.35,0,0,1,.31-.17h.94a1.45,1.45,0,0,0,1.46-1.46,1.48,1.48,0,0,0-1.46-1.49h-3.2a.4.4,0,0,1-.42-.38V122a1.4,1.4,0,0,0-1.39-1.43A1.43,1.43,0,0,0,54,122v.28a.4.4,0,0,1-.41.38H49.39a1.5,1.5,0,0,0-1.46,1.49,1.47,1.47,0,0,0,1.46,1.46h1.81a.69.69,0,0,1,.51.3.24.24,0,0,1,0,.24L49,130.93a1,1,0,0,0,0,1,1,1,0,0,0,.89.5A2.78,2.78,0,0,0,52.35,131l1.36-2.37a.15.15,0,0,1,.14-.08.13.13,0,0,1,.14.14v5.26a1.43,1.43,0,0,0,1.43,1.43,1.4,1.4,0,0,0,1.39-1.43v-5.5a.14.14,0,0,1,.15-.15.18.18,0,0,1,.14.06l1.42,2.61a2.92,2.92,0,0,0,2.54,1.48,1,1,0,0,0,.87-.49,1,1,0,0,0,0-1Z"/><path class="cls-2" d="M48.77,118.45v-5.71a.24.24,0,0,1,.24-.23.26.26,0,0,1,.18.08l3.55,3.62a5,5,0,0,0,3.5,1.44.87.87,0,0,0,.61-1.49l-4.52-4.6a.26.26,0,0,1,0-.28.25.25,0,0,1,.23-.14h3.09a1.5,1.5,0,1,0,0-3H49.29a.52.52,0,0,1-.52-.52v-.56a1.45,1.45,0,0,0-1.46-1.46,1.48,1.48,0,0,0-1.49,1.46v.56a.49.49,0,0,1-.49.52H39a1.5,1.5,0,1,0,0,3h3.1a.22.22,0,0,1,.21.13.25.25,0,0,1-.06.26l-4.66,4.6a.88.88,0,0,0-.21,1,.87.87,0,0,0,.83.54,5,5,0,0,0,3.54-1.47l3.66-3.55a.23.23,0,0,1,.18-.08.22.22,0,0,1,.22.22v5.67a1.5,1.5,0,0,0,1.49,1.5A1.48,1.48,0,0,0,48.77,118.45Z"/><path class="cls-2" d="M94.58,108.67H78.53a.48.48,0,0,1-.38-.21.51.51,0,0,1-.07-.44l.45-1a1.14,1.14,0,0,0-.09-1.1,1.08,1.08,0,0,0-.92-.48,2.73,2.73,0,0,0-2.4,1.52l-.45,1a1.08,1.08,0,0,1-1,.67H68.3a1.48,1.48,0,0,0-1.53,1.53,1.46,1.46,0,0,0,1.53,1.5h3.94a.55.55,0,0,1,.46.27.48.48,0,0,1,.06.45l-5,11.14a1.18,1.18,0,0,0,.1,1.11,1.06,1.06,0,0,0,.88.47,2.62,2.62,0,0,0,2.4-1.55l1.6-3.44a.22.22,0,0,1,.2-.12.17.17,0,0,1,.19.17v14.13a1.45,1.45,0,1,0,2.89,0V130.5a.76.76,0,0,1,.7-.7h12a.75.75,0,0,1,.73.7v3.83a1.42,1.42,0,0,0,1.5,1.46,1.4,1.4,0,0,0,1.46-1.46V117.16a2.47,2.47,0,0,0-2.58-2.47h-14a.44.44,0,0,1-.39-.2.46.46,0,0,1,0-.44l.73-1.61a1.17,1.17,0,0,1,1-.74H94.58a1.51,1.51,0,0,0,0-3Zm-5.85,11.94h-12a.78.78,0,0,1-.7-.73v-1.5a.78.78,0,0,1,.7-.73h12a.79.79,0,0,1,.73.73v1.5A.79.79,0,0,1,88.74,120.61Zm-12,3h12a.79.79,0,0,1,.73.73V126a.75.75,0,0,1-.73.69h-12A.75.75,0,0,1,76,126v-1.6A.78.78,0,0,1,76.69,123.64Z"/><path class="cls-2" d="M126.68,121.41h-4.14a.42.42,0,0,1-.34-.19.46.46,0,0,1-.08-.42l.59-1.81a1.12,1.12,0,0,0-.15-1,1.14,1.14,0,0,0-.92-.49,2.21,2.21,0,0,0-2.09,1.48l-.63,1.81a.93.93,0,0,1-.87.64h-5.44a1,1,0,0,1-.9-.64L111,119a2.26,2.26,0,0,0-2.12-1.48,1.12,1.12,0,0,0-.92.47,1.19,1.19,0,0,0-.16,1.07l.66,1.78a.5.5,0,0,1-.06.44.44.44,0,0,1-.36.18h-4.21a1.5,1.5,0,0,0,0,3h9.26a.64.64,0,0,1,.66.63v2.05a.67.67,0,0,1-.66.66h-6.47a1.52,1.52,0,1,0,0,3h6.47a.64.64,0,0,1,.66.63v2.89a1.51,1.51,0,1,0,3,0V131.4a.61.61,0,0,1,.63-.62h6.51a1.52,1.52,0,0,0,1.5-1.53,1.5,1.5,0,0,0-1.5-1.5h-6.51a.64.64,0,0,1-.63-.66V125a.61.61,0,0,1,.63-.62h9.26a1.5,1.5,0,1,0,0-3Z"/><path class="cls-2" d="M127.55,113.51H117.42a.63.63,0,0,1-.63-.63v-1.36a.6.6,0,0,1,.63-.62h7.48a1.54,1.54,0,0,0,1.5-1.53,1.52,1.52,0,0,0-1.5-1.53h-7.7a.38.38,0,0,1-.42-.38v-.25a1.51,1.51,0,1,0-3,0v.25a.4.4,0,0,1-.42.38h-7.73a1.52,1.52,0,0,0-1.5,1.53,1.54,1.54,0,0,0,1.5,1.53h7.48a.63.63,0,0,1,.66.62v1.36a.66.66,0,0,1-.66.63H103a1.51,1.51,0,1,0,0,3h24.57a1.51,1.51,0,1,0,0-3Z"/><path class="cls-2" d="M7.24,146.74l1.74.55a3.88,3.88,0,0,1-1.33,2.16,3.81,3.81,0,0,1-2.36.7A3.83,3.83,0,0,1,2.38,149a4.64,4.64,0,0,1-1.14-3.31,4.84,4.84,0,0,1,1.15-3.45,3.92,3.92,0,0,1,3-1.23,3.7,3.7,0,0,1,2.65,1A3.45,3.45,0,0,1,9,143.57L7.18,144a1.92,1.92,0,0,0-.66-1.09,1.88,1.88,0,0,0-1.21-.4,2,2,0,0,0-1.6.71,3.49,3.49,0,0,0-.62,2.3,3.7,3.7,0,0,0,.61,2.4,2,2,0,0,0,1.57.71,1.8,1.8,0,0,0,1.23-.45A2.67,2.67,0,0,0,7.24,146.74Z"/><path class="cls-2" d="M13.94,141.12v3.27a2.57,2.57,0,0,1,3-.75,1.79,1.79,0,0,1,.71.56A2,2,0,0,1,18,145a6.64,6.64,0,0,1,.08,1.28V150H16.39v-3.4a5.21,5.21,0,0,0-.09-1.28.85.85,0,0,0-.34-.43,1.1,1.1,0,0,0-.62-.16,1.43,1.43,0,0,0-.76.2,1.22,1.22,0,0,0-.49.63,3.6,3.6,0,0,0-.16,1.23V150h-1.7v-8.88Z"/><path class="cls-2" d="M22.84,145.54l-1.55-.28a2.4,2.4,0,0,1,.9-1.38,3.24,3.24,0,0,1,1.89-.45,4.08,4.08,0,0,1,1.7.27,1.72,1.72,0,0,1,.79.69,3.51,3.51,0,0,1,.23,1.52l0,2a6.87,6.87,0,0,0,.08,1.25,3.69,3.69,0,0,0,.31.86H25.48c0-.11-.1-.28-.17-.5l-.06-.2a3.08,3.08,0,0,1-.93.64,2.67,2.67,0,0,1-1.06.21,2.2,2.2,0,0,1-1.56-.54,1.8,1.8,0,0,1-.57-1.36,1.84,1.84,0,0,1,.26-1,1.68,1.68,0,0,1,.72-.65,5.76,5.76,0,0,1,1.36-.4,9.66,9.66,0,0,0,1.66-.42v-.17a.89.89,0,0,0-.24-.7,1.47,1.47,0,0,0-.92-.21,1.2,1.2,0,0,0-.7.18A1.24,1.24,0,0,0,22.84,145.54Zm2.28,1.38a10,10,0,0,1-1,.26,3.23,3.23,0,0,0-.93.3.72.72,0,0,0-.33.6.84.84,0,0,0,.26.62.93.93,0,0,0,.68.26,1.49,1.49,0,0,0,.88-.3,1,1,0,0,0,.4-.56,3.42,3.42,0,0,0,.07-.83Z"/><path class="cls-2" d="M36.06,150h-1.7v-3.29a5.12,5.12,0,0,0-.11-1.35.94.94,0,0,0-.36-.48,1,1,0,0,0-.59-.17,1.38,1.38,0,0,0-.8.24,1.22,1.22,0,0,0-.48.64,5.65,5.65,0,0,0-.13,1.48V150h-1.7v-6.43h1.58v.94a2.65,2.65,0,0,1,3.16-.89,1.76,1.76,0,0,1,.71.52,1.92,1.92,0,0,1,.33.71,5.5,5.5,0,0,1,.09,1.15Z"/><path class="cls-2" d="M39.37,150.43l1.95.23a.66.66,0,0,0,.22.47,1.27,1.27,0,0,0,.76.18,2,2,0,0,0,1-.2.84.84,0,0,0,.34-.43,2.7,2.7,0,0,0,.08-.78V149a2.3,2.3,0,0,1-1.93,1,2.36,2.36,0,0,1-2.05-1.1,3.71,3.71,0,0,1-.59-2.16,3.56,3.56,0,0,1,.78-2.47,2.51,2.51,0,0,1,1.94-.85,2.37,2.37,0,0,1,2,1v-.9h1.59v5.77a5.64,5.64,0,0,1-.19,1.71,2.08,2.08,0,0,1-.53.89,2.37,2.37,0,0,1-.9.5,4.83,4.83,0,0,1-1.44.18,3.72,3.72,0,0,1-2.32-.56,1.76,1.76,0,0,1-.69-1.42C39.36,150.58,39.37,150.51,39.37,150.43Zm1.52-3.78a2.33,2.33,0,0,0,.39,1.5,1.22,1.22,0,0,0,1,.48,1.34,1.34,0,0,0,1.06-.49,2.12,2.12,0,0,0,.43-1.44,2.28,2.28,0,0,0-.41-1.48,1.31,1.31,0,0,0-1-.48,1.27,1.27,0,0,0-1,.47A2.25,2.25,0,0,0,40.89,146.66Z"/><path class="cls-2" d="M52.57,148l1.7.28a2.76,2.76,0,0,1-1,1.42,3,3,0,0,1-1.77.49,2.87,2.87,0,0,1-2.49-1.1,3.66,3.66,0,0,1-.64-2.22,3.56,3.56,0,0,1,.84-2.51,2.74,2.74,0,0,1,2.11-.9,2.85,2.85,0,0,1,2.27.95,4.19,4.19,0,0,1,.79,2.91H50.1a1.73,1.73,0,0,0,.41,1.18,1.3,1.3,0,0,0,1,.42,1,1,0,0,0,.67-.22A1.34,1.34,0,0,0,52.57,148Zm.1-1.72a1.62,1.62,0,0,0-.39-1.13,1.17,1.17,0,0,0-.88-.38,1.18,1.18,0,0,0-.92.4,1.59,1.59,0,0,0-.36,1.11Z"/><path class="cls-2" d="M64.8,150v-3.74l-3.26-5.15h2.1l2.09,3.51,2-3.51h2.07l-3.27,5.16V150Z"/><path class="cls-2" d="M71.15,146.7a3.47,3.47,0,0,1,.42-1.64,2.86,2.86,0,0,1,1.19-1.21,3.46,3.46,0,0,1,1.71-.42,3.2,3.2,0,0,1,2.39.95,3.27,3.27,0,0,1,.93,2.4,3.31,3.31,0,0,1-.94,2.42,3.17,3.17,0,0,1-2.37,1,3.75,3.75,0,0,1-1.69-.4,2.75,2.75,0,0,1-1.22-1.18A3.89,3.89,0,0,1,71.15,146.7Zm1.75.09a2.13,2.13,0,0,0,.45,1.46,1.49,1.49,0,0,0,2.24,0,2.14,2.14,0,0,0,.45-1.48,2.11,2.11,0,0,0-.45-1.45,1.49,1.49,0,0,0-2.24,0A2.14,2.14,0,0,0,72.9,146.79Z"/><path class="cls-2" d="M85.1,150v-1a2.44,2.44,0,0,1-.92.81,2.61,2.61,0,0,1-1.21.3,2.34,2.34,0,0,1-1.16-.29,1.65,1.65,0,0,1-.75-.8,3.57,3.57,0,0,1-.23-1.42v-4.07h1.7v3a8.11,8.11,0,0,0,.1,1.66.88.88,0,0,0,.34.49,1.06,1.06,0,0,0,.63.18,1.36,1.36,0,0,0,.78-.24,1.25,1.25,0,0,0,.48-.6,6.91,6.91,0,0,0,.12-1.74v-2.71h1.7V150Z"/><path class="cls-2" d="M91.82,150h-1.7v-6.43H91.7v.91a2.71,2.71,0,0,1,.73-.86,1.35,1.35,0,0,1,.73-.2,2.19,2.19,0,0,1,1.12.32l-.52,1.49A1.5,1.5,0,0,0,93,145a1,1,0,0,0-.61.2,1.39,1.39,0,0,0-.4.71,10.23,10.23,0,0,0-.14,2.16Z"/><path class="cls-2" d="M102,150V141.2h1.79v7.31h4.46V150Z"/><path class="cls-2" d="M111.26,142.7v-1.57H113v1.57Zm0,7.31v-6.43H113V150Z"/><path class="cls-2" d="M115.71,143.57h.94v-.49a3.11,3.11,0,0,1,.18-1.21,1.32,1.32,0,0,1,.63-.65,2.43,2.43,0,0,1,1.17-.25,4.76,4.76,0,0,1,1.42.22l-.23,1.19a3.38,3.38,0,0,0-.78-.1.67.67,0,0,0-.53.18,1,1,0,0,0-.16.66v.46h1.27v1.34h-1.27V150h-1.7v-5.1h-.94Z"/><path class="cls-2" d="M126,148l1.7.28a2.76,2.76,0,0,1-1,1.42,3,3,0,0,1-1.77.49,2.87,2.87,0,0,1-2.48-1.1,3.68,3.68,0,0,1-.64-2.22,3.57,3.57,0,0,1,.84-2.51,2.75,2.75,0,0,1,2.12-.9,2.87,2.87,0,0,1,2.27.95,4.19,4.19,0,0,1,.79,2.91h-4.27a1.71,1.71,0,0,0,.41,1.18,1.28,1.28,0,0,0,1,.42,1.06,1.06,0,0,0,.68-.22A1.33,1.33,0,0,0,126,148Zm.1-1.72a1.62,1.62,0,0,0-.39-1.13,1.17,1.17,0,0,0-.88-.38,1.19,1.19,0,0,0-.92.4,1.57,1.57,0,0,0-.35,1.11Z"/></g></g></svg>