<?xml version="1.0" encoding="utf-8"?>
<!-- Generator: Adobe Illustrator 21.1.0, SVG Export Plug-In . SVG Version: 6.00 Build 0)  -->
<svg version="1.1" id="圖層_1" xmlns="http://www.w3.org/2000/svg" xmlns:xlink="http://www.w3.org/1999/xlink" x="0px" y="0px"
	 viewBox="0 0 287 560" style="enable-background:new 0 0 287 560;" xml:space="preserve">
<style type="text/css">
	.st0{fill:#1C1C1A;}
	.st1{fill:#70CACE;}
	.st2{fill:#F3F8F4;}
	.st3{fill:#007E85;}
</style>
<g>
	<g id="_x35_">
		<path class="st0" d="M92.5,448.8c0.1,0.2,0.3,0.5,0.6,0.7c2.9-0.4,5.9-0.9,8.8-1.5c0.1-0.2,0.2-0.3,0.2-0.5l-0.6-0.8
			c0.5,0.3,0.7,0.5,0.6,0.8l0.3,0.4c0.2,0,0.4-0.1,0.6-0.1c0.7-0.8,1.2-1.4,2.9-1.7c-0.1,0.5,0.1,0.8,0.4,1c24.1-5.9,48-17.2,71-3.5
			c2.9-0.7,0.1-1.1,3.4-1.2c-30.5-16.3-59,2-87.9,5.9c0.1,0.1,0.2,0.3,0.3,0.6L92.5,448.8z"/>
		<path class="st0" d="M56.9,442.1c-1,0.4,1.4,0.9,2.7,1.4c0.7,0.4,1.4,0.8,2,1.1c0-0.1,0.1-0.1,0.1-0.2
			C60.1,443.7,58.5,443,56.9,442.1z"/>
		<path class="st0" d="M76.5,449.2c0,0.1,0,0.1,0,0.2c5.1,0.8,10.3,0.7,15.4,0.2c-0.2-0.1-0.4-0.3-0.6-0.4c0.4-0.1,0.7-0.7,0.9-1
			c-2.2,0.3-4.3,0.5-6.5,0.6c0,0.4-0.4,0.2-0.8,0c-1.8,0.1-3.7,0-5.5-0.1l0.4,1l-1.1-1.1c-0.4,0-0.8-0.1-1.1-0.1
			c0.1,0.3,0.2,0.5,0.3,0.8C77.7,449.4,77,449.2,76.5,449.2z"/>
		<path class="st0" d="M76.5,449.2c0-0.3-0.2-0.6-0.3-0.9c-2.1-0.3-4.3-0.6-6.4-1.2c-0.1,0-0.2,0.1-0.3,0.1l0.8,0.8
			c2,0.6,4,1,5.9,1.3C76.3,449.3,76.4,449.3,76.5,449.2z"/>
		<path class="st0" d="M56,458.6c0.7,0.4,1.3,0.7,2,1C59.7,459,58.9,458.8,56,458.6z"/>
		<path class="st0" d="M135.7,454.9c14.1-2.7,28.5-2.8,43.3,5.1c-1.5-0.9,1.3-0.9-1.7-1.6c-11.7-7.1-23.8-7.5-36.1-5.4l0,0.4
			l-0.9,0.3l0.2-0.5c-1.8,0.3-3.5,0.7-5.3,1.1C135.5,454.4,135.7,454.6,135.7,454.9z"/>
		<path class="st0" d="M112.3,460.9c1.5-0.4,2.9-0.8,4.4-1.2c-0.1-0.2-0.1-0.3-0.2-0.5c-1.5,0.4-3,0.8-4.5,1.2
			C112.1,460.6,112.2,460.7,112.3,460.9z"/>
		<path class="st0" d="M134.7,455.1c-0.1-0.1-0.2-0.4-0.1-0.8c-5.5,1.3-11.1,2.9-16.8,4.5c-0.1,0.2-0.2,0.4-0.3,0.6
			C123.2,457.8,129,456.3,134.7,455.1z"/>
		<path class="st0" d="M88.8,465.6c0.4-0.2,1.2-0.5,1.9-0.5c0-0.1-0.1-0.2-0.1-0.3c-1.2,0.1-2.4,0.2-3.6,0.3c0.4,0.2,0.7,0.6,0.9,1
			c0.4,0,0.9-0.1,1.3-0.1C89.2,465.8,89.1,465.7,88.8,465.6z"/>
		<path class="st0" d="M58,459.6c-0.4,0.1-0.9,0.3-1.6,0.5c4.6,2.6,9.3,4.3,13.9,5.2c0.5-0.3,1-0.7,1.5-1.1
			C67.3,463.3,62.7,461.9,58,459.6z"/>
		<path class="st0" d="M108.1,461.5c0,0.1,0,0.3,0.2,0.5c0.6-0.2,1.3-0.3,1.9-0.5c-0.1-0.2-0.2-0.3-0.3-0.5
			C109.3,461.2,108.7,461.3,108.1,461.5z"/>
		<path class="st0" d="M72.3,464.3c-0.2,0.4-0.5,0.7-0.7,0.9c0.2,0.1,0.3,0.3,0.4,0.4c1,0.2,1.9,0.3,2.9,0.4c0.3-0.3,0.6-0.8,1-1.2
			C74.7,464.7,73.5,464.5,72.3,464.3z"/>
		<path class="st0" d="M92.4,464.6c-0.3,0-0.6,0.1-0.9,0.1c0,0.2,0.1,0.4,0.1,0.6c0.1,0.1,0.2,0.2,0.3,0.3c0.2,0,0.5-0.1,0.7-0.1
			C92.7,465.1,92.6,464.8,92.4,464.6z"/>
		<path class="st0" d="M86.1,465.1c-0.3,0-0.5,0-0.8,0c-0.2,0.3-0.3,0.7-0.5,1c0,0,0.1,0,0.1,0.1c0.5,0,1-0.1,1.5-0.1
			c0.1-0.1,0.3-0.2,0.3-0.3L86.1,465.1z"/>
		<path class="st0" d="M94.3,464.6c-0.6,0.1-0.9,0.4-1,0.8c0.3-0.1,0.7-0.1,1-0.2c0.2-0.1,0.3-0.3,0.4-0.4
			C94.6,464.7,94.5,464.6,94.3,464.6z"/>
		<path class="st0" d="M128.2,473.3l0.2,0.1c5.4-1.4,10.8-2.7,16.1-3.3c0,0,0-0.1,0-0.1c0,0,0,0,0.1,0.1c9.7-1.2,19.3-0.5,28.7,4.3
			c0-0.3,0.3-0.6,0.9-0.9c0,0.3-0.2,1.3,0.4,1.4c0.4-0.4,0.3-1,0.3-1.5c-10.8-5.2-21.6-5.6-32.5-4c-0.4,0.4-0.8,0.6-1.4,0.2
			c-0.1,0-0.2,0-0.2,0c0,0,0,0.1,0,0.1l0-0.1c-4.1,0.7-8.2,1.6-12.3,2.7c0,0,0,0,0.1,0C128.4,472.9,128.4,472.9,128.2,473.3z"/>
		<path class="st0" d="M113.6,477.6c0-0.1,0-0.1,0-0.2c0-0.3,0.1-0.7,0.1-1.1c-5.3,1.5-10.6,2.8-16,3.8l0.4,1.2
			C103.4,480.4,108.5,479.1,113.6,477.6z"/>
		<path class="st0" d="M87.2,481.5c-0.7,0-1.4,0.1-2,0.1c0.2,0.2,0.2,0.5-0.4,0.8c-1.4-0.7-2.4-0.3-3.3,0.4c2.4,0.1,4.7,0,7-0.2
			c-0.5,0-1-0.2-1.7-0.5C87,481.9,87.1,481.7,87.2,481.5z"/>
		<path class="st0" d="M116.6,476.8c0-0.4,0-0.8,0.5-0.9c-0.1,0.3-0.1,0.5-0.1,0.8c3.6-1,7.1-2.1,10.7-3l-0.7-0.3
			c0.2-0.4,0.4-0.7,0.6-0.9c-4.2,1.1-8.5,2.3-12.8,3.5c0.2,0.4,0.4,0.8,0.6,1.1C115.8,477,116.2,476.9,116.6,476.8z"/>
		<path class="st0" d="M91.5,482.3c1.3-0.1,2.5-0.3,3.8-0.5c-0.4-0.2-0.6-0.5-0.5-1.2c-1.2,0.2-2.5,0.4-3.7,0.5
			c-0.1,0.1-0.1,0.1-0.2,0.2L91.5,482.3z"/>
		<path class="st0" d="M96.9,480.3c-0.2,0-0.4,0.1-0.6,0.1C96.5,480.5,96.7,480.5,96.9,480.3z"/>
		<path class="st0" d="M89,482.5c0.5,0,1-0.1,1.5-0.1c0.1-0.3,0.3-0.7,0.3-1C90.2,482,89.7,482.4,89,482.5z"/>
		<path class="st0" d="M175,474.1l-0.5,0.9c0.7,0.4,1.4,0.8,2.1,1.2c1.2-0.3-0.4-0.9,1.5-1.1c-0.5-0.3-1.1-0.6-1.6-0.9
			c-0.1,0.1-0.1,0.3-0.2,0.4C175.7,475.1,175.6,474.6,175,474.1z"/>
		<path class="st0" d="M87,499c-0.1-0.3-0.1-0.6-0.2-0.9c-1.3,0.1-2.5,0.1-3.8,0.1l-0.9,1C83.8,499.2,85.4,499.2,87,499z"/>
		<path class="st0" d="M139.7,487.2c12.5-2.1,25.3-1.8,38.8,4.7c-0.3-0.2-0.4-0.4,0.2-0.6c-12.4-7.3-24.9-7.5-37.6-5.2
			C140.8,486.4,140.2,486.8,139.7,487.2z"/>
		<path class="st0" d="M88.5,498.9c16.9-1.5,33.4-8.6,50.4-11.6c0-0.3,0-0.5-0.1-0.8c-14.1,2.9-28.4,8.5-42.9,10.7
			c-0.4,0.2-0.7,0.2-1.1,0.2c-1.8,0.3-3.6,0.5-5.4,0.6c0,0,0,0.1,0,0.1C88.9,498.2,88.6,498.5,88.5,498.9z"/>
		<path class="st0" d="M75.9,498.8c0.2,0,0.3,0,0.5,0c0.9-0.3,2-0.4,2.8-0.9c-1.5-0.1-3-0.3-4.4-0.5C75.1,498,75.4,498.5,75.9,498.8
			z"/>
		<path class="st0" d="M179.1,492.2c0.2,0.1,0.4,0.2,0.6,0.3C179.8,492.4,179.5,492.3,179.1,492.2z"/>
		<path class="st0" d="M178.5,491.9c0.2,0.1,0.4,0.2,0.6,0.3C178.9,492.1,178.7,492,178.5,491.9z"/>
		<path class="st0" d="M176.5,507.7c0.3,0.3,2,1.1,4.3,1.5c-2.5-1.3-5-2.4-7.5-3.3C174.4,506.5,175.5,507.1,176.5,507.7z"/>
		<path class="st0" d="M64.1,511.8c0.3-0.3,0.5-0.5,0.8-0.6c-0.5-0.2-0.9-0.4-1.4-0.6C63.5,511.2,63.6,511.7,64.1,511.8z"/>
		<path class="st0" d="M150.6,501.4c-9.7,0.4-19.7,3.1-29.7,5.9c-0.4,0.5-1.2,0.9-1.2,1.4c9.9-2.7,19.8-5.4,29.9-6
			C150,502.4,150.5,502,150.6,501.4z"/>
		<path class="st0" d="M150.7,501.4l0.1,1.3c7.4-0.3,14.9,0.5,22.6,3.3C166,502.3,158.4,501.1,150.7,501.4z"/>
		<path class="st0" d="M57.9,508.2c-1.6,0.2,0.9,0.4-1,1.1c0.4,0.2,0.8,0.4,1.2,0.6C58.2,509.2,58.1,508.6,57.9,508.2z"/>
		<path class="st0" d="M75.7,514.1c0.4,0.5,2.3,0,2.5,1.4c14,1.1,27.7-2.9,41.5-6.8l-0.6-0.9C104.6,511.9,89.9,516.1,75.7,514.1z"/>
		<path class="st0" d="M68.3,512.8c0.7,0,1.5-0.2,0.9,1c0.1,0.1,0.1,0.2,0.2,0.2c0.2,0.1,0.4,0.1,0.6,0.2c0.3-0.2,0.5-0.6,0.8-1.1
			c-1.1-0.3-2.2-0.6-3.3-1C67.5,512.8,67.9,512.8,68.3,512.8z"/>
		<path class="st0" d="M60.9,510.3c-0.4-0.8-0.8-0.2-1.2,0.4c0.5,0.2,0.9,0.4,1.4,0.6C61.1,510.9,61,510.6,60.9,510.3z"/>
	</g>
	<g id="_x34_">
		<path class="st0" d="M190.5,412.1l-0.6-1c-0.9-0.9-2-1.3-2.8-2.5c-0.4,0.1-0.7,0.1-1.1,0.2l1.1,1.6l-1.8-1.2l0.1-0.3
			c-2.8,0.5-5.5,1.1-8.1,2c-0.1,0.2-0.2,0.4-0.5,0.3c0-0.1,0-0.1,0-0.1c-0.5,0.2-1.1,0.4-1.6,0.5c0.2,1-0.7,0.7-1.3,0.5
			c-5.9,2.2-11.5,5.2-16.6,9c0.1,0.2,0.3,0.4,0.4,0.5C167.1,415.4,178.5,412,190.5,412.1z"/>
		<path class="st0" d="M157,422c-0.1-0.2-0.2-0.4-0.3-0.6c-0.9,0.7-1.8,1.4-2.7,2.1l0,0.1l-0.1-0.1c-2.6,2.2-5.1,4.6-7.4,7.1
			C149.7,427.4,153.2,424.4,157,422z"/>
		<path class="st0" d="M129.8,471.5l-0.4-0.3c0.3-0.7,0.6-0.8,0.8-0.9c0.4-9,2.5-17.3,6-24.6c-2.5,4.8-4.4,9.9-5.7,15.3
			c0.1,0.1,0.2,0.2,0.3,0.3l-0.3-0.2c-0.9,3.6-1.5,7.2-1.8,11C129.4,472.6,129.7,472.2,129.8,471.5z"/>
		<path class="st0" d="M250.7,445.1l0.4,0.5c0.1,0.1,0.2,0.2,0.2,0.4l-0.2-0.4c-0.6-0.8-1.1-0.3-1.8-0.3c0.5,1,0.9,2,1.4,3
			c0.2,0.1,0.4,0,0.5-0.3l-0.5-0.7c-0.3-0.2-0.5-0.4-0.7-1.1l0.7,1.1c0.2,0.1,0.5,0.2,0.8,0.5c0.5,0.8,0.3,1.9-0.2,1.9
			c0.5,1.3,1,2.6,1.5,4c0-0.3,0.1-0.6-0.3-1.3l1.4,1.1c0,0,0,0,0,0l-0.8-1.3c0.5,0.4,1,1.2,1.2,1.6c-0.1-0.2-0.3-0.3-0.4-0.3l0,0
			l0,0c-0.3-0.1-0.5,0.2-0.3,1c-0.4-0.3-0.6-0.4-0.7-0.6c0.1,0.3,0.2,0.7,0.3,1c0,0.1,0,0.1,0.1,0.2c1.1,3.7,2,7.4,2.5,11.3l1.2,1
			l-0.5,0c1.4,1.2,1.1,2.4,0.7,2.7l-0.9-1.5c-0.1,0.1-0.2,0.2-0.3,0.3c0,0.3,0.1,0.6,0.1,1c0.1,0.1,0.3,0.3,0.5,0.4
			c-0.1,0.1-0.3,0-0.4-0.1c0,0.2,0,0.5,0.1,0.7l1.7,0.6l0.1,0.5c-0.2-5-0.8-9.8-2-14.4c-0.4,0,0.3,1.1,0,0.9l-1.2-2.1
			c0.3,0.2,0.8,0.5,1.1,0.7c-1.1-4.2-2.6-8.3-4.5-12.1C251.2,445.1,251,445.1,250.7,445.1z"/>
		<path class="st0" d="M245,438c0.4,0.3,0.7,0.6,0.9,0.2c-0.5-1.3,0.1-1.5,0.3-1.9c-0.7-1-1.5-2.1-2.3-3.1c-0.4,0.4-0.9,0.7-1.6,1
			C243.3,435.5,244.2,436.7,245,438z"/>
		<path class="st0" d="M249.7,455.6c0.3,0.9,0.7,1.1,1.2,1.5c-0.2-0.6-0.3-1.1-0.5-1.6C250.1,455.3,249.9,455.3,249.7,455.6z"/>
		<path class="st0" d="M144.3,504.1c-0.3-1.1-1.5,0.7-1.5-1.1c1,0.2,1.5,0.7,2.5,0.3c-0.7-1.2-1.3-2.5-1.9-3.8
			c-0.7,0.7-1.4,1.7-1.5,3l0.3,0.9c0,0,0,0,0,0c0.4,0.8,0.9,1.6,1.4,2.3l-0.1-0.8L144.3,504.1z"/>
		<path class="st0" d="M189.8,411.1c0.3,0.3,0.5,0.6,0.7,1c0.1,0,0.2,0,0.2,0c-0.1,0-0.2,0-0.2,0c0,0,0,0.1,0.1,0.1l-0.1-0.1
			c-7.6,0.8-14.6,2.9-20.9,5.9c0.6,0.6,1.1,2.1,1.8,2.1c0-0.1,0-0.1-0.1-0.1c-0.1-0.5,0.3-0.2,0.5,0c-0.1,0.1-0.3,0.2-0.4,0.2
			c0.8,1.9,1.1,0.9,1.8,1.5c0.2-0.1,0.4-0.2,0.7-0.2c0-0.5,0-0.9,0.5-0.2c5.8-2,11.9-2.9,18.1-2.5c1.3,0,2.5,0,3.8,0
			c0.2-0.5,0.2-1.4,0.9-0.2c0,0.1-0.1,0.2-0.1,0.3c5,0.3,9.9,1.3,14.5,2.8c0.1-0.2,0.4-0.3,0.7,0c-0.6-2.2-1.1-2.1-2.2-2.5
			c-0.1-0.7-0.5-1.2,0.1-1.8c-0.4,0.2-1.3-1.1-2.2-2.4c-0.5-0.2-1-0.3-1.6-0.5c-0.8,0.9-2.7-0.3-2.9,1.6c1.6,2.4-0.1,0.1,0.5,2
			l-0.7-1.6c-1.3,0-3.8-1.5-5.2-3.4c0.1-0.1,0-0.3,0-0.5c-1-0.2-2-0.3-3-0.4c1.2-0.1,2.4-0.1,3.6-0.1l-0.6-1.6l-1-0.2
			c-0.9-1,0.3-0.4-0.7-1.6l2.3,1.9l-1.4-2.3c-0.9-0.1-1.9-0.2-2.8-0.2c-0.6,0-1.2,0-1.9,0.1c-0.1,0.4-0.3,0.7,0.1,1.3l1.9,1.4
			c-0.1-0.5-0.6-0.7-0.8-1.3l1.2,0.4c0,0,0-0.1,0-0.1c0,0,0.1,0.1,0.1,0.1l1.4,0.5c-0.1,0.1,0,0.2,0.3,0.6c0,0.8-1.1-0.4-1.7-1.1
			l-0.1,0c0.4,1.9-0.6,1.1-1.5,1.4c-0.7-0.5-1.3-2.7-2.2-3.1c-0.3,0-0.7,0.1-1,0.1c-0.2,0.8-0.6,1.5-0.9,2.2L189.8,411.1z
			 M172.6,417.4c-0.1,0-0.1,0-0.2,0c0.1,0.6-1-0.2-0.4,0.8c0.4,0.5,0.8,1.4,1,1l-0.1-0.5l0.2,0.4c0,0.1,0,0.1-0.1,0.1l0.2,0.6
			c-1.1-0.9-1.2-0.8-2.2-2l0.3-0.2c0.3,0.2,0.7-0.2,1.1-0.3c0,0,0-0.1,0-0.1C172.5,417.3,172.5,417.3,172.6,417.4
			c0.4,0,0.8,0.3,1.3,1.5C173.1,419.2,173.3,417.9,172.6,417.4z M174.2,418.7l0.6-0.4l-0.9-1c0.2,0.2,1.4,0.9,1.6,2.1L174.2,418.7z
			 M194.7,414.6l-0.6-1.2c0.4-0.7,2.3,1.4,1.3-1l1.2,1.8c-0.3-0.1-1.7,0.3-0.6,1.6c0.9,1,1.4-0.1,2,1.6c-1.5-1.9-1.7,0.1-2.4-0.3
			c-0.6-0.9,0.7,0.6,0.2-0.7c-1.6-2.4-2,0-1.5,1.5c-0.4-0.8-0.4-2.6-1.3-2.3C194.1,415.5,193.2,414,194.7,414.6z"/>
		<path class="st0" d="M141.3,494.3c-2-6.1-3.1-12.7-3.2-19.6c-0.1-2,0-4,0.2-6c-0.4-0.2-0.8-0.4-1.1-0.5c0.1,0.7,0.5,2.3,0.8,2.3
			c-0.3-0.1-1.2-1.6-1.8-2.3c0.2-0.7,0.8-0.8,0.2-2.2l-0.1,0.1c-0.1-0.9,1.4,1.1,2.1,1.5c0,0,0-0.1,0-0.1c0-0.1,0-0.2-0.1-0.3
			c-0.1-0.2-0.3-0.4-0.4-0.5c0.2,0.1,0.3,0.3,0.4,0.5c0,0,0.1,0.1,0.1,0.1c0.1-0.6,0.1-1.2,0.2-1.8c-0.4-0.6-0.9-1.3-0.5-0.8
			c0.1-0.1,0.4,0.1,0.6,0.2c0.1-0.4,0.1-0.9,0.2-1.3c-0.2-0.3-0.4-0.5-0.7-0.6l0.6-0.1l-2-2.6c0.3-0.2,1.5,1.4,0.9-0.1l-0.4-0.3
			c0.4-0.5,0.3-1.5,0.9-1.1l1.1,2.1c0.9-3.9,2.2-7.6,3.8-11.2l-0.4-0.8c0.2,0.2,0.4,0.4,0.5,0.5c0-0.1,0.1-0.2,0.1-0.3
			c0,0,0,0,0-0.1c-0.2-0.4-0.4-0.5-0.8-0.8l1,0.3c4.7-9.5,12-17.5,20.8-22.8c-1.2-0.8-2.4-0.9-3.1-0.9c-0.4-0.5-1.2,0.3-1.4,1.1
			c-0.3-0.3-0.8-1.1-1.1-1.4c-0.1,0.1-0.2,0.2-0.4,0.3c0.3,0.6,0.6,1.1,1.1,1.3c0.1,1.5-0.9-0.4-1.5-1c-9.8,7.8-16.9,18.5-20.6,30.6
			c0.1,0.1,0.2,0.2,0.3,0.4c-0.1-0.2-0.2-0.3-0.3-0.3c-0.1,0.3-0.2,0.6-0.3,0.9c0,0,0,0,0,0.1c-1,3.5-1.7,7.2-2.1,10.9l1.5,1.9
			l-1.6-1.4c-0.2,2.1-0.3,4.3-0.4,6.5c-0.2,6.6,0.8,12.9,2.8,18.8C138.9,492.3,139.8,494.2,141.3,494.3z M143.9,443.3l-0.8,0.2
			l0-0.2L143.9,443.3z M140.9,449.8c0.2,0.1,0.5,0.4,0.8,1.1l-0.8-0.3L140.9,449.8z"/>
		<path class="st0" d="M215.5,419.6c1.8,2.5,2.2,0.7,3.4,1.5c-0.6-1.7-1.7-2-2.1-2.6l1.9,1.4c0-0.2,0-0.4,0-0.6
			c-1.3-0.6-2.5-1.3-3.8-1.8C215.4,418.6,215,418.7,215.5,419.6z"/>
		<path class="st0" d="M214,414.1c0,0.1,0.1,0.2,0.1,0.3c1.9,0.6,3.7,1.3,5.5,2c-0.1-0.1-0.2-0.3-0.3-0.5c-0.3-2.3,1.1,0.4,2.1,1
			c0.3-0.3,0.6-0.7,0.8-1c0,1.1-0.4,1.3-0.8,1c-0.1,0.1-0.2,0.1-0.3,0.2c2,0.9,3.9,2,5.8,3.2l0.7-0.2l0,0.7c0.7,0.4,1.3,0.9,2,1.3
			c0.5-0.2,0.7-0.8,1-1.3c-4.3-3.1-8.9-5.6-13.9-7.7l0.2,0.7C215.9,414.2,215.9,415.4,214,414.1z"/>
		<path class="st0" d="M210.6,412.6c-0.3-0.4-0.4-0.8-0.6-1.2c-0.9-1.3-1.6,0.5-2.8-1.4c0.2,0.3,0.3,0.7,0.5,1
			c0.1,0.1,0.2,0.2,0.3,0.3c-0.1-0.1-0.2-0.2-0.3-0.3c-0.7-0.7-0.6,0.3-0.8,0.5c0.5,0.6,1.1,1.1,1.6,1.5c1.1,0.2,2.1,0.4,3.1,0.7
			c-0.1-0.4-0.2-0.8-0.5-1.2c1.2,1.8,1.7,1,2.8,1.6l-2-2.6c0.1,0.1,0.2,0.1,0.3,0c-0.8-0.3-1.7-0.5-2.6-0.8c0.1,0.2,0.2,0.5,0.3,0.8
			C210.3,411.7,210.4,412,210.6,412.6z"/>
		<path class="st0" d="M230.9,421.6c0.9,1,1.4,3,1.9,2.2l-1-1.7c1,0.4,1,2.5,1.9,1.9c-0.4-0.6-0.3-1-0.4-1.4
			c-0.7-0.6-1.5-1.2-2.3-1.7C230.9,421.1,230.9,421.3,230.9,421.6z"/>
		<path class="st0" d="M199.3,408.4c-0.6-0.1-1.2-0.1-1.8-0.2l1.1,0.6C199.1,409.2,199.2,408.9,199.3,408.4z"/>
		<path class="st0" d="M255.7,466.7c0,0.1,0,0.3,0.1,0.4c0-0.1,0.1-0.1,0.1-0.2L255.7,466.7z"/>
		<path class="st0" d="M241.2,505.7c0.4,0.1,1,0.4,1.3,0.7l-0.1,0.6c1.5-2.1,2.8-4.4,4-6.7c-0.5-0.1-1-0.4-1.6-0.7
			C243.8,501.7,242.5,503.7,241.2,505.7z"/>
		<path class="st0" d="M231.5,433.8c0.1,0.1,0.1,0.1,0.2,0.2l0-0.2C231.6,433.8,231.6,433.8,231.5,433.8z"/>
		<path class="st0" d="M240.8,506.4C240.8,506.4,240.8,506.4,240.8,506.4c-7.9,11.2-20.2,19.4-34.6,21.7c0.2,0.1,0.3,0,0.6,0.2
			c0,0.2,0.6,0.9,0.5,1.3l-1.1-1.5c-4.2,0.7-8.6,0.8-13.2,0.4c-4.4,0.3-8.6,0.1-12.6-0.5c0,0.1-0.1,0.1-0.1,0.2
			c-0.3,0.1-0.3,0-0.3-0.3c-2.3-0.4-4.6-0.9-6.8-1.6c0,0.1,0,0.1,0.1,0.2l-0.1-0.2c-7.8-2.4-14.6-6.7-20-12.3
			c0.5,2.2-2.5-0.8-3.2-0.4c0.1-1.4,0.8-0.2,0.4-2.4l1.5,1.9c-0.1-0.2-0.1-0.4-0.2-0.6c-2.5-2.8-4.6-5.8-6.5-9.2
			c-0.2,0.2-0.5,0-0.8,0.1l0.5,2.8c-0.7,0.9-0.6-1.1-0.9-1.7c-0.6-0.6-0.6,0.5-0.6,1.3c0.4,0.7,0.9,1.4,1.4,2.1
			c0.4-0.2,1,0.3,1.7,0.7c-0.5-0.1-0.8,0-1,0.2c1.1,1.5,2.3,3,3.5,4.5l-0.1-0.2c0.3,0.6,1.5,1.4,2.2,2.5c2.4,2.5,5,4.8,7.7,6.9
			c0.1-0.4-0.1-1.3-0.1-1.8c1.3,2.3,1.4-0.1,2.4,2.4c0.2,0.6,0.4,1,0.4,1.3c2.6,1.8,5.4,3.4,8.3,4.8l-0.6-0.7c0.2-0.7,1-0.6,1.6-0.8
			c0.2,0.4,0.4,0.6,0.6,0.8c0-0.1,0-0.2,0-0.4c0.1,0.3,0.2,0.5,0.3,0.7c0.1,0.1,0.3,0.2,0.4,0.2c0.5-0.2,1.1-1.9,0.8-0.5
			c0,0.1,0,0.1,0,0.1c0.3-0.2,0.6-0.3,1.1,0.7c0.4,1.5-1.3-0.2-1,1.2c1.1,0.4,2.2,0.9,3.3,1.2c-0.5-0.9,1.1,0.5,0.1-1.1
			c0.5,0,0.6,0.9,0.8,1.3l-0.3,0c5,1.7,10.2,2.7,15.4,3.1c1,0,1.9-0.1,2.9-0.1c-0.9-1.5,0.7-0.6,0.2-2.2c0.5,0.3,1,1.4,1,2.1
			c2.4-0.2,4.7-0.6,7-1.1c-1.2-1.3-2.2-0.1-3.5-3.1l-0.3,1.4l-0.7-1.6c0.4-1.6,2.2,1,3.6,0.8c0.7,0.3-0.3-1.1,0-1
			c1.1,1.3,0,1.3,0.5,2c0.4,0.4,0.8,0.9,1.3,1.2c14.2-3.4,26.6-12,35.4-23.3l0,0l0,0c0.7-0.9,1.4-1.9,2.1-2.8
			C241.6,507.1,241.1,506.9,240.8,506.4z M162.1,524.7c0.3-1.5,1.2-0.2,1.9-0.1C163.7,524.7,163.3,526.2,162.1,524.7z M175.3,529.6
			l-0.3-2l0.6,0.7L175.3,529.6z M187.7,529c0.3,0.1,0.3-0.4,0.6,0.1c0.2,0.4,1.2,0.5,1.5,1.6C189.1,530,187.9,529.7,187.7,529z"/>
		<path class="st0" d="M213.5,417C213.5,417,213.5,417,213.5,417C213.5,417,213.5,417,213.5,417C213.5,417,213.5,417,213.5,417z"/>
		<path class="st0" d="M248.6,443.8c-0.1-0.2-0.3-0.3-0.4-0.5c0.1,0.1,0.1,0.2,0.2,0.4C248.5,443.7,248.5,443.8,248.6,443.8z"/>
		<path class="st0" d="M173.1,534.3c-0.4-0.8-0.5-1.2-0.7-1.6c0.5,0.8,1,0.9,1,0.2c-4.5-1.5-8.7-3.5-12.7-6
			c-0.3,0.4-0.6,0.7-1.5-0.8l0.1,0c-6-3.9-11.3-8.9-15.7-14.7c-0.7-0.1-1.5,0.1-1.9,0.4c-0.1,0.2-0.1,0.3-0.1,0.5
			c4,5.2,8.8,9.9,14.2,13.9c0.3-0.4,0.3-1.3,0.9-1.1c0.7,1.4,0,1.3-0.6,1.3c1.8,1.3,3.7,2.6,5.6,3.8c-0.2-0.8-0.7-1.6,0-1.2
			c0.3,0.5,0.6,1.1,0.7,1.6c0.3,0.2,0.6,0.4,1,0.6l0-0.1c0,0.1,0,0.1,0,0.1c2.4,1.4,4.9,2.6,7.4,3.7
			C170.6,533.5,172.4,534.5,173.1,534.3z M157.4,524.8l1.1,2.2C157.8,526.6,157.4,525.6,157.4,524.8z"/>
		<path class="st0" d="M207.8,535.2c0.1,0.3,0.2,0.7,0.6,1.2c-0.4,0.3-1-0.5-1.5-1c-0.2,0-0.5,0.1-0.7,0.1c0.2,0.3,0.4,0.3,0.7,0.6
			c-0.4,0.8-1.3,0.6-2.1,0.6c-0.1-0.3-0.2-0.6-0.3-0.9c-3.3,0.4-6.7,0.5-10.1,0.3c-7.4,0.2-14.4-0.9-21-3.1c0.2,1.2,1,1,1.8,1.4
			l-0.8-1c0.3,0,0.9,0.9,1.2,0.9c-0.1-0.2,0-0.3,0.2-0.2c0,0.1-0.1,0.2-0.2,0.2c0.1,0.5,0.9,1.8,1.5,2.4c-0.8-0.3-1.1-1.9-1.8-1.2
			c0.7,1,0.7,1.2,0.7,1.5c5.7,1.9,11.7,3.1,17.8,3.5c1.6-0.1,3.3-0.3,4.9-0.6c0.2-0.4,0.6-0.4,1.1-0.2c3.6-0.6,7.2-1.4,10.6-2.4
			c-0.1-0.1-0.2-0.1-0.3,0l0.3-0.4c0.1,0.1,0.2,0.2,0.3,0.3c0.1,0,0.2-0.1,0.4-0.1c-0.2-0.3-0.5-0.6-0.7-0.9c0.7,0.6,1,0.8,1.2,0.8
			c0.4-0.1,0.9-0.3,1.3-0.4c-0.4-0.5-0.7-0.8-0.5-0.6c1.1-0.7,2.4-1.4,3.9-0.7c0.3-0.1,0.6-0.2,0.8-0.3l-0.1-0.7
			c0.2,0.3,0.4,0.4,0.5,0.5c0.6-0.3,1.3-0.5,1.9-0.8l-0.3-0.5l0.5,0.4c0.4-0.2,0.8-0.3,1.2-0.5l-0.6-0.5l0.7-0.5l0.1,0.9
			c5.3-2.5,10.2-5.5,14.5-9l-1.4-0.9C226.5,529.2,217.6,533.5,207.8,535.2z"/>
		<path class="st0" d="M252.7,480.8c-0.8-0.1-1.6-1.1-2.6-1.9c-0.3,5.6-1.4,11-3.4,16l0.2,0l-0.3,0.2l0.3,0.9l-0.5-0.4
			c-0.2,0.6-0.4,1.1-0.7,1.6c0.2,0.2,0.4,0.4,0.7,0.6c-0.1,0.6,0.6,1.1,0,1l0.3,0.5c0.3-0.6,0.6-1.1,0.8-1.7
			c-0.1-0.1-0.3-0.3-0.4-0.3c-0.1,0.1-0.1,0.3-0.3,0.2c0-0.2,0.1-0.3,0.3-0.2c0.1-0.2,0.2-0.4,0.5,0c2.4-5.1,4.1-10.5,5-16
			c-0.2,0-0.4-0.1-0.7-0.2L252.7,480.8z"/>
		<path class="st0" d="M250.5,502.6c-1.3,2.6-2.8,5.2-4.4,7.6c0.4,0.3,0.7,0.4,0.9-0.1c0.9,1.8-0.1,0.6,0,1.3c0,0.1,0.1,0.1,0.1,0.2
			c1.7-2.5,3.3-5,4.6-7.8c0,0,0-0.1,0-0.1L250.5,502.6z"/>
		<path class="st0" d="M256.9,473c0.6,1.9-0.4,2.6,0.8,4.4c-0.9-0.5-1.1,0.1-1.4,0.5c0,8.5-2,16.8-5.6,24.3c0.5,0.3,1,0.6,1.2,1.2
			c3.9-8.1,6.1-17.3,6-27.3c0-0.6,0-1.2,0-1.8C257.6,474,257.3,473.6,256.9,473z"/>
		<path class="st0" d="M164.9,422.2c1.2,1.6-0.1,0.6-0.4,0.5c0.6,0.7,0.9,1.6,1.2,2.4c1.9-1.1,3.9-2.1,5.9-2.9
			c-0.2-0.3-0.5-0.6-0.8-0.9l-0.6,0.9c-0.7-0.3,0.2-0.9-0.2-1.7c-0.2,0.9-1.1-0.1-1.4,0.9c-0.5,0.5-1.4-0.7-1.9-1.9
			c-0.6,0.3-1.2,0.7-1.7,1c0.5,0,1.6,1,1.1-0.3l1.3,1l-1.3,0l0.5,1.5c-0.5,0.6-1.2-1.6-1.9-1.9c0,0,0-0.1,0-0.1
			c-0.6,0.4-1.2,0.8-1.8,1.1C163.7,422.4,164.6,423,164.9,422.2z"/>
		<path class="st0" d="M234.8,522.6c0.4,0.5,0.7,0.5,1.1,0.7l0.1,0.4c4-3.3,7.5-7,10.5-11.1c-0.3-0.4-0.6-1-0.9-1.5
			C242.5,515.3,238.8,519.2,234.8,522.6z"/>
		<path class="st0" d="M246.8,495.1c0,0,0,0.1-0.1,0.1L246.8,495.1L246.8,495.1z"/>
		<path class="st0" d="M172.1,535.3c0.3,0.1,0.6,0.3,0.9,0.4c-0.4-0.4-0.8-0.7-1.2-1.1C171.6,534.6,171.9,534.9,172.1,535.3z"/>
		<path class="st0" d="M168.8,418.5c-0.2,0.1-0.3,0.2-0.5,0.3C168.5,418.7,168.7,418.6,168.8,418.5L168.8,418.5z"/>
		<path class="st0" d="M249.7,463.3l2.1,2.3c0-1.1,0.4-1.1,0.9-0.7c-0.4-2.4-0.9-4.7-1.6-6.9c-0.2-0.4-0.2-1.1-0.6-0.9l-0.1,1.1
			l0.4,0.3l-1.8-1.2c1.3,0.2,0.2-2.2,0.5-2.9l0.6,0.5c-0.5-1.3-1-2.7-1.5-4l-0.6-0.5c0.1-0.2,0.2-0.2,0.3-0.2
			c-0.8-1.9-1.8-3.7-2.8-5.5c-0.3,0.1-0.6,0.2-0.1,1.3c-0.4,1.8-1.8-2.5-2.2-1c0.2,0.4,0.6,1.1,1,1.2c0.3,0.9-0.3-0.1-0.5-0.2
			c-0.4-0.3-1.1-1.9-0.6-2.2c1.9,3,0.6-1,1.4-0.9c-0.3-0.5-0.7-1-1-1.6c-0.7-0.8-1.3-1.2-1.2,0.1l0.4,0.5c0.2,0.1,0.4,0.3,0.6,0.7
			l-0.6-0.7c-0.3-0.1-0.6,0.2-1-0.1l0.5,1.2c0,0.3-0.5,0.3-1,0.2c-0.1,0-0.1,0-0.2-0.1c-0.2-0.1-0.3-0.1-0.4-0.1
			c0.1,0,0.3,0.1,0.4,0.1c0.1,0,0.1,0,0.2,0.1c0.3,0,0.4-0.1,0.1-0.9c-0.4-0.5-1.2-1.6-1.5-1.6c0.3-0.4,0.9-0.1,0.8-1.3l0.4,1.6
			l0.7-0.7c-0.3-0.6-0.9-1.4-1.2-1.7c0,0-0.1,0-0.1-0.1c0,0,0.1,0,0.1,0.1c0.5,0.2,0.9,0.2,1.2,0c-0.8-1-1.6-2.1-2.4-3.1
			c-0.3,0-0.4,0.3,0.2,1.7c-0.9-0.5-2.1-0.2-3-1.2l1.9,2.4l-1.8-1.2c0,0,0,0-0.1,0.1l-0.7-0.6l0.8,0.5c0.4-0.4-0.7-1.1-0.9-2
			c-0.7-0.2-0.6,0.9-0.3,2.6c1.3,1.5,2.5,3,3.6,4.7c0.3-0.2,0.4-0.4,0.3-0.9c1,1.4,1,2.4,1.3,3.4c0.1,0.2,0.3,0.4,0.4,0.6
			c0.9,0.3,0.2-1.2,1.3,0.3l-0.8,0l0.6,0.9c-0.1,0.1-0.2,0.2-0.3,0.2c0.2,0.4,0.4,0.7,0.6,1.1c0.1,0,0.1,0,0.1-0.1l-0.1,0.2
			c2.7,5,4.8,10.6,6.2,16.5C249.2,464.7,249.9,464.8,249.7,463.3z M243.5,446.5L243.5,446.5C243.4,446.4,243.4,446.4,243.5,446.5
			l1.5,1.9C244.6,448.9,243.7,447,243.5,446.5z M245,449.7c0.5,0.2,0.1-1.1,0.9-0.1C246.1,450.3,245.4,449.7,245,449.7z
			 M246.6,450.9c-0.1,0-0.1,0.1,0,0.5C246.4,450.9,246.4,450.8,246.6,450.9c0.3,0,1.1,1,1.3,0.7c-0.1-0.3-0.1-0.6-0.2-0.9l-0.3-0.5
			c0.2,0.2,0.3,0.4,0.3,0.5l1.3,2.3C248.5,453,247,451,246.6,450.9z"/>
		<path class="st0" d="M137.2,503.6c-0.2,0.6-0.9,0-1.1,0.3c0.4,0.7,0.8,1.4,1.2,2.1c0,0,0-0.1,0.1-0.1l0.2,0.5
			c0.1,0.2,0.3,0.5,0.4,0.7l0.3,0c0.1-0.5,0.2-0.9,0.1-1.2c0.3-0.6,0.5-1.1,0.7-1.4c-0.2-0.4-0.5-0.9-0.7-1.3
			c-0.1,0.3-0.3,0.4-0.9,0c0.5-0.6-1.3-2.5-2-2.1c0.6,1.5-0.2,0.5-0.5,0.6c0.3,0.5,0.5,1,0.8,1.5
			C136.2,503.1,136.6,503.1,137.2,503.6z"/>
		<path class="st0" d="M136.1,499.4c-0.4-0.8-0.6,0.1-0.9,0.1c0.1-0.6,0.8-0.2-0.2-1.4c0.4,0.1,0.7,0.4,1,0.6
			c-2.5-5.6-4.3-11.6-5.2-17.9c0,0,0,0,0,0l-0.4-0.2c0.2,0,0.3,0.1,0.4,0.2l0,0c-0.3-1.9-0.5-3.9-0.6-5.9c0-0.4,0-0.8,0-1.3
			c-0.6-1.6-0.3,0.9-1.2-0.2l-0.3-0.6c-0.1,0.7-0.1,1.4-0.1,2.1c-0.1,5.3,0.5,10.6,2,15.7l0.6,0.5c-0.1,0.3-0.2,0.5-0.3,0.6
			c0.8,2.8,1.9,5.6,3.2,8.3C134.8,500.1,135.9,500.3,136.1,499.4z"/>
		<path class="st0" d="M139.5,507.8c1.2,2,2.6,2.4,3.7,2.9c-1-1.3-2-2.7-2.9-4.2C140,506.8,139.6,507.2,139.5,507.8z"/>
		<path class="st0" d="M251.3,473.4c0.6,2.2,0.9-0.3,1.5,1.4c0.2,0,0.5,0,0.7,0.1c0-1.2,0-2.4-0.1-3.6c-0.2-0.2-0.5-0.4-0.7-0.5
			c0.1-0.3,0.4-0.3,0.7-0.2c0-0.6-0.1-1.1-0.1-1.7c-0.3,0.4-0.6,1.1-1.5-0.3c0,0.8-1.4,0.3-0.7,2c-0.9-1.6-0.8,0-1.4-0.1
			c0.2,1.5,0.4,3.1,0.5,4.6C250.6,474.6,251,474,251.3,473.4z"/>
		<path class="st0" d="M142.9,498.5c0,0,0-0.1-0.1-0.1l-0.6-1c0.2,0.3,0.3,0.5,0.4,0.6c-0.3-0.8-0.7-1.7-1-2.6
			c-1.2,0.2-2.3,0.1-3.5-0.4c0.5,1.3,1,2.6,1.6,3.9C140.5,498.4,141.5,498,142.9,498.5z"/>
		<path class="st0" d="M136.3,445.7c2.8-5.5,6.3-10.5,10.3-15C142.5,435,139,440.1,136.3,445.7z"/>
	</g>
</g>
<g>
	<path class="st1" d="M261.9,34.1c-3.8-3.9-6.6-8.6-8.4-13.6c-2.4-6.7-8.4-11.4-15.3-11.4h-96.8H137H48.8c-7,0-12.9,4.7-15.3,11.4
		c-1.8,5.1-4.7,9.8-8.4,13.6c-3.9,4-8.6,7-13.7,8.8C4.7,45.3,0,51.6,0,58.9V180v209v121.2c0,7.3,4.7,13.6,11.4,16
		c5.1,1.8,9.8,4.8,13.7,8.8c3.8,3.9,6.6,8.6,8.4,13.6c2.4,6.7,8.3,11.4,15.3,11.4H137h4.4h96.8c7,0,12.9-4.7,15.3-11.4
		c1.8-5.1,4.7-9.8,8.4-13.6c3.9-4,8.6-7,13.7-8.8c6.7-2.4,11.4-8.7,11.4-16V389V180V58.9c0-7.3-4.7-13.6-11.4-16
		C270.5,41.1,265.8,38.1,261.9,34.1z"/>
	<path class="st2" d="M246.9,52.4c-3.1-3.1-5.4-6.9-7-11c-2.6-6.6-8.7-10.9-15.6-10.9h-82.7h-3.8H62.7c-6.9,0-13.1,4.3-15.6,10.9
		c-1.6,4.1-4,7.8-7,11c-3.2,3.3-7,5.8-11.1,7.4c-6.5,2.5-10.8,9-10.8,16.1v117.4v182.5v117.4c0,7.1,4.3,13.6,10.8,16.1
		c4.1,1.6,8,4.1,11.1,7.4c3.1,3.1,5.4,6.9,7,11c2.5,6.6,8.7,10.9,15.6,10.9h75.1h3.8h82.7c6.9,0,13.1-4.3,15.6-10.9
		c1.6-4.1,4-7.8,7-11c3.2-3.3,7-5.8,11.1-7.4c6.5-2.5,10.8-9,10.8-16.1V375.8V193.3V75.9c0-7.1-4.3-13.6-10.8-16.1
		C253.9,58.1,250.1,55.6,246.9,52.4z"/>
</g>
<g>
	<path class="st3" d="M247.3,3.1c-7.9-5.6-18.8-3.5-24.2,4.6l-1,1.4h4.8c4.4-5.6,12.3-6.9,18.1-2.8c6.1,4.3,7.7,13,3.5,19.2
		l-31.7,47.5c-2.2,3.3-6.6,4.1-9.8,1.9l-1.4-1c-3.2-2.3-4-6.8-1.8-10.1l27.3-40.8c0.6-0.9,0.4-2.2-0.5-2.8c-0.9-0.6-2.1-0.4-2.7,0.5
		l-27.3,40.8c-3.4,5.1-2.1,12.1,2.8,15.6l1.4,1c5,3.5,11.8,2.2,15.2-2.9l31.7-47.5C257.2,19.8,255.2,8.7,247.3,3.1z"/>
</g>
</svg>
